<?xml version="1.0" encoding="UTF-8"?>
<svg id="Layer_1" xmlns="http://www.w3.org/2000/svg" version="1.1" viewBox="0 0 24 24">
  <!-- Generator: Adobe Illustrator 29.0.1, SVG Export Plug-In . SVG Version: 2.1.0 Build 192)  -->
  <defs>
    <style>
      .st0 {
        fill: #464756;
      }

      .st1 {
        fill: #474756;
      }

      .st2 {
        fill: #f04f59;
      }

      .st3 {
        fill: #42489b;
      }

      .st4 {
        fill: #464755;
      }

      .st5 {
        fill: #f5f6f6;
      }
    </style>
  </defs>
  <g id="v7Q14T.tif">
    <g>
      <rect class="st5" y="3.86" width="24" height="15.75" rx="2.22" ry="2.22"/>
      <path class="st3" d="M15.72,13.49c-.27.85-1.33,1.73-2.14,2.05-3.46,1.37-6.79-2.08-5.3-5.46l.07.12c-.19,1.23.74,2.38,2.01,2.34.87-.03,1.29-.51,1.8-1.13,1.49-1.69,4.44-.06,3.56,2.09h0Z"/>
      <path class="st2" d="M15.72,13.49c.52-1.64-1.08-3.14-2.69-2.57-1.04.37-1.11,1.47-2.34,1.68-1.5.26-2.69-1.05-2.4-2.52.45-1.02,1.1-1.75,2.15-2.17,3.53-1.43,6.94,2.2,5.29,5.58h-.01Z"/>
      <path class="st0" d="M16.97,6.11c.06-.01.11-.02.17,0,.18.06,1.67,2.55,1.95,2.87.25.28-.26.64-.49.44l-1.94-2.97c-.02-.12.22-.31.32-.34h-.01Z"/>
      <path class="st0" d="M6.53,5.74c.06.08.08.17.03.25-.32.35-1.78,2.88-2.01,2.95-.16.05-.46-.16-.47-.3-.02-.23,1.68-2.47,1.87-2.88.13-.27.42-.22.59-.02h-.01Z"/>
      <path class="st4" d="M7.75,6.62c.14-.04.57.26.41.46l-1.87,2.8c-.16.33-.69-.03-.56-.32l1.85-2.77c.04-.05.1-.15.17-.17Z"/>
      <path class="st4" d="M6.02,13.39c.05-.01.1,0,.15.02l1.99,2.92c.16.2-.27.49-.41.46-.19-.05-1.73-2.61-2.02-2.94-.12-.18.15-.42.29-.46h0Z"/>
      <path class="st0" d="M6.53,17.68c-.17.21-.39.25-.55.04-.29-.4-1.54-2.26-1.83-2.75-.03-.06-.08-.12-.08-.19.01-.14.39-.42.47-.3.21.28,1.73,2.58,2.01,2.95.05.08.03.18-.03.25h.01Z"/>
      <path class="st4" d="M6.91,6.11c.19-.06.61.23.45.45l-1.91,2.86c-.15.16-.57-.09-.57-.26.26-.34,1.85-3,2.03-3.06h0Z"/>
      <path class="st1" d="M18.98,7.31c.11,0,.11,0,.2.08.06.06.76,1.12.77,1.19.05.22-.33.5-.57.28-.07-.07-.74-1.08-.76-1.16-.05-.19.14-.34.3-.38h.06Z"/>
      <path class="st1" d="M6.35,15.69c.14-.03.18,0,.27.08.06.06.73,1.06.75,1.12.08.26-.31.53-.52.38-.06-.04-.74-1.09-.78-1.19-.07-.18.12-.36.28-.4h0Z"/>
      <path class="st1" d="M17.53,15.69c.18-.05.51.16.46.37-.02.07-.71,1.14-.77,1.19-.22.2-.62-.09-.54-.35.03-.08.63-.98.71-1.07.04-.05.08-.12.15-.14h0Z"/>
      <path class="st1" d="M18.65,13.96c.19-.07.55.14.5.36-.03.12-.77,1.21-.86,1.25-.19.09-.52-.17-.46-.41.02-.07.75-1.17.82-1.2Z"/>
      <path class="st1" d="M17.16,8.1c-.11.13-.34.26-.5.13-.05-.04-.75-1.07-.77-1.14-.1-.28.31-.55.49-.4.08.07.74,1.05.79,1.18.04.1.07.14-.01.24h0Z"/>
      <path class="st1" d="M17.39,8.36c.07,0,.13.04.18.09.07.07.75,1.09.76,1.15.08.3-.31.55-.53.34-.07-.06-.73-1.05-.75-1.12-.07-.22.15-.44.34-.46Z"/>
      <path class="st1" d="M17.16,15.32c.08.09.05.14.01.24-.05.12-.7,1.11-.79,1.18-.18.15-.6-.12-.49-.4.03-.07.72-1.1.77-1.14.15-.12.39,0,.5.13h0Z"/>
      <path class="st1" d="M18.26,7.16c-.18-.27-.68-.97-.8-1.23-.03-.19.32-.4.45-.35.06.02.11.08.15.13.08.09.73,1.07.74,1.13.05.23-.36.48-.54.33h0Z"/>
      <path class="st1" d="M19.49,14.47c.16-.05.5.18.46.37-.01.07-.71,1.14-.77,1.19-.19.17-.63-.03-.55-.32.02-.07.69-1.08.76-1.15.03-.03.05-.07.1-.09Z"/>
      <path class="st1" d="M17.91,13.4c.18-.05.48.21.42.43-.02.07-.7,1.09-.77,1.15-.2.2-.59-.06-.53-.34.02-.07.64-1.01.72-1.1.04-.05.08-.12.15-.14h.01Z"/>
      <path class="st1" d="M17.51,17.68s-.08-.1-.06-.15c.13-.3.66-1.03.8-1.27.17-.15.63.09.51.39-.04.1-.67,1.03-.76,1.11-.15.14-.38.06-.5-.09h.01Z"/>
      <path class="st1" d="M5.18,13.97c.09-.02.2-.04.27.04.07.11.61.85.76,1.16.13.25-.3.57-.55.31-.09-.09-.73-1.06-.76-1.16-.04-.15.16-.32.28-.35Z"/>
    </g>
  </g>
</svg>