<svg xmlns="http://www.w3.org/2000/svg" viewBox="0 0 997.8 79.8"><defs><style>.cls-1{fill:#fff;}.cls-2{fill:#31006f;}</style></defs><g id="레이어_2" data-name="레이어 2"><g id="레이어_1-2" data-name="레이어 1"><path class="cls-1" d="M545.3,79.8c-2.2,0-4.6-1.5-4.6-3.8a6,6,0,0,1,1.5-3.4h.1a3.6,3.6,0,0,1,2.5-1.1,4,4,0,0,1,1.5.3,7.7,7.7,0,0,0,1.7.7h.2c.2-.2,1.6-2.1,3.4-14.7l.8-5.1c.6-3.9,1.1-7,1.5-10.2h-2.6a2,2,0,0,1-1.9-1.4l-.2-.6a2.1,2.1,0,0,1,.5-2l1.6-1.6a2.4,2.4,0,0,1,1.4-.5h2.2c.8-3.8,2.3-8.3,4.9-11.5A14.8,14.8,0,0,1,570.9,19a6.1,6.1,0,0,1,4.4,1.8,3.9,3.9,0,0,1,1.2,2.8,5.5,5.5,0,0,1-1.9,3.6,3.5,3.5,0,0,1-2.2.9,2.9,2.9,0,0,1-2.2-.9,4.7,4.7,0,0,0-3.2-1.4c-.7,0-1.9,1.9-3.4,10.4h4.6a1.9,1.9,0,0,1,1.8,1.1,2,2,0,0,1-.3,2.2L568.4,41a1.7,1.7,0,0,1-1.3.7l-4.5.5c-.6,3.8-1,6.1-1.4,8l-.3,2c-2,11.3-4.5,18.9-7.5,22.7S546.8,79.8,545.3,79.8Zm390-13.3c-5.6,0-10.7-2.8-14.2-7.9a29.3,29.3,0,0,1-4.7-16.2,29.1,29.1,0,0,1,4.7-16.2c3.5-5.1,8.6-7.9,14.2-7.9s10.7,2.8,14.2,7.9a28.4,28.4,0,0,1,4.8,16.2C954.3,54.1,947.6,66.5,935.3,66.5Zm0-41c-7,0-9.4,9.1-9.4,16.9s2.4,16.9,9.4,16.9,9.5-9.1,9.5-16.9S942.3,25.5,935.3,25.5Zm-776.4,41c-8.5,0-15.1-6.3-15.1-14.3V25.7l-3.1-3.1a2.1,2.1,0,0,1-.4-2.2,2,2,0,0,1,1.8-1.2h12.3a2.2,2.2,0,0,1,1.9,1.2,2,2,0,0,1-.5,2.2l-3,3.1V52.2a7.1,7.1,0,0,0,7.3,6.8,6.7,6.7,0,0,0,6.7-6.8V25.7l-3-3.1a2,2,0,0,1-.5-2.2,2.1,2.1,0,0,1,1.9-1.2h11a2.1,2.1,0,0,1,1.9,1.2,2.2,2.2,0,0,1-.4,2.2l-3.1,3.1V52.2C174.6,60.7,166.5,66.5,158.9,66.5Zm702-.4c-11.9,0-21.7-10.6-21.7-23.7s9.6-23.8,21.7-23.8a20.6,20.6,0,0,1,10.8,2.7,2,2,0,0,1,1,1.8v7.3a1.8,1.8,0,0,1-1.2,1.8l-.8.2a2,2,0,0,1-1.4-.6l-4.6-4.6a4.7,4.7,0,0,0-3.8-1.4c-7.1,0-12.1,8.7-12.1,16.6S852.9,59,860.9,59a7,7,0,0,0,5-1.9v-12l-2.8-2.7a2.1,2.1,0,0,1-.5-2.2,2.2,2.2,0,0,1,1.9-1.3h11.3a2.1,2.1,0,0,1,1.9,1.3,2,2,0,0,1-.4,2.1l-2.8,2.8V61a2,2,0,0,1-.9,1.7C871,64.4,867.8,66.1,860.9,66.1Zm-154.6,0a20.8,20.8,0,0,1-2.9-.3l-8.1-1.6a1.9,1.9,0,0,1-1.5-1.1,2.2,2.2,0,0,1,.1-1.8l3.7-6.6a1.8,1.8,0,0,1,1.5-1h.2a1.7,1.7,0,0,1,1.5.7l3.7,4.3a4.8,4.8,0,0,0,1.8.3c3.9,0,5-3.5,5-5.5a5,5,0,0,0-2.2-4.5l-8.7-6.3a14,14,0,0,1-6.2-11.3A12.6,12.6,0,0,1,706.9,19a8.5,8.5,0,0,1,2.5.3l8.3,1.5a2,2,0,0,1,1.5,1.2,2.1,2.1,0,0,1-.2,1.9l-4,5.9a2.1,2.1,0,0,1-1.5.9h-.1a2.1,2.1,0,0,1-1.5-.7l-3.3-3.5h-.4l-1.3-.2s-4.1.1-4.1,4c0,1.4,1.2,3.7,3.9,5.6l8.6,6.2a11.4,11.4,0,0,1,4.7,9.8A14,14,0,0,1,706.3,66.1Zm-324,0a23.2,23.2,0,0,1-3-.3l-8.1-1.6a1.9,1.9,0,0,1-1.4-1.1,1.9,1.9,0,0,1,.1-1.8l3.6-6.6a1.9,1.9,0,0,1,1.6-1h.2a1.8,1.8,0,0,1,1.5.7l3.7,4.3a4.8,4.8,0,0,0,1.8.3c3.9,0,5-3.5,5-5.5a5,5,0,0,0-2.2-4.5l-8.7-6.3c-4-2.9-6.3-7-6.3-11.3A12.7,12.7,0,0,1,382.9,19a7.4,7.4,0,0,1,2.4.3l8.4,1.5a1.9,1.9,0,0,1,1.4,1.2,2.1,2.1,0,0,1-.1,1.9l-4,5.9a2.1,2.1,0,0,1-1.5.9h-.1a2.1,2.1,0,0,1-1.5-.7l-3.3-3.5h-.5l-1.2-.2s-4.1.1-4.1,4c0,1.4,1.2,3.7,3.8,5.6l8.6,6.2c1.8,1.2,4.8,4.1,4.8,9.8A14,14,0,0,1,382.3,66.1ZM528.6,66c-6.6,0-9.5-5.4-9.5-10.8,0-9.1,4.9-15.3,9.5-18a15.4,15.4,0,0,1,7.5-2.5c5.9,0,9.6,4,9.6,10.3s-2.8,12.8-6.9,16.5S531.7,66,528.6,66Zm5.6-25.1-1.2.3c-1.1.5-5.1,4.7-5.1,12.6,0,1.4.2,6,2.7,6a2.7,2.7,0,0,0,1.2-.3c1.4-.4,5.2-6.5,5.1-13.7C536.9,40.9,534.8,40.9,534.2,40.9ZM827.4,65.6a1.9,1.9,0,0,1-1.7-1L807.1,35.1v24l3.1,3a2.2,2.2,0,0,1,.4,2.2,1.8,1.8,0,0,1-1.8,1.2H797.7a1.8,1.8,0,0,1-1.8-1.2,1.9,1.9,0,0,1,.4-2.2l3-3V25.7l-3-3.1a1.8,1.8,0,0,1-.4-2.2,2,2,0,0,1,1.8-1.2h8.8a1.9,1.9,0,0,1,1.6,1l15.4,24.6V25.7l-3-3.1a2,2,0,0,1-.5-2.2,2.1,2.1,0,0,1,1.9-1.2h11a2.1,2.1,0,0,1,1.9,1.2,2,2,0,0,1-.5,2.2l-3,3.1V63.5a2,2,0,0,1-2,2ZM990,65.5a2,2,0,0,1-1.7-.9L970,35.2V59.1l3.1,3a2,2,0,0,1,.4,2.2,1.8,1.8,0,0,1-1.8,1.2H960.6a1.8,1.8,0,0,1-1.8-1.2,2,2,0,0,1,.4-2.2l3-3V25.7l-3-3.1a2,2,0,0,1,1.4-3.4h8.8a2.1,2.1,0,0,1,1.7,1l15.4,24.6V25.7l-3.1-3.1a2,2,0,0,1-.5-2.2,2.2,2.2,0,0,1,1.9-1.2h11a2,2,0,0,1,1.9,1.2,2.1,2.1,0,0,1-.4,2.2l-3.1,3.1V63.5a1.9,1.9,0,0,1-2,2Zm-98.8,0a1.8,1.8,0,0,1-1.8-1.2,2.2,2.2,0,0,1,.4-2.2l2.7-2.7v-33h-5.1l-4,3.9a2,2,0,0,1-1.4.6l-.8-.2a2,2,0,0,1-1.2-1.8V21.2a2,2,0,0,1,2-2h29.8a2,2,0,0,1,2,2v7.7a1.9,1.9,0,0,1-1.3,1.8l-.7.2a1.7,1.7,0,0,1-1.4-.6l-4-3.9h-5.2v33l2.8,2.7a2,2,0,0,1,.4,2.2,1.8,1.8,0,0,1-1.8,1.2Zm-116.5,0a1.8,1.8,0,0,1-1.8-1.2,2.2,2.2,0,0,1,.4-2.2l2.8-2.7v-34l-2.8-2.8a2.1,2.1,0,0,1-.4-2.2,2,2,0,0,1,1.8-1.2h11.4a2,2,0,0,1,1.9,1.2,2.1,2.1,0,0,1-.4,2.2l-2.8,2.8v34l2.8,2.7a2.2,2.2,0,0,1,.4,2.2,1.9,1.9,0,0,1-1.9,1.2Zm-23.1,0a1.9,1.9,0,0,1-1.9-1.2,2.2,2.2,0,0,1,.4-2.2l2.8-2.8v-15H739.1v15l2.8,2.8a2,2,0,0,1-1.4,3.4H729.2a2,2,0,0,1-1.9-1.2,2.2,2.2,0,0,1,.4-2.2l2.8-2.7v-34l-2.8-2.8a2.2,2.2,0,0,1-.4-2.2,2.1,2.1,0,0,1,1.9-1.2h11.3a2.2,2.2,0,0,1,1.9,1.2,2,2,0,0,1-.5,2.2l-2.8,2.8V37.2h13.8V25.4l-2.8-2.8a2.1,2.1,0,0,1-.4-2.2,2,2,0,0,1,1.9-1.2H763a2,2,0,0,1,1.8,1.2,1.9,1.9,0,0,1-.4,2.2l-2.8,2.8V59.3l2.8,2.8a2,2,0,0,1,.4,2.2,1.8,1.8,0,0,1-1.8,1.2Zm-74.4,0a1.8,1.8,0,0,1-1.8-1.2,1.9,1.9,0,0,1,.4-2.2l2.4-2.4-2.1-6.4H665l-2.2,6.4,2.4,2.4a2,2,0,0,1,.4,2.2,1.8,1.8,0,0,1-1.8,1.2H653.6a2,2,0,0,1-1.4-3.4l3.1-3.1,13.3-38.4a2,2,0,0,1,1.9-1.4h2.1a2,2,0,0,1,1.9,1.4L687.6,59l3,3.2a1.9,1.9,0,0,1-1.4,3.3Zm-3.5-19.4-3.1-9.2-3.2,9.2ZM634.6,65.5a2,2,0,0,1-2-1.4l-7.5-24.5-7.7,24.6a2.1,2.1,0,0,1-1.9,1.3h-2.2a1.9,1.9,0,0,1-1.9-1.4L599.6,25.7l-3-3.1a1.9,1.9,0,0,1-.5-2.1,2,2,0,0,1,1.9-1.3h11.9a2,2,0,0,1,1.5,3.4l-2.5,2.5,6.5,21.8,5.9-19.5-.5-1.8-3-3a2,2,0,0,1-.5-2.2,2.2,2.2,0,0,1,1.9-1.2h12a2,2,0,0,1,1.8,1.2,1.9,1.9,0,0,1-.4,2.2l-2.5,2.5,6.5,21.8,6.7-21.8-2.5-2.5a1.9,1.9,0,0,1-.4-2.2,2,2,0,0,1,1.8-1.2h10.2a2.1,2.1,0,0,1,1.9,1.3,1.9,1.9,0,0,1-.5,2.1l-3.1,3.1L638.6,64.2a1.9,1.9,0,0,1-1.9,1.3Zm-160.3,0a1.8,1.8,0,0,1-1.8-1.2,2,2,0,0,1,.4-2.2l2.8-2.8V44.4L465.4,25.8l-3.2-3.2a1.9,1.9,0,0,1-.5-2.1,2,2,0,0,1,1.9-1.3h11.9a2,2,0,0,1,1.5,3.4l-2.3,2.3,6.1,11.3,6.3-11.3-2.2-2.3a1.8,1.8,0,0,1-.4-2.2,2,2,0,0,1,1.8-1.2h10.5a1.9,1.9,0,0,1,1.8,1.3,1.8,1.8,0,0,1-.4,2.1l-3.3,3.3L484.4,44.4V59.3l2.7,2.8a2.1,2.1,0,0,1,.5,2.2,2,2,0,0,1-1.9,1.2Zm-37.6,0a1.9,1.9,0,0,1-1.4-3.3l2.7-2.8v-33h-5.1l-4,3.9a2,2,0,0,1-1.4.6l-.8-.2a1.8,1.8,0,0,1-1.2-1.8V21.2a2,2,0,0,1,2-2h29.7a2,2,0,0,1,2,2v7.7a1.8,1.8,0,0,1-1.2,1.8l-.8.2a2,2,0,0,1-1.4-.6l-3.9-3.9h-5.2v33l2.8,2.7a2.2,2.2,0,0,1,.4,2.2,1.8,1.8,0,0,1-1.8,1.2Zm-30.4,0a2,2,0,0,1-1.4-3.4l2.8-2.8V25.4l-2.8-2.8a2,2,0,0,1-.5-2.2,2.2,2.2,0,0,1,1.9-1.2h11.4a2.2,2.2,0,0,1,1.9,1.2,2,2,0,0,1-.5,2.2l-2.8,2.8V59.3l2.8,2.8a2,2,0,0,1-1.4,3.4Zm-50,0a2,2,0,0,1-1.8-1l-9.7-18.7h-3.2V59.3l2.8,2.8a1.9,1.9,0,0,1,.4,2.2,1.8,1.8,0,0,1-1.8,1.2H331.7a2,2,0,0,1-1.9-1.2,2,2,0,0,1,.4-2.1l2.8-2.8v-34l-2.8-2.8a2.2,2.2,0,0,1-.4-2.2,2.1,2.1,0,0,1,1.9-1.2h13.1c7.7,0,15.7,5.1,15.7,13.7,0,4.4-2.9,8.7-7.1,10.9L361.6,59l3.1,3.1a2,2,0,0,1-1.4,3.4ZM344.8,38.7a6,6,0,0,0,6.1-5.9,6.3,6.3,0,0,0-6.1-6.4h-3.2V38.7ZM295.3,65.5a2,2,0,0,1-1.9-1.2,2.2,2.2,0,0,1,.4-2.2l2.8-2.7v-34l-2.8-2.8a2.2,2.2,0,0,1-.4-2.2,2.1,2.1,0,0,1,1.9-1.2h25.3a2,2,0,0,1,2,2v7.7a2,2,0,0,1-1.2,1.8l-.8.2a2,2,0,0,1-1.4-.6l-3.9-3.9H305.2v11H312l2.7-2.7a2,2,0,0,1,1.5-.6h.7a2.1,2.1,0,0,1,1.3,1.9V46a1.9,1.9,0,0,1-1.3,1.8l-.7.2a2,2,0,0,1-1.5-.6L312,44.6h-6.8V58.4h10l4-4a2,2,0,0,1,1.4-.6h.8a2.2,2.2,0,0,1,1.2,1.9v7.7a1.9,1.9,0,0,1-2,2Zm-26.2,0a1.8,1.8,0,0,1-1.9-1.4L255.4,25.7l-3.1-3.1a1.8,1.8,0,0,1-.4-2.1,1.9,1.9,0,0,1,1.8-1.3h12a2.2,2.2,0,0,1,1.9,1.2,2,2,0,0,1-.5,2.2l-2.4,2.5,6.4,21.8,6.7-21.8-2.5-2.5a2,2,0,0,1,1.5-3.4H287a1.9,1.9,0,0,1,1.8,1.3,2,2,0,0,1-.4,2.1l-3.1,3.1L273.1,64.1a1.8,1.8,0,0,1-1.9,1.4Zm-36.3,0a1.8,1.8,0,0,1-1.8-1.2,2.2,2.2,0,0,1,.4-2.2l2.8-2.8V25.4l-2.8-2.8a2.1,2.1,0,0,1-.4-2.2,2,2,0,0,1,1.8-1.2h11.5a2,2,0,0,1,1.8,1.2,2.1,2.1,0,0,1-.4,2.2l-2.8,2.8V59.3l2.8,2.8a2.2,2.2,0,0,1,.4,2.2,1.8,1.8,0,0,1-1.8,1.2Zm-16.6,0a1.9,1.9,0,0,1-1.7-.9L195.4,35V59.1l3.1,3a2,2,0,0,1-1.4,3.4h-11a2,2,0,0,1-1.9-1.2,2.2,2.2,0,0,1,.4-2.2l3-3V25.7l-3-3.1a2.2,2.2,0,0,1-.4-2.2,2.1,2.1,0,0,1,1.9-1.2h8.7a2.1,2.1,0,0,1,1.7,1l15.4,24.6V25.7l-3.1-3.1a2.1,2.1,0,0,1-.4-2.2,2,2,0,0,1,1.8-1.2h11.1a2,2,0,0,1,1.8,1.2,1.9,1.9,0,0,1-.4,2.2l-3.1,3.1V63.5a1.9,1.9,0,0,1-2,2Z"/><path d="M968,59.9V28.2l22,35.3h2.2V24.9l3.6-3.7h-11l3.7,3.7V51.8L969.4,21.2h-8.8l3.6,3.7v35l-3.6,3.6h11.1Zm-32.7,1.4c-8.5,0-11.4-10.2-11.4-18.9s2.9-18.9,11.4-18.9,11.5,10.1,11.5,18.9-3,18.9-11.5,18.9M918.4,42.4c0,10.7,6.1,22.1,16.9,22.1s17-11.4,17-22.1-6.1-22.1-17-22.1-16.9,11.3-16.9,22.1M899.2,60.2V24.4h8l4.6,4.5V21.2H882v7.7l4.6-4.5h7.9V60.2l-3.3,3.3h11.4ZM867.9,44.3V58a9.1,9.1,0,0,1-7,3c-9.4,0-14.1-9.5-14.1-18.6s5.9-18.6,14.1-18.6a6.6,6.6,0,0,1,5.2,2l4.6,4.6V23.1a18.6,18.6,0,0,0-9.8-2.5c-11.5,0-19.7,10.4-19.7,21.8s8.2,21.7,19.7,21.7c6.5,0,9.3-1.6,11.6-3.1V44.3l3.3-3.4H864.5ZM805.1,59.9V28.2l22.3,35.4h1.9V24.9l3.6-3.7h-11l3.6,3.7V51.8l-19-30.6h-8.8l3.6,3.7v35l-3.6,3.6h11.1ZM774.7,21.2l3.4,3.4V60.2l-3.4,3.3h11.4l-3.3-3.3V24.6l3.3-3.4ZM737.1,42.3h17.8V60.2l-3.3,3.3H763l-3.4-3.3V24.6l3.4-3.4H751.6l3.3,3.4V39.2H737.1V24.6l3.4-3.4H729.2l3.3,3.4V60.2l-3.3,3.3h11.3l-3.4-3.3ZM718,51.8c0-4.2-1.9-6.8-3.9-8.1l-8.6-6.3c-3.1-2.2-4.7-5.1-4.7-7.2a5.9,5.9,0,0,1,6.1-6,22.4,22.4,0,0,1,2.7.5l3.8,4,3.9-5.9-8.4-1.6a8.1,8.1,0,0,0-2-.2,10.6,10.6,0,0,0-10.7,10.4c0,3.2,1.6,6.9,5.4,9.7l8.7,6.2a7.2,7.2,0,0,1,3,6.2c0,3.6-2.2,7.5-7,7.5a6.7,6.7,0,0,1-3-.6l-4-4.7-3.6,6.6,8.1,1.5a13,13,0,0,0,2.5.3A12.1,12.1,0,0,0,718,51.8M670.7,30.6l5.8,17.5H664.6ZM660.5,60.2l3.1-8.9h14l2.9,8.9-3.3,3.3h12l-3.4-3.4L672.6,21.2h-2.1L657,60.1l-3.4,3.4h10.2Zm-45,3.3,9.7-30.6,9.4,30.6h2.1L649,24.6l3.4-3.4H642.2l3.3,3.3-8.9,29.3-8.7-29.3,3.3-3.3h-12l3.4,3.4.8,2.8-8.1,26.4-8.7-29.3,3.3-3.3H598l3.4,3.4,11.9,38.9ZM552.7,38.2l-1.6,1.5.2.6h4.9c-.7,5.4-1.5,10-2.6,17.5-1.6,11.2-3,15.1-4.1,16.1a2.7,2.7,0,0,1-1.5.5,7.3,7.3,0,0,1-2.6-.9,1.7,1.7,0,0,0-1.7.4,3.7,3.7,0,0,0-1,2.1c0,1.2,1.6,1.8,2.6,1.8s4-1,6.5-4.2,4.8-8.2,7.1-21.7c.4-2.5.9-5,1.9-11.6l6.1-.6,1.3-1.5h-7c1.8-11.1,3.3-14.4,5.8-14.4a6.3,6.3,0,0,1,4.6,2,1.2,1.2,0,0,0,1.7-.1,3.4,3.4,0,0,0,1.2-2.2c0-1.2-1.6-2.5-3.6-2.5s-7.1,2-9.6,5-3.9,7.3-4.7,12.2ZM525.9,53.8c0-8.8,4.5-13.6,6.3-14.4a6.5,6.5,0,0,1,2-.5c3,0,4.7,2.3,4.7,6.9.1,7.8-3.9,14.8-6.5,15.6a4.8,4.8,0,0,1-1.8.4c-3.3,0-4.7-3.5-4.7-8m10.2-17.1a15,15,0,0,0-6.5,2.2c-4.1,2.4-8.5,8-8.5,16.3,0,4.2,1.9,8.8,7.5,8.8,2.6,0,6.4-1.7,8.9-4s6.2-9.7,6.2-15-2.6-8.3-7.6-8.3M467,24.6l10.7,19.3V60.2l-3.4,3.3h11.4l-3.3-3.3V43.9l10.9-19.2,3.5-3.5H486.3l3.3,3.3-8.9,15.9-8.5-15.9,3.3-3.3H463.6ZM444.7,60.2V24.4h8l4.5,4.5V21.2H427.5v7.7l4.6-4.5H440V60.2l-3.3,3.3h11.4Zm-38.4-39,3.4,3.4V60.2l-3.4,3.3h11.4l-3.4-3.3V24.6l3.4-3.4ZM394,51.8c0-4.2-1.9-6.8-3.9-8.1l-8.6-6.3c-3.1-2.2-4.7-5.1-4.7-7.2a5.9,5.9,0,0,1,6.1-6,22.4,22.4,0,0,1,2.7.5l3.8,4,3.9-5.9-8.4-1.6a8.8,8.8,0,0,0-2-.2,10.7,10.7,0,0,0-10.8,10.4c0,3.2,1.7,6.9,5.5,9.7l8.7,6.2a7.4,7.4,0,0,1,3,6.2c0,3.6-2.2,7.5-7,7.5a6.7,6.7,0,0,1-3-.6l-4-4.7-3.7,6.6,8.1,1.5a14.7,14.7,0,0,0,2.6.3A12.1,12.1,0,0,0,394,51.8M339.6,24.4h5.2a8.3,8.3,0,0,1,8.1,8.4,8,8,0,0,1-8.1,7.9h-5.2Zm0,35.8V43.8H346l10.3,19.7h7L360,60.2l-9.5-17.4c4.8-1.4,8-5.9,8-9.9,0-7.2-6.7-11.7-13.7-11.7H331.7l3.3,3.4V60.2l-3.3,3.3H343Zm-19,3.3V55.8l-4.5,4.6H303.2V42.6h9.6l3.4,3.4V36.1l-3.4,3.3h-9.6v-15h12.9l4.5,4.5V21.2H295.3l3.3,3.4V60.2l-3.3,3.3ZM265.7,21.2h-12l3.5,3.4,11.9,38.9h2.1l12.3-38.9,3.5-3.4H276.8l3.3,3.3-9,29.3-8.7-29.3Zm-32.9,0,3.4,3.4V60.2l-3.4,3.3h11.5l-3.4-3.3V24.6l3.4-3.4ZM193.4,59.9V28.2l22.8,35.3h1.4V24.9l3.7-3.7H210.2l3.7,3.7V51.8L194.8,21.2h-8.7l3.5,3.7v35l-3.5,3.6h11Zm-47.6-7.7c0,7,5.9,12.3,13.1,12.3s13.7-5.1,13.7-12.3V24.9l3.6-3.7h-11l3.6,3.7V52.2a8.7,8.7,0,0,1-8.7,8.8,9.1,9.1,0,0,1-9.3-8.8V24.9l3.6-3.7H142.1l3.7,3.7Z"/><path class="cls-1" d="M67.5,79.2a2,2,0,0,1-2-1.5l-7.9-31-8.2,31a1.9,1.9,0,0,1-1.9,1.5H26a1.9,1.9,0,0,1-1.9-1.5L9.2,17.8H2a2,2,0,0,1-2-2V2A2,2,0,0,1,2,0H42a2,2,0,0,1,2,2V15.8a2,2,0,0,1-2,2H33.9l7.9,30.5L54.3,1.5A1.9,1.9,0,0,1,56.2,0H69.8a1.9,1.9,0,0,1,1.9,1.5L83,47.7l8-29.9H83.8a2,2,0,0,1-2-2V2a2,2,0,0,1,2-2h29.6a2,2,0,0,1,2,2V15.8a2,2,0,0,1-2,2h-6.8L90.9,77.7a2.1,2.1,0,0,1-2,1.5Z"/><polygon class="cls-2" points="2 2 2 15.8 10.7 15.8 26 77.2 47.5 77.2 57.7 38.8 67.5 77.2 88.9 77.2 105.1 15.8 113.4 15.8 113.4 2 83.8 2 83.8 15.8 93.6 15.8 83 55.8 69.8 2 56.2 2 41.7 56.2 31.3 15.8 42 15.8 42 2 2 2"/></g></g></svg>