<?xml version="1.0" standalone="no"?>
<!DOCTYPE svg PUBLIC "-//W3C//DTD SVG 20010904//EN"
 "http://www.w3.org/TR/2001/REC-SVG-20010904/DTD/svg10.dtd">
<svg version="1.0" xmlns="http://www.w3.org/2000/svg"
 width="192.000000pt" height="192.000000pt" viewBox="0 0 192.000000 192.000000"
 preserveAspectRatio="xMidYMid meet">
<metadata>
Created by potrace 1.14, written by Peter Selinger 2001-2017
</metadata>
<g transform="translate(0.000000,192.000000) scale(0.100000,-0.100000)"
fill="#000000" stroke="none">
<path d="M1603 1820 c0 -25 2 -35 4 -22 2 12 2 32 0 45 -2 12 -4 2 -4 -23z"/>
<path d="M1542 1815 c0 -16 2 -22 5 -12 2 9 2 23 0 30 -3 6 -5 -1 -5 -18z"/>
<path d="M1571 1805 c1 -19 18 -51 18 -35 0 8 -4 22 -9 30 -5 8 -9 11 -9 5z"/>
<path d="M590 1660 c0 -6 8 -10 18 -8 15 3 17 -7 20 -82 l3 -86 -31 -2 c-30
-2 -31 -1 -29 32 2 19 0 38 -4 42 -4 4 -7 -16 -7 -45 l0 -52 38 3 37 4 3 94
c2 68 -1 96 -10 102 -18 11 -38 10 -38 -2z"/>
<path d="M560 1620 c0 -22 2 -40 4 -40 2 0 6 18 8 40 2 22 0 40 -4 40 -5 0 -8
-18 -8 -40z"/>
<path d="M1603 1500 c0 -25 2 -35 4 -22 2 12 2 32 0 45 -2 12 -4 2 -4 -23z"/>
<path d="M1097 1523 c-4 -3 -7 -19 -7 -35 0 -20 5 -28 18 -29 91 -5 153 -5
156 0 2 3 1 21 -1 39 l-5 32 -77 0 c-43 0 -81 -3 -84 -7z"/>
<path d="M0 1455 l0 -45 101 0 100 0 -3 43 -3 42 -97 3 -98 3 0 -46z"/>
<path d="M1550 995 l0 -125 45 0 45 0 0 119 c0 115 -1 119 -22 125 -13 3 -33
6 -45 6 -23 0 -23 -2 -23 -125z"/>
<path d="M570 1070 l0 -40 155 0 155 0 0 40 0 40 -155 0 -155 0 0 -40z"/>
<path d="M570 366 c0 -80 -1 -149 -2 -153 -2 -5 16 -9 39 -11 l41 -3 -1 153
-2 153 -37 3 -38 3 0 -145z m35 121 c-10 -8 -15 -19 -11 -26 5 -8 13 -4 26 11
19 23 19 23 20 -72 0 -93 -9 -135 -25 -111 -5 9 -10 9 -21 0 -11 -9 -14 -9
-14 0 0 24 22 52 36 47 8 -3 14 -1 14 4 0 14 -18 21 -25 10 -9 -15 -25 -12
-25 6 0 8 4 12 10 9 5 -3 18 -1 27 4 16 9 14 10 -9 11 -32 0 -31 0 -18 35 7
17 7 24 0 20 -6 -4 -10 8 -10 29 0 30 3 36 22 36 21 0 21 -1 3 -13z m32 -243
c-6 -6 -47 9 -47 17 0 5 11 3 25 -3 14 -6 24 -13 22 -14z"/>
<path d="M613 410 c-1 -11 2 -18 8 -15 11 7 12 35 1 35 -4 0 -8 -9 -9 -20z"/>
<path d="M2 340 l0 -40 94 0 94 0 0 40 c0 39 -1 40 -34 40 -19 0 -38 -5 -42
-12 -5 -8 0 -9 14 -6 12 4 22 2 22 -3 0 -5 -21 -9 -47 -9 -27 0 -59 -3 -72 -7
-18 -4 -22 -3 -19 8 3 9 18 13 38 12 23 -1 29 1 19 8 -8 5 -26 9 -41 9 -25 0
-27 -3 -26 -40z"/>
<path d="M1652 68 l3 -43 55 1 c30 0 90 2 133 2 l77 2 0 40 0 40 -136 0 -135
0 3 -42z"/>
<path d="M492 53 l3 -38 183 -3 182 -2 0 40 0 40 -186 0 -185 0 3 -37z"/>
</g>
</svg>
