<?xml version="1.0" encoding="utf-8"?>
<!-- Generator: Adobe Illustrator 25.2.3, SVG Export Plug-In . SVG Version: 6.00 Build 0)  -->
<svg version="1.1" id="레이어_1" xmlns="http://www.w3.org/2000/svg" xmlns:xlink="http://www.w3.org/1999/xlink" x="0px"
	 y="0px" viewBox="0 0 1024 640" style="enable-background:new 0 0 1024 640;" xml:space="preserve">
<style type="text/css">
	.st0{fill:#FFFFFF;}
</style>
<g id="레이어_2_1_">
	<g id="레이어_1-2">
		<g>
			<path d="M917.5,636.8c-0.3-3.3-0.6-6.6-0.9-9.8c-0.4-4.9-0.9-10-1.3-15.1c-0.6-8.7-1.2-17.4-1.7-25.9c-1-15.7-2.1-32-3.6-48
				c-0.8-8.3-2.3-16.7-3.8-24.8c-0.8-4.5-1.7-9.1-2.4-13.6c-0.5-3.3-2.2-4.8-5.3-4.8c-0.3,0-0.6,0-0.9,0c-4.6,0.3-9.1,0.6-13.7,0.8
				c-8.9,0.5-18.2,1.1-27.2,1.9c-7.8,0.7-15.4,1.5-22.7,2.4c-5.5,0.6-11.2,1.3-16.9,1.8c-1.3,0.1-2.7,0.2-4.4,0.2
				c-1.2,0-2.3,0-3.5,0c-1.2,0-2.3,0-3.5,0c-0.5,0-1,0-1.5,0c-5.9,0.1-11.9,0.2-17.6,0.4c-9.9,0.2-20.1,0.5-30.1,0.5
				c-3,0-5.9,0-8.7-0.1c-12.5-0.2-25.1-1-37.3-1.8c-3.3-0.2-6.6-0.4-9.9-0.7c-2.7-0.2-4-0.6-4.6-1.3c-0.5-0.7-0.5-2-0.1-4.4
				c7.2,0.2,14.4,0.5,21.5,0.7c14.3,0.5,29.1,1,43.5,1.1c5.4,0.1,10.3,0.1,15,0.1c16.6,0,30.4-0.3,43.6-1.1
				c10.6-0.7,21.4-1.9,31.8-3.1c7.2-0.8,14.6-1.7,21.9-2.3c8.8-0.8,17.8-1,26.4-1.2c9.1-0.2,12.3-2.1,12.8-12.7
				c0.1-1.9,0.1-3.9,0.2-6c0.3-8.7,0.6-18.5,1.8-27.3c1.4-10.2,3.1-20.5,4.9-30.5c1.1-6.1,2.1-12.5,3.1-18.7
				c0.5-3.1,0.7-6.3,0.9-9.3c0.2-2.2,0.3-4.4,0.6-6.6c0.2-2.1-0.1-3.7-1-4.8c-0.9-1.1-2.4-1.6-4.5-1.7c-2.4-0.1-4.8-0.2-7.1-0.3
				c-3.6-0.2-7.3-0.4-10.9-0.4c-0.5,0-1,0-1.5,0c-19.7,0.2-39.7,0.6-59.1,1c-6.6,0.1-13.2,0.3-19.8,0.4c-5.2,0.1-10.6,0.3-15.7,0.4
				c-8.6,0.3-17.4,0.5-26.1,0.5c-1.7,0-3.4,0-5.1,0c-11.6-0.1-24.1-0.9-36.3-1.6c-4.4-0.3-8.8-0.5-13.1-0.8l-11.9-0.9
				c-0.4,0-0.7,0-1,0c-3.7,0-5.6,2-5.6,6c0.1,14.2-2.5,28.8-7.9,44.7c-2.7,8.8-6,17.5-9.8,25.9c-2.8,6-2.5,11.9-2.2,17.7
				c0,0.6,0.1,1.3,0.1,1.9c0.2,5.6,0.6,11.2,1,16.7c0.5,7.1,1.1,14.4,1.1,21.6c0.1,12.6-0.7,25.3-1.5,37.6c-0.1,2.1-0.3,4.1-0.4,6.2
				c-0.5,8.2-1.1,15.5-1.7,22.6c-0.5,5.6-0.9,10.9-1.3,16.7c-0.4,6.2,1.6,8.7,8,9.7l65,10.4c7.6,1.2,15.5,1.9,23.5,1.9
				c16.9,0,34.6-2.7,55.9-8.4c10.5-2.8,21.3-4.2,32.1-4.2c10.2,0,20.3,1.2,30.2,3.7c3.1,0.7,6.1,1.8,9,3.3c0.3,0.2,0.6,1.4,0.8,2.2
				c0.1,0.3,0.1,0.5,0.2,0.8c-0.1,0-0.2,0.1-0.4,0.1c-0.7,0.2-1.5,0.5-2.1,0.5c-0.1,0-0.3,0-0.4,0c-10.6-2.7-21.8-4-33.1-4
				c-14.1,0-28.6,2-44.4,6.1c-12.1,3.1-24.6,5.3-37.1,6.8c-2.6,0.2-5.2,0.4-7.8,0.4c-4,0-8-0.3-11.9-0.9
				c-23.6-2.8-42.5-5.4-59.8-8.1c-5.7-1-11.5-2.9-17.1-4.8c-1.9-0.6-3.9-1.3-5.8-1.9c-1.6-0.5-2.9-0.8-3.9-0.8
				c-3.2,0-3.3,3.1-3.5,5.9l-0.4,8c-0.4,7.7-0.7,15.4-1.1,23.2h-6.3c0-1.2,0-2.5,0-3.7c-0.1-3.6-0.1-7.3,0.2-10.9
				c0.9-13.6,2-27.4,2.9-40.7c1.3-17.8,2.7-36.3,3.9-54.4c0.6-10.3,0.5-20.8,0.4-31l0-3.4c0-1.3-0.8-2.5-1.5-3.7
				c-0.3-0.4-0.6-0.9-0.8-1.3l-0.6-1.1l-1,0.9c-0.4,0.3-0.8,0.6-1.2,1c-1,0.8-2,1.5-2.7,2.7c-2.8,4.7-5.5,9.5-8.2,14.2
				c-5.3,9.3-10.8,19-16.7,28c-3.4,5.2-9.3,9.1-14.6,12.3c-2.4,1.4-4.6,2.2-6.7,2.2c-4.2,0-7.8-3.1-10-8.9c-1.1-2.7-2.5-5.1-4.4-7.3
				c-16.4-19.7-25.4-39.4-27.8-60.1c-1.4-12.2-2.5-25.3-3.7-37.9c-1-11.5-2.1-23.4-3.3-34.9c-0.8-6.6-2.4-11.9-4.9-15.5
				c-4.8-7.2-5.8-14.9-6.1-22.2c-0.2-4.2-0.5-8.4-0.8-12.6c-0.5-8.3-1.1-16.8-1.3-25.2c-0.1-5.9,1.1-6.5,7.1-7.3
				c4.3-0.5,7.3-1.2,10.3-1.9c1.5-0.4,3.1-0.7,4.9-1.1c0.9-0.2,1.7-0.4,2.6-0.5c1.7-0.4,3.4-0.7,5.1-0.9c0.5,0,1.1-0.1,1.7-0.1
				c6.8,0,11.6,3.1,15.2,9.6c1.8,3.4,3.8,6.7,5.7,9.9c2.2,3.7,4.5,7.5,6.6,11.4c1,2,1.6,4.1,2.2,6.4c0.5,1.8,1,3.6,1.7,5.4
				c0.6,1.5,1.7,2.8,2.8,4c0.4,0.5,0.9,1,1.2,1.5l0.8,1.1l0.8-1.1c0.3-0.5,0.7-1,1.1-1.4c1-1.2,2-2.4,2.4-4c2.1-7.9,4.1-16,5.9-23.9
				l0.4-1.7c3.9-16.2,10.3-29.9,19.6-41.9c10-12.8,23.6-18,37.9-22.5c2.9-0.9,5.8-1.8,8.8-2.7c9.5-2.9,19.4-5.8,28.6-9.8
				c5.8-2.4,10.7-7.2,15.4-11.8l0.8-0.8c2.5-2.4,4.3-4.9,6.1-7.2c1.7-2.2,3.2-4.3,5.2-6.3c4.8-4.6,2.9-7.9,0.9-11.4
				c-0.6-1-1.3-2.2-2.1-3.5c-2.1-3.4-4.8-7.7-6.3-11.5c-4.2-10.4-8.6-21.5-12-33.1c-4.2-14.3-8.9-31.3-12.3-48.7
				c-1.5-7.6-0.8-16,0.2-23.9c1.4-10.6,8.2-18.9,20.3-24.5c18.5-8.7,38.4-11.1,58.8-13c4.1-0.4,7.5-0.6,10.7-0.6
				c7.6,0,13.9,1.1,19.3,3.4c7.3,3.2,13.8,7.7,19.5,13.3c13.7,13.6,19.1,32,17,57.7c-1.1,13.2-3.4,30.4-10.5,46.7
				c-1.4,3.3-2.9,6.6-4.4,9.7c-1.1,2.3-2.1,4.6-3.2,7c-1.2,2.7-1.7,4.4-1.2,5.7c0.6,1.5,2.2,2.1,4.9,3.1l0.6,0.2
				c2.2,0.8,4.5,1.6,6.7,2.4c7.4,2.6,15.1,5.3,21.4,9.6c9,6.5,16.8,14.3,23.3,23.4c3.9,5.5,6.7,11.9,9.4,18.1
				c1.5,3.4,3,6.9,4.6,10.2c1,2.2,2.7,4.1,4.9,5.2l0.1,0c4.6,1.8,7.1,5.3,10,9.6c9,13.4,11.6,28.9,14.1,43.9
				c0.5,3.2,1.1,6.5,1.7,9.8c4.3,23.4,4.4,47.6,4.4,70.9c0,4,0,8.1,0,12.1c0.1,13.8-0.1,27.9-0.2,41.5c-0.1,8.3-0.2,16.6-0.2,24.8
				c-0.1,11.4-3.1,22.6-6,33.4c-0.6,2.1-1.1,4.3-1.7,6.4c-1.3,4.8-3.2,9.6-5.2,14.2c-1.5,3.7-3.1,7.5-4.3,11.3
				c-2,6.1-7.3,11.4-12.5,16.5c-1.9,1.9-3.9,3.8-5.6,5.8c-0.9,0.9-2.9,1.7-5,1.8c-2.2,0.1-3.6,0.6-4.5,1.7c-0.9,1-1.2,2.5-1.1,4.8
				c1.5,16.9,2.9,33.8,4.3,50.1c0.2,2.3,0.3,4.6,0.6,7.1H917.5z M949.1,324.3c-0.5,0.5-0.9,1-1.3,1.3c-0.8,0.8-1.4,1.4-1.6,2.2
				c-0.5,2.2-0.8,4.5-1.2,6.7c-0.6,3.6-1.2,7.3-2.2,10.8c-0.3,1-0.6,2-0.8,3.1c-1.3,4.8-2.6,9.8-5.4,13.2c-3.7,4.4-4,5.6-4.5,9.6
				c-1.3,10.9-3,25.1-5,39c-2.6,17.3-5.5,34.8-8.4,51.7c-1.3,7.3-2.8,14.8-4.3,22l-0.9,4.3c-0.3,1.4-0.6,2.8-1,4.2
				c-0.7,2.7-1.5,5.6-1.4,8.4c0.1,2.6,0.7,5.8,1.3,9.1c0.4,1.9,0.7,3.9,1,5.8l6.6,44.8c0.6,4.2,1.9,4.7,2.3,4.8
				c0.2,0.1,0.5,0.1,0.9,0.1c1.2,0,3.2-0.6,4.4-1.4c6.4-4,10.3-10.1,13.6-16.2c5.2-9.2,7.6-19.4,9.9-29.2c1.4-5.9,2.8-12,4.9-17.8
				c1.2-3.1,1.8-6.3,2-9.6c0.6-17.1,0.9-30.2,1-42.4c0-2.2-1.6-4.5-3.1-5.9c-3.2-2.8-3.6-5.2-1.5-8.6c1.1-1.7,2.2-3.7,2.4-5.8
				c0.1-5,0.3-10.1,0.5-15c0.5-13.1,1-26.6,0.6-39.9c-0.3-10.8-1.7-21.7-3.1-32.2c-0.5-3.6-1-7.3-1.4-11c-0.2-1.3-0.7-2.4-1.4-3.8
				c-0.3-0.7-0.7-1.4-1-2.1l-0.6-1.4L949.1,324.3z M614.6,420.8c-0.4,0-0.9,0-1.3,0.1c-1.8,0.2-3.5,0.5-5.3,0.8
				c-5.2,0.8-10.6,1.5-16,2.1c-2.3,0.2-3.8,0.9-4.8,2.1c-1,1.2-1.2,3-0.9,5.3c0.5,3.4,1.4,9.2,1.9,14.3c0.3,3.3,0.6,6.6,0.9,9.9
				c0.6,6.5,1.2,13.2,2.1,19.8c1.3,10.6,5.9,20.1,10.3,29.4c1.3,2.6,2.6,5.3,3.7,8c0.7,1.3,1.5,2.4,2.3,3.5c1.4,1.9,2.9,3.8,4.4,5.6
				c3.4,4.3,6.9,8.7,9.8,13.4c1.1,1.8,2.7,3.9,5.1,3.9l0,0c1.1,0,2.3-0.5,3.8-1.4c0.4-0.3,0.9-0.6,1.4-1c3.2-2.1,7.5-5,9.9-8.4
				c1.2-1.6,2.3-3.2,3.5-4.8c6.3-8.6,12.9-17.5,17.3-27.2c4.9-10.9,8.6-22.6,12.1-33.9c1.4-4.4,2.8-9,4.3-13.5c1.4-4,2.6-8.1,3.9-12
				c1.9-6.2,3.9-12.5,6.3-18.7c6.3-16.2,9.5-30.4,10.2-44.9l0-0.1l0-0.1c-0.2-1.6-0.4-3.2-0.5-4.8c-0.4-3.8-0.8-7.8-1.8-11.5
				c-4.8-18.4-9.9-37-14.9-55.1l-3.6-13.2c-0.3-1.1-1.2-4.6-4-4.6c-1.3,0-2.6,0.7-4.4,2.3c-7.6,6.9-13.2,16.1-17.1,28.1
				c-4.4,13.8-8.1,28.1-11.6,42l-0.3,1.2c-1.3,5.1-2.8,10.2-4.2,15.2c-3.6,12.6-7.3,25.6-8.6,39.1c-0.9,9.7-2.6,19.4-4.2,28.8
				c-0.5,2.7-0.9,5.4-1.3,8.1c-0.4,3.8-1.2,7.5-2.4,11.1c-0.3,0.9-2.2,2-3.6,2.2c-0.1,0-0.2,0-0.3,0c-1.4,0-2.8-0.5-3.9-1.3
				c0.1-0.6,0.6-1.8,0.9-2.6c0.2-0.4,0.3-0.8,0.5-1.2c0.2-0.6,0.5-1,0.7-1.4c0.3-0.6,0.6-1.1,0.7-1.9c0.6-6,1.2-12.1,1.8-18
				c0.3-3.3,0.6-6.6,0.9-9.8c0.2-1.8-0.1-3-0.9-3.9C616.8,421.2,615.9,420.8,614.6,420.8z M583,364.2c-1.4,0-2.9,0.5-4.3,1.1
				l-0.3,0.1c-1.8,0.7-3.1,1.8-3.7,3.2c-0.7,1.6-0.6,3.5,0.2,5.7c2.7,6.8,5.6,13.7,7.4,20.8c1.1,4.5,1.2,9.4,1.2,14.1l0,2.1
				c0.1,3.6,0.4,6.6,3.4,6.6c0.5,0,1.1-0.1,1.8-0.2c2.4-0.3,4.6-0.5,6.7-0.8c4.5-0.5,8.8-1,13-1.6c3.2-0.5,4.8-1.2,5.3-2.5
				c0.7-1.6-0.5-3.3-2.3-5.7c-1-1.4-2-2.7-3-3.9c-1.8-2.3-3.4-4.3-4.8-6.7l-1.4-2.5c-4.8-8.3-9.9-17-14.1-25.8
				C587,365.5,585.2,364.2,583,364.2z M618.1,398.5c0.2,0.1,0.4,0.1,0.6,0.1c0.9,0,2.8-1.3,3.1-2.3c1.9-6.1,3.7-12.4,5.4-18.5
				l1.1-3.7l-0.1-0.2c-0.4-2-1-4-1.7-5.9c-2.1-4.4-4.4-8.9-6.9-13.3c-6.9-12.4-13.1-23.4-19-33.7c-1.5-2.6-3.6-4-6.1-4
				c-1.3,0-2.8,0.3-4.4,1.1c-3.3,1.4-6.7,2.5-10.2,3.1c-2.7,0.5-4.2,1.4-4.8,2.8c-0.5,1.3-0.2,2.8,1,4.7c1.3,2.1,2.7,4.2,4.1,6.3
				c2,3.1,4.1,6.2,6,9.4c6.7,11.5,13.1,23.2,18.6,33.3c1.4,2.5,2.7,5.1,4,7.6c1.6,3.1,3.3,6.3,5.1,9.5
				C614.9,396.4,616.4,397.6,618.1,398.5z M739.4,259.1c-1.8,0-4,0.6-7,1.5c-9.5,2.8-19,6-28.3,9c-5,1.6-9.9,3.2-14.9,4.8
				c-5,1.7-6.5,4.8-5,10c4.1,12.9,7.9,25.7,11.4,38.2c3,10.6,5.2,19.5,7.5,29l1.4,5.8c0.6,2.7,1.9,5.4,6.2,5.6
				c6.7,0.3,13.5,0.7,20.2,1.1c12,0.7,24.4,1.4,36.6,1.7c3.4,0.1,7,0.1,10.9,0.1c8.2,0,16.5-0.2,24.5-0.4c3.5-0.1,7.1-0.2,10.6-0.2
				c5.9-0.1,11.8-0.2,17.6-0.4c2.9-0.1,5.9-0.2,8.8-0.2c3.8-0.1,7.5-0.2,11.3-0.3c7.6-0.2,15.5-0.5,23.3-0.5c0.9,0,1.9,0,2.8,0
				c7.5,0.1,15,0.3,22.2,0.6c4.8,0.2,9.7,0.4,14.6,0.5c0.3,0,0.6,0,1,0c5.7,0,10.1-2.1,12.2-5.8c2.6-5,4.4-10.3,5.2-15.8
				c0.6-3.3,0.5-6.7,0.4-10.1c0-2.1-0.1-4.3,0-6.3c0.3-6.4,0.7-12.9,1.1-19.2c0.3-4.4,0.6-8.8,0.8-13.1l0.1-0.9l-3.4-0.4l-0.3,0.6
				c-0.9,1.6-1.7,3.4-2.6,5c-1.8,3.7-3.7,7.5-6.2,10.6c-0.6,0.7-1.2,1.5-1.8,2.2c-4.9,6-10.1,12.2-16.4,15.8
				c-12.4,7-26.1,10.5-40.5,10.5c-9.5,0-19.6-1.5-29.9-4.6c-9.2-2.7-19.1-7.6-29.4-14.5c-12.2-8-23.9-17.1-34.7-27
				c-6.2-5.7-11.5-12.7-16.7-19.4c-1.7-2.2-3.3-4.3-5-6.5l-0.7-0.9C744.1,261,742.6,259.1,739.4,259.1z M750,250.8
				c-1.2,1.3-1.1,4.2-0.1,5.4c1.8,2.5,3.6,5.1,5.4,7.6c4.9,7,9.9,14.2,15.9,20.5c7.1,7.3,15.6,13.9,23.8,20.3c1.3,1,2.6,2,3.9,3
				c20.4,15.7,41.8,23.1,67.4,23.4c15.3-1.3,36.2-3,49.2-22.9c6.9-10.5,14.1-24.6,8.9-41.2c-0.6-2-1.5-3.9-2.3-5.7
				c-0.7-1.6-1.4-3.1-2-4.7c-5-14.6-13.4-25.9-24.9-33.5c-17.6-11.8-34.9-17.6-52.8-17.6c-3.6,0-7.3,0.2-11,0.7
				C803,210,780.6,220,763,236.7C758.4,241.1,754,245.9,750,250.8z M820.9,61.9c-7,0-14.2,0.9-21.1,1.7l-2.6,0.3
				c-8.9,1.2-17.8,3.1-26.4,5.6c-6.9,1.8-13.7,4.5-20,7.9c-3.5,2-7.7,6.1-8.6,10.3c-1.9,8.5-3.5,17.6-2.6,26.4
				c1.4,13.1,4.1,26.1,7.9,38.7c1.2,4,2.4,8.2,3.5,12.2c3.4,12.6,6.9,25.5,14.6,36.9c1,1.6,2.1,3.2,3,4.8c1.7,2.8,3.5,5.7,5.5,8.3
				c0.7,0.9,2.1,1.1,3.1,1.1c1,0,2-0.2,2.7-0.4c1.9-0.8,3.6-1.7,5.4-2.7c1.4-0.8,2.9-1.6,4.4-2.3c18.7-8.1,34.3-11.8,49.3-11.8
				c0.3,0,1.3,0,1.3,0c6.6,0,10.8-2.7,14.2-9c12.2-22.8,18.3-45.5,18.7-69.4l0-0.1l0-0.1c-0.4-2.4-0.8-4.8-1.1-7.1
				c-0.7-4.6-1.4-9.4-2.5-14.1c-2-9.5-6.5-17.1-13.4-22.8c-1.5-1.2-3-2.6-4.4-3.9c-3-2.8-6-5.6-9.6-7.1
				C835.8,63,828.9,61.9,820.9,61.9z"/>
			<path class="st0" d="M822.9,56.2c7.4,0,13.6,1.1,18.9,3.3c7.2,3.1,13.6,7.6,19.2,13.1c7.4,7.3,12.2,15.9,14.9,26.2
				c2.2,8.7,2.8,18.8,1.8,30.7c-1.1,13.1-3.3,30.2-10.4,46.4c-1.4,3.2-2.9,6.5-4.4,9.7c-1.1,2.3-2.2,4.6-3.2,7
				c-1.3,2.9-1.9,4.8-1.2,6.5c0.8,1.9,2.6,2.6,5.5,3.6l0.6,0.2c2.2,0.8,4.5,1.6,6.7,2.4c7.4,2.6,15,5.2,21.1,9.4
				c8.9,6.4,16.7,14.2,23,23.1c3.8,5.4,6.5,11.4,9.3,17.9c1.5,3.4,3,6.9,4.7,10.2c1.1,2.4,3,4.5,5.4,5.7l0.1,0l0.1,0
				c4.3,1.7,6.7,4.9,9.6,9.3c8.8,13.2,11.4,28.6,14,43.6c0.5,3.2,1.1,6.5,1.7,9.8c4.3,23.3,4.4,47.4,4.4,70.7c0,4,0,8.1,0,12.1
				c0.1,13.8-0.1,27.9-0.2,41.5c-0.1,8.2-0.2,16.6-0.2,24.9c-0.1,11.3-3.1,22.4-5.9,33.2c-0.6,2.1-1.1,4.3-1.7,6.4
				c-1.3,4.7-3.1,9.3-5.1,14.1c-1.5,3.7-3.1,7.5-4.4,11.4c-1.9,5.9-7.1,11.1-12.2,16.1c-1.9,1.9-3.9,3.8-5.7,5.8
				c-0.7,0.7-2.5,1.4-4.3,1.5c-1.5,0.1-3.8,0.4-5.2,2c-1.4,1.6-1.4,3.8-1.3,5.6c1.5,16.7,2.9,33.7,4.3,50.1c0.1,2,0.3,4,0.5,6.1
				h-4.9c-0.3-3-0.5-6-0.8-8.9c-0.4-4.9-0.9-10-1.3-15c-0.6-8.6-1.2-17.4-1.7-25.9c-1-15.7-2.1-32-3.6-48
				c-0.8-8.4-2.3-16.8-3.8-24.9c-0.8-4.5-1.7-9.1-2.4-13.6c-0.6-3.7-2.7-5.6-6.3-5.6c-0.3,0-0.6,0-0.9,0c-4.6,0.3-9.2,0.6-13.7,0.8
				c-8.9,0.5-18.2,1.1-27.2,1.9c-7.8,0.7-15.4,1.5-22.8,2.4c-5.5,0.6-11.2,1.3-16.9,1.8c-1.3,0.1-2.7,0.2-4.3,0.2
				c-1.1,0-2.3,0-3.4,0c-1.1,0-2.3,0-3.5,0c-0.5,0-1.1,0-1.6,0c-5.9,0.1-11.9,0.2-17.6,0.4c-9.9,0.2-20.1,0.5-30.1,0.5
				c-3,0-5.9,0-8.6-0.1c-12.4-0.2-25-1-37.3-1.8c-3.3-0.2-6.6-0.4-9.9-0.7c-2.8-0.2-3.6-0.6-3.9-0.9c-0.3-0.4-0.3-1.3,0-2.7
				c6.9,0.2,13.8,0.4,20.6,0.7c14.3,0.5,29.1,1,43.6,1.1c5.4,0.1,10.4,0.1,15,0.1c16.6,0,30.5-0.3,43.6-1.1
				c10.6-0.7,21.4-1.9,31.8-3.1c7.2-0.8,14.6-1.7,21.8-2.3c8.8-0.8,17.7-1,26.4-1.2c10.4-0.2,13.3-3.2,13.8-13.6
				c0.1-1.9,0.1-3.9,0.2-6c0.3-8.7,0.6-18.5,1.8-27.2c1.4-10.2,3.1-20.5,4.9-30.5c1.1-6.1,2.2-12.5,3.1-18.8
				c0.5-3.1,0.7-6.3,0.9-9.4c0.2-2.2,0.3-4.4,0.6-6.6c0.3-2.4-0.1-4.2-1.3-5.5c-1.1-1.3-2.8-1.9-5.3-2c-2.4-0.1-4.8-0.2-7.1-0.3
				c-3.6-0.2-7.3-0.4-10.9-0.4c-0.5,0-1,0-1.5,0c-19.7,0.2-39.8,0.6-59.2,1c-6.6,0.1-13.1,0.3-19.7,0.4c-5.3,0.1-10.6,0.3-15.7,0.4
				c-8.6,0.3-17.4,0.5-26.1,0.5c-1.7,0-3.4,0-5.1,0c-11.5-0.1-24.1-0.9-36.2-1.6c-4.3-0.3-8.7-0.5-13-0.8l-11.9-0.9
				c-0.4,0-0.8,0-1.1,0c-2.2,0-3.8,0.6-4.9,1.8c-1.2,1.2-1.7,2.9-1.7,5.3c0.1,14.1-2.5,28.6-7.9,44.3l0,0l0,0
				c-2.7,8.7-6,17.4-9.7,25.7c-2.9,6.2-2.6,12.3-2.3,18.2c0,0.6,0.1,1.3,0.1,1.8c0.2,5.6,0.6,11.3,1,16.8c0.5,7.1,1.1,14.4,1.1,21.5
				c0.1,12.5-0.7,25.2-1.5,37.5c-0.1,2.1-0.3,4.2-0.4,6.2c-0.5,8.2-1.1,15.5-1.7,22.6c-0.5,5.6-0.9,11-1.3,16.7
				c-0.5,6.8,1.9,9.7,8.9,10.7l65,10.4c7.7,1.3,15.6,1.9,23.7,1.9c17,0,34.8-2.7,56.2-8.4c10.4-2.7,21.1-4.1,31.9-4.1
				c10.1,0,20.2,1.2,30,3.6c3,0.7,5.9,1.8,8.5,3.1c0.2,0.3,0.3,1,0.5,1.5c-0.5,0.1-0.9,0.2-1.2,0.2c-0.1,0-0.1,0-0.1,0c0,0,0,0,0,0
				c-10.7-2.7-21.9-4.1-33.3-4.1c-14.2,0-28.8,2-44.6,6.2c-12.1,3-24.5,5.3-36.9,6.7c-2.5,0.2-5.1,0.4-7.7,0.4
				c-3.9,0-7.9-0.3-11.7-0.9l0,0l0,0c-23.5-2.8-42.5-5.4-59.7-8.1c-5.7-0.9-11.4-2.9-16.9-4.7c-1.9-0.6-3.9-1.3-5.8-1.9
				c-1.7-0.5-3-0.8-4.2-0.8c-4.1,0-4.3,4.1-4.5,6.9l-0.4,8c-0.3,7.4-0.7,14.8-1,22.3h-4.4c0-0.9,0-1.8,0-2.7
				c-0.1-3.6-0.1-7.3,0.1-10.8c0.9-13.6,2-27.4,2.9-40.7c1.3-17.8,2.7-36.2,3.9-54.4c0.6-10.3,0.5-20.9,0.4-31l0-3.4
				c0-1.6-0.9-3-1.7-4.2c-0.3-0.4-0.5-0.8-0.7-1.2l-1.2-2.3l-1.9,1.7c-0.3,0.3-0.7,0.6-1.2,0.9c-1,0.8-2.2,1.7-2.9,2.9
				c-2.8,4.7-5.5,9.6-8.2,14.2c-5.3,9.3-10.8,19-16.7,28c-3.3,5-9.1,8.9-14.3,12c-2.2,1.3-4.3,2-6.2,2c-4.9,0-7.6-4.5-9-8.2
				c-1.1-2.8-2.6-5.3-4.5-7.5c-16.2-19.6-25.3-39-27.6-59.5c-1.4-12.2-2.5-25.3-3.7-37.9c-1-11.5-2.1-23.4-3.3-35
				c-0.8-6.8-2.5-12.2-5-16c-4.7-7-5.6-14.6-6-21.7c-0.2-4.2-0.5-8.5-0.8-12.6c-0.5-8.2-1.1-16.8-1.3-25.1c-0.1-4.9,0.3-5.5,6.2-6.3
				c4.3-0.5,7.4-1.3,10.4-2c1.5-0.4,3.1-0.7,4.8-1.1c0.9-0.2,1.8-0.4,2.6-0.6c1.7-0.4,3.3-0.7,5-0.9c0.6,0,1.1-0.1,1.6-0.1
				c6.4,0,10.9,2.9,14.3,9.1c1.9,3.4,3.8,6.7,5.8,9.9c2.2,3.7,4.5,7.5,6.5,11.3c1,1.9,1.5,4,2.2,6.2c0.5,1.8,1,3.7,1.8,5.4
				c0.7,1.7,1.9,3.1,3,4.3c0.4,0.5,0.8,1,1.2,1.4l1.7,2.2l1.6-2.2c0.3-0.5,0.7-0.9,1.1-1.4c1-1.2,2.1-2.6,2.6-4.3
				c2.2-8,4.1-16.1,5.9-23.9l0.4-1.7c3.8-16,10.2-29.6,19.4-41.5c9.8-12.6,23.3-17.7,37.4-22.1c2.9-0.9,5.9-1.8,8.8-2.7
				c9.5-2.9,19.4-5.8,28.7-9.8c6-2.5,11-7.4,15.7-12l0.8-0.8c2.6-2.5,4.4-5,6.2-7.4c1.6-2.2,3.2-4.3,5.1-6.1
				c5.4-5.1,3.1-9.1,1.1-12.6c-0.6-1-1.3-2.2-2.1-3.6c-2.1-3.4-4.7-7.6-6.2-11.3c-4.2-10.4-8.6-21.5-11.9-33
				c-4.2-14.3-8.9-31.2-12.3-48.6c-1.5-7.5-0.8-15.8,0.2-23.6c1.3-10.2,8-18.2,19.8-23.7c18.4-8.6,38.1-11,58.4-12.9
				C816.4,56.4,819.7,56.2,822.9,56.2 M770.6,68.6c-7,1.9-13.8,4.5-20.2,8l0,0l0,0c-3.7,2.1-8.1,6.4-9.1,10.9
				c-1.9,8.6-3.6,17.8-2.6,26.7c1.4,13.2,4.1,26.2,8,38.9c1.2,4,2.4,8.2,3.5,12.2c3.4,12.6,7,25.7,14.7,37.1c1,1.6,2.1,3.2,3,4.8
				c1.7,2.8,3.5,5.7,5.6,8.4c0.7,1,2,1.4,3.9,1.4c1.1,0,2.2-0.2,3.1-0.5l0.1,0l0.1,0c1.9-0.8,3.7-1.8,5.4-2.7
				c1.4-0.8,2.9-1.6,4.3-2.2c18.5-8,34.1-11.7,48.9-11.7c0.3,0,0.7,0,1,0l0.3,0c8.9,0,12.7-5.1,15.1-9.6
				c12.3-23,18.4-45.8,18.8-69.8l0-0.2l0-0.2c-0.4-2.3-0.8-4.7-1.1-7.1c-0.7-4.6-1.4-9.4-2.5-14.1c-2-9.7-6.7-17.6-13.8-23.4
				c-1.5-1.1-2.9-2.4-4.3-3.8c-3-2.8-6.1-5.7-10-7.3c-6.3-2.5-13.4-3.7-21.6-3.7c-7.1,0-14.3,0.9-21.2,1.7l-2.6,0.3
				C788.1,64.1,779.2,66.1,770.6,68.6 M749.2,250.2c-1.5,1.6-1.4,5-0.2,6.6c1.8,2.5,3.6,5.1,5.4,7.6c4.9,7,9.9,14.3,16,20.6
				c7.1,7.4,15.7,14,23.9,20.4c1.3,1,2.6,2,3.9,3c20.6,15.8,42.2,23.3,68,23.6l0.1,0l0.1,0c14.6-1.2,36.6-3,49.9-23.3
				c7-10.7,14.3-25.1,9-42.1c-0.6-2.1-1.5-4-2.4-5.9c-0.7-1.6-1.4-3.1-1.9-4.6c-5.1-14.8-13.6-26.3-25.3-34
				c-17.8-12-35.2-17.8-53.4-17.8c-3.7,0-7.4,0.2-11.1,0.7c-28.6,3.9-51.2,14-68.9,30.8C757.7,240.4,753.3,245.2,749.2,250.2
				 M778.6,366.8c8.2,0,16.5-0.2,24.5-0.4c3.5-0.1,7.1-0.2,10.6-0.2c5.9-0.1,11.9-0.2,17.6-0.4c2.9-0.1,5.9-0.2,8.8-0.2
				c3.8-0.1,7.6-0.2,11.3-0.3c7.6-0.2,15.5-0.5,23.2-0.5c0.9,0,1.9,0,2.8,0c7.5,0.1,15,0.3,22.2,0.6c4.8,0.2,9.8,0.4,14.6,0.5
				c0.3,0,0.7,0,1,0c6.1,0,10.8-2.2,13.1-6.3l0,0l0,0c2.6-5.1,4.4-10.5,5.3-16.1c0.6-3.4,0.5-6.9,0.4-10.3c-0.1-2.2-0.1-4.2,0-6.3
				c0.3-6.3,0.7-12.9,1.1-19.2c0.3-4.3,0.6-8.7,0.8-13.1l0.1-1.9l-1.9-0.2l-1.8-0.2l-1.3-0.1l-0.6,1.2c-0.9,1.7-1.8,3.4-2.6,5.1
				c-1.9,3.8-3.6,7.4-6.1,10.4c-0.6,0.7-1.2,1.5-1.8,2.2c-4.9,5.9-9.9,12.1-16.1,15.5c-12.3,6.9-25.8,10.4-40.1,10.4
				c-9.5,0-19.4-1.5-29.6-4.6c-9.1-2.7-18.9-7.5-29.2-14.4c-12.2-8-23.8-17.1-34.5-26.9c-6.1-5.7-11.5-12.6-16.6-19.3
				c-1.6-2.1-3.3-4.3-5-6.5l-0.7-0.9c-3.4-4.3-5.1-6.4-8.7-6.4c-1.9,0-4.2,0.6-7.3,1.5c-9.5,2.8-19,6-28.3,9
				c-4.9,1.6-9.9,3.2-14.9,4.8c-5.4,1.8-7.3,5.6-5.6,11.3c4.1,12.9,7.9,25.7,11.4,38.1c3,10.6,5.2,19.5,7.5,29
				c0.5,1.9,0.9,3.8,1.4,5.8c0.7,2.9,2.1,6.2,7.1,6.3c6.7,0.3,13.5,0.7,20.2,1.1c12,0.7,24.4,1.4,36.7,1.7
				C771.2,366.8,774.8,366.8,778.6,366.8 M619.8,459.4c-0.2,0.5-1.6,1.4-2.7,1.6c-0.1,0-0.2,0-0.3,0c-1,0-1.9-0.3-2.7-0.7
				c0.2-0.6,0.5-1.3,0.7-1.8c0.2-0.4,0.4-0.8,0.5-1.2c0.2-0.5,0.4-0.9,0.6-1.3c0.3-0.6,0.7-1.3,0.8-2.3c0.6-6,1.2-12.1,1.8-18
				c0.3-3.3,0.6-6.5,0.9-9.8c0.2-2.1-0.2-3.6-1.1-4.7c-0.9-1-2.1-1.4-3.7-1.4c-0.5,0-1,0-1.5,0.1c-1.8,0.3-3.6,0.5-5.3,0.8
				c-5.2,0.8-10.6,1.5-15.9,2.1c-2.6,0.2-4.4,1.1-5.5,2.5c-1.1,1.5-1.5,3.5-1.1,6.1c0.5,3.4,1.4,9.2,1.9,14.3
				c0.3,3.3,0.6,6.6,0.9,9.9c0.6,6.5,1.2,13.2,2.1,19.9c1.4,10.7,6,20.4,10.4,29.7c1.3,2.6,2.5,5.3,3.7,8l0,0.1l0,0.1
				c0.7,1.3,1.5,2.5,2.4,3.5c1.4,1.9,3,3.8,4.4,5.6c3.4,4.3,6.9,8.6,9.8,13.3c1.3,2.1,3.1,4.4,5.9,4.4c1.3,0,2.7-0.5,4.3-1.6
				c0.4-0.3,0.9-0.6,1.4-0.9c3.2-2.2,7.6-5.1,10.2-8.6c1.2-1.6,2.3-3.2,3.5-4.8c6.4-8.6,12.9-17.6,17.4-27.4
				c4.9-11,8.6-22.7,12.2-34c1.4-4.4,2.8-9,4.3-13.4c1.4-4,2.7-8.1,3.9-12c1.9-6.1,3.9-12.5,6.3-18.6c6.3-16.3,9.6-30.6,10.2-45.2
				l0-0.2l0-0.2c-0.2-1.6-0.4-3.2-0.5-4.8c-0.4-3.9-0.8-7.9-1.8-11.7c-4.8-18.4-9.9-37-14.9-55c-1.2-4.4-2.4-8.9-3.6-13.3
				c-1-3.5-2.6-5.3-5-5.3c-1.5,0-3.1,0.8-5,2.5c-7.7,7-13.4,16.4-17.4,28.6c-4.4,13.8-8.1,28.1-11.6,42l-0.3,1.2
				c-1.3,5.1-2.8,10.2-4.2,15.2c-3.6,12.6-7.4,25.7-8.7,39.2c-0.9,9.6-2.6,19.3-4.1,28.7c-0.5,2.7-0.9,5.4-1.3,8.1l0,0l0,0
				C621.7,452.3,620.9,455.9,619.8,459.4 M617.7,399.4c0.3,0.2,0.7,0.2,1,0.2c1.3,0,3.6-1.5,4-3c1.9-6.1,3.7-12.4,5.4-18.5l1-3.4
				l0.1-0.5l-0.1-0.5c-0.4-2.1-1-4.1-1.8-6.1l0-0.1l0-0.1c-2.1-4.3-4.4-8.9-6.8-13.3c-6.9-12.4-13.2-23.5-19-33.7
				c-1.7-3-4-4.5-7-4.5c-1.5,0-3.1,0.4-4.8,1.1c-3.2,1.4-6.6,2.4-10,3.1c-1.9,0.4-4.6,1.1-5.5,3.4c-0.7,1.6-0.3,3.5,1.1,5.6
				c1.3,2.1,2.8,4.3,4.1,6.3c2,3.1,4.1,6.2,6,9.4c6.7,11.5,13.1,23.2,18.6,33.3c1.4,2.5,2.7,5,4,7.5c1.6,3.1,3.3,6.4,5.1,9.5l0,0.1
				l0,0.1C614.2,397,615.8,398.5,617.7,399.4 M923.2,566.4c1.5,0,3.6-0.7,4.9-1.6c6.6-4.1,10.6-10.4,14-16.5
				c5.2-9.3,7.7-19.6,10-29.4c1.4-5.9,2.8-11.9,4.8-17.6c1.2-3.2,1.9-6.5,2-9.9c0.6-17.1,0.9-30.2,1-42.5c0-2.5-1.8-5.1-3.5-6.6
				c-2.9-2.5-3.2-4.3-1.3-7.3c1.1-1.8,2.4-4,2.5-6.2l0,0l0,0c0.1-5,0.3-10.1,0.5-15c0.5-13.1,1-26.6,0.6-39.9
				c-0.3-10.8-1.7-21.8-3.1-32.3c-0.5-3.6-1-7.3-1.4-11c-0.2-1.5-0.8-2.7-1.5-4.1c-0.3-0.6-0.7-1.3-1-2.1l-1.3-2.9l-2.1,2.4
				c-0.5,0.5-0.9,0.9-1.2,1.3c-0.8,0.8-1.5,1.6-1.8,2.6l0,0l0,0c-0.5,2.2-0.8,4.5-1.2,6.7c-0.6,3.6-1.2,7.2-2.2,10.7
				c-0.3,1-0.6,2-0.8,3.1c-1.2,4.7-2.5,9.6-5.2,12.8c-3.8,4.6-4.2,6.1-4.8,10.2c-1.3,11.5-3,25.2-5,38.9
				c-2.6,17.3-5.5,34.8-8.4,51.7c-1.2,7.3-2.8,14.7-4.3,21.9c-0.3,1.4-0.6,2.9-0.9,4.4c-0.3,1.4-0.6,2.8-1,4.1
				c-0.7,2.8-1.5,5.7-1.4,8.7c0.1,2.7,0.7,5.9,1.3,9.3c0.4,1.9,0.7,3.9,1,5.8l6.6,44.8c0.6,4.4,2,5.3,2.9,5.6
				C922.4,566.3,922.8,566.4,923.2,566.4 M587,418.8c0.6,0,1.2-0.1,2-0.3c2.3-0.3,4.6-0.5,6.7-0.8c4.5-0.5,8.8-1,13-1.6
				c3.1-0.5,5.3-1.1,6.1-3.1c0.9-2.2-0.8-4.5-2.4-6.7c-1-1.4-2-2.7-3-3.9c-1.8-2.3-3.3-4.2-4.7-6.6l-1.4-2.5
				c-4.8-8.3-9.8-16.9-14.1-25.7c-1.5-3-3.6-4.5-6.2-4.5c-1.6,0-3.2,0.6-4.6,1.1l-0.3,0.1c-2.1,0.8-3.5,2.1-4.3,3.7
				c-0.8,1.8-0.7,4,0.2,6.5c2.7,6.7,5.5,13.7,7.3,20.6c1.1,4.4,1.1,9.2,1.2,13.9c0,0.7,0,1.4,0,2.1
				C582.7,414.1,582.7,418.8,587,418.8 M822.9,54.2c-3.6,0-7.2,0.2-10.8,0.6c-20.3,1.9-40.5,4.4-59.1,13.1
				c-10.5,4.9-19.3,12.8-20.9,25.3c-1,8-1.7,16.5-0.2,24.2c3.2,16.5,7.6,32.7,12.3,48.8c3.3,11.3,7.6,22.3,12,33.2
				c2.2,5.3,6.5,11.6,8.5,15.1s3.5,6.2-0.7,10.2c-4.2,4-6.5,8.8-11.3,13.5c-4.8,4.7-9.9,9.9-15.9,12.4c-12,5.1-24.8,8.5-37.3,12.4
				c-14.6,4.6-28.4,9.9-38.4,22.8c-10,12.9-16.1,26.8-19.8,42.3c-2,8.5-4,17.1-6.3,25.6c-0.5,1.9-2.2,3.4-3.4,5.1
				c-1.3-1.7-3.1-3.3-3.9-5.3c-1.6-3.8-2.1-8.1-4-11.8c-3.8-7.2-8.3-14-12.3-21.3c-3.7-6.8-8.9-10.2-16.1-10.2c-0.6,0-1.2,0-1.8,0.1
				c-2.6,0.3-5.2,1-7.8,1.5c-5.1,1-8.7,2.2-15.1,3c-6.4,0.8-8.1,1.8-8,8.3c0.4,12.6,1.4,25.2,2.1,37.8c0.4,8.1,1.6,15.6,6.3,22.7
				c2.8,4.2,4.1,9.9,4.7,15.1c2.6,24.3,4.4,49.7,7,72.9c2.6,23.2,13.3,42.9,28,60.6c1.8,2.1,3.2,4.5,4.2,7c2.3,6.1,6.1,9.5,10.9,9.5
				c2.2,0,4.6-0.7,7.2-2.3c5.5-3.3,11.4-7.3,14.9-12.6c8.9-13.6,16.6-28.2,24.9-42.3c0.8-1.4,2.5-2.3,3.7-3.4c0.8,1.5,2.2,3,2.2,4.5
				c0.1,11.4,0.3,22.9-0.4,34.3c-2.1,31.7-4.6,63.4-6.8,95.1c-0.4,5.2-0.1,10.5-0.1,15.7h8.3c0.5-10.9,1-21.5,1.5-32.2
				c0.2-3.6,0.6-5,2.5-5c0.9,0,2,0.3,3.6,0.8c7.6,2.4,15.2,5.4,23,6.7c19.8,3.1,39.8,5.7,59.8,8.1c4,0.6,8,0.9,12,0.9
				c2.6,0,5.3-0.1,7.9-0.4c12.5-1.5,25-3.7,37.2-6.8c14.7-3.8,29.4-6.1,44.1-6.1c10.9,0,21.9,1.2,32.9,4c0.2,0,0.4,0.1,0.6,0.1
				c1.2,0,2.5-0.6,3.7-0.9c-0.6-1.6-0.7-4-1.8-4.6c-2.9-1.5-6-2.7-9.2-3.4c-10-2.5-20.2-3.7-30.4-3.7c-10.9,0-21.8,1.4-32.4,4.2
				c-18.4,5-36.9,8.4-55.6,8.4c-7.7,0-15.5-0.6-23.4-1.9l-65-10.4c-5.9-0.9-7.6-2.9-7.2-8.6c0.9-13.1,2.1-24.7,3-39.3
				s2-29.2,1.9-43.9c0-12.7-1.7-25.5-2.1-38.3c-0.3-6.4-1-12.7,2-19.1c3.8-8.5,7-17.2,9.8-26c5-14.6,8.1-29.5,8-45
				c0-3.6,1.6-5,4.6-5c0.3,0,0.6,0,1,0l11.9,0.9c16.5,0.9,33.7,2.2,49.4,2.4c1.7,0,3.4,0,5.1,0c14,0,27.9-0.7,41.9-0.9
				c26.3-0.5,52.6-1.1,78.9-1.4c0.5,0,1,0,1.5,0c5.9,0,11.9,0.5,17.9,0.7c3.7,0.1,5,1.7,4.6,5.3c-0.6,5.3-0.7,10.7-1.5,15.9
				c-2.6,16.5-5.8,32.8-8,49.3c-1.4,11-1.6,23.7-2,33.4c-0.4,9.7-2.9,11.5-11.8,11.7s-17.7,0.4-26.5,1.2
				c-17.9,1.6-35.7,4.3-53.6,5.4c-14.5,0.8-29,1.1-43.5,1.1c-5,0-10,0-15-0.1c-21.8-0.1-43.7-1.2-65.8-1.8c-1.3,5.8-0.5,7.3,5.4,7.7
				c15.7,1,31.5,2.3,47.3,2.5c2.9,0,5.8,0.1,8.7,0.1c15.9,0,31.8-0.6,47.7-0.9c0.5,0,1,0,1.5,0c2.3,0,4.6,0.1,6.9,0.1
				c1.5,0,3,0,4.5-0.2c13.2-1.3,26-3,39.6-4.2c13.6-1.2,27.3-1.8,40.9-2.7c0.3,0,0.6,0,0.8,0c2.3,0,3.8,0.9,4.3,3.9
				c2,12.8,5,25.5,6.2,38.4c2.3,24.6,3.5,49.2,5.3,73.9c0.6,8.6,1.5,17.1,2.2,25.8h8.9c-0.3-2.9-0.5-5.5-0.7-8.2
				c-1.4-16.7-2.8-33.4-4.3-50.1c-0.3-3.7,0.8-5.2,4.6-5.4c2-0.1,4.5-0.8,5.7-2.1c6.5-7.2,15.5-13.9,18.3-22.6
				c2.8-8.7,7.2-16.9,9.5-25.6c3.4-13.2,7.6-26.3,7.7-40.1c0.1-22.1,0.5-44.3,0.4-66.4c-0.2-27.8,0.6-55.7-4.5-83.2
				c-3.5-18.5-5-37.7-16-54.1c-2.8-4.2-5.5-8-10.5-10c-2-1-3.6-2.7-4.5-4.8c-4.8-9.5-8-19.9-14.1-28.4c-6.5-9.1-14.4-17.1-23.5-23.6
				c-8.3-5.7-18.7-8.5-28.3-12.1c-5.3-2-6.3-2.1-3.8-7.7c2.5-5.6,5.2-11.1,7.6-16.7c6.6-15,9.2-30.8,10.6-47
				c1.8-21.8-1.1-42.4-17.3-58.5c-5.7-5.7-12.4-10.3-19.8-13.5C836.4,55.1,829.7,54.2,822.9,54.2L822.9,54.2z M777.2,215.1
				c-1,0-1.9-0.2-2.3-0.7c-3.1-4.1-5.6-8.7-8.5-13.1c-10-14.8-12.8-32.3-17.9-48.8c-3.9-12.5-6.5-25.4-7.9-38.5
				c-0.9-8.6,0.7-17.6,2.6-26.1c0.8-3.7,4.6-7.6,8.1-9.6c6.3-3.4,12.9-6,19.8-7.8c8.6-2.5,17.3-4.4,26.2-5.6c7.8-0.9,15.7-2,23.6-2
				c7,0,14,0.9,20.8,3.5c5.2,2.1,9.2,7.2,13.8,10.8c7.2,5.8,11.3,13.5,13.1,22.2c1.6,7,2.4,14.1,3.6,21.1
				c-0.4,24.7-7.1,47.4-18.6,68.9c-2.8,5.2-6.4,8.5-13.3,8.5c-0.1,0-0.2,0-0.3,0c-0.3,0-0.7,0-1,0c-17.4,0-33.8,5-49.7,11.9
				c-3.3,1.5-6.4,3.5-9.7,4.9C779,214.9,778,215.1,777.2,215.1L777.2,215.1z M866.2,330c-28-0.3-48.5-9.1-66.8-23.2
				c-9.5-7.4-19.5-14.8-27.6-23.2s-14.3-18.5-21.2-28c-0.7-0.9-0.7-3.3,0.1-4.1c4-5,8.4-9.7,13-14.1c19-18,42.3-26.8,67.8-30.3
				c3.7-0.5,7.3-0.7,10.8-0.7c19,0,36.3,6.7,52.3,17.4c11.8,7.8,19.8,19.3,24.5,33c1.2,3.5,3.2,6.8,4.3,10.4
				c4.7,15.1-0.8,28.2-8.8,40.4C902.1,326.7,882,328.7,866.2,330L866.2,330z M778.6,364.8c-3.6,0-7.2,0-10.8-0.1
				c-19-0.5-37.9-1.9-56.8-2.8c-3.4-0.1-4.6-1.9-5.3-4.8c-2.9-11.6-5.4-22-9-34.8c-3.6-12.8-7.4-25.5-11.4-38.2
				c-1.4-4.6-0.2-7.3,4.3-8.8c14.4-4.6,28.7-9.5,43.1-13.8c3.1-0.9,5.2-1.4,6.7-1.4c2.9,0,4.2,1.8,7.9,6.5
				c7.1,8.9,13.7,18.4,21.9,26c10.9,9.9,22.5,19,34.8,27.1c9.2,6.1,19.3,11.5,29.7,14.6c10.1,3,20.2,4.6,30.2,4.6
				c14.1,0,27.9-3.3,41-10.6c7.3-4.1,13-11.6,18.5-18.2c3.8-4.6,6-10.5,8.9-15.8l1.8,0.2c-0.6,10.8-1.4,21.6-1.9,32.3
				c-0.3,5.4,0.5,11-0.4,16.3c-0.8,5.4-2.6,10.6-5.1,15.5c-2.2,3.9-6.8,5.3-11.3,5.3c-0.3,0-0.6,0-1,0c-12.3-0.3-24.4-1-36.9-1.1
				c-0.9,0-1.9,0-2.8,0c-11.5,0-23,0.5-34.6,0.8c-8.8,0.2-17.6,0.5-26.4,0.6C802,364.4,790.3,364.8,778.6,364.8L778.6,364.8z
				 M616.8,463c0.2,0,0.3,0,0.5,0c1.6-0.2,3.9-1.5,4.4-2.9c1.2-3.6,2-7.4,2.4-11.2c2-12.3,4.3-24.5,5.5-36.9
				c1.8-18.6,8.2-36.1,12.8-54.1c3.7-14.4,7.4-28.9,11.9-43.1c3.4-10.4,8.5-20.1,16.8-27.7c1.5-1.3,2.7-2,3.7-2c1.4,0,2.3,1.3,3,3.8
				c6.2,22.7,12.5,45.5,18.5,68.3c1.4,5.2,1.6,10.8,2.3,16.2c-0.7,15.6-4.5,30.2-10.1,44.6c-3.9,10.1-6.7,20.5-10.2,30.7
				c-5.3,15.9-9.6,32.2-16.4,47.3c-5.2,11.4-13.3,21.6-20.7,31.8c-2.7,3.7-7.9,6.9-11.1,9.1c-1.2,0.8-2.3,1.3-3.2,1.3
				c-1.5,0-2.8-1.1-4.2-3.5c-4.2-6.8-9.5-12.8-14.3-19.1c-0.8-1-1.6-2.1-2.2-3.3c-5.4-12.1-12.3-23.7-14-37.1
				c-1.3-9.9-2-19.8-3-29.7c-0.5-4.8-1.3-10.6-1.9-14.4s0.6-5.9,4.8-6.3c7.1-0.8,14.2-1.9,21.3-2.9c0.4-0.1,0.8-0.1,1.2-0.1
				c2.2,0,3.1,1.3,2.8,3.9c-0.9,9.2-1.7,18.5-2.7,27.8c-0.1,1.1-0.7,1.5-1.3,3.1c-0.6,1.6-1.9,4.2-1.3,4.7
				C613.4,462.4,615.1,463,616.8,463L616.8,463z M618.7,397.6C618.7,397.6,618.6,397.6,618.7,397.6c-1.7-0.8-3-2-4-3.4
				c-3.2-5.6-6-11.4-9.1-17c-6.1-11.2-12.2-22.3-18.6-33.3c-3.1-5.4-6.8-10.5-10.1-15.8c-2.3-3.5-1-5.2,3.1-6
				c3.6-0.7,7.1-1.8,10.4-3.2c1.4-0.6,2.8-1,4-1c2.1,0,3.9,1,5.3,3.5c6.4,11.2,12.7,22.4,19,33.7c2.4,4.3,4.6,8.7,6.8,13.2
				c0.7,1.9,1.3,3.8,1.7,5.8c-2.1,7.3-4.2,14.7-6.4,21.9C620.6,396.6,619.2,397.6,618.7,397.6L618.7,397.6z M923.2,564.4
				c-0.2,0-0.4,0-0.5-0.1c-0.9-0.3-1.4-2.6-1.6-4l-6.6-44.8c-0.7-5-2.2-10.7-2.3-14.8s1.6-8.2,2.4-12.4c1.8-8.7,3.7-17.5,5.2-26.3
				c2.9-17.2,5.8-34.4,8.4-51.7c1.9-12.9,3.5-26,5-39c0.5-3.7,0.7-4.8,4.3-9.1c3.6-4.3,4.8-10.9,6.4-16.6c1.6-5.7,2.2-11.7,3.4-17.5
				c0.2-0.8,1.2-1.5,2.6-3.1c1,2.3,2.2,3.9,2.4,5.6c1.7,14.3,4.1,28.7,4.5,43.1c0.5,18.2-0.6,36.5-1.1,54.8
				c-0.1,1.8-1.2,3.7-2.2,5.3c-2.5,4-1.8,6.9,1.7,9.9c1.4,1.2,2.8,3.3,2.8,5.1c-0.1,14.1-0.5,28.3-1,42.4c-0.1,3.2-0.8,6.3-1.9,9.3
				c-5.4,15.4-6.5,32.2-14.7,46.8c-3.4,6.2-7.2,12-13.3,15.8C926.1,563.8,924.3,564.4,923.2,564.4L923.2,564.4z M587,416.8
				c-1.8,0-2.4-1.3-2.4-5.6c-0.1-5.5,0-11.1-1.3-16.4c-1.8-7.1-4.6-14-7.4-20.9c-1.5-3.8-0.3-6.4,2.9-7.6c1.5-0.5,2.9-1.1,4.2-1.1
				c1.6,0,3.1,0.8,4.4,3.4c4.7,9.7,10.2,19,15.6,28.3c2.2,3.8,4.8,6.6,7.8,10.7c3,4.1,3.7,5.7-2.4,6.6c-6.1,0.9-12.2,1.5-19.7,2.4
				C588.1,416.7,587.5,416.8,587,416.8L587,416.8z"/>
		</g>
		<g>
			<path d="M113,637c-5.9,0-10-1.5-13.7-5.1c-1.5-1.4-2.8-2.1-4-2.1c-2.9,0-4.2,3.6-5.1,7.1h-6.1c0.2-1.2,0.3-2.4,0.5-3.6
				c0.5-3.8,1-7.4,1.7-10.9c2.9-15.3,1.7-27.8-3.7-39.1c-1.2-2.4-1.8-5.7-1.8-9.8c0.3-10.7,0.6-21.5,1-32
				c0.5-16.8,1.1-34.2,1.3-51.3c0.1-12-0.3-24.2-0.7-36c-0.2-5.9-0.4-11.9-0.5-17.9c0-2,0.2-4,0.5-6c0.2-1.4,0.3-2.9,0.4-4.3
				c0.7-10.6-1.8-20.9-4.2-30.8c-0.4-1.5-0.7-2.9-1.1-4.4c-3-12.6-6.6-29.2-8.5-46c-1.3-11.5,1.8-22.1,4.7-32.3
				c1-3.3,2-6.8,2.8-10.3c1.1-4.5,2.6-8.9,4.1-13.2c1.5-4.5,3.1-9.2,4.2-13.9c0.9-3.5-0.7-7.9-2.1-10.9c-1.5-3.6-3.2-7.1-4.8-10.6
				c-1.7-3.6-3.5-7.3-5-11.1c-0.7-1.6-0.2-4,0.5-5.9c2.3-6.3,4.7-12.7,7.1-18.9c1.8-4.6,3.6-9.4,5.4-14.1c1.7-4.5,3.2-9,4.6-13.5
				c1.2-3.6,2.5-7.4,3.8-11c7.6-20.4,28.6-21.9,34.8-21.9c1,0,2,0,3,0.1c11,0.7,20.5,2.2,30.6,3.8c2.3,0.4,4.6,0.7,6.9,1.1
				c0.8,0.1,1.5,0.2,2.1,0.2c2.8,0,4-1.6,5.1-4.3c4.5-11.3,2.2-19.4-7.3-26.3c-9.2-6.6-13.1-18.1-17-29.3l-0.1-0.2
				c-3.8-11.2-4.1-21.4-0.9-32c3.3-10.7,9.4-17.9,19.1-22.6c3.6-1.7,5.2-3.9,5.4-7.9c0.7-11.1,9.3-19,21.4-19.5
				c1.5-0.1,2.9-0.1,4.3-0.1c15.4,0,29.2,3,42.2,9.2c3.5,1.7,7.2,3.2,10.8,4.8c6.5,2.8,13.2,5.7,19.4,9.2c7.1,4.2,13.5,9.9,20,15.9
				c1.8,1.6,2.6,3.6,2.4,5.6c-0.2,2.2-1.8,4.4-4.2,5.8c-3.9,2.3-4.2,4.8-3.5,8.7c2.8,13.9,1.2,26-4.9,37c-2.9,5.4-1,10.6,0.9,15.7
				c0.4,1.1,0.8,2.2,1.2,3.3c0.3,0.9,0.6,1.8,1,2.7c0.9,2.4,1.7,4.6,2,7c0.2,1.9,0,3.2-0.7,4c-0.6,0.6-1.5,0.9-2.8,0.9
				c-0.7,0-1.5-0.1-2.4-0.3l-0.1,0l-0.1,0c-0.1,0-0.2,0-0.4,0c-2,0-3.9,1-5.1,2.6c-1.1,1.8-1.8,3.7-2.6,5.5c-1,2.3-1.9,4.5-3.2,6.5
				c-2.8,4.2-5.9,8.3-9,12.3c-2.1,2.8-4.3,5.7-6.4,8.6c-2.3,2.9-4.1,6.1-5.4,9.5c-1.8,5.7,2.1,9.7,5.2,12.9l0.3,0.3
				c1.3,1.3,2.7,2.5,4.1,3.6c2.2,1.8,4.3,3.6,5.7,5.7c2.6,3.8,3.7,8.3,4.3,11.8c0.4,3.1,2,6,4.5,7.9c13.4,10.7,21.4,23.7,24.2,40
				c1.8,10.3,4.7,20.5,7.4,30.5c1.1,4.1,2.3,8.4,3.4,12.6c0.6,2.3,1.6,4.4,4.8,4.4c0.8,0,1.8-0.1,2.9-0.4
				c8.2-2.1,11.8-8.2,15.3-14.1c1-1.6,2-3.3,3-4.8c0.9-1.3,1.5-2.8,2-4.3c0.3-0.9,0.7-1.8,1.1-2.7c2.9-5.5,6.3-8,11-8
				c0.1,0,0.3,0,0.4,0c2,0.1,4.1,0.1,6.1,0.2c7.9,0.2,16.1,0.4,24.2,0.9c2.2,0.2,3.6,0.7,4.3,1.7c0.8,1,0.9,2.7,0.5,5.1
				c-1.4,8.2-5.1,15.8-10.7,22c-2.2,2.5-3.1,4.8-0.6,8.2c7.6,10.3,9.2,22.5,4.8,37.2l-0.2,0.7c-3.8,12.7-7,23.8-6.8,36.8
				c0.2,13.8-4.9,25.6-14.8,34.2c-4.5,3.9-8.3,8.5-12,13.1c-2.2,2.7-4.5,5.5-6.9,8.1c-1.8,2-4.1,3.5-5.9,3.7
				c-7.5,1.2-14.9,1.9-23.7,2.6c-5.5,0.4-7.2,2.2-7.6,7.8c-1.1,12.9-0.8,26-0.4,38.6c0.3,11.2,0.6,22.7-0.1,34.1
				c-1.2,19.3-1.9,39.4-2.6,58.7c-0.2,5-0.4,10.1-0.5,15.1c-0.2,4.4-0.2,8.6-0.1,13.2c0,1.5,0,3,0,4.5h-12.8
				c0.2-0.1,0.5-0.3,0.7-0.4c2.1-1.1,4.2-2.3,4.6-4.2c1.1-5,1-10.2,1-15.3l0-2.2c0-1.6-3.8-2.4-4.8-2.4c-0.3,0-0.5,0-0.7,0.1
				c-4.2,0.8-8.5,1.8-12.7,2.8c-5.9,1.4-11.9,2.8-17.9,3.7c-10.9,1.6-22.1,2.6-33.2,2.8c-6.1,0.1-10.8,0.2-15.1,0.2
				c-18.8,0-33.1-1.1-46.4-3.6l-3-0.6c-13.9-2.6-28.2-5.3-41.3-11.6c-2.5-1.2-5-2.7-7.4-4.1c-1.8-1.1-3.7-2.2-5.6-3.2
				c-1.2-0.7-3.1-1.5-4.6-1.5c-0.5,0-0.9,0.1-1.2,0.2c-1.5,0.6-1.8,2.4-2,4c-0.1,0.5-0.1,1-0.2,1.4c-0.3,1.1-0.2,1.8-0.1,2.5
				c0.1,0.5,0.1,0.7,0,1c-2.6,10.3,1.4,17.6,12.3,23c4.2,2.2,8.3,4.6,12.2,7.3C117.3,636.9,115.1,637,113,637z M96.5,274.6
				c-1.7,0-4.5,1.8-5.3,3.5c-2.1,4-3.7,8.3-4.7,12.8c-0.8,3.6-1.6,7.1-2.4,10.7c-2.8,12-5.6,24.4-7.3,36.7c-1.5,11,1.1,22,3.6,32.7
				c0.4,1.8,0.8,3.6,1.3,5.5c3.1,13.5,5.1,27.5,7.1,41c0.8,5.2,1.5,10.6,2.4,15.9c0.1,0.8-0.1,1.7-0.2,2.7c-0.1,0.6-0.2,1.3-0.3,2
				c-0.2,2-0.4,4-0.6,6.1c-0.5,4.8-1.1,9.8-1,14.6c0.1,6.7,0.4,13.6,0.7,20.2c0.4,8.4,0.8,17.1,0.7,25.7
				c-0.1,11.5-0.5,23.1-0.9,34.4c-0.3,7.9-0.6,16.1-0.7,24.1c-0.3,12,4.1,21.3,13,27.1c9.4,6.1,16.6,10.1,25.5,12.6
				c16.2,4.4,32.8,7.9,49.3,10.4c9.9,1.5,20.1,1.6,30.1,1.7l3.4,0c0.5,0,1.1,0,1.6,0c6.8,0,14.5-0.4,22-0.7c4.4-0.2,9-0.4,13.4-0.6
				c4-0.1,5.9-2.1,6-6.3c0.2-6.2,0.4-12.6,0.7-18.7c0.4-9.7,0.8-19.8,0.8-29.7c0.1-9.4-0.5-19-1-28.2c-0.2-3.9-0.4-7.8-0.6-11.7
				c-0.1-2.4,0.1-3.8,0.8-4.5c0.3-0.3,0.8-0.7,2.4-0.7c0.6,0,1.2,0.1,1.9,0.2c3.1,0.4,3,1.1,2.9,3c0,0.5-0.1,1-0.1,1.6l0.6,67.4
				c0.1,5,0,10,0,15.3c0,2.9,0,5.9,0,9.2v1.3l25.1-7.4c3.7-1,5.4-3.2,5.5-7.4c0.1-9.3,0.7-18.5,1.2-26.4c0.3-5.1,0.7-10.3,1-15.3
				c0.8-10.6,1.6-21.7,1.6-32.5c0-10.6-0.9-20.1-1.8-29.2c-0.4-4.6-0.9-9.3-1.2-14.2c-0.2-2.7,0.1-4.8,0.9-5.9
				c1.9-2.7,3-4.4,2.6-6.1c-0.4-1.5-1.9-2.6-4.5-4c-8.1-4.4-17.2-9.8-23-19.1c-0.9-1.3-1.9-2.5-2.9-3.7c-1.3-1.5-2.6-2.9-3.4-4.6
				c-1.5-2.9-2.9-6-4.2-8.9c-1.4-3.3-2.9-6.7-4.7-9.9c-3.3-6.1-6.8-12.1-10.2-18c-5.1-8.8-10.3-17.9-15.1-27.1
				c-5.7-11.1-13.3-21.4-24.8-33.4c-1.7-1.8-2.9-4.1-3.3-6.5c-1.9-11.9,3.1-22.3,7.8-32.4c1.7-3.5,3.4-7.2,4.8-10.8
				c0.2-0.5,0.6-0.9,1.1-1.1c1.4-0.2,2.9-0.3,4.4-0.4c0.4,0,0.9-0.1,1.3-0.1c0,0.4,0.1,0.7,0.1,1.1c0.1,1.2,0.2,2.4-0.1,3.3
				c-1.7,4.7-3.5,9.6-5.3,14.2c-2.2,5.7-4.4,11.6-6.4,17.5c-1.9,5.3-0.6,9.5,3.6,12.2c4.6,2.8,7.3,7.2,9.5,11.4
				c5.5,10.5,11.7,20.9,17.6,31c2.8,4.7,5.6,9.5,8.4,14.3c1.7,3,3.4,6.1,5,9.1c3.1,5.8,6.3,11.7,10.1,17.2c2.9,4,5.2,8.4,6.8,13.1
				c3.1,9.2,9.6,16,17.8,18.7c10.6,3.4,20.2,5,29.2,5c3.5,0,7-0.3,10.4-0.8c4.8-0.7,8.2-2.1,10.3-4.3c6.5-6.5,12.7-13.7,18.6-20.6
				l1.6-1.9c0.4-0.5,0.8-0.9,1.2-1.4c2.1-2.4,4.2-4.9,4.7-7.8c1.2-6.4,1.9-13,2.5-19.4c0.2-1.9,0.4-3.8,0.6-5.8
				c0.1-1.4,0.1-2.9,0.1-4.3c0-2.8,0-5.5,1-7.7c4.9-10.3,6.1-21.3,7.2-32l0.2-1.5c0.5-5.8-2.4-10-5.6-13.7c-1-1.1-3-1.5-4.5-1.5
				c-0.8,0-1.6,0.1-2.1,0.3c-9.4,2.9-11.3,11.6-12.3,19.4c-0.5,4.1-0.2,6.5,1.1,8c1,1.1,2.5,1.7,4.8,1.7c0.8,0,1.7-0.1,2.9-0.2
				c0.4-0.1,0.8-0.1,1.1-0.1c1.2,0,2.2,0.4,2.8,1c0.4,0.5,0.6,1.2,0.5,2c-0.5,2.4-1.8,4.6-3.8,6.1c-0.7,0.5-2.1,0.8-3.6,0.8
				c-0.7,0-1.4-0.1-2-0.2c-3.4-1-6.9-2.1-10.2-3.2c-3.2-1.1-6.4-2.1-9.7-3.1c-0.6-0.2-1.1-0.2-1.6-0.2c-1.3,0-2.3,0.5-2.9,1.5
				c-0.7,1.1-0.7,2.8,0,4.4c0.5,1.2,1.1,2.3,1.7,3.4c0.8,1.5,1.7,3,2,4.6c0.5,2,1.1,3.9,1.8,5.9c2.1,6.3,4.1,12.2,0.2,18.6
				c-0.5,0.9-2,1.9-2.7,1.9c-0.5,0-1.5-1.4-1.6-2.6c-1.7-10.1-4.5-23.2-11.5-35.2c-1.8-3-3.4-6.3-4.5-9.6c-1.1-3.6-2-7.3-2.9-10.9
				c-0.9-3.5-1.8-7.1-2.8-10.7c-1.8-6.3-3.8-12.8-5.7-19c-4-13.1-8.2-26.6-11-40.2c-3.9-18.8-11.7-31.3-24.8-39.2
				c-9.8-6-20.4-10.8-30.5-15.5l-2-0.9c-1.7-0.8-3.8-1.2-6.1-1.2c-1.4,0-2.8,0.1-4.2,0.4c-11.2,1.8-22.1,7-34.3,16.2
				c-19.2,15-40.6,26.7-63.4,35.1c-5.3,1.9-12.3,4.2-19.5,4.2c-3.6,0-6.9-0.5-10.2-1.6C96.9,274.6,96.7,274.6,96.5,274.6z
				 M326.3,357.1c2.8,0,5.7,0.5,8.4,1.4c2,0.6,3.1,0.9,3.9,0.9c2.3,0,2.6-1.8,3.2-4.9l0.1-0.4c1-5.4,2.5-10.7,4.4-15.8
				c0.9-2.5,1.4-5-1.9-7l-0.6-0.4c-2.7-1.6-7.3-4.4-11-6.3c-0.4-0.2-0.8-0.3-1.4-0.3c-1.2,0-3.6,0.5-4.1,1.7
				c-2.7,8-5.2,16.2-7.5,24.2l0,0.1l0,0.1c-0.2,2.4,0.2,4.1,1.3,5.2c0.9,1,2.4,1.5,4.4,1.5C325.7,357.1,326,357.1,326.3,357.1z
				 M363,295.6c-1.4,0.4-3,0.6-4.5,0.9c-3.5,0.5-7,1.1-9.6,3.1c-3.7,2.9-6.8,8.6-9.1,13.3c-1,1.9-1.2,3.6-0.6,5.1
				c0.6,1.6,2.1,2.9,4.5,3.8c3.2,1.2,6.1,1.8,8.7,1.8c4.3,0,7.9-1.5,11.2-4.6c4.8-4.7,9.2-9.9,12.9-15.5c1-1.4,1.3-3,0.6-4.4
				c-0.7-1.5-2.5-2.3-4.7-2.3h-8.1c0-0.1,0-0.3-0.1-0.4l-0.2-1L363,295.6z M116.9,167c-1.1,0.5-2.4,0.9-3.5,1.4
				c-2.7,0.9-5.2,1.8-6.6,3.7c-4,5.2-7.2,10.9-9.5,17c-2.2,6.1-4.1,12.3-6,18.3c-2.3,7.4-4.6,15-7.4,22.3c-2.9,7.3-2.6,14.1,1,22.3
				c0.3,0.7,0.6,1.4,0.9,2.1c0.4,0.8,0.8,1.6,1,2.4c2.2,7.1,11.3,13.6,19.2,13.6c1.1,0,2.2-0.1,3.3-0.4c2.7-0.7,5.6-1.3,8.3-2
				c7.4-1.7,15-3.4,22-6.6c9.8-4.4,19.1-10.2,28.1-15.8c2.5-1.5,4.9-3,7.4-4.5c5.3-3.2,10.9-6.7,16.2-10c6.4-4,13.1-8.2,19.6-12.1
				c5.5-3.2,11.7-4.9,18.1-4.9c2.4,0,4.9,0.3,7.3,0.8c2.2,0.4,4.3,1.3,6.5,2.2c1.5,0.6,3,1.3,4.6,1.8c0.5,0.2,1.3,0.3,2,0.3
				c0.7,0,1.9-0.1,2.6-0.9c0.8-0.8,0.9-2.4,0.9-3.3c0-0.8-0.3-1.4-0.7-1.7c-0.6-0.4-1.1-0.9-1.7-1.4c-2.5-2-5-4-7.9-4.6
				c-3.2-0.6-5.1-1.6-5.4-5.1c-0.1-1.8-2.1-3.4-3.8-4.6c-1.1-0.8-2.2-0.9-3.1-1.1c-0.5-0.1-1-0.2-1.4-0.3c-4.9-1.8-9.8-3.7-14.6-5.7
				c-10-4-20.3-8.1-30.9-10.8c-15-3.7-30.6-6.4-45.7-9c-6.6-1.1-13.4-2.3-20-3.5l-0.3-0.1L116.9,167z M232.7,166.4
				c0.4,0.3,0.7,0.7,1.1,1c1.4,1.3,2.6,2.5,3.4,3.9c0.7,1.2,0.7,2.5,0.8,3.8c0,0.8,0.1,1.5,0.2,2.3c0.6,3.1,1.4,6.1,2.5,9
				c1.1,2.3,2.4,3.5,3.9,3.5c1.4,0,2.7-1,4-3c0.8-1.2,1.4-2.2,1.9-3.2c1-1.8,1.9-3.2,3.2-4.6c11.5-13,19.2-27.2,23-42.3
				c0.9-4.3-0.1-5-0.5-5.3c-5.2-4.1-3.2-8.2-0.9-13l0.5-1c4.4-9.1,6.8-18.7,7.1-28.8l0-0.1l0-0.1c-0.4-3.5-1.1-7-1.9-10.4
				c-1.6-6-6.5-10.3-11.7-10.3c-0.4,0-0.7,0-1.1,0.1c-5.6,0.7-7.2,5.1-8.1,12.1c-0.8,7.1-2.3,16.1-3.7,23.5
				c-0.8,3.7-2.1,4.2-3.4,4.2c-0.9,0-2.1-0.3-3.7-1c-0.7-0.3-1.5-0.7-2.2-1.2c-1.5-0.9-3.1-1.8-4.9-1.9l-0.6-0.1
				c-1.2-0.1-2.9-0.3-4.7-0.3c-3.1,0-5.3,0.5-6.5,1.6c-6.5,5.2-8.4,10.7-5.8,16.9c0.5,1.1,0.2,2.8-0.1,4.3
				c-1.6,8.3-4.4,12.2-8.9,12.2c-2.4,0-5.5-1.1-9.2-3.4l-1.3-0.8c-1.5-0.8-3.3-1.3-5.1-1.3c-4.7,0-10.4,2.8-11.6,7.9
				c-1.7,7.4-3,15-4.2,22.4l-0.7,4.2c-0.6,3.5,0.9,5.8,4.7,6.9c7.5,2.4,15.2,5,22.6,7.4c4.3,1.4,8.6,2.9,13,4.3
				c0.9,0.3,1.9,0.5,2.7,0.5c1,0,1.7-0.2,2.2-0.7c1-1,0.9-2.9,0.6-4.8c-0.1-1-0.3-2.2-0.4-3.3c-0.3-2-0.7-3.9-0.3-5.6
				c0.4-1.7,1.6-2.9,2.9-4.2C231.8,167.3,232.3,166.9,232.7,166.4z M202.8,27c-1,0-2,0-3,0.1c-12,0.3-15.8,4.1-15.6,15.6
				c0.1,4.3-1.4,6.7-5.3,8.4c-0.6,0.3-1.2,0.5-1.8,0.8c-1.8,0.7-3.6,1.5-5.1,2.7c-0.7,0.6-1.5,1.3-2.3,1.9c-3.2,2.6-6.5,5.4-8.3,8.9
				c-6.7,13.2-6.6,28.1,0.3,44.1c2.2,4.8,4.6,9.5,7.4,13.9c3.1,5.3,7.1,7.9,11.8,7.9c2.4,0,5.1-0.7,7.8-2.2c1.4-0.8,2.9-1.4,4.4-1.8
				c8-1.9,8.4-2.3,9.6-10.1l0.1-0.6c1-6.2,3.9-10.3,8.6-12.3c1.5-0.6,3-1.2,4.4-1.8c2.4-0.9,4.9-1.9,7.2-3.2
				c5.3-3.1,10.1-4.6,14.9-4.6c2.6,0,5.3,0.5,7.9,1.4c1.1,0.4,2,0.5,2.7,0.5c3.2,0,3.5-3.2,3.7-4.8c0.1-1,0.2-1.9,0.3-2.9
				c0.6-5,1.1-10.3,2.5-15.2c2.3-8.5,6.9-12.5,14.3-12.5c0.6,0,1.3,0,2,0.1c0.7,0.1,1.6,0.1,2.5,0.1c0.8,0,1.6,0,2.4,0
				c0.8,0,1.6,0,2.4,0h0.6l1.5-2.9l-0.5-0.5c-0.8-0.8-1.7-1.8-2.5-2.6c-2.1-2.3-4.3-4.7-7-6.3c-7.2-4.3-14.9-8.2-22.6-11.5
				C231,30.4,216.6,27,202.8,27z"/>
			<path class="st0" d="M201.9,21.2c15.3,0,28.9,3,41.8,9.1c3.6,1.7,7.2,3.2,10.8,4.8c6.5,2.8,13.2,5.6,19.3,9.1
				c7.1,4.2,13.4,9.8,19.9,15.8c1.5,1.4,2.3,3,2.1,4.7c-0.2,1.9-1.6,3.8-3.7,5.1c-4.4,2.6-4.7,5.6-3.9,9.7
				c2.7,13.7,1.1,25.6-4.8,36.4c-3.1,5.8-1,11.4,0.8,16.5c0.4,1.1,0.8,2.2,1.2,3.3c0.3,0.9,0.6,1.8,1,2.7c0.9,2.3,1.7,4.5,1.9,6.8
				c0.2,1.6,0,2.7-0.5,3.2c-0.4,0.4-1.1,0.6-2.1,0.6c-0.6,0-1.4-0.1-2.2-0.2l-0.1,0l-0.1,0c-0.1,0-0.3,0-0.4,0c-2.3,0-4.6,1.1-5.9,3
				l-0.1,0.1l0,0.1c-1,1.8-1.8,3.7-2.6,5.6c-0.9,2.3-1.8,4.4-3.1,6.3c-2.8,4.2-5.9,8.3-8.9,12.2c-2.1,2.8-4.3,5.7-6.4,8.6
				c-2.3,3-4.2,6.3-5.6,9.8l0,0.1l0,0.1c-1.9,6.2,2.2,10.4,5.5,13.8l0.3,0.3c1.3,1.3,2.7,2.5,4.1,3.7c2.1,1.8,4.2,3.5,5.5,5.5
				c2.5,3.6,3.5,8,4.2,11.4c0.4,3.4,2.2,6.5,4.8,8.6c13.2,10.5,21.1,23.4,23.9,39.4c1.9,10.3,4.7,20.6,7.4,30.6
				c1.1,4.1,2.3,8.4,3.4,12.6c0.6,2.4,1.9,5.2,5.7,5.2c0.9,0,1.9-0.1,3.2-0.4c8.6-2.2,12.3-8.5,15.9-14.5c1-1.6,1.9-3.3,3-4.8
				c1-1.4,1.6-3,2.1-4.5c0.3-0.9,0.6-1.8,1-2.5c2.7-5.1,5.9-7.4,10.2-7.4c0.1,0,0.3,0,0.4,0c2,0.1,4,0.1,6.1,0.2
				c7.9,0.2,16.1,0.4,24.1,0.9c1.9,0.1,3.1,0.6,3.7,1.3c0.6,0.8,0.7,2.2,0.3,4.3c-1.3,8-4.9,15.5-10.4,21.5
				c-2.9,3.3-3.1,6.2-0.6,9.4c7.4,10.1,8.9,21.9,4.7,36.3l-0.2,0.7c-3.8,12.8-7.1,23.9-6.9,37.1c0.2,13.7-4.6,24.9-14.4,33.5
				c-4.6,3.9-8.4,8.6-12.1,13.2c-2.2,2.7-4.5,5.5-6.9,8.1c-1.6,1.8-3.7,3.1-5.3,3.4l0,0l0,0c-7.5,1.2-14.9,1.9-23.6,2.6
				c-6,0.5-8,2.6-8.5,8.7c-1.1,13-0.8,26.1-0.4,38.8c0.3,11.1,0.6,22.7-0.1,34c-1.2,19.4-1.9,39.4-2.6,58.8
				c-0.2,5-0.4,10.1-0.5,15.1c-0.2,4.4-0.2,8.7-0.1,13.2c0,1.1,0,2.3,0,3.5h-8.1c1.3-0.9,2.3-1.9,2.6-3.4c1.1-5.1,1.1-10.4,1.1-15.6
				c0-0.7,0-1.4,0-2.2c0-2.7-5-3.4-5.8-3.4c-0.3,0-0.6,0-0.9,0.1c-4.3,0.8-8.6,1.8-12.7,2.8c-5.8,1.4-11.9,2.8-17.9,3.7
				c-10.9,1.6-22,2.6-33,2.8c-6.1,0.1-10.8,0.2-15.1,0.2c-18.7,0-33-1.1-46.2-3.5l-3-0.6c-13.8-2.6-28.1-5.3-41.1-11.5
				c-2.5-1.2-4.8-2.6-7.3-4c-1.8-1.1-3.7-2.2-5.6-3.2c-1.4-0.7-3.3-1.6-5.1-1.6c-0.6,0-1.1,0.1-1.6,0.3c-2.1,0.8-2.4,3.1-2.6,4.8
				c-0.1,0.5-0.1,0.9-0.2,1.3c-0.3,1.3-0.2,2.2-0.1,2.8c0,0.4,0.1,0.5,0,0.7c-2.6,10.7,1.6,18.5,12.8,24.1c3.3,1.7,6.5,3.6,9.7,5.6
				c-1.2,0.1-2.4,0.1-3.6,0.1c-5.7,0-9.5-1.4-13-4.8c-1.7-1.6-3.2-2.4-4.7-2.4c-3.3,0-4.9,3.5-5.8,7.1h-4.2c0.1-0.8,0.2-1.6,0.3-2.4
				c0.5-3.8,1-7.3,1.7-10.9c2.9-15.5,1.7-28.2-3.8-39.8c-1.1-2.2-1.7-5.4-1.7-9.3c0.3-10.7,0.6-21.5,1-32
				c0.5-16.8,1.1-34.2,1.3-51.4c0.1-12-0.3-24.2-0.7-36c-0.2-5.9-0.4-11.9-0.5-17.8c0-1.9,0.2-4,0.5-5.9c0.2-1.4,0.3-2.9,0.4-4.3
				c0.7-10.8-1.8-21.1-4.2-31.1c-0.4-1.5-0.7-2.9-1.1-4.4c-3-12.6-6.6-29.1-8.5-45.9c-1.2-11.3,1.6-21.3,4.7-31.9
				c1-3.4,2-6.8,2.8-10.3c1.1-4.4,2.6-8.9,4.1-13.2c1.5-4.5,3.1-9.2,4.2-13.9c1-3.8-0.7-8.5-2.1-11.6c-1.5-3.6-3.2-7.2-4.9-10.7
				c-1.7-3.6-3.5-7.3-5-11l0,0l0,0c-0.4-1-0.2-3,0.6-5.1c2.3-6.3,4.7-12.7,7.1-18.8c1.8-4.6,3.6-9.4,5.4-14.2
				c1.7-4.5,3.2-9.1,4.7-13.5c1.2-3.6,2.4-7.4,3.7-11c7.3-19.8,27.8-21.3,33.9-21.3c1,0,2,0,3,0.1c10.9,0.7,20.4,2.2,30.5,3.8
				c2.3,0.4,4.6,0.7,6.9,1.1c0.9,0.2,1.7,0.2,2.3,0.2c3.7,0,5-2.6,6-5c4.6-11.7,2.2-20.4-7.7-27.5c-8.9-6.4-12.8-17.8-16.6-28.8
				l-0.1-0.2c-3.8-11-4.1-21-0.9-31.4c3.2-10.6,9-17.4,18.5-22c4-1.9,5.7-4.4,5.9-8.8c0.6-10.6,8.9-18.1,20.5-18.5
				C199,21.2,200.5,21.2,201.9,21.2 M180.9,132.4c2.6,0,5.4-0.8,8.3-2.3l0,0l0,0c1.3-0.7,2.7-1.3,4.1-1.7c8.5-2,9-2.7,10.4-10.9
				l0.1-0.6c0.9-5.9,3.6-9.7,8-11.6c1.4-0.6,2.9-1.2,4.4-1.8c2.4-0.9,5-1.9,7.3-3.2c5.1-3,9.8-4.4,14.4-4.4c2.5,0,5,0.4,7.6,1.3
				c1.2,0.4,2.2,0.6,3,0.6c4.1,0,4.5-4.1,4.7-5.7c0.1-1,0.2-1.9,0.3-2.9c0.5-5,1.1-10.2,2.4-15c2.2-8.1,6.3-11.7,13.3-11.7
				c0.6,0,1.2,0,1.9,0.1c0.8,0.1,1.6,0.1,2.6,0.1c0.8,0,1.7,0,2.5,0c0.8,0,1.6,0,2.3,0h1.2l0.6-1.1l0.9-1.7l0.7-1.3l-1-1
				c-0.8-0.8-1.6-1.7-2.5-2.6c-2.2-2.4-4.4-4.8-7.2-6.5c-7.3-4.3-14.9-8.2-22.7-11.5C231.3,29.5,216.8,26,202.8,26c-1,0-2,0-3,0.1
				c-12.4,0.3-16.8,4.7-16.5,16.6c0.1,3.9-1.2,5.9-4.7,7.4c-0.5,0.2-1.1,0.5-1.7,0.7c-1.9,0.8-3.8,1.5-5.4,2.9
				c-0.7,0.6-1.5,1.2-2.2,1.9c-3.3,2.7-6.7,5.5-8.5,9.2c-6.8,13.5-6.7,28.6,0.3,45c2.2,4.8,4.7,9.5,7.4,14
				C171.6,129.5,175.9,132.4,180.9,132.4 M253,106.8c-0.8,0-1.9-0.3-3.2-0.9c-0.7-0.3-1.4-0.7-2.1-1.1c-1.6-0.9-3.3-1.9-5.3-2
				l-0.6-0.1c-1.2-0.1-2.9-0.3-4.8-0.3c-3.4,0-5.7,0.6-7.1,1.8c-6.8,5.5-8.9,11.5-6.1,18c0.4,0.9,0.1,2.8-0.1,3.7
				c-2,10.2-5.5,11.4-7.9,11.4c-2.3,0-5.2-1.1-8.6-3.2l-1.3-0.8l0,0l0,0c-1.6-0.9-3.5-1.3-5.6-1.3c-5.1,0-11.3,3-12.6,8.7
				c-1.7,7.5-3,15.1-4.2,22.4c-0.2,1.4-0.5,2.8-0.7,4.2c-0.5,2.8,0,6.5,5.4,8.1c7.6,2.4,15.2,5,22.6,7.4c4.3,1.4,8.6,2.9,12.9,4.3
				c1,0.3,2.1,0.5,3.1,0.5c1.3,0,2.2-0.3,2.9-1c1.3-1.3,1.2-3.6,0.9-5.6c-0.1-1.1-0.3-2.3-0.5-3.4c-0.3-1.9-0.6-3.7-0.3-5.2
				c0.3-1.4,1.4-2.5,2.6-3.7c0.2-0.2,0.4-0.4,0.6-0.6c0.1,0.1,0.2,0.2,0.3,0.3c1.3,1.2,2.5,2.4,3.2,3.6c0.6,1,0.6,2.1,0.7,3.3
				c0,0.8,0.1,1.6,0.2,2.5c0.6,3.1,1.5,6.2,2.6,9.1l0,0.1l0,0.1c1.3,2.6,2.9,3.9,4.8,3.9c1.7,0,3.3-1.1,4.8-3.4
				c0.8-1.2,1.4-2.3,2-3.2c1-1.7,1.8-3.1,3.1-4.5c11.6-13.1,19.4-27.5,23.2-42.7l0,0l0,0c0.9-4.3,0-5.6-0.9-6.2
				c-4.4-3.4-3.1-6.5-0.6-11.7c0.2-0.3,0.3-0.7,0.5-1c4.4-9.2,6.9-19,7.2-29.2l0-0.2l0-0.1c-0.4-3.5-1.1-7.1-2-10.6
				c-1.7-6.4-7-11.1-12.7-11.1c-0.4,0-0.8,0-1.2,0.1c-6.9,0.8-8.2,7.1-8.9,12.9c-0.8,7.1-2.3,16-3.7,23.4
				C254.7,106.8,253.7,106.8,253,106.8 M83.8,252.4c0.3,0.8,0.6,1.5,1,2.2c0.4,0.8,0.7,1.5,1,2.3c2.3,7.5,11.9,14.3,20.2,14.3
				c1.2,0,2.4-0.1,3.5-0.4c2.7-0.7,5.5-1.3,8.3-2c7.4-1.7,15.1-3.4,22.2-6.7c9.8-4.5,19.2-10.3,28.2-15.9c2.4-1.5,4.9-3,7.4-4.5
				c5.3-3.2,10.9-6.7,16.2-10c6.4-4,13.1-8.2,19.6-12.1c5.3-3.1,11.4-4.8,17.6-4.8c2.4,0,4.8,0.2,7.1,0.7c2.1,0.4,4.1,1.2,6.3,2.2
				c1.5,0.6,3,1.3,4.6,1.8c0.7,0.2,1.5,0.4,2.3,0.4c1,0,2.4-0.2,3.3-1.2c1.3-1.3,1.2-3.6,1.2-4c-0.1-1.1-0.4-1.9-1.1-2.5l0,0l0,0
				c-0.6-0.4-1.1-0.9-1.7-1.3c-2.6-2.1-5.2-4.2-8.4-4.8c-3.3-0.6-4.4-1.6-4.6-4.2c-0.2-2.2-2.2-4-4.2-5.4c-1.3-0.9-2.5-1.1-3.5-1.3
				c-0.5-0.1-0.9-0.1-1.2-0.3c-4.9-1.8-9.8-3.7-14.5-5.6c-10-4-20.4-8.1-31.1-10.8c-15.1-3.7-30.7-6.4-45.8-9
				c-6.6-1.1-13.4-2.3-20-3.5l-0.6-0.1l-0.6,0.3c-1.1,0.5-2.3,0.9-3.4,1.3c-2.7,0.9-5.5,1.9-7.1,4.1c-4.1,5.3-7.3,11.1-9.7,17.3
				c-2.2,6.1-4.1,12.3-6,18.3c-2.3,7.4-4.6,15-7.4,22.2C79.8,236.9,80.2,244,83.8,252.4 M224.3,219.8c-11.4,1.9-22.4,7.1-34.8,16.4
				c-19.1,14.9-40.4,26.6-63.2,34.9c-5.2,1.9-12.1,4.1-19.1,4.1c-3.5,0-6.7-0.5-9.9-1.5l-0.1,0l-0.1,0c-0.3-0.1-0.5-0.1-0.8-0.1
				c-2.1,0-5.2,2-6.2,4c-2.1,4.1-3.7,8.5-4.8,13.1c-0.8,3.6-1.6,7.2-2.4,10.7c-2.8,12-5.7,24.4-7.3,36.8c-1.5,11.2,1.1,22.3,3.6,33
				c0.4,1.8,0.8,3.6,1.3,5.5c3.1,13.4,5.1,27.4,7.1,40.9c0.8,5.2,1.5,10.6,2.4,15.9c0.1,0.7-0.1,1.5-0.2,2.4c-0.1,0.7-0.2,1.4-0.3,2
				c-0.2,2-0.4,4.1-0.6,6.1c-0.5,4.8-1.1,9.8-1,14.7c0.1,6.8,0.4,13.6,0.7,20.3c0.4,8.4,0.8,17.1,0.7,25.6
				c-0.1,11.4-0.5,23.1-0.9,34.4c-0.3,7.9-0.6,16.1-0.7,24.1c-0.3,12.4,4.3,22,13.4,27.9c9.5,6.2,16.8,10.2,25.8,12.8
				c16.2,4.4,32.8,7.9,49.4,10.4c10,1.6,20.3,1.6,30.2,1.7c1.1,0,2.2,0,3.3,0c0.5,0,1.1,0,1.6,0c6.8,0,14.5-0.4,22-0.7
				c4.4-0.2,9-0.4,13.4-0.6c4.5-0.1,6.8-2.5,6.9-7.2c0.2-6.2,0.4-12.6,0.7-18.7c0.4-9.7,0.8-19.8,0.8-29.7c0.1-9.5-0.5-19-1-28.3
				c-0.2-3.8-0.4-7.8-0.6-11.7c-0.1-2.7,0.2-3.5,0.5-3.8c0.3-0.3,1-0.4,1.6-0.4c0.5,0,1.1,0,1.8,0.1c1.7,0.2,2,0.6,2,0.6
				c0,0,0,0,0,0c0.1,0.2,0,0.8,0,1.3c0,0.5-0.1,1.1-0.1,1.7l0.6,67.4c0.1,4.9,0,10,0,15.3c0,2.9,0,5.9,0,9.2v2.7l2.6-0.8l23.8-7
				c4.2-1.1,6.1-3.7,6.3-8.4c0.1-9.3,0.7-18.5,1.2-26.3c0.3-5.1,0.7-10.2,1-15.2c0.8-10.7,1.6-21.7,1.6-32.6
				c0-10.7-0.9-20.1-1.8-29.3c-0.4-4.6-0.9-9.3-1.2-14.2c-0.2-2.4,0.1-4.4,0.7-5.2l0,0l0,0c2-2.9,3.2-4.8,2.7-6.9
				c-0.5-2.1-2.6-3.3-5-4.6c-8-4.3-17-9.6-22.7-18.7c-0.9-1.4-2-2.6-3-3.8c-1.3-1.4-2.5-2.8-3.3-4.4c-1.5-2.9-2.8-5.9-4.1-8.9
				c-1.4-3.3-2.9-6.7-4.7-10c-3.3-6.1-6.8-12.1-10.2-18c-5.1-8.8-10.3-17.9-15-27c-5.7-11.1-13.4-21.5-24.9-33.7
				c-1.6-1.7-2.6-3.7-3.1-6c-1.8-11.6,2.8-21.4,7.7-31.8c1.7-3.5,3.4-7.2,4.8-10.9c0.1-0.2,0.3-0.4,0.5-0.5c1.3-0.2,2.7-0.3,4.1-0.4
				c0.1,0,0.2,0,0.3,0c0,0,0,0.1,0,0.1c0.1,1.1,0.2,2.2,0,2.9c-1.7,4.7-3.5,9.5-5.3,14.2c-2.2,5.7-4.4,11.7-6.4,17.5
				c-2.6,7.4,0.8,11.3,4,13.4c4.4,2.7,7,6.9,9.2,11c5.5,10.6,11.7,21,17.7,31.1c2.8,4.7,5.6,9.5,8.4,14.3c1.7,3,3.4,6.1,5,9.1
				c3.1,5.8,6.3,11.8,10.2,17.3c2.8,3.9,5.1,8.3,6.6,12.9c3.2,9.5,9.9,16.5,18.5,19.4c10.7,3.4,20.3,5,29.5,5
				c3.6,0,7.1-0.3,10.6-0.8c5-0.7,8.6-2.3,10.8-4.6c6.6-6.6,12.7-13.8,18.7-20.7l1.7-1.9c0.4-0.5,0.8-0.9,1.2-1.4
				c2-2.4,4.4-5.1,5-8.3c1.3-6.5,1.9-13.1,2.5-19.5c0.2-1.9,0.4-3.8,0.6-5.8c0.1-1.5,0.1-3,0.1-4.4c0-2.7,0-5.3,0.9-7.2
				c5-10.4,6.2-21.6,7.3-32.3l0.2-1.6c0.6-6.2-2.5-10.6-5.9-14.4c-1.2-1.4-3.5-1.8-5.2-1.8c-0.9,0-1.7,0.1-2.4,0.4
				c-10,3.1-12,12.1-13,20.2c-0.6,4.4-0.2,7,1.3,8.8c1.6,1.8,3.9,2,5.5,2c0.9,0,1.8-0.1,3-0.2l0,0l0,0c0.3,0,0.6-0.1,0.9-0.1
				c0.9,0,1.7,0.2,2,0.6c0.1,0.1,0.3,0.4,0.3,1.1c-0.5,2.2-1.7,4.1-3.4,5.5c-0.5,0.3-1.6,0.7-3,0.7c-0.6,0-1.2-0.1-1.7-0.2
				c-3.4-1-6.8-2.1-10.2-3.2c-3.2-1.1-6.5-2.1-9.7-3.1c-0.7-0.2-1.3-0.3-1.9-0.3c-1.6,0-3,0.7-3.8,1.9c-0.9,1.4-1,3.4-0.1,5.4
				c0.5,1.3,1.2,2.4,1.7,3.4c0.9,1.6,1.6,2.9,1.9,4.3c0.5,2,1.2,4,1.8,6c2,6.1,3.9,11.8,0.3,17.8c-0.4,0.6-1.2,1.2-1.7,1.4
				c-0.3-0.3-0.7-1.1-0.8-1.7c-1.7-10.2-4.5-23.4-11.7-35.5c-1.8-3-3.3-6.1-4.4-9.4c-1.1-3.6-2-7.3-2.9-10.8
				c-0.9-3.5-1.8-7.1-2.8-10.7c-1.8-6.4-3.8-12.8-5.7-19c-4-13.1-8.2-26.6-11-40.2c-3.9-19.1-12-31.8-25.2-39.8
				c-9.9-6-20.4-10.9-30.6-15.6l-2-0.9c-1.8-0.8-4.1-1.3-6.5-1.3C227.3,219.4,225.8,219.6,224.3,219.8 M352.4,324.5
				c4.5,0,8.5-1.6,11.9-4.9c4.9-4.7,9.3-10,13.1-15.6c1.2-1.8,1.5-3.8,0.7-5.4c-0.9-1.8-3-2.8-5.6-2.8l-7.3,0l-0.4-1.6l-1.9,0.5
				c-1.4,0.4-2.9,0.6-4.4,0.8c-3.6,0.6-7.3,1.2-10.1,3.3c-3.9,3-7,8.8-9.4,13.6c-1.1,2.2-1.3,4.2-0.6,5.9c0.7,1.9,2.4,3.3,5.1,4.4
				C346.6,323.9,349.6,324.5,352.4,324.5 M325.4,358.1c0.3,0,0.6,0,1,0c2.7,0,5.4,0.5,8,1.3c1.8,0.6,3.1,1,4.2,1
				c3.1,0,3.6-2.6,4.2-5.7l0.1-0.4c1-5.3,2.4-10.6,4.4-15.6l0,0l0,0c0.6-1.8,1.9-5.6-2.4-8.2l-0.6-0.4c-2.7-1.7-7.3-4.4-11.1-6.3
				c-0.5-0.3-1.1-0.4-1.8-0.4c0,0-4,0.1-5,2.3l0,0.1l0,0.1c-2.7,7.9-5.2,16.2-7.5,24.2l-0.1,0.2l0,0.2c-0.1,1.7-0.1,4.2,1.5,5.9
				C321.4,357.5,323.1,358.1,325.4,358.1 M201.9,19.2c-1.5,0-2.9,0-4.4,0.1c-12.5,0.5-21.7,8.5-22.4,20.4c-0.2,3.8-1.6,5.6-4.8,7.1
				c-10,4.8-16.2,12.1-19.6,23.2c-3.4,11.1-2.9,21.5,0.9,32.6c3.8,11.1,7.9,23.2,17.4,30s11.1,14.7,7,25.1c-1.1,2.7-2.1,3.7-4.1,3.7
				c-0.6,0-1.2-0.1-2-0.2c-12.5-1.9-24.1-4-37.6-4.9c-1-0.1-2.1-0.1-3.1-0.1c-13.1,0-29.4,5.4-35.8,22.6c-2.9,8.1-5.4,16.4-8.4,24.5
				c-4.1,11-8.5,22-12.5,33c-0.8,2.1-1.3,4.8-0.5,6.6c3,7.4,6.9,14.4,9.9,21.7c1.4,3.2,2.8,7.2,2,10.3c-2.2,9.1-6,17.9-8.3,27.1
				c-3.4,14.1-9.2,27.4-7.5,42.9c1.7,15.5,4.9,30.9,8.5,46.1c2.7,11.5,6,22.9,5.2,34.9c-0.2,3.4-0.9,6.9-0.9,10.4
				c0.4,17.9,1.4,35.9,1.2,53.8c-0.4,27.8-1.6,55.6-2.3,83.4c0,3.4,0.4,7.2,1.9,10.2c5.9,12.4,6.1,25.3,3.6,38.5
				c-1,5.1-1.6,10.3-2.4,15.7H91c1.1-4.7,2.4-7.1,4.3-7.1c1,0,2.1,0.6,3.3,1.9c4.4,4.3,9.3,5.3,14.4,5.3c3.1,0,6.2-0.4,9.4-0.6
				c-4.7-3.3-9.5-6.3-14.6-8.9c-9.2-4.5-14.5-10.9-11.8-21.8c0.3-1.1-0.3-1.8,0.1-3.5s0.3-4.2,1.6-4.7c0.3-0.1,0.6-0.1,0.9-0.1
				c1.3,0,2.9,0.7,4.1,1.3c4.4,2.3,8.5,5.2,13,7.3c14.1,6.7,29.3,9.3,44.5,12.2c15.5,2.9,31,3.6,46.6,3.6c5,0,10.1-0.1,15.1-0.2
				c11.1-0.2,22.3-1.2,33.3-2.8c10.3-1.6,20.4-4.5,30.7-6.5c0.2,0,0.3-0.1,0.5-0.1c1.4,0,3.8,0.9,3.8,1.4c0,5.8,0.2,11.7-1,17.3
				c-0.4,2.1-4.4,3.4-6.7,5.1c-0.2,0.2-0.1,0.6-0.1,0.7h16.3c0-6.4-0.2-12.5,0.1-18.6c0.9-24.6,1.6-49.5,3.1-73.8
				c1.5-24.3-1.6-48.5,0.5-72.7c0.4-5,1.6-6.5,6.7-6.9c8-0.6,15.9-1.3,23.8-2.6c2.3-0.3,4.8-2.1,6.5-4c6.4-6.9,11.7-15,18.8-21.1
				c10.9-9.5,15.3-21.9,15.1-35s3.1-24,7-37.2c3.9-13.2,3.7-26.3-5-38.1c-2-2.6-1.7-4.4,0.5-6.9c5.7-6.3,9.5-14.1,10.9-22.5
				c0.9-5.2-0.7-7.5-5.8-7.9c-10.1-0.6-20.2-0.8-30.3-1.1c-0.2,0-0.3,0-0.5,0c-5.9,0-9.4,3.7-11.9,8.5c-1.1,2.2-1.6,4.8-3,6.8
				c-4.9,7.1-7.7,15.9-17.7,18.5c-1.1,0.3-1.9,0.4-2.7,0.4c-2.2,0-3.1-1.1-3.8-3.7c-3.7-14.3-8.2-28.5-10.8-43
				c-3-17-11.5-30.2-24.6-40.6c-2.3-1.8-3.8-4.4-4.1-7.3c-0.8-4.2-2-8.5-4.5-12.2c-2.5-3.7-6.7-6.2-9.9-9.5
				c-3.2-3.3-6.9-6.9-5.3-12.1c1.3-3.3,3.1-6.5,5.3-9.3c5-7,10.6-13.7,15.4-20.9c2.5-3.6,3.6-8.2,5.8-12c1-1.4,2.6-2.2,4.3-2.2
				c0.1,0,0.2,0,0.3,0c0.9,0.2,1.8,0.3,2.6,0.3c3.4,0,5-1.8,4.5-6.1c-0.4-3.4-1.9-6.6-3-9.9c-1.9-6-5.4-12.1-2.1-18.2
				c6.6-12,7.6-24.6,5-37.7c-0.7-3.6-0.4-5.6,3-7.6c5.4-3.2,6.4-9,2-13c-6.3-5.8-12.9-11.7-20.2-16c-9.6-5.5-20.2-9.3-30.2-14
				C230.9,22,216.7,19.2,201.9,19.2L201.9,19.2z M180.9,130.4c-4.3,0-8-2.5-10.9-7.5c-2.7-4.4-5.2-9-7.3-13.8
				c-6.1-14.3-7.5-29-0.3-43.3c2.1-4.2,6.6-7.3,10.3-10.5c1.8-1.5,4.4-2.3,6.6-3.3c4.1-1.8,6-4.5,5.9-9.3
				c-0.2-11,3.3-14.3,14.6-14.6c1,0,2-0.1,3-0.1c15.8,0,30.5,4.4,44.9,10.6c7.7,3.3,15.3,7.1,22.5,11.4c3.6,2.1,6.3,5.8,9.3,8.8
				l-0.9,1.7c-1.6,0-3.2,0.1-4.8,0.1c-0.8,0-1.6,0-2.4-0.1c-0.7-0.1-1.4-0.1-2.1-0.1c-8,0-12.8,4.4-15.2,13.2
				c-1.6,5.9-2.1,12.1-2.8,18.2c-0.3,2.6-1,3.9-2.7,3.9c-0.6,0-1.4-0.2-2.4-0.5c-2.8-1-5.5-1.4-8.2-1.4c-5.3,0-10.4,1.8-15.4,4.7
				c-3.6,2-7.7,3.2-11.5,4.9c-5.7,2.4-8.3,7.4-9.2,13.1c-1.3,8-1.1,8-9,9.9c-1.6,0.4-3.2,1.1-4.6,1.9
				C185.7,129.7,183.2,130.4,180.9,130.4L180.9,130.4z M253,108.8c2.3,0,3.6-1.6,4.4-5.1c1.5-7.8,2.9-16.9,3.7-23.6
				c0.8-6.7,2.3-10.6,7.2-11.2c0.3,0,0.7-0.1,1-0.1c4.6,0,9.2,3.9,10.7,9.6c0.9,3.4,1.5,6.8,1.9,10.3c-0.3,9.9-2.7,19.5-7,28.4
				c-2.4,5-5.6,10.3,0.7,15.2c0.7,0.5,0.4,2.8,0.1,4.2c-4,15.9-12,29.7-22.8,41.9c-2.1,2.3-3,4.5-5.2,7.9c-1.1,1.7-2.1,2.5-3.1,2.5
				c-1,0-2-0.9-3-2.8c-1.1-2.9-1.9-5.8-2.5-8.8c-0.4-2.1,0.1-4.2-1.1-6.4c-1.2-2.2-3.5-3.9-5.4-5.9c-1.7,2.3-4.3,3.9-5,6.8
				c-0.7,2.9,0.5,6.2,0.7,9.3c0.2,1.4,0.4,3.3-0.3,4c-0.3,0.3-0.9,0.4-1.5,0.4c-0.8,0-1.7-0.2-2.4-0.4c-11.9-3.9-23.7-7.9-35.6-11.7
				c-3-0.9-4.6-2.6-4-5.8c1.5-8.8,2.9-17.7,4.9-26.5c1-4.3,6-7.1,10.7-7.1c1.6,0,3.2,0.3,4.6,1.1l1.3,0.8c3.9,2.4,7.1,3.5,9.7,3.5
				c5.3,0,8.3-4.7,9.9-13c0.3-1.6,0.6-3.5,0-4.9c-3-7,1-12.1,5.5-15.7c1.3-1,3.6-1.3,5.9-1.3c2.1,0,4.1,0.2,5.2,0.3
				c2.3,0.2,4.5,2,6.8,3C250.6,108.4,251.9,108.8,253,108.8L253,108.8z M106,269.1c-7.5,0-16.3-6.3-18.3-12.9c-0.5-1.6-1.4-3-2-4.6
				c-3.1-7-4.1-13.7-1-21.5c5.1-13.3,8.6-27.2,13.4-40.6c2.3-6,5.5-11.7,9.4-16.8c1.9-2.5,6.1-3.1,9.8-4.8
				c22.1,4.1,44.2,7.2,65.7,12.5c15.6,3.9,30.3,10.9,45.4,16.4c1.4,0.5,2.9,0.3,4.3,1.3c1.4,1,3.3,2.5,3.4,3.9
				c0.3,4.2,2.9,5.4,6.2,6c3.3,0.6,6.3,3.5,9.2,5.7c0.5,0.4,0.4,2.8-0.3,3.5c-0.4,0.4-1.2,0.6-1.9,0.6c-0.6,0-1.2-0.1-1.7-0.3
				c-3.8-1.2-7.4-3.3-11.2-4c-2.5-0.5-5-0.8-7.5-0.8c-6.5,0-12.9,1.7-18.6,5.1c-12,7.2-24.1,15-35.8,22.1
				c-11.7,7.1-23.1,14.7-35.4,20.3c-9.4,4.3-20,5.9-30.1,8.5C108,269,107,269.1,106,269.1L106,269.1z M107.3,277.2
				c6.7,0,13.3-1.9,19.8-4.2c22.9-8.3,44.4-20.2,63.7-35.2c10.2-7.7,21.1-13.9,33.9-16c1.3-0.2,2.6-0.4,4-0.4c2,0,4,0.3,5.7,1.1
				c11,5.1,22,10.1,32.4,16.4c14.2,8.6,20.9,22,24.3,38.5c4.1,20.1,11.1,39.6,16.7,59.3c2.1,7.2,3.6,14.5,5.7,21.6
				c1.2,3.4,2.7,6.7,4.6,9.8c6.4,10.8,9.4,22.6,11.4,34.8c0.2,1.3,1.3,3.3,2.5,3.4c0,0,0.1,0,0.1,0c1.2,0,2.9-1.2,3.6-2.4
				c5.3-8.8,0.1-16.9-1.9-25.2c-0.7-2.8-2.5-5.1-3.8-8.1c-1.1-2.5-0.2-4.5,2-4.5c0.4,0,0.9,0.1,1.4,0.2c6.6,1.9,13.2,4.4,19.9,6.3
				c0.6,0.2,1.4,0.3,2.2,0.3c1.5,0,3.2-0.3,4.2-1.1c2.2-1.7,3.7-4.1,4.2-6.8c0.3-2.7-1.6-4.1-4.3-4.1c-0.4,0-0.8,0-1.2,0.1
				c-1,0.1-1.9,0.2-2.7,0.2c-4.4,0-5.7-2.1-4.9-8.5c1-7.6,2.7-15.8,11.7-18.6c0.5-0.2,1.1-0.3,1.8-0.3c1.4,0,3,0.4,3.7,1.2
				c3.2,3.6,5.9,7.5,5.4,12.9c-1.2,11.3-2.2,22.6-7.3,33.2c-1.6,3.5-0.8,8.2-1.2,12.3c-0.9,8.4-1.5,16.8-3.1,25.1
				c-0.6,3.2-3.5,6.1-5.7,8.8c-6.6,7.7-13.1,15.4-20.2,22.5c-2.3,2.4-6.3,3.5-9.7,4c-3.4,0.5-6.9,0.8-10.3,0.8c-9.9,0-19.6-2-28.9-5
				c-8.2-2.7-14.3-9.5-17.2-18.1c-1.6-4.8-3.9-9.3-6.9-13.4c-5.8-8.2-10-17.4-15.1-26.2c-8.7-15.1-17.9-29.9-26-45.3
				c-2.6-4.9-5.4-9-9.9-11.8c-4.5-2.8-4.6-7-3.2-11c3.7-10.6,7.9-21.1,11.7-31.7c0.6-1.7,0-3.8,0-5.8c-2.3,0.2-4.6,0.2-6.9,0.6
				c-0.8,0.3-1.4,0.9-1.7,1.7c-5.5,14.2-15.3,27.3-12.7,43.8c0.5,2.6,1.8,5,3.6,7c9.6,10.1,18.2,20.7,24.6,33.2
				c7.9,15.3,17,30,25.3,45.1c3.3,6.1,5.6,12.7,8.8,18.8c1.6,3.1,4.5,5.4,6.4,8.3c5.7,9.1,14.3,14.5,23.4,19.4
				c5.2,2.8,5,3.7,1.6,8.6c-1.2,1.6-1.3,4.4-1.1,6.6c1,14.5,3,27.4,3,43.3c0,15.9-1.7,31.8-2.6,47.7c-0.6,8.8-1.1,17.6-1.2,26.4
				c-0.1,3.6-1.3,5.6-4.8,6.5l-23.8,7c0-9.3,0.1-16.9,0-24.5l-0.6-67.4c-0.1-2.6,1.3-4.8-3.7-5.5c-0.8-0.1-1.5-0.2-2.1-0.2
				c-3.3,0-4.4,1.7-4.1,6.3c0.6,13.3,1.7,26.6,1.6,39.9c0,16.2-1.1,32.3-1.5,48.4c-0.1,3.6-1.5,5.2-5,5.3
				c-11.7,0.4-24.5,1.3-35.3,1.3c-0.5,0-1.1,0-1.6,0c-11.1-0.1-22.4,0-33.3-1.7c-16.6-2.5-33-6-49.2-10.4
				c-8.9-2.5-16.1-6.6-25.2-12.5c-9.1-5.9-12.8-15.5-12.5-26.2c0.4-19.5,1.5-39,1.6-58.5c0.1-15.3-1.2-30.6-1.4-45.9
				c-0.1-6.8,1-13.7,1.6-20.6c0.1-1.6,0.7-3.3,0.5-4.9c-3-19-5.2-38.3-9.5-57c-2.8-12.6-6.5-25.1-4.8-37.8
				c2.1-15.9,6.2-31.6,9.7-47.3c1-4.4,2.5-8.6,4.6-12.6c0.6-1.4,3.1-2.9,4.4-2.9c0.1,0,0.2,0,0.3,0
				C100.4,276.8,103.9,277.2,107.3,277.2L107.3,277.2z M352.4,322.5c-2.6,0-5.4-0.6-8.4-1.7c-4.6-1.8-4.9-4.5-3.4-7.5
				c2.3-4.7,5.3-10.2,8.8-12.9c3.5-2.7,9.1-2.6,13.8-3.8c0.1,0.4,0.1,0.8,0.2,1.2l9,0c3.8,0,5.1,2.6,3.3,5.1
				c-3.7,5.5-8,10.7-12.8,15.3C359.7,321.2,356.2,322.5,352.4,322.5L352.4,322.5z M325.4,356.1c-3.7,0-4.9-1.7-4.7-5.6h0
				c2.4-8.1,4.8-16.2,7.5-24.1c0.2-0.5,1.9-1.1,3.1-1.1c0.4,0,0.7,0.1,1,0.2c4,2,9.1,5.1,11.6,6.6s2.4,3.2,1.5,5.8
				c-2,5.2-3.5,10.5-4.5,16c-0.6,3.2-0.8,4.5-2.3,4.5c-0.8,0-1.9-0.3-3.6-0.9c-2.8-0.9-5.7-1.4-8.7-1.4
				C326,356.1,325.7,356.1,325.4,356.1L325.4,356.1z"/>
		</g>
		<g>
			<path d="M771.7,173.6c-1.9,0-3.3-3-3.7-5.8c-0.2-1.2-0.3-2.5-0.5-3.7c-0.6-5.3-1.3-10.7-2.3-16c-0.6-3.2-1.6-6.3-2.6-9.5
				c-0.3-1.1-0.7-2.1-1-3.2c1.4-0.7,3.1-1.6,4.8-2.4c1.5-0.7,2.7-1,3.6-1c1.3,0,2.4,0.8,3.5,4.7c0.6,2.1,1.4,4.5,2.3,7.1
				c1.4,4.2,3,9.1,3.9,13.3c1,4,0.8,8.1-0.5,12c-0.8,2.1-4.6,4.3-7.2,4.6C771.9,173.6,771.8,173.6,771.7,173.6z"/>
			<path class="st0" d="M770,132.9L770,132.9c0.6,0,1.4,0,2.5,3.9c0.6,2.1,1.4,4.6,2.3,7.2c1.4,4.2,3,9,3.9,13.2
				c0.9,3.8,0.7,7.7-0.4,11.3c-0.7,1.6-4,3.7-6.4,4c-0.1,0-0.1,0-0.2,0c-1.1,0-2.4-2.3-2.7-5c-0.2-1.2-0.3-2.5-0.5-3.7
				c-0.6-5.3-1.3-10.8-2.3-16.1c-0.6-3.3-1.6-6.4-2.7-9.6c-0.3-0.8-0.5-1.6-0.8-2.4c1.2-0.6,2.6-1.3,4-2
				C768.2,133.2,769.3,132.9,770,132.9 M770,130.9c-1.1,0-2.3,0.4-4,1.1c-2.1,0.9-4.1,2-5.6,2.8c1.5,4.9,3.1,9,3.9,13.4
				c1.2,6.5,1.9,13.2,2.7,19.7c0.4,3.2,2,6.7,4.7,6.7c0.1,0,0.3,0,0.4,0c2.9-0.4,7-2.8,8-5.3c1.3-4,1.5-8.4,0.5-12.5
				c-1.5-6.9-4.7-15.1-6.2-20.5C773.4,132.6,772.2,130.9,770,130.9L770,130.9z"/>
		</g>
	</g>
</g>
</svg>
