<?xml version="1.0" encoding="utf-8"?>
<!-- Generator: Adobe Illustrator 25.2.3, SVG Export Plug-In . SVG Version: 6.00 Build 0)  -->
<svg version="1.1" id="레이어_1" xmlns="http://www.w3.org/2000/svg" xmlns:xlink="http://www.w3.org/1999/xlink" x="0px"
	 y="0px" viewBox="0 0 1024 640" style="enable-background:new 0 0 1024 640;" xml:space="preserve">
<g>
	<path d="M927.7,640c-0.4-5.3-0.8-10.6-1-15.8c-0.3-6.8-0.6-13.6-0.6-20.3c0-9.1-0.9-18.2-2.5-27.2c-0.8-4.7-1.2-9.5-1.7-14.3
		c-0.3-3.3-0.5-6.6-0.7-9.9c-0.1-1.3-0.2-2.7-0.5-3.9c-1.7-6.5-1.9-13.3-2.4-19.9c-0.6-8.9-1-17.8-1.5-26.8
		c-0.2-3.7-0.5-7.4-0.7-11.4c-1.3,0.1-2.6,0-3.8,0.2c-5.8,0.9-11.7,1.2-17.6,1.3c-5.1,0.1-10.2,0.7-15.3,1.2
		c-9.9,0.9-19.8,1.9-29.6,2.8c-11.6,1.1-23.2,2.1-34.8,3.3c-11.3,1.1-22.6,0.7-34,0.1c-13.1-0.7-26.3-1.4-39.4-1.8
		c-12.7-0.3-25.3-0.1-38-0.1c-0.8,0-1.7,0-2.5-0.1c-1.5-0.2-2.5-1.3-2.5-2.6c0-1.2,0.9-2.2,2.3-2.5c0.5-0.1,1-0.1,1.5-0.1
		c18.5,0.2,36.9,0.2,55.4,0.5c9.1,0.2,18.2,1.3,27.2,1.6c10.6,0.5,21.2,0.6,31.7-0.5c9.8-1.1,19.6-1.9,29.4-2.8
		c11.7-1.1,23.4-2.3,35.1-3.3c6.1-0.5,12.2-0.7,18.3-1.2c5.4-0.4,10.7-0.9,16.3-1.4c7.3-41.4,14.6-82.7,21.9-123.9
		c-2-0.6-217.5,1.7-225.8,2.3c-0.2,0.6-0.4,1.3-0.6,2c-6.8,28.8-13.5,57.7-20.2,86.5c-1,4.3-3.3,8.1-5,12.1
		c-0.5,1.1-0.9,2.3-0.9,3.5c-0.6,32.4-1.2,64.9-1.7,97.3c-0.1,5.2-0.3,10.4-0.3,15.6c0,3.3,0.3,6.6,0.5,10.1c0.8,0.1,1.4,0.2,2,0.1
		c16.6-0.6,33,1.7,49.4,4.3c9.9,1.6,19.8,2.7,29.9,2.7c9.5-0.1,19-0.1,28.6,0c7.7,0.1,15.2-1,22.7-2.1c7.3-1.1,14.6-2,21.9-2.9
		c5.7-0.7,11.3-1.6,17-2.1c3.7-0.3,7.4-0.2,11.1-0.4c4-0.1,7.9-0.3,11.9-0.4c3,0,6-0.1,8.9,0.2c4.8,0.4,9.6,0,14.4-0.6
		c4.3-0.5,8.2,0.4,12.1,2c0.6,0.2,1.2,0.7,1.6,1.1c0.8,0.9,0.9,2.3,0.2,3.2c-0.7,1.1-1.7,1.3-2.8,0.9c-1.2-0.4-2.3-0.8-3.5-1.3
		c-2-0.8-4-1-6.1-0.8c-3,0.3-5.9,0.7-8.9,0.8c-3,0.1-6.1-0.1-9.2-0.1c-2.4,0-4.8,0-7.2,0.1c-3.1,0.1-6.3,0.6-9.4,0.3
		c-7.3-0.7-14.5,0.2-21.8,1.1c-9.5,1.2-19,2.6-28.5,3.8c-5.9,0.8-11.8,1.5-17.7,2.2c-0.7,0.1-1.3,0.1-2,0.1
		c-14.9-0.1-29.8,0.1-44.7-0.4c-7-0.2-14-1.6-20.9-2.6c-16-2.3-32.1-4.7-48.7-3.8c0,0.6-0.2,1.3-0.2,2c0,6.8-0.1,13.6,0.1,20.4
		c0.2,6.7-1.2,13.1-3.6,19.4c-0.3,0.7-0.5,1.4-0.7,2.1c-2,0-4,0-6,0c2.1-4.4,3.7-9,4.5-13.9c0.2-1.4,0.4-2.8,0.4-4.2
		c0-8.9,0-17.9,0-26.8c0-1.1,0-2.2-0.1-3.2c-0.6-6.7-0.6-13.4-0.5-20.1c0.5-24.3,0.9-48.7,1.3-73c0.1-7,0.3-13.9,0.4-20.9
		c0-0.8,0-1.6-0.4-2.6c-0.4,0.6-0.9,1.3-1.2,1.9c-1.6,2.7-3.2,5.4-4.7,8.2c-0.6,1-0.9,2.1-1.4,3.1c-0.4,0.9-0.8,1.8-1.4,2.6
		c-10.2,14.6-20.4,29.1-30.7,43.7c-0.7,1.1-1.8,2-2.8,2.7c-1.8,1.3-3.8,2.3-5.7,3.5c-2.1,1.3-4.4,1.7-6.9,1.6c-1.7-0.1-3-0.7-4-2.1
		c-0.6-1-1.2-2-1.7-3c-1-1.9-1.9-3.8-3.1-5.6c-4.9-7.4-9.9-14.7-14.7-22.1c-3.1-4.8-6.1-9.6-9-14.5c-0.9-1.5-1.6-3.3-2.3-4.9
		c-0.8-1.9-1.3-3.9-2.2-5.8c-2.3-5.1-3.1-10.5-3.5-16.1c-0.9-14.5-2-29.1-3.1-43.6c-0.2-2.1-0.5-4.3-0.4-6.4
		c0.2-5.2-0.6-10.2-2-15.2c-1.7-6.4-3.1-12.9-4.7-19.3c-1-4-2.4-7.9-4.6-11.5c-2.9-4.7-2.9-9.9-2.2-14.9c0.7-5.5,3.7-10,8.4-13.3
		c0.7-0.5,1.5-1,2.4-1.7c-2.2-3.5-4.4-6.9-6.5-10.4c-1.7-2.8-3.3-5.7-4.8-8.7c-1.8-3.7-2-7.6-1.1-11.6c0.2-0.6,0.1-1.3,0.1-1.9
		c-0.1-2.1,0.3-2.8,2.4-3.4c3-0.8,6-1.4,8.9-2.1c6-1.4,12.1-2.8,18.1-4.2c4.5-1,8.7,0.5,11.2,4.4c2,3.2,3.8,6.6,5.5,10
		c6.7,13.8,13.4,27.7,20.1,41.6c0.4,0.8,0.8,1.6,1.5,2.8c0.4-1.1,0.7-1.8,0.9-2.6c1.6-6,3.4-11.9,5.8-17.7c1.6-3.9,2.4-8.1,2.6-12.3
		c0.3-4.8,0.9-9.5,2.1-14.2c0.5-2.2,0.6-4.4,1.2-6.6c2.3-9.6,5.8-18.8,11-27.3c2.1-3.4,4.4-6.4,7.8-8.6c3.5-2.3,7-4.7,10.5-7
		c1.6-1,3.5-1.4,5.4-1.5c1.5-0.1,3.1-0.5,4.5-1.1c8.8-4.3,18-7.6,27.1-11.1c9.2-3.6,18.2-7.6,27.2-11.5c1.9-0.8,3.4-2.3,5.1-3.4
		c1.2-0.8,2.6-1.5,3.7-2.4c6-4.7,12.4-8.8,18.7-13c4.5-3,8.7-6.6,13-10c0.9-0.7,1.2-1.4,1-2.5c-0.1-1.4,0-2.8,0.3-4.2
		c0.4-2.3-0.4-4.3-1.7-6c-1.5-1.8-3.1-3.8-5-5.2c-5.5-4-9.6-9.1-13.4-14.8c-4.9-7.4-9.6-14.9-13.2-23c-3.5-8-6-16.5-7.5-25.1
		c-0.9-5.3-1.6-10.6-1.6-16c0-7.2,1-14.2,2.4-21.2c1.7-8,5.6-15.2,11.5-21.1c6.7-6.7,13.9-12.8,22.1-17.5c5.4-3.1,11.1-5.1,17.1-6.6
		c6.5-1.7,13-3.4,19.5-4.8c2.7-0.6,5.6-0.8,8.4-0.8c7.9-0.1,15.7-0.1,23.6,0.1c4.4,0.2,8.6,1.6,12.3,4.2c2.2,1.5,4.5,2.8,6.7,4.3
		c6.6,4.4,12,10.1,16.7,16.5c2.9,4,3.9,8.9,4.9,13.7c1.7,9,1.3,17.8-0.6,26.8c-3.2,15.3-7.5,30.3-11.5,45.4
		c-1.7,6.3-2.5,12.8-3.7,19.2c-0.7,3.5-1.4,7-2.1,10.7c0.4,0.2,1,0.5,1.6,0.6c5,1,9.6,2.9,14.1,5.4c1.6,0.9,3.2,1.7,5,2.3
		c2.2,0.7,3.9,2,5.6,3.5c9.5,8.8,19.1,17.7,28.6,26.5c1.6,1.4,2.7,3,3.6,5c4.3,9.4,8.7,18.8,13.2,28.1c1.3,2.7,2.2,5.4,1.8,8.3
		c-0.3,2,0.5,3.2,2.3,4.4c4.8,3.1,8.8,7,10.7,12.6c0.2,0.6,0.7,1.3,1.3,1.7c1.5,1,2.6,2.3,3.4,3.8c2.3,4.1,3.8,8.5,4.7,13
		c1.9,10.1,4.9,19.9,8.6,29.5c1.3,3.4,2.3,6.9,2.5,10.6c0.1,1.1,0.2,2.2,0.5,3.2c1.7,6,1.8,12.1,1.8,18.2c0.1,5.6,0.3,11.3-0.1,16.9
		c-0.6,9.8-0.7,19.5-0.7,29.3c0.1,29,0.2,58.1,0.3,87.1c0,3.3-0.2,6.4-1.6,9.6c-3.1,7.2-5.6,14.7-8.3,22.1
		c-3.7,10.1-7.4,20.2-11.1,30.3c-0.6,1.7-1.5,3.1-2.9,4.2c-1.6,1.3-3.2,2.6-4.7,4c-5.1,4.5-11,7.5-17.9,9.1c0.2,1.8,0.2,3.8,0.5,5.7
		c1.6,10.3,1.9,20.7,2.4,31.2c0.6,11,1.6,22,2.4,32.9C931.3,640,929.5,640,927.7,640z M750.2,236.8c0.3,0.5,0.4,0.7,0.5,0.9
		c9,11.7,18,23.3,27,35c0.4,0.6,1.1,1,1.6,1.5c3.9,3.4,7.9,6.7,11.7,10.3c3.1,3,6.3,5.8,10,8.1c3.9,2.4,7.7,4.8,11.5,7.4
		c3.5,2.4,7,4.6,10.9,6.4c2.3,1,4.5,2.1,6.6,3.4c3.7,2.4,7.8,4,11.9,5.6c4.2,1.7,8.6,1.6,12.9,1.9c6.7,0.6,13.4,0.4,20.1,0.4
		c5.6,0,11.2-0.5,16.7-1.9c10.5-2.5,19.1-8.1,26.7-15.5c2.9-2.8,5.4-6.1,7.9-9.3c2.6-3.4,4.6-7.1,5.2-11.4c0.7-4.6,1.9-9.2,1.5-14
		c0-0.5,0.3-0.9,0.4-1.4c0.6-2.9,0.9-5.9-0.4-8.7c-4.6-9.7-9.1-19.5-13.7-29.2c-0.6-1.2-1.4-2.3-2.3-3.2c-9.7-9-19.4-18-29.2-27
		c-0.5-0.5-1.1-1.1-1.7-1.4c-4.5-2.1-8.9-4.3-13.5-6.2c-3.7-1.5-7.7-2.5-11.8-2.6c-7.5-0.2-14.6,1.5-21.7,3.7
		c-11.3,3.6-22.7,7.3-34.1,10.6c-7.8,2.2-14.8,5.7-21.1,10.7c-7.2,5.7-14.5,11.3-22,16.6C757.8,230.4,754.1,233.6,750.2,236.8z
		 M677.4,267.6c-3.5,1.6-11.1,6.8-13.5,9.3c-0.4,0.4-0.8,0.9-1.1,1.3c-6.1,9-10.2,18.9-12.5,29.5c-0.8,3.6-1.5,7.3-2.1,10.9
		c-0.2,1.3-0.5,2.6-0.5,3.9c-0.2,7.4-2,14.5-4.5,21.5c-3.9,10.8-7.2,21.8-9.6,33.1c-2,9.5-4.6,19-7.3,28.3
		c-4.4,15.5-6.9,31.3-6.7,47.5c0,0.7,0,1.5-0.2,2.2c-0.3,1.4-1.3,2.3-2.5,2.3c-1.3,0-2.4-1-2.6-2.5c-0.1-0.7,0-1.3-0.1-2
		c-0.1-14,1.6-27.7,5-41.3c0.2-0.9,0.4-1.9,0.6-3c-6.7,1.5-13.1,2.9-19.5,4.5c-4.8,1.2-9.7,1.8-14.8,1.1c-0.1,0.7-0.2,1.3-0.1,2
		c0.2,3.1,0.3,6.3,0.5,9.4c1,13.6,2.1,27.2,2.9,40.9c0.3,6.2,1.3,12.1,3.9,17.8c1.1,2.6,1.9,5.3,3.2,7.8c2.3,4.2,4.8,8.3,7.4,12.3
		c4.7,7.1,9.5,14.1,14.2,21.3c2.2,3.3,4.8,6.3,6,10.2c0.5,1.7,1.4,2,3.1,1.3c1.7-0.7,3.2-1.7,4.8-2.5c2.2-1.1,3.8-2.8,5.2-4.8
		c1.9-3,4.1-5.8,6.1-8.8c8.8-13.2,19.1-25.4,26.5-39.5c1-1.8,2.1-3.6,3.1-5.4c2.2-3.7,4.4-7.4,6.6-11.1c2.8-4.5,5.3-9.2,6.7-14.3
		c1-3.8,1.8-7.6,2.7-11.4c6.1-26.3,12.2-52.5,18.4-78.8c0.4-1.9,0.4-3.5-0.2-5.3c-9.3-28-18.6-56-27.9-84.1
		C678.3,270.2,677.9,269,677.4,267.6z M938.2,269.3c-0.2,1.8-0.5,3.1-0.6,4.4c-0.6,6.1-1.7,12-5,17.2c-3.3,5.3-7.6,9.8-11.8,14.3
		c-4.9,5.2-11.1,8.6-17.3,11.9c-6.3,3.3-13.2,4.9-20.3,5.4c-11.4,0.8-22.8,0.7-34.2-0.4c-7.5-0.7-14-3.6-20.4-7.1
		c-2-1.1-4-2.3-6.1-3.3c-4.8-2.2-9.4-4.8-13.7-8c-1.6-1.2-3.4-2.4-5.2-3.4c-6.5-3.8-12.6-8.1-17.9-13.7c-2.7-2.9-6-5.2-9-7.8
		c-1.3-1.1-2.7-2.2-3.7-3.6c-8.5-10.8-16.8-21.7-25.2-32.6c-0.7-0.9-1.4-1.8-2.1-2.7c-2.2,1.1-4.2,2.3-6.3,3.2
		c-6.5,2.9-13,5.8-19.6,8.5c-6.8,2.8-13.8,5.2-20.6,7.9c-5.6,2.3-11,4.8-16.6,7.3c10.1,30.5,20.2,60.8,30.3,91.3
		c75.2-0.9,150.3-1.8,225.4-2.6c0.1-0.2,0.2-0.5,0.2-0.8c1.5-8.3,2.9-16.6,4.4-24.9c1.5-7.9,2.2-15.9,4.9-23.5
		c0.3-0.8,0.3-1.8,0.5-2.7c1-5.2,0.7-10.4,0.4-15.6c-0.2-3.7-1.3-7.3-2.9-10.7C944.4,273.9,941.6,271.7,938.2,269.3z M859.7,180.9
		c0.5-1.6,1.1-3.1,1.5-4.7c0.6-2.7,1-5.4,1.5-8c1.2-6.2,2-12.4,3.6-18.5c3.9-14.6,8-29.2,11.2-44c1.9-9.1,2.3-18.1,0.5-27.3
		c-1.2-6.3-4.1-11.5-8.6-16.2c-4.7-4.9-10-8.9-15.6-12.6c-4.8-3.1-9.8-4.6-15.4-4.6c-6.1,0-12.3,0-18.4,0.1c-3,0.1-6,0.3-8.9,1
		c-8.1,2-16.2,4.1-24.2,6.3c-2.6,0.7-5.1,1.9-7.6,3.1c-9.6,4.9-17.6,11.8-24.9,19.5c-3.4,3.6-5.6,7.9-7.3,12.6
		c-1.6,4.1-1.9,8.4-2.6,12.6c-1,6.5-1.4,13-0.6,19.5c1.9,15.5,6.4,30.2,14.7,43.6c3.1,5.1,6.6,9.9,9.7,15c1.9,3.1,4.2,5.7,7,7.9
		c2.5,2,4.9,4.3,6.9,6.7c2.5,2.9,3.4,6.4,2.2,10.2c-0.1,0.3-0.1,0.6-0.2,1.3c1.4-0.9,2.4-1.7,3.5-2.4c4.6-3.1,9.6-5.5,15-7.1
		c10-2.9,20-6,30-8.8c6-1.7,11.9-3.4,18-4.8C853.6,180.9,856.5,181.1,859.7,180.9z M927.4,564.5c2,0.2,3.4-0.5,4.8-1.1
		c5.1-2.1,9.4-5.5,13.5-9.1c1.5-1.3,2.6-2.8,3.3-4.8c6.5-17.8,13-35.6,19.5-53.4c0.3-0.8,0.4-1.8,0.4-2.6c0-16,0-32,0-47.9
		c0-0.7-0.1-1.4-0.2-2.3c-14,2.3-27.8,4.6-41.6,6.9c-0.2,0.8-0.4,1.4-0.5,2.1c-1.3,7.5-2.5,15-4,22.5c-1.6,8-1.5,16.1-1.1,24.2
		c0.4,6.6,0.6,13.2,1.1,19.8c0.5,7.5,0.9,15,1.9,22.5c0.8,6.1,1.9,12.1,2.2,18.2C927,561.1,927.2,562.8,927.4,564.5z M631.1,364.5
		c-1.9-0.5-2.6-2-3.3-3.4c-7-14.5-14-29.1-21-43.6c-1.6-3.2-3.2-6.3-5-9.4c-1.5-2.5-3.5-3.2-6.3-2.5c-7.5,1.7-15,3.5-22.5,5.2
		c-1.6,0.4-2.4,1.1-2.8,2.7c-0.9,3.4-0.1,6.6,1.5,9.6c3.6,6.7,7.4,13.3,12.2,19.2c0.3,0.4,0.4,0.9,0.6,1.3c0.3,0.7,0.6,1.5,1,2.2
		c9.3,15,18.6,29.9,28,44.9c2.2,3.5,4.6,3.8,7.7,0.9c1.1-1.1,2.5-1.9,3.8-2.9c0.2,0.1,0.4,0.2,0.6,0.3
		C627.3,380.9,629.2,372.8,631.1,364.5z M969.3,367.1c-1.1,1.2-2.1,2-2.8,3c-1.8,2.3-4,3.9-6.4,5.4c-2.1,1.3-4.1,2.8-6.2,4.2
		c-4.6,3.1-9.3,6-15.4,6c-3.5,19.6-6.9,39.1-10.4,59c13.8-2.3,27.3-4.5,40.9-6.8c0-4.1,0-7.9,0-11.7c-0.1-13.1-0.1-26.1-0.1-39.2
		c0-2.8,0.3-5.6,0.4-8.4C969.3,375,969.3,371.4,969.3,367.1z M623.1,397.4c-0.1-0.1-0.2-0.3-0.4-0.4c-2,1.6-4.4,2.2-6.8,1.6
		c-2.8-0.7-5.1-2-6.7-4.7c-9.2-14.8-18.4-29.6-27.7-44.4c-0.4-0.7-0.9-1.3-1.3-1.9c-3.5,1.6-6.5,4.4-7.4,7.5
		c-1.6,5.2-2.1,10.3,0.8,15.3c2.7,4.8,4.4,9.9,5.6,15.3c1.8,8.1,4,16.2,5.9,24.2c1.7-0.1,3.3-0.2,4.8-0.3c1-0.1,2,0,3-0.2
		c7.9-1.7,15.8-3.4,23.7-5.2c1.5-0.4,3-0.9,4.7,0.2C621.9,401.8,622.5,399.6,623.1,397.4z M954.9,292.4c-0.3,0.4-0.4,0.5-0.4,0.6
		c0,0.4-0.1,0.8,0,1.2c0.1,5.9-0.5,11.7-2.6,17.3c-0.5,1.2-0.7,2.6-0.9,3.9c-3.4,19.4-6.9,38.8-10.3,58.1c-0.4,2.2-0.7,4.3-1.1,6.9
		c1.1-0.2,2-0.2,2.7-0.5c2.2-1,4.4-1.9,6.5-3.1c2.4-1.4,4.6-3.3,7-4.7c4.1-2.3,7.1-5.6,10.1-9c1.1-1.2,2.2-2.4,3.8-4
		c-0.2-4.1-0.3-8.8-0.8-13.4c-0.3-3.2-1.3-6.3-1.7-9.5c-0.3-3-1.2-5.8-2.1-8.6c-1.6-4.5-3.4-9-4.7-13.6c-1.6-5.7-2.8-11.6-4.3-17.3
		C955.7,295.2,955.3,293.9,954.9,292.4z"/>
	<path d="M69.6,640c1.1-4.2,1.2-8.5,1.3-12.8c0.1-8.3-0.9-16.5-1.4-24.8c-0.3-4.4-0.2-8.8-0.2-13.2c0-1.3-0.1-2.4-1-3.4
		c-0.6-0.7-1-1.5-1.3-2.4c-1.1-3-2.3-6.1-3.1-9.2c-0.5-2.1-0.7-4.4-0.7-6.6c0.1-40.1,0.4-80.1,0.4-120.2c0-8.3-0.9-16.5-1.5-24.8
		c-0.6-8.4-1.2-16.8-1.9-25.2c-0.4-4-1.1-8-1.5-12.1c-0.8-8.3-1.6-16.6-3.5-24.8c-0.9-4.2-2.2-8.3-3.1-12.5c-0.6-2.9-1-5.9-1-8.8
		c0.1-5,0.6-9.9,0.8-14.9c0.3-6.8,2.7-13.1,4.5-19.5c4.3-15.9,8.7-31.7,13.1-47.6c0.2-0.7,0.3-1.4,0.5-2.2
		c-5.4-4.3-7.4-10.6-10.2-16.5c-0.7-1.5-1.3-3-2-4.5c-1.6-3.1-2.5-6.3-2.2-10c0.7-8.4,1.9-16.8,4.7-24.8c3.5-10.1,7.4-20,12.2-29.6
		c3.3-6.7,8-12.3,13.4-17.4c0.8-0.7,1.6-1.4,2.4-2.2c4.2-4.4,9.6-6.5,15.6-6.6c7.6-0.2,15.2-0.5,22.8,0.6c3.9,0.6,7.9,0.7,11.8,1.2
		c7.2,1,14.4,2.2,21.4,4.3c0.3,0.1,0.6,0.1,1.1,0.2c0.7-9.4,3.9-18.1,6.7-27.1c-0.7-0.1-1.3-0.3-1.8-0.3c-2.8,0-5.3-1-7.2-2.9
		c-2.1-2.1-4.3-4.2-6-6.6c-4.1-5.8-7.9-11.8-11.8-17.8c-0.5-0.8-1-1.5-1.6-2.2c-5.1-5.6-7.5-12.5-8.1-19.9c-0.5-5.7-0.8-11.4,0.7-17
		c2-7.7,6-14.3,11.6-19.9c1-1,2.1-1.9,3.3-2.6c3.6-2.3,7.3-4.5,11-6.7c5.1-3.1,8.7-7.3,10-13.3c0.5-2.1,1-4.2,1.5-6.3
		c0.7-3,2.6-4.9,5.5-5.8c1.5-0.5,3-0.9,4.6-1c18.6-1.4,36.7,1.1,54,8.1c3.2,1.3,6.3,3,9.2,4.8c6.2,3.7,12.1,7.8,18.4,11.3
		c4.1,2.3,8.1,4.8,11.8,7.7c2.4,1.8,4.3,3.9,5.2,6.8c1.2,3.7,0.3,5.4-3.3,6.6c-0.6,0.2-1.2,0.4-2,0.7c0.5,7.4,0.9,14.7,1.6,22
		c0.6,6.7,0.9,13.4,0.8,20.1c0,2.3-0.9,4.3-1.8,6.4c-2.1,4.6-4.2,9.3-6.4,14.1c0.9,0.8,1.6,1.4,2.4,2c5,4.1,6.3,9.6,5.4,15.6
		c-0.2,1.1-1,2.3-1.9,3.1c-2.7,2.6-5.9,4.5-9.3,6.1c-1.4,0.6-2,1.4-2.1,2.9c-0.6,8.1-3.1,15.7-5.6,23.3c-1.5,4.6-4.6,7.8-9,9.7
		c-2.2,0.9-4.5,1.7-6.8,2.4c-3.4,1.1-6.8,2.2-9.3,5.2c0.3,0.4,0.6,0.8,1,1.2c1.6,1.6,3.2,3.1,4.8,4.7c2,2.1,4.3,3.9,6.9,5.2
		c6.1,3,8.8,8,8.9,14.6c0,1.2,0.1,2.5,0.1,3.7c0,1.6,0.2,3,1,4.5c0.7,1.3,0.4,3.1,0.6,5.2c2.2,1.5,4.9,3.3,7.4,5.3
		c1.7,1.4,3.4,2.9,4.8,4.6c3.8,4.7,7.5,9.5,11.2,14.2c1.2,1.5,1.9,3,2.5,4.8c3.1,9.9,6.2,19.7,9.2,29.6c0.6,1.8,0.8,3.7,1,5.6
		c0.5,4.9,1.5,9.6,4,14c4.7,8.1,7.9,16.7,10.6,25.6c0.7,2.4,1.6,4.7,2.5,7.5c0.7-1.2,1.1-1.9,1.5-2.6c7.4-14,14.7-28,22.1-42
		c0.4-0.9,0.7-1.8,0.9-2.8c0.4-1.7,1-2.4,2.8-2.7c0.2,0,0.5,0,0.7,0c8,0.1,16,0.2,24.1,0.3c3.6,0.1,7.3,0.3,10.9,0.6
		c1.8,0.1,3.6,0.5,5.4,0.9c3.3,0.7,4.2,2.8,2.4,5.7c-5.2,8.5-10.4,16.9-15.6,25.4c-0.5,0.8-0.9,1.5-1.6,2.6c3.1,0.1,4.2,2.2,4.8,4.4
		c1.3,5,2.5,10.1,3.6,15.2c1.3,6.3,1.2,12.7,0.8,19.1c-0.2,3.9-1.1,7.9-2.2,11.7c-1.6,5.7-2.3,11.5-3.1,17.3
		c-1,7.6-1.5,15.3-3.4,22.8c-1.6,6.3-3.9,12-8.4,16.9c-2.7,3-4.8,6.5-7.5,9.6c-3.1,3.7-6.5,7.3-9.8,10.9c-1.1,1.2-2.2,2.3-3.1,3.5
		c-2.1,2.7-4.8,4.9-7.9,6.3c-1.7,0.8-3.8,1.2-5.7,1.4c-3.2,0.4-6.4,0.4-9.7,0.6c-3.1,0.2-6.3,0.6-9.4,0.8c-2.1,0.1-4.3,0.2-6.4,0.2
		c-1,0-2,0-2.9,0c-1.6,7.1-3.1,13.9-4.6,20.8c-0.6,3,0,6,0.5,8.9c1.2,6.5,1.8,13.1,1.8,19.7c0,9.9,0.1,19.7,0,29.6
		c-0.1,8.1-0.5,16.2-0.8,24.3c-0.3,12.9-0.6,25.8-0.8,38.7c0,2.4,0.7,4.8-0.3,7.2c-0.2,11.7-0.4,23.3-0.7,35c-1.8,0-3.6,0-5.5,0
		c0.3-11.6,0.6-23.1,0.9-34.8c-0.7,0-1.1,0-1.5,0.1c-4.9,1.6-9.9,3.2-14.8,4.9c-7.9,2.8-15.6,6-23.6,8.3c-9.5,2.7-19.4,3.1-29.2,3.4
		c-8,0.2-16,0.1-24.1,0c-1.1,0-2.1-0.1-3.2-0.3c-17.5-2.4-35-4.9-52.6-7.1c-6.2-0.8-12.2-2.2-18-4.5c-3.4-1.3-6.8-2.5-10.2-3.9
		c-8.4-3.4-17.1-6.3-24.2-12.3c-1.4-1.2-3-2.2-5.1-2.5c-0.2,5.8,0,11.5,0.6,17.2c1.1,10.5,1.7,20.9-0.1,31.4
		C73.2,640,71.4,640,69.6,640z M239.1,613.8c-0.1-1.8-0.3-3.2-0.3-4.6c0.3-31.7,0.7-63.4,1-95.1c0-0.7,0-1.3,0.2-2
		c0.3-1.2,1.4-2,2.6-1.9c1.2,0.1,2,0.7,2.3,1.9c0.2,0.8,0.2,1.6,0.2,2.5c-0.4,31.9-0.7,63.9-1.1,95.8c0,0.5,0,1.1,0.1,1.8
		c0.8-0.2,1.3-0.3,1.9-0.5c5.3-2,10.7-4,16-6c3.7-1.4,7.5-2.7,11.2-4c2.6-0.9,5.2-1.5,7.9-2.3c0.1-1,0.1-1.9,0.1-2.8
		c0.2-7.3,0.3-14.6,0.5-21.8c0.4-13.1,1-26.1,1.2-39.2c0.2-11,0.2-22-0.1-33c-0.1-5.2-1-10.4-1.6-15.5c-0.5-3.9-1.4-7.8-0.5-11.8
		c0.6-2.5,1.1-5,1.7-7.5c0.8-3.9,1.7-7.7,2.5-11.7c-1.4-0.3-2.6-0.5-3.8-0.8c-5.4-1-10.4-2.8-14.6-6.5c-2-1.8-3.8-3.7-5.7-5.6
		c-1-1-2-2-3.1-2.8c-1.8-1.3-3.2-2.8-4.3-4.7c-21-35.5-42.1-71-63.2-106.5c-2.3-3.9-3.6-8.1-4.9-12.4c-0.4-1.2-0.6-2.4-0.6-3.7
		c-0.4-6.8-0.4-13.6,2.4-20c0.3-0.8,0.5-1.6,0.7-2.4c1.8-5.7,4.2-11.1,7.9-15.9c0.5-0.6,0.9-1.2,1.5-1.7c1.1-0.9,2.5-0.9,3.4-0.1
		c0.9,0.8,1.1,2,0.5,3.2c-0.3,0.5-0.6,1-1,1.4c-6.6,9.7-10.5,20.1-10.4,32c0.1,5.5,1.7,10.7,4.3,15.3c5.1,9,10.5,17.8,15.8,26.7
		c16,27,32,53.9,48,80.9c0.6,1,1.2,2.1,2.1,2.7c2.5,1.7,4.5,3.9,6.5,6.1c5.6,6.3,12.8,8.9,21,9.2c6.6,0.3,13.2-0.5,19.8-1
		c4-0.3,7.9-0.5,11.9-0.8c1-0.1,2.3-0.2,3.1-0.8c2-1.4,4-3,5.8-4.6c1.5-1.3,2.7-2.9,4-4.4c3.1-3.4,6.2-6.7,9.1-10.1
		c2.8-3.4,5.2-7.1,8.1-10.4c3-3.4,4.8-7.3,6.1-11.5c2.3-7.5,2.7-15.3,3.8-23c0.9-6.6,1.4-13.3,3.4-19.8c1.1-3.6,1.8-7.4,2.1-11.2
		c0.7-9.7-0.5-19.3-3-28.7c-0.4-1.3-0.9-2.6-1.4-3.9c-0.8,0.1-1.3,0.1-1.8,0.1c-4.4,0.6-8.3,2.6-12,5c-3.1,2-5.2,4.8-6.5,8.2
		c-2.4,6-1.3,12.2-1.6,18.6c2,0.3,3.8,0.6,5.6,0.8c1.1,0.1,2.3,0.1,3.5,0.2c1.7,0.2,2.7,1.3,2.7,2.7c-0.1,1.4-1.2,2.5-2.9,2.4
		c-2.9-0.2-5.8-0.3-8.6-0.9c-3.8-0.7-7.6-1.7-11.4-2.6c-3.5-0.9-7-0.6-10.6-0.6c0,0.4-0.1,0.7-0.1,0.9c1.3,4.9,2.5,9.7,4.6,14.4
		c2.4,5.2,4.5,10.5,6.7,15.8c0.3,0.8,0.7,1.7,0.8,2.6c0.2,1.7,0.4,3.4,0.3,5.2c-0.1,1.2-1,1.9-2.2,2c-1.2,0.1-2.2-0.6-2.6-1.8
		c-0.2-0.5-0.1-1-0.2-1.5c-0.3-1.5-0.4-3.1-1-4.6c-2-5-4.2-9.9-6.2-14.9c-1.4-3.4-2.7-6.8-3.7-10.2c-1.6-5.4-3.1-10.8-5.2-16
		c-3.1-7.9-6-15.8-8.6-23.8c-2.6-8.1-5.6-16.1-9.9-23.5c-2.3-4-3.5-8.4-4.2-12.9c-0.4-2.4-0.4-5-1.1-7.3c-3-9.9-6.1-19.8-9.3-29.6
		c-0.4-1.3-1.1-2.6-1.9-3.7c-3.5-4.6-7.1-9.2-10.7-13.7c-1.2-1.5-2.6-2.8-4.1-3.9c-3.8-2.7-7.8-5-11.5-7.8c-3.4-2.6-7-4.7-10.9-6.3
		c-1.8-0.7-3.6-1.4-5.2-2.2c-4.2-2.1-8.7-2.9-13.4-2.8c-9,0.2-17.3,2.7-24.8,7.6c-10.2,6.6-20.4,13.2-31,19.2
		c-1.4,0.8-2.9,1.6-4.3,2.5c-4.3,2.8-8.9,5.2-13.6,7.1c-6.3,2.6-12.5,5.2-18.7,8c-10,4.6-20.1,7.9-31.3,7.3c-3.1-0.2-6-0.6-9-1.6
		c-2.9-0.9-5.9-1.5-9-2.3c-0.3,1-0.6,1.8-0.8,2.6c-5.5,20-11,40-16.5,60c-0.3,1-0.5,1.9-0.6,2.9c-0.4,4.1-0.8,8.2-1,12.4
		c-0.2,4.1-0.3,8.3,0.8,12.3c1.1,4,2.2,8,3.1,12c1.5,7,2.5,14.1,3.3,21.3c1.2,11.2,2.6,22.4,3.3,33.6c0.4,6.3,1.1,12.5,1.4,18.8
		c0.4,5.9,0.8,11.9,0.7,17.8c-0.1,38.1-0.2,76.2-0.5,114.2c0,4.9,0.7,9.5,2.2,14.1c1.3,3.7,3.4,6.2,6.9,8c2.4,1.2,4.8,2.7,7,4.3
		c3.2,2.4,6.6,4.4,10.3,5.9c6.1,2.4,12.3,4.8,18.4,7.3c7.2,3,14.6,4.7,22.3,5.6c12.7,1.5,25.4,3.4,38.1,5.2
		c7.5,1.1,15.1,2.1,22.7,1.8c4-0.2,7.9-0.1,11.9,0c8,0.1,15.9-0.7,23.7-1.7C234.4,614.8,236.8,614.2,239.1,613.8z M246.7,213.2
		c0-2.9,0.2-6,0-9c-0.3-3.7-1.7-6.9-5.4-8.6c-3.9-1.8-7-4.6-9.8-7.9c-1.8-2.1-3.8-3.8-6.3-5.2c-5.7-3.1-11.4-6.4-17.1-9.5
		c-6.5-3.6-13.2-6.8-20.6-8.4c-3.9-0.8-7.7-1.9-11.5-3.2c-4.1-1.3-8-3-12.1-4.5c-3-1.1-6-2.5-9.1-3.2c-5-1.2-10-2.2-15.1-2.9
		c-5.1-0.7-10.2-1-15.3-1.6c-7.4-0.9-14.9-0.6-22.3-0.2c-3.7,0.2-6.8,1.7-9.6,4.2c-7.9,6.8-14.3,14.7-18.1,24.5
		c-2.4,6-4.8,12-7.3,17.9c-2,4.7-3.6,9.6-4.4,14.7c-0.8,5.3-2.4,10.5-2,16c0.1,1.4,0.3,2.8,0.8,4.1c2.5,5.5,5.2,10.9,7.7,16.4
		c1.2,2.6,3.1,4.1,5.9,4.7c3.1,0.7,6.4,1.2,9.4,2.3c5.9,2.2,12,1.9,17.9,1.2c6-0.8,11.9-2.8,17.5-5.4c4.7-2.2,9.5-4.2,14.3-6.3
		c5.3-2.4,10.6-4.7,15.8-7.2c2.7-1.3,5.1-3,7.7-4.6c9.7-5.9,19.5-11.6,28.9-17.8c6.3-4.1,12.8-7.3,20.1-8.8
		c8.7-1.8,17.3-2.1,25.7,2.2C237.1,209.2,242,211.1,246.7,213.2z M272.6,40.7c-0.6-2.1-1.9-3.1-3.3-4.2c-3.5-2.7-7.3-5-11.2-7.3
		c-6.3-3.6-12.3-7.7-18.6-11.5c-2.8-1.7-5.6-3.2-8.6-4.4c-9.8-4.2-20.2-6.4-30.7-7.4c-6.3-0.6-12.7-0.4-19.1-0.4
		c-1.4,0-2.8,0.4-4.1,0.7c-1.7,0.3-2.8,1.3-3.1,3.1c-0.3,1.6-0.7,3.2-1.1,4.8c-1.6,7.6-6,13.1-12.5,17.1c-3.6,2.2-7.2,4.4-10.8,6.6
		c-0.9,0.6-1.8,1.2-2.5,2c-5.1,5.2-8.8,11.2-10.4,18.3c-1.2,5.4-0.9,10.9-0.2,16.3c0.7,5.7,2.8,10.9,6.7,15.2
		c1.1,1.2,1.9,2.7,2.8,4.1c3.9,5.8,7.7,11.6,11.6,17.3c0.8,1.2,1.8,2.1,2.8,3.2c1.9,2.1,4.3,3.2,7.3,3c1.3-0.1,2.3-0.3,3.1-1.5
		c2.1-2.8,4.9-4.2,8.4-4.5c2.6-0.2,5.2-0.9,7.8-1.4c3.4-0.7,6.8-1.5,10.2-2c3.3-0.4,3.4-0.3,4-3.7c0.1-0.4,0.1-0.8,0.2-1.2
		c0.6-4,1.2-8,2-12c0.7-3.4,2.6-6.1,5.2-8.2c6-4.9,13.1-6.4,20.6-6.6c2.4,0,4.1,1.1,4.9,3.4c0.3,0.9,0.8,1.8,1.1,2.8
		c0.4,1.4,1.2,2.1,2.8,1.8c1.2-3,1.9-6.1,2-9.4c0.1-3.2,0.3-6.4,0.6-9.6c0.4-3.4,0.9-6.7,1.4-10.1c0.5-3.1,1-6.2,2.6-9
		c1.5-2.6,3.6-4.5,6.6-4.6c5.4-0.2,10.9-0.3,16.4-0.1C269.3,41.3,270.8,41.2,272.6,40.7z M225.3,176.3c2.6-3.8,5.9-6,10.2-6.8
		c2.4-0.4,4.8-1.1,7.2-1.8c3.2-0.9,5.4-3,6.5-6.3c0.6-1.7,1.2-3.4,1.8-5.2c2.3-6.7,4.6-13.5,5-20.7c0.1-2,1.2-3,2.9-3.9
		c3-1.4,5.8-3.2,8.6-4.9c0.6-0.4,1.4-1,1.5-1.6c0.2-2.3,0.6-4.6-0.6-6.8c-1.2-2.2-3-3.9-5.1-5.3c-2.1-1.3-2.6-2.6-2-5
		c0.1-0.6,0.4-1.1,0.6-1.6c2.2-4.9,4.5-9.8,6.6-14.7c0.7-1.6,1.1-3.3,1.1-5c0-4-0.1-7.9-0.4-11.9c-0.3-4.5-0.8-9.1-1.1-13.6
		c-0.3-4.1-0.5-8.3-0.7-12.4c-0.2-2.5-0.5-2.8-3-2.8c-3.5,0-7,0.2-10.4,0.1c-3.3-0.1-4.9,1.5-5.7,4.4c-0.3,1.2-0.6,2.4-0.8,3.6
		c-0.3,2.1-0.6,4.3-0.9,6.4c-0.7,4.5-1.4,9-1.3,13.6c0,3.4-0.7,6.7-1.7,10c-1.9,6-4.2,5.5-8.6,4.8c-2.2-0.4-3.7-1.7-4.4-3.9
		c-0.4-1.2-0.9-2.5-1.4-3.8c-5.2-0.1-10,1-14.4,3.3c-3.6,1.9-6.1,4.7-6.8,8.9c-0.3,1.6-0.5,3.3-0.8,4.9c-0.5,3.2-0.8,6.4-1.6,9.5
		c-0.7,3-2.8,4.7-6.1,4.9c-2.1,0.1-4.1,0.4-6.1,0.7c-4.5,0.8-8.9,2.1-13.4,2.7c-3.9,0.5-5.8,2.7-6.9,6.1c-0.5,1.5-0.8,3-1.3,4.5
		c-1.9,6.1-4,12.1-5,18.4c-0.4,2.3-0.6,4.6-0.3,6.9c1.1,0.4,2.2,0.7,3.2,1.1c1.9,0.7,3.7,1.4,5.6,2c3,1,5.8,2.4,8.9,3.1
		c10.7,2.2,20.7,6.3,30,12C217.6,172.6,221.4,174.3,225.3,176.3z M372.1,286c-2.4-0.3-4.4-0.6-6.3-0.7c-8.9-0.2-17.9-0.3-26.8-0.6
		c-1.8-0.1-2.8,0.6-3.6,2.2c-7.7,14.8-15.4,29.7-23.4,44.3c-1.9,3.5-2.5,6.5-0.7,10.1c1.3,2.5,2.1,5.2,3.2,7.9
		c3.3,0,6.3-0.2,9.4,0.1c3,0.3,5.9,1,9,1.6c0.1-0.8,0.1-1.4,0.1-2c0.1-3.2-0.2-6.5,0.2-9.7c0.9-7.8,4-14.4,11.1-18.6
		c3.4-2,6.8-3.8,10.1-4.6c0.8-1.7,1.3-3.1,2-4.4c4.6-7.6,9.3-15.1,13.9-22.6C370.9,288.2,371.4,287.3,372.1,286z"/>
</g>
</svg>
