<?xml version="1.0" encoding="utf-8"?>
<!-- Generator: Adobe Illustrator 25.2.3, SVG Export Plug-In . SVG Version: 6.00 Build 0)  -->
<svg version="1.1" id="레이어_1" xmlns="http://www.w3.org/2000/svg" xmlns:xlink="http://www.w3.org/1999/xlink" x="0px"
	 y="0px" viewBox="0 0 1024 640" style="enable-background:new 0 0 1024 640;" xml:space="preserve">
<g>
	<path d="M975.6,359.9l0-2.4c0-6.5-0.1-12.4-1.8-18.3c-0.3-1-0.4-2.1-0.5-3.1c-0.2-3.3-1-6.7-2.5-10.7c-4-10.4-6.8-20-8.6-29.4
		c-1-4.8-2.6-9.2-4.7-13.1c-0.9-1.6-2.1-3-3.5-3.9c-0.5-0.3-1-0.9-1.2-1.5c-1.7-5.1-5.2-9.1-10.8-12.8c-1.8-1.2-2.4-2.3-2.1-4
		c0.4-3.2-0.7-6.1-1.8-8.5c-4.3-8.8-8.6-18-13.2-28.1c-1-2.1-2.1-3.8-3.7-5.1l-28.6-26.5c-1.9-1.6-3.6-2.9-5.7-3.6
		c-1.5-0.5-3-1.2-4.9-2.3c-4.9-2.7-9.6-4.5-14.2-5.4c-0.4-0.1-0.9-0.3-1.2-0.4c0.7-3.6,1.4-7,2-10.4c0.4-2,0.7-4,1-6
		c0.7-4.4,1.5-8.9,2.7-13.2c0.9-3.3,1.7-6.5,2.6-9.8c3.1-11.6,6.4-23.6,8.9-35.6c2-9.6,2.2-18.4,0.6-27l0-0.1c-1-4.8-2-9.7-4.9-13.7
		c-5.2-7.1-10.7-12.5-16.8-16.6c-1.1-0.8-2.3-1.5-3.4-2.2c-1.1-0.7-2.2-1.4-3.3-2.1c-3.7-2.6-7.9-4.1-12.5-4.3
		c-7.2-0.2-14.7-0.2-23.6-0.1c-3.3,0-6,0.3-8.5,0.8c-6.5,1.4-13.1,3.1-19.5,4.8c-6.8,1.7-12.3,3.8-17.2,6.6
		C767,56,760,61.6,752.2,69.3c-6,6-9.9,13.1-11.6,21.3c-1.6,8.2-2.4,15-2.4,21.3c0,5.8,0.8,11.4,1.6,16.1c1.5,8.8,4.1,17.3,7.5,25.2
		c3.7,8.2,8.5,15.9,13.2,23.1c3.1,4.6,7.4,10.4,13.5,14.9c1.7,1.3,3.2,3,4.6,4.7l0.3,0.4c1.4,1.9,2,3.7,1.6,5.7
		c-0.3,1.4-0.4,2.9-0.3,4.3c0.2,0.9-0.1,1.5-0.9,2.1c-1.1,0.8-2.1,1.7-3.2,2.6c-3.1,2.5-6.4,5.2-9.8,7.4c-1,0.7-2,1.4-3.1,2
		c-5.2,3.5-10.6,7-15.7,11c-0.7,0.6-1.5,1-2.3,1.5c-0.5,0.3-0.9,0.6-1.4,0.9c-0.6,0.4-1.2,0.9-1.8,1.3c-1,0.8-2.1,1.6-3.3,2.1
		l-4.6,2c-7.4,3.2-15,6.5-22.6,9.5c-1.6,0.6-3.1,1.2-4.7,1.8c-7.4,2.8-15.1,5.8-22.4,9.3c-1.4,0.6-2.9,1-4.4,1.1
		c-2.3,0.1-4.1,0.6-5.6,1.6c-1.7,1.1-3.5,2.3-5.2,3.5c-1.8,1.2-3.5,2.4-5.3,3.5c-3.7,2.4-6.1,5.8-7.9,8.7c-5,8.1-8.6,17.1-11,27.4
		c-0.3,1.2-0.5,2.5-0.7,3.7c-0.1,1-0.3,1.9-0.5,2.9c-1.1,4.3-1.8,8.8-2.1,14.3c-0.2,4.4-1.1,8.5-2.6,12.2
		c-2.1,5.1-3.9,10.6-5.8,17.8c-0.1,0.6-0.3,1.1-0.6,1.8l0,0.1c-0.5-0.8-0.8-1.5-1.1-2.1c-6.2-12.8-13.2-27.4-20.1-41.6
		c-2.1-4.2-3.8-7.3-5.5-10c-2.5-3.9-6.8-5.6-11.6-4.6c-3,0.7-6.1,1.4-9.1,2.1c-3,0.7-6,1.4-9,2.1c-1.1,0.3-2.2,0.5-3.3,0.8
		c-1.8,0.4-3.7,0.8-5.6,1.3c-2.2,0.6-2.8,1.4-2.7,3.8c0,0.2,0,0.3,0,0.5c0,0.5,0,0.9-0.1,1.3c-1,4.4-0.6,8.3,1.1,11.9
		c1.5,3,3.1,5.9,4.8,8.7c1.5,2.5,3.1,5.1,4.7,7.5c0.5,0.9,1.1,1.7,1.7,2.6c-0.5,0.4-0.9,0.7-1.4,1c-0.3,0.2-0.5,0.4-0.8,0.5
		c-4.9,3.4-7.9,8.1-8.6,13.6c-0.6,4.4-0.9,10,2.2,15.1c1.9,3.2,3.4,6.9,4.6,11.4c0.7,2.6,1.3,5.2,1.9,7.9c0.9,3.8,1.8,7.6,2.8,11.4
		c1.5,5.4,2.2,10.4,2,15.1c-0.1,1.7,0.1,3.5,0.3,5.3l0.1,1.2c1.2,15.6,2.2,29.6,3.1,43.6c0.4,4.9,1,10.7,3.5,16.2
		c0.5,1.1,0.9,2.2,1.3,3.2c0.3,0.8,0.6,1.7,0.9,2.5c0.1,0.3,0.3,0.7,0.4,1c0.6,1.3,1.2,2.7,1.9,3.9c2.7,4.6,5.6,9.3,9,14.5
		c3,4.6,6,9.1,9,13.6c1.9,2.8,3.8,5.7,5.7,8.5c0.9,1.4,1.7,2.8,2.4,4.3c0.2,0.4,0.4,0.8,0.7,1.3c0.5,1,1.1,2,1.7,3
		c1,1.4,2.4,2.1,4.3,2.3c2.8,0.1,5.1-0.4,7.1-1.7c0.7-0.5,1.5-0.9,2.2-1.3c1.2-0.7,2.4-1.4,3.5-2.2c1.4-0.9,2.3-1.9,2.9-2.8
		c12-17,21.7-30.9,30.7-43.7c0.6-0.8,1-1.8,1.4-2.7c0.2-0.4,0.4-0.9,0.6-1.3c0.2-0.6,0.5-1.2,0.8-1.8c1.5-2.8,3.1-5.5,4.7-8.2
		c0.2-0.4,0.5-0.8,0.7-1.2c0.1,0.6,0.1,1.2,0.1,1.7c0,3.5-0.1,7-0.2,10.4c-0.1,3.5-0.2,7-0.2,10.5l0,1.8
		c-0.4,23.3-0.8,47.5-1.3,71.2c-0.1,7.5-0.1,13.8,0.5,20.1c0.1,1,0.1,2.1,0.1,3.2v26.8c0,1.4-0.2,2.8-0.4,4.1
		c-0.7,4.5-2.2,9.1-4.5,13.8l-0.3,0.5h6.9l0.1-0.3c0.2-0.7,0.4-1.4,0.7-2.1c2.6-6.9,3.8-13.3,3.6-19.5c-0.2-5.1-0.1-10.3-0.1-15.3
		c0-1.7,0-3.4,0-5.1c0-0.3,0.1-0.7,0.1-1c0-0.2,0.1-0.4,0.1-0.6c16-0.8,31.8,1.4,47.1,3.6l1.2,0.2c1.7,0.2,3.3,0.5,5,0.8
		c5.2,0.8,10.6,1.7,15.9,1.8c10.4,0.4,21.1,0.4,31.3,0.4c4.5,0,8.9,0,13.4,0c0.7,0,1.3,0,2-0.1c5.8-0.7,11.8-1.4,17.7-2.2
		c4.8-0.6,9.6-1.3,14.3-1.9c4.7-0.6,9.5-1.3,14.2-1.9l0.2,0c7.4-0.9,14.4-1.8,21.6-1.1c2.1,0.2,4.3,0,6.4-0.1c1-0.1,2.1-0.2,3.1-0.2
		c3.7-0.2,7.3-0.1,10.9,0c1.8,0,3.7,0.1,5.5,0c2.2-0.1,4.4-0.3,6.6-0.6c0.8-0.1,1.6-0.2,2.3-0.2c2.2-0.2,4.1,0,5.9,0.8
		c1.1,0.5,2.2,0.9,3.5,1.3c1.3,0.5,2.5,0.1,3.2-1c0.8-1,0.7-2.6-0.2-3.7c-0.3-0.3-1-0.9-1.7-1.2c-4.5-1.8-8.4-2.5-12.3-2
		c-4.3,0.5-9.3,1-14.3,0.6c-2.3-0.2-4.8-0.2-7.1-0.2c-0.6,0-1.2,0-1.8,0c-2,0.1-4,0.1-6,0.2c-2,0.1-3.9,0.2-6,0.2
		c-1.6,0.1-3.2,0.1-4.7,0.1c-2.1,0-4.2,0.1-6.4,0.3c-3.8,0.3-7.6,0.8-11.2,1.3c-1.9,0.3-3.9,0.5-5.8,0.8c-7.2,0.9-14.6,1.8-21.9,2.9
		c-7.4,1.1-14.9,2.2-22.6,2.1c-9.5-0.1-19.2-0.1-28.6,0c-9,0-18.5-0.9-29.8-2.7c-15.8-2.5-32.7-4.9-49.5-4.3c-0.5,0.1-1,0-1.6-0.1
		c-0.1-0.9-0.1-1.7-0.2-2.5c-0.2-2.5-0.3-4.9-0.3-7.2c0-3.5,0.1-7,0.2-10.4c0-1.7,0.1-3.5,0.1-5.2c0.5-33.3,1.1-67.3,1.7-97.3
		c0-1,0.3-2.1,0.9-3.4c0.5-1.2,1.1-2.5,1.7-3.7c1.3-2.7,2.6-5.5,3.3-8.5l3.2-13.8c5.5-23.8,11.3-48.5,17-72.7
		c0.2-0.6,0.3-1.2,0.5-1.7c12.3-0.7,215.3-2.8,225.1-2.3c-7.3,41-14.5,82-21.8,123.2l-3,0.3c-4.5,0.4-8.7,0.8-13,1.1
		c-3,0.2-6.1,0.4-9.1,0.6c-3,0.2-6.1,0.4-9.2,0.6c-7.8,0.7-15.7,1.4-23.4,2.2c-3.9,0.4-7.8,0.8-11.7,1.1c-2.5,0.2-4.9,0.4-7.4,0.7
		c-7.2,0.6-14.7,1.3-22,2.1c-9.1,1-18.8,1.1-31.6,0.5c-4.2-0.1-8.5-0.5-12.7-0.8c-4.8-0.4-9.7-0.7-14.5-0.8
		c-11.1-0.2-22.4-0.3-33.2-0.3c-7.4,0-14.8-0.1-22.2-0.2c-0.5,0-1,0-1.6,0.1c-1.6,0.3-2.6,1.5-2.6,2.9c0,1.5,1.2,2.8,2.8,3
		c0.8,0.1,1.7,0.1,2.5,0.1c3.6,0,7.3,0,10.9,0c8.9,0,18-0.1,27.1,0.1c13.3,0.4,27.2,1.1,39.4,1.8c10.8,0.6,22.4,1,34.1-0.1
		c7.7-0.8,15.6-1.5,23.2-2.2c3.9-0.4,7.7-0.7,11.6-1.1c4.6-0.4,9.3-0.9,13.9-1.3c5.2-0.5,10.4-1,15.7-1.5l2.6-0.3
		c4.2-0.4,8.5-0.9,12.7-0.9c7.2-0.1,12.6-0.5,17.7-1.3c0.7-0.1,1.4-0.1,2.2-0.1c0.4,0,0.8,0,1.2,0c0.1,2,0.2,4,0.4,6
		c0.1,1.7,0.2,3.4,0.3,5.1c0.2,2.9,0.3,5.8,0.5,8.7c0.3,6,0.6,12.1,1,18.2c0.1,1.1,0.2,2.3,0.2,3.4c0.4,5.5,0.8,11.1,2.2,16.6
		c0.3,1.1,0.4,2.4,0.5,3.7l0,0.2c0.2,3.2,0.4,6.5,0.7,9.8c0.1,0.9,0.2,1.9,0.3,2.8c0.4,3.8,0.8,7.7,1.4,11.5
		c1.7,9.3,2.5,18.4,2.5,27.1c0,6.7,0.3,13.6,0.6,20.3c0.2,5.2,0.6,10.6,1,15.8l0,0.3h0.3c1.8,0,3.6,0,5.8-0.1l0.4,0l0-0.4
		c-0.3-3.5-0.5-7.1-0.8-10.7c-0.6-7.3-1.2-14.8-1.6-22.2c-0.1-1.4-0.1-2.7-0.2-4.1c-0.4-8.9-0.8-18.2-2.2-27.1
		c-0.2-1.1-0.2-2.3-0.3-3.4c0-0.7-0.1-1.3-0.1-2c6.8-1.6,12.7-4.6,17.7-9.1c1.5-1.4,3.1-2.7,4.7-4c1.4-1.1,2.4-2.5,3-4.4l11.1-30.3
		c0.7-1.9,1.3-3.7,2-5.6c2-5.5,4-11.1,6.3-16.5c1.5-3.4,1.6-6.8,1.6-9.8l-0.3-87.1c0-9.3,0.1-19.2,0.7-29.3
		C975.8,369.6,975.7,364.7,975.6,359.9z M931.7,563.2c-1.2,0.5-2.4,1-4,0.9c-0.2-1.6-0.4-3.2-0.7-4.7c-0.2-4.4-0.9-8.9-1.5-13.1
		c-0.2-1.7-0.5-3.4-0.7-5.1c-0.9-6.4-1.3-13-1.7-19.3l-0.2-3.2c-0.3-3.9-0.5-8-0.7-11.9c-0.1-2.6-0.3-5.3-0.4-7.9
		c-0.4-7.8-0.5-16.1,1.1-24.1c1.1-5.6,2.1-11.4,3-16.9c0.3-1.9,0.6-3.7,1-5.6c0.1-0.5,0.2-0.9,0.3-1.4c0-0.1,0.1-0.3,0.1-0.4
		l1.1-0.2c13.2-2.2,26.5-4.4,39.9-6.6l0,0.1c0.1,0.7,0.1,1.2,0.1,1.8v47.9c0,0.9-0.1,1.8-0.4,2.5l-19.5,53.4
		c-0.6,1.8-1.7,3.3-3.2,4.6c-3.9,3.4-8.3,6.9-13.4,9L931.7,563.2z M863.4,162c-0.3,2-0.7,4.1-1.1,6.1c-0.2,1-0.4,1.9-0.5,2.9
		c-0.3,1.7-0.6,3.4-1,5c-0.3,1-0.6,1.9-0.9,2.9c-0.2,0.5-0.3,1-0.5,1.5c-1.2,0.1-2.3,0.1-3.4,0.1c-1.8,0-3.6,0-5.4,0.3
		c-5.7,1.3-11.3,2.9-16.7,4.4l-1.3,0.4c-6,1.7-12.1,3.5-18,5.3c-4,1.2-8,2.4-12,3.5c-5.3,1.6-10.4,4-15.1,7.1
		c-0.5,0.3-1,0.7-1.6,1.1c-0.4,0.3-0.8,0.6-1.2,0.9c0-0.2,0-0.3,0.1-0.4c1.2-3.8,0.4-7.4-2.3-10.6c-1.9-2.3-4.3-4.7-7-6.8
		c-2.8-2.2-5-4.7-6.9-7.8c-1.6-2.6-3.2-5.1-4.9-7.5c-1.6-2.4-3.3-4.9-4.8-7.5c-7.8-12.6-12.6-26.8-14.6-43.4
		c-0.7-5.8-0.5-12.1,0.6-19.4c0.2-1,0.3-2,0.5-3c0.5-3.2,0.9-6.4,2.1-9.5c1.9-5.3,4.2-9.3,7.2-12.5c8.5-8.9,16.4-15.1,24.8-19.4
		c2.4-1.2,5-2.4,7.5-3.1c7.7-2.1,15.8-4.2,24.2-6.3c2.9-0.7,6-0.9,8.8-1c6.1-0.1,12.3-0.1,18.4-0.1c5.5,0,10.5,1.5,15.2,4.5
		c6.5,4.3,11.5,8.3,15.5,12.5c4.6,4.8,7.4,10,8.5,16c1.7,8.6,1.5,17.5-0.5,27.1c-2.6,12.2-6,24.5-9.2,36.4c-0.7,2.5-1.4,5-2,7.6
		C864.9,153.7,864.1,157.9,863.4,162z M805,200.6c9.8-2.8,19.6-6,29.2-9l4.9-1.6c6.3-1.9,13.7-3.9,21.6-3.7c3.8,0.1,7.7,1,11.7,2.6
		c3.3,1.4,6.6,2.9,9.8,4.5c1.2,0.6,2.4,1.2,3.6,1.7c0.5,0.3,1.1,0.9,1.6,1.3c9.8,9,19.7,18.1,29.2,27c0.9,0.9,1.7,2,2.2,3.1
		c2.3,4.8,4.6,9.7,6.8,14.5c2.3,4.9,4.6,9.8,6.9,14.6c1.3,2.8,0.9,5.8,0.4,8.5c0,0.2-0.1,0.4-0.2,0.5c-0.1,0.3-0.2,0.6-0.2,1
		c0.3,3.6-0.3,7.2-0.9,10.7c-0.2,1.1-0.4,2.2-0.5,3.3c-0.5,3.8-2.2,7.3-5.1,11.2l-0.7,0.9c-2.2,2.9-4.6,5.9-7.2,8.4
		c-8.3,8.1-17,13.1-26.5,15.4c-5,1.3-10.4,1.9-16.6,1.9c-1.3,0-2.7,0-4,0c-5.3,0-10.7,0.1-16.1-0.4c-0.8-0.1-1.6-0.1-2.4-0.1
		c-3.5-0.2-7-0.4-10.4-1.7c-4-1.6-8.2-3.2-11.8-5.6c-2-1.2-4.1-2.3-6.6-3.4c-4.2-1.9-7.8-4.3-10.8-6.4c-4.2-2.9-8.3-5.5-11.5-7.4
		c-4-2.5-7.4-5.6-9.9-8.1c-2.7-2.6-5.6-5.1-8.4-7.4c-1.1-1-2.2-1.9-3.3-2.8c-0.2-0.2-0.4-0.4-0.6-0.6c-0.4-0.3-0.7-0.6-0.9-0.9
		c-4.5-5.9-9-11.7-13.5-17.5c-4.5-5.8-9-11.6-13.4-17.4c-0.1-0.2-0.2-0.3-0.3-0.6c0.8-0.7,1.6-1.3,2.4-2c3-2.5,5.8-4.8,8.9-7.1
		c6.6-4.6,13.6-9.9,22-16.6C790.2,206.3,797.1,202.8,805,200.6z M776,278.7l0.5,0.4c1,0.9,2.1,1.7,3.1,2.5c2,1.6,4.1,3.3,5.9,5.2
		c4.7,5,10.4,9.3,18,13.8c1.7,0.9,3.5,2.1,5.2,3.4c4.1,3,8.6,5.7,13.8,8c1.5,0.7,3,1.5,4.4,2.3c0.6,0.3,1.1,0.6,1.7,0.9
		c5.7,3.1,12.6,6.4,20.5,7.1c11.2,1.1,22.7,1.2,34.3,0.4c7.7-0.5,14.6-2.4,20.4-5.4c5.5-2.9,12.3-6.5,17.4-12l0.7-0.7
		c3.9-4.2,8-8.6,11.2-13.6c3.5-5.5,4.5-11.9,5.1-17.4c0.1-0.7,0.2-1.3,0.3-2.1c0.1-0.5,0.2-1.1,0.2-1.7c3.1,2.2,5.7,4.3,7,7.5
		c1.7,3.7,2.7,7.2,2.9,10.6c0.3,5.1,0.6,10.4-0.4,15.5c-0.1,0.4-0.1,0.8-0.2,1.1c-0.1,0.6-0.1,1.1-0.3,1.5
		c-1.9,5.5-2.9,11.3-3.8,16.8c-0.4,2.2-0.7,4.5-1.1,6.7c-0.8,4.2-1.5,8.3-2.2,12.5c-0.7,4.1-1.5,8.3-2.2,12.5c0,0.2,0,0.3-0.1,0.4
		c-73.4,0.8-148.2,1.7-220.4,2.5l-4.5,0.1c-5-15.2-10-30.3-15.1-45.4c-5-15.1-10-30.2-15-45.3c1.2-0.5,2.4-1.1,3.7-1.6
		c4.3-1.9,8.4-3.8,12.6-5.5c3-1.2,6.1-2.3,9.1-3.5c3.8-1.4,7.7-2.9,11.5-4.4c6.6-2.7,13.2-5.7,19.6-8.5c1.3-0.6,2.6-1.3,4-2
		c0.7-0.4,1.4-0.7,2.1-1.1l1.9,2.5c2.2,2.9,4.5,5.8,6.7,8.7c6,7.8,12.3,16,18.5,23.9C773.6,276.7,774.8,277.7,776,278.7z
		 M954.9,294.1c0-0.2,0-0.3,0-0.5c0.1,0.4,0.2,0.7,0.3,1.1c0.2,0.7,0.4,1.4,0.6,2.1c0.7,2.5,1.3,5.1,1.8,7.5
		c0.8,3.2,1.5,6.5,2.5,9.8c1,3.4,2.2,6.7,3.4,10c0.5,1.2,0.9,2.4,1.3,3.7c0.9,2.7,1.8,5.6,2.1,8.5c0.2,1.5,0.5,3,0.8,4.4
		c0.4,1.7,0.7,3.4,0.9,5.1c0.4,3.5,0.5,7,0.7,10.4c0,1,0.1,1.9,0.1,2.8c-1.5,1.5-2.6,2.7-3.7,3.9c-3.3,3.7-6.1,6.7-10,8.9
		c-1.2,0.7-2.4,1.6-3.5,2.4c-1.1,0.8-2.3,1.6-3.5,2.3c-1.6,0.9-3.3,1.7-5,2.4c-0.5,0.2-1,0.4-1.5,0.7c-0.4,0.2-0.9,0.2-1.5,0.3
		c-0.2,0-0.4,0-0.6,0.1l0.2-1.2c0.3-1.9,0.5-3.5,0.8-5.2c1.5-8.8,3.1-17.5,4.7-26.3c1.9-10.6,3.8-21.2,5.6-31.8l0-0.2
		c0.2-1.2,0.4-2.5,0.9-3.7C954.2,306.6,955,301,954.9,294.1z M968.6,426.2v11.4c-8.4,1.4-16.8,2.8-25.2,4.2
		c-4.9,0.8-9.9,1.6-14.9,2.5l2.7-15.1c2.5-14.1,5-28.7,7.6-43.1c6-0.1,10.6-2.9,15.3-6.1c0.8-0.5,1.6-1.1,2.4-1.7
		c1.2-0.9,2.5-1.7,3.8-2.5c2.2-1.4,4.6-3,6.5-5.5c0.4-0.6,0.9-1.1,1.6-1.7c0.2-0.2,0.4-0.4,0.6-0.6v10.6c0,1.1-0.1,2.2-0.2,3.4
		c-0.1,1.7-0.2,3.4-0.2,5.1C968.5,399.8,968.5,413.1,968.6,426.2z M570.6,313.6c0.4-1.4,1-2,2.5-2.4c3.8-0.9,7.5-1.7,11.3-2.6
		c3.7-0.9,7.5-1.7,11.3-2.6c0.6-0.2,1.2-0.2,1.8-0.2c1.8,0,3.1,0.8,4.1,2.6c1.9,3.3,3.6,6.6,5,9.4c3.5,7.2,7,14.5,10.5,21.8
		c3.5,7.3,7,14.6,10.5,21.8l0.1,0.1c0.6,1.3,1.4,2.8,3.1,3.4l-1,4.4c-1.5,6.6-3,12.9-4.3,19.3l-0.4-0.2l-0.2,0.1
		c-0.4,0.3-0.9,0.7-1.4,1c-0.9,0.6-1.7,1.2-2.5,1.9c-1.5,1.4-2.8,2-3.9,1.8c-1.1-0.1-2.2-1-3.2-2.7c-10.2-16.3-19.4-31-28-44.9
		c-0.3-0.5-0.5-1.1-0.8-1.7l-0.2-0.5c-0.1-0.1-0.1-0.3-0.2-0.4c-0.1-0.3-0.2-0.6-0.5-0.9c-4.9-6-8.7-12.7-12.2-19.1
		C570.3,319.6,569.8,316.6,570.6,313.6z M581.2,349.7c9.4,14.9,18.7,29.9,27.7,44.4c1.5,2.5,3.7,4.1,6.9,4.9
		c2.4,0.6,4.8,0.1,6.9-1.5c0,0,0,0,0,0c-0.5,2-1.1,4-1.6,6.3c-1.6-0.8-3-0.4-4.3-0.1l-0.2,0.1c-7.9,1.8-15.9,3.5-23.7,5.2
		c-0.6,0.1-1.1,0.1-1.7,0.1c-0.4,0-0.8,0-1.2,0.1c-1.4,0.1-2.9,0.2-4.5,0.3c-0.8-3.2-1.6-6.4-2.4-9.5c-1.2-4.7-2.4-9.6-3.5-14.4
		c-1.3-6.1-3.1-11-5.6-15.4c-3.1-5.4-2-10.8-0.8-15c0.8-2.8,3.4-5.5,6.9-7.1c0.1,0.1,0.2,0.3,0.3,0.4
		C580.6,348.9,580.9,349.3,581.2,349.7z M585.8,414.6c4.5,0.6,9.2,0.2,14.6-1.2c5.5-1.4,10.9-2.6,16.7-3.9l2.2-0.5
		c-0.2,0.9-0.3,1.7-0.5,2.4c-3.5,13.9-5.1,27.4-5,41.4c0,0.3,0,0.6,0,0.9c0,0.3,0,0.7,0.1,1c0.2,1.7,1.4,2.8,3,2.8
		c1.4,0,2.5-1,2.9-2.6c0.2-0.7,0.2-1.6,0.2-2.3c-0.2-15.4,2-30.9,6.7-47.4c2.4-8.3,5.2-18.2,7.3-28.3c2.3-10.6,5.4-21.4,9.6-33.1
		c2.9-8.1,4.3-15,4.5-21.6c0-0.9,0.2-1.9,0.3-2.9c0.1-0.3,0.1-0.7,0.2-1c0.6-3.8,1.3-7.5,2.1-10.9c2.3-10.7,6.5-20.6,12.4-29.4
		c0.3-0.4,0.7-0.9,1.1-1.3c2.2-2.3,9.3-7.3,13-9c0.4,1.2,0.8,2.3,1.1,3.2c9.3,28.1,18.6,56.1,27.9,84.1c0.5,1.6,0.6,3.2,0.2,5.1
		c-6.7,28.6-13.4,57.1-18.4,78.8c-0.3,1.3-0.6,2.5-0.9,3.8c-0.6,2.5-1.2,5.1-1.8,7.6c-1.5,5.6-4.4,10.5-6.7,14.2L672,476
		c-0.5,0.9-1,1.8-1.5,2.7c-0.5,0.9-1.1,1.8-1.6,2.7c-4.9,9.3-11.1,17.8-17.1,26.1c-3.1,4.3-6.4,8.8-9.4,13.3
		c-0.9,1.3-1.8,2.6-2.7,3.8c-1.2,1.6-2.3,3.3-3.4,5c-1.6,2.3-3.2,3.7-5.1,4.7c-0.6,0.3-1.2,0.6-1.8,1c-0.9,0.5-1.9,1.1-2.9,1.5
		c-0.8,0.3-1.4,0.4-1.8,0.2c-0.3-0.2-0.6-0.6-0.8-1.3c-0.9-3.1-2.7-5.6-4.5-8.1c-0.5-0.7-1.1-1.5-1.6-2.2c-2.7-4.2-5.6-8.4-8.3-12.5
		c-2-2.9-3.9-5.9-5.9-8.8c-2.8-4.4-5.2-8.4-7.4-12.3c-0.8-1.6-1.4-3.2-2-4.9c-0.4-1-0.7-2-1.1-2.9c-2.3-5-3.5-10.7-3.9-17.7
		c-0.6-10.3-1.4-20.8-2.2-30.9c-0.3-3.3-0.5-6.7-0.7-10c-0.1-1.5-0.2-3.1-0.2-4.7c-0.1-1.6-0.2-3.2-0.3-4.7
		C585.7,415.6,585.7,415.1,585.8,414.6z"/>
	<path d="M375.7,280.8c-1.8-0.4-3.6-0.8-5.5-0.9c-3.6-0.3-7.2-0.5-10.9-0.6l-24.1-0.3l-0.8,0c-1.9,0.3-2.7,1.1-3.1,3
		c-0.2,0.9-0.5,1.8-0.9,2.7c-3.7,7-7.4,14-11.1,21c-3.7,7-7.3,14-11,21l-0.1,0.2c-0.3,0.5-0.6,1-1,1.7c-0.3-0.9-0.6-1.7-0.9-2.6
		c-0.5-1.4-1-2.8-1.4-4.1c-3.2-10.7-6.5-18.6-10.6-25.7c-2.1-3.8-3.4-8-4-13.9c-0.2-1.9-0.4-3.8-1-5.7c-2.4-8-5-16.1-7.4-23.9
		l-1.8-5.7c-0.7-2.1-1.5-3.5-2.6-4.9c-1.1-1.4-2.3-2.9-3.4-4.3c-2.5-3.3-5.2-6.6-7.8-9.9c-1.5-1.8-3.3-3.4-4.9-4.7
		c-2.2-1.8-4.6-3.4-6.7-4.8l-0.6-0.4c-0.1-0.6-0.1-1.2-0.1-1.8c0-1.3,0-2.5-0.6-3.4c-0.7-1.3-1-2.5-1-4.3c0-0.6,0-1.2-0.1-1.9
		c0-0.6,0-1.2,0-1.8c-0.1-7.1-3.1-12-9.1-14.9c-2.4-1.2-4.7-2.9-6.8-5.1c-0.8-0.8-1.6-1.6-2.4-2.3c-0.8-0.8-1.6-1.6-2.4-2.4
		c-0.3-0.3-0.5-0.6-0.8-0.9c2.4-2.7,5.6-3.8,8.9-4.9c2.4-0.7,4.7-1.6,6.8-2.4c4.6-2,7.7-5.3,9.2-9.9c2.5-7.5,5-15.2,5.6-23.4
		c0.1-1.4,0.6-2,1.9-2.6c4-1.9,7-3.8,9.4-6.2c1-0.9,1.8-2.2,2-3.3c1-6.7-0.9-12.1-5.5-16c-0.7-0.5-1.4-1.1-2.2-1.8
		c1.2-2.6,2.3-5.1,3.5-7.6c1-2.1,1.9-4.2,2.8-6.3l0.1-0.2c0.9-2.1,1.7-4,1.7-6.3c0.1-6.5-0.2-13-0.8-20.1
		c-0.5-5.6-0.9-11.2-1.3-16.7c-0.1-1.7-0.2-3.3-0.3-5c0.7-0.2,1.2-0.4,1.7-0.6c3.8-1.3,4.8-3.2,3.5-7.1c-0.8-2.7-2.5-4.9-5.3-7
		c-3.3-2.6-7.1-5.1-11.8-7.7c-3.7-2.1-7.4-4.4-10.9-6.6c-2.4-1.6-5-3.2-7.5-4.7c-3.4-2.1-6.4-3.7-9.3-4.8
		c-16.9-6.8-35.1-9.6-54.2-8.1c-1.8,0.1-3.4,0.6-4.7,1c-3.1,1-5,3-5.8,6.1l-1.5,6.3c-1.2,5.5-4.4,9.8-9.8,13.1
		c-3.6,2.2-7.4,4.4-11,6.7c-1.1,0.7-2.3,1.6-3.4,2.7c-5.8,5.8-9.7,12.6-11.7,20.1c-1.5,5.7-1.2,11.6-0.7,17.1
		c0.7,8.1,3.4,14.9,8.2,20.1c0.6,0.7,1,1.3,1.6,2.2l2.2,3.4c3.1,4.8,6.3,9.7,9.6,14.4c1.5,2.2,3.5,4.1,5.3,5.9l0.7,0.7
		c2,2,4.6,3,7.5,3c0.3,0,0.6,0.1,0.9,0.1c0.1,0,0.3,0.1,0.4,0.1c-0.4,1.2-0.8,2.5-1.2,3.7c-2.3,7.3-4.7,14.8-5.4,22.6
		c0,0-0.1,0-0.1,0c-0.2,0-0.3,0-0.5-0.1c-7.3-2.2-14.6-3.4-21.5-4.3c-1.7-0.2-3.5-0.4-5.3-0.5c-2.1-0.2-4.4-0.4-6.5-0.7
		c-7.1-1-14.3-0.8-21.3-0.6l-1.5,0c-6.3,0.1-11.8,2.4-15.9,6.7c-0.8,0.8-1.6,1.5-2.4,2.2c-6.2,5.9-10.5,11.4-13.5,17.5
		c-4.3,8.7-8.2,18.1-12.2,29.6c-3.1,8.8-4.1,17.9-4.7,24.9c-0.3,3.5,0.4,6.7,2.2,10.2c0.3,0.7,0.7,1.5,1,2.2c0.3,0.8,0.7,1.5,1,2.3
		c0.5,1.1,1,2.2,1.5,3.3c2.1,4.7,4.3,9.6,8.6,13.2c-0.1,0.3-0.1,0.5-0.2,0.8c-0.1,0.4-0.2,0.8-0.3,1.2l-2.4,8.5
		c-3.5,12.8-7.2,26-10.7,39.1c-0.4,1.4-0.8,2.8-1.2,4.2c-1.5,4.9-3,10-3.3,15.4c-0.1,2.1-0.2,4.3-0.4,6.4c-0.2,2.8-0.4,5.6-0.4,8.5
		c0,2.7,0.3,5.6,1,8.9c0.5,2.1,1,4.2,1.6,6.3c0.5,2,1.1,4.1,1.5,6.2c1.9,8.2,2.7,16.6,3.5,24.8c0.2,2.1,0.5,4.2,0.8,6.2
		c0.3,1.9,0.5,3.9,0.7,5.9c0.7,8.4,1.3,16.9,1.9,25.2c0.2,2.1,0.3,4.2,0.5,6.3c0.5,6,1,12.3,1,18.5c0,24-0.1,48.4-0.2,72
		c-0.1,16.1-0.1,32.1-0.2,48.2c0,2.5,0.2,4.7,0.7,6.7c0.7,2.7,1.7,5.4,2.7,8l0.4,1.2c0.3,1,0.8,1.8,1.4,2.5c0.8,0.9,0.9,2,0.9,3.1
		c0,0.9,0,1.8,0,2.6c0,3.5,0,7.1,0.2,10.6c0.2,2.6,0.4,5.3,0.6,7.8c0.4,5.5,0.9,11.3,0.8,17c-0.1,4.2-0.2,8.6-1.3,12.7l-0.1,0.5h0.5
		c1.8,0,3.6,0,5.5-0.3l0.3,0l0-0.3c1.9-10.8,1.1-21.5,0.1-31.5c-0.6-5.6-0.8-11.1-0.6-16.7c1.6,0.3,3,1,4.5,2.3
		c6.1,5.2,13.5,8.1,20.7,10.9c1.2,0.5,2.4,0.9,3.6,1.4c2.3,0.9,4.6,1.8,6.8,2.6c1.1,0.4,2.3,0.8,3.4,1.3c5.5,2.2,11.4,3.7,18.1,4.5
		c13.4,1.7,26.9,3.5,39.9,5.4c4.2,0.6,8.4,1.2,12.6,1.7c1.2,0.2,2.2,0.3,3.3,0.3l0.2,0c8.2,0.1,16,0.2,23.9,0
		c8.6-0.3,19.4-0.6,29.3-3.4c5.5-1.6,10.9-3.6,16.1-5.5c2.5-0.9,5-1.9,7.5-2.8c3.9-1.4,7.9-2.7,11.8-3.9l2.9-1
		c0.3-0.1,0.6-0.1,1-0.1l-0.9,34.8h6.3l0-0.4c0.3-11.9,0.5-24.1,0.7-34.9c0.7-1.8,0.6-3.5,0.4-5.2c-0.1-0.7-0.1-1.4-0.1-2.1
		c0.2-12.8,0.5-25.9,0.8-38.5l0-0.2c0.1-2,0.2-4,0.2-6.1c0.2-6,0.5-12.2,0.6-18.2c0.1-6.6,0-13.3,0-19.7c0-3.3,0-6.6,0-9.9
		c0-6.6-0.6-13.3-1.8-19.8l-0.1-0.6c-0.5-2.7-1-5.5-0.4-8.2c1.6-7.3,3.1-14,4.5-20.5h2.6c2,0,4.1-0.1,6.4-0.2
		c1.6-0.1,3.2-0.3,4.7-0.4c1.5-0.1,3.1-0.3,4.7-0.4c1.1-0.1,2.1-0.1,3.2-0.2c2.1-0.1,4.3-0.2,6.5-0.4c2.4-0.2,4.3-0.7,5.8-1.4
		c3.1-1.4,5.9-3.6,8-6.4c0.7-0.9,1.5-1.7,2.3-2.6c0.3-0.3,0.5-0.6,0.8-0.9l2-2.2c2.6-2.8,5.3-5.8,7.8-8.7c1.3-1.5,2.5-3.1,3.6-4.7
		c1.2-1.7,2.5-3.4,3.9-4.9c4-4.3,6.6-9.6,8.5-17.1c1.4-5.5,2.1-11.3,2.7-16.8c0.2-2,0.5-4,0.7-6l0.2-1.7c0.7-5.1,1.4-10.4,2.9-15.5
		c1.3-4.6,2-8.4,2.2-11.8c0.4-6.1,0.5-12.6-0.8-19.2c-1.1-5.3-2.4-10.4-3.6-15.2c-0.5-2-1.5-4.3-4.5-4.6c0.3-0.4,0.5-0.8,0.7-1.1
		c0.2-0.3,0.4-0.6,0.6-1c2.6-4.2,5.2-8.5,7.8-12.7c2.6-4.2,5.2-8.5,7.8-12.7c1-1.5,1.2-2.9,0.7-4C378.6,282,377.4,281.2,375.7,280.8
		z M260.1,434.9c-0.7-0.5-1.3-1.4-1.8-2.3l-0.2-0.3c-8-13.5-16-27-24-40.5c-8-13.5-16-27-24-40.5c-1.5-2.5-2.9-4.9-4.4-7.3
		c-3.8-6.3-7.7-12.8-11.4-19.3c-2.7-4.8-4.2-9.9-4.3-15.1c-0.1-11,3.3-21.4,10.3-31.7c0.4-0.4,0.7-1,1.1-1.5
		c0.7-1.3,0.4-2.7-0.6-3.6c-1.1-0.9-2.7-0.9-3.9,0.1c-0.5,0.4-0.8,0.8-1.2,1.3c-0.1,0.2-0.2,0.3-0.4,0.5c-3.4,4.4-5.9,9.4-8,16
		c-0.2,0.8-0.4,1.6-0.7,2.3c-2.9,6.7-2.8,13.9-2.4,20.2c0,1.3,0.2,2.6,0.6,3.8c1.2,4,2.6,8.4,4.9,12.5l0.3,0.5
		c20.6,34.7,42,70.7,62.9,106c1.1,1.9,2.5,3.4,4.4,4.8c1.1,0.8,2.1,1.8,3.1,2.8c0.5,0.5,1,1,1.4,1.4c1.4,1.4,2.8,2.8,4.3,4.2
		c3.8,3.3,8.5,5.4,14.8,6.6c0.8,0.2,1.5,0.3,2.3,0.5c0.4,0.1,0.7,0.1,1.1,0.2c-0.4,2-0.8,4-1.3,6c-0.4,1.8-0.8,3.5-1.1,5.3
		c-0.3,1.3-0.6,2.5-0.9,3.8c-0.3,1.2-0.5,2.5-0.8,3.7c-0.8,3.3-0.3,6.6,0.2,9.8c0.1,0.7,0.2,1.4,0.3,2.1c0.2,1.3,0.3,2.7,0.5,4.1
		c0.5,3.7,1,7.6,1.1,11.4c0.3,10.4,0.3,21.1,0.1,33c-0.1,8.7-0.4,17.5-0.8,26c-0.2,4.4-0.3,8.8-0.4,13.2c-0.1,3.6-0.2,7.3-0.3,11
		c-0.1,3.6-0.1,7.2-0.2,10.8c0,0.8,0,1.6-0.1,2.5c-0.9,0.3-1.8,0.5-2.7,0.7c-1.7,0.5-3.3,0.9-5,1.5l-2.3,0.8c-2.9,1-6,2.1-8.9,3.2
		c-2.6,1-5.3,2-8,3c-2.7,1-5.4,2-8,3c-0.4,0.1-0.8,0.2-1.3,0.3l-0.2,0c0-0.5,0-0.9,0-1.3c0.2-16,0.4-31.9,0.5-47.9
		c0.2-16,0.4-31.9,0.6-47.9c0-0.9,0-1.7-0.2-2.6c-0.3-1.3-1.2-2.1-2.6-2.2c-1.4-0.1-2.6,0.8-3,2.2c-0.2,0.8-0.2,1.4-0.2,2.1
		c-0.2,15.9-0.3,31.8-0.5,47.7c-0.2,15.8-0.3,31.6-0.5,47.4c0,0.9,0.1,1.7,0.2,2.6c0,0.5,0.1,1.1,0.1,1.7c-0.4,0.1-0.9,0.2-1.3,0.2
		c-1.8,0.3-3.6,0.7-5.5,0.7c-7,0.9-15.3,1.8-23.6,1.7l-0.1,0c-4-0.1-7.8-0.2-11.8,0c-7.6,0.3-15-0.7-22.6-1.8
		c-2.5-0.4-5.1-0.7-7.6-1.1c-10-1.4-20.3-2.9-30.5-4.1c-8.3-1-15.5-2.8-22.2-5.6c-4.8-2-9.6-3.9-14.4-5.7l-4-1.6
		c-3.5-1.4-6.9-3.3-10.2-5.9c-2.3-1.7-4.8-3.2-7-4.3c-3.4-1.7-5.4-4.1-6.7-7.8c-1.5-4.5-2.2-9.1-2.2-14c0.3-38,0.4-76.7,0.5-114.2
		c0.1-6-0.3-12-0.7-17.8c-0.2-3.6-0.5-7.2-0.8-10.7c-0.2-2.6-0.5-5.4-0.6-8.1c-0.5-8.7-1.5-17.6-2.5-26.1c-0.3-2.5-0.6-5-0.8-7.5
		c-0.9-8.4-2-15.2-3.3-21.3c-0.9-4-2-8.1-3.1-12c-1.1-3.9-1-8-0.8-12.2c0.2-4.2,0.6-8.4,1-12.4c0.1-0.9,0.3-1.8,0.6-2.8l16.5-60
		c0.1-0.5,0.3-1,0.4-1.5c0.1-0.2,0.2-0.5,0.2-0.8c1,0.2,1.9,0.5,2.9,0.7c2,0.5,3.9,0.9,5.7,1.5c2.7,0.9,5.4,1.4,9.1,1.6
		c12.3,0.7,23.3-3.6,31.5-7.3c6.4-2.9,12.7-5.5,18.7-8c4.7-1.9,9.3-4.3,13.7-7.1c1-0.7,2.1-1.3,3.1-1.8c0.4-0.2,0.8-0.4,1.1-0.6
		c10.6-6,21-12.7,31-19.2c7.4-4.8,15.6-7.3,24.6-7.5c5-0.1,9.3,0.8,13.2,2.8c1.6,0.8,3.4,1.5,5.2,2.2c3.8,1.6,7.4,3.6,10.8,6.3
		c2.1,1.6,4.4,3.1,6.5,4.5c1.6,1.1,3.4,2.2,5,3.3c1.5,1.1,2.9,2.4,4,3.8c3.7,4.7,7.3,9.3,10.7,13.7c0.8,1.1,1.5,2.4,1.8,3.6
		c3,9.3,6.2,19.3,9.3,29.6c0.4,1.4,0.6,3,0.8,4.5c0.1,0.9,0.2,1.8,0.3,2.7c0.8,5.3,2.2,9.4,4.2,13c4.6,8,7.7,16.7,9.9,23.4
		c2.4,7.4,5.2,15.2,8.6,23.8c1.8,4.5,3.2,9.2,4.6,13.8l0.6,2.1c0.9,3,2,6.1,3.7,10.2c1,2.5,2.1,5,3.1,7.5c1,2.4,2.1,4.9,3.1,7.4
		c0.4,1,0.6,2.1,0.7,3.2c0.1,0.5,0.1,0.9,0.2,1.4c0,0.2,0,0.4,0,0.5c0,0.3,0,0.7,0.2,1c0.5,1.4,1.6,2.2,3,2.1c1.5-0.1,2.4-1,2.5-2.4
		c0.1-1.8-0.1-3.6-0.3-5.3c-0.1-0.8-0.4-1.6-0.7-2.3l-0.2-0.4c-0.5-1.2-1-2.4-1.5-3.6c-1.7-4-3.4-8.2-5.2-12.2
		c-1.9-4.3-3.1-8.7-4.3-13.3l-0.3-1c0-0.1,0-0.1,0-0.2c0-0.1,0-0.2,0-0.3c0.6,0,1.2,0,1.8,0c2.9,0,5.6-0.1,8.3,0.6
		c0.9,0.2,1.9,0.5,2.8,0.7c2.8,0.7,5.7,1.4,8.6,1.9c2.4,0.5,4.8,0.7,7.2,0.8l1.4,0.1c1.8,0.1,3.2-1,3.3-2.8c0-1.6-1.2-2.9-3-3.1
		c-0.6,0-1.2-0.1-1.8-0.1c-0.6,0-1.2,0-1.7-0.1c-1.4-0.2-2.7-0.4-4.2-0.6l-1-0.2c0.1-1.7,0-3.5,0-5.1c-0.1-4.5-0.1-8.8,1.5-13
		c1.3-3.5,3.5-6.2,6.4-8c3-2,7.1-4.3,11.8-4.9c0.4,0,0.9,0,1.6-0.1c0.5,1.2,0.9,2.4,1.3,3.6c2.6,9.9,3.6,19.5,3,28.6
		c-0.3,3.8-1,7.6-2.1,11.1c-1.6,5.1-2.2,10.5-2.9,15.6c-0.2,1.4-0.3,2.8-0.5,4.2c-0.3,2.1-0.5,4.2-0.8,6.2c-0.7,5.5-1.3,11.3-3,16.7
		c-1.5,4.8-3.4,8.4-6,11.4c-1.6,1.9-3.1,3.9-4.6,5.8c-1.1,1.5-2.3,3.1-3.5,4.6c-2.2,2.6-4.5,5-6.9,7.7c-0.7,0.8-1.5,1.6-2.2,2.4
		c-0.3,0.4-0.6,0.8-1,1.1c-0.9,1.1-1.9,2.3-3,3.2c-1.9,1.7-3.9,3.2-5.8,4.6c-0.7,0.5-1.8,0.6-2.8,0.7l-0.2,0c-2,0.1-4,0.3-5.9,0.4
		c-2,0.1-4,0.2-6,0.4c-1.4,0.1-2.8,0.2-4.2,0.3c-5.1,0.4-10.3,0.9-15.5,0.6c-8.8-0.3-15.6-3.3-20.7-9.1
		C264.7,438.9,262.6,436.6,260.1,434.9z M225.2,175.8c-0.8-0.4-1.5-0.8-2.2-1.1c-3-1.5-5.9-2.9-8.5-4.8c-9.5-5.8-19.7-9.9-30.1-12
		c-1.9-0.4-3.8-1.2-5.6-1.9c-1.1-0.4-2.2-0.9-3.3-1.2c-1.5-0.5-2.9-1-4.4-1.5l-1.2-0.4c-0.6-0.2-1.2-0.4-1.8-0.6
		c-0.4-0.1-0.8-0.3-1.2-0.4c-0.2-1.9-0.1-4,0.3-6.6c0.8-5.2,2.5-10.4,4.1-15.4c0.3-1,0.6-2,0.9-3c0.3-0.8,0.5-1.5,0.7-2.3
		c0.2-0.7,0.4-1.5,0.6-2.2c1.2-3.7,3.2-5.4,6.6-5.8c2.6-0.4,5.3-0.9,7.8-1.5c1.8-0.4,3.7-0.8,5.6-1.2c2-0.3,4-0.6,6.1-0.7
		c3.5-0.2,5.7-2,6.4-5.2c0.6-2.3,0.9-4.6,1.2-6.9c0.1-0.9,0.2-1.8,0.4-2.7c0.2-0.8,0.3-1.6,0.4-2.5c0.1-0.8,0.2-1.6,0.4-2.4
		c0.6-3.8,2.8-6.6,6.6-8.6c4.3-2.2,9-3.3,14-3.3c0.5,1.2,0.9,2.4,1.3,3.5c0.7,2.3,2.3,3.7,4.7,4.2l0.3,0c4.2,0.7,6.8,1.1,8.7-5.1
		c1.2-3.9,1.7-7.1,1.7-10.1c-0.1-4.6,0.6-9.1,1.3-13.5c0.1-1.1,0.3-2.1,0.5-3.2c0.1-1.1,0.3-2.1,0.4-3.2c0.2-1.2,0.5-2.4,0.8-3.6
		c0.8-3,2.4-4.2,5.3-4.1c2,0.1,4.2,0,6.2,0c1.4,0,2.8-0.1,4.2-0.1c2.3,0,2.4,0.1,2.6,2.4l0,0.6c0.2,3.9,0.4,7.9,0.7,11.8
		c0.2,2.3,0.4,4.6,0.6,6.8c0.2,2.2,0.4,4.5,0.5,6.8c0.3,3.6,0.4,7.4,0.4,11.9c0,1.6-0.4,3.2-1.1,4.9c-1.4,3.3-2.9,6.6-4.4,9.8
		c-0.7,1.6-1.5,3.3-2.2,4.9c-0.1,0.1-0.1,0.3-0.2,0.4c-0.2,0.4-0.4,0.8-0.4,1.2c-0.6,2.6-0.1,4,2.2,5.4c2.3,1.5,3.9,3.2,5,5.2
		c1,1.9,0.8,3.8,0.6,5.8l-0.1,0.7c-0.1,0.3-0.5,0.8-1.3,1.3l-1.4,0.8c-2.3,1.4-4.7,2.9-7.2,4.1c-1.5,0.8-3,1.9-3.1,4.2
		c-0.4,7.3-2.8,14.3-5,20.6c-0.6,1.8-1.2,3.5-1.8,5.2c-1,3.1-3.2,5.2-6.3,6.1c-2.3,0.7-4.8,1.4-7.1,1.8
		C231.2,169.9,227.8,172.1,225.2,175.8z M267.5,40.9c-4.8-0.2-9.9-0.1-16.4,0.1c-2.8,0.1-5.1,1.7-6.9,4.8c-1.6,2.9-2.1,6-2.6,9.1
		l-0.2,1.2c-0.5,3.1-0.9,5.9-1.2,9c-0.3,3.2-0.5,6.4-0.6,9.6c-0.1,3.1-0.7,6.1-1.9,9.1c-1.2,0.2-1.8-0.3-2.2-1.6
		c-0.2-0.6-0.4-1.1-0.6-1.6c-0.2-0.4-0.3-0.8-0.5-1.2c-0.8-2.4-2.6-3.7-5.3-3.7c-8.9,0.2-15.5,2.4-20.8,6.7
		c-2.9,2.3-4.7,5.1-5.3,8.4c-0.8,4-1.4,8.1-2,12c-0.1,0.2-0.1,0.4-0.1,0.6c0,0.2,0,0.4-0.1,0.6c-0.5,3-0.5,3-3.4,3.4l-0.3,0
		c-2.6,0.4-5.2,0.9-7.7,1.5c-0.9,0.2-1.7,0.4-2.6,0.5c-0.7,0.1-1.5,0.3-2.2,0.5c-1.8,0.4-3.7,0.8-5.5,0.9c-3.7,0.3-6.6,1.8-8.7,4.7
		c-0.7,1-1.4,1.2-2.8,1.3c-2.8,0.2-5.1-0.8-7-2.9c-0.3-0.3-0.6-0.6-0.8-0.9c-0.7-0.7-1.4-1.4-1.9-2.3c-2.4-3.6-4.9-7.2-7.2-10.8
		c-1.4-2.2-2.9-4.3-4.4-6.5c-0.2-0.3-0.4-0.7-0.7-1.1c-0.7-1.1-1.3-2.2-2.2-3.1c-3.7-4-5.9-9.1-6.6-15c-0.6-4.5-1.1-10.4,0.2-16.2
		c1.5-6.7,4.9-12.6,10.3-18.1c0.7-0.8,1.5-1.3,2.4-1.9l10.8-6.6c7-4.3,11.1-10,12.7-17.3c0.4-1.6,0.8-3.2,1.1-4.8
		c0.3-1.6,1.2-2.5,2.8-2.8l0.6-0.1c1.1-0.3,2.3-0.5,3.4-0.5c1.3,0,2.6,0,3.8,0c1.3,0,2.5,0,3.8,0c3.8,0,7.7,0.1,11.4,0.4
		c11.6,1.1,21.6,3.5,30.6,7.4c2.7,1.1,5.4,2.5,8.5,4.4c2.6,1.6,5.2,3.2,7.7,4.8c3.5,2.2,7.2,4.6,10.9,6.7c3.9,2.3,7.6,4.6,11.2,7.3
		c1.3,1,2.4,1.9,3,3.6C270.5,40.8,269.2,40.9,267.5,40.9z M175.9,161.8c4.1,1.4,7.9,2.5,11.5,3.2c7.8,1.7,14.7,5.2,20.5,8.4
		c2.8,1.5,5.7,3.2,8.5,4.7c2.8,1.6,5.7,3.2,8.6,4.8c2.4,1.3,4.3,3,6.2,5.1c3.2,3.8,6.4,6.4,9.9,8c3.2,1.4,4.8,4.2,5.2,8.3
		c0.1,2,0.1,4.1,0,6c0,0.8,0,1.6,0,2.4c-2.2-1-4.4-1.9-6.6-2.8c-2.4-1-4.8-2-7.1-3c-9.4-4.8-18.8-3.7-25.9-2.2
		c-6.6,1.4-13,4.2-20.2,8.9c-6.9,4.6-14.2,9-21.3,13.2c-2.5,1.5-5.1,3-7.6,4.6c-0.7,0.4-1.4,0.9-2.1,1.4c-1.9,1.2-3.6,2.3-5.5,3.2
		c-3.7,1.8-7.5,3.5-11.2,5.1c-1.5,0.7-3.1,1.4-4.6,2.1c-1.4,0.6-2.8,1.2-4.2,1.8c-3.3,1.4-6.8,2.9-10.1,4.5
		c-6.1,2.8-12,4.6-17.4,5.4c-5.7,0.7-11.9,1-17.7-1.2c-2.2-0.8-4.6-1.3-6.9-1.8c-0.8-0.2-1.7-0.3-2.5-0.5c-2.7-0.6-4.5-2-5.6-4.5
		c-1.3-2.8-2.6-5.5-3.9-8.2c-1.3-2.7-2.6-5.4-3.8-8.2c-0.4-1.1-0.7-2.3-0.8-4c-0.3-3.9,0.5-7.7,1.2-11.4c0.3-1.5,0.6-3,0.8-4.5
		c0.7-4.6,2.2-9.4,4.4-14.6c2.5-5.9,4.9-12,7.3-17.9c3.5-9,9.4-16.9,18-24.4c2.9-2.6,6-3.9,9.4-4.1c3.9-0.2,7.7-0.4,11.6-0.4
		c3.6,0,7.1,0.2,10.7,0.6c2.2,0.3,4.4,0.5,6.6,0.7c2.9,0.3,5.8,0.5,8.7,0.9c4.7,0.6,9.7,1.6,15.1,2.9c2.2,0.5,4.3,1.4,6.4,2.2
		c0.9,0.3,1.7,0.7,2.6,1c1.5,0.6,3,1.1,4.5,1.7C170.7,159.9,173.3,160.9,175.9,161.8z M354.9,313.9c-0.2,0.6-0.5,1.2-0.8,1.8
		c-3.4,0.9-6.8,2.7-10,4.6c-6.6,3.9-10.3,10.1-11.3,18.9c-0.3,2.1-0.2,4.2-0.2,6.2c0,1.2,0,2.3,0,3.5c0,0.5,0,1-0.1,1.6
		c-0.6-0.1-1.3-0.3-1.9-0.4c-2.3-0.5-4.5-0.9-6.7-1.1c-1.3-0.1-2.7-0.2-4-0.2c-0.9,0-1.7,0-2.6,0c-0.8,0-1.7,0-2.6,0
		c-0.3-0.8-0.7-1.7-1-2.5c-0.7-1.8-1.3-3.5-2.2-5.2c-1.6-3.1-1.4-6,0.7-9.8c7.2-13.1,14.2-26.7,21.1-39.8l2.3-4.5
		c0.8-1.5,1.7-2.1,3.3-2c5.9,0.2,12,0.3,17.8,0.4c3,0.1,6,0.1,9,0.2c1.5,0.1,3,0.3,4.8,0.5l1,0.1c-0.6,1-1,1.8-1.5,2.5
		c-1.8,2.9-3.5,5.7-5.3,8.6c-2.8,4.6-5.7,9.3-8.6,14C355.7,312.2,355.3,313,354.9,313.9z"/>
</g>
</svg>
