<svg xmlns="http://www.w3.org/2000/svg" viewBox="0 0 1024 640"><defs><style>.cls-1{fill:#fff;}</style></defs><g id="레이어_2" data-name="레이어 2"><g id="레이어_1-2" data-name="레이어 1"><path class="cls-1" d="M0,0H1024V640H0ZM695.2,493.4c-1.3,5.8-.5,7.3,5.4,7.7,15.7,1,31.5,2.3,47.3,2.5,18.8.3,37.6-.5,56.4-.8,4.3-.1,8.7.3,13-.1,13.2-1.3,26.4-3.1,39.6-4.2s27.3-1.8,40.9-2.7c2.8-.2,4.6.5,5.1,3.9,2,12.8,5,25.5,6.2,38.4,2.3,24.6,3.5,49.2,5.3,73.9.6,8.6,1.5,17.1,2.2,25.8h8.9c-.3-2.9-.5-5.5-.7-8.2-1.4-16.7-2.8-33.4-4.3-50.1-.3-3.7.8-5.2,4.6-5.4,2-.1,4.5-.8,5.7-2.1,6.5-7.2,15-12.7,18.3-22.6s7.2-16.9,9.5-25.6c3.4-13.2,7.6-26.3,7.7-40.1.1-22.1.5-44.3.4-66.4-.2-27.8.6-55.7-4.5-83.2-3.5-18.5-5-37.7-16-54.1-2.8-4.2-5.5-8-10.5-10a10,10,0,0,1-4.5-4.8c-4.8-9.5-8-19.9-14.1-28.4a101.2,101.2,0,0,0-23.5-23.6c-8.3-5.7-18.7-8.5-28.3-12.1-5.3-2-6-2.6-3.8-7.7s5.2-11.1,7.6-16.7c6.6-15,9.2-30.8,10.6-47,1.8-21.8-1.1-42.4-17.3-58.5a65.1,65.1,0,0,0-19.8-13.5c-9.5-4-20.1-3.9-30.5-2.9-20.3,1.9-40.5,4.4-59.1,13.1-10.5,4.9-19.3,12.8-20.9,25.3-1,8-1.7,16.5-.2,24.2,3.2,16.5,7.6,32.7,12.3,48.8,3.3,11.3,7.6,22.3,12,33.2,2.2,5.3,5.6,10.1,8.5,15.1s3.1,6.5-.7,10.2-7.1,9.4-11.3,13.5-9.9,9.9-15.9,12.4c-12,5.1-24.8,8.5-37.3,12.4-14.6,4.6-28.2,9.5-38.4,22.8s-16.1,26.8-19.8,42.3c-2,8.5-4,17.1-6.3,25.6-.5,1.9-2.2,3.4-3.4,5.1-1.3-1.7-3.1-3.3-3.9-5.3-1.6-3.8-2.1-8.1-4-11.8-3.8-7.2-8.4-14.1-12.3-21.3s-9.7-10.7-17.9-10.1c-2.6.3-5.2,1-7.8,1.5-5.1,1-10.1,2.3-15.1,3s-8.1,1.8-8,8.3c.4,12.6,1.4,25.2,2.1,37.8.4,8.1,1.6,15.6,6.3,22.7,2.8,4.2,4.1,9.9,4.7,15.1,2.6,24.3,4.3,48.7,7,72.9s13.3,42.9,28,60.6a25.1,25.1,0,0,1,4.2,7c3.4,8.9,10,12.1,18.1,7.2,5.5-3.3,11.4-7.3,14.9-12.6,8.9-13.6,16.6-28.2,24.9-42.3.8-1.4,2.5-2.3,3.7-3.4.8,1.5,2.2,3,2.2,4.5.1,11.4.3,22.9-.4,34.3-2.1,31.7-4.6,63.4-6.8,95.1-.4,5.2-.1,10.5-.1,15.7h8.3c.5-10.9,1-21.5,1.5-32.2.3-5.3,1.1-5.7,6.1-4.2,7.6,2.4,15.2,5.4,23,6.7,19.8,3.1,39.8,5.7,59.8,8.1a82.8,82.8,0,0,0,19.9.5,289.9,289.9,0,0,0,37.2-6.8c25.6-6.7,51.2-8.6,77-2.1,1.3.3,2.9-.5,4.3-.8-.6-1.6-.7-4-1.8-4.6a39.3,39.3,0,0,0-9.2-3.4,127.2,127.2,0,0,0-62.8.5c-26,7-52.1,10.9-79,6.5l-65-10.4c-5.9-.9-7.6-2.9-7.2-8.6.9-13.1,2.2-26.2,3-39.3s2-29.2,1.9-43.9c0-12.7-1.7-25.5-2.1-38.3-.3-6.4-1-12.7,2-19.1a239.2,239.2,0,0,0,9.8-26c5-14.6,8.1-29.5,8-45,0-4,1.9-5.3,5.6-5l11.9.9c16.5.9,33,2.1,49.4,2.4s31.3-.6,47-.9c26.3-.5,52.6-1.1,78.9-1.4,6.4-.1,12.9.5,19.4.7,3.7.1,5,1.7,4.6,5.3-.6,5.3-.7,10.7-1.5,15.9-2.6,16.5-5.8,32.8-8,49.3-1.4,11-1.5,22.2-2,33.4s-2.2,11.5-11.8,11.7-17.7.4-26.5,1.2c-17.9,1.6-35.7,4.3-53.6,5.4-19.5,1.1-39,1.2-58.5,1C739.2,495.1,717.3,494,695.2,493.4ZM91,637.9c1.6-7.2,3.9-8.8,7.6-5.2,7.1,6.9,15.3,5.4,23.8,4.7a129.4,129.4,0,0,0-14.6-8.9C98.6,624,93.3,617.6,96,606.7c.3-1.1-.1-2.4.1-3.5s.6-4.2,1.6-4.7,3.5.4,5,1.2c4.4,2.3,8.5,5.2,13,7.3,14.1,6.7,29.3,9.3,44.5,12.2,20.5,3.8,41.1,3.8,61.7,3.4a263.9,263.9,0,0,0,33.3-2.8c10.3-1.6,20.4-4.5,30.7-6.5,1.3-.3,4.3.8,4.3,1.3,0,5.8.2,11.7-1,17.3-.4,2.1-4.4,3.4-6.7,5.1-.2.2-.1.6-.1.7h16.3c0-6.4-.2-12.5.1-18.6.9-24.6,1.5-49.3,3.1-73.8s-1.6-48.5.5-72.7c.4-5,1.6-6.5,6.7-6.9,8-.6,15.9-1.3,23.8-2.6,2.3-.3,4.8-2.1,6.5-4,6.4-6.9,11.7-15,18.8-21.1,10.9-9.5,15.3-21.6,15.1-35s3.4-25,7-37.2,3.7-26.3-5-38.1c-2-2.6-1.7-4.4.5-6.9a44.4,44.4,0,0,0,10.9-22.5c.9-5.2-.7-7.5-5.8-7.9-10.1-.6-20.2-.8-30.3-1.1-6.2-.2-9.8,3.6-12.4,8.5-1.1,2.2-1.6,4.8-3,6.8-4.9,7.1-7.7,15.9-17.7,18.5-4.2,1-5.6.1-6.5-3.3-3.7-14.3-8.2-28.5-10.8-43-3-17-11.5-30.2-24.6-40.6a10.9,10.9,0,0,1-4.1-7.3c-.8-4.2-2.1-8.7-4.5-12.2s-6.8-6.2-9.9-9.5-6.9-6.9-5.3-12.1a36,36,0,0,1,5.3-9.3c5-7,10.6-13.7,15.4-20.9,2.5-3.6,3.6-8.2,5.8-12a5.3,5.3,0,0,1,4.6-2.2c5.1,1,7.7-.6,7.1-5.8-.4-3.4-1.9-6.6-3-9.9-1.9-6-5.4-12.1-2.1-18.2,6.6-12,7.6-24.6,5-37.7-.7-3.6-.4-5.6,3-7.6,5.4-3.2,6.4-9,2-13-6.3-5.8-12.9-11.7-20.2-16-9.6-5.5-20.2-9.3-30.2-14-14.9-7.1-30.6-9.8-47-9.2-12.5.5-21.7,8.5-22.4,20.4-.2,3.8-1.6,5.6-4.8,7.1-10,4.8-16.3,12.5-19.6,23.2s-2.7,21.9.9,32.6,7.4,22.8,17.4,30,11.1,14.7,7,25.1c-1.4,3.5-2.6,4.1-6.1,3.5-12.5-1.9-25-4-37.6-4.9s-32,3.9-38.9,22.5c-2.9,8.1-5.4,16.4-8.4,24.5-4.1,11-8.5,22-12.5,33-.8,2.1-1.3,4.8-.5,6.6,3,7.4,6.9,14.4,9.9,21.7,1.4,3.2,2.8,7.2,2,10.3-2.2,9.1-6,17.9-8.3,27.1-3.4,14.1-9.2,28.2-7.5,42.9S73,375.8,76.6,391c2.7,11.5,6,22.9,5.2,34.9-.2,3.4-.9,6.9-.9,10.4.4,17.9,1.4,35.9,1.2,53.8-.4,27.8-1.6,55.6-2.3,83.4,0,3.4.4,7.2,1.9,10.2,5.9,12.4,6.1,25.3,3.6,38.5-1,5.1-1.6,10.3-2.4,15.7Z"/><path d="M695.2,493.4c22.1.6,44,1.7,65.8,1.8,19.5.2,39,.1,58.5-1,17.9-1.1,35.7-3.8,53.6-5.4,8.8-.8,17.6-1,26.5-1.2s11.4-2,11.8-11.7.6-22.4,2-33.4c2.2-16.5,5.4-32.8,8-49.3.8-5.2.9-10.6,1.5-15.9.4-3.6-.9-5.2-4.6-5.3-6.5-.2-13-.8-19.4-.7-26.3.3-52.6.9-78.9,1.4-15.7.3-31.3,1.1-47,.9s-32.9-1.5-49.4-2.4l-11.9-.9c-3.7-.3-5.6,1-5.6,5,.1,15.5-3,30.4-8,45a239.2,239.2,0,0,1-9.8,26c-3,6.4-2.3,12.7-2,19.1.4,12.8,2.1,25.6,2.1,38.3.1,14.7-1,29.3-1.9,43.9s-2.1,26.2-3,39.3c-.4,5.7,1.3,7.7,7.2,8.6l65,10.4c26.9,4.4,53,.5,79-6.5a127.2,127.2,0,0,1,62.8-.5,39.3,39.3,0,0,1,9.2,3.4c1.1.6,1.2,3,1.8,4.6-1.4.3-3,1.1-4.3.8-25.8-6.5-51.4-4.6-77,2.1a289.9,289.9,0,0,1-37.2,6.8,82.8,82.8,0,0,1-19.9-.5c-20-2.4-40-5-59.8-8.1-7.8-1.3-15.4-4.3-23-6.7-5-1.5-5.8-1.1-6.1,4.2-.5,10.7-1,21.3-1.5,32.2h-8.3c0-5.2-.3-10.5.1-15.7,2.2-31.7,4.7-63.4,6.8-95.1.7-11.4.5-22.9.4-34.3,0-1.5-1.4-3-2.2-4.5-1.2,1.1-2.9,2-3.7,3.4-8.3,14.1-16,28.7-24.9,42.3-3.5,5.3-9.4,9.3-14.9,12.6-8.1,4.9-14.7,1.7-18.1-7.2a25.1,25.1,0,0,0-4.2-7c-14.7-17.7-25.4-37.4-28-60.6s-4.4-48.6-7-72.9c-.6-5.2-1.9-10.9-4.7-15.1-4.7-7.1-5.9-14.6-6.3-22.7-.7-12.6-1.7-25.2-2.1-37.8-.1-6.5,1.6-7.5,8-8.3s10-2,15.1-3c2.6-.5,5.2-1.2,7.8-1.5,8.2-.6,13.9,2.8,17.9,10.1s8.5,14.1,12.3,21.3c1.9,3.7,2.4,8,4,11.8.8,2,2.6,3.6,3.9,5.3,1.2-1.7,2.9-3.2,3.4-5.1,2.3-8.5,4.3-17.1,6.3-25.6,3.7-15.5,9.8-29.4,19.8-42.3s23.8-18.2,38.4-22.8c12.5-3.9,25.3-7.3,37.3-12.4,6-2.5,11.1-7.7,15.9-12.4s7.1-9.5,11.3-13.5,2.7-6.7.7-10.2-6.3-9.8-8.5-15.1c-4.4-10.9-8.7-21.9-12-33.2-4.7-16.1-9.1-32.3-12.3-48.8-1.5-7.7-.8-16.2.2-24.2,1.6-12.5,10.4-20.4,20.9-25.3,18.6-8.7,38.8-11.2,59.1-13.1,10.4-1,21-1.1,30.5,2.9a65.1,65.1,0,0,1,19.8,13.5c16.2,16.1,19.1,36.7,17.3,58.5-1.4,16.2-4,32-10.6,47-2.4,5.6-5.1,11.1-7.6,16.7s-1.5,5.7,3.8,7.7c9.6,3.6,20,6.4,28.3,12.1a101.2,101.2,0,0,1,23.5,23.6c6.1,8.5,9.3,18.9,14.1,28.4a10,10,0,0,0,4.5,4.8c5,2,7.7,5.8,10.5,10,11,16.4,12.5,35.6,16,54.1,5.1,27.5,4.3,55.4,4.5,83.2.1,22.1-.3,44.3-.4,66.4-.1,13.8-4.3,26.9-7.7,40.1-2.3,8.7-6.7,16.9-9.5,25.6s-11.8,15.4-18.3,22.6c-1.2,1.3-3.7,2-5.7,2.1-3.8.2-4.9,1.7-4.6,5.4,1.5,16.7,2.9,33.4,4.3,50.1.2,2.7.4,5.3.7,8.2h-8.9c-.7-8.7-1.6-17.2-2.2-25.8-1.8-24.7-3-49.3-5.3-73.9-1.2-12.9-4.2-25.6-6.2-38.4-.5-3.4-2.3-4.1-5.1-3.9-13.6.9-27.3,1.5-40.9,2.7s-26.4,2.9-39.6,4.2c-4.3.4-8.7,0-13,.1-18.8.3-37.6,1.1-56.4.8-15.8-.2-31.6-1.5-47.3-2.5C694.7,500.7,693.9,499.2,695.2,493.4ZM866.2,330c15.8-1.3,35.9-3.3,48.4-22.4,8-12.2,13.5-25.3,8.8-40.4-1.1-3.6-3.1-6.9-4.3-10.4-4.7-13.7-12.7-25.2-24.5-33-18.9-12.7-39.8-19.8-63.1-16.7-25.5,3.5-48.8,12.3-67.8,30.3a157.3,157.3,0,0,0-13,14.1c-.8.8-.8,3.2-.1,4.1,6.9,9.5,13.1,19.6,21.2,28s18.1,15.8,27.6,23.2C817.7,320.9,838.2,329.7,866.2,330Zm6-209.5c-1.2-7-2-14.1-3.6-21.1-1.8-8.7-5.9-16.4-13.1-22.2-4.6-3.6-8.6-8.7-13.8-10.8-14.4-5.6-29.5-3.3-44.4-1.5a182.5,182.5,0,0,0-26.2,5.6,91.7,91.7,0,0,0-19.8,7.8c-3.5,2-7.3,5.9-8.1,9.6-1.9,8.5-3.5,17.5-2.6,26.1a202.4,202.4,0,0,0,7.9,38.5c5.1,16.5,7.9,34,17.9,48.8,2.9,4.4,5.4,9,8.5,13.1.7.9,3.3.8,4.7.3,3.3-1.4,6.4-3.4,9.7-4.9,16.2-7,32.9-12.1,50.7-11.9,7.1.1,10.8-3.2,13.6-8.5C865.1,167.9,871.8,145.2,872.2,120.5ZM698.6,373.4c-.7-5.4-.9-11-2.3-16.2-6-22.8-12.3-45.6-18.5-68.3-1.2-4.4-3.2-5-6.7-1.8-8.3,7.6-13.4,17.3-16.8,27.7-4.5,14.2-8.2,28.7-11.9,43.1-4.6,18-11,35.5-12.8,54.1-1.2,12.4-3.5,24.6-5.5,36.9a60.3,60.3,0,0,1-2.4,11.2c-.5,1.4-2.8,2.7-4.4,2.9a7.4,7.4,0,0,1-5.2-1.7c-.6-.5.7-3.1,1.3-4.7s1.2-2,1.3-3.1c1-9.3,1.8-18.6,2.7-27.8.3-3-.9-4.3-4-3.8-7.1,1-14.2,2.1-21.3,2.9-4.2.4-5.4,2.5-4.8,6.3s1.4,9.6,1.9,14.4c1,9.9,1.7,19.8,3,29.7,1.7,13.4,8.6,25,14,37.1a23.7,23.7,0,0,0,2.2,3.3c4.8,6.3,10.1,12.3,14.3,19.1,2.3,3.8,4.2,4.4,7.4,2.2s8.4-5.4,11.1-9.1c7.4-10.2,15.5-20.4,20.7-31.8,6.8-15.1,11.1-31.4,16.4-47.3,3.5-10.2,6.3-20.6,10.2-30.7C694.1,403.6,697.9,389,698.6,373.4Zm235.5-78.9-1.8-.2c-2.9,5.3-5.1,11.2-8.9,15.8-5.5,6.6-11.2,14.1-18.5,18.2-22.5,12.6-46.9,13.2-71.2,6-10.4-3.1-20.5-8.5-29.7-14.6a275.3,275.3,0,0,1-34.8-27.1c-8.2-7.6-14.8-17.1-21.9-26-5.7-7.2-5.6-7.7-14.6-5.1-14.4,4.3-28.7,9.2-43.1,13.8-4.5,1.5-5.7,4.2-4.3,8.8,4,12.7,7.8,25.4,11.4,38.2s6.1,23.2,9,34.8c.7,2.9,1.9,4.7,5.3,4.8,18.9.9,37.8,2.3,56.8,2.8,15.3.4,30.6-.2,45.9-.5,8.8-.1,17.6-.4,26.4-.6,12.5-.3,24.9-.9,37.4-.8s24.6.8,36.9,1.1c4.9.2,9.9-1.1,12.3-5.3a50.4,50.4,0,0,0,5.1-15.5c.9-5.3.1-10.9.4-16.3C932.7,316.1,933.5,305.3,934.1,294.5ZM949.9,325c-1.4,1.6-2.4,2.3-2.6,3.1-1.2,5.8-1.8,11.8-3.4,17.5s-2.8,12.3-6.4,16.6-3.8,5.4-4.3,9.1c-1.5,13-3.1,26.1-5,39-2.6,17.3-5.5,34.5-8.4,51.7-1.5,8.8-3.4,17.6-5.2,26.3-.8,4.2-2.5,8.3-2.4,12.4s1.6,9.8,2.3,14.8l6.6,44.8c.2,1.4.7,3.7,1.6,4s3.2-.4,4.4-1.2c6.1-3.8,9.9-9.6,13.3-15.8,8.2-14.6,9.3-31.4,14.7-46.8a30.2,30.2,0,0,0,1.9-9.3c.5-14.1.9-28.3,1-42.4,0-1.8-1.4-3.9-2.8-5.1-3.5-3-4.2-5.9-1.7-9.9,1-1.6,2.1-3.5,2.2-5.3.5-18.3,1.6-36.6,1.1-54.8-.4-14.4-2.8-28.8-4.5-43.1C952.1,328.9,950.9,327.3,949.9,325ZM627.2,374.1a40,40,0,0,0-1.7-5.8c-2.2-4.5-4.4-8.9-6.8-13.2-6.3-11.3-12.6-22.5-19-33.7-2.2-3.9-5.4-4.2-9.3-2.5a49.8,49.8,0,0,1-10.4,3.2c-4.1.8-5.4,2.5-3.1,6,3.3,5.3,7,10.4,10.1,15.8,6.4,11,12.5,22.1,18.6,33.3,3.1,5.6,5.9,11.4,9.1,17a9.9,9.9,0,0,0,3.9,3.4c.3.2,2-.9,2.2-1.6C623,388.8,625.1,381.4,627.2,374.1Zm-38.5,42.5c7.5-.9,13.6-1.5,19.7-2.4s5.4-2.5,2.4-6.6-5.6-6.9-7.8-10.7c-5.4-9.3-10.9-18.6-15.6-28.3-2.4-4.8-5.4-3.5-8.6-2.3s-4.4,3.8-2.9,7.6c2.8,6.9,5.6,13.8,7.4,20.9,1.3,5.3,1.2,10.9,1.3,16.4S585.6,417.3,588.7,416.6ZM935.4,284c3.8,9.4,1.3,19,1.1,28.5C937.8,303,939.6,293.4,935.4,284Z"/><path d="M91,637.9H82.9c.8-5.4,1.4-10.6,2.4-15.7,2.5-13.2,2.3-26.1-3.6-38.5-1.5-3-1.9-6.8-1.9-10.2.7-27.8,1.9-55.6,2.3-83.4.2-17.9-.8-35.9-1.2-53.8,0-3.5.7-7,.9-10.4.8-12-2.5-23.4-5.2-34.9-3.6-15.2-6.8-30.6-8.5-46.1s4.1-28.8,7.5-42.9c2.3-9.2,6.1-18,8.3-27.1.8-3.1-.6-7.1-2-10.3-3-7.3-6.9-14.3-9.9-21.7-.8-1.8-.3-4.5.5-6.6,4-11,8.4-22,12.5-33,3-8.1,5.5-16.4,8.4-24.5,6.9-18.6,25.4-23.4,38.9-22.5s25.1,3,37.6,4.9c3.5.6,4.7,0,6.1-3.5,4.1-10.4,2.5-18.3-7-25.1s-13.6-18.9-17.4-30-4.3-21.5-.9-32.6,9.6-18.4,19.6-23.2c3.2-1.5,4.6-3.3,4.8-7.1.7-11.9,9.9-19.9,22.4-20.4,16.4-.6,32.1,2.1,47,9.2,10,4.7,20.6,8.5,30.2,14,7.3,4.3,13.9,10.2,20.2,16,4.4,4,3.4,9.8-2,13-3.4,2-3.7,4-3,7.6,2.6,13.1,1.6,25.7-5,37.7-3.3,6.1.2,12.2,2.1,18.2,1.1,3.3,2.6,6.5,3,9.9.6,5.2-2,6.8-7.1,5.8a5.3,5.3,0,0,0-4.6,2.2c-2.2,3.8-3.3,8.4-5.8,12-4.8,7.2-10.4,13.9-15.4,20.9a36,36,0,0,0-5.3,9.3c-1.6,5.2,2.1,8.8,5.3,12.1s7.4,5.8,9.9,9.5,3.7,8,4.5,12.2a10.9,10.9,0,0,0,4.1,7.3c13.1,10.4,21.6,23.6,24.6,40.6,2.6,14.5,7.1,28.7,10.8,43,.9,3.4,2.3,4.3,6.5,3.3,10-2.6,12.8-11.4,17.7-18.5,1.4-2,1.9-4.6,3-6.8,2.6-4.9,6.2-8.7,12.4-8.5,10.1.3,20.2.5,30.3,1.1,5.1.4,6.7,2.7,5.8,7.9a44.4,44.4,0,0,1-10.9,22.5c-2.2,2.5-2.5,4.3-.5,6.9,8.7,11.8,8.9,24.9,5,38.1s-7.2,24.1-7,37.2-4.2,25.5-15.1,35c-7.1,6.1-12.4,14.2-18.8,21.1-1.7,1.9-4.2,3.7-6.5,4-7.9,1.3-15.8,2-23.8,2.6-5.1.4-6.3,1.9-6.7,6.9-2.1,24.2,1,48.4-.5,72.7s-2.2,49.2-3.1,73.8c-.3,6.1-.1,12.2-.1,18.6H282.4c0-.1-.1-.5.1-.7,2.3-1.7,6.3-3,6.7-5.1,1.2-5.6,1-11.5,1-17.3,0-.5-3-1.6-4.3-1.3-10.3,2-20.4,4.9-30.7,6.5a263.9,263.9,0,0,1-33.3,2.8c-20.6.4-41.2.4-61.7-3.4-15.2-2.9-30.4-5.5-44.5-12.2-4.5-2.1-8.6-5-13-7.3-1.5-.8-3.7-1.7-5-1.2s-1.2,3-1.6,4.7.2,2.4-.1,3.5c-2.7,10.9,2.6,17.3,11.8,21.8a129.4,129.4,0,0,1,14.6,8.9c-8.5.7-16.7,2.2-23.8-4.7C94.9,629.1,92.6,630.7,91,637.9Zm171.3-27.6,23.8-7c3.5-.9,4.7-2.9,4.8-6.5.1-8.8.6-17.6,1.2-26.4.9-15.9,2.6-31.8,2.6-47.7s-2-28.8-3-43.3c-.2-2.2-.1-5,1.1-6.6,3.4-4.9,3.6-5.8-1.6-8.6-9.1-4.9-17.7-10.3-23.4-19.4-1.9-2.9-4.8-5.2-6.4-8.3-3.2-6.1-5.5-12.7-8.8-18.8-8.3-15.1-17.4-29.8-25.3-45.1-6.4-12.5-15-23.1-24.6-33.2a14.3,14.3,0,0,1-3.6-7c-2.6-16.5,7.2-29.6,12.7-43.8a3.1,3.1,0,0,1,1.7-1.7c2.3-.4,4.6-.4,6.9-.6,0,2,.6,4.1,0,5.8-3.8,10.6-8,21.1-11.7,31.7-1.4,4-1.3,8.2,3.2,11s7.3,6.9,9.9,11.8c8.1,15.4,17.3,30.2,26,45.3,5.1,8.8,9.3,18,15.1,26.2a50.1,50.1,0,0,1,6.9,13.4c2.9,8.6,9,15.4,17.2,18.1,12.6,4,25.8,6.2,39.2,4.2,3.4-.5,7.4-1.6,9.7-4,7.1-7.1,13.6-14.8,20.2-22.5,2.2-2.7,5.1-5.6,5.7-8.8,1.6-8.3,2.2-16.7,3.1-25.1.4-4.1-.4-8.8,1.2-12.3,5.1-10.6,6.1-21.9,7.3-33.2.5-5.4-2.2-9.3-5.4-12.9-1-1.1-3.9-1.5-5.5-.9-9,2.8-10.7,11-11.7,18.6s1,9.1,7.6,8.3c3.2-.5,5.9.9,5.5,4a11.5,11.5,0,0,1-4.2,6.8c-1.5,1.1-4.5,1.3-6.4.8-6.7-1.9-13.3-4.4-19.9-6.3-3.2-.9-4.7,1.3-3.4,4.3s3.1,5.3,3.8,8.1c2,8.3,7.2,16.4,1.9,25.2-.7,1.2-2.5,2.5-3.7,2.4s-2.3-2.1-2.5-3.4c-2-12.2-5-24-11.4-34.8a51.5,51.5,0,0,1-4.6-9.8c-2.1-7.1-3.6-14.4-5.7-21.6-5.6-19.7-12.6-39.2-16.7-59.3-3.4-16.5-10.1-29.9-24.3-38.5-10.4-6.3-21.4-11.3-32.4-16.4-2.8-1.3-6.6-1.3-9.7-.7-12.8,2.1-23.7,8.3-33.9,16A233.6,233.6,0,0,1,127.1,273c-9.8,3.6-19.8,6-30.3,2.6-1.2-.3-4,1.4-4.7,2.9a53,53,0,0,0-4.6,12.6c-3.5,15.7-7.6,31.4-9.7,47.3-1.7,12.7,2,25.2,4.8,37.8,4.3,18.7,6.5,38,9.5,57,.2,1.6-.4,3.3-.5,4.9-.6,6.9-1.7,13.8-1.6,20.6.2,15.3,1.5,30.6,1.4,45.9-.1,19.5-1.2,39-1.6,58.5-.3,10.7,3.4,20.3,12.5,26.2s16.3,10,25.2,12.5a429.9,429.9,0,0,0,49.2,10.4c10.9,1.7,22.2,1.6,33.3,1.7s24.6-.9,36.9-1.3c3.5-.1,4.9-1.7,5-5.3.4-16.1,1.5-32.2,1.5-48.4.1-13.3-1-26.6-1.6-39.9-.3-5.4,1.2-6.8,6.2-6.1s3.6,2.9,3.7,5.5l.6,67.4C262.4,593.4,262.3,601,262.3,610.3Zm-145-442.4c-3.7,1.7-7.9,2.3-9.8,4.8a65.9,65.9,0,0,0-9.4,16.8c-4.8,13.4-8.3,27.3-13.4,40.6-3.1,7.8-2.1,14.5,1,21.5.6,1.6,1.5,3,2,4.6,2.3,7.5,13.3,14.6,21.3,12.5,10.1-2.6,20.7-4.2,30.1-8.5,12.3-5.6,23.7-13.2,35.4-20.3s23.8-14.9,35.8-22.1a36.7,36.7,0,0,1,26.1-4.3c3.8.7,7.4,2.8,11.2,4,1.1.4,2.9.4,3.6-.3s.8-3.1.3-3.5c-2.9-2.2-5.9-5.1-9.2-5.7s-5.9-1.8-6.2-6c-.1-1.4-2-2.9-3.4-3.9s-2.9-.8-4.3-1.3c-15.1-5.5-29.8-12.5-45.4-16.4C161.5,175.1,139.4,172,117.3,167.9ZM278.6,60.5l.9-1.7c-3-3-5.7-6.7-9.3-8.8a189.9,189.9,0,0,0-22.5-11.4c-15.3-6.5-31-11.1-47.9-10.5-11.3.3-14.8,3.6-14.6,14.6.1,4.8-1.8,7.5-5.9,9.3-2.2,1-4.8,1.8-6.6,3.3-3.7,3.2-8.2,6.3-10.3,10.5-7.2,14.3-5.8,29,.3,43.3a121.3,121.3,0,0,0,7.3,13.8c4.5,7.6,10.7,9.4,18.3,5.4a20.3,20.3,0,0,1,4.6-1.9c7.9-1.9,7.7-1.9,9-9.9.9-5.7,3.5-10.7,9.2-13.1,3.8-1.7,7.9-2.9,11.5-4.9,7.5-4.4,15.2-6.2,23.6-3.3,3.6,1.2,4.7.2,5.1-3.4.7-6.1,1.2-12.3,2.8-18.2,2.6-9.5,8-13.9,17.3-13.1C273.8,60.7,276.2,60.5,278.6,60.5Zm3.3,28.2A80.1,80.1,0,0,0,280,78.4c-1.6-6.1-6.8-10.1-11.7-9.5s-6.4,4.5-7.2,11.2-2.2,15.8-3.7,23.6c-1.1,5.2-3.5,6.1-8.4,4-2.3-1-4.5-2.8-6.8-3s-8.7-1-11.1,1c-4.5,3.6-8.5,8.7-5.5,15.7.6,1.4.3,3.3,0,4.9-2.4,12.4-7.8,16.8-19.6,9.5l-1.3-.8c-5.3-2.9-13.9.2-15.3,6-2,8.8-3.4,17.7-4.9,26.5-.6,3.2,1,4.9,4,5.8,11.9,3.8,23.7,7.8,35.6,11.7,1.2.4,3.2.7,3.9,0s.5-2.6.3-4c-.2-3.1-1.4-6.4-.7-9.3s3.3-4.5,5-6.8c1.9,2,4.2,3.7,5.4,5.9s.7,4.3,1.1,6.4a52.2,52.2,0,0,0,2.5,8.8c1.8,3.7,3.9,3.7,6.1.3s3.1-5.6,5.2-7.9c10.8-12.2,18.8-26,22.8-41.9.3-1.4.6-3.7-.1-4.2-6.3-4.9-3.1-10.2-.7-15.2A70.7,70.7,0,0,0,281.9,88.7Zm81.5,209.1c-.1-.4-.1-.8-.2-1.2-4.7,1.2-10.3,1.1-13.8,3.8s-6.5,8.2-8.8,12.9c-1.5,3-1.2,5.7,3.4,7.5,7.2,2.7,13.5,2.5,18.9-2.6a94.4,94.4,0,0,0,12.8-15.3c1.8-2.5.5-5.1-3.3-5.1Zm-42.7,52.7c-.3,4.2,1.2,5.9,5.6,5.6a28.8,28.8,0,0,1,8.7,1.4c5.1,1.6,5,1.3,5.9-3.6a88.4,88.4,0,0,1,4.5-16c.9-2.6,1-4.3-1.5-5.8s-7.6-4.6-11.6-6.6c-1-.5-3.8.2-4.1.9C325.5,334.3,323.1,342.4,320.7,350.5Z"/><path class="cls-1" d="M866.2,330c-28-.3-48.5-9.1-66.8-23.2-9.5-7.4-19.3-14.6-27.6-23.2s-14.3-18.5-21.2-28c-.7-.9-.7-3.3.1-4.1a157.3,157.3,0,0,1,13-14.1c19-18,42.3-26.8,67.8-30.3,23.3-3.1,44.2,4,63.1,16.7,11.8,7.8,19.8,19.3,24.5,33,1.2,3.5,3.2,6.8,4.3,10.4,4.7,15.1-.8,28.2-8.8,40.4C902.1,326.7,882,328.7,866.2,330Z"/><path class="cls-1" d="M872.2,120.5c-.4,24.7-7.1,47.4-18.6,68.9-2.8,5.3-6.5,8.6-13.6,8.5-17.8-.2-34.5,4.9-50.7,11.9-3.3,1.5-6.4,3.5-9.7,4.9-1.4.5-4,.6-4.7-.3-3.1-4.1-5.6-8.7-8.5-13.1-10-14.8-12.8-32.3-17.9-48.8a202.4,202.4,0,0,1-7.9-38.5c-.9-8.6.7-17.6,2.6-26.1.8-3.7,4.6-7.6,8.1-9.6a91.7,91.7,0,0,1,19.8-7.8,182.5,182.5,0,0,1,26.2-5.6c14.9-1.8,30-4.1,44.4,1.5,5.2,2.1,9.2,7.2,13.8,10.8,7.2,5.8,11.3,13.5,13.1,22.2C870.2,106.4,871,113.5,872.2,120.5ZM760.4,134.8c1.5,4.9,3.1,9,3.9,13.4,1.2,6.5,1.9,13.2,2.7,19.7.4,3.4,1.3,7.2,5.1,6.7s7-2.8,8-5.3a23,23,0,0,0,.5-12.5c-1.5-6.9-4.3-13.6-6.2-20.5s-3.3-6.6-8.4-4.3C763.9,132.9,761.9,134,760.4,134.8Z"/><path class="cls-1" d="M698.6,373.4c-.7,15.6-4.5,30.2-10.1,44.6-3.9,10.1-6.7,20.5-10.2,30.7-5.3,15.9-9.6,32.2-16.4,47.3-5.2,11.4-13.3,21.6-20.7,31.8-2.7,3.7-7.2,6.3-11.1,9.1s-5.1,1.6-7.4-2.2c-4.2-6.8-9.5-12.8-14.3-19.1a23.7,23.7,0,0,1-2.2-3.3c-5.4-12.1-12.3-23.7-14-37.1-1.3-9.9-2-19.8-3-29.7-.5-4.8-1.2-9.6-1.9-14.4s.6-5.9,4.8-6.3c7.1-.8,14.2-1.9,21.3-2.9,3.1-.5,4.3.8,4,3.8-.9,9.2-1.7,18.5-2.7,27.8-.1,1.1-.9,2.1-1.3,3.1s-1.9,4.2-1.3,4.7a7.4,7.4,0,0,0,5.2,1.7c1.6-.2,3.9-1.5,4.4-2.9a60.3,60.3,0,0,0,2.4-11.2c2-12.3,4.3-24.5,5.5-36.9,1.8-18.6,8.2-36.1,12.8-54.1,3.7-14.4,7.4-28.9,11.9-43.1,3.4-10.4,8.5-20.1,16.8-27.7,3.5-3.2,5.5-2.6,6.7,1.8,6.2,22.7,12.5,45.5,18.5,68.3C697.7,362.4,697.9,368,698.6,373.4Z"/><path class="cls-1" d="M934.1,294.5c-.6,10.8-1.4,21.6-1.9,32.3-.3,5.4.5,11-.4,16.3a50.4,50.4,0,0,1-5.1,15.5c-2.4,4.2-7.4,5.5-12.3,5.3-12.3-.3-24.6-1.1-36.9-1.1s-24.9.5-37.4.8c-8.8.2-17.6.5-26.4.6-15.3.3-30.6.9-45.9.5-19-.5-37.9-1.9-56.8-2.8-3.4-.1-4.6-1.9-5.3-4.8-2.9-11.6-5.7-23.2-9-34.8s-7.4-25.5-11.4-38.2c-1.4-4.6-.2-7.3,4.3-8.8,14.4-4.6,28.7-9.5,43.1-13.8,9-2.6,8.9-2.1,14.6,5.1,7.1,8.9,13.7,18.4,21.9,26A275.3,275.3,0,0,0,804,319.7c9.2,6.1,19.3,11.5,29.7,14.6,24.3,7.2,48.7,6.6,71.2-6,7.3-4.1,13-11.6,18.5-18.2,3.8-4.6,6-10.5,8.9-15.8Z"/><path class="cls-1" d="M949.9,325c1,2.3,2.2,3.9,2.4,5.6,1.7,14.3,4.1,28.7,4.5,43.1.5,18.2-.6,36.5-1.1,54.8-.1,1.8-1.2,3.7-2.2,5.3-2.5,4-1.8,6.9,1.7,9.9,1.4,1.2,2.8,3.3,2.8,5.1-.1,14.1-.5,28.3-1,42.4a30.2,30.2,0,0,1-1.9,9.3c-5.4,15.4-6.5,32.2-14.7,46.8-3.4,6.2-7.2,12-13.3,15.8-1.2.8-3.2,1.7-4.4,1.2s-1.4-2.6-1.6-4l-6.6-44.8c-.7-5-2.3-9.9-2.3-14.8s1.6-8.2,2.4-12.4c1.8-8.7,3.7-17.5,5.2-26.3,2.9-17.2,5.8-34.4,8.4-51.7,1.9-12.9,3.5-26,5-39,.5-3.7,1.9-6.1,4.3-9.1s4.9-10.8,6.4-16.6,2.2-11.7,3.4-17.5C947.5,327.3,948.5,326.6,949.9,325Z"/><path class="cls-1" d="M627.2,374.1c-2.1,7.3-4.2,14.7-6.4,21.9-.2.7-1.9,1.8-2.2,1.6a9.9,9.9,0,0,1-3.9-3.4c-3.2-5.6-6-11.4-9.1-17-6.1-11.2-12.2-22.3-18.6-33.3-3.1-5.4-6.8-10.5-10.1-15.8-2.3-3.5-1-5.2,3.1-6a49.8,49.8,0,0,0,10.4-3.2c3.9-1.7,7.1-1.4,9.3,2.5,6.4,11.2,12.7,22.4,19,33.7,2.4,4.3,4.6,8.7,6.8,13.2A40,40,0,0,1,627.2,374.1Z"/><path class="cls-1" d="M588.7,416.6c-3.1.7-4.1-1.4-4.1-5.4s0-11.1-1.3-16.4c-1.8-7.1-4.6-14-7.4-20.9-1.5-3.8-.6-6.2,2.9-7.6s6.2-2.5,8.6,2.3c4.7,9.7,10.2,19,15.6,28.3,2.2,3.8,5.2,7.2,7.8,10.7s2.4,6-2.4,6.6S596.2,415.7,588.7,416.6Z"/><path class="cls-1" d="M935.4,284c4.2,9.4,2.4,19,1.1,28.5C936.7,303,939.2,293.4,935.4,284Z"/><path class="cls-1" d="M262.3,610.3c0-9.3.1-16.9,0-24.5l-.6-67.4c-.1-2.6-.2-5-3.7-5.5s-6.5.7-6.2,6.1c.6,13.3,1.7,26.6,1.6,39.9,0,16.2-1.1,32.3-1.5,48.4-.1,3.6-1.5,5.2-5,5.3-12.3.4-24.6,1.3-36.9,1.3s-22.4,0-33.3-1.7a429.9,429.9,0,0,1-49.2-10.4c-8.9-2.5-17.3-7.4-25.2-12.5s-12.8-15.5-12.5-26.2c.4-19.5,1.5-39,1.6-58.5.1-15.3-1.2-30.6-1.4-45.9-.1-6.8,1-13.7,1.6-20.6.1-1.6.7-3.3.5-4.9-3-19-5.2-38.3-9.5-57-2.8-12.6-6.5-25.1-4.8-37.8,2.1-15.9,6.2-31.6,9.7-47.3a53,53,0,0,1,4.6-12.6c.7-1.5,3.5-3.2,4.7-2.9,10.5,3.4,20.5,1,30.3-2.6a233.6,233.6,0,0,0,63.7-35.2c10.2-7.7,21.1-13.9,33.9-16,3.1-.6,6.9-.6,9.7.7,11,5.1,22,10.1,32.4,16.4,14.2,8.6,20.9,22,24.3,38.5,4.1,20.1,11.1,39.6,16.7,59.3,2.1,7.2,3.6,14.5,5.7,21.6a51.5,51.5,0,0,0,4.6,9.8c6.4,10.8,9.4,22.6,11.4,34.8.2,1.3,1.6,3.3,2.5,3.4s3-1.2,3.7-2.4c5.3-8.8.1-16.9-1.9-25.2-.7-2.8-2.6-5.3-3.8-8.1s.2-5.2,3.4-4.3c6.6,1.9,13.2,4.4,19.9,6.3,1.9.5,4.9.3,6.4-.8a11.5,11.5,0,0,0,4.2-6.8c.4-3.1-2.3-4.5-5.5-4-6.6.8-8.7-.1-7.6-8.3s2.7-15.8,11.7-18.6c1.6-.6,4.5-.2,5.5.9,3.2,3.6,5.9,7.5,5.4,12.9-1.2,11.3-2.2,22.6-7.3,33.2-1.6,3.5-.8,8.2-1.2,12.3-.9,8.4-1.5,16.8-3.1,25.1-.6,3.2-3.5,6.1-5.7,8.8-6.6,7.7-13.1,15.4-20.2,22.5-2.3,2.4-6.3,3.5-9.7,4-13.4,2-26.6-.2-39.2-4.2-8.2-2.7-14.3-9.5-17.2-18.1a50.1,50.1,0,0,0-6.9-13.4c-5.8-8.2-10-17.4-15.1-26.2-8.7-15.1-17.9-29.9-26-45.3-2.6-4.9-5.3-9-9.9-11.8s-4.6-7-3.2-11c3.7-10.6,7.9-21.1,11.7-31.7.6-1.7,0-3.8,0-5.8-2.3.2-4.6.2-6.9.6a3.1,3.1,0,0,0-1.7,1.7c-5.5,14.2-15.3,27.3-12.7,43.8a14.3,14.3,0,0,0,3.6,7c9.6,10.1,18.2,20.7,24.6,33.2,7.9,15.3,17,30,25.3,45.1,3.3,6.1,5.6,12.7,8.8,18.8,1.6,3.1,4.5,5.4,6.4,8.3,5.7,9.1,14.3,14.5,23.4,19.4,5.2,2.8,5,3.7,1.6,8.6-1.2,1.6-1.3,4.4-1.1,6.6,1,14.5,3,28.9,3,43.3s-1.7,31.8-2.6,47.7c-.6,8.8-1.1,17.6-1.2,26.4-.1,3.6-1.3,5.6-4.8,6.5Z"/><path class="cls-1" d="M117.3,167.9c22.1,4.1,44.2,7.2,65.7,12.5,15.6,3.9,30.3,10.9,45.4,16.4,1.4.5,3.1.5,4.3,1.3s3.3,2.5,3.4,3.9c.3,4.2,2.2,5.2,6.2,6s6.3,3.5,9.2,5.7c.5.4.4,2.9-.3,3.5s-2.5.7-3.6.3c-3.8-1.2-7.4-3.3-11.2-4a36.7,36.7,0,0,0-26.1,4.3c-12,7.2-23.8,14.9-35.8,22.1s-23.1,14.7-35.4,20.3c-9.4,4.3-20,5.9-30.1,8.5-8,2.1-19-5-21.3-12.5-.5-1.6-1.4-3-2-4.6-3.1-7-4.1-13.7-1-21.5,5.1-13.3,8.6-27.2,13.4-40.6a65.9,65.9,0,0,1,9.4-16.8C109.4,170.2,113.6,169.6,117.3,167.9Z"/><path class="cls-1" d="M278.6,60.5c-2.4,0-4.8.2-7.2,0-9.3-.8-14.7,3.6-17.3,13.1-1.6,5.9-2.1,12.1-2.8,18.2-.4,3.6-1.5,4.6-5.1,3.4-8.4-2.9-16.1-1.1-23.6,3.3-3.6,2-7.7,3.2-11.5,4.9-5.7,2.4-8.3,7.4-9.2,13.1-1.3,8-1.1,8-9,9.9a20.3,20.3,0,0,0-4.6,1.9c-7.6,4-13.8,2.2-18.3-5.4a121.3,121.3,0,0,1-7.3-13.8c-6.1-14.3-7.5-29-.3-43.3,2.1-4.2,6.6-7.3,10.3-10.5,1.8-1.5,4.4-2.3,6.6-3.3,4.1-1.8,6-4.5,5.9-9.3-.2-11,3.3-14.3,14.6-14.6,16.9-.6,32.6,4,47.9,10.5A189.9,189.9,0,0,1,270.2,50c3.6,2.1,6.3,5.8,9.3,8.8Z"/><path class="cls-1" d="M281.9,88.7a70.7,70.7,0,0,1-7,28.4c-2.4,5-5.6,10.3.7,15.2.7.5.4,2.8.1,4.2-4,15.9-12,29.7-22.8,41.9-2.1,2.3-3.4,5.3-5.2,7.9s-4.3,3.4-6.1-.3a52.2,52.2,0,0,1-2.5-8.8c-.4-2.1-.1-4.6-1.1-6.4s-3.5-3.9-5.4-5.9c-1.7,2.3-4.4,4.3-5,6.8s.5,6.2.7,9.3c.2,1.4.4,3.2-.3,4s-2.7.4-3.9,0c-11.9-3.9-23.7-7.9-35.6-11.7-3-.9-4.6-2.6-4-5.8,1.5-8.8,2.9-17.7,4.9-26.5,1.4-5.8,10-8.9,15.3-6l1.3.8c11.8,7.3,17.2,2.9,19.6-9.5.3-1.6.6-3.5,0-4.9-3-7,1-12.1,5.5-15.7,2.4-2,7.3-1.3,11.1-1s4.5,2,6.8,3c4.9,2.1,7.3,1.2,8.4-4,1.5-7.8,2.6-15.7,3.7-23.6s3.2-10.8,7.2-11.2,10.1,3.4,11.7,9.5A80.1,80.1,0,0,1,281.9,88.7Z"/><path class="cls-1" d="M363.4,297.8h9c3.8,0,5.1,2.6,3.3,5.1a94.4,94.4,0,0,1-12.8,15.3c-5.4,5.1-11.7,5.3-18.9,2.6-4.6-1.8-4.9-4.5-3.4-7.5,2.3-4.7,4.8-9.9,8.8-12.9s9.1-2.6,13.8-3.8C363.3,297,363.3,297.4,363.4,297.8Z"/><path class="cls-1" d="M320.7,350.5c2.4-8.1,4.8-16.2,7.5-24.1.3-.7,3.1-1.4,4.1-.9,4,2,7.7,4.4,11.6,6.6s2.4,3.2,1.5,5.8a88.4,88.4,0,0,0-4.5,16c-.9,4.9-.8,5.2-5.9,3.6a28.8,28.8,0,0,0-8.7-1.4C321.9,356.4,320.4,354.7,320.7,350.5Z"/><path d="M760.4,134.8c1.5-.8,3.5-1.9,5.6-2.8,5.1-2.3,6.9-1.1,8.4,4.3s4.7,13.6,6.2,20.5a23,23,0,0,1-.5,12.5c-1,2.5-5.1,4.9-8,5.3s-4.7-3.3-5.1-6.7c-.8-6.5-1.5-13.2-2.7-19.7C763.5,143.8,761.9,139.7,760.4,134.8Z"/></g></g></svg>