<?xml version="1.0" encoding="utf-8"?>
<!-- Generator: Adobe Illustrator 25.2.3, SVG Export Plug-In . SVG Version: 6.00 Build 0)  -->
<svg version="1.1" id="레이어_1" xmlns="http://www.w3.org/2000/svg" xmlns:xlink="http://www.w3.org/1999/xlink" x="0px"
	 y="0px" viewBox="0 0 1024 640" style="enable-background:new 0 0 1024 640;" xml:space="preserve">
<style type="text/css">
	.st0{fill:#FFFFFF;}
</style>
<g>
	<g>
		<path d="M927.1,640.4L927.1,640.4c-0.4-5.3-0.8-10.7-1-15.9c-0.3-6.3-0.6-13.4-0.6-20.3c0-8.9-0.8-18-2.5-27.1
			c-0.6-3.6-1-7.3-1.3-10.9l-0.4-3.4c-0.3-3.1-0.5-6.2-0.7-9.2l0-0.6l0-0.2c-0.1-1.3-0.2-2.6-0.5-3.8c-1.4-5.4-1.8-11-2.2-16.4
			l0-0.1c0-1.1-0.1-2.3-0.2-3.4c-0.4-5.7-0.7-11.5-0.9-17.2l-0.1-1c-0.1-1.4-0.2-2.9-0.2-4.3c-0.1-1.5-0.2-2.9-0.3-4.4l-0.3-5.1
			c-0.2-2-0.3-4-0.4-6l0-0.2l-0.2,0h-1.2c-0.8,0-1.5,0-2.2,0.1c-5.1,0.8-10.5,1.2-17.7,1.3c-3.6,0-7.2,0.4-10.8,0.7l-2,0.2l-2.6,0.3
			c-5.3,0.5-10.5,1-15.7,1.5c-2.3,0.2-4.7,0.4-7,0.7c-2.3,0.2-4.6,0.4-6.9,0.6c-2,0.2-3.9,0.4-5.8,0.6c-1.9,0.2-3.8,0.3-5.8,0.5
			l-4.3,0.4c-6.2,0.6-12.6,1.2-18.9,1.8c-4.9,0.5-10.1,0.7-15.9,0.7c-6.7,0-13.2-0.3-18.2-0.6c-15.2-0.9-28.1-1.5-39.4-1.8
			c-3.9-0.1-8.1-0.1-13.6-0.1c-2.3,0-4.5,0-6.8,0c-2.2,0-4.5,0-6.7,0H703c-0.8,0-1.7,0-2.5-0.1c-1.5-0.2-2.6-1.4-2.6-2.8
			c0-1.3,1-2.4,2.4-2.7c0.6-0.1,1.1-0.1,1.6-0.1c7.3,0.1,14.8,0.2,22.2,0.2c11,0,22.1,0.1,33.2,0.3c4.4,0.1,9.1,0.4,14.5,0.8
			c1,0.1,2,0.2,3,0.2c3.2,0.2,6.5,0.5,9.7,0.6c5.3,0.2,10,0.4,14.2,0.4c6.4,0,12.1-0.3,17.4-0.9c6.8-0.7,14.2-1.4,22-2.1
			c2.5-0.3,4.8-0.5,7.4-0.7c3.9-0.3,7.9-0.7,11.7-1.1c7.1-0.7,14.6-1.4,21.7-2.1l1.7-0.1c3.1-0.2,6.2-0.4,9.2-0.6l9.1-0.6
			c3.5-0.2,6.8-0.5,10.4-0.9l2.6-0.2l3.2-0.3l0-0.1c2.9-16.2,5.7-32.3,8.6-48.4c4.4-25,8.8-49.9,13.2-74.8l0-0.2l-0.2,0
			c-1,0-4-0.1-9-0.1c-39.2,0-204.5,1.7-216.1,2.4l-0.1,0l0,0.1c-0.1,0.3-0.2,0.6-0.3,0.9c-0.1,0.3-0.1,0.5-0.2,0.8
			c-5.5,23.3-11.3,48.2-17,72.7l-3.2,13.8c-0.7,2.9-1.9,5.7-3.3,8.5c-0.6,1.2-1.2,2.5-1.7,3.7c-0.6,1.3-0.9,2.5-0.9,3.5
			c-0.6,31.5-1.2,65.1-1.7,97.3c0,0.9,0,1.7,0,2.6c0,0.9,0,1.8,0,2.6c-0.1,3.2-0.2,6.8-0.2,10.4c0,2.3,0.1,4.7,0.3,7.2
			c0.1,0.4,0.1,0.8,0.1,1.3c0,0.4,0,0.8,0.1,1.3l0,0.2l0.3,0c0.4,0.1,0.7,0.1,1,0.1c0.2,0,0.3,0,0.5,0c1.7-0.1,3.5-0.1,5.3-0.1
			c15.1,0,30.1,2.2,44.2,4.4c11.6,1.8,21.1,2.7,29.8,2.7c4.7,0,9.5-0.1,14.3-0.1s9.6,0,14.3,0.1c0.3,0,0.7,0,1,0
			c7.5,0,14.7-1.1,21.6-2.1c6.5-1,13.2-1.8,19.6-2.6l2.3-0.3c1-0.2,1.9-0.3,2.9-0.4c1-0.1,2-0.3,2.9-0.4c3.4-0.5,7.3-1,11.2-1.3
			c2.2-0.2,4.3-0.3,6.4-0.3c1.5,0,3.1,0,4.7-0.1c0,0,0,0,0,0c2,0,3.8-0.1,5.7-0.2l0.3,0c1-0.1,2-0.1,3-0.1c1,0,2,0,3-0.1h1.8
			c2.2,0,4.8,0,7.1,0.2c1.2,0.1,2.5,0.1,3.8,0.1c3.8,0,7.4-0.4,10.5-0.7c0.8-0.1,1.6-0.2,2.4-0.2c3,0,6.1,0.7,9.8,2.1
			c0.7,0.3,1.3,0.9,1.6,1.2c0.8,1,0.9,2.5,0.2,3.4c-0.5,0.7-1.2,1.1-2,1.1c-0.3,0-0.7-0.1-1-0.2c-1.4-0.4-2.4-0.8-3.5-1.3
			c-1.3-0.6-2.8-0.9-4.5-0.9c-0.5,0-1,0-1.5,0.1c0,0,0,0,0,0c-0.7,0-1.5,0.1-2.3,0.2c-2.2,0.3-4.4,0.5-6.6,0.6c-0.6,0-1.2,0-1.8,0
			c-0.6,0-1.2,0-1.9,0c-0.6,0-1.2,0-1.8,0c-2-0.1-4.1-0.1-6.2-0.1c-1.7,0-3.2,0-4.7,0.1c0,0,0,0,0,0c-1,0-2.1,0.1-3.1,0.2
			c-0.4,0-0.8,0-1.2,0.1c-1,0.1-2.1,0.1-3.2,0.1c-0.7,0-1.4,0-2-0.1c-1.7-0.2-3.5-0.3-5.4-0.3c-5.2,0-10.2,0.6-15.6,1.3l-0.7,0.1
			l-0.2,0c-2.4,0.3-4.7,0.6-7.1,0.9c-2.4,0.3-4.8,0.7-7.1,1c-2.2,0.3-4.4,0.6-6.6,0.9c-2.5,0.3-5.1,0.7-7.7,1
			c-4.9,0.7-9.9,1.3-14.7,1.8l-3,0.4c-0.7,0.1-1.3,0.1-2,0.1h-13.4c-10.3,0-20.9,0-31.3-0.4c-4.9-0.1-9.8-0.9-14.6-1.6l-1.3-0.2
			l-0.7-0.1c-1.5-0.3-2.9-0.5-4.3-0.7l-1.2-0.2c-12.3-1.8-26.2-3.8-40.2-3.8c-2.3,0-4.7,0.1-6.9,0.2l-0.2,0v0.2c0,0.1,0,0.2,0,0.3
			c0,0.1-0.1,0.2-0.1,0.3c0,0.1,0,0.3,0,0.5c0,0.2-0.1,0.4-0.1,0.5v5.1c0,1.2,0,2.5,0,3.7c0,3.8,0,7.7,0.1,11.6
			c0.2,6.1-1,12.5-3.6,19.4c-0.3,0.7-0.5,1.4-0.7,2.1l-0.1,0.2h-6.4l0.1-0.2c2.3-4.7,3.8-9.4,4.5-13.9c0.2-1.3,0.4-2.7,0.4-4.1
			v-26.8c0-1.1,0-2.2-0.1-3.2c-0.6-6.5-0.6-13.2-0.5-20.1c0.4-20.6,0.8-41.7,1.1-62l0.2-9.2v-1.8c0-3.5,0.1-7.1,0.2-10.5
			c0.1-3.2,0.2-6.8,0.2-10.4c0-0.5,0-1.1-0.1-1.7l-0.1-0.6l-0.3,0.5c-0.1,0.2-0.2,0.4-0.3,0.6c-0.1,0.2-0.3,0.4-0.4,0.6
			c-1.6,2.6-3.2,5.4-4.7,8.2c-0.3,0.6-0.6,1.2-0.8,1.8c-0.1,0.2-0.2,0.4-0.3,0.6c-0.1,0.2-0.2,0.4-0.3,0.6l-0.2,0.4
			c-0.3,0.8-0.7,1.6-1.2,2.3c-3.3,4.6-6.6,9.4-10.1,14.4c-6.2,8.9-12.9,18.5-20.6,29.3c-0.7,1.1-1.7,2-2.8,2.7
			c-1.1,0.8-2.3,1.5-3.5,2.2c-0.2,0.1-0.4,0.2-0.6,0.3c-0.6,0.3-1.1,0.6-1.7,1c-1.8,1.1-3.8,1.7-6.3,1.7c-0.2,0-0.4,0-0.7,0
			c-1.9-0.2-3.2-0.9-4.1-2.2c-0.6-1-1.2-2-1.7-3c-0.3-0.5-0.5-0.9-0.7-1.3c-0.7-1.4-1.4-2.8-2.4-4.3c-1-1.4-1.9-2.8-2.8-4.3
			c-1-1.4-1.9-2.9-2.9-4.3c-2.9-4.4-6-9-9-13.6c-3.2-4.9-6.2-9.7-9-14.5c-0.6-1-1.1-2.1-1.5-3.1l-0.3-0.8c0-0.1-0.1-0.3-0.2-0.5
			c-0.1-0.2-0.1-0.3-0.2-0.5c-0.2-0.4-0.3-0.8-0.5-1.3c-0.1-0.4-0.3-0.9-0.5-1.3l-0.3-0.9c-0.3-0.8-0.6-1.5-1-2.3
			c-2.4-5.4-3.1-10.9-3.5-16.1c-0.9-13.7-1.9-27.5-3.1-43.6l-0.1-1.2c-0.2-1.8-0.4-3.6-0.3-5.3c0.2-4.6-0.5-9.6-2-15.2
			c-1-3.8-1.9-7.7-2.8-11.4c-0.6-2.5-1.2-5.2-1.9-7.9c-1.2-4.5-2.7-8.2-4.6-11.5c-3.1-5-2.8-10.6-2.2-15c0.7-5.4,3.6-10.1,8.5-13.5
			c0.2-0.1,0.4-0.2,0.6-0.3c0.1-0.1,0.2-0.1,0.2-0.2c0.5-0.3,0.9-0.6,1.4-1l0.1-0.1l-0.1-0.2c-0.2-0.3-0.3-0.5-0.5-0.8
			c-0.4-0.6-0.8-1.2-1.2-1.8c-1.4-2-2.9-4.4-4.7-7.5c-1.7-2.8-3.3-5.7-4.8-8.7c-1.7-3.6-2.1-7.5-1.1-11.8c0.1-0.4,0.1-0.8,0.1-1.3
			v-0.5c-0.1-2.3,0.4-3,2.6-3.6c1.6-0.4,3.1-0.7,4.6-1.1l1-0.2c0.6-0.2,1.1-0.3,1.7-0.4c0.6-0.1,1.1-0.3,1.7-0.4l9-2.1
			c1.5-0.4,3.1-0.7,4.6-1.1c1.5-0.3,3-0.7,4.5-1c0.9-0.2,1.8-0.3,2.6-0.3c3.7,0,6.8,1.7,8.8,4.8c1.7,2.7,3.4,5.7,5.5,10
			c4,8.3,8.1,16.7,12,24.8c2.8,5.8,5.5,11.5,8.1,16.8l0.2,0.5c0.2,0.5,0.5,1,0.9,1.7l0.4,0.6v-0.8c0.3-0.6,0.5-1.1,0.6-1.8
			c1.9-7.1,3.7-12.6,5.8-17.8c1.5-3.8,2.4-7.9,2.6-12.3c0.3-5.3,1-9.8,2.1-14.3l0.1-0.4c0.2-0.8,0.3-1.6,0.4-2.5l0.1-0.4
			c0.2-1.1,0.4-2.2,0.6-3.2c2.4-10.3,6-19.3,11-27.3c1.8-2.9,4.2-6.3,7.8-8.6c1.3-0.8,2.5-1.6,3.8-2.5c0.5-0.3,1-0.7,1.5-1
			c1.5-1.1,3.3-2.3,5.2-3.5c1.5-1,3.2-1.5,5.5-1.6c1.5-0.1,3-0.5,4.5-1.1c7.5-3.6,15.5-6.7,22.4-9.3c0.8-0.3,1.6-0.6,2.4-0.9
			c0.8-0.3,1.5-0.6,2.3-0.9c7.3-2.9,14.6-6,21.6-9.1l5.6-2.4c1.3-0.5,2.4-1.4,3.3-2.1c0.3-0.2,0.6-0.4,0.9-0.6
			c0.3-0.2,0.6-0.4,0.9-0.6c0.2-0.1,0.5-0.3,0.7-0.5c0.2-0.1,0.4-0.3,0.7-0.4c0.2-0.1,0.4-0.3,0.7-0.4c0.6-0.3,1.1-0.7,1.7-1.1
			c4.3-3.3,8.8-6.4,13.2-9.3l2.5-1.7c1.1-0.6,2.1-1.3,3.1-2c3.2-2.1,6.3-4.5,9.2-6.9l0.6-0.5c0.3-0.3,0.7-0.6,1-0.9
			c0.7-0.6,1.4-1.2,2.2-1.7c0.9-0.7,1.2-1.4,1-2.3c-0.1-1.4,0-2.8,0.3-4.2c0.4-2-0.1-3.8-1.6-5.9l-0.3-0.4c-1.4-1.7-2.9-3.4-4.6-4.7
			c-6.1-4.5-10.4-10.3-13.5-14.9c-4.7-7.1-9.5-14.9-13.2-23.1c-3.5-8.2-6-16.6-7.5-25.2c-0.7-4.4-1.6-10.1-1.6-16.1
			c0-6.1,0.8-12.9,2.4-21.3c1.7-8.1,5.6-15.2,11.5-21.2c8.2-8.1,15.2-13.5,22.5-17.4c4.9-2.8,10.3-4.9,17.2-6.6
			c6.2-1.6,12.9-3.4,19.5-4.8c2.7-0.5,5.4-0.8,8.5-0.8c3.7,0,7.1-0.1,10.4-0.1c4.9,0,9.2,0.1,13.2,0.2c4.5,0.2,8.6,1.6,12.4,4.3
			l3.3,2.1c0.3,0.2,0.6,0.4,0.9,0.6c0.8,0.5,1.7,1,2.5,1.6c6.1,4.1,11.6,9.5,16.8,16.6c2.8,3.9,3.9,8.8,4.8,13.5l0,0.1
			c1.6,8.6,1.4,17.4-0.6,27c-2.2,10.7-5.1,21.5-7.9,31.9l-1,3.6c-0.5,1.7-0.9,3.3-1.3,4.9c-0.4,1.6-0.8,3.2-1.3,4.9
			c-1.2,4.4-2,9-2.7,13.2c-0.3,2-0.6,4-1,6c-0.4,2.4-0.9,4.9-1.4,7.4l-0.6,3.2l0.5,0.2c0.3,0.1,0.6,0.2,0.9,0.3
			c4.6,0.9,9.2,2.7,14.2,5.4c1.9,1.1,3.4,1.8,4.9,2.3c2.1,0.7,3.9,2.1,5.6,3.6l28.6,26.5c1.4,1.2,2.5,2.7,3.7,5
			c5,10.9,9.2,19.8,13.2,28.1c1.1,2.4,2.2,5.3,1.8,8.4c-0.3,1.8,0.3,2.9,2.2,4.2c5.7,3.8,9.1,7.8,10.7,12.7c0.2,0.6,0.7,1.3,1.3,1.6
			c1.3,0.8,2.5,2.2,3.4,3.8c2.1,3.9,3.7,8.3,4.7,13c1.8,9.4,4.6,19.1,8.6,29.4c1.5,4,2.3,7.4,2.5,10.6l0,0.2c0.1,0.9,0.2,2,0.5,3
			c1.7,5.8,1.8,11.4,1.8,18.2v2.4c0.1,4.8,0.2,9.7-0.6,14.6c-0.6,10.4-0.7,20.7-0.7,29.3l0.3,87.1c0,3.1-0.1,6.4-1.6,9.7
			c-2.1,4.9-4,10.1-5.8,15l-0.5,1.5c-0.4,1-0.7,1.9-1,2.8c-0.3,0.9-0.6,1.8-1,2.8L953.4,553c-0.6,1.8-1.5,3.2-2.9,4.3
			c-1.6,1.3-3.2,2.6-4.7,4c-4.9,4.4-10.8,7.5-17.6,9.1l-0.2,0v0.2c0,0.4,0,0.7,0.1,1c0,0.3,0,0.6,0,1c0,0.4,0.1,0.8,0.1,1.2
			c0,0.8,0.1,1.5,0.2,2.3c1.4,8.7,1.8,17.8,2.2,26.6l0,0.5c0.1,0.7,0.1,1.4,0.1,2c0,0.7,0.1,1.4,0.1,2.1c0.4,7.4,1,15,1.6,22.2
			c0.1,1.7,0.3,3.5,0.4,5.2c0.1,1.8,0.3,3.7,0.4,5.5v0.2H933C930.8,640.4,929,640.4,927.1,640.4L927.1,640.4z M968.3,443.5
			c-13.4,2.2-26.7,4.4-39.9,6.6l-1.3,0.2v0.2c0,0,0,0.1,0,0.1c0,0.1-0.1,0.2-0.1,0.3c0,0.2-0.1,0.4-0.1,0.6
			c-0.1,0.2-0.1,0.5-0.2,0.7c-0.4,1.8-0.7,3.6-1,5.6c-1.1,6.7-2,12-3,16.9c-1.6,8.2-1.5,16.8-1.1,24.1c0.1,1.3,0.1,2.6,0.2,4
			c0.1,1.3,0.1,2.6,0.2,3.9l0.1,1.1c0.2,3.6,0.4,7.3,0.6,10.8l0.2,3.9c0.4,6.1,0.8,12.5,1.7,18.6c0.1,0.8,0.2,1.7,0.4,2.6
			c0.1,0.8,0.2,1.7,0.3,2.5l0.2,1.3c0.6,3.8,1.1,7.8,1.3,11.7c0.3,1.5,0.5,3.1,0.7,4.7l0,0.2l0.2,0c0.1,0,0.3,0,0.4,0
			c1.4,0,2.6-0.5,3.7-0.9l0.3-0.2c5.1-2.1,9.4-5.6,13.4-9c1.6-1.4,2.7-2.9,3.3-4.7l19.5-53.4c0.3-0.6,0.4-1.5,0.4-2.6v-47.9
			c0-0.6,0-1.1-0.1-1.8v-0.2L968.3,443.5z M585.6,414.6c-0.1,0.5-0.1,1.1,0,1.5c0.1,1.5,0.2,3.1,0.3,4.7c0,1.6,0.1,3.1,0.2,4.7
			l0,0.5c0.2,3.1,0.4,6.3,0.7,9.5c0.8,9.9,1.6,20.5,2.2,30.9c0.4,7.2,1.7,12.9,3.9,17.8c0.2,0.5,0.4,1.1,0.6,1.6
			c0.1,0.4,0.3,0.8,0.5,1.3c0.6,1.8,1.2,3.4,2,4.9c2.3,4,4.7,8,7.4,12.3c1,1.5,2,2.9,3,4.4c1,1.5,2,3,3,4.4c1.1,1.6,2.2,3.3,3.3,4.9
			c1.7,2.5,3.4,5,5,7.6c0.3,0.4,0.5,0.7,0.8,1.1c0.3,0.4,0.5,0.7,0.8,1.1c1.8,2.4,3.6,5,4.5,8c0.2,0.8,0.6,1.2,0.9,1.4
			c0.2,0.1,0.4,0.1,0.6,0.1c0.4,0,0.8-0.1,1.4-0.3c0.8-0.3,1.6-0.8,2.4-1.2l0.5-0.3c0.6-0.4,1.2-0.7,1.8-1c2-1.1,3.6-2.5,5.2-4.8
			c1.1-1.7,2.2-3.4,3.4-5c0.9-1.2,1.8-2.5,2.7-3.8c2.6-3.8,5.3-7.6,8-11.3l2-2.7c5.8-8,11.8-16.4,16.6-25.4c0.2-0.4,0.5-0.9,0.8-1.3
			c0.3-0.5,0.6-0.9,0.8-1.4l1.5-2.7l6.6-11.5c2.6-4.3,5.3-8.9,6.7-14.2c0.3-1.3,0.6-2.6,0.9-3.9c0.3-1.2,0.6-2.5,0.9-3.7
			c0.1-0.6,0.3-1.2,0.4-1.9c0.2-0.6,0.3-1.3,0.5-1.9c4.1-17.8,9.3-39.9,14.8-63.3l3.6-15.5c0.4-1.9,0.3-3.5-0.2-5.2l-0.9-2.6
			c-9-27.1-18-54.3-27.1-81.5c-0.1-0.4-0.3-0.9-0.5-1.4c-0.2-0.6-0.4-1.2-0.6-1.8l-0.1-0.2l-0.2,0.1c-3.8,1.7-10.9,6.8-13.1,9
			c-0.3,0.3-0.7,0.8-1.1,1.3c-6,8.9-10.1,18.8-12.4,29.5c-0.8,3.2-1.5,6.9-2.1,10.9c0,0.1-0.1,0.3-0.1,0.5c0,0.2,0,0.3-0.1,0.5
			c0,0.4-0.1,0.7-0.1,1.1c-0.1,0.7-0.2,1.3-0.2,1.9c-0.2,6.7-1.6,13.5-4.5,21.5c-4.1,11.5-7.3,22.3-9.6,33.1
			c-2.1,10-4.9,19.8-7.3,28.3c-4.7,16.5-6.9,32.1-6.7,47.5c0,0.7,0,1.6-0.2,2.2c-0.4,1.5-1.4,2.5-2.7,2.5c-1.5,0-2.6-1-2.8-2.6
			c-0.1-0.3-0.1-0.7-0.1-1v-0.9c-0.1-14.1,1.5-27.6,5-41.4c0.1-0.4,0.2-0.9,0.3-1.4c0.1-0.3,0.1-0.7,0.2-1l0.1-0.3l-3.4,0.8
			c-5.4,1.2-10.6,2.4-15.8,3.7c-3.8,1-7.2,1.5-10.4,1.5c-1.4,0-2.8-0.1-4.1-0.3l-0.2,0L585.6,414.6z M968.3,368.5
			c-0.8,0.7-1.3,1.2-1.6,1.7c-1.8,2.4-4.1,3.9-6.4,5.4c-1.3,0.8-2.6,1.6-3.8,2.5c-0.8,0.6-1.6,1.2-2.4,1.7c-4.6,3.1-9.2,6-15.2,6.1
			l-0.2,0l0,0.2c-1.6,8.7-3.1,17.6-4.6,26.3c-1,5.7-2,11.3-3,16.8l-2.8,15.4l0.3-0.1c4.3-0.8,8.7-1.5,12.9-2.2l2-0.3l25.4-4.2v-11.6
			c-0.1-13.2-0.1-26.3,0-39.1c0-1.7,0.1-3.4,0.2-5l0-0.3c0.1-1.1,0.2-2.1,0.2-3.2v-11.1L968.3,368.5z M580,347.9
			c-3.5,1.6-6.2,4.4-7,7.2c-1.3,4.5-2.2,9.9,0.8,15.2c2.5,4.4,4.3,9.3,5.6,15.3c1,4.5,2.2,9.3,3.5,14.4c0.8,3.1,1.6,6.3,2.4,9.5
			l0,0.2l0.2,0c1.6-0.1,3.1-0.2,4.5-0.3c0.4-0.1,0.8-0.1,1.2-0.1c0.6,0,1.1,0,1.7-0.1l6.2-1.3c5.7-1.2,11.7-2.5,17.5-3.9l0.2-0.1
			l0.2,0c0.7-0.2,1.3-0.3,2-0.3c0.7,0,1.3,0.1,1.9,0.4l0.2,0.1l0.1-0.3c0.3-1.5,0.7-2.8,1-4.1c0.2-0.7,0.4-1.4,0.6-2.2l0.1-0.6
			l-0.5,0.3c-1.5,1.1-3.1,1.7-4.8,1.7c-0.6,0-1.3-0.1-1.9-0.2c-3.1-0.8-5.3-2.3-6.8-4.8l-1.5-2.4c-8.5-13.7-17.3-27.9-26.2-42
			c-0.3-0.4-0.6-0.8-0.8-1.2c-0.1-0.1-0.1-0.2-0.2-0.2c-0.1-0.1-0.1-0.2-0.2-0.2l-0.1-0.1L580,347.9z M597.5,305.6
			c-0.6,0-1.2,0-1.9,0.2c-1.7,0.4-3.4,0.8-5.1,1.2c-2.1,0.5-4.2,0.9-6.2,1.4c-1.9,0.4-3.8,0.9-5.6,1.3c-1.9,0.4-3.8,0.9-5.7,1.3
			c-1.6,0.4-2.2,1.1-2.6,2.5c-0.8,3-0.3,6,1.4,9.5c3.5,6.4,7.3,13.1,12.2,19.1c0.3,0.3,0.4,0.5,0.5,0.8c0.1,0.1,0.1,0.2,0.1,0.2
			c0,0.1,0.1,0.2,0.1,0.3l0.2,0.4c0.1,0.3,0.2,0.5,0.3,0.7c0.2,0.4,0.3,0.7,0.5,1c8.4,13.6,17.7,28.4,27.4,44l0.6,0.9
			c1,1.7,2.2,2.7,3.4,2.8c0.1,0,0.3,0,0.4,0c1.1,0,2.3-0.6,3.6-1.9c0.8-0.7,1.5-1.3,2.5-1.9c0.4-0.2,0.8-0.6,1.2-0.8l0.2-0.2l0.1,0
			l0.5,0.3l0.1-0.3c1-4.9,2.1-9.6,3.2-14.7c0.4-1.5,0.7-3.1,1.1-4.6l1-4.6l-0.2-0.1c-1.6-0.6-2.4-2-3-3.3l-0.1-0.2
			c-3.5-7.1-7-14.4-10.5-21.7c-3.5-7.3-7-14.6-10.5-21.8c-1.2-2.3-3-5.8-5-9.4C600.8,306.5,599.4,305.6,597.5,305.6z M954.7,294.1
			c0.1,7-0.7,12.5-2.6,17.4c-0.5,1.2-0.7,2.4-0.9,3.6l0,0.2l0,0.2c-1.8,10.7-3.7,21.4-5.6,31.8l-0.7,3.7c-1.3,7.4-2.7,15.1-4,22.6
			c-0.2,1-0.3,2-0.5,3.1c-0.1,0.7-0.2,1.4-0.3,2.1l-0.3,1.6l0.4-0.2c0.2-0.1,0.3-0.1,0.5-0.1c0.2,0,0.4-0.1,0.5-0.1
			c0.4,0,0.7-0.1,1.1-0.2c0.5-0.3,1-0.5,1.5-0.7c1.8-0.8,3.5-1.6,5-2.4c1.1-0.7,2.3-1.4,3.5-2.3l0.4-0.3c1-0.7,2-1.5,3.1-2.1
			c3.9-2.2,6.6-5.1,10-8.9c1.1-1.2,2.2-2.4,3.7-3.9l0.1-0.1V359c0-0.4,0-0.9,0-1.3c0-0.5-0.1-1-0.1-1.5c-0.1-0.9-0.1-1.8-0.1-2.7
			c-0.1-2.5-0.3-5.1-0.6-7.7c-0.2-1.7-0.5-3.4-0.9-5.1c-0.3-1.3-0.6-2.8-0.8-4.4c-0.3-3-1.2-6-2.1-8.5c-0.3-1.1-0.8-2.4-1.3-3.7
			c-1.2-3.2-2.4-6.6-3.4-10c-0.7-2.3-1.3-4.7-1.8-6.9c-0.2-1-0.5-1.9-0.7-2.9c-0.6-2.8-1.2-5.3-1.8-7.5l-0.6-2.1
			c0-0.2-0.1-0.4-0.1-0.5c-0.1-0.2-0.1-0.4-0.2-0.6l-0.4-1.6V294.1z M745.8,240c-0.3,0.2-0.7,0.4-1,0.5c-0.4,0.2-0.7,0.4-1.1,0.6
			c-0.5,0.2-0.9,0.5-1.4,0.7c-0.9,0.5-1.8,0.9-2.6,1.3c-1.7,0.8-3.5,1.5-5.2,2.3c-4.7,2.1-9.6,4.2-14.4,6.2c-4.1,1.6-8,3.1-11.5,4.4
			c-1.5,0.6-3,1.2-4.5,1.7c-1.5,0.6-3.1,1.2-4.6,1.8c-3.1,1.2-6.1,2.6-9.2,4c-1.1,0.5-2.2,1-3.4,1.5c-0.8,0.3-1.5,0.6-2.2,1
			c-0.5,0.2-1,0.4-1.5,0.6l-0.2,0.1l15.1,45.5c4.4,13,9.1,27,15.1,45.4l0,0.1l4.6-0.1c32.6-0.4,65.7-0.7,99-1.1
			c40.4-0.5,81.1-0.9,121.4-1.4l0.1,0l0.1-0.1c0.2-0.2,0.2-0.3,0.2-0.5c0.4-2.3,0.8-4.6,1.2-6.9c0.3-1.9,0.7-3.8,1-5.6
			c0.7-3.9,1.4-8.2,2.2-12.5c0.2-1.1,0.4-2.2,0.6-3.4c0.2-1.1,0.3-2.2,0.5-3.3c0.9-5.8,2-11.4,3.8-16.8c0.1-0.3,0.2-0.6,0.2-1
			c0-0.2,0-0.3,0.1-0.5c0-0.1,0.1-0.3,0.1-0.6c0-0.2,0-0.4,0.1-0.5c1-5.2,0.7-10.7,0.4-15.6c-0.2-3.3-1.1-6.8-2.9-10.7
			c-1.4-3.3-4.1-5.5-7.1-7.6l-0.3-0.2v0.4c0,0.6-0.1,1.2-0.2,1.7c-0.1,0.5-0.1,1-0.2,1.4l-0.1,0.7c-0.6,5.9-1.7,12-5.1,17.3
			c-3.2,4.9-7.2,9.3-11.1,13.4l-0.1,0.1l-0.7,0.7c-5.1,5.5-11.9,9.1-17.4,12c-6,3.1-12.8,4.9-20.3,5.4c-5,0.3-10.1,0.5-15,0.5
			c0,0,0,0,0,0c-6.5,0-13-0.3-19.3-0.9c-7.8-0.7-14.7-4-20.4-7.1c-0.3-0.2-0.6-0.3-0.8-0.4c-0.3-0.2-0.6-0.3-0.9-0.5
			c-1.6-0.9-3-1.7-4.4-2.3c-4.9-2.2-9.4-4.8-13.8-8c-1.8-1.4-3.6-2.6-5.2-3.4c-7.8-4.6-13.4-8.9-17.9-13.8c-1.7-1.8-3.7-3.5-5.9-5.2
			c-0.3-0.2-0.6-0.5-0.9-0.7c-0.7-0.6-1.5-1.1-2.2-1.8l-0.5-0.4c-1.2-1-2.4-2-2.9-3.3c-5.9-7.5-11.8-15.2-17.6-22.7l-1-1.2
			c-1.1-1.4-2.2-2.9-3.4-4.4c-1.1-1.4-2.2-2.9-3.3-4.3l-2-2.6L745.8,240z M859.6,186.1c-7.6,0-14.6,1.9-20.6,3.7l-4.9,1.6
			c-2.4,0.8-4.9,1.5-7.4,2.3c-7.1,2.3-14.5,4.6-21.8,6.7c-8.2,2.3-15,5.8-20.7,10.8c-8.6,6.8-15.6,12.1-22,16.6
			c-3.2,2.4-6,4.7-8.9,7.1c-0.4,0.4-0.8,0.7-1.2,1c-0.4,0.3-0.8,0.7-1.2,1l-0.1,0.1l0,0.1c0.1,0.2,0.2,0.3,0.2,0.5
			c0,0.1,0.1,0.1,0.1,0.2c4.4,5.8,9,11.7,13.4,17.4c4.5,5.7,9,11.6,13.5,17.5c0.2,0.3,0.5,0.6,0.9,0.9l0.6,0.6
			c1.1,0.9,2.2,1.8,3.3,2.8c3.3,2.7,6,5.1,8.4,7.4c3.4,3.4,6.7,6.1,9.9,8.1c3.6,2.1,7.7,4.8,11.5,7.4c3.2,2.2,6.7,4.5,10.8,6.4
			c2.4,1,4.5,2.1,6.6,3.4c3.4,2.2,7.2,3.8,11,5.3l0.9,0.3c3.4,1.3,7,1.5,10.5,1.7c0.8,0,1.6,0,2.4,0.1c3.7,0.3,7.3,0.4,11.6,0.4
			l4.6,0h4c6.3,0,11.7-0.6,16.6-1.9c9.6-2.3,18.3-7.4,26.6-15.5c2.7-2.6,5.2-5.7,7.2-8.4l0.7-0.9c3.1-4.1,4.7-7.6,5.1-11.3
			c0.1-1.1,0.3-2.2,0.5-3.3c0.6-3.3,1.2-7.1,0.9-10.8c0-0.4,0.1-0.6,0.2-0.9c0.1-0.1,0.2-0.3,0.2-0.6c0.5-2.6,0.9-5.7-0.4-8.6
			c-2.2-4.7-4.5-9.5-6.7-14.3l-0.2-0.3c-2.1-4.7-4.4-9.6-6.8-14.5c-0.5-1.1-1.3-2.2-2.2-3.2c-9.2-8.6-18.7-17.3-29.2-27
			c-0.2-0.1-0.4-0.3-0.5-0.5c-0.4-0.3-0.7-0.6-1.1-0.9c-1.2-0.5-2.4-1.1-3.6-1.7c-3-1.5-6.3-3-9.8-4.5c-4.1-1.6-8.1-2.5-11.8-2.6
			C860.3,186.1,860,186.1,859.6,186.1z M838.4,45c-6,0-12.3,0-18.4,0.1c-2.7,0.1-5.9,0.3-8.8,1c-8.9,2.2-16.8,4.3-24.2,6.3
			c-2.6,0.7-5.3,2-7.5,3.1C771,59.8,763.1,66,754.6,75c-3,3.2-5.3,7.2-7.2,12.6c-1.1,2.8-1.5,5.7-1.9,8.5l-0.2,1.1
			c-0.1,0.5-0.2,1-0.3,1.5c-0.1,0.5-0.1,1-0.2,1.5c-1.1,7.3-1.3,13.7-0.6,19.5c2,16.6,6.8,30.8,14.6,43.5c1.3,2.3,2.8,4.6,4.3,6.7
			l0.5,0.8c1.5,2.1,3,4.4,4.9,7.5c1.9,3.2,4.1,5.6,6.9,7.9c2.5,2,4.9,4.3,7,6.8c2.7,3.2,3.4,6.7,2.3,10.4c-0.1,0.1-0.1,0.2-0.1,0.5
			v0.4l1.5-1.1c0.2-0.2,0.5-0.3,0.7-0.5c0.3-0.2,0.6-0.4,0.9-0.6c4.7-3.1,9.8-5.5,15.1-7.1c4-1.1,8.1-2.3,12-3.5
			c6.1-1.9,12.2-3.6,18-5.3l1.3-0.4l1.9-0.5c4.8-1.3,9.7-2.7,14.8-3.9c1.8-0.3,3.6-0.3,5.4-0.3c1.1,0,2.2,0,3.4-0.1l0.1,0l0-0.1
			c0.1-0.3,0.2-0.5,0.3-0.8c0.1-0.2,0.1-0.5,0.2-0.7c0.2-0.5,0.3-1,0.5-1.5c0.2-0.5,0.3-1,0.5-1.5c0.4-1.6,0.7-3.3,1-5
			c0.1-0.9,0.2-1.7,0.4-2.5l0.1-0.4c0.3-1.7,0.8-4,1.1-6.1c0.8-4.6,1.6-8.7,2.5-12.7c0.6-2.6,1.3-5.1,2-7.6l1-3.9
			c2.9-10.6,5.8-21.7,8.2-32.5c2-9.7,2.2-18.6,0.5-27.2c-1.1-6-3.9-11.2-8.6-16.1c-4-4.2-8.9-8.1-15.5-12.5
			C848.9,46.5,843.9,45,838.4,45z"/>
		<path class="st0" d="M830.3,40c4.9,0,9.2,0.1,13.2,0.2c4.4,0.2,8.6,1.6,12.3,4.2l3.3,2.1c0.3,0.2,0.6,0.4,0.9,0.6
			c0.8,0.5,1.7,1,2.5,1.6c6.1,4.1,11.6,9.5,16.7,16.5c2.8,3.9,3.8,8.7,4.8,13.4l0,0.1v0.1v0l0,0c1.6,8.5,1.4,17.3-0.6,26.8
			c-2.2,10.7-5.1,21.5-7.9,31.9l-1,3.6c-0.5,1.7-0.9,3.3-1.3,4.9c-0.4,1.6-0.8,3.2-1.3,4.9c-1.2,4.4-2,9-2.7,13.2c-0.3,2-0.6,4-1,6
			c-0.4,2.4-0.9,4.8-1.4,7.4c-0.2,1-0.4,2-0.6,3l-0.1,0.3l0.3,0.1c0.1,0,0.2,0.1,0.3,0.1c0.3,0.1,0.6,0.2,0.9,0.3
			c4.5,0.9,9.2,2.6,14.1,5.4c1.9,1.1,3.4,1.8,5,2.3c2.1,0.7,3.8,2.1,5.6,3.5l28.6,26.5c1.4,1.1,2.5,2.7,3.6,5
			c5,10.9,9.2,19.8,13.2,28.1c1.1,2.4,2.2,5.2,1.8,8.3c-0.3,1.8,0.3,3.1,2.3,4.4c5.6,3.7,9,7.7,10.6,12.6c0.2,0.7,0.8,1.4,1.4,1.7
			c1.3,0.8,2.4,2.1,3.4,3.8c2.1,3.9,3.7,8.3,4.7,13c1.8,9.5,4.6,19.1,8.6,29.5c1.5,4,2.3,7.3,2.5,10.6l0,0.1c0.1,1,0.2,2,0.5,3
			c1.7,5.7,1.8,11.4,1.8,18.2l0,2.4c0.1,4.7,0.2,9.7-0.6,14.6c-0.6,10.4-0.7,20.7-0.7,29.3l0.3,87.1c0,3.1-0.1,6.4-1.6,9.6
			c-2.1,4.9-4,10.1-5.8,15.1l-0.5,1.5c-0.4,1-0.7,1.9-1,2.8c-0.3,0.9-0.6,1.8-1,2.8L953.2,553c-0.6,1.8-1.5,3.1-2.9,4.2
			c-1.6,1.3-3.2,2.6-4.7,4c-4.9,4.4-10.8,7.4-17.5,9l-0.3,0.1v0.3c0,0.4,0,0.7,0.1,1c0,0.3,0,0.6,0.1,1c0,0.4,0.1,0.8,0.1,1.1
			c0,0.8,0.1,1.6,0.2,2.3c1.4,8.7,1.8,17.8,2.2,26.6l0,0.5c0,0.7,0.1,1.4,0.1,2c0,0.7,0.1,1.4,0.1,2.1c0.4,7.4,1,14.7,1.6,22.2
			c0.1,1.7,0.3,3.5,0.4,5.2c0.1,1.8,0.3,3.7,0.4,5.5v0h0c-2.2,0.1-4,0.1-5.7,0.1c-0.4-5.3-0.8-10.6-1-15.7
			c-0.3-6.3-0.6-13.4-0.6-20.3c0-8.9-0.8-18.1-2.5-27.2c-0.6-3.6-1-7.3-1.3-10.9l-0.1-0.5c0-0.4-0.1-0.9-0.1-1.4
			c-0.1-0.5-0.1-1-0.1-1.4c-0.3-3.1-0.5-6.2-0.7-9.2l0-0.5l0-0.2c-0.1-1.3-0.2-2.6-0.5-3.8c-1.4-5.4-1.8-11-2.2-16.4l0-0.1
			c0-1.1-0.1-2.4-0.2-3.4c-0.4-5.8-0.7-11.7-1-17.3l0-0.9c-0.1-1.4-0.2-2.9-0.2-4.3c-0.1-1.4-0.2-2.9-0.3-4.4l-0.3-5.1
			c-0.2-2-0.3-4-0.4-6l0-0.4h-0.4h-1.2c-0.8,0-1.5,0-2.3,0.1c-5.1,0.8-10.5,1.2-17.6,1.3c-3.6,0-7.2,0.4-10.8,0.7
			c-0.7,0.1-1.3,0.1-2,0.2l-2.6,0.3c-5.3,0.5-10.5,1-15.7,1.5c-2.3,0.2-4.7,0.4-7,0.7c-2.3,0.2-4.6,0.4-7,0.7
			c-1.9,0.2-3.9,0.4-5.8,0.5c-1.9,0.2-3.9,0.4-5.8,0.6l-4.3,0.4c-6.2,0.6-12.6,1.2-18.9,1.8c-4.9,0.5-10.1,0.7-15.9,0.7
			c-6.7,0-13.2-0.3-18.2-0.6c-15.2-0.9-28.1-1.5-39.4-1.8c-3.9-0.1-8.1-0.1-13.6-0.1c-2.3,0-4.5,0-6.8,0c-2.2,0-4.5,0-6.7,0H703
			c-0.8,0-1.7,0-2.5-0.1c-1.4-0.2-2.4-1.3-2.4-2.6c0-1.2,0.9-2.3,2.3-2.5c0.6-0.1,1-0.1,1.5-0.1c7.3,0.1,14.8,0.2,22.2,0.2
			c11,0,22.1,0.1,33.2,0.3c4.4,0.1,9.1,0.4,14.5,0.8c1,0.1,2,0.1,3,0.2c3.2,0.2,6.5,0.5,9.7,0.6c5.3,0.3,10,0.4,14.2,0.4
			c6.4,0,12.1-0.3,17.4-0.9c6.7-0.7,14.1-1.4,22-2.1c2.5-0.3,4.9-0.5,7.4-0.7c3.9-0.3,7.9-0.7,11.7-1.1c7.2-0.7,14.6-1.4,21.7-2.1
			l1.6-0.1l0.2,0c3-0.2,6.1-0.4,9-0.6c1.5-0.1,3-0.2,4.5-0.3c1.5-0.1,3.1-0.2,4.6-0.3c3.4-0.2,6.8-0.5,10.4-0.9l2.7-0.2l3-0.3l0.3,0
			l0.1-0.3c2.9-16.2,5.7-32.3,8.6-48.5c4.3-24.5,8.8-49.8,13.2-74.7l0.1-0.4l-0.5,0c-1-0.1-4-0.1-9-0.1c-39.2,0-204.5,1.7-216.2,2.4
			l-0.3,0l-0.1,0.2c-0.1,0.3-0.2,0.6-0.3,1c-0.1,0.2-0.1,0.5-0.2,0.8c-5.5,23.3-11.4,48.3-17,72.7l-3.2,13.8
			c-0.7,2.9-1.9,5.6-3.3,8.4c-0.6,1.2-1.2,2.6-1.7,3.7c-0.6,1.4-0.9,2.5-0.9,3.6c-0.6,31.4-1.2,65-1.7,97.3c0,0.8,0,1.7,0,2.6
			c0,0.9-0.1,1.8-0.1,2.6c-0.1,3.2-0.2,6.8-0.2,10.4c0,2.3,0.1,4.7,0.3,7.2c0.1,0.4,0.1,0.8,0.1,1.2c0,0.4,0.1,0.8,0.1,1.3l0,0.3
			l0.3,0l0.1,0c0.4,0.1,0.7,0.1,1.1,0.1c0.2,0,0.3,0,0.5,0c1.7-0.1,3.5-0.1,5.3-0.1c15.1,0,30.1,2.2,44.1,4.4
			c11.6,1.8,21.1,2.7,29.9,2.7c4.7,0,9.5-0.1,14.3-0.1c4.8,0,9.6,0,14.3,0.1c0.3,0,0.7,0,1,0c7.5,0,14.7-1.1,21.7-2.1
			c6.5-1,13.2-1.8,19.6-2.6l2.3-0.3c0.9-0.1,1.9-0.3,2.9-0.4c1-0.1,2-0.3,2.9-0.4c3.4-0.5,7.3-1,11.2-1.3c2.2-0.2,4.3-0.3,6.4-0.3
			c1.5,0,3.1,0,4.7-0.1c2,0,3.8-0.1,5.8-0.2l0.3,0c1,0,2-0.1,3-0.1c1,0,2-0.1,3-0.1h1.8c2.2,0,4.8,0,7.1,0.2
			c1.2,0.1,2.5,0.1,3.8,0.1c3.8,0,7.4-0.4,10.5-0.7c0.8-0.1,1.6-0.2,2.4-0.2c3,0,6.1,0.7,9.7,2.1c0.6,0.3,1.3,0.8,1.5,1.1
			c0.8,1,0.9,2.4,0.2,3.2c-0.4,0.7-1.1,1-1.8,1c-0.3,0-0.6-0.1-1-0.2c-1.4-0.4-2.4-0.8-3.5-1.3c-1.4-0.6-2.9-0.9-4.6-0.9
			c-0.5,0-1,0-1.5,0.1c-0.7,0-1.6,0.1-2.4,0.2c-2.2,0.3-4.4,0.5-6.6,0.6c-0.5,0-1.1,0-1.8,0c-0.6,0-1.2,0-1.9,0c-0.6,0-1.2,0-1.8,0
			c0,0,0,0,0,0c-2-0.1-4.2-0.1-6.3-0.1c-1.7,0-3.2,0-4.6,0.1c-1,0-2.2,0.1-3.1,0.2c-0.4,0-0.8,0-1.2,0.1c-1,0.1-2.1,0.1-3.2,0.1
			c-0.7,0-1.3,0-1.9-0.1c-1.7-0.2-3.5-0.3-5.4-0.3c-5.2,0-10.2,0.6-15.6,1.3l-0.6,0.1h-0.2h0l0,0c-2.4,0.3-4.7,0.6-7.1,1
			c-2.4,0.3-4.7,0.7-7.1,1c-2.2,0.3-4.4,0.6-6.6,0.9c-2.5,0.3-5.1,0.7-7.7,1c-4.9,0.7-9.8,1.3-14.6,1.8l-3.1,0.4
			c-0.7,0.1-1.3,0.1-1.9,0.1h-13.4c-10.3,0-20.9,0-31.3-0.4c-4.8-0.1-9.8-0.9-14.6-1.6l-1.3-0.2l-0.7-0.1c-1.5-0.3-2.9-0.5-4.3-0.7
			l-1.2-0.2c-12.3-1.8-26.2-3.8-40.3-3.8c-2.3,0-4.7,0.1-6.9,0.2l-0.4,0v0.4c0,0.1,0,0.1,0,0.2c0,0.1-0.1,0.2-0.1,0.4
			c0,0.1,0,0.3,0,0.4c0,0.2-0.1,0.4-0.1,0.6v5.1c0,1.2,0,2.5,0,3.8c0,3.8,0,7.7,0.1,11.6c0.2,6.1-1,12.4-3.6,19.3
			c-0.3,0.7-0.5,1.4-0.7,2.1l0,0H673c2.3-4.7,3.8-9.3,4.5-13.8c0.2-1.3,0.4-2.7,0.4-4.2v-26.8c0-1.1,0-2.2-0.1-3.2
			c-0.6-6.5-0.6-13.2-0.5-20.1c0.4-20.7,0.8-41.9,1.1-62.4l0.2-8.8v-1.8c0-3.5,0.1-7.1,0.2-10.5c0.1-3.2,0.2-6.8,0.2-10.4
			c0-0.5,0-1.1-0.1-1.8l-0.2-1.2l-0.6,1.1c-0.1,0.2-0.2,0.4-0.3,0.6c-0.1,0.2-0.3,0.4-0.4,0.6c-1.6,2.7-3.2,5.4-4.7,8.2
			c-0.3,0.6-0.6,1.2-0.8,1.8c-0.1,0.2-0.2,0.4-0.3,0.6c-0.1,0.2-0.2,0.4-0.3,0.7l-0.2,0.4c-0.3,0.8-0.7,1.6-1.2,2.3
			c-3.2,4.6-6.6,9.4-10.1,14.4c-6.1,8.7-12.9,18.5-20.6,29.4c-0.7,1-1.6,1.9-2.8,2.7c-1.1,0.8-2.3,1.5-3.5,2.2
			c-0.2,0.1-0.4,0.2-0.6,0.3c-0.6,0.3-1.1,0.6-1.7,1c-1.7,1.1-3.7,1.6-6.2,1.6c-0.2,0-0.4,0-0.6,0c-1.8-0.2-3.1-0.9-4-2.1
			c-0.6-1-1.2-2-1.7-3c-0.3-0.5-0.5-0.9-0.7-1.3c-0.7-1.4-1.5-2.8-2.4-4.4c-0.9-1.4-1.9-2.8-2.8-4.2c-1-1.4-1.9-2.9-2.8-4.2
			c-2.9-4.4-6-9-9-13.6c-3.2-4.9-6.2-9.7-9-14.5c-0.6-1-1.1-2-1.5-3.1l-0.3-0.7c-0.1-0.2-0.1-0.3-0.2-0.5c-0.1-0.2-0.1-0.3-0.2-0.5
			c-0.1-0.4-0.3-0.8-0.4-1.2c-0.2-0.4-0.3-0.9-0.5-1.3c-0.1-0.3-0.2-0.6-0.3-0.9c-0.3-0.8-0.6-1.6-1-2.4c-2.4-5.3-3-10.9-3.5-16.1
			c-0.9-13.7-1.9-27.6-3.1-43.6l-0.1-1.2c-0.2-1.8-0.4-3.6-0.3-5.2c0.2-4.7-0.5-9.6-2-15.2c-1-3.8-1.9-7.6-2.8-11.4
			c-0.6-2.5-1.2-5.2-1.9-7.9c-1.2-4.5-2.7-8.3-4.6-11.5c-3-4.9-2.8-10.3-2.1-14.8c0.7-5.3,3.6-9.9,8.4-13.3c0.2-0.1,0.4-0.2,0.6-0.4
			c0.1-0.1,0.1-0.1,0.2-0.2c0.5-0.3,0.9-0.6,1.4-1l0.3-0.2l-0.2-0.3c-0.2-0.3-0.3-0.5-0.5-0.8c-0.4-0.6-0.8-1.2-1.2-1.8
			c-1.4-2-2.9-4.4-4.7-7.5c-1.7-2.8-3.3-5.7-4.8-8.7c-1.7-3.6-2-7.4-1.1-11.6c0.1-0.4,0.1-0.9,0.1-1.4l0-0.5
			c-0.1-2.2,0.4-2.8,2.4-3.4c1.5-0.4,3.1-0.7,4.6-1.1l1-0.2c0.5-0.1,1.1-0.3,1.6-0.4c0.5-0.1,1.1-0.3,1.7-0.4l4.5-1.1l4.5-1.1
			c1.5-0.3,3-0.7,4.5-1c1.5-0.4,3.1-0.7,4.5-1.1c0.9-0.2,1.7-0.3,2.6-0.3c3.6,0,6.7,1.7,8.6,4.7c1.7,2.7,3.4,5.7,5.5,10
			c4,8.2,8,16.5,11.9,24.6c2.8,5.9,5.6,11.6,8.2,17c0.1,0.1,0.1,0.3,0.2,0.4c0.2,0.5,0.5,1.1,0.9,1.7l0.7,1.2v-1.4v0
			c0.3-0.7,0.5-1.2,0.6-1.8c1.9-7.1,3.7-12.6,5.8-17.8c1.5-3.8,2.4-8,2.6-12.3c0.3-5.3,1-9.8,2.1-14.2l0.1-0.4
			c0.2-0.8,0.3-1.6,0.4-2.5l0.1-0.5c0.2-1.1,0.4-2.2,0.6-3.2c2.4-10.3,6-19.2,11-27.3c1.8-2.9,4.2-6.2,7.8-8.6
			c1.3-0.8,2.5-1.6,3.8-2.5c0.5-0.3,1-0.7,1.5-1c1.5-1.1,3.3-2.2,5.2-3.5c1.4-0.9,3.1-1.4,5.4-1.5c1.5-0.1,3-0.5,4.5-1.1
			c7.5-3.6,15.5-6.7,22.4-9.3c0.8-0.3,1.6-0.6,2.4-0.9c0.8-0.3,1.5-0.6,2.3-0.9c7.3-2.9,14.6-6,21.7-9.1l1-0.4l4.6-2
			c1.3-0.5,2.4-1.4,3.4-2.1c0.3-0.2,0.6-0.4,0.9-0.7c0.3-0.2,0.6-0.4,0.9-0.6c0.3-0.2,0.5-0.3,0.7-0.5c0.2-0.1,0.4-0.3,0.7-0.4
			c0.2-0.1,0.4-0.3,0.7-0.4c0.6-0.3,1.2-0.7,1.7-1.1c4.3-3.3,8.8-6.4,13.2-9.3c0.8-0.6,1.7-1.1,2.5-1.7c1.1-0.6,2.1-1.3,3.1-2
			c3.2-2.1,6.3-4.6,9.3-7l0.6-0.5c0.3-0.3,0.7-0.6,1-0.8c0.7-0.6,1.4-1.2,2.2-1.7c0.9-0.7,1.3-1.5,1.1-2.5c-0.1-1.4,0-2.8,0.3-4.2
			c0.4-2-0.1-3.9-1.7-6l-0.3-0.4c-1.4-1.7-2.9-3.4-4.7-4.8c-6-4.5-10.3-10.3-13.4-14.8c-4.7-7.1-9.5-14.9-13.2-23
			c-3.5-8.2-6-16.6-7.5-25.1c-0.7-4.4-1.6-10.1-1.6-16c0-6.1,0.8-12.9,2.4-21.2c1.7-8,5.5-15.1,11.5-21.1
			c8.2-8.1,15.1-13.5,22.4-17.3c4.8-2.8,10.3-4.9,17.1-6.6c6.2-1.6,12.8-3.4,19.5-4.8c2.7-0.5,5.4-0.8,8.4-0.8
			C823.8,40.1,827.2,40,830.3,40 M784.4,202.9c-0.1,0.2-0.1,0.4-0.1,0.6v0.8l0.6-0.5l1.2-0.9c0.3-0.2,0.5-0.3,0.7-0.5
			c0.3-0.2,0.6-0.4,0.9-0.6c4.7-3.1,9.7-5.5,15-7c4-1.1,8.1-2.3,12-3.5c6.1-1.9,12.2-3.6,18-5.3l1.3-0.4l1.9-0.5
			c4.8-1.3,9.7-2.7,14.7-3.9c1.8-0.3,3.6-0.3,5.3-0.3c1.1,0,2.2,0,3.4-0.1l0.2,0l0.1-0.2c0.1-0.3,0.2-0.5,0.3-0.8
			c0.1-0.2,0.1-0.5,0.2-0.7c0.1-0.5,0.3-1,0.4-1.4c0.2-0.5,0.3-1,0.5-1.5c0.4-1.6,0.7-3.3,1-5.1c0.1-0.8,0.2-1.6,0.4-2.4l0.1-0.4
			c0.3-1.7,0.8-4,1.1-6.1c0.8-4.6,1.6-8.7,2.5-12.7c0.6-2.6,1.3-5.1,2-7.6l1-3.8c2.9-10.7,5.9-21.7,8.2-32.6
			c2-9.8,2.2-18.7,0.5-27.3c-1.1-6-3.9-11.3-8.6-16.2c-4-4.2-8.9-8.2-15.6-12.6c-4.8-3.1-9.9-4.6-15.4-4.6c-6,0-12.3,0-18.4,0.1
			c-2.7,0.1-5.9,0.3-8.9,1c-8.9,2.2-16.8,4.3-24.2,6.3c-2.7,0.7-5.4,2.1-7.6,3.1c-8.4,4.3-16.3,10.5-24.9,19.5
			c-3,3.2-5.4,7.3-7.3,12.6c-1.1,2.8-1.5,5.7-2,8.5l-0.2,1c-0.1,0.5-0.2,1-0.3,1.5c-0.1,0.5-0.1,1-0.2,1.5
			c-1.1,7.3-1.3,13.7-0.6,19.5c2,16.6,6.8,30.9,14.7,43.6c1.3,2.3,2.8,4.6,4.3,6.7l0.5,0.8c1.5,2.1,3,4.4,4.9,7.5
			c1.9,3.2,4.2,5.7,7,7.9c2.5,2,4.9,4.3,6.9,6.7C784.8,195.9,785.6,199.3,784.4,202.9 M778.9,273.8l0.6,0.6c1.1,0.9,2.2,1.8,3.3,2.8
			c3.3,2.7,6,5.1,8.4,7.4c3.5,3.5,6.7,6.1,10,8.2c3.6,2.1,7.7,4.8,11.5,7.4c3.2,2.2,6.7,4.6,10.9,6.4c2.4,1,4.5,2.1,6.5,3.4
			c3.4,2.3,7.3,3.8,11,5.3l0.9,0.3c3.5,1.3,7,1.5,10.5,1.7c0.8,0,1.6,0,2.4,0.1c3.7,0.3,7.3,0.4,11.6,0.4c0.8,0,1.5,0,2.3,0
			c0.8,0,1.5,0,2.3,0h4c6.3,0,11.8-0.6,16.7-1.9c9.7-2.3,18.4-7.4,26.7-15.5c2.7-2.6,5.2-5.7,7.2-8.4l0.7-0.9
			c3.1-4.2,4.7-7.7,5.2-11.4c0.1-1.1,0.3-2.2,0.5-3.3c0.6-3.3,1.2-7.1,0.9-10.8c0-0.3,0.1-0.5,0.2-0.8c0.1-0.2,0.2-0.4,0.2-0.7
			c0.5-2.7,0.9-5.8-0.4-8.7c-2.3-4.8-4.6-9.8-6.9-14.6c-2.2-4.7-4.4-9.6-6.8-14.5c-0.5-1.1-1.3-2.2-2.3-3.2
			c-9.2-8.6-18.7-17.3-29.2-27c-0.2-0.1-0.3-0.3-0.5-0.5c-0.4-0.3-0.8-0.7-1.1-0.9l0,0l0,0c-1.2-0.5-2.4-1.1-3.6-1.7
			c-3-1.5-6.3-3-9.8-4.5c-4.1-1.6-8.1-2.5-11.8-2.6c-0.4,0-0.7,0-1.1,0c-7.6,0-14.6,1.9-20.6,3.7l-4.9,1.6c-2.4,0.8-4.9,1.5-7.4,2.3
			c-7.1,2.3-14.5,4.6-21.8,6.7c-8.3,2.3-15,5.9-20.7,10.9c-8.6,6.8-15.6,12.1-22,16.6c-3.2,2.4-6.2,4.8-8.9,7.1
			c-0.4,0.3-0.8,0.7-1.2,1c-0.4,0.3-0.8,0.7-1.2,1l-0.2,0.2l0.1,0.3c0.1,0.2,0.2,0.4,0.2,0.5c0,0,0.1,0.1,0.1,0.2l0,0l0,0
			c4.4,5.8,9,11.7,13.4,17.4c4.4,5.7,9,11.6,13.5,17.5C778.2,273.2,778.5,273.5,778.9,273.8 M713.1,357.9l0.3,0l4.5-0.1
			c32.9-0.4,66.3-0.7,99.8-1.1c39.6-0.5,80.6-0.9,120.6-1.4l0.2,0l0.1-0.1c0.2-0.2,0.2-0.4,0.2-0.6c0.4-2.3,0.8-4.6,1.2-6.9
			c0.3-1.9,0.7-3.7,1-5.6c0.7-3.9,1.4-8.2,2.2-12.5c0.2-1.1,0.4-2.3,0.6-3.4c0.2-1.1,0.3-2.2,0.5-3.3c0.9-5.8,1.9-11.4,3.8-16.7
			c0.2-0.3,0.2-0.7,0.3-1.1c0-0.1,0-0.3,0.1-0.5c0.1-0.2,0.1-0.4,0.1-0.6c0-0.2,0-0.3,0.1-0.5c1-5.2,0.7-10.7,0.4-15.6
			c-0.2-3.4-1.2-6.9-2.9-10.7c-1.4-3.4-4.2-5.6-7.1-7.7l-0.6-0.4v0.8c0,0.6-0.1,1.2-0.2,1.7c-0.1,0.5-0.1,1-0.2,1.4l-0.1,0.7
			c-0.6,5.8-1.7,12-5,17.2c-3.1,4.9-7.2,9.2-11,13.4l-0.1,0.1l-0.7,0.7c-5.1,5.5-11.9,9-17.3,11.9c-5.9,3.1-12.7,4.9-20.2,5.4
			c-5,0.3-10.1,0.5-15,0.5c-6.5,0-13-0.3-19.2-0.9c-7.8-0.7-14.6-4-20.4-7.1c-0.3-0.1-0.6-0.3-0.8-0.4c-0.3-0.2-0.6-0.3-0.8-0.4
			c-1.6-0.9-3.1-1.7-4.4-2.3c-4.9-2.1-9.3-4.7-13.7-8c-1.8-1.4-3.6-2.6-5.2-3.4c-7.8-4.6-13.3-8.9-17.9-13.7
			c-1.8-1.9-3.7-3.5-5.9-5.2c-0.3-0.2-0.6-0.5-0.9-0.7c-0.7-0.6-1.5-1.1-2.2-1.8l-0.5-0.4c-1.2-1-2.3-1.9-2.9-3.3l0,0l0,0
			c-5.9-7.5-11.8-15.1-17.5-22.6l-1-1.3c-1.1-1.5-2.2-2.9-3.4-4.4c-1.1-1.4-2.2-2.9-3.3-4.3l-1.9-2.5l-0.2-0.3l-0.3,0.2
			c-0.3,0.2-0.7,0.4-1,0.5c-0.3,0.2-0.7,0.4-1,0.5c-0.5,0.2-0.9,0.5-1.4,0.7c-0.9,0.5-1.7,0.9-2.6,1.3c-1.7,0.8-3.5,1.5-5.2,2.3
			c-4.7,2.1-9.5,4.2-14.3,6.2c-4.1,1.6-8,3.1-11.5,4.4c-1.5,0.6-3,1.2-4.5,1.7c-1.5,0.6-3.1,1.2-4.6,1.8c-3.1,1.2-6.1,2.6-9.2,4
			c-1.1,0.5-2.3,1-3.4,1.5c-0.8,0.3-1.5,0.6-2.2,1c-0.5,0.2-1,0.4-1.5,0.6l-0.3,0.1l0.1,0.4l15,45.3c4.4,13,9.1,27,15.1,45.4
			L713.1,357.9 M648.2,318.2c-0.1,0.2-0.1,0.4-0.1,0.5c0,0.2,0,0.3-0.1,0.4l0,0l0,0c0,0.3-0.1,0.7-0.1,1c-0.1,0.7-0.2,1.3-0.2,1.9
			c-0.2,6.7-1.6,13.5-4.5,21.5c-4.1,11.5-7.3,22.3-9.6,33.2c-2.1,10-4.9,19.8-7.3,28.3c-4.7,16.6-6.9,32.1-6.7,47.5
			c0,0.7,0,1.5-0.2,2.2c-0.4,1.4-1.3,2.3-2.5,2.3c-1.4,0-2.4-1-2.6-2.4l0,0l0,0c-0.1-0.2-0.1-0.6-0.1-0.9v-0.9
			c-0.1-14.1,1.5-27.6,5-41.3c0.1-0.4,0.2-0.9,0.3-1.4c0.1-0.3,0.1-0.7,0.2-1l0.1-0.6l-0.6,0.1l-2.2,0.5l-1,0.2
			c-5.4,1.2-10.6,2.4-15.8,3.7c-3.8,1-7.2,1.5-10.4,1.5c-1.4,0-2.7-0.1-4.1-0.3l-0.4,0l-0.1,0.4c-0.1,0.5-0.1,1.1,0,1.5
			c0.1,1.5,0.2,3.1,0.3,4.6c0,1.6,0.1,3.1,0.2,4.7l0,0.5c0.2,3.1,0.4,6.3,0.7,9.5c0.8,9.9,1.6,20.5,2.2,30.9
			c0.4,7.2,1.7,12.9,3.9,17.8c0.2,0.5,0.4,1,0.6,1.6c0.2,0.4,0.3,0.9,0.5,1.3c0.7,1.9,1.2,3.4,2,5c2.2,4,4.7,8,7.4,12.3
			c1,1.4,2,2.9,2.9,4.4c1,1.5,2,3,3,4.4c1.1,1.6,2.2,3.3,3.3,5c1.7,2.5,3.4,5,5,7.6c0.3,0.4,0.5,0.7,0.8,1.1
			c0.3,0.4,0.5,0.7,0.8,1.1c1.8,2.4,3.6,4.9,4.4,8c0.3,0.9,0.7,1.3,1,1.5c0.2,0.1,0.4,0.1,0.7,0.1c0.4,0,0.8-0.1,1.4-0.3
			c0.8-0.3,1.7-0.8,2.5-1.2l0.5-0.3c0.6-0.4,1.2-0.7,1.8-1c2.1-1.1,3.7-2.6,5.3-4.8c1.1-1.7,2.2-3.4,3.4-5c0.9-1.2,1.8-2.5,2.7-3.8
			c2.5-3.8,5.3-7.6,7.9-11.3l1.5-2l0.5-0.7c5.8-8.1,11.8-16.4,16.6-25.4c0.2-0.4,0.5-0.9,0.8-1.3c0.3-0.5,0.6-0.9,0.8-1.4l1.5-2.7
			l6.6-11.5c2.7-4.3,5.3-9,6.7-14.3c0.3-1.3,0.6-2.5,0.9-3.8c0.3-1.3,0.6-2.5,0.9-3.8c0.1-0.6,0.3-1.3,0.4-1.9
			c0.2-0.6,0.3-1.3,0.5-1.9c4.1-17.8,9.3-39.9,14.8-63.3l3.6-15.5c0.4-1.9,0.3-3.6-0.2-5.3c-9.1-27.5-18.6-56-27.9-84.1
			c-0.1-0.4-0.3-0.9-0.5-1.4c-0.2-0.6-0.4-1.2-0.6-1.8l-0.1-0.4l-0.4,0.2c-3.8,1.8-11,6.8-13.1,9.1c-0.3,0.3-0.7,0.8-1.1,1.4
			c-6,8.9-10.2,18.8-12.5,29.5C649.5,310.6,648.8,314.2,648.2,318.2 M951,315.5c-1.8,10.6-3.7,21.4-5.6,31.8l-0.6,3.5
			c-1.4,7.5-2.8,15.2-4.1,22.8c-0.2,1-0.3,2-0.5,3.1c-0.1,0.7-0.2,1.4-0.3,2.1l-0.2,1.2l-0.1,0.8l0.7-0.4c0.1-0.1,0.3-0.1,0.4-0.1h0
			l0,0c0.2,0,0.3,0,0.5-0.1c0.4-0.1,0.8-0.1,1.2-0.3c0.5-0.3,0.9-0.5,1.4-0.7c1.8-0.8,3.5-1.6,5-2.4c1.1-0.7,2.3-1.4,3.5-2.3
			l0.4-0.3c1-0.7,2-1.5,3.1-2.1c3.9-2.2,6.7-5.1,10.1-9c1.1-1.2,2.2-2.4,3.7-3.9l0.1-0.1V359c0-0.4,0-0.9,0-1.3c0-0.5-0.1-1-0.1-1.5
			c-0.1-0.9-0.1-1.8-0.1-2.7c-0.1-2.5-0.3-5.2-0.6-7.8c-0.2-1.7-0.5-3.4-0.9-5.1c-0.3-1.3-0.6-2.8-0.8-4.4c-0.3-3-1.3-6-2.1-8.6
			c-0.3-1.1-0.8-2.4-1.3-3.7c-1.2-3.2-2.4-6.6-3.4-10c-0.7-2.3-1.3-4.7-1.8-6.9c-0.2-1-0.5-1.9-0.7-2.8c-0.6-2.8-1.2-5.3-1.8-7.5
			l-0.4-1.3l-0.2-0.8c-0.1-0.2-0.1-0.4-0.2-0.6c0-0.2-0.1-0.3-0.1-0.5l-0.8-3.2v3.2l0,0.5c0.1,7-0.7,12.5-2.6,17.3
			c-0.5,1.2-0.7,2.5-0.9,3.6l0,0.2l0,0v0V315.5 M584.6,343.6l0.2,0.5c0.1,0.2,0.2,0.5,0.3,0.7c0.2,0.4,0.3,0.7,0.5,1
			c8.5,13.7,17.8,28.6,27.6,44.3l0.4,0.6c1,1.8,2.3,2.8,3.5,2.9c0.2,0,0.3,0,0.5,0c1.1,0,2.3-0.6,3.7-1.9c0.8-0.7,1.5-1.3,2.4-1.9
			c0.4-0.3,0.8-0.6,1.2-0.8l0.2-0.2l0.2,0.1l0.5,0.2l0.1-0.5c1-4.9,2.1-9.6,3.2-14.7c0.4-1.5,0.7-3.1,1.1-4.6l1-4.4l0.1-0.3
			l-0.3-0.1c-1.5-0.5-2.3-1.9-2.9-3.2l0-0.1l-0.1-0.1l-0.1-0.1c-3.5-7.2-7-14.6-10.5-21.7c-3.4-7.2-7-14.6-10.5-21.8
			c-1.2-2.3-3-5.9-5-9.4c-1.1-1.9-2.5-2.8-4.4-2.8c-0.6,0-1.3,0-1.9,0.2c-1.7,0.4-3.4,0.8-5.1,1.2c-2,0.5-4.2,0.9-6.2,1.4
			c-1.9,0.4-3.8,0.9-5.6,1.3c-1.9,0.4-3.8,0.9-5.7,1.3c-1.6,0.4-2.3,1.1-2.8,2.7c-0.8,3-0.4,6.1,1.4,9.7c3.5,6.4,7.3,13.1,12.3,19.2
			c0.2,0.2,0.3,0.5,0.4,0.7l0,0.1l0.1,0.1c0,0,0,0,0,0.1C584.4,343.4,584.5,343.5,584.6,343.6 M585.2,409.9l0.3,0
			c1.6-0.1,3.1-0.2,4.5-0.3l0,0l0,0c0.4-0.1,0.7-0.1,1.1-0.1c0.6,0,1.1,0,1.8-0.1c2-0.4,4.1-0.9,6.2-1.3c5.8-1.2,11.7-2.5,17.5-3.9
			l0,0l0,0l0.2-0.1l0.2,0c0.6-0.2,1.3-0.3,2-0.3c0.6,0,1.2,0.1,1.8,0.4l0.5,0.2l0.1-0.5c0.3-1.5,0.7-2.8,1-4.1
			c0.2-0.7,0.4-1.4,0.6-2.2l0.3-1.1l-0.9,0.7c-1.4,1.1-3,1.7-4.7,1.7c-0.6,0-1.2-0.1-1.9-0.2c-3.1-0.8-5.2-2.3-6.7-4.7l-1.6-2.6
			c-8.5-13.7-17.2-27.8-26.1-41.8c-0.3-0.4-0.6-0.8-0.8-1.1l0-0.1l0,0c0,0-0.1-0.1-0.1-0.1c-0.1-0.1-0.1-0.2-0.2-0.3l-0.2-0.2
			l-0.3,0.1c-3.6,1.7-6.3,4.4-7.1,7.4c-1.3,4.6-2.2,10,0.8,15.3c2.5,4.4,4.3,9.3,5.6,15.3c1,4.5,2.2,9.3,3.5,14.4
			c0.8,3.1,1.6,6.4,2.4,9.5L585.2,409.9 M928,444.8l0.6-0.1c4.3-0.8,8.6-1.5,12.8-2.2l2-0.3l25.2-4.2l0.3-0.1v-0.3v-11.4
			c-0.1-13.2-0.1-26.3,0-39.1c0-1.7,0.1-3.4,0.2-5.1l0-0.3c0.1-1.1,0.2-2.1,0.2-3.2V368v-1l-0.7,0.7l-0.6,0.6
			c-0.8,0.7-1.3,1.2-1.7,1.8c-1.8,2.4-4.1,3.9-6.4,5.4c-1.3,0.8-2.6,1.6-3.8,2.5c-0.8,0.6-1.6,1.2-2.4,1.7c-4.6,3.1-9.2,5.9-15.1,6
			l-0.3,0l-0.1,0.3c-1.6,8.7-3.1,17.7-4.6,26.3c-1,5.7-2,11.3-3,16.8l-2.7,15.1L928,444.8 M926.8,450.8c0,0.2-0.1,0.4-0.1,0.7
			c-0.1,0.2-0.1,0.5-0.2,0.7c-0.4,1.8-0.7,3.6-1,5.6c-1.1,6.6-2,12-3,16.9c-1.6,8.2-1.5,16.9-1.1,24.2c0.1,1.3,0.1,2.7,0.2,4
			c0.1,1.3,0.1,2.6,0.2,4l0.1,1c0.2,3.6,0.4,7.3,0.6,10.9l0.2,3.2l0,0.7c0.4,6.1,0.8,12.5,1.7,18.6c0.1,0.9,0.2,1.7,0.4,2.6
			c0.1,0.8,0.2,1.7,0.3,2.5l0.2,1.3c0.6,3.8,1.1,7.8,1.3,11.7l0,0l0,0c0.3,1.5,0.5,3.1,0.7,4.7l0,0.3l0.3,0c0.1,0,0.3,0,0.4,0
			c1.5,0,2.6-0.5,3.7-0.9l0.1,0l0.1-0.1l0.1-0.1c5.1-2.1,9.5-5.6,13.4-9c1.6-1.4,2.7-3,3.3-4.8l19.5-53.4c0.3-0.7,0.4-1.6,0.4-2.7
			v-47.9c0-0.6,0-1.1-0.1-1.8v-0.1v-0.5l-0.5,0.1c-13.3,2.2-26.8,4.4-39.9,6.6l-1.1,0.2l-0.3,0v0.3c0,0,0,0.1,0,0.1
			C926.8,450.7,926.8,450.8,926.8,450.8 M830.3,39.6c-3.3,0-6.7,0-10.4,0.1c-3.3,0-6,0.3-8.5,0.8c-6.5,1.4-13.1,3.1-19.5,4.8
			c-6.8,1.7-12.3,3.8-17.2,6.6C767,56,760,61.6,752.2,69.3c-6,6-9.9,13.1-11.6,21.3c-1.6,8.2-2.4,15-2.4,21.3
			c0,5.8,0.8,11.4,1.6,16.1c1.5,8.8,4.1,17.3,7.5,25.2c3.7,8.2,8.5,15.9,13.2,23.1c3.1,4.6,7.4,10.4,13.5,14.9
			c1.7,1.3,3.2,3,4.6,4.7l0.3,0.4c1.4,1.9,2,3.7,1.6,5.7c-0.3,1.4-0.4,2.9-0.3,4.3c0.2,0.9-0.1,1.5-0.9,2.1
			c-1.1,0.8-2.1,1.7-3.2,2.6c-3.1,2.5-6.4,5.2-9.8,7.4c-1,0.7-2,1.4-3.1,2c-5.2,3.5-10.6,7-15.7,11c-0.7,0.6-1.5,1-2.3,1.5
			c-0.5,0.3-0.9,0.6-1.4,0.9c-0.6,0.4-1.2,0.9-1.8,1.3c-1,0.8-2.1,1.6-3.3,2.1l-4.6,2c-7.4,3.2-15,6.5-22.6,9.5
			c-1.6,0.6-3.1,1.2-4.7,1.8c-7.4,2.8-15.1,5.8-22.4,9.3c-1.4,0.6-2.9,1-4.4,1.1c-2.3,0.1-4.1,0.6-5.6,1.6c-1.7,1.1-3.5,2.3-5.2,3.5
			c-1.8,1.2-3.5,2.4-5.3,3.5c-3.7,2.4-6.1,5.8-7.9,8.7c-5,8.1-8.6,17.1-11,27.4c-0.3,1.2-0.5,2.5-0.7,3.7c-0.1,1-0.3,1.9-0.5,2.9
			c-1.1,4.3-1.8,8.8-2.1,14.3c-0.2,4.4-1.1,8.5-2.6,12.2c-2.1,5.1-3.9,10.6-5.8,17.8c-0.1,0.6-0.3,1.1-0.6,1.8v0.1
			c-0.5-0.8-0.8-1.5-1.1-2.1c-6.2-12.8-13.2-27.4-20.1-41.6c-2.1-4.2-3.8-7.3-5.5-10c-2-3.2-5.2-4.9-8.9-4.9c-0.9,0-1.7,0.1-2.7,0.3
			c-3,0.7-6.1,1.4-9.1,2.1c-3,0.7-6,1.4-9,2.1c-1.1,0.3-2.2,0.5-3.3,0.8c-1.8,0.4-3.7,0.8-5.6,1.3c-2.2,0.6-2.8,1.4-2.7,3.8
			c0,0.2,0,0.3,0,0.5c0,0.5,0,0.9-0.1,1.3c-1,4.4-0.6,8.3,1.1,11.9c1.5,3,3.1,5.9,4.8,8.7c1.5,2.5,3.1,5.1,4.7,7.5
			c0.5,0.9,1.1,1.7,1.7,2.6c-0.5,0.4-0.9,0.7-1.4,1c-0.3,0.2-0.5,0.4-0.8,0.5c-4.9,3.4-7.9,8.1-8.6,13.6c-0.6,4.4-0.9,10,2.2,15.1
			c1.9,3.2,3.4,6.9,4.6,11.4c0.7,2.6,1.3,5.2,1.9,7.9c0.9,3.8,1.8,7.6,2.8,11.4c1.5,5.4,2.2,10.4,2,15.1c-0.1,1.7,0.1,3.5,0.3,5.3
			l0.1,1.2c1.2,15.6,2.2,29.6,3.1,43.6c0.4,4.9,1,10.7,3.5,16.2c0.5,1.1,0.9,2.2,1.3,3.2c0.3,0.8,0.6,1.7,0.9,2.5
			c0.1,0.3,0.3,0.7,0.4,1c0.6,1.3,1.2,2.7,1.9,3.9c2.7,4.6,5.6,9.3,9,14.5c3,4.6,6,9.1,9,13.6c1.9,2.8,3.8,5.7,5.7,8.5
			c0.9,1.4,1.7,2.8,2.4,4.3c0.2,0.4,0.4,0.8,0.7,1.3c0.5,1,1.1,2,1.7,3c1,1.4,2.4,2.1,4.3,2.3c0.2,0,0.5,0,0.7,0
			c2.5,0,4.6-0.5,6.4-1.7c0.7-0.5,1.5-0.9,2.2-1.3c1.2-0.7,2.4-1.4,3.5-2.2c1.4-0.9,2.3-1.9,2.9-2.8c12-17,21.7-30.9,30.7-43.7
			c0.6-0.8,1-1.8,1.4-2.7c0.2-0.4,0.4-0.9,0.6-1.3c0.2-0.6,0.5-1.2,0.8-1.8c1.5-2.8,3.1-5.5,4.7-8.2c0.2-0.4,0.5-0.8,0.7-1.2
			c0.1,0.6,0.1,1.2,0.1,1.7c0,3.5-0.1,7-0.2,10.4c-0.1,3.5-0.2,7-0.2,10.5v1.8c-0.4,23.3-0.8,47.5-1.3,71.2
			c-0.1,7.5-0.1,13.8,0.5,20.1c0.1,1,0.1,2.1,0.1,3.2v26.8c0,1.4-0.2,2.8-0.4,4.1c-0.7,4.5-2.2,9.1-4.5,13.8l-0.3,0.5h6.9l0.1-0.3
			c0.2-0.7,0.4-1.4,0.7-2.1c2.6-6.9,3.8-13.3,3.6-19.5c-0.2-5.1-0.1-10.3-0.1-15.3c0-1.7,0-3.4,0-5.1c0-0.3,0.1-0.7,0.1-1
			c0-0.2,0.1-0.4,0.1-0.6c2.3-0.1,4.6-0.2,6.9-0.2c13.6,0,27.1,1.9,40.2,3.8l1.2,0.2c1.7,0.2,3.3,0.5,5,0.8
			c5.2,0.8,10.6,1.7,15.9,1.8c10.4,0.4,21.1,0.4,31.3,0.4c4.5,0,8.9,0,13.4,0c0.7,0,1.3,0,2-0.1c5.8-0.7,11.8-1.4,17.7-2.2
			c4.8-0.6,9.6-1.3,14.3-1.9c4.7-0.6,9.5-1.3,14.2-1.9h0.2c5.5-0.7,10.9-1.3,16.2-1.3c1.8,0,3.6,0.1,5.4,0.3c0.7,0.1,1.3,0.1,2,0.1
			c1.5,0,3-0.1,4.4-0.2c1-0.1,2.1-0.2,3.1-0.2c1.6-0.1,3.1-0.1,4.6-0.1c2.1,0,4.2,0.1,6.3,0.1c1.2,0,2.4,0,3.7,0c0.6,0,1.2,0,1.8,0
			c2.2-0.1,4.4-0.3,6.6-0.6c0.8-0.1,1.6-0.2,2.3-0.2c0.5,0,1-0.1,1.5-0.1c1.6,0,3,0.3,4.4,0.9c1.1,0.5,2.2,0.9,3.5,1.3
			c0.4,0.1,0.7,0.2,1.1,0.2c0.9,0,1.6-0.4,2.1-1.2c0.8-1,0.7-2.6-0.2-3.7c-0.3-0.3-1-0.9-1.7-1.2c-3.6-1.4-6.7-2.2-9.8-2.2
			c-0.8,0-1.6,0.1-2.5,0.2c-3.2,0.4-6.8,0.7-10.5,0.7c-1.3,0-2.5,0-3.8-0.1c-2.3-0.2-4.8-0.2-7.1-0.2c-0.6,0-1.2,0-1.8,0
			c-2,0.1-4,0.1-6,0.2s-3.9,0.2-6,0.2c-1.6,0.1-3.2,0.1-4.7,0.1c-2.1,0-4.2,0.1-6.4,0.3c-3.8,0.3-7.6,0.8-11.2,1.3
			c-1.9,0.3-3.9,0.5-5.8,0.8c-7.2,0.9-14.6,1.8-21.9,2.9c-7.1,1.1-14.3,2.1-21.6,2.1c-0.3,0-0.7,0-1,0c-4.8,0-9.5-0.1-14.3-0.1
			s-9.6,0-14.3,0.1c-9,0-18.5-0.9-29.8-2.7c-14.1-2.2-29.2-4.4-44.2-4.4c-1.8,0-3.5,0-5.3,0.1c-0.1,0-0.3,0-0.4,0
			c-0.4,0-0.7-0.1-1.2-0.1c-0.1-0.9-0.1-1.7-0.2-2.5c-0.2-2.5-0.3-4.9-0.3-7.2c0-3.5,0.1-7,0.2-10.4c0-1.7,0.1-3.5,0.1-5.2
			c0.5-33.3,1.1-67.3,1.7-97.3c0-1,0.3-2.1,0.9-3.4c0.5-1.2,1.1-2.5,1.7-3.7c1.3-2.7,2.6-5.5,3.3-8.5l3.2-13.8
			c5.5-23.8,11.3-48.5,17-72.7c0.2-0.6,0.3-1.2,0.5-1.7c11-0.6,174.9-2.4,216.1-2.4c4.8,0,7.9,0,9,0.1c-7.3,41-14.5,82-21.8,123.2
			l-3,0.3c-4.5,0.4-8.7,0.8-13,1.1c-3,0.2-6.1,0.4-9.1,0.6c-3,0.2-6.1,0.4-9.2,0.6c-7.8,0.7-15.7,1.4-23.4,2.2
			c-3.9,0.4-7.8,0.8-11.7,1.1c-2.5,0.2-4.9,0.4-7.4,0.7c-7.2,0.6-14.7,1.3-22,2.1c-5.4,0.6-11,0.9-17.4,0.9c-4.3,0-9-0.1-14.2-0.4
			c-4.2-0.1-8.5-0.5-12.7-0.8c-4.8-0.4-9.7-0.7-14.5-0.8c-11.1-0.2-22.4-0.3-33.2-0.3c-7.4,0-14.8-0.1-22.2-0.2c-0.5,0-1,0-1.6,0.1
			c-1.6,0.3-2.6,1.5-2.6,2.9c0,1.5,1.2,2.8,2.8,3c0.8,0.1,1.7,0.1,2.5,0.1c3.6,0,7.3,0,10.9,0c4.5,0,9,0,13.5,0
			c4.5,0,9.1,0,13.6,0.1c13.3,0.4,27.2,1.1,39.4,1.8c5.9,0.3,12,0.6,18.2,0.6c5.2,0,10.6-0.2,15.9-0.7c7.7-0.8,15.6-1.5,23.2-2.2
			c3.9-0.4,7.7-0.7,11.6-1.1c4.6-0.4,9.3-0.9,13.9-1.3c5.2-0.5,10.4-1,15.7-1.5l2.6-0.3c4.2-0.4,8.5-0.9,12.7-0.9
			c7.2-0.1,12.6-0.5,17.7-1.3c0.7-0.1,1.4-0.1,2.2-0.1c0.4,0,0.8,0,1.2,0c0.1,2,0.2,4,0.4,6c0.1,1.7,0.2,3.4,0.3,5.1
			c0.2,2.9,0.3,5.8,0.5,8.7c0.3,6,0.6,12.1,1,18.2c0.1,1.1,0.2,2.3,0.2,3.4c0.4,5.5,0.8,11.1,2.2,16.6c0.3,1.1,0.4,2.4,0.5,3.7v0.2
			c0.2,3.2,0.4,6.5,0.7,9.8c0.1,0.9,0.2,1.9,0.3,2.8c0.4,3.8,0.8,7.7,1.4,11.5c1.7,9.3,2.5,18.4,2.5,27.1c0,6.7,0.3,13.6,0.6,20.3
			c0.2,5.2,0.6,10.6,1,15.8v0.3h0.3c1.8,0,3.6,0,5.8-0.1h0.4v-0.4c-0.3-3.5-0.5-7.1-0.8-10.7c-0.6-7.3-1.2-14.8-1.6-22.2
			c-0.1-1.4-0.1-2.7-0.2-4.1c-0.4-8.9-0.8-18.2-2.2-27.1c-0.2-1.1-0.2-2.3-0.3-3.4c0-0.7-0.1-1.3-0.1-2c6.8-1.6,12.7-4.6,17.7-9.1
			c1.5-1.4,3.1-2.7,4.7-4c1.4-1.1,2.4-2.5,3-4.4l11.1-30.3c0.7-1.9,1.3-3.7,2-5.6c2-5.5,4-11.1,6.3-16.5c1.5-3.4,1.6-6.8,1.6-9.8
			l-0.3-87.1c0-9.3,0.1-19.2,0.7-29.3c0.8-4.9,0.7-9.8,0.6-14.6v-2.4c0-6.5-0.1-12.4-1.8-18.3c-0.3-1-0.4-2.1-0.5-3.1
			c-0.2-3.3-1-6.7-2.5-10.7c-4-10.4-6.8-20-8.6-29.4c-1-4.8-2.6-9.2-4.7-13.1c-0.9-1.6-2.1-3-3.5-3.9c-0.5-0.3-1-0.9-1.2-1.5
			c-1.7-5.1-5.2-9.1-10.8-12.8c-1.8-1.2-2.4-2.3-2.1-4c0.4-3.2-0.7-6.1-1.8-8.5c-4.3-8.8-8.6-18-13.2-28.1c-1-2.1-2.1-3.8-3.7-5.1
			l-28.6-26.5c-1.9-1.6-3.6-2.9-5.7-3.6c-1.5-0.5-3-1.2-4.9-2.3c-4.9-2.7-9.6-4.5-14.2-5.4c-0.4-0.1-0.9-0.3-1.2-0.4
			c0.7-3.6,1.4-7,2-10.4c0.4-2,0.7-4,1-6c0.7-4.4,1.5-8.9,2.7-13.2c0.9-3.3,1.7-6.5,2.6-9.8c3.1-11.6,6.4-23.6,8.9-35.6
			c2-9.6,2.2-18.4,0.6-27v-0.1c-1-4.8-2-9.7-4.9-13.7c-5.2-7.1-10.7-12.5-16.8-16.6c-1.1-0.8-2.3-1.5-3.4-2.2
			c-1.1-0.7-2.2-1.4-3.3-2.1c-3.7-2.6-7.9-4.1-12.5-4.3C839.3,39.7,835,39.6,830.3,39.6L830.3,39.6z M784.7,203.5
			c0-0.2,0-0.3,0.1-0.4c1.2-3.8,0.4-7.4-2.3-10.6c-1.9-2.3-4.3-4.7-7-6.8c-2.8-2.2-5-4.7-6.9-7.8c-1.6-2.6-3.2-5.1-4.9-7.5
			c-1.6-2.4-3.3-4.9-4.8-7.5c-7.8-12.6-12.6-26.8-14.6-43.4c-0.7-5.8-0.5-12.1,0.6-19.4c0.2-1,0.3-2,0.5-3c0.5-3.2,0.9-6.4,2.1-9.5
			c1.9-5.3,4.2-9.3,7.2-12.5c8.5-8.9,16.4-15.1,24.8-19.4c2.4-1.2,5-2.4,7.5-3.1c7.7-2.1,15.8-4.2,24.2-6.3c2.9-0.7,6-0.9,8.8-1
			c6.1-0.1,12.3-0.1,18.4-0.1c5.5,0,10.5,1.5,15.2,4.5c6.5,4.3,11.5,8.3,15.5,12.5c4.6,4.8,7.4,10,8.5,16c1.7,8.6,1.5,17.5-0.5,27.1
			c-2.6,12.2-6,24.5-9.2,36.4c-0.7,2.5-1.4,5-2,7.6c-1,4.4-1.8,8.6-2.5,12.7c-0.3,2-0.7,4.1-1.1,6.1c-0.2,1-0.4,1.9-0.5,2.9
			c-0.3,1.7-0.6,3.4-1,5c-0.3,1-0.6,1.9-0.9,2.9c-0.2,0.5-0.3,1-0.5,1.5c-1.2,0.1-2.3,0.1-3.4,0.1c-1.8,0-3.6,0-5.4,0.3
			c-5.7,1.3-11.3,2.9-16.7,4.4l-1.3,0.4c-6,1.7-12.1,3.5-18,5.3c-4,1.2-8,2.4-12,3.5c-5.3,1.6-10.4,4-15.1,7.1
			c-0.5,0.3-1,0.7-1.6,1.1C785.5,202.9,785.1,203.2,784.7,203.5L784.7,203.5z M866.4,317.4c-3.8,0-7.7-0.1-11.5-0.4
			c-0.8-0.1-1.6-0.1-2.4-0.1c-3.5-0.2-7-0.4-10.4-1.7c-4-1.6-8.2-3.2-11.8-5.6c-2-1.2-4.1-2.3-6.6-3.4c-4.2-1.9-7.8-4.3-10.8-6.4
			c-4.2-2.9-8.3-5.5-11.5-7.4c-4-2.5-7.4-5.6-9.9-8.1c-2.7-2.6-5.6-5.1-8.4-7.4c-1.1-1-2.2-1.9-3.3-2.8c-0.2-0.2-0.4-0.4-0.6-0.6
			c-0.4-0.3-0.7-0.6-0.9-0.9c-4.5-5.9-9-11.7-13.5-17.5c-4.5-5.8-9-11.6-13.4-17.4c-0.1-0.2-0.2-0.3-0.3-0.6c0.8-0.7,1.6-1.3,2.4-2
			c3-2.5,5.8-4.8,8.9-7.1c6.6-4.6,13.6-9.9,22-16.6c5.8-5.1,12.7-8.6,20.6-10.8c9.8-2.8,19.6-6,29.2-9l4.9-1.6
			c6-1.8,13-3.7,20.5-3.7c0.4,0,0.7,0,1.1,0c3.8,0.1,7.7,1,11.7,2.6c3.3,1.4,6.6,2.9,9.8,4.5c1.2,0.6,2.4,1.2,3.6,1.7
			c0.5,0.3,1.1,0.9,1.6,1.3c9.8,9,19.7,18.1,29.2,27c0.9,0.9,1.7,2,2.2,3.1c2.3,4.8,4.6,9.7,6.8,14.5c2.3,4.9,4.6,9.8,6.9,14.6
			c1.3,2.8,0.9,5.8,0.4,8.5c0,0.2-0.1,0.4-0.2,0.5c-0.1,0.3-0.2,0.6-0.2,1c0.3,3.6-0.3,7.2-0.9,10.7c-0.2,1.1-0.4,2.2-0.5,3.3
			c-0.5,3.8-2.2,7.3-5.1,11.2l-0.7,0.9c-2.2,2.9-4.6,5.9-7.2,8.4c-8.3,8.1-17,13.1-26.5,15.4c-5,1.3-10.4,1.9-16.6,1.9
			c-1.3,0-2.7,0-4,0C869.5,317.4,868,317.4,866.4,317.4L866.4,317.4z M713.4,357.5c-5-15.2-10-30.3-15.1-45.4
			c-5-15.1-10-30.2-15-45.3c1.2-0.5,2.4-1.1,3.7-1.6c4.3-1.9,8.4-3.8,12.6-5.5c3-1.2,6.1-2.3,9.1-3.5c3.8-1.4,7.7-2.9,11.5-4.4
			c6.6-2.7,13.2-5.7,19.6-8.5c1.3-0.6,2.6-1.3,4-2c0.7-0.4,1.4-0.7,2.1-1.1l1.9,2.5c2.2,2.9,4.5,5.8,6.7,8.7
			c6,7.8,12.3,16,18.5,23.9c0.6,1.4,1.8,2.4,3,3.4l0.5,0.4c1,0.9,2.1,1.7,3.1,2.5c2,1.6,4.1,3.3,5.9,5.2c4.7,5,10.4,9.3,18,13.8
			c1.7,0.9,3.5,2.1,5.2,3.4c4.1,3,8.6,5.7,13.8,8c1.5,0.7,3,1.5,4.4,2.3c0.6,0.3,1.1,0.6,1.7,0.9c5.7,3.1,12.6,6.4,20.5,7.1
			c6.3,0.6,12.8,0.9,19.3,0.9c5,0,10-0.2,15-0.5c7.7-0.5,14.6-2.4,20.4-5.4c5.5-2.9,12.3-6.5,17.4-12l0.7-0.7
			c3.9-4.2,8-8.6,11.2-13.6c3.5-5.5,4.5-11.9,5.1-17.4c0.1-0.7,0.2-1.3,0.3-2.1c0.1-0.5,0.2-1.1,0.2-1.7c3.1,2.2,5.7,4.3,7,7.5
			c1.7,3.7,2.7,7.2,2.9,10.6c0.3,5.1,0.6,10.4-0.4,15.5c-0.1,0.4-0.1,0.8-0.2,1.1c-0.1,0.6-0.1,1.1-0.3,1.5
			c-1.9,5.5-2.9,11.3-3.8,16.8c-0.4,2.2-0.7,4.5-1.1,6.7c-0.8,4.2-1.5,8.3-2.2,12.5c-0.7,4.1-1.5,8.3-2.2,12.5c0,0.2,0,0.3-0.1,0.4
			c-73.4,0.8-148.2,1.7-220.4,2.5L713.4,357.5L713.4,357.5z M616.9,457.5c1.4,0,2.5-1,2.9-2.6c0.2-0.7,0.2-1.6,0.2-2.3
			c-0.2-15.4,2-30.9,6.7-47.4c2.4-8.3,5.2-18.2,7.3-28.3c2.3-10.6,5.4-21.4,9.6-33.1c2.9-8.1,4.3-15,4.5-21.6c0-0.9,0.2-1.9,0.3-2.9
			c0.1-0.3,0.1-0.7,0.2-1c0.6-3.8,1.3-7.5,2.1-10.9c2.3-10.7,6.5-20.6,12.4-29.4c0.3-0.4,0.7-0.9,1.1-1.3c2.2-2.3,9.3-7.3,13-9
			c0.4,1.2,0.8,2.3,1.1,3.2c9.3,28.1,18.6,56.1,27.9,84.1c0.5,1.6,0.6,3.2,0.2,5.1c-6.7,28.6-13.4,57.1-18.4,78.8
			c-0.3,1.3-0.6,2.5-0.9,3.8c-0.6,2.5-1.2,5.1-1.8,7.6c-1.5,5.6-4.4,10.5-6.7,14.2L672,476c-0.5,0.9-1,1.8-1.5,2.7s-1.1,1.8-1.6,2.7
			c-4.9,9.3-11.1,17.8-17.1,26.1c-3.1,4.3-6.4,8.8-9.4,13.3c-0.9,1.3-1.8,2.6-2.7,3.8c-1.2,1.6-2.3,3.3-3.4,5
			c-1.6,2.3-3.2,3.7-5.1,4.7c-0.6,0.3-1.2,0.6-1.8,1c-0.9,0.5-1.9,1.1-2.9,1.5c-0.5,0.2-0.9,0.3-1.3,0.3c-0.2,0-0.4,0-0.5-0.1
			c-0.3-0.2-0.6-0.6-0.8-1.3c-0.9-3.1-2.7-5.6-4.5-8.1c-0.5-0.7-1.1-1.5-1.6-2.2c-2.7-4.2-5.6-8.4-8.3-12.5c-2-2.9-3.9-5.9-5.9-8.8
			c-2.8-4.4-5.2-8.4-7.4-12.3c-0.8-1.6-1.4-3.2-2-4.9c-0.4-1-0.7-2-1.1-2.9c-2.3-5-3.5-10.7-3.9-17.7c-0.6-10.3-1.4-20.8-2.2-30.9
			c-0.3-3.3-0.5-6.7-0.7-10c-0.1-1.5-0.2-3.1-0.2-4.7c-0.1-1.6-0.2-3.2-0.3-4.7c-0.1-0.4-0.1-0.9,0-1.4c1.3,0.2,2.7,0.3,4.1,0.3
			c3.3,0,6.7-0.5,10.5-1.5c5.5-1.4,10.9-2.6,16.7-3.9l2.2-0.5c-0.2,0.9-0.3,1.7-0.5,2.4c-3.5,13.9-5.1,27.4-5,41.4
			c0,0.3,0,0.6,0,0.9c0,0.3,0,0.7,0.1,1C614.1,456.4,615.3,457.5,616.9,457.5L616.9,457.5z M940.1,380l0.2-1.2
			c0.3-1.9,0.5-3.5,0.8-5.2c1.5-8.8,3.1-17.5,4.7-26.3c1.9-10.6,3.8-21.2,5.6-31.8v-0.2c0.2-1.2,0.4-2.5,0.9-3.7
			c1.9-5,2.7-10.6,2.6-17.5c0-0.2,0-0.3,0-0.5c0.1,0.4,0.2,0.7,0.3,1.1c0.2,0.7,0.4,1.4,0.6,2.1c0.7,2.5,1.3,5.1,1.8,7.5
			c0.8,3.2,1.5,6.5,2.5,9.8c1,3.4,2.2,6.7,3.4,10c0.5,1.2,0.9,2.4,1.3,3.7c0.9,2.7,1.8,5.6,2.1,8.5c0.2,1.5,0.5,3,0.8,4.4
			c0.4,1.7,0.7,3.4,0.9,5.1c0.4,3.5,0.5,7,0.7,10.4c0,1,0.1,1.9,0.1,2.8c-1.5,1.5-2.6,2.7-3.7,3.9c-3.3,3.7-6.1,6.7-10,8.9
			c-1.2,0.7-2.4,1.6-3.5,2.4c-1.1,0.8-2.3,1.6-3.5,2.3c-1.6,0.9-3.3,1.7-5,2.4c-0.5,0.2-1,0.4-1.5,0.7c-0.4,0.2-0.9,0.2-1.5,0.3
			C940.5,379.9,940.3,379.9,940.1,380L940.1,380z M617.5,393.2c-0.1,0-0.3,0-0.4,0c-1.1-0.1-2.2-1-3.2-2.7
			c-10.2-16.3-19.4-31-28-44.9c-0.3-0.5-0.5-1.1-0.8-1.7l-0.2-0.5c-0.1-0.1-0.1-0.3-0.2-0.4c-0.1-0.3-0.2-0.6-0.5-0.9
			c-4.9-6-8.7-12.7-12.2-19.1c-1.7-3.4-2.2-6.4-1.4-9.4c0.4-1.4,1-2,2.5-2.4c3.8-0.9,7.5-1.7,11.3-2.6c3.7-0.9,7.5-1.7,11.3-2.6
			c0.6-0.2,1.2-0.2,1.8-0.2c1.8,0,3.1,0.8,4.1,2.6c1.9,3.3,3.6,6.6,5,9.4c3.5,7.2,7,14.5,10.5,21.8s7,14.6,10.5,21.8l0.1,0.1
			c0.6,1.3,1.4,2.8,3.1,3.4l-1,4.4c-1.5,6.6-3,12.9-4.3,19.3l-0.4-0.2l-0.2,0.1c-0.4,0.3-0.9,0.7-1.4,1c-0.9,0.6-1.7,1.2-2.5,1.9
			C619.7,392.6,618.5,393.2,617.5,393.2L617.5,393.2z M585.5,409.5c-0.8-3.2-1.6-6.4-2.4-9.5c-1.2-4.7-2.4-9.6-3.5-14.4
			c-1.3-6.1-3.1-11-5.6-15.4c-3.1-5.4-2-10.8-0.8-15c0.8-2.8,3.4-5.5,6.9-7.1c0.1,0.1,0.2,0.3,0.3,0.4c0.2,0.4,0.5,0.8,0.8,1.2
			c9.4,14.9,18.7,29.9,27.7,44.4c1.5,2.5,3.7,4.1,6.9,4.9c0.7,0.2,1.3,0.2,2,0.2c1.7,0,3.4-0.6,4.9-1.7c-0.5,2-1.1,4-1.6,6.3
			c-0.7-0.3-1.4-0.5-2-0.5c-0.8,0-1.6,0.2-2.3,0.4l-0.2,0.1c-7.9,1.8-15.9,3.5-23.7,5.2c-0.6,0.1-1.1,0.1-1.7,0.1
			c-0.4,0-0.8,0-1.2,0.1C588.6,409.3,587.1,409.4,585.5,409.5L585.5,409.5z M928.5,444.3l2.7-15.1c2.5-14.1,5-28.7,7.6-43.1
			c6-0.1,10.6-2.9,15.3-6.1c0.8-0.5,1.6-1.1,2.4-1.7c1.2-0.9,2.5-1.7,3.8-2.5c2.2-1.4,4.6-3,6.5-5.5c0.4-0.6,0.9-1.1,1.6-1.7
			c0.2-0.2,0.4-0.4,0.6-0.6v10.6c0,1.1-0.1,2.2-0.2,3.4c-0.1,1.7-0.2,3.4-0.2,5.1c-0.1,12.7-0.1,26,0,39.1v11.4
			c-8.4,1.4-16.8,2.8-25.2,4.2C938.5,442.6,933.5,443.4,928.5,444.3L928.5,444.3z M928.1,564.1c-0.1,0-0.3,0-0.4,0
			c-0.2-1.6-0.4-3.2-0.7-4.7c-0.2-4.4-0.9-8.9-1.5-13.1c-0.2-1.7-0.5-3.4-0.7-5.1c-0.9-6.4-1.3-13-1.7-19.3l-0.2-3.2
			c-0.3-3.9-0.5-8-0.7-11.9c-0.1-2.6-0.3-5.3-0.4-7.9c-0.4-7.8-0.5-16.1,1.1-24.1c1.1-5.6,2.1-11.4,3-16.9c0.3-1.9,0.6-3.7,1-5.6
			c0.1-0.5,0.2-0.9,0.3-1.4c0-0.1,0.1-0.3,0.1-0.4l1.1-0.2c13.2-2.2,26.5-4.4,39.9-6.6v0.1c0.1,0.7,0.1,1.2,0.1,1.8v47.9
			c0,0.9-0.1,1.8-0.4,2.5l-19.5,53.4c-0.6,1.8-1.7,3.3-3.2,4.6c-3.9,3.4-8.3,6.9-13.4,9l-0.2,0.2
			C930.6,563.7,929.5,564.1,928.1,564.1L928.1,564.1z"/>
	</g>
	<g>
		<path d="M68.6,640.2l0.1-0.3c1.1-4.1,1.2-8.5,1.3-12.7c0.1-5.1-0.3-10.2-0.7-15.2l-0.1-1.9c-0.1-1.6-0.3-3.4-0.4-5.1l-0.2-2.7
			c-0.2-3.5-0.2-7.1-0.2-10.6v-2.6c0-1-0.1-2.2-1-3.2c-0.7-0.8-1.1-1.6-1.4-2.4l-0.4-1.2c-0.9-2.4-2-5.2-2.7-8
			c-0.5-1.9-0.7-4-0.7-6.7c0-8,0.1-16.1,0.1-24.1c0-8,0-16,0.1-24.1c0.1-22.2,0.2-47.3,0.2-72c0-6-0.5-11.9-1-18.5
			c-0.1-1-0.2-2.1-0.2-3.1c-0.1-1.1-0.2-2.1-0.3-3.2l-0.2-3c-0.5-7.3-1.1-14.8-1.7-22.2c-0.2-2-0.4-4-0.7-5.9
			c-0.3-2.3-0.6-4.2-0.8-6.2l0-0.4c-0.8-8-1.6-16.3-3.5-24.4c-0.3-1.5-0.7-3.1-1.1-4.6c-0.1-0.6-0.3-1.1-0.4-1.6
			c-0.6-2.1-1.1-4.2-1.6-6.3c-0.7-3.2-1-6.1-1-8.9c0-2.9,0.2-5.7,0.4-8.5c0.2-2,0.3-4.1,0.4-6.2l0-0.3c0.3-5.2,1.7-10,3.3-15.4
			l1.2-4.2c2.3-8.6,4.7-17.4,7.1-25.9c1.2-4.4,2.4-8.9,3.6-13.2l2.4-8.5l0.3-1.2c0-0.1,0.1-0.3,0.1-0.4c0-0.1,0-0.2,0.1-0.4l0-0.1
			l-0.1-0.1c-4.3-3.6-6.4-8.4-8.5-13.1l-1.5-3.3c-0.1-0.4-0.3-0.8-0.5-1.1c-0.2-0.4-0.3-0.7-0.5-1.1c-0.2-0.4-0.3-0.7-0.5-1.1
			c-0.2-0.4-0.3-0.7-0.5-1.1c-1.8-3.5-2.5-6.7-2.2-10.1c0.6-7.5,1.7-16.4,4.7-24.9c3.9-11.3,7.8-20.7,12.2-29.6
			c2.9-5.9,7.2-11.5,13.5-17.4c0.8-0.7,1.6-1.4,2.4-2.2c4-4.2,9.5-6.5,15.8-6.6h1.5c2.8-0.1,5.7-0.2,8.7-0.2c4.9,0,8.9,0.2,12.6,0.8
			c1.8,0.3,3.8,0.4,5.7,0.6l0.9,0.1c1.8,0.1,3.7,0.3,5.3,0.5c5.9,0.8,13.7,2,21.5,4.3c0.2,0.1,0.3,0.1,0.6,0.1h0.3l0-0.2
			c0.7-7.6,3-15,5.3-22.1l0.1-0.4c0.2-0.6,0.4-1.2,0.6-1.9c0.2-0.6,0.4-1.2,0.6-1.8l0.1-0.3h-0.3c0,0-0.1,0-0.1,0
			c-0.1,0-0.2-0.1-0.3-0.1c-0.1,0-0.3,0-0.4,0c-0.2,0-0.3-0.1-0.5-0.1c-2.9,0-5.4-1-7.4-2.9l-1.3-1.3c-1.6-1.6-3.4-3.3-4.7-5.3
			c-3.4-4.9-6.8-10-9.6-14.4l-2.2-3.4c-0.6-0.9-1-1.5-1.6-2.2c-4.7-5.1-7.4-11.8-8.2-20c-0.5-5.2-0.8-11.2,0.7-17
			c2-7.6,5.9-14.3,11.6-20c1-1,2.1-1.9,3.4-2.7c2.3-1.5,4.8-2.9,7.1-4.4c1.3-0.8,2.6-1.6,3.9-2.3c5.4-3.3,8.7-7.7,9.9-13.2l1.5-6.3
			c0.8-3,2.6-5,5.7-6c1.3-0.4,2.9-0.9,4.6-1c3.3-0.3,6.7-0.4,10-0.4c15.3,0,30.2,2.9,44.2,8.5c2.7,1,5.6,2.5,9.3,4.8
			c3.1,1.8,5.5,3.3,7.5,4.7c3.3,2.1,7.1,4.4,10.9,6.6c4.6,2.5,8.4,5,11.8,7.7c2.8,2.1,4.5,4.3,5.2,6.9c1.3,3.8,0.4,5.6-3.4,6.9
			c-0.5,0.2-1,0.4-1.7,0.6l-0.2,0l0.3,5.2l0.1,1c0.4,5.1,0.8,10.4,1.2,15.7c0.6,7.6,0.9,14,0.8,20.1c0,2.3-0.8,4.2-1.7,6.2l-0.1,0.2
			c-0.9,2.1-1.8,4.2-2.8,6.3c-0.8,1.6-1.5,3.2-2.3,4.9c-0.4,0.9-0.8,1.8-1.2,2.7l-0.1,0.1l0.1,0.1c0.8,0.7,1.5,1.3,2.2,1.8
			c4.6,3.9,6.4,9.2,5.4,15.8c-0.2,1-1,2.3-1.9,3.2c-2.3,2.3-5.2,4.2-9.4,6.2c-1.4,0.6-1.9,1.3-2,2.8c-0.6,8.4-3.3,16.4-5.6,23.4
			c-1.5,4.5-4.5,7.8-9.1,9.8l-0.6,0.2c-2,0.8-4,1.5-6.2,2.2c-3.2,1.1-6.5,2.2-9,5l-0.1,0.1l0.1,0.1c0.1,0.1,0.3,0.3,0.4,0.4
			c0.1,0.2,0.3,0.3,0.4,0.5l2.4,2.4c0.8,0.7,1.6,1.5,2.4,2.3c2.1,2.2,4.4,3.9,6.9,5.1c6,2.9,8.9,7.7,9,14.7v1.8
			c0.1,0.7,0.1,1.3,0.1,1.9c0,1.8,0.3,3,1,4.4c0.6,0.9,0.6,2.1,0.6,3.3c0,0.6,0,1.2,0.1,1.8l0,0.1l0.7,0.4c2.1,1.4,4.5,3,6.7,4.8
			c2,1.7,3.6,3.2,4.9,4.7c0.9,1.1,1.7,2.2,2.6,3.3c1.7,2.2,3.5,4.4,5.2,6.6c0.6,0.7,1.1,1.4,1.7,2.2c0.6,0.7,1.1,1.4,1.7,2.1
			c1.2,1.5,1.9,2.9,2.6,4.8l1.8,5.7c0.9,3,1.9,6.1,2.8,9.1c1.5,4.8,3.1,9.8,4.6,14.7c0.6,1.9,0.8,3.8,1,5.7c0.6,5.7,1.8,10,4,14
			c4.2,7.2,7.4,15.1,10.6,25.7c0.4,1.3,0.9,2.7,1.4,4.1c0.2,0.5,0.3,0.9,0.5,1.3c0.1,0.4,0.3,0.8,0.4,1.3l0.1,0.4l0.2-0.4
			c0.4-0.7,0.7-1.2,1-1.7l0.1-0.2c1.9-3.5,3.7-7,5.5-10.5c1.8-3.5,3.6-7,5.5-10.5l11.1-21c0.4-0.9,0.7-1.8,0.9-2.8
			c0.4-1.8,1.1-2.6,2.9-2.8l0.8,0l24.1,0.3c3.7,0.1,7.2,0.3,10.9,0.6c1.9,0.1,3.7,0.5,5.5,0.9c1.2,0.3,2.1,0.7,2.3,1.3
			c0.1,0.2,0.1,0.4,0,0.7l0,0.1l0,0.1c0.5,1.1,0.2,2.4-0.7,3.8c-1.3,2.1-2.6,4.2-3.9,6.4c-1.3,2.1-2.6,4.2-3.9,6.3
			c-1.3,2.1-2.6,4.2-3.9,6.4c-1.3,2.1-2.6,4.2-3.9,6.3c-0.2,0.4-0.4,0.7-0.6,1c-0.1,0.1-0.2,0.2-0.2,0.4c-0.1,0.2-0.3,0.5-0.5,0.7
			l-0.2,0.3l0.4,0c2.9,0.3,3.8,2.5,4.3,4.4l0.3,1.3c1.1,4.5,2.3,9.1,3.3,13.9c1.4,6.9,1.2,13.5,0.8,19.1c-0.2,3.4-0.9,7.2-2.2,11.8
			c-1.5,4.9-2.2,10.1-2.8,15l-0.1,0.5l-0.2,1.7c-0.1,1-0.2,2-0.3,3c-0.1,1-0.3,2-0.4,3c-0.6,5.5-1.3,11.3-2.7,16.8
			c-1.9,7.5-4.5,12.8-8.5,17c-1.2,1.3-2.5,2.9-3.9,4.9c-1.2,1.8-2.4,3.3-3.6,4.7c-2.4,2.7-5.1,5.7-7.8,8.7l-2,2.2
			c-0.1,0.1-0.3,0.3-0.4,0.5c-0.1,0.1-0.2,0.3-0.4,0.4c-0.3,0.3-0.5,0.6-0.8,0.9c-0.5,0.6-1.1,1.1-1.5,1.8c-2,2.7-4.8,4.9-7.9,6.3
			c-1.6,0.7-3.5,1.2-5.7,1.4c-2.1,0.2-4.2,0.3-6.2,0.4l-0.3,0c-0.6,0.1-1.1,0.1-1.6,0.1c-0.5,0-1.1,0-1.6,0.1
			c-0.8,0.1-1.7,0.1-2.5,0.2c-0.7,0.1-1.5,0.1-2.2,0.2c-0.7,0-1.5,0.1-2.2,0.2c-0.8,0.1-1.7,0.2-2.5,0.2l-0.5,0
			c-2.1,0.1-4,0.2-5.9,0.2h-2.8l0,0.2c-0.9,4.1-1.8,8.3-2.8,12.7c-0.6,2.5-1.1,5.1-1.7,7.8c-0.6,2.8-0.1,5.7,0.4,8.3l0.1,0.6
			c1.2,6.5,1.8,13.1,1.8,19.8v9.9c0,2.1,0,4.3,0,6.4c0,4.4,0,8.8,0,13.3c-0.1,4-0.2,8.2-0.4,12.3c-0.1,2-0.2,3.9-0.2,5.9
			c0,2.1-0.1,4.1-0.2,6.1l0,0.2c-0.3,11.8-0.6,25.4-0.8,38.5c0,0.7,0,1.4,0.1,2.1c0.2,1.6,0.3,3.3-0.4,5.1l-0.1,6.4
			c-0.2,9.3-0.3,18.9-0.6,28.6l0,0.2h-5.9l0.9-34.8h-0.2c-0.4,0-0.7,0-1.1,0.1l-2.9,1c-4.4,1.3-8.2,2.6-11.8,3.9
			c-1.2,0.4-2.5,0.9-3.7,1.4c-1.3,0.5-2.5,1-3.8,1.4l-0.9,0.3c-4.9,1.8-10,3.7-15.2,5.2c-9.6,2.7-20.1,3.1-28.5,3.4l-0.8,0
			c-3.1,0.1-6.3,0.1-10,0.1c-4.4,0-8.8-0.1-13.4-0.1l-0.7,0c-1,0-2-0.1-3.3-0.3c-4.2-0.5-8.4-1.1-12.5-1.7l-0.1,0
			c-11.8-1.7-24.8-3.5-39.9-5.4c-6.6-0.8-12.5-2.2-18.1-4.5c-0.9-0.4-1.8-0.7-2.7-1l-0.7-0.3c-2.2-0.8-4.5-1.7-6.7-2.6l-0.1,0
			c-0.6-0.2-1.2-0.5-1.8-0.7c-0.6-0.2-1.2-0.4-1.8-0.7c-7.1-2.8-14.5-5.6-20.6-10.9c-1.5-1.3-2.9-2-4.6-2.3l-0.2,0l0,0.2
			c-0.2,5.6,0,11.1,0.6,16.7c1,10,1.8,20.6-0.1,31.4l0,0.1h-0.1c-1.9,0.3-3.7,0.3-5.5,0.3H68.6z M75.3,256.8c0,0.2-0.1,0.5-0.2,0.7
			c-0.1,0.3-0.1,0.5-0.2,0.8c-0.1,0.3-0.2,0.5-0.2,0.8l-16.5,60c-0.3,1.1-0.5,2-0.6,2.8c-0.4,4-0.8,8.2-1,12.4
			c-0.2,4.2-0.3,8.4,0.8,12.3c1.3,4.8,2.3,8.6,3.1,12c1.4,6.5,2.5,13.4,3.3,21.3c0.2,2.5,0.5,5,0.8,7.5c1,8.4,2,17.3,2.5,26.1
			c0.1,1.9,0.2,3.8,0.4,5.7c0.1,0.8,0.1,1.6,0.2,2.4c0.3,3.4,0.6,7.1,0.8,10.7c0.4,5.5,0.8,11.6,0.7,17.8l0,1.5
			c-0.1,37-0.2,75.2-0.5,112.7c0,5,0.7,9.6,2.2,14.1c1.3,3.8,3.4,6.2,6.8,7.9c2.3,1.2,4.8,2.7,7,4.3c3.2,2.5,6.5,4.4,10.2,5.9l4,1.6
			c4.8,1.8,9.6,3.7,14.4,5.7c6.6,2.8,13.9,4.6,22.3,5.6c8.5,1,17.1,2.2,25.5,3.4l5,0.7c1.2,0.2,2.5,0.4,3.8,0.5
			c1.3,0.2,2.5,0.3,3.8,0.5c7,1,13.3,1.9,19.8,1.9c0.9,0,1.9,0,2.8-0.1c1.6-0.1,3.2-0.1,5-0.1c2.2,0,4.3,0.1,6.6,0.1
			c0,0,1.2,0,1.6,0c8,0,15.8-0.9,22.3-1.7c0,0,0,0,0,0c1.5,0,3-0.3,4.4-0.5c0.3-0.1,1.1-0.2,1.1-0.2c0.3,0,0.8-0.1,1.3-0.2l0.2,0
			v-0.2c0-0.3,0-0.6-0.1-0.9c0-0.3,0-0.5,0-0.8l0-0.3c-0.1-0.8-0.2-1.5-0.2-2.3c0.1-7.9,0.2-15.8,0.2-23.6
			c0.1-7.9,0.2-15.8,0.3-23.7c0.1-7.9,0.2-15.9,0.2-23.8c0.1-8,0.2-15.9,0.3-23.9c0-0.7,0-1.3,0.2-2.1c0.4-1.2,1.4-2.1,2.6-2.1
			c0.1,0,0.1,0,0.2,0c1.3,0.1,2.1,0.8,2.4,2c0.2,0.9,0.2,1.7,0.2,2.6l-0.6,47.9c-0.1,15.7-0.3,31.7-0.5,47.1l0,0.8v1.5h0.4
			c0.5-0.1,0.9-0.2,1.3-0.3c2.6-1,5.3-2,8-3c2.7-1,5.4-2,8-3c2.5-1,5.5-2,8.9-3.2l2.3-0.8c1.2-0.4,2.3-0.7,3.5-1.1
			c0.5-0.1,1-0.3,1.5-0.4c0.9-0.2,1.8-0.4,2.7-0.7l0.1,0l0-0.1c0.1-0.9,0.1-1.7,0.1-2.5c0-1.8,0.1-3.6,0.1-5.4c0-1.8,0-3.6,0.1-5.4
			l0.3-11c0.1-4.4,0.2-8.8,0.4-13.2c0.4-9.5,0.7-18,0.8-26c0.2-12.7,0.2-23.2-0.1-33c-0.1-3.7-0.6-7.5-1.1-11.4
			c-0.1-0.7-0.2-1.3-0.2-2c-0.1-0.7-0.2-1.4-0.3-2.1l-0.3-2.1c-0.5-3-1-6.4-0.2-9.7c0.2-0.6,0.3-1.2,0.4-1.9
			c0.1-0.6,0.2-1.2,0.4-1.8c0.2-0.7,0.3-1.3,0.5-1.9c0.1-0.6,0.3-1.2,0.4-1.9c0.3-1.5,0.6-3,0.9-4.5l0.2-0.8c0.5-2,0.9-4,1.3-6
			l0-0.2l-0.2,0c-0.2-0.1-0.4-0.1-0.6-0.1c-0.2,0-0.3,0-0.5-0.1c-0.4-0.1-0.8-0.2-1.2-0.3c-0.4-0.1-0.7-0.1-1.1-0.2
			c-6.3-1.2-10.9-3.3-14.7-6.6c-1.5-1.4-2.9-2.8-4.3-4.2l-1.4-1.4c-1-1-2-2-3.1-2.8c-1.9-1.4-3.3-2.9-4.3-4.7
			c-15.7-26.5-31.7-53.4-47.4-79.8l-15.8-26.7c-2.3-4-3.7-8.4-4.9-12.5c-0.4-1.2-0.6-2.5-0.6-3.7c-0.4-6.6-0.4-13.6,2.4-20.1
			c0.3-0.7,0.5-1.5,0.7-2.3c2.1-6.6,4.6-11.5,8-15.9c0.2-0.2,0.3-0.3,0.4-0.5l0.1-0.1c0.3-0.4,0.6-0.8,1.1-1.1
			c0.6-0.5,1.2-0.7,1.9-0.7c0.6,0,1.2,0.2,1.7,0.6c1,0.9,1.2,2.2,0.6,3.4c-0.2,0.2-0.3,0.4-0.5,0.6c-0.2,0.3-0.4,0.6-0.6,0.8
			c-7.1,10.4-10.5,20.8-10.4,31.8c0.1,5.2,1.6,10.3,4.3,15.2c3.7,6.6,7.7,13.1,11.4,19.3c1.1,1.7,2.1,3.4,3.1,5.2l1.3,2.1l48,81
			l0.2,0.3c0.6,1.2,1.2,1.9,1.9,2.4c2.6,1.8,4.7,4.1,6,5.8c5.2,5.9,12,8.9,20.9,9.2c1.1,0.1,2.2,0.1,3.3,0.1c3.6,0,7.1-0.3,10.6-0.6
			l1.6-0.1l4.2-0.3c2-0.2,4-0.3,5.9-0.4c1-0.1,1.9-0.1,2.9-0.2c1-0.1,2.1-0.2,3.1-0.2h0.2c1.1-0.1,2.2-0.2,2.9-0.7
			c1.9-1.4,3.9-2.9,5.8-4.6c1.1-0.9,2-2,3-3.2c0.4-0.3,0.7-0.7,1-1.1c0.3-0.4,0.7-0.8,1.1-1.2c0.4-0.4,0.8-0.8,1.1-1.2
			c0.9-1,1.8-2,2.7-3c1.5-1.6,2.8-3.1,4.2-4.7c1-1.3,2.2-2.8,3.5-4.6c0.5-0.6,0.9-1.2,1.4-1.8c1-1.3,2.1-2.7,3.2-4
			c2.6-3,4.5-6.7,6-11.5c1.5-4.8,2.2-10,2.8-15l0.2-1.8c0.2-1.1,0.3-2.1,0.4-3.2c0.1-1,0.2-2,0.4-3c0.1-0.7,0.2-1.4,0.3-2.1
			c0.1-0.7,0.1-1.4,0.2-2.1l0.2-1.8c0.6-4.6,1.2-9.3,2.6-13.7c1.1-3.4,1.8-7.3,2.1-11.1c0.6-9.1-0.4-18.8-3-28.7
			c-0.4-1.2-0.8-2.4-1.3-3.6l-0.1-0.1l-0.2,0c-0.7,0.1-1.2,0.1-1.6,0.1c-5,0.6-9.2,3.1-11.9,4.9c-3,1.9-5.2,4.6-6.5,8.1
			c-1.6,4.1-1.6,8.4-1.5,13.1c0,0.5,0,1.1,0,1.6c0,1.1,0,2.3,0,3.5l0,0.2l1.2,0.2c1,0.1,1.9,0.3,2.9,0.4l1.4,0.2
			c0.5,0.1,1.1,0.1,1.7,0.1c0.3,0,0.6,0,0.9,0c0.3,0,0.6,0.1,0.9,0.1c1.6,0.2,2.8,1.4,2.8,2.9c-0.1,1.6-1.2,2.6-2.9,2.6
			c-0.1,0-0.1,0-0.2,0l-1.4-0.1c-2.9-0.1-5.1-0.4-7.2-0.8c-3-0.5-6-1.2-8.6-1.9c-0.5-0.1-0.9-0.2-1.4-0.3c-0.5-0.1-1-0.3-1.4-0.4
			c-2.2-0.6-4.4-0.6-6.4-0.6l-3.9,0v0.7l0.3,1.1c1.2,4.8,2.4,9.1,4.3,13.3c1.2,2.7,2.4,5.6,3.6,8.4c0.5,1.3,1.1,2.6,1.6,3.8l1.5,3.6
			l0.2,0.4c0.3,0.6,0.6,1.4,0.7,2.2c0.2,1.9,0.4,3.6,0.3,5.3c-0.1,1.3-0.9,2.1-2.3,2.2c-0.1,0-0.1,0-0.2,0c-1.2,0-2.1-0.7-2.6-2
			c-0.2-0.3-0.2-0.6-0.2-0.9v-0.5c-0.1-0.3-0.1-0.5-0.1-0.7c0-0.2-0.1-0.5-0.1-0.7c-0.1-1.3-0.3-2.3-0.7-3.2c-0.6-1.6-1.3-3.2-2-4.7
			c-0.4-0.9-0.8-1.8-1.1-2.7c-0.5-1.2-1-2.5-1.6-3.8c-0.5-1.2-1-2.5-1.5-3.7c-1.6-3.9-2.7-7-3.7-10.2L312,360l-0.3-0.9
			c-1.3-4.3-2.7-8.7-4.3-13c-3.3-8.3-6.1-16.1-8.6-23.8c-2.2-6.7-5.3-15.5-9.9-23.4c-2.1-3.8-3.4-7.9-4.2-12.9l-0.3-2.7l0-0.3
			c-0.2-1.4-0.4-2.9-0.8-4.3c-3.2-10.6-6.5-20.8-9.3-29.6c-0.3-1.1-0.9-2.4-1.8-3.7c-3.1-4-6.6-8.5-10.7-13.7
			c-1.1-1.4-2.5-2.7-4-3.8c-0.8-0.6-1.7-1.1-2.5-1.7c-0.8-0.5-1.7-1.1-2.5-1.6l-0.8-0.5c-1.9-1.3-3.9-2.6-5.7-4
			c-3.2-2.5-6.7-4.6-10.8-6.3c-1.8-0.7-3.6-1.4-5.2-2.2c-3.7-1.9-7.8-2.8-12.5-2.8c-0.2,0-0.5,0-0.7,0c-9,0.2-17.3,2.7-24.7,7.5
			c-10.4,6.7-20.5,13.3-31,19.2c-0.3,0.2-0.7,0.4-1.1,0.6c-1.3,0.6-2.3,1.2-3.1,1.8c-4.4,2.8-9,5.2-13.7,7.1l-1.6,0.7
			c-5.5,2.3-11.3,4.7-17.1,7.3c-8.1,3.6-17.8,7.4-28.7,7.4c-0.9,0-1.8,0-2.7-0.1c-3.6-0.2-6.3-0.7-9-1.6c-1.4-0.5-2.7-0.8-4.2-1.1
			c-0.5-0.1-1-0.2-1.5-0.4c-0.5-0.1-1-0.2-1.4-0.3c-0.5-0.1-1-0.3-1.5-0.4l-0.2,0V256.8z M338.6,284.8c-1.4,0-2.3,0.6-3.1,2.1
			l-2.3,4.5c-1.8,3.4-3.6,6.8-5.4,10.3c-5.1,9.7-10.4,19.8-15.7,29.5c-2.1,3.8-2.3,6.8-0.7,10c0.7,1.4,1.3,2.8,1.8,4.3l0.4,0.9
			c0.2,0.4,0.3,0.8,0.5,1.3c0.2,0.4,0.3,0.8,0.5,1.2l0,0.1h5.3c1.3,0,2.7,0.1,4,0.2c1.9,0.2,4,0.5,6.7,1.1c0.3,0.1,0.6,0.1,0.9,0.2
			c0.3,0.1,0.7,0.2,1,0.2l0.2,0l0-0.2c0.1-0.6,0.1-1.1,0.1-1.6v-3.5c0-0.4,0-0.8,0-1.2c0-1.6,0-3.3,0.2-5c1-8.8,4.7-14.9,11.2-18.8
			c2.8-1.6,6.4-3.6,9.9-4.6l0.1,0l0-0.1c0.3-0.6,0.6-1.2,0.8-1.8c0.2-0.4,0.4-0.9,0.6-1.3c0.2-0.4,0.4-0.9,0.6-1.3
			c2.9-4.7,5.8-9.4,8.6-14c0.9-1.4,1.8-2.9,2.6-4.3c0.9-1.4,1.8-2.9,2.7-4.3c0.3-0.4,0.6-0.9,0.9-1.5c0.2-0.3,0.4-0.6,0.6-1l0.2-0.3
			l-1.3-0.1l-1.3-0.2c-1.3-0.1-2.4-0.3-3.5-0.3c-1.5-0.1-3-0.1-4.5-0.1c-1.5,0-3,0-4.5-0.1l-0.9,0c-5.6-0.1-11.3-0.2-16.9-0.4
			C338.8,284.8,338.7,284.8,338.6,284.8z M114,149c-3.8,0-7.5,0.2-11.4,0.4l-0.3,0c-3.5,0.2-6.6,1.6-9.5,4.2
			c-8.7,7.6-14.6,15.6-18.1,24.5c-0.7,1.8-1.5,3.7-2.2,5.5c-1.6,4.1-3.3,8.3-5.1,12.4c-2.3,5.4-3.7,10.2-4.4,14.6
			c-0.2,1.5-0.5,3-0.8,4.5l-0.1,0.8c-0.7,3.5-1.3,7-1.1,10.7c0.1,1.5,0.3,2.8,0.8,4.1c1.2,2.8,2.5,5.5,3.8,8.2
			c1.3,2.7,2.6,5.4,3.9,8.2c1.1,2.5,2.9,4,5.7,4.6c0.4,0.1,0.8,0.2,1.3,0.3c0.4,0.1,0.8,0.1,1.2,0.2l0.4,0.1c2.2,0.5,4.4,1,6.5,1.7
			c3.1,1.2,6.5,1.7,10.4,1.7c2.2,0,4.5-0.2,7.4-0.5c5.5-0.8,11.4-2.6,17.5-5.4c3.3-1.6,6.8-3.1,10.1-4.5l4.2-1.8
			c0.8-0.4,1.5-0.7,2.3-1.1c0.8-0.3,1.5-0.7,2.3-1c4.4-1.9,8-3.5,11.2-5.1c1.8-0.8,3.4-1.9,5.1-2.9l0.4-0.3c0.7-0.5,1.4-1,2.1-1.4
			c1.8-1.2,3.7-2.3,5.5-3.4c0.7-0.4,1.4-0.8,2.1-1.2c6.9-4.1,14.3-8.5,21.3-13.2c7.1-4.6,13.5-7.5,20.1-8.9
			c2.6-0.5,6.5-1.3,10.9-1.3c5.5,0,10.4,1.1,14.9,3.5c2.3,1,4.7,2,7.1,3c2.2,0.9,4.4,1.8,6.6,2.8l0.3,0.1v-2.7c0.1-1.9,0.1-4,0-6
			c-0.4-4.3-2.2-7.1-5.3-8.5c-3.4-1.6-6.6-4.2-9.8-7.9c-2.2-2.4-4.1-4-6.3-5.1c-2.9-1.6-5.8-3.2-8.6-4.8c-1.4-0.8-2.8-1.5-4.2-2.3
			c-1.4-0.8-2.9-1.6-4.3-2.4c-6.1-3.4-12.9-6.7-20.6-8.4c-3.4-0.7-7-1.7-11.5-3.2c-1.2-0.4-2.4-0.8-3.5-1.3c-1.4-0.5-2.6-1-3.8-1.3
			c-0.7-0.3-1.5-0.6-2.2-0.8c-0.7-0.3-1.5-0.5-2.2-0.8c-0.5-0.2-0.9-0.3-1.3-0.5c-0.4-0.2-0.9-0.4-1.3-0.5l-1.2-0.5
			c-1.7-0.7-3.4-1.3-5.3-1.8c-5.8-1.4-10.7-2.3-15.1-2.9c-1.9-0.3-3.9-0.4-5.8-0.6c-1-0.1-1.9-0.2-2.9-0.3c-2.2-0.2-4.4-0.4-6.6-0.7
			C121.1,149.2,117.6,149,114,149z M229,81.4c-5,0-9.8,1.1-14.1,3.3c-3.9,2.1-6.1,4.9-6.7,8.7c-0.2,0.8-0.3,1.6-0.4,2.4
			c-0.1,0.9-0.2,1.7-0.4,2.5c-0.2,0.9-0.3,1.8-0.4,2.7c-0.3,2.3-0.6,4.6-1.2,6.9c-0.7,3.1-2.8,4.9-6.2,5.1c-2.1,0.1-4.1,0.4-6.1,0.7
			c-1.9,0.4-3.8,0.8-5.6,1.2c-2.3,0.6-4.9,1.1-7.8,1.5c-3.5,0.4-5.5,2.2-6.8,5.9c-0.1,0.4-0.2,0.7-0.3,1.1c-0.1,0.4-0.2,0.7-0.3,1.1
			c-0.2,0.9-0.4,1.6-0.7,2.3l-0.9,3l-0.2,0.6c-1.5,4.8-3.1,9.8-3.9,14.8c-0.4,2.6-0.5,4.7-0.3,6.7l0,0.1l0.1,0
			c0.2,0,0.4,0.1,0.6,0.2c0.2,0.1,0.4,0.2,0.6,0.2l3,1c0.7,0.2,1.5,0.5,2.2,0.7c0.7,0.3,1.5,0.5,2.2,0.8c0.7,0.2,1.5,0.5,2.2,0.8
			c0.4,0.1,0.7,0.3,1.1,0.4l0.7,0.3c1.6,0.6,3.3,1.3,4.9,1.6c10.3,2.1,20.4,6.1,30,12c2.4,1.8,5.1,3.1,7.9,4.5l0.6,0.3
			c0.5,0.2,0.9,0.4,1.4,0.7c0.3,0.1,0.5,0.3,0.8,0.4l0.2,0.1l0.1-0.1c2.6-3.7,5.9-5.8,10.1-6.6c2.5-0.4,5.1-1.2,7.1-1.8
			c3.2-0.9,5.4-3.1,6.4-6.2c0.6-1.7,1.2-3.4,1.8-5.2c2-5.9,4.6-13.2,5-20.7c0.1-2.2,1.5-3.2,3-4c2.3-1.1,4.4-2.4,6.5-3.7l0.7-0.4
			l1.4-0.8c0.7-0.5,1.2-1,1.4-1.4l0.1-0.7c0.2-2.1,0.4-4-0.6-5.9c-1.1-2.1-2.8-3.8-5.1-5.3c-2.2-1.3-2.7-2.6-2.1-5.2
			c0-0.4,0.2-0.8,0.4-1.2c0,0,0.1-0.1,0.1-0.2c0,0,0-0.1,0.1-0.1c0.4-0.9,0.8-1.7,1.1-2.5c0.4-0.8,0.8-1.7,1.1-2.5
			c1.7-3.7,3.2-6.9,4.4-9.8c0.8-1.9,1.1-3.4,1.1-5c0-4.9-0.1-8.6-0.4-11.9c-0.1-2.3-0.3-4.6-0.5-6.8c-0.2-2.2-0.4-4.5-0.6-6.8
			c-0.3-3.7-0.5-7.5-0.7-11.2l0-0.6l0-0.6c-0.2-2.4-0.4-2.6-2.8-2.6c-0.7,0-1.4,0-2.1,0.1c-0.7,0-1.4,0-2.1,0c-0.7,0-1.3,0-2,0
			c-0.7,0-1.4,0-2.1,0c-0.7,0-1.4,0-2,0c-0.1,0-0.2,0-0.3,0c-2.8,0-4.4,1.3-5.2,4.3c-0.3,1.2-0.6,2.4-0.8,3.6
			c-0.1,0.6-0.1,1.1-0.2,1.6c-0.1,0.5-0.2,1.1-0.2,1.6l-0.1,0.4c-0.2,0.9-0.3,1.8-0.4,2.8c-0.7,4.1-1.4,8.8-1.3,13.5
			c0,3.1-0.5,6.3-1.7,10c-1.4,4.4-3,5.3-5.2,5.3c-1,0-2.1-0.2-3.2-0.4l-0.3,0c-2.3-0.5-3.8-1.9-4.5-4.1l-0.3-0.9
			c-0.3-0.9-0.6-1.7-1-2.6l-0.1-0.1H229z M181.1,5.7c-1,0-2.2,0.2-3.5,0.5l-0.6,0.1c-1.7,0.3-2.6,1.3-3,3c-0.3,1.6-0.7,3.2-1.1,4.8
			c-1.6,7.3-5.7,13-12.6,17.2l-10.8,6.6l-0.2,0.2c-0.8,0.5-1.6,1-2.2,1.8c-5.5,5.6-8.9,11.5-10.3,18.2c-1.3,5.9-0.8,11.8-0.2,16.3
			c0.7,6,3,11.1,6.7,15.1c0.7,0.7,1.2,1.6,1.8,2.4l0.4,0.6c0.2,0.3,0.3,0.5,0.5,0.7c0.1,0.1,0.2,0.3,0.2,0.4
			c0.4,0.6,0.9,1.3,1.3,1.9c1.1,1.6,2.1,3,3.1,4.6c1.5,2.4,3.2,4.8,4.8,7.2c0.8,1.2,1.6,2.4,2.4,3.6c0.5,0.9,1.2,1.6,1.9,2.3
			c0.2,0.3,0.5,0.6,0.8,0.9c1.8,2,3.9,3,6.4,3c0.2,0,0.5,0,0.7,0c1.4-0.1,2.2-0.3,2.9-1.4c2-2.8,4.8-4.3,8.6-4.6
			c1.8-0.1,3.6-0.5,5.5-0.9c0.9-0.2,1.6-0.4,2.2-0.5c0.8-0.1,1.5-0.2,2.2-0.4l0.4-0.1c2.4-0.6,5-1.1,7.7-1.5l0.3,0
			c3-0.4,3.1-0.5,3.6-3.6c0.1-0.2,0.1-0.4,0.1-0.6c0-0.2,0-0.4,0.1-0.5l0.2-1.5c0.5-3.5,1.1-7,1.8-10.5c0.6-3.2,2.3-6,5.2-8.3
			c5.4-4.3,11.9-6.5,20.7-6.7c2.6,0,4.3,1.2,5.1,3.6c0.1,0.2,0.2,0.4,0.3,0.6c0.1,0.2,0.2,0.4,0.3,0.6c0.2,0.5,0.4,1,0.6,1.6
			c0.4,1.2,1,1.8,1.9,1.8c0.2,0,0.3,0,0.5,0l0.1,0l0-0.1c1.2-3,1.8-6,1.9-9.2c0.1-3.2,0.3-6.4,0.6-9.6c0.3-2.7,0.6-5.4,1.2-9
			l0.2-1.2c0.5-3,1-6.2,2.6-9c1.8-3,4-4.6,6.7-4.7c3.5-0.1,7.3-0.2,10.7-0.2c2.1,0,3.9,0,5.7,0.1c0,0,0,0,0,0c1.8,0,3.1-0.1,4.5-0.4
			l0.2,0l-0.1-0.2c-0.6-1.7-1.6-2.6-3.1-3.7c-3.8-2.9-7.8-5.3-11.2-7.3c-3-1.7-5.9-3.6-8.8-5.4l-2.1-1.3c-2.5-1.6-5.1-3.2-7.6-4.7
			l-0.1-0.1c-3.1-1.9-5.8-3.3-8.5-4.4c-9-3.9-19-6.3-30.7-7.4c-3.3-0.3-7.1-0.4-11.4-0.4H181.1z"/>
		<path class="st0" d="M188.8-0.5v0.4c15.3,0,30.1,2.8,44.1,8.5c2.7,1,5.6,2.5,9.2,4.8c3.1,1.8,5.4,3.3,7.5,4.7
			c3.3,2.1,7.1,4.4,10.9,6.6c4.6,2.5,8.4,5,11.8,7.7c2.8,2.1,4.4,4.2,5.2,6.8c1.2,3.6,0.4,5.4-3.3,6.6c-0.5,0.2-1,0.4-1.7,0.6
			l-0.3,0.1l0,0.3l0.2,2.5l0.2,2.5l0.1,1.1c0.4,5.1,0.8,10.4,1.2,15.6c0.6,7.6,0.9,13.9,0.8,20.1c0,2.3-0.8,4.1-1.7,6.1l-0.1,0.2
			c-0.9,2.1-1.8,4.2-2.8,6.3c-0.8,1.6-1.5,3.2-2.3,4.9c-0.4,0.9-0.8,1.8-1.2,2.7l-0.1,0.3l0.2,0.2c0.8,0.7,1.5,1.3,2.2,1.8
			c4.5,3.8,6.3,9.1,5.4,15.6c-0.2,1-0.9,2.2-1.9,3.1c-2.3,2.3-5.1,4.1-9.3,6.1c-1.5,0.7-2,1.4-2.1,2.9c-0.6,8.4-3.3,16.3-5.6,23.3
			c-1.5,4.4-4.5,7.7-9,9.7l-0.6,0.2c-2,0.8-4,1.5-6.2,2.2c-3.2,1.1-6.6,2.2-9.1,5l-0.3,0.3l0.3,0.3c0.1,0.1,0.3,0.3,0.4,0.4
			c0.1,0.2,0.3,0.3,0.4,0.5l2.4,2.4c0.8,0.7,1.6,1.5,2.4,2.3c2.1,2.2,4.4,3.9,6.9,5.2c5.9,2.8,8.8,7.6,8.9,14.5v1.8v0l0,0
			c0.1,0.7,0.1,1.2,0.1,1.8c0,1.8,0.3,3.1,1.1,4.5c0.5,0.8,0.5,1.9,0.5,3.2c0,0.6,0,1.2,0.1,1.9l0,0.2l0.1,0.1l0.6,0.4
			c2.1,1.4,4.5,3,6.7,4.8c2,1.6,3.6,3.2,4.8,4.6c0.9,1.1,1.7,2.2,2.6,3.3c1.7,2.2,3.5,4.4,5.2,6.6c0.5,0.7,1.1,1.4,1.7,2.1
			c0.6,0.7,1.2,1.5,1.7,2.2c1.2,1.5,1.9,2.9,2.5,4.8l1.8,5.7c0.9,3,1.9,6.1,2.8,9.1c1.5,4.8,3.1,9.8,4.6,14.8c0.6,1.9,0.8,3.8,1,5.6
			c0.6,5.7,1.8,10,4.1,14.1c4.2,7.2,7.4,15.1,10.6,25.6c0.4,1.3,0.9,2.7,1.4,4.1c0.2,0.5,0.3,0.9,0.5,1.3c0.1,0.4,0.3,0.8,0.4,1.3
			l0.3,0.8l0.4-0.8c0.4-0.7,0.7-1.2,1-1.7l0.1-0.2c1.9-3.5,3.7-7,5.5-10.5c1.8-3.5,3.6-7,5.5-10.5l11.1-21c0.4-0.9,0.7-1.9,0.9-2.8
			c0.4-1.8,1-2.4,2.7-2.7h0.8l24.1,0.3c3.7,0.1,7.2,0.3,10.9,0.6c1.9,0.1,3.7,0.5,5.4,0.9c1.1,0.3,2,0.7,2.2,1.2
			c0.1,0.2,0.1,0.3,0,0.5l-0.1,0.2l0.1,0.2c0.5,1,0.2,2.3-0.7,3.6c-1.3,2.1-2.6,4.2-3.9,6.4c-1.3,2.1-2.6,4.2-3.9,6.3
			c-1.3,2.1-2.6,4.2-3.9,6.3c-1.3,2.1-2.6,4.3-3.9,6.4c-0.2,0.4-0.4,0.7-0.6,1c-0.1,0.1-0.2,0.2-0.2,0.4c-0.1,0.2-0.3,0.5-0.4,0.7
			l-0.4,0.6l0.7,0.1c2.8,0.3,3.7,2.4,4.2,4.3l0.3,1.3c1.1,4.5,2.3,9.1,3.3,13.9c1.4,6.9,1.2,13.5,0.8,19.1
			c-0.2,3.4-0.9,7.2-2.2,11.7c-1.5,5-2.2,10.1-2.8,15.1l-0.1,0.5l-0.2,1.7c-0.1,1-0.2,2-0.3,3c-0.1,1-0.3,2-0.4,3
			c-0.6,5.5-1.3,11.3-2.7,16.7c-1.9,7.5-4.5,12.7-8.4,16.9c-1.2,1.3-2.5,2.9-3.9,4.9c-1.2,1.8-2.4,3.3-3.6,4.7
			c-2.4,2.7-5.1,5.7-7.8,8.7l-2,2.2c-0.2,0.2-0.3,0.3-0.4,0.5c-0.1,0.1-0.2,0.3-0.4,0.4c-0.3,0.3-0.5,0.6-0.8,0.8
			c-0.5,0.6-1.1,1.2-1.6,1.8c-2,2.7-4.7,4.9-7.8,6.3c-1.5,0.7-3.4,1.2-5.7,1.4c-2.1,0.2-4.2,0.3-6.2,0.4l-0.3,0
			c-0.5,0-1.1,0.1-1.6,0.1c-0.5,0-1.1,0.1-1.6,0.1c-0.8,0.1-1.7,0.1-2.5,0.2c-0.7,0.1-1.5,0.1-2.2,0.2c-0.7,0-1.5,0.1-2.2,0.2
			c-0.8,0.1-1.7,0.2-2.5,0.2l-0.6,0c-2,0.1-4,0.2-5.8,0.2H290h-0.3l-0.1,0.3c-0.9,4.1-1.8,8.3-2.8,12.7c-0.6,2.5-1.1,5.1-1.7,7.8
			c-0.6,2.8-0.1,5.8,0.4,8.4l0.1,0.6c1.2,6.4,1.8,13.1,1.8,19.7v9.9c0,2.1,0,4.3,0,6.4c0,4.3,0,8.8,0,13.3c-0.1,4-0.2,8.2-0.4,12.3
			c-0.1,2-0.2,3.9-0.2,5.9c0,2.1-0.1,4.1-0.2,6.1l0,0.2c-0.3,11.7-0.6,25.4-0.8,38.5c0,0.7,0,1.4,0.1,2.1c0.2,1.6,0.3,3.3-0.4,5
			l0,0.1l0,0.1l-0.1,6.4c-0.2,9.3-0.3,18.9-0.6,28.5h-5.5l0.9-34.4l0-0.4h-0.4c-0.4,0-0.8,0-1.1,0.1l-2.9,1
			c-4.4,1.4-8.3,2.6-11.8,3.9c-1.3,0.5-2.5,0.9-3.8,1.4c-1.2,0.5-2.5,0.9-3.7,1.4l-0.9,0.3c-4.9,1.8-10,3.7-15.2,5.2
			c-9.6,2.7-20,3.1-28.4,3.4l-0.8,0c-3.1,0.1-6.3,0.1-10,0.1c-4.4,0-8.8-0.1-13.5-0.1l-0.4,0h-0.2c-1,0-2-0.1-3.3-0.3
			c-4.2-0.5-8.4-1.1-12.6-1.7c-11.8-1.7-24.8-3.5-39.9-5.4c-6.5-0.8-12.4-2.2-18-4.5c-0.9-0.4-1.8-0.7-2.7-1.1l-0.7-0.3
			c-2.2-0.8-4.5-1.7-6.8-2.6c-0.6-0.3-1.2-0.5-1.8-0.7c-0.6-0.2-1.2-0.4-1.8-0.7c-7.1-2.8-14.5-5.6-20.6-10.8
			c-1.5-1.3-3-2.1-4.7-2.4l-0.5-0.1l0,0.5c-0.2,5.6,0,11.1,0.6,16.8c1,9.9,1.8,20.6-0.1,31.4c-1.9,0.3-3.7,0.3-5.4,0.3h0
			c1.1-4.1,1.2-8.5,1.3-12.7l0-0.1c0.1-5.1-0.3-10.2-0.7-15.1l-0.1-1.9c-0.1-1.7-0.3-3.4-0.4-5.2l-0.2-2.6
			c-0.2-3.5-0.2-7.1-0.2-10.6v-2.6c0-1.2-0.1-2.4-1-3.4c-0.6-0.8-1.1-1.5-1.3-2.4l-0.4-1.2c-0.9-2.4-2-5.2-2.7-8
			c-0.5-1.9-0.7-4-0.7-6.6c0-8.1,0.1-16.2,0.1-24.1c0-7.9,0-16,0.1-24.1c0.1-21,0.2-47.2,0.2-72c0-6-0.5-12-1-18.5
			c-0.1-1-0.2-2.1-0.2-3.1c-0.1-1-0.2-2.1-0.2-3.2l-0.2-3c-0.5-7.3-1.1-14.8-1.7-22.3c-0.2-2-0.4-4-0.7-5.9
			c-0.3-2.3-0.6-4.2-0.8-6.2l0-0.4c-0.8-8-1.6-16.3-3.5-24.4c-0.3-1.5-0.7-3.1-1.1-4.6c-0.1-0.6-0.3-1.1-0.4-1.6
			c-0.6-2.1-1.1-4.2-1.6-6.3c-0.7-3.1-1-6-1-8.8c0-2.9,0.2-5.7,0.4-8.5c0.2-2,0.3-4.1,0.4-6.1l0-0.3c0.3-5.2,1.7-10,3.3-15.3
			l1.2-4.2c2.3-8.6,4.7-17.4,7.1-25.8c1.2-4.5,2.4-8.9,3.6-13.3l2.4-8.5l0.3-1.2c0.1-0.2,0.1-0.3,0.1-0.4c0-0.1,0-0.2,0.1-0.4
			l0.1-0.3l-0.2-0.2c-4.2-3.6-6.4-8.4-8.5-13.1l-1.5-3.3c-0.2-0.4-0.3-0.8-0.5-1.2c-0.2-0.4-0.3-0.7-0.5-1.1
			c-0.2-0.4-0.3-0.7-0.5-1.1c-0.2-0.4-0.3-0.7-0.5-1.1c-1.8-3.5-2.5-6.6-2.2-10c0.6-7.5,1.7-16.4,4.7-24.8
			c3.9-11.3,7.8-20.7,12.2-29.6c2.9-5.9,7.2-11.4,13.4-17.4c0.8-0.7,1.6-1.4,2.4-2.2c4-4.2,9.4-6.5,15.6-6.6l1.5,0
			c2.8-0.1,5.7-0.2,8.6-0.2c4.9,0,8.9,0.2,12.6,0.8c1.8,0.3,3.8,0.4,5.6,0.6l0.9,0.1c1.8,0.1,3.7,0.3,5.3,0.5
			c5.9,0.8,13.7,2,21.4,4.3c0.3,0.1,0.4,0.1,0.6,0.1h0.1h0.4l0-0.4c0.7-7.6,3-15,5.2-22.1l0.1-0.4c0.2-0.6,0.4-1.2,0.6-1.9
			c0.2-0.6,0.4-1.2,0.6-1.8l0.2-0.5h-0.6c0,0-0.1,0-0.1,0c-0.1,0-0.2-0.1-0.3-0.1c-0.1,0-0.2,0-0.4,0c-0.2,0-0.3-0.1-0.5-0.1
			c-2.8,0-5.3-1-7.2-2.9l-0.7-0.7l-0.6-0.6c-1.6-1.6-3.3-3.3-4.7-5.2c-3.1-4.4-6.1-8.9-9.6-14.4l-2.2-3.4c-0.6-0.9-1-1.5-1.6-2.2
			c-4.7-5.1-7.4-11.7-8.1-19.9c-0.5-5.2-0.8-11.1,0.7-17c2-7.5,5.9-14.2,11.6-19.9c1-1,2.1-1.8,3.3-2.6c2.3-1.5,4.8-2.9,7.1-4.4
			c1.3-0.8,2.6-1.6,3.9-2.3c5.5-3.4,8.8-7.7,10-13.3l1.5-6.3c0.8-3,2.6-4.9,5.5-5.8l0.1,0c1.3-0.4,2.8-0.9,4.6-1
			c3.3-0.3,6.7-0.4,9.9-0.4V-0.5 M159.5,113.3c0.2,0.3,0.5,0.6,0.8,0.9c1.8,2,4.1,3.1,6.6,3.1c0.2,0,0.5,0,0.7,0
			c1.5-0.1,2.3-0.3,3.1-1.5c2-2.8,4.7-4.2,8.4-4.5c1.8-0.1,3.7-0.5,5.6-0.9c0.8-0.2,1.6-0.4,2.1-0.5c0.8-0.1,1.5-0.2,2.2-0.4
			l0.4-0.1c2.4-0.6,5-1.1,7.6-1.5h0.3h0l0,0c3.1-0.4,3.2-0.6,3.7-3.7c0.1-0.3,0.1-0.5,0.1-0.7c0-0.2,0-0.3,0.1-0.4l0-0.1l0-0.1
			l0.2-1.5c0.5-3.5,1.1-7,1.8-10.5c0.6-3.2,2.3-5.9,5.2-8.2c5.3-4.3,11.8-6.4,20.5-6.6c2.5,0,4.2,1.2,4.9,3.4l0,0l0,0
			c0.1,0.2,0.2,0.4,0.2,0.6c0.1,0.2,0.2,0.4,0.3,0.6c0.2,0.5,0.4,1,0.6,1.6c0.3,0.9,0.8,1.9,2.1,1.9c0.2,0,0.3,0,0.5,0l0.2,0
			l0.1-0.2c1.2-3,1.8-6,1.9-9.2c0.1-3.2,0.3-6.4,0.6-9.6c0.3-2.7,0.6-5.4,1.2-9L242,55c0.5-3,1-6.1,2.6-9c1.7-3,3.9-4.5,6.6-4.6
			c3.5-0.1,7.3-0.2,10.7-0.2c2.1,0,3.9,0,5.7,0.1c1.8,0,3.1-0.1,4.6-0.4l0.5-0.1l-0.2-0.4c-0.6-1.8-1.7-2.7-3.1-3.8
			c-3.8-2.9-7.8-5.3-11.2-7.3c-3-1.7-5.9-3.6-8.8-5.4c-0.7-0.4-1.4-0.9-2.1-1.3c-2.5-1.6-5.1-3.2-7.7-4.8c-3.1-1.9-5.8-3.3-8.5-4.4
			c-9-3.9-19-6.3-30.7-7.4c-3.3-0.3-7.1-0.4-11.4-0.4h-3.8h-3.8c-1.3,0-2.6,0.3-3.5,0.5L177,6.1c-1.8,0.3-2.8,1.4-3.1,3.1
			c-0.3,1.6-0.7,3.2-1.1,4.8c-1.6,7.3-5.7,12.8-12.5,17l-10.8,6.6l-0.2,0.1c-0.8,0.5-1.6,1-2.2,1.8c-5.5,5.6-8.9,11.6-10.4,18.3
			c-1.3,5.9-0.8,11.8-0.2,16.3c0.7,6.1,3,11.2,6.7,15.2c0.7,0.7,1.2,1.5,1.7,2.4c0.1,0.2,0.3,0.4,0.4,0.7c0.2,0.2,0.3,0.5,0.4,0.7
			c0.1,0.1,0.2,0.3,0.2,0.4c0.4,0.6,0.9,1.3,1.3,1.9c1.1,1.6,2.1,3,3.1,4.6c1.5,2.4,3.2,4.8,4.8,7.2c0.8,1.2,1.6,2.4,2.4,3.6
			C158.1,111.8,158.8,112.6,159.5,113.3 M256.1,46.1c-0.8,0-1.4,0-2,0c-0.1,0-0.2,0-0.3,0c-2.9,0-4.5,1.4-5.4,4.4
			c-0.3,1.2-0.6,2.4-0.8,3.7c0,0.5-0.1,1.1-0.2,1.6c-0.1,0.5-0.2,1.1-0.2,1.6l-0.1,0.4c-0.2,0.9-0.3,1.8-0.4,2.8
			c-0.7,4.1-1.4,8.8-1.3,13.6c0,3.1-0.5,6.3-1.7,10c-1.3,4.3-2.9,5.2-5.1,5.2c-1,0-2-0.2-3.2-0.4l0,0h0H235
			c-2.2-0.5-3.7-1.8-4.4-3.9c-0.1-0.3-0.2-0.6-0.3-0.9c-0.3-0.9-0.6-1.7-1-2.6l-0.1-0.2H229c-5.1,0-9.8,1.1-14.2,3.3
			c-4,2.1-6.2,5-6.8,8.9c-0.2,0.8-0.3,1.6-0.4,2.5c-0.1,0.9-0.2,1.7-0.4,2.5c-0.2,0.9-0.3,1.8-0.4,2.7c-0.3,2.2-0.6,4.6-1.2,6.9
			c-0.7,3.1-2.7,4.7-6,4.9c-2.1,0.1-4.2,0.4-6.2,0.7c-1.9,0.4-3.8,0.8-5.6,1.2c-2.3,0.6-4.9,1.1-7.8,1.5c-3.6,0.4-5.7,2.2-6.9,6.1
			c-0.1,0.4-0.2,0.7-0.3,1.1c-0.1,0.4-0.2,0.7-0.3,1.1c-0.2,0.9-0.4,1.6-0.7,2.3l-0.9,3l-0.2,0.6c-1.6,4.8-3.2,9.9-3.9,14.9
			c-0.4,2.7-0.5,4.8-0.3,6.7l0,0.3l0.3,0.1c0.2,0,0.4,0.1,0.6,0.2c0.2,0.1,0.4,0.2,0.6,0.2l1.8,0.6l1.2,0.4c0.7,0.2,1.5,0.5,2.2,0.7
			c0.7,0.3,1.5,0.5,2.2,0.8c0.7,0.2,1.4,0.5,2.2,0.8c0.4,0.1,0.7,0.3,1.1,0.4l0.7,0.3c1.6,0.6,3.3,1.3,5,1.6
			c10.3,2.1,20.4,6.1,29.9,11.9c2.4,1.8,5.1,3.1,7.9,4.5l0.7,0.3c0.4,0.2,0.9,0.4,1.4,0.7c0.3,0.1,0.5,0.3,0.8,0.4l0.3,0.2l0.2-0.3
			c2.5-3.6,5.8-5.7,9.9-6.5c2.5-0.4,5.1-1.2,7.1-1.8c3.3-0.9,5.5-3.1,6.6-6.4c0.6-1.7,1.2-3.4,1.8-5.2c2.1-5.9,4.6-13.2,5-20.7
			c0.1-2.1,1.4-3.1,2.9-3.9c2.3-1.1,4.5-2.4,6.6-3.7l0.7-0.4l1.4-0.8c0.8-0.5,1.3-1,1.5-1.5l0,0l0,0l0.1-0.7l0,0c0.2-2,0.4-4-0.7-6
			c-1.2-2.1-2.8-3.8-5.1-5.3c-2.1-1.3-2.6-2.5-2-5l0,0v0c0-0.3,0.2-0.6,0.3-1c0.1-0.1,0.1-0.2,0.1-0.3c0,0,0,0,0,0c0,0,0,0,0,0
			l0.1-0.1l0-0.1c0.3-0.8,0.7-1.6,1.1-2.4c0.4-0.8,0.8-1.7,1.1-2.4c1.7-3.7,3.2-6.9,4.4-9.8c0.8-1.8,1.1-3.5,1.1-5.1
			c0-4.9-0.1-8.6-0.4-11.9c-0.1-2.3-0.3-4.6-0.5-6.8c-0.2-2.2-0.4-4.5-0.6-6.7l0-0.1c-0.3-3.7-0.5-7.5-0.7-11.2l0-0.5l0-0.6
			c-0.2-2.5-0.5-2.8-3-2.8c-0.7,0-1.4,0-2.1,0.1c-0.7,0-1.4,0-2.1,0c-0.7,0-1.3,0-2,0C257.5,46.1,256.8,46.1,256.1,46.1 M95.2,255.8
			c2.2,0,4.5-0.2,7.4-0.5c5.6-0.8,11.4-2.7,17.5-5.4c3.3-1.6,6.8-3.1,10.1-4.5l4.2-1.8c0.7-0.3,1.5-0.7,2.3-1c0.8-0.4,1.6-0.7,2.3-1
			c4.4-1.9,8-3.5,11.2-5.1c1.8-0.8,3.4-1.9,5.1-3l0.4-0.3c0.7-0.5,1.4-1,2.1-1.4c1.8-1.2,3.7-2.3,5.5-3.4c0.7-0.4,1.4-0.8,2.1-1.2
			c6.9-4.1,14.3-8.5,21.3-13.2c7.1-4.6,13.5-7.4,20.1-8.8c2.6-0.5,6.5-1.3,10.8-1.3c5.4,0,10.3,1.1,14.8,3.4c2.3,1,4.7,2,7.1,3
			c2.2,0.9,4.4,1.8,6.6,2.8l0.6,0.3v-0.6l0-2.4c0.1-1.9,0.1-4,0-6.1c-0.4-4.4-2.2-7.2-5.4-8.6c-3.4-1.6-6.6-4.1-9.8-7.9
			c-2.2-2.4-4.1-4-6.3-5.2c-2.9-1.6-5.8-3.2-8.6-4.8c-1.4-0.7-2.8-1.6-4.2-2.3c-1.4-0.8-2.9-1.6-4.3-2.4c-6.1-3.4-12.9-6.8-20.6-8.4
			c-3.4-0.7-7-1.7-11.4-3.2c-1.2-0.4-2.4-0.8-3.5-1.3c-1.4-0.5-2.6-1-3.8-1.3c-0.8-0.3-1.5-0.6-2.3-0.9c-0.7-0.3-1.5-0.5-2.3-0.9
			c-0.4-0.1-0.9-0.3-1.3-0.5c-0.4-0.2-0.9-0.4-1.3-0.5c-0.4-0.1-0.8-0.3-1.2-0.5c-1.7-0.7-3.5-1.4-5.3-1.8
			c-5.8-1.4-10.8-2.3-15.1-2.9c-1.9-0.3-3.9-0.4-5.8-0.6c-1-0.1-1.9-0.2-2.9-0.3c-2.2-0.2-4.4-0.4-6.6-0.7
			c-3.6-0.4-7.2-0.6-10.7-0.6c-3.8,0-7.5,0.2-11.3,0.4l-0.3,0c-3.6,0.2-6.7,1.6-9.6,4.2C84,161,78.1,169,74.6,177.9
			c-0.7,1.8-1.5,3.7-2.2,5.5c-1.6,4.1-3.3,8.3-5.1,12.4c-2.3,5.4-3.8,10.2-4.4,14.7c-0.2,1.5-0.5,3-0.8,4.5l-0.1,0.7
			c-0.7,3.5-1.3,7.1-1.1,10.7c0.1,1.5,0.3,2.8,0.8,4.1c1.2,2.8,2.5,5.6,3.8,8.2c1.3,2.7,2.6,5.4,3.9,8.2c1.1,2.6,3,4.1,5.9,4.7
			c0.4,0.1,0.9,0.2,1.3,0.3c0.4,0.1,0.8,0.1,1.2,0.2l0.4,0.1c2.2,0.5,4.4,1,6.4,1.7C87.7,255.2,91.2,255.8,95.2,255.8 M95.9,260.3
			c-0.9,0-1.8,0-2.7-0.1c-3.6-0.2-6.2-0.7-9-1.6c-1.4-0.5-2.8-0.8-4.2-1.1c-0.5-0.1-1-0.2-1.5-0.4c-0.5-0.1-1-0.2-1.4-0.3
			c-0.5-0.1-1-0.3-1.5-0.4l-0.5-0.1v0.5c0,0.3-0.1,0.5-0.2,0.6l0,0l0,0.1c0,0.2-0.1,0.5-0.2,0.7c-0.1,0.3-0.2,0.5-0.2,0.8L58,319
			c-0.3,1.1-0.5,2-0.6,2.9c-0.4,4-0.8,8.2-1,12.4c-0.2,4.3-0.3,8.4,0.8,12.3c1.3,4.8,2.3,8.6,3.1,12c1.4,6.4,2.5,13.4,3.3,21.2
			c0.2,2.5,0.5,5.1,0.8,7.5c1,8.4,2,17.3,2.5,26.1c0.1,1.9,0.2,3.8,0.4,5.7c0.1,0.8,0.1,1.6,0.2,2.4c0.3,3.6,0.6,7.1,0.8,10.7
			c0.4,5.4,0.8,11.6,0.7,17.8l0,1.8c-0.1,36.9-0.2,75-0.5,112.4c0,5,0.7,9.6,2.2,14.1c1.3,3.8,3.5,6.3,6.9,8
			c2.3,1.2,4.8,2.7,6.9,4.3c3.2,2.5,6.6,4.5,10.3,6l4,1.6c4.8,1.8,9.6,3.7,14.4,5.7c6.7,2.8,13.9,4.6,22.3,5.6
			c8.5,1,17.1,2.2,25.4,3.4l5.1,0.7c1.3,0.2,2.6,0.4,3.8,0.6c1.3,0.2,2.5,0.3,3.8,0.6c7,1,13.4,1.9,19.9,1.9c0.9,0,1.9,0,2.8-0.1
			c1.5-0.1,3.2-0.1,5-0.1c2.2,0,4.3,0.1,6.6,0.1l0.2,0h0.1c0.4,0,0.9,0,1.3,0c8,0,15.8-0.9,22.3-1.7c1.6,0,3.1-0.3,4.5-0.5
			c0.3-0.1,0.7-0.1,1-0.2c0.4,0,0.8-0.1,1.4-0.2l0.3-0.1v-0.3c0-0.3,0-0.7-0.1-1c0-0.3,0-0.5,0-0.8l0-0.2c-0.1-0.8-0.2-1.5-0.2-2.3
			c0.1-7.9,0.2-15.9,0.2-23.7c0.1-7.8,0.1-15.8,0.2-23.7c0.1-8,0.2-16,0.2-23.9c0.1-7.8,0.1-15.9,0.2-23.9c0-0.7,0-1.3,0.2-2
			c0.3-1.2,1.3-1.9,2.4-1.9c0.1,0,0.1,0,0.2,0c1.2,0.1,2,0.7,2.2,1.9c0.2,0.9,0.2,1.6,0.2,2.5l-0.3,23.9l-0.3,24
			c-0.1,15.8-0.3,31.8-0.5,47.3l0,0.6v1.3v0.4h0.4h0.2h0l0,0c0.5-0.1,0.9-0.2,1.4-0.3c2.6-1,5.3-2,8-3c2.7-1,5.4-2,8-3
			c2.6-1,5.5-2,8.9-3.2l2.3-0.8c1.2-0.4,2.3-0.7,3.5-1.1c0.5-0.1,1-0.3,1.5-0.4c0.9-0.2,1.8-0.4,2.7-0.7l0.2-0.1l0-0.3
			c0.1-0.9,0.1-1.7,0.1-2.5c0.1-1.8,0.1-3.6,0.1-5.4c0-1.8,0-3.6,0.1-5.4c0.1-3.7,0.2-7.4,0.3-11c0.1-4.3,0.2-8.8,0.4-13.2
			c0.4-9.5,0.7-18,0.8-26c0.2-12.7,0.2-23.2-0.1-33c-0.1-3.8-0.6-7.6-1.1-11.4c-0.1-0.7-0.2-1.3-0.2-2c-0.1-0.7-0.2-1.4-0.3-2.1
			l-0.1-0.7l-0.2-1.4c-0.5-3.1-1-6.4-0.2-9.6c0.2-0.6,0.3-1.2,0.4-1.9c0.1-0.6,0.2-1.2,0.4-1.8c0.1-0.6,0.3-1.3,0.4-1.9
			c0.2-0.6,0.3-1.3,0.5-1.9c0.3-1.5,0.6-2.9,0.9-4.5l0.2-0.8c0.5-2,0.9-4,1.3-6l0.1-0.4l-0.4-0.1c-0.2-0.1-0.4-0.1-0.6-0.1
			c-0.2,0-0.3,0-0.5-0.1c-0.4-0.1-0.8-0.2-1.2-0.3c-0.4-0.1-0.7-0.1-1.2-0.3c-6.2-1.2-10.9-3.3-14.6-6.5c-1.5-1.4-2.9-2.8-4.3-4.2
			l-1.4-1.4c-1-1-2-2-3.1-2.8c-1.9-1.4-3.2-2.9-4.3-4.7c-15.7-26.5-31.8-53.6-47.4-79.8l-15.5-26.2l-0.3-0.5
			c-2.3-4-3.6-8.3-4.9-12.4c-0.4-1.1-0.6-2.4-0.6-3.7c-0.4-6.6-0.4-13.6,2.4-20c0.3-0.7,0.5-1.6,0.7-2.3c2.1-6.6,4.5-11.5,7.9-15.9
			c0.2-0.2,0.3-0.3,0.4-0.5l0.1-0.1c0.3-0.4,0.6-0.8,1-1.1c0.5-0.4,1.1-0.7,1.8-0.7c0.6,0,1.1,0.2,1.6,0.6c0.9,0.8,1.1,2,0.5,3.1
			c-0.2,0.2-0.3,0.4-0.5,0.7c-0.2,0.3-0.4,0.6-0.6,0.8l0,0l0,0c-7.1,10.4-10.5,20.9-10.4,31.9c0.1,5.2,1.6,10.3,4.4,15.3
			c3.7,6.6,7.7,13.1,11.4,19.3c1.1,1.7,2.1,3.4,3.1,5.2c0.4,0.7,0.8,1.4,1.3,2.1l24,40.5l24,40.5l0.2,0.3c0.7,1.2,1.3,2,1.9,2.4
			c2.6,1.7,4.6,4.1,5.9,5.7c5.2,5.9,12.1,8.9,21,9.2c1.1,0.1,2.2,0.1,3.3,0.1c3.6,0,7.2-0.3,10.6-0.6l1.6-0.1l4.2-0.3
			c2-0.2,4-0.3,6-0.4c0.9,0,1.9-0.1,2.8-0.2c1-0.1,2.1-0.2,3.1-0.2l0.2,0l0.1,0c1-0.1,2.2-0.2,2.9-0.8c1.9-1.4,3.9-2.9,5.8-4.6
			c1.1-0.9,2.1-2,3-3.2c0.4-0.3,0.7-0.7,1-1.1c0.3-0.4,0.7-0.8,1.1-1.2c0.4-0.4,0.8-0.8,1.1-1.2c0.9-1,1.8-2,2.7-3
			c1.5-1.6,2.8-3.1,4.2-4.7c1-1.3,2.2-2.8,3.5-4.6c0.5-0.6,0.9-1.2,1.4-1.8c1-1.3,2.1-2.7,3.2-4c2.6-3,4.6-6.7,6.1-11.5
			c1.5-4.9,2.2-10,2.8-15l0.2-1.8c0.2-1.1,0.3-2.2,0.4-3.3c0.1-1,0.2-2,0.4-3c0.1-0.7,0.2-1.4,0.3-2.1c0.1-0.7,0.1-1.4,0.2-2.1
			c0.1-0.6,0.2-1.2,0.2-1.8c0.6-4.5,1.2-9.2,2.6-13.7c1.1-3.4,1.8-7.3,2.1-11.2c0.6-9.2-0.4-18.8-3-28.8c-0.4-1.2-0.8-2.4-1.3-3.6
			l-0.1-0.3l-0.3,0c-0.7,0.1-1.2,0.1-1.5,0.1h0l0,0c-5,0.6-9.2,3.1-12,5c-3,1.9-5.2,4.6-6.6,8.2c-1.6,4.2-1.6,8.4-1.5,13.1
			c0,0.5,0,1.1,0,1.6c0,1.1,0,2.3,0,3.4l0,0.3l0.3,0.1l1,0.2c1,0.1,1.9,0.3,2.8,0.4l1.4,0.2c0.5,0.1,1.2,0.1,1.8,0.1
			c0.3,0,0.6,0,0.9,0c0.3,0,0.6,0,0.9,0c0,0,0,0,0,0c1.6,0.2,2.6,1.3,2.6,2.7c-0.1,1.5-1.2,2.4-2.7,2.4c-0.1,0-0.1,0-0.2,0l-1.4-0.1
			c-2.9-0.1-5.1-0.4-7.1-0.8c-3-0.5-6-1.2-8.6-1.9c-0.4-0.1-0.9-0.2-1.4-0.3c-0.5-0.1-1-0.3-1.4-0.4c-2.2-0.6-4.4-0.6-6.5-0.6
			l-0.9,0l-1,0h-1.8H316v0.4v0.3v0.2v0.1l0,0.1l0.3,1c1.2,4.8,2.4,9.1,4.3,13.4c1.2,2.7,2.4,5.6,3.6,8.4c0.5,1.3,1.1,2.6,1.6,3.8
			l1.5,3.6l0.2,0.4c0.3,0.6,0.6,1.4,0.7,2.2c0.2,1.5,0.4,3.4,0.3,5.2c-0.1,1.2-0.8,1.9-2.1,2c-0.1,0-0.1,0-0.2,0
			c-1.1,0-2-0.7-2.4-1.8l0,0l0,0c-0.1-0.2-0.1-0.5-0.1-0.8v-0.5v0l0,0c0-0.2-0.1-0.5-0.1-0.7c0-0.2-0.1-0.5-0.1-0.7
			c-0.1-1.3-0.4-2.4-0.7-3.3c-0.6-1.6-1.3-3.2-2-4.7c-0.4-0.9-0.8-1.8-1.1-2.7c-0.5-1.3-1-2.5-1.6-3.8c-0.5-1.2-1-2.5-1.5-3.7
			c-1.6-3.8-2.7-7-3.7-10.2l-0.6-2.1l-0.3-0.9c-1.3-4.3-2.7-8.7-4.4-13c-3.3-8.3-6.1-16.1-8.6-23.8c-2.2-6.7-5.3-15.5-9.9-23.5
			c-2.1-3.7-3.4-7.8-4.2-12.8l-0.3-2.7l0-0.2c-0.2-1.5-0.4-3-0.8-4.3c-3.2-10.6-6.5-20.8-9.3-29.6c-0.3-1.2-1-2.5-1.9-3.7
			c-3.1-3.9-6.6-8.4-10.7-13.7c-1.1-1.4-2.5-2.7-4.1-3.9c-0.8-0.6-1.7-1.1-2.5-1.7c-0.8-0.5-1.7-1.1-2.5-1.6L252,224
			c-1.9-1.3-3.9-2.6-5.7-4c-3.2-2.5-6.8-4.6-10.9-6.4c-1.8-0.7-3.6-1.4-5.2-2.2c-3.7-1.9-7.9-2.9-12.6-2.9c-0.2,0-0.5,0-0.8,0
			c-9,0.2-17.4,2.7-24.8,7.6c-10.4,6.7-20.5,13.3-31,19.2c-0.3,0.2-0.7,0.4-1.1,0.6c-1.3,0.6-2.3,1.2-3.1,1.8
			c-4.4,2.8-9,5.2-13.6,7.1l-1.6,0.7c-5.5,2.3-11.3,4.7-17.1,7.3C116.5,256.6,106.8,260.3,95.9,260.3 M314.4,349.2h0.3h2.6h2.6
			c1.3,0,2.7,0.1,4,0.2c1.9,0.2,4,0.5,6.7,1.1c0.3,0,0.6,0.1,0.9,0.2c0.3,0.1,0.7,0.2,1,0.2l0.4,0.1l0.1-0.4
			c0.1-0.6,0.1-1.2,0.1-1.7v-3.5c0-0.4,0-0.8,0-1.2c0-1.6,0-3.3,0.2-4.9c1-8.7,4.6-14.8,11.1-18.6c2.7-1.6,6.3-3.6,9.9-4.6l0.2,0
			l0.1-0.2c0.3-0.6,0.6-1.2,0.8-1.8c0.2-0.4,0.4-0.9,0.6-1.3c0.2-0.4,0.4-0.9,0.6-1.3c2.8-4.6,5.8-9.4,8.6-14
			c0.9-1.5,1.8-2.9,2.7-4.3c0.9-1.4,1.7-2.8,2.6-4.3c0.3-0.5,0.6-1,0.9-1.5c0.2-0.3,0.4-0.6,0.6-1l0.3-0.5l-0.6-0.1l-1-0.1
			c-0.5-0.1-0.9-0.1-1.3-0.2c-1.2-0.1-2.4-0.3-3.5-0.3c-1.5-0.1-3-0.1-4.5-0.1c-1.5,0-3,0-4.5-0.1l-0.8,0c-5.6-0.1-11.3-0.2-17-0.4
			c-0.1,0-0.2,0-0.4,0c-1.5,0-2.5,0.7-3.3,2.2l-2.3,4.5c-1.8,3.4-3.6,6.8-5.4,10.3c-5.1,9.7-10.4,19.8-15.7,29.5
			c-2.2,3.9-2.4,7-0.7,10.2c0.7,1.4,1.3,2.8,1.8,4.2l0.4,0.9c0.2,0.4,0.3,0.8,0.5,1.3c0.2,0.4,0.3,0.8,0.5,1.2L314.4,349.2
			 M188.8-0.5c-3.3,0-6.6,0.1-10,0.4c-1.8,0.1-3.4,0.6-4.7,1c-3.1,1-5,3-5.8,6.1l-1.5,6.3c-1.2,5.5-4.4,9.8-9.8,13.1
			c-3.6,2.2-7.4,4.4-11,6.7c-1.1,0.7-2.3,1.6-3.4,2.7c-5.8,5.8-9.7,12.6-11.7,20.1c-1.5,5.7-1.2,11.6-0.7,17.1
			c0.7,8.1,3.4,14.9,8.2,20.1c0.6,0.7,1,1.3,1.6,2.2l2.2,3.4c3.1,4.8,6.3,9.7,9.6,14.4c1.5,2.2,3.5,4.1,5.3,5.9l0.7,0.7
			c2,2,4.6,3,7.5,3c0.3,0,0.6,0.1,0.9,0.1c0.1,0,0.3,0.1,0.4,0.1c-0.4,1.2-0.8,2.5-1.2,3.7c-2.3,7.3-4.7,14.8-5.4,22.6h-0.1
			c-0.2,0-0.3,0-0.5-0.1c-7.3-2.2-14.6-3.4-21.5-4.3c-1.7-0.2-3.5-0.4-5.3-0.5c-2.1-0.2-4.4-0.4-6.5-0.7c-4.2-0.6-8.4-0.8-12.6-0.8
			c-2.9,0-5.8,0.1-8.7,0.2h-1.5c-6.3,0.1-11.8,2.4-15.9,6.7c-0.8,0.8-1.6,1.5-2.4,2.2c-6.2,5.9-10.5,11.4-13.5,17.5
			c-4.3,8.7-8.2,18.1-12.2,29.6c-3.1,8.8-4.1,17.9-4.7,24.9c-0.3,3.5,0.4,6.7,2.2,10.2c0.3,0.7,0.7,1.5,1,2.2c0.3,0.8,0.7,1.5,1,2.3
			c0.5,1.1,1,2.2,1.5,3.3c2.1,4.7,4.3,9.6,8.6,13.2c-0.1,0.3-0.1,0.5-0.2,0.8c-0.1,0.4-0.2,0.8-0.3,1.2l-2.4,8.5
			c-3.5,12.8-7.2,26-10.7,39.1c-0.4,1.4-0.8,2.8-1.2,4.2c-1.5,4.9-3,10-3.3,15.4c-0.1,2.1-0.2,4.3-0.4,6.4c-0.2,2.8-0.4,5.6-0.4,8.5
			c0,2.7,0.3,5.6,1,8.9c0.5,2.1,1,4.2,1.6,6.3c0.5,2,1.1,4.1,1.5,6.2c1.9,8.2,2.7,16.6,3.5,24.8c0.2,2.1,0.5,4.2,0.8,6.2
			c0.3,1.9,0.5,3.9,0.7,5.9c0.7,8.4,1.3,16.9,1.9,25.2c0.2,2.1,0.3,4.2,0.5,6.3c0.5,6,1,12.3,1,18.5c0,24-0.1,48.4-0.2,72
			c-0.1,16.1-0.1,32.1-0.2,48.2c0,2.5,0.2,4.7,0.7,6.7c0.7,2.7,1.7,5.4,2.7,8l0.4,1.2c0.3,1,0.8,1.8,1.4,2.5c0.8,0.9,0.9,2,0.9,3.1
			c0,0.9,0,1.8,0,2.6c0,3.5,0,7.1,0.2,10.6c0.2,2.6,0.4,5.3,0.6,7.8c0.4,5.5,0.9,11.3,0.8,17c-0.1,4.2-0.2,8.6-1.3,12.7l-0.1,0.5
			h0.5c1.8,0,3.6,0,5.5-0.3h0.3v-0.3c1.9-10.8,1.1-21.5,0.1-31.5c-0.6-5.6-0.8-11.1-0.6-16.7c1.6,0.3,3,1,4.5,2.3
			c6.1,5.2,13.5,8.1,20.7,10.9c1.2,0.5,2.4,0.9,3.6,1.4c2.3,0.9,4.6,1.8,6.8,2.6c1.1,0.4,2.3,0.8,3.4,1.3c5.5,2.2,11.4,3.7,18.1,4.5
			c13.4,1.7,26.9,3.5,39.9,5.4c4.2,0.6,8.4,1.2,12.6,1.7c1.2,0.2,2.2,0.3,3.3,0.3h0.2c4.7,0.1,9.3,0.1,13.9,0.1c3.3,0,6.7,0,10-0.1
			c8.6-0.3,19.4-0.6,29.3-3.4c5.5-1.6,10.9-3.6,16.1-5.5c2.5-0.9,5-1.9,7.5-2.8c3.9-1.4,7.9-2.7,11.8-3.9l2.9-1
			c0.3-0.1,0.6-0.1,1-0.1l-0.9,34.8h6.3v-0.4c0.3-11.9,0.5-24.1,0.7-34.9c0.7-1.8,0.6-3.5,0.4-5.2c-0.1-0.7-0.1-1.4-0.1-2.1
			c0.2-12.8,0.5-25.9,0.8-38.5v-0.2c0.1-2,0.2-4,0.2-6.1c0.2-6,0.5-12.2,0.6-18.2c0.1-6.6,0-13.3,0-19.7c0-3.3,0-6.6,0-9.9
			c0-6.6-0.6-13.3-1.8-19.8l-0.1-0.6c-0.5-2.7-1-5.5-0.4-8.2c1.6-7.3,3.1-14,4.5-20.5h2.6c2,0,4.1-0.1,6.4-0.2
			c1.6-0.1,3.2-0.3,4.7-0.4c1.5-0.1,3.1-0.3,4.7-0.4c1.1-0.1,2.1-0.1,3.2-0.2c2.1-0.1,4.3-0.2,6.5-0.4c2.4-0.2,4.3-0.7,5.8-1.4
			c3.1-1.4,5.9-3.6,8-6.4c0.7-0.9,1.5-1.7,2.3-2.6c0.3-0.3,0.5-0.6,0.8-0.9l2-2.2c2.6-2.8,5.3-5.8,7.8-8.7c1.3-1.5,2.5-3.1,3.6-4.7
			c1.2-1.7,2.5-3.4,3.9-4.9c4-4.3,6.6-9.6,8.5-17.1c1.4-5.5,2.1-11.3,2.7-16.8c0.2-2,0.5-4,0.7-6l0.2-1.7c0.7-5.1,1.4-10.4,2.9-15.5
			c1.3-4.6,2-8.4,2.2-11.8c0.4-6.1,0.5-12.6-0.8-19.2c-1.1-5.3-2.4-10.4-3.6-15.2c-0.5-2-1.5-4.3-4.5-4.6c0.3-0.4,0.5-0.8,0.7-1.1
			c0.2-0.3,0.4-0.6,0.6-1c2.6-4.2,5.2-8.5,7.8-12.7c2.6-4.2,5.2-8.5,7.8-12.7c1-1.5,1.2-2.9,0.7-4c0.4-1-0.8-1.8-2.5-2.2
			c-1.8-0.4-3.6-0.8-5.5-0.9c-3.6-0.3-7.2-0.5-10.9-0.6l-24.1-0.3h-0.8c-1.9,0.3-2.7,1.1-3.1,3c-0.2,0.9-0.5,1.8-0.9,2.7
			c-3.7,7-7.4,14-11.1,21c-3.7,7-7.3,14-11,21l-0.1,0.2c-0.3,0.5-0.6,1-1,1.7c-0.3-0.9-0.6-1.7-0.9-2.6c-0.5-1.4-1-2.8-1.4-4.1
			c-3.2-10.7-6.5-18.6-10.6-25.7c-2.1-3.8-3.4-8-4-13.9c-0.2-1.9-0.4-3.8-1-5.7c-2.4-8-5-16.1-7.4-23.9l-1.8-5.7
			c-0.7-2.1-1.5-3.5-2.6-4.9c-1.1-1.4-2.3-2.9-3.4-4.3c-2.5-3.3-5.2-6.6-7.8-9.9c-1.5-1.8-3.3-3.4-4.9-4.7c-2.2-1.8-4.6-3.4-6.7-4.8
			l-0.6-0.4c-0.1-0.6-0.1-1.2-0.1-1.8c0-1.3,0-2.5-0.6-3.4c-0.7-1.3-1-2.5-1-4.3c0-0.6,0-1.2-0.1-1.9c0-0.6,0-1.2,0-1.8
			c-0.1-7.1-3.1-12-9.1-14.9c-2.4-1.2-4.7-2.9-6.8-5.1c-0.8-0.8-1.6-1.6-2.4-2.3c-0.8-0.8-1.6-1.6-2.4-2.4c-0.3-0.3-0.5-0.6-0.8-0.9
			c2.4-2.7,5.6-3.8,8.9-4.9c2.4-0.7,4.7-1.6,6.8-2.4c4.6-2,7.7-5.3,9.2-9.9c2.5-7.5,5-15.2,5.6-23.4c0.1-1.4,0.6-2,1.9-2.6
			c4-1.9,7-3.8,9.4-6.2c1-0.9,1.8-2.2,2-3.3c1-6.7-0.9-12.1-5.5-16c-0.7-0.5-1.4-1.1-2.2-1.8c1.2-2.6,2.3-5.1,3.5-7.6
			c1-2.1,1.9-4.2,2.8-6.3l0.1-0.2c0.9-2.1,1.7-4,1.7-6.3c0.1-6.5-0.2-13-0.8-20.1c-0.5-5.6-0.9-11.2-1.3-16.7
			c-0.1-1.7-0.2-3.3-0.3-5c0.7-0.2,1.2-0.4,1.7-0.6c3.8-1.3,4.8-3.2,3.5-7.1c-0.8-2.7-2.5-4.9-5.3-7c-3.3-2.6-7.1-5.1-11.8-7.7
			c-3.7-2.1-7.4-4.4-10.9-6.6c-2.4-1.6-5-3.2-7.5-4.7c-3.4-2.1-6.4-3.7-9.3-4.8C219.1,2.4,204.2-0.5,188.8-0.5L188.8-0.5z
			 M166.9,116.8c-2.5,0-4.6-1-6.3-2.9c-0.3-0.3-0.6-0.6-0.8-0.9c-0.7-0.7-1.4-1.4-1.9-2.3c-2.4-3.6-4.9-7.2-7.2-10.8
			c-1.4-2.2-2.9-4.3-4.4-6.5c-0.2-0.3-0.4-0.7-0.7-1.1c-0.7-1.1-1.3-2.2-2.2-3.1c-3.7-4-5.9-9.1-6.6-15c-0.6-4.5-1.1-10.4,0.2-16.2
			c1.5-6.7,4.9-12.6,10.3-18.1c0.7-0.8,1.5-1.3,2.4-1.9l10.8-6.6c7-4.3,11.1-10,12.7-17.3c0.4-1.6,0.8-3.2,1.1-4.8
			c0.3-1.6,1.2-2.5,2.8-2.8l0.6-0.1c1.1-0.3,2.3-0.5,3.4-0.5c1.3,0,2.6,0,3.8,0c1.3,0,2.5,0,3.8,0c3.8,0,7.7,0.1,11.4,0.4
			c11.6,1.1,21.6,3.5,30.6,7.4c2.7,1.1,5.4,2.5,8.5,4.4c2.6,1.6,5.2,3.2,7.7,4.8c3.5,2.2,7.2,4.6,10.9,6.7c3.9,2.3,7.6,4.6,11.2,7.3
			c1.3,1,2.4,1.9,3,3.6c-1.5,0.3-2.8,0.4-4.5,0.4c-1.8-0.1-3.7-0.1-5.7-0.1c-3.2,0-6.7,0.1-10.7,0.2c-2.8,0.1-5.1,1.7-6.9,4.8
			c-1.6,2.9-2.1,6-2.6,9.1l-0.2,1.2c-0.5,3.1-0.9,5.9-1.2,9c-0.3,3.2-0.5,6.4-0.6,9.6c-0.1,3.1-0.7,6.1-1.9,9.1c-0.2,0-0.3,0-0.5,0
			c-0.9,0-1.4-0.5-1.7-1.6c-0.2-0.6-0.4-1.1-0.6-1.6c-0.2-0.4-0.3-0.8-0.5-1.2c-0.8-2.4-2.6-3.7-5.3-3.7c-8.9,0.2-15.5,2.4-20.8,6.7
			c-2.9,2.3-4.7,5.1-5.3,8.4c-0.8,4-1.4,8.1-2,12c-0.1,0.2-0.1,0.4-0.1,0.6c0,0.2,0,0.4-0.1,0.6c-0.5,3-0.5,3-3.4,3.4h-0.3
			c-2.6,0.4-5.2,0.9-7.7,1.5c-0.9,0.2-1.7,0.4-2.6,0.5c-0.7,0.1-1.5,0.3-2.2,0.5c-1.8,0.4-3.7,0.8-5.5,0.9c-3.7,0.3-6.6,1.8-8.7,4.7
			c-0.7,1-1.4,1.2-2.8,1.3C167.4,116.8,167.1,116.8,166.9,116.8L166.9,116.8z M256.1,46.5c1.4,0,2.8,0,4.1,0c1.4,0,2.8-0.1,4.2-0.1
			c2.3,0,2.4,0.1,2.6,2.4v0.6c0.2,3.9,0.4,7.9,0.7,11.8c0.2,2.3,0.4,4.6,0.6,6.8c0.2,2.2,0.4,4.5,0.5,6.8c0.3,3.6,0.4,7.4,0.4,11.9
			c0,1.6-0.4,3.2-1.1,4.9c-1.4,3.3-2.9,6.6-4.4,9.8c-0.7,1.6-1.5,3.3-2.2,4.9c-0.1,0.1-0.1,0.3-0.2,0.4c-0.2,0.4-0.4,0.8-0.4,1.2
			c-0.6,2.6-0.1,4,2.2,5.4c2.3,1.5,3.9,3.2,5,5.2c1,1.9,0.8,3.8,0.6,5.8l-0.1,0.7c-0.1,0.3-0.5,0.8-1.3,1.3l-1.4,0.8
			c-2.3,1.4-4.7,2.9-7.2,4.1c-1.5,0.8-3,1.9-3.1,4.2c-0.4,7.3-2.8,14.3-5,20.6c-0.6,1.8-1.2,3.5-1.8,5.2c-1,3.1-3.2,5.2-6.3,6.1
			c-2.3,0.7-4.8,1.4-7.1,1.8c-4.2,0.8-7.6,3-10.2,6.7c-0.8-0.4-1.5-0.8-2.2-1.1c-3-1.5-5.9-2.9-8.5-4.8c-9.5-5.8-19.7-9.9-30.1-12
			c-1.9-0.4-3.8-1.2-5.6-1.9c-1.1-0.4-2.2-0.9-3.3-1.2c-1.5-0.5-2.9-1-4.4-1.5l-1.2-0.4c-0.6-0.2-1.2-0.4-1.8-0.6
			c-0.4-0.1-0.8-0.3-1.2-0.4c-0.2-1.9-0.1-4,0.3-6.6c0.8-5.2,2.5-10.4,4.1-15.4c0.3-1,0.6-2,0.9-3c0.3-0.8,0.5-1.5,0.7-2.3
			c0.2-0.7,0.4-1.5,0.6-2.2c1.2-3.7,3.2-5.4,6.6-5.8c2.6-0.4,5.3-0.9,7.8-1.5c1.8-0.4,3.7-0.8,5.6-1.2c2-0.3,4-0.6,6.1-0.7
			c3.5-0.2,5.7-2,6.4-5.2c0.6-2.3,0.9-4.6,1.2-6.9c0.1-0.9,0.2-1.8,0.4-2.7c0.2-0.8,0.3-1.6,0.4-2.5c0.1-0.8,0.2-1.6,0.4-2.4
			c0.6-3.8,2.8-6.6,6.6-8.6c4.3-2.2,9-3.3,14-3.3c0.5,1.2,0.9,2.4,1.3,3.5c0.7,2.3,2.3,3.7,4.7,4.2h0.3c1.2,0.2,2.3,0.4,3.3,0.4
			c2.4,0,4.1-1.1,5.4-5.5c1.2-3.9,1.7-7.1,1.7-10.1c-0.1-4.6,0.6-9.1,1.3-13.5c0.1-1.1,0.3-2.1,0.5-3.2c0.1-1.1,0.3-2.1,0.4-3.2
			c0.2-1.2,0.5-2.4,0.8-3.6c0.8-2.9,2.3-4.1,5-4.1c0.1,0,0.2,0,0.3,0C254.7,46.5,255.4,46.5,256.1,46.5L256.1,46.5z M95.2,255.4
			c-3.5,0-7-0.4-10.4-1.7c-2.2-0.8-4.6-1.3-6.9-1.8c-0.8-0.2-1.7-0.3-2.5-0.5c-2.7-0.6-4.5-2-5.6-4.5c-1.3-2.8-2.6-5.5-3.9-8.2
			c-1.3-2.7-2.6-5.4-3.8-8.2c-0.4-1.1-0.7-2.3-0.8-4c-0.3-3.9,0.5-7.7,1.2-11.4c0.3-1.5,0.6-3,0.8-4.5c0.7-4.6,2.2-9.4,4.4-14.6
			c2.5-5.9,4.9-12,7.3-17.9c3.5-9,9.4-16.9,18-24.4c2.9-2.6,6-3.9,9.4-4.1c3.9-0.2,7.7-0.4,11.6-0.4c3.6,0,7.1,0.2,10.7,0.6
			c2.2,0.3,4.4,0.5,6.6,0.7c2.9,0.3,5.8,0.5,8.7,0.9c4.7,0.6,9.7,1.6,15.1,2.9c2.2,0.5,4.3,1.4,6.4,2.2c0.9,0.3,1.7,0.7,2.6,1
			c1.5,0.6,3,1.1,4.5,1.7c2.1,0.7,4.7,1.7,7.3,2.6c4.1,1.4,7.9,2.5,11.5,3.2c7.8,1.7,14.7,5.2,20.5,8.4c2.8,1.5,5.7,3.2,8.5,4.7
			c2.8,1.6,5.7,3.2,8.6,4.8c2.4,1.3,4.3,3,6.2,5.1c3.2,3.8,6.4,6.4,9.9,8c3.2,1.4,4.8,4.2,5.2,8.3c0.1,2,0.1,4.1,0,6
			c0,0.8,0,1.6,0,2.4c-2.2-1-4.4-1.9-6.6-2.8c-2.4-1-4.8-2-7.1-3c-5.1-2.6-10.3-3.5-15-3.5c-4,0-7.7,0.6-10.9,1.3
			c-6.6,1.4-13,4.2-20.2,8.9c-6.9,4.6-14.2,9-21.3,13.2c-2.5,1.5-5.1,3-7.6,4.6c-0.7,0.4-1.4,0.9-2.1,1.4c-1.9,1.2-3.6,2.3-5.5,3.2
			c-3.7,1.8-7.5,3.5-11.2,5.1c-1.5,0.7-3.1,1.4-4.6,2.1c-1.4,0.6-2.8,1.2-4.2,1.8c-3.3,1.4-6.8,2.9-10.1,4.5
			c-6.1,2.8-12,4.6-17.4,5.4C100.1,255.2,97.7,255.4,95.2,255.4L95.2,255.4z M95.9,260.7c11.2,0,21.2-3.9,28.8-7.4
			c6.4-2.9,12.7-5.5,18.7-8c4.7-1.9,9.3-4.3,13.7-7.1c1-0.7,2.1-1.3,3.1-1.8c0.4-0.2,0.8-0.4,1.1-0.6c10.6-6,21-12.7,31-19.2
			c7.4-4.8,15.6-7.3,24.6-7.5c0.2,0,0.5,0,0.7,0c4.7,0,8.8,0.9,12.5,2.8c1.6,0.8,3.4,1.5,5.2,2.2c3.8,1.6,7.4,3.6,10.8,6.3
			c2.1,1.6,4.4,3.1,6.5,4.5c1.6,1.1,3.4,2.2,5,3.3c1.5,1.1,2.9,2.4,4,3.8c3.7,4.7,7.3,9.3,10.7,13.7c0.8,1.1,1.5,2.4,1.8,3.6
			c3,9.3,6.2,19.3,9.3,29.6c0.4,1.4,0.6,3,0.8,4.5c0.1,0.9,0.2,1.8,0.3,2.7c0.8,5.3,2.2,9.4,4.2,13c4.6,8,7.7,16.7,9.9,23.4
			c2.4,7.4,5.2,15.2,8.6,23.8c1.8,4.5,3.2,9.2,4.6,13.8l0.6,2.1c0.9,3,2,6.1,3.7,10.2c1,2.5,2.1,5,3.1,7.5c1,2.4,2.1,4.9,3.1,7.4
			c0.4,1,0.6,2.1,0.7,3.2c0.1,0.5,0.1,0.9,0.2,1.4c0,0.2,0,0.4,0,0.5c0,0.3,0,0.7,0.2,1c0.5,1.3,1.5,2.1,2.8,2.1c0.1,0,0.2,0,0.2,0
			c1.5-0.1,2.4-1,2.5-2.4c0.1-1.8-0.1-3.6-0.3-5.3c-0.1-0.8-0.4-1.6-0.7-2.3l-0.2-0.4c-0.5-1.2-1-2.4-1.5-3.6
			c-1.7-4-3.4-8.2-5.2-12.2c-1.9-4.3-3.1-8.7-4.3-13.3l-0.3-1c0-0.1,0-0.1,0-0.2s0-0.2,0-0.3c0.6,0,1.2,0,1.8,0c0.6,0,1.3,0,1.9,0
			c2.2,0,4.3,0.1,6.4,0.6c0.9,0.2,1.9,0.5,2.8,0.7c2.8,0.7,5.7,1.4,8.6,1.9c2.4,0.5,4.8,0.7,7.2,0.8l1.4,0.1c0.1,0,0.2,0,0.2,0
			c1.7,0,3-1.1,3.1-2.8c0-1.6-1.2-2.9-3-3.1c-0.6,0-1.2-0.1-1.8-0.1s-1.2,0-1.7-0.1c-1.4-0.2-2.7-0.4-4.2-0.6l-1-0.2
			c0.1-1.7,0-3.5,0-5.1c-0.1-4.5-0.1-8.8,1.5-13c1.3-3.5,3.5-6.2,6.4-8c3-2,7.1-4.3,11.8-4.9c0.4,0,0.9,0,1.6-0.1
			c0.5,1.2,0.9,2.4,1.3,3.6c2.6,9.9,3.6,19.5,3,28.6c-0.3,3.8-1,7.6-2.1,11.1c-1.6,5.1-2.2,10.5-2.9,15.6c-0.2,1.4-0.3,2.8-0.5,4.2
			c-0.3,2.1-0.5,4.2-0.8,6.2c-0.7,5.5-1.3,11.3-3,16.7c-1.5,4.8-3.4,8.4-6,11.4c-1.6,1.9-3.1,3.9-4.6,5.8c-1.1,1.5-2.3,3.1-3.5,4.6
			c-2.2,2.6-4.5,5-6.9,7.7c-0.7,0.8-1.5,1.6-2.2,2.4c-0.3,0.4-0.6,0.8-1,1.1c-0.9,1.1-1.9,2.3-3,3.2c-1.9,1.7-3.9,3.2-5.8,4.6
			c-0.7,0.5-1.8,0.6-2.8,0.7h-0.2c-2,0.1-4,0.3-5.9,0.4c-2,0.1-4,0.2-6,0.4c-1.4,0.1-2.8,0.2-4.2,0.3c-4,0.3-8.1,0.7-12.2,0.7
			c-1.1,0-2.2,0-3.3-0.1c-8.8-0.3-15.6-3.3-20.7-9.1c-1.4-1.8-3.5-4.1-6-5.8c-0.7-0.5-1.3-1.4-1.8-2.3l-0.2-0.3
			c-8-13.5-16-27-24-40.5s-16-27-24-40.5c-1.5-2.5-2.9-4.9-4.4-7.3c-3.8-6.3-7.7-12.8-11.4-19.3c-2.7-4.8-4.2-9.9-4.3-15.1
			c-0.1-11,3.3-21.4,10.3-31.7c0.4-0.4,0.7-1,1.1-1.5c0.7-1.3,0.4-2.7-0.6-3.6c-0.5-0.4-1.2-0.7-1.9-0.7c-0.7,0-1.4,0.2-2,0.8
			c-0.5,0.4-0.8,0.8-1.2,1.3c-0.1,0.2-0.2,0.3-0.4,0.5c-3.4,4.4-5.9,9.4-8,16c-0.2,0.8-0.4,1.6-0.7,2.3c-2.9,6.7-2.8,13.9-2.4,20.2
			c0,1.3,0.2,2.6,0.6,3.8c1.2,4,2.6,8.4,4.9,12.5l0.3,0.5c20.6,34.7,42,70.7,62.9,106c1.1,1.9,2.5,3.4,4.4,4.8
			c1.1,0.8,2.1,1.8,3.1,2.8c0.5,0.5,1,1,1.4,1.4c1.4,1.4,2.8,2.8,4.3,4.2c3.8,3.3,8.5,5.4,14.8,6.6c0.8,0.2,1.5,0.3,2.3,0.5
			c0.4,0.1,0.7,0.1,1.1,0.2c-0.4,2-0.8,4-1.3,6c-0.4,1.8-0.8,3.5-1.1,5.3c-0.3,1.3-0.6,2.5-0.9,3.8c-0.3,1.2-0.5,2.5-0.8,3.7
			c-0.8,3.3-0.3,6.6,0.2,9.8c0.1,0.7,0.2,1.4,0.3,2.1c0.2,1.3,0.3,2.7,0.5,4.1c0.5,3.7,1,7.6,1.1,11.4c0.3,10.4,0.3,21.1,0.1,33
			c-0.1,8.7-0.4,17.5-0.8,26c-0.2,4.4-0.3,8.8-0.4,13.2c-0.1,3.6-0.2,7.3-0.3,11c-0.1,3.6-0.1,7.2-0.2,10.8c0,0.8,0,1.6-0.1,2.5
			c-0.9,0.3-1.8,0.5-2.7,0.7c-1.7,0.5-3.3,0.9-5,1.5l-2.3,0.8c-2.9,1-6,2.1-8.9,3.2c-2.6,1-5.3,2-8,3c-2.7,1-5.4,2-8,3
			c-0.4,0.1-0.8,0.2-1.3,0.3h-0.2c0-0.5,0-0.9,0-1.3c0.2-16,0.4-31.9,0.5-47.9c0.2-16,0.4-31.9,0.6-47.9c0-0.9,0-1.7-0.2-2.6
			c-0.3-1.3-1.2-2.1-2.6-2.2c-0.1,0-0.1,0-0.2,0c-1.3,0-2.4,0.9-2.8,2.2c-0.2,0.8-0.2,1.4-0.2,2.1c-0.2,15.9-0.3,31.8-0.5,47.7
			c-0.2,15.8-0.3,31.6-0.5,47.4c0,0.9,0.1,1.7,0.2,2.6c0,0.5,0.1,1.1,0.1,1.7c-0.4,0.1-0.9,0.2-1.3,0.2c-1.8,0.3-3.6,0.7-5.5,0.7
			c-6.6,0.9-14.5,1.7-22.3,1.7c-0.4,0-0.9,0-1.3,0h-0.1c-2.3-0.1-4.6-0.1-6.8-0.1c-1.6,0-3.3,0-5,0.1c-0.9,0-1.9,0.1-2.8,0.1
			c-6.6,0-13.1-0.9-19.8-1.9c-2.5-0.4-5.1-0.7-7.6-1.1c-10-1.4-20.3-2.9-30.5-4.1c-8.3-1-15.5-2.8-22.2-5.6c-4.8-2-9.6-3.9-14.4-5.7
			l-4-1.6c-3.5-1.4-6.9-3.3-10.2-5.9c-2.3-1.7-4.8-3.2-7-4.3c-3.4-1.7-5.4-4.1-6.7-7.8c-1.5-4.5-2.2-9.1-2.2-14
			c0.3-38,0.4-76.7,0.5-114.2c0.1-6-0.3-12-0.7-17.8c-0.2-3.6-0.5-7.2-0.8-10.7c-0.2-2.6-0.5-5.4-0.6-8.1
			c-0.5-8.7-1.5-17.6-2.5-26.1c-0.3-2.5-0.6-5-0.8-7.5c-0.9-8.4-2-15.2-3.3-21.3c-0.9-4-2-8.1-3.1-12c-1.1-3.9-1-8-0.8-12.2
			c0.2-4.2,0.6-8.4,1-12.4c0.1-0.9,0.3-1.8,0.6-2.8l16.5-60c0.1-0.5,0.3-1,0.4-1.5c0.1-0.2,0.2-0.5,0.2-0.8c1,0.2,1.9,0.5,2.9,0.7
			c2,0.5,3.9,0.9,5.7,1.5c2.7,0.9,5.4,1.4,9.1,1.6C94.1,260.7,95,260.7,95.9,260.7L95.9,260.7z M314.7,348.8c-0.3-0.8-0.7-1.7-1-2.5
			c-0.7-1.8-1.3-3.5-2.2-5.2c-1.6-3.1-1.4-6,0.7-9.8c7.2-13.1,14.2-26.7,21.1-39.8l2.3-4.5c0.7-1.4,1.6-2,3-2c0.1,0,0.2,0,0.3,0
			c5.9,0.2,12,0.3,17.8,0.4c3,0.1,6,0.1,9,0.2c1.5,0.1,3,0.3,4.8,0.5l1,0.1c-0.6,1-1,1.8-1.5,2.5c-1.8,2.9-3.5,5.7-5.3,8.6
			c-2.8,4.6-5.7,9.3-8.6,14c-0.4,0.9-0.8,1.7-1.2,2.6c-0.2,0.6-0.5,1.2-0.8,1.8c-3.4,0.9-6.8,2.7-10,4.6
			c-6.6,3.9-10.3,10.1-11.3,18.9c-0.3,2.1-0.2,4.2-0.2,6.2c0,1.2,0,2.3,0,3.5c0,0.5,0,1-0.1,1.6c-0.6-0.1-1.3-0.3-1.9-0.4
			c-2.3-0.5-4.5-0.9-6.7-1.1c-1.3-0.1-2.7-0.2-4-0.2c-0.9,0-1.7,0-2.6,0C316.5,348.8,315.6,348.8,314.7,348.8L314.7,348.8z"/>
	</g>
</g>
</svg>
