<?xml version="1.0" encoding="utf-8"?>
<!-- Generator: Adobe Illustrator 25.2.3, SVG Export Plug-In . SVG Version: 6.00 Build 0)  -->
<svg version="1.1" id="레이어_1" xmlns="http://www.w3.org/2000/svg" xmlns:xlink="http://www.w3.org/1999/xlink" x="0px"
	 y="0px" viewBox="0 0 1024 640" style="enable-background:new 0 0 1024 640;" xml:space="preserve">
<style type="text/css">
	.st0{stroke:#FFFFFF;stroke-width:6;stroke-miterlimit:10;}
	.st1{fill:#FFFFFF;}
</style>
<g id="레이어_2_1_">
	<g id="레이어_1-2">
		<path class="st0" d="M333.2,480.2c3.5,8.6,6.9,16.1,9.7,23.8c4.2,11.5,8.7,23,11.6,34.9c4.2,17.5,7.2,35.2,10.5,52.8
			c2.6,13.7,4.8,27.5,7.3,42l24.8-7.1c13.6-3.8,27.2-7.5,40.7-11.5c8.2-2.5,16.2-5.6,24.4-8.1c4.4-1.4,9-2.9,13.5-3.3s4.9-2,5.5-5
			c2.5-13.2,5.2-26.4,7.8-39.6c0.3-1.2,0.6-2.9,1.5-3.4c13.2-9.1,26.6-17.9,39.7-27c1.9-1.3,3.2-3.4,3.5-5.7
			c0.5-6.5,0.4-13-0.3-19.4c-1.2-9.7,5.7-14.5,12.3-16.1c11.2-2.6,22.3-5.5,33.6-7.2c18.6-2.8,37.3-4.8,55.9-7.2
			c7.2-0.9,14.4-2.1,22-3.2c2.3,13.8,4.6,27,6.7,40.2c0.7,4.6,1.1,9.3,1.5,13.9s1.9,4.2,5,4c18.1-1.1,36.2-2,54.3-3.2
			c24.3-1.5,48.5-3.2,72.7-4.9c2.4-0.3,4.8-0.7,7.2-1.3l-6.5-13.6c-6.4-13.4-13.2-26.7-19.3-40.3s-12.2-28.3-18-42.6
			c-4.2-10.6-7.8-21.5-11.8-32.2c-5.1-14-11.5-27.5-24.5-35.9c-9.1-6-19-10.7-28.5-16.1c-4.4-2.5-8.6-5.5-13.2-7.7
			c-12.5-6-24.9-12.4-37.9-17.2s-24.8-7.1-37.2-10.7c-5.1-1.4-8,0.2-10.2,5c-5,10.9-10.2,21.8-20.1,29.2c-5.4,4-10.9,8.5-17.1,10.8
			c-16.2,6-32.4,12.3-49.2,15.9c-19.6,4.2-39.4,1.6-58.5-5.1c-13.3-4.6-26.7-9.3-37.7-18.6c-5.6-4.8-10.7-10.2-11.8-18.2
			s-2.5-17.1-3.6-25.7c-0.4-2.9-1.5-3.6-3.8-1.9c-6.9,4.9-13.7,9.8-20.4,15c-8.4,6.5-16.9,12.8-24.6,20
			c-6.1,5.8-13.4,10.4-21.3,13.4c-11.3,4.4-23,7.9-34.1,12.5c-15.2,6.4-26.9,16.8-36.2,30.7c-14.6,22-21.3,45.9-19.5,72.2
			c1.4,19.2-2.2,37.6-7.6,55.9c-6.9,23.4-12.8,47-14.2,71.6c-1,17.9-3.2,35.7-5,53.7h-13c1.9-12,3.8-23.7,5.5-35.5
			c2.6-18.9,5.2-37.8,7.6-56.8c2.4-19.6,6.1-39,11.2-58.1c3.1-11.5,5.7-23.1,7.6-34.9c1.2-6.8,0.4-13.8,1.1-20.7
			c1.9-20.6,9-40.3,20.7-57.3c7.7-11.2,16.4-20.8,28.5-27c5.9-3,12-5.7,18.2-7.9c13.3-4.8,26.1-10.7,37.2-19.6
			c5.3-4.3,9.8-9.7,15-14.1c7.8-6.5,15.6-12.8,23.9-18.6c11.8-8.2,23.9-15.9,36.1-23.6c6.1-3.9,6.1-10.1,6.4-15.9
			c0.9-15.6,0.5-31.3-3.9-46.5c-1-3.3-2.4-6.6-4.1-9.6c-0.5-1.1-2.2-1.9-3.5-2.2c-4.3-1-8.7-1.6-13-2.6
			c-11.2-2.7-16.9-10.7-19.3-21.3c-1.4-7.2-2.4-14.4-2.9-21.7c-0.3-3.8,0.1-7.6,1.2-11.2c2.4-8.7,1.3-16.5-3.7-24.1
			c-1.7-2.6-2.1-6.3-1.9-9.5c0.2-5.2-0.6-9.2-5.7-12s-6.8-10.3-1.7-16.7s8.3-10.1,6-17.3c0-0.2,0-0.4,0.1-0.5
			c5.1-7.3,1-15.3,1.4-22.9c0.8-14.1,6.4-24.1,19.8-28.6c5.6-1.9,12.1-2.4,18.1,0.8c1.6,0.8,4.1-0.1,6.1-0.3s5.8-1.3,8.7-1.3h44.3
			l0.2,1.2c-2.7,0.9-5.4,2.2-8.2,2.5c-12.7,1.4-22.2,8.5-30.6,17.3c-2.9,2.9-5.6,6-9.7,3.1s-2-6.8,0.2-10.1c0.2-0.4,0.2-0.9,0.2-1.4
			c-4.6-1.7-13.2,1.3-16.2,6.4c-1.9,3.2-3.1,6.9-3.5,10.6c-0.7,5.3-1.8,9.5-6.7,13c-9.3,6.7-15.5,15.7-16.3,28.3l13-7.2
			c-1.3-11.1,4.6-19.4,12.7-26.9c1.6-1.4,2.4-3.9,3.1-6s2.7-5.4,6.3-5s4.9,2.8,4.9,6.3s-0.1,4-0.1,7.3c2.3-1.9,4-3.1,5.5-4.6
			c8.8-9,17.7-17.7,30.2-21.3c4-1.1,8.2-1.6,12.1-2.8s9.8-4.3,11.2-10.5h71.4C540.2,6,531,8,525.1,6.8c-5.3-0.9-10.6-1.3-15.9-1.4
			c-7.6-0.2-15.3-0.3-23-0.1c-1,0-2.1,1.4-3.1,2.1c1,0.6,2,1.8,3,1.8c6.4,0.2,12.7-0.3,19,0.3s11.5,2.7,17.2,3s9.3,2.2,14-1.6
			s11-6.5,16.7-9.5c1-0.5,2.6-0.2,3.9-0.2h40c2,0,3.9,0.7,5.8,0.9c3.5,0.4,6,2.7,10.4-0.4c7.3-5.1,19.4,2.2,19.9,11.2
			c0.6,10.8,1.7,21.9-0.3,32.4c-1.1,5.7-1.3,11.4-2.2,17c-3.8,24.1-7.9,48.2-11.2,72.4c-1.4,10.9-1.1,22-1.9,32.9
			c-1.1,15.9-5.3,31.5-12.2,45.9c-6.3,13.2-12.9,26.1-19.5,39.1c-2.2,4.4-4.8,8.6-7.4,12.8s-2.7,7.2,2.8,8.9
			c9.9,3.1,16.7,10.7,25.1,16c6,3.7,12.1,7.2,19.7,6.9c2.8-0.2,5.7,1.6,8.5,2.5l50.3,15.9c18.5,5.9,36,13.6,50.8,26.5
			s26.1,28.6,32.6,47.4c10.5,30.4,20.6,60.9,31.4,91.2c4.1,11.6,9.6,22.8,14.7,34c1.5,3.4,4.1,4.7,8.5,4.1
			c10.5-1.3,21.2-1.5,31.8-2.2c17.4-1.2,34.8-2.4,52.2-3.4c12.2-0.6,24.3-0.7,36.4-1.4c17.8-1,35.4-2.6,53.1-3.6
			c8.7-0.5,17.3-0.1,26.4-0.1v9.2l-9.6,0.7l-92.7,4.8c-15,0.8-30.3,0.2-45.1,2.5c-25.6,3.9-51.4,1.9-77.1,4.6
			c-17.5,1.8-35.2,1.9-52.8,3.2c-15,1.2-30,3-45,4.6c-9.3,1-18.7,2.1-28.1,3.4c-1.9,0.4-3.5,1.5-4.7,3c-0.9,1-1.2,3.5-0.5,4.4
			s3,1.5,4.4,1.2c25.8-5.3,52-6,78.2-7.8c14.3-1,28.6-3.6,42.9-4.7c16.3-1.2,32.6-1.5,48.9-2.2l101.6-4.9l73.8-3.2
			c1.8,0,3.6-0.2,6-0.4v9.2c-4.8,0.5-9.4,1.2-14,1.4c-12.6,0.4-25.3,0.5-37.9,1.1c-14.4,0.6-28.8,1.6-43.3,2.4l-8.4,0.4l-64.1,4.1
			l-82.7,4.9c-22.4,1.3-44.8,2.7-67.2,4.3c-13,1-26.1,2.4-39.1,3.8c-4.6,0.5-5.4,4.5-6,8c-2.4,12.9-4.6,25.8-6.8,38.7
			c-1.5,9-2.8,18.1-4.4,27s-1.5,7.5-9.1,6.8c0.8-2.5,1.7-4.9,2.3-7.3s1.1-5.2-2.3-6.2s-6.1-0.2-7.2,3.4s-1.6,6.4-2.4,10.1h-8.3
			c1.2-8.5,1.2-8.4-7.4-7.6c-4,0.4-8.2,0-9.9,5.3c-0.5,1.3-3.6,2.6-5.4,2.6h-87.5c-5.2,0-7.5-2.5-8.7-9.4l12.7,1.1
			c17.5,1.6,35.1,3.9,52.6,4.5c8.3,0.3,16.7-2.2,24.9-3.9c3.9-0.8,4.9-3.8,4.3-7.7c-1.7-10.3-4.7-12.7-15.7-11.6
			c-16.9,1.8-34,1.1-50.7-2.1c-2.3-0.5-4.5-1.4-6.8-1.7c-2.5-0.5-5.2-0.6-7.7-0.1c-5.1,1.2-6.6,0.4-5.4-4.7
			c2.4-10.9,5.3-21.7,14.3-29.4c0.7-0.6,1.2-1.4,2-1.6c7.4-1.6,6.3-7.3,6-12.5s-1.2-13.1-1.9-20.1c-2,0.3-3.4,0-4.2,0.6
			c-6.4,4.9-12.8,9.8-19,15c-3.1,2.4-6,5.1-8.5,8.1c-8.3,11-11.6,24-14.8,37.1c-1.2,5-2.4,8.8-8.3,10.8s-10.7,11.9-9.4,20.8
			c0.3,2.1,0.5,4.2,0.8,6.6h-13.8c0.6-6.1,1.1-11.9,1.7-18.6c-6,1.5-11.3,2.8-16.6,4.3c-11.7,3.4-23.5,6.1-34.8,10.5
			c-20.7,8.2-42,1.4-62.9,4.5v-1.2c3.9-0.4,8-0.5,11.8-1.3c1.3-0.3,3.1-2.6,3-3.8c-1.7-19.4-3-38.9-5.8-58.1
			c-2-13.6-6.2-26.8-9.4-40.2c-1.7-7.1-3.5-14.2-5-21.3c-4.1-18.4-16.1-30.4-31.7-39.4c-1.2-0.5-2.6-1-3.9-1.2
			c-1.2-0.3-2.3-0.8-3.5-1.2c1.9-6.5,5.1-7,11.2-4.7 M418.9,108.3c-0.6,7.4-0.9,14-1.6,20.6s-3.5,8.4-9.6,8.3s-8-5.3-11.7-8.1
			c-2.2-1.7-5.4-4.2-7.2-3.6s-6,3.8-6.6,6.4c-1.4,6.2-1.6,12.8-2.1,19.2c-0.3,2.6-0.2,5.3,0.3,7.9c2.8,10.5,19.3,24.6,29.8,23.2
			c1.2-0.2,3.1-0.1,3.6,0.7c2.9,4.7,6,9.4,8.2,14.4c5.8,13,9.7,27.1,17.1,39s16.8,19.5,26.1,28.4c7.9,7.4,16.8,13.5,26.6,18
			c14.8,7.1,29.3,5.6,43.3-0.7c9.6-4.2,18.6-9.7,26.7-16.3c10.4-8.7,21.3-17.6,25.4-31.7c2-6.8,5.3-13.2,7.1-20.1
			c3.8-14.9,7.6-29.8,10.4-45c2.4-13.5,3.3-27.3,5-41c1.4-11.2,3.2-22.3,4.5-33.5s1.3-22.6,3-33.8c0.7-5.2-0.3-8.5-4.3-11.5
			s-5.9-8-5.8-13.2s-1.8-6-5.6-6.9c-12.5-2.7-25.2-3.7-37.4,0.6c-24.7,8.8-49.7,13.2-76,10.8c-8.9-0.9-18,0-26.9,1
			s-11.8,5.3-12.6,13.9c-0.3,3.4-0.9,7.7-3,9.7c-7.8,7.2-16.1,13.7-24.5,20.1c-2.6,1.9-4.6,3.4-4,7.1
			C418,97.7,418.3,103.4,418.9,108.3z M600.6,602.9l1.1,1.8c-5.8,3.3-1.9,6.4-1.1,9.8s2.9,4.1,6.2,3.2c5.9-1.7,11.8-3.1,17.7-4.7
			s10.7-2.5,15.8-4.5c2.2-1,3.8-2.9,4.4-5.2c3.5-19,6.8-37.9,10.1-56.9c0.8-4.9,2.5-10,2-14.8c-1.9-15.3-4.6-30.5-7-45.7
			c-0.5-3.2-2-4.6-5.5-3.9c-12.2,2.5-24.5,4.7-36.6,7.3s-24.9,5.9-37.3,8.9c-4.9,1.3-11.3,1.2-14.3,4.3s-0.2,8.7-0.1,13.4
			c0.1,0.8,0.1,1.6,0.2,2.5c1.6,16.6,3.3,33.3,4.9,50c0.9,9.9,1.4,19.9,2.5,29.8c0.7,5.7,2.4,6.4,8.2,5.3c4.2-0.7,8.5-1.7,12.8-1.8
			S595.2,602.5,600.6,602.9z M432.4,243.8l-1.5,0.5c0.2,3,0.2,6.1,0.6,9.1c0.9,7.3-1.3,12.9-7.7,16.9c-5.2,3.2-10.1,6.8-14.6,11
			c-2.4,2.5-3.7,5.8-3.7,9.2c0.1,4.3,1.8,8.7,3.4,12.9s5.1,10.4,6.4,16s3.9,9.2,8.4,11.6c7.7,4.3,15.5,8.3,23.5,11.9
			c6,2.7,12.1,6.1,18.5,6.8c9.8,1.1,19.9,0.3,29.8,0.1c21.7-0.3,42.5-4.8,61.8-15c16.3-8.7,24.8-23,28.7-40.6
			c0.8-3.7-0.3-6.9-4.1-8.7c-5.4-2.5-11-3.7-16.9-1.8c-9.2,3-18.3,6.5-27.6,9.3c-12.1,3.5-24.3,5.1-36.9,2.3
			c-16.3-3.5-31.3-11.6-43.1-23.3c-8-7.8-16.6-15.2-22.3-25.1C434.5,245.7,433.3,244.9,432.4,243.8z M532.4,26.9
			c0-0.8,0-1.7-0.1-2.5c-6.3-1.1-12.5-2.7-18.9-3.2c-16.4-1.3-32.9-4.3-49,1.9c-1.1,0.5-2.2,0.7-3.4,0.8
			c-13.9,1.1-23.2,9.9-32.1,19.3c-0.9,1.1-1.5,2.5-1.7,3.9c-0.9,4-1.5,8.1-2.4,12.1s-2.5,9.5-3.8,14.4c6.9,0.1,8.4-2,9.1-11.4
			c4.6,0.1,6.6-1.9,7.1-6.8c1.4-15.9,7.9-23,23.6-25.4c7.5-1.1,15.2-1.1,22.8-1.1c12.5-0.1,25,0.3,37.5,0.1
			C524.9,28.9,528.7,27.6,532.4,26.9z M542.8,579.7h0.2c0,1.8-0.2,3.6-0.2,5.5c0.1,5.2,0.4,10.5,0.6,15.7s3.3,4.4,6.3,4.3
			s3.4-3.1,3.3-5.5c-0.6-15.1-0.9-30.2-1.9-45.3s-2.6-32.8-4.2-49.1c-0.1-1.6-1.5-3.1-2.3-4.7c-0.6,1.5-1.7,3.1-1.7,4.6
			C542.7,530,542.8,554.9,542.8,579.7L542.8,579.7z M396.7,100.6c0,2.9-0.6,5.6,0.2,7.8s2.9,5,4.5,7.5c1.4-1,3.3-1.6,4.3-2.9
			c4-5.4,3.5-10.6-0.7-16.9c-1.3-2-1.9-4.4-1.8-6.8c0.7-3.6,2.5-7,3.7-10.6c2.1-6.6,4.2-13.3,6.1-20c0.4-1,0.3-2.2-0.1-3.2
			c-1.4-2.6-2.9-5.1-4.6-7.5c-6.8,2.5-10.8,10.4-8.2,17.1s3.4,12.1,1,18.7c-2.9,8.1-5.8,10-13.4,6.2c-4.2-2-10.6,2.1-10.6,6.9
			s2.6,6.8,7,6.2S391.5,101.7,396.7,100.6z M619.6,40.3l2.1-0.4c1.8-5.8,0.3-11.8-0.3-17.6c-0.1-0.8-1.8-1.5-2.8-1.9
			c-7.2-2.8-14.3-6.5-21.8-8s-16.2-0.8-24.3-1.6s-16,1.6-22.9,6.5c-1.2,0.9-1.9,2.6-2.9,3.9c1.5,0.1,3.2,0.7,4.5,0.2
			c15.9-5.5,32-6.4,48.6-4.6c10.3,1.2,18.4,5.2,18.3,18.3C618.1,36.8,619.1,38.5,619.6,40.3z M380.6,36.8c1.8-2.1,4.2-3.6,4.8-5.6
			c1.5-5.1,2.1-10.5,3.1-15.7C381.5,16.3,376.9,27.6,380.6,36.8L380.6,36.8z M388.9,82.7c1.1-1.7,2.3-2.7,2.4-3.8s-1.1-1.8-1.7-2.7
			c-1.2,0.9-2.3,1.9-3.3,3.1C386.1,79.6,387.6,81,388.9,82.7L388.9,82.7z"/>
		<g>
			<path d="M388.9,82.7c-1.3-1.7-2.8-3.1-2.6-3.4c1-1.2,2.1-2.2,3.3-3.1c0.6,0.9,1.9,1.9,1.7,2.7S390,81,388.9,82.7z"/>
			<path class="st1" d="M389.6,76.2c-1.2,0.9-2.3,1.9-3.3,3.1c-0.2,0.3,1.3,1.7,2.6,3.4c1.1-1.7,2.2-3,2.4-3.8
				C391.5,78.1,390.2,77.1,389.6,76.2L389.6,76.2z"/>
		</g>
		<path class="st0" d="M537.1,204.5c0-10.2,0.8-20.6-0.3-30.7s-4.3-22.4-6.4-33.6c-0.6-2.9-0.8-5.9-0.4-8.9c0.3-1.6,2.4-3.4,4-3.9
			s3.6,1.6,3.9,2.8c3.2,12.2,6,24.5,9,36.8c1.9,7.5,4,15,5.9,22.5c1,3.3,1.7,6.7,2.1,10.2c0.4,8.6-3.8,13.7-12.6,15
			c-1.7,0-3.2-0.7-4.2-2.1"/>
		<g>
			<path d="M524.4,243.1c-3.9,0-7.6-0.5-11.2-1.4c-6.8-1.8-11.2-4.5-14.5-9.2c0.2,0,0.3,0,0.5-0.1c2-0.3,3.9-0.5,5.8-0.7l0.2,0
				c0.9,0,1.9,0.2,2.7,0.6c8,3.9,16.3,4.6,24,4.8c3.5,0,7,0.4,10.8,0.8c0.3,0,0.6,0.1,0.9,0.1c-0.9,2.3-2.6,2.7-3.2,2.8
				C534.6,242.4,529.4,243.1,524.4,243.1z"/>
			<path class="st1" d="M505.2,234.8c0.5,0,1,0.1,1.4,0.3c6.9,3.4,14.1,4.5,20.7,4.9c-1,0.1-1.9,0.1-2.9,0.1
				c-3.6,0-7.1-0.4-10.4-1.3c-3.7-1-6.6-2.2-8.9-4C505.1,234.8,505.2,234.8,505.2,234.8L505.2,234.8 M505.2,228.8
				c-0.1,0-0.2,0-0.3,0c-3.6,0.3-7.2,0.9-11.1,1.3c3.9,7.6,9.2,12,18.7,14.5c4,1,7.9,1.5,11.9,1.5c5.6,0,11.2-0.9,16.7-2.3
				c3.5-0.8,5.8-3.6,6.1-8.4c-5.4-0.5-10.3-1.2-15.2-1.2c-7.9-0.2-15.6-1-22.8-4.5C508,229.1,506.6,228.8,505.2,228.8L505.2,228.8z"
				/>
		</g>
		<g>
			<path d="M486.9,130.3c-0.4,0-1.2-0.4-2-1.2c-1.3-1.4-2.1-3.3-2-5c0.2-3.3,1-6.6,2.3-9.7l0-0.1c0.2-0.3,1-0.9,1.5-1.1
				c1.7,0.7,3.2,1.8,4.3,3.3c0.6,1.1,0.7,2.7,0.9,4.1c0.1,0.5,0.1,1,0.2,1.5C492,126.2,488.6,130.1,486.9,130.3L486.9,130.3z"/>
			<path class="st1" d="M487.4,117c0.4,0.3,0.7,0.7,1,1c0.3,0.7,0.4,2,0.5,2.8c0,0.5,0.1,0.9,0.1,1.3c-0.1,1.9-1.3,3.7-2.2,4.7
				c-0.5-0.6-1-1.7-1-2.6C486,121.8,486.6,119.3,487.4,117 M486.8,110.1c-1.3,0-3.8,1.7-4.3,3.1c-1.5,3.4-2.4,7.1-2.6,10.8
				c-0.2,4.6,3.6,9.3,7,9.3c0.1,0,0.3,0,0.4,0c3.5-0.4,7.8-6,7.8-11.5c-0.3-1.5-0.2-4.6-1.5-6.9c-1.6-2.2-3.8-3.9-6.4-4.7
				C487.1,110.2,487,110.1,486.8,110.1L486.8,110.1z"/>
		</g>
		<g>
			<path d="M570.1,126.4c-0.1,0-0.2,0-0.3,0c-2-1.5-3.1-3.8-3.2-6.3c0.4-2.7,2.6-5.6,4.6-8.3l0.2-0.3c0.3-0.2,1.1-0.5,1.8-0.5
				c0.5,0.6,1.3,2.4,1.7,3.2c0,0,0.4,0.8,0.4,0.8c-0.1,0.4-0.3,0.9-0.3,1.6v2.5l0,0c-0.3,1.6-0.5,3.1-1.1,4.3
				C573.3,124.7,571.3,126.4,570.1,126.4z"/>
			<path class="st1" d="M572.1,115.7c0,0.3-0.1,0.6-0.1,1v2.4c-0.2,1.2-0.4,2.3-0.8,3c-0.1,0.2-0.4,0.5-0.7,0.8
				c-0.5-0.8-0.9-1.6-1-2.6C569.9,119,570.9,117.3,572.1,115.7 M573.2,108.1c-1.5,0-3.3,0.7-4.1,1.5c-2.3,3.1-5.1,6.7-5.5,10.4
				c0.1,3.5,1.8,6.8,4.6,8.9c0.6,0.4,1.3,0.5,1.9,0.5c2.7,0,5.5-2.7,6.5-4.6c1.2-2.4,1.3-5.3,1.9-8l-0.5-0.1c0-1,0.8-1.1-0.1-3
				s-2-4.5-3.3-5.3C574.2,108.2,573.7,108.1,573.2,108.1L573.2,108.1z"/>
		</g>
		<g>
			<path d="M403.3,165.7c-2.5-3.5-4.9-6.9-7.3-10.3c-0.2-0.3-0.3-0.5-0.3-0.6c0.1-0.1,0.4-0.3,1-0.5c0.5-0.2,1.1-0.3,1.7-0.3
				c3.7,0,7.5,3.2,7.7,6.6c0.2,3.2,0,5.7-0.8,7.9C404.6,167.6,404,166.7,403.3,165.7z"/>
			<path class="st1" d="M401.7,158.4c0.6,0.5,1.1,1.2,1.3,1.8C402.6,159.6,402.1,159,401.7,158.4 M398.4,151c-0.9,0-1.8,0.1-2.7,0.4
				c-3,1-4,3.1-2.2,5.7c3.9,5.7,8,11.2,12.1,17c2.8-3.7,3.9-7.6,3.5-13.7C408.8,155.2,403.5,151,398.4,151L398.4,151z"/>
		</g>
		<g>
			<path d="M568.7,96.1c2.7-1.2,5.6-1.9,8.6-2.2c1.3,0.1,2.5,0.7,3.5,1.5c0,0.1,0.1,0.3,0.1,0.5c0,0,0,0-0.1,0c0,0-0.1,0-0.1,0
				c-1.9-0.4-3.8-0.6-5.6-0.6C573,95.3,570.9,95.6,568.7,96.1z"/>
			<path class="st1" d="M577.3,90.9c-3.6,0.3-7.2,1.3-10.5,2.8c-3.1,1.5-6.4,3.7-5.6,8.6c4.6-2.4,9.1-4,13.9-4
				c1.6,0,3.2,0.2,4.9,0.6c0.3,0.1,0.5,0.1,0.8,0.1c1,0,2.2-0.3,3.3-0.5c-0.3-1.7,0-4-1-5C581.6,91.9,579.5,91,577.3,90.9
				L577.3,90.9z"/>
		</g>
		<g>
			<path d="M476,106.1c-1.6-6.8,3.2-12.4,10.2-12.9c3.5-0.2,7,0.2,10.3,1.2c1.7,0.6,2.8,3.2,3.9,5.7
				C491.3,98.8,482.5,95.8,476,106.1z"/>
			<path class="st1" d="M487.9,93.2c-0.6,0-1.2,0-1.7,0c-7,0.5-11.8,6.1-10.2,12.9c3.7-5.9,8.2-7.4,13-7.4c3.6,0,7.5,0.9,11.4,1.4
				c-1.1-2.5-2.2-5.1-3.9-5.7C493.7,93.6,490.8,93.2,487.9,93.2L487.9,93.2z"/>
		</g>
	</g>
</g>
</svg>
