<svg xmlns="http://www.w3.org/2000/svg" viewBox="0 0 1024 640"><defs><style>.cls-1{fill:#fff;}</style></defs><g id="레이어_2" data-name="레이어 2"><g id="레이어_1-2" data-name="레이어 1"><path class="cls-1" d="M1024,640H0V.1H1024ZM308.4,467.1c-6.1-2.2-9.3-1.8-11.2,4.7,1.2.4,2.3.9,3.5,1.2a17.6,17.6,0,0,1,3.9,1.2c15.6,9,27.6,21,31.7,39.4,1.5,7.1,3.3,14.2,5,21.3,3.2,13.4,7.4,26.6,9.4,40.2,2.8,19.2,4.1,38.7,5.8,58.1.1,1.2-1.7,3.5-3,3.8-3.8.8-7.9.9-11.8,1.3v1.2c20.9-3.1,42.2,3.7,62.9-4.5,11.3-4.4,23.1-7.1,34.8-10.5,5.3-1.5,10.6-2.8,16.6-4.3-.6,6.7-1.1,12.5-1.7,18.6h13.8c-.3-2.4-.5-4.5-.8-6.6-1.3-8.9,2.2-18.3,9.4-20.8s7.1-5.8,8.3-10.8c3.2-13.1,6.5-26.1,14.8-37.1a50.1,50.1,0,0,1,8.5-8.1c6.2-5.2,12.6-10.1,19-15,.8-.6,2.2-.3,4.2-.6.7,7,1.4,13.5,1.9,20.1s1.4,10.9-6,12.5c-.8.2-1.3,1-2,1.6-9,7.7-11.9,18.5-14.3,29.4-1.2,5.1.3,5.9,5.4,4.7a20,20,0,0,1,7.7.1c2.3.3,4.5,1.2,6.8,1.7a172.5,172.5,0,0,0,50.7,2.1c11-1.1,14,1.3,15.7,11.6.6,3.9-.4,6.9-4.3,7.7-8.2,1.7-16.6,4.2-24.9,3.9-17.5-.6-35.1-2.9-52.6-4.5L503,629.6c1.2,6.9,3.5,9.4,8.7,9.4h87.5c1.8,0,4.9-1.3,5.4-2.6,1.7-5.3,5.9-4.9,9.9-5.3,8.6-.8,8.6-.9,7.4,7.6h8.3c.8-3.7,1.4-7,2.4-10.1s3.9-4.3,7.2-3.4,2.8,3.7,2.3,6.2-1.5,4.8-2.3,7.3c7.6.7,7.8.7,9.1-6.8s2.9-18,4.4-27c2.2-12.9,4.4-25.8,6.8-38.7.6-3.5,1.4-7.5,6-8,13-1.4,26.1-2.8,39.1-3.8q33.6-2.4,67.2-4.3l82.7-4.9,64.1-4.1,8.4-.4c14.5-.8,28.9-1.8,43.3-2.4,12.6-.6,25.3-.7,37.9-1.1,4.6-.2,9.2-.9,14-1.4v-9.2c-2.4.2-4.2.4-6,.4L943,530.1,841.4,535c-16.3.7-32.6,1-48.9,2.2-14.3,1.1-28.6,3.7-42.9,4.7-26.2,1.8-52.4,2.5-78.2,7.8-1.4.3-3.7-.2-4.4-1.2s-.4-3.4.5-4.4a8.5,8.5,0,0,1,4.7-3c9.4-1.3,18.8-2.4,28.1-3.4,15-1.6,30-3.4,45-4.6,17.6-1.3,35.3-1.4,52.8-3.2,25.7-2.7,51.5-.7,77.1-4.6,14.8-2.3,30.1-1.7,45.1-2.5L1013,518l9.6-.7v-9.2c-9.1,0-17.7-.4-26.4.1-17.7,1-35.3,2.6-53.1,3.6-12.1.7-24.2.8-36.4,1.4-17.4,1-34.8,2.2-52.2,3.4-10.6.7-21.3.9-31.8,2.2-4.4.6-7-.7-8.5-4.1-5.1-11.2-10.6-22.4-14.7-34-10.8-30.3-20.9-60.8-31.4-91.2-6.5-18.8-17.8-34.4-32.6-47.4s-32.3-20.6-50.8-26.5l-50.3-15.9c-2.8-.9-5.7-2.7-8.5-2.5-7.6.3-13.7-3.2-19.7-6.9-8.4-5.3-15.2-12.9-25.1-16-5.5-1.7-5.9-3.9-2.8-8.9s5.2-8.4,7.4-12.8c6.6-13,13.2-25.9,19.5-39.1a126.6,126.6,0,0,0,12.2-45.9c.8-10.9.5-22,1.9-32.9,3.3-24.2,7.4-48.3,11.2-72.4.9-5.6,1.1-11.3,2.2-17,2-10.5.9-21.6.3-32.4-.5-9-12.6-16.3-19.9-11.2-4.4,3.1-6.9.8-10.4.4-1.9-.2-3.8-.9-5.8-.9h-40c-1.3,0-2.9-.3-3.9.2-5.7,3-11.8,5.5-16.7,9.5s-9.4,1.9-14,1.6-11.4-2.5-17.2-3-12.6-.1-19-.3c-1,0-2-1.2-3-1.8,1-.7,2.1-2.1,3.1-2.1,7.7-.2,15.4-.1,23,.1a105.6,105.6,0,0,1,15.9,1.4C531,8,540.2,6,544.5,1.4H473.1c-1.4,6.2-5.9,8.9-11.2,10.5s-8.1,1.7-12.1,2.8C437.3,18.3,428.4,27,419.6,36c-1.5,1.5-3.2,2.7-5.5,4.6,0-3.3,0-5.3.1-7.3s-1.2-6-4.9-6.3-5.4,1.6-6.3,5-1.5,4.6-3.1,6c-8.1,7.5-14,15.8-12.7,26.9l-13,7.2c.8-12.6,7-21.6,16.3-28.3,4.9-3.5,6-7.7,6.7-13a26.1,26.1,0,0,1,3.5-10.6c3-5.1,11.6-8.1,16.2-6.4a3.4,3.4,0,0,1-.2,1.4c-2.2,3.3-4.4,7-.2,10.1s6.8-.2,9.7-3.1c8.4-8.8,17.9-15.9,30.6-17.3,2.8-.3,5.5-1.6,8.2-2.5l-.2-1.2H420.5c-2.9,0-5.8.9-8.7,1.3s-4.5,1.1-6.1.3c-6-3.2-12.5-2.7-18.1-.8-13.4,4.5-19,14.5-19.8,28.6-.4,7.6,3.7,15.6-1.4,22.9a.7.7,0,0,0-.1.5c2.3,7.2-1.9,12.1-6,17.3S355.8,84.5,362,88s5.9,6.8,5.7,12c-.2,3.2.2,6.9,1.9,9.5,5,7.6,6.1,15.4,3.7,24.1a30.4,30.4,0,0,0-1.2,11.2,174.1,174.1,0,0,0,2.9,21.7c2.4,10.6,8.1,18.6,19.3,21.3,4.3,1,8.7,1.6,13,2.6,1.3.3,3,1.1,3.5,2.2a50.4,50.4,0,0,1,4.1,9.6c4.4,15.2,4.8,30.9,3.9,46.5-.3,5.8-.3,12-6.4,15.9-12.2,7.7-24.3,15.4-36.1,23.6-8.3,5.8-16.1,12.1-23.9,18.6-5.2,4.4-9.7,9.8-15,14.1-11.1,8.9-23.9,14.8-37.2,19.6a153.9,153.9,0,0,0-18.2,7.9c-12.1,6.2-20.8,15.8-28.5,27a121.2,121.2,0,0,0-20.7,57.3c-.7,6.9.1,13.9-1.1,20.7a350.2,350.2,0,0,1-7.6,34.9,422.6,422.6,0,0,0-11.2,58.1c-2.4,19-5,37.9-7.6,56.8-1.7,11.8-3.6,23.5-5.5,35.5h13c1.8-18,4-35.8,5-53.7,1.4-24.6,7.3-48.2,14.2-71.6,5.4-18.3,9-36.7,7.6-55.9-1.8-26.3,4.9-50.2,19.5-72.2,9.3-13.9,21-24.3,36.2-30.7,11.1-4.6,22.8-8.1,34.1-12.5a63.5,63.5,0,0,0,21.3-13.4c7.7-7.2,16.2-13.5,24.6-20,6.7-5.2,13.5-10.1,20.4-15,2.3-1.7,3.4-1,3.8,1.9,1.1,8.6,2.5,17.2,3.6,25.7s6.2,13.4,11.8,18.2c11,9.3,24.4,14,37.7,18.6,19.1,6.7,38.9,9.3,58.5,5.1,16.8-3.6,33-9.9,49.2-15.9,6.2-2.3,11.7-6.8,17.1-10.8,9.9-7.4,15.1-18.3,20.1-29.2,2.2-4.8,5.1-6.4,10.2-5,12.4,3.6,25.1,6.2,37.2,10.7s25.4,11.2,37.9,17.2c4.6,2.2,8.8,5.2,13.2,7.7,9.5,5.4,19.4,10.1,28.5,16.1,13,8.4,19.4,21.9,24.5,35.9,4,10.7,7.6,21.6,11.8,32.2,5.8,14.3,11.7,28.5,18,42.6s12.9,26.9,19.3,40.3l6.5,13.6a53.3,53.3,0,0,1-7.2,1.3c-24.2,1.7-48.4,3.4-72.7,4.9-18.1,1.2-36.2,2.1-54.3,3.2-3.1.2-4.7-.8-5-4s-.8-9.3-1.5-13.9c-2.1-13.2-4.4-26.4-6.7-40.2-7.6,1.1-14.8,2.3-22,3.2-18.6,2.4-37.3,4.4-55.9,7.2-11.3,1.7-22.4,4.6-33.6,7.2-6.6,1.6-13.5,6.4-12.3,16.1a104.8,104.8,0,0,1,.3,19.4,8.5,8.5,0,0,1-3.5,5.7c-13.1,9.1-26.5,17.9-39.7,27-.9.5-1.2,2.2-1.5,3.4-2.6,13.2-5.3,26.4-7.8,39.6-.6,3-1.8,4.7-5.5,5s-9.1,1.9-13.5,3.3c-8.2,2.5-16.2,5.6-24.4,8.1-13.5,4-27.1,7.7-40.7,11.5l-24.8,7.1c-2.5-14.5-4.7-28.3-7.3-42-3.3-17.6-6.3-35.3-10.5-52.8-2.9-11.9-7.4-23.4-11.6-34.9-2.8-7.7-6.2-15.2-9.7-23.8"/><path d="M333.2,480.2c3.5,8.6,6.9,16.1,9.7,23.8,4.2,11.5,8.7,23,11.6,34.9,4.2,17.5,7.2,35.2,10.5,52.8,2.6,13.7,4.8,27.5,7.3,42l24.8-7.1c13.6-3.8,27.2-7.5,40.7-11.5,8.2-2.5,16.2-5.6,24.4-8.1,4.4-1.4,9-2.9,13.5-3.3s4.9-2,5.5-5c2.5-13.2,5.2-26.4,7.8-39.6.3-1.2.6-2.9,1.5-3.4,13.2-9.1,26.6-17.9,39.7-27a8.5,8.5,0,0,0,3.5-5.7,104.8,104.8,0,0,0-.3-19.4c-1.2-9.7,5.7-14.5,12.3-16.1,11.2-2.6,22.3-5.5,33.6-7.2,18.6-2.8,37.3-4.8,55.9-7.2,7.2-.9,14.4-2.1,22-3.2,2.3,13.8,4.6,27,6.7,40.2.7,4.6,1.1,9.3,1.5,13.9s1.9,4.2,5,4c18.1-1.1,36.2-2,54.3-3.2,24.3-1.5,48.5-3.2,72.7-4.9a53.3,53.3,0,0,0,7.2-1.3L798.1,505c-6.4-13.4-13.2-26.7-19.3-40.3s-12.2-28.3-18-42.6c-4.2-10.6-7.8-21.5-11.8-32.2-5.1-14-11.5-27.5-24.5-35.9-9.1-6-19-10.7-28.5-16.1-4.4-2.5-8.6-5.5-13.2-7.7-12.5-6-24.9-12.4-37.9-17.2s-24.8-7.1-37.2-10.7c-5.1-1.4-8,.2-10.2,5-5,10.9-10.2,21.8-20.1,29.2-5.4,4-10.9,8.5-17.1,10.8-16.2,6-32.4,12.3-49.2,15.9-19.6,4.2-39.4,1.6-58.5-5.1-13.3-4.6-26.7-9.3-37.7-18.6-5.6-4.8-10.7-10.2-11.8-18.2s-2.5-17.1-3.6-25.7c-.4-2.9-1.5-3.6-3.8-1.9-6.9,4.9-13.7,9.8-20.4,15-8.4,6.5-16.9,12.8-24.6,20a63.5,63.5,0,0,1-21.3,13.4c-11.3,4.4-23,7.9-34.1,12.5-15.2,6.4-26.9,16.8-36.2,30.7-14.6,22-21.3,45.9-19.5,72.2,1.4,19.2-2.2,37.6-7.6,55.9-6.9,23.4-12.8,47-14.2,71.6-1,17.9-3.2,35.7-5,53.7h-13c1.9-12,3.8-23.7,5.5-35.5,2.6-18.9,5.2-37.8,7.6-56.8a422.6,422.6,0,0,1,11.2-58.1,350.2,350.2,0,0,0,7.6-34.9c1.2-6.8.4-13.8,1.1-20.7a121.2,121.2,0,0,1,20.7-57.3c7.7-11.2,16.4-20.8,28.5-27a153.9,153.9,0,0,1,18.2-7.9c13.3-4.8,26.1-10.7,37.2-19.6,5.3-4.3,9.8-9.7,15-14.1,7.8-6.5,15.6-12.8,23.9-18.6,11.8-8.2,23.9-15.9,36.1-23.6,6.1-3.9,6.1-10.1,6.4-15.9.9-15.6.5-31.3-3.9-46.5a50.4,50.4,0,0,0-4.1-9.6c-.5-1.1-2.2-1.9-3.5-2.2-4.3-1-8.7-1.6-13-2.6-11.2-2.7-16.9-10.7-19.3-21.3a174.1,174.1,0,0,1-2.9-21.7,30.4,30.4,0,0,1,1.2-11.2c2.4-8.7,1.3-16.5-3.7-24.1-1.7-2.6-2.1-6.3-1.9-9.5.2-5.2-.6-9.2-5.7-12s-6.8-10.3-1.7-16.7,8.3-10.1,6-17.3a.7.7,0,0,1,.1-.5c5.1-7.3,1-15.3,1.4-22.9.8-14.1,6.4-24.1,19.8-28.6,5.6-1.9,12.1-2.4,18.1.8,1.6.8,4.1-.1,6.1-.3s5.8-1.3,8.7-1.3h44.3l.2,1.2c-2.7.9-5.4,2.2-8.2,2.5-12.7,1.4-22.2,8.5-30.6,17.3-2.9,2.9-5.6,6-9.7,3.1s-2-6.8.2-10.1a3.4,3.4,0,0,0,.2-1.4c-4.6-1.7-13.2,1.3-16.2,6.4a26.1,26.1,0,0,0-3.5,10.6c-.7,5.3-1.8,9.5-6.7,13-9.3,6.7-15.5,15.7-16.3,28.3l13-7.2c-1.3-11.1,4.6-19.4,12.7-26.9,1.6-1.4,2.4-3.9,3.1-6s2.7-5.4,6.3-5,4.9,2.8,4.9,6.3-.1,4-.1,7.3c2.3-1.9,4-3.1,5.5-4.6,8.8-9,17.7-17.7,30.2-21.3,4-1.1,8.2-1.6,12.1-2.8s9.8-4.3,11.2-10.5h71.4C540.2,6,531,8,525.1,6.8a105.6,105.6,0,0,0-15.9-1.4c-7.6-.2-15.3-.3-23-.1-1,0-2.1,1.4-3.1,2.1,1,.6,2,1.8,3,1.8,6.4.2,12.7-.3,19,.3s11.5,2.7,17.2,3,9.3,2.2,14-1.6,11-6.5,16.7-9.5c1-.5,2.6-.2,3.9-.2h40c2,0,3.9.7,5.8.9,3.5.4,6,2.7,10.4-.4,7.3-5.1,19.4,2.2,19.9,11.2.6,10.8,1.7,21.9-.3,32.4-1.1,5.7-1.3,11.4-2.2,17-3.8,24.1-7.9,48.2-11.2,72.4-1.4,10.9-1.1,22-1.9,32.9a126.6,126.6,0,0,1-12.2,45.9c-6.3,13.2-12.9,26.1-19.5,39.1-2.2,4.4-4.8,8.6-7.4,12.8s-2.7,7.2,2.8,8.9c9.9,3.1,16.7,10.7,25.1,16,6,3.7,12.1,7.2,19.7,6.9,2.8-.2,5.7,1.6,8.5,2.5l50.3,15.9c18.5,5.9,36,13.6,50.8,26.5s26.1,28.6,32.6,47.4c10.5,30.4,20.6,60.9,31.4,91.2,4.1,11.6,9.6,22.8,14.7,34,1.5,3.4,4.1,4.7,8.5,4.1,10.5-1.3,21.2-1.5,31.8-2.2,17.4-1.2,34.8-2.4,52.2-3.4,12.2-.6,24.3-.7,36.4-1.4,17.8-1,35.4-2.6,53.1-3.6,8.7-.5,17.3-.1,26.4-.1v9.2l-9.6.7-92.7,4.8c-15,.8-30.3.2-45.1,2.5-25.6,3.9-51.4,1.9-77.1,4.6-17.5,1.8-35.2,1.9-52.8,3.2-15,1.2-30,3-45,4.6-9.3,1-18.7,2.1-28.1,3.4a8.5,8.5,0,0,0-4.7,3c-.9,1-1.2,3.5-.5,4.4s3,1.5,4.4,1.2c25.8-5.3,52-6,78.2-7.8,14.3-1,28.6-3.6,42.9-4.7,16.3-1.2,32.6-1.5,48.9-2.2L943,530.1l73.8-3.2c1.8,0,3.6-.2,6-.4v9.2c-4.8.5-9.4,1.2-14,1.4-12.6.4-25.3.5-37.9,1.1-14.4.6-28.8,1.6-43.3,2.4l-8.4.4-64.1,4.1L772.4,550q-33.6,1.9-67.2,4.3c-13,1-26.1,2.4-39.1,3.8-4.6.5-5.4,4.5-6,8-2.4,12.9-4.6,25.8-6.8,38.7-1.5,9-2.8,18.1-4.4,27s-1.5,7.5-9.1,6.8c.8-2.5,1.7-4.9,2.3-7.3s1.1-5.2-2.3-6.2-6.1-.2-7.2,3.4-1.6,6.4-2.4,10.1h-8.3c1.2-8.5,1.2-8.4-7.4-7.6-4,.4-8.2,0-9.9,5.3-.5,1.3-3.6,2.6-5.4,2.6H511.7c-5.2,0-7.5-2.5-8.7-9.4l12.7,1.1c17.5,1.6,35.1,3.9,52.6,4.5,8.3.3,16.7-2.2,24.9-3.9,3.9-.8,4.9-3.8,4.3-7.7-1.7-10.3-4.7-12.7-15.7-11.6a172.5,172.5,0,0,1-50.7-2.1c-2.3-.5-4.5-1.4-6.8-1.7a20,20,0,0,0-7.7-.1c-5.1,1.2-6.6.4-5.4-4.7,2.4-10.9,5.3-21.7,14.3-29.4.7-.6,1.2-1.4,2-1.6,7.4-1.6,6.3-7.3,6-12.5s-1.2-13.1-1.9-20.1c-2,.3-3.4,0-4.2.6-6.4,4.9-12.8,9.8-19,15a50.1,50.1,0,0,0-8.5,8.1c-8.3,11-11.6,24-14.8,37.1-1.2,5-2.4,8.8-8.3,10.8s-10.7,11.9-9.4,20.8c.3,2.1.5,4.2.8,6.6H454.4c.6-6.1,1.1-11.9,1.7-18.6-6,1.5-11.3,2.8-16.6,4.3-11.7,3.4-23.5,6.1-34.8,10.5-20.7,8.2-42,1.4-62.9,4.5v-1.2c3.9-.4,8-.5,11.8-1.3,1.3-.3,3.1-2.6,3-3.8-1.7-19.4-3-38.9-5.8-58.1-2-13.6-6.2-26.8-9.4-40.2-1.7-7.1-3.5-14.2-5-21.3-4.1-18.4-16.1-30.4-31.7-39.4a17.6,17.6,0,0,0-3.9-1.2c-1.2-.3-2.3-.8-3.5-1.2,1.9-6.5,5.1-7,11.2-4.7M418.9,108.3c-.6,7.4-.9,14-1.6,20.6s-3.5,8.4-9.6,8.3-8-5.3-11.7-8.1c-2.2-1.7-5.4-4.2-7.2-3.6s-6,3.8-6.6,6.4c-1.4,6.2-1.6,12.8-2.1,19.2a26.1,26.1,0,0,0,.3,7.9c2.8,10.5,19.3,24.6,29.8,23.2,1.2-.2,3.1-.1,3.6.7,2.9,4.7,6,9.4,8.2,14.4,5.8,13,9.7,27.1,17.1,39s16.8,19.5,26.1,28.4a101.4,101.4,0,0,0,26.6,18c14.8,7.1,29.3,5.6,43.3-.7a119.4,119.4,0,0,0,26.7-16.3c10.4-8.7,21.3-17.6,25.4-31.7,2-6.8,5.3-13.2,7.1-20.1,3.8-14.9,7.6-29.8,10.4-45,2.4-13.5,3.3-27.3,5-41,1.4-11.2,3.2-22.3,4.5-33.5s1.3-22.6,3-33.8c.7-5.2-.3-8.5-4.3-11.5s-5.9-8-5.8-13.2-1.8-6-5.6-6.9c-12.5-2.7-25.2-3.7-37.4.6-24.7,8.8-49.7,13.2-76,10.8-8.9-.9-18,0-26.9,1s-11.8,5.3-12.6,13.9c-.3,3.4-.9,7.7-3,9.7-7.8,7.2-16.1,13.7-24.5,20.1-2.6,1.9-4.6,3.4-4,7.1C418,97.7,418.3,103.4,418.9,108.3ZM600.6,602.9l1.1,1.8c-5.8,3.3-1.9,6.4-1.1,9.8s2.9,4.1,6.2,3.2c5.9-1.7,11.8-3.1,17.7-4.7s10.7-2.5,15.8-4.5a8.2,8.2,0,0,0,4.4-5.2c3.5-19,6.8-37.9,10.1-56.9.8-4.9,2.5-10,2-14.8-1.9-15.3-4.6-30.5-7-45.7-.5-3.2-2-4.6-5.5-3.9-12.2,2.5-24.5,4.7-36.6,7.3s-24.9,5.9-37.3,8.9c-4.9,1.3-11.3,1.2-14.3,4.3s-.2,8.7-.1,13.4c.1.8.1,1.6.2,2.5,1.6,16.6,3.3,33.3,4.9,50,.9,9.9,1.4,19.9,2.5,29.8.7,5.7,2.4,6.4,8.2,5.3,4.2-.7,8.5-1.7,12.8-1.8S595.2,602.5,600.6,602.9ZM432.4,243.8l-1.5.5c.2,3,.2,6.1.6,9.1.9,7.3-1.3,12.9-7.7,16.9a88.6,88.6,0,0,0-14.6,11,13.1,13.1,0,0,0-3.7,9.2c.1,4.3,1.8,8.7,3.4,12.9s5.1,10.4,6.4,16,3.9,9.2,8.4,11.6c7.7,4.3,15.5,8.3,23.5,11.9,6,2.7,12.1,6.1,18.5,6.8,9.8,1.1,19.9.3,29.8.1,21.7-.3,42.5-4.8,61.8-15,16.3-8.7,24.8-23,28.7-40.6.8-3.7-.3-6.9-4.1-8.7-5.4-2.5-11-3.7-16.9-1.8-9.2,3-18.3,6.5-27.6,9.3-12.1,3.5-24.3,5.1-36.9,2.3A86.9,86.9,0,0,1,457.4,272c-8-7.8-16.6-15.2-22.3-25.1C434.5,245.7,433.3,244.9,432.4,243.8Zm100-216.9a20.1,20.1,0,0,0-.1-2.5c-6.3-1.1-12.5-2.7-18.9-3.2-16.4-1.3-32.9-4.3-49,1.9a10.5,10.5,0,0,1-3.4.8c-13.9,1.1-23.2,9.9-32.1,19.3a7.7,7.7,0,0,0-1.7,3.9c-.9,4-1.5,8.1-2.4,12.1s-2.5,9.5-3.8,14.4c6.9.1,8.4-2,9.1-11.4,4.6.1,6.6-1.9,7.1-6.8,1.4-15.9,7.9-23,23.6-25.4,7.5-1.1,15.2-1.1,22.8-1.1,12.5-.1,25,.3,37.5.1C524.9,28.9,528.7,27.6,532.4,26.9Zm10.4,552.8h.2c0,1.8-.2,3.6-.2,5.5.1,5.2.4,10.5.6,15.7s3.3,4.4,6.3,4.3,3.4-3.1,3.3-5.5c-.6-15.1-.9-30.2-1.9-45.3s-2.6-32.8-4.2-49.1c-.1-1.6-1.5-3.1-2.3-4.7-.6,1.5-1.7,3.1-1.7,4.6C542.7,530,542.8,554.9,542.8,579.7ZM396.7,100.6c0,2.9-.6,5.6.2,7.8s2.9,5,4.5,7.5c1.4-1,3.3-1.6,4.3-2.9,4-5.4,3.5-10.6-.7-16.9a11.3,11.3,0,0,1-1.8-6.8c.7-3.6,2.5-7,3.7-10.6,2.1-6.6,4.2-13.3,6.1-20a4.4,4.4,0,0,0-.1-3.2,83.8,83.8,0,0,0-4.6-7.5c-6.8,2.5-10.8,10.4-8.2,17.1s3.4,12.1,1,18.7c-2.9,8.1-5.8,10-13.4,6.2-4.2-2-10.6,2.1-10.6,6.9s2.6,6.8,7,6.2S391.5,101.7,396.7,100.6ZM619.6,40.3l2.1-.4c1.8-5.8.3-11.8-.3-17.6-.1-.8-1.8-1.5-2.8-1.9-7.2-2.8-14.3-6.5-21.8-8s-16.2-.8-24.3-1.6-16,1.6-22.9,6.5c-1.2.9-1.9,2.6-2.9,3.9,1.5.1,3.2.7,4.5.2,15.9-5.5,32-6.4,48.6-4.6,10.3,1.2,18.4,5.2,18.3,18.3C618.1,36.8,619.1,38.5,619.6,40.3Zm-239-3.5c1.8-2.1,4.2-3.6,4.8-5.6,1.5-5.1,2.1-10.5,3.1-15.7C381.5,16.3,376.9,27.6,380.6,36.8Zm8.3,45.9c1.1-1.7,2.3-2.7,2.4-3.8s-1.1-1.8-1.7-2.7a16.4,16.4,0,0,0-3.3,3.1C386.1,79.6,387.6,81,388.9,82.7Z"/><path class="cls-1" d="M418.9,108.3c-.6-4.9-.9-10.6-1.8-16.1-.6-3.7,1.4-5.2,4-7.1,8.4-6.4,16.7-12.9,24.5-20.1,2.1-2,2.7-6.3,3-9.7.8-8.6,4-13,12.6-13.9s18-1.9,26.9-1c26.3,2.4,51.3-2,76-10.8,12.2-4.3,24.9-3.3,37.4-.6,3.8.9,5.7,2.7,5.6,6.9s1.5,10,5.8,13.2,5,6.3,4.3,11.5c-1.7,11.2-1.8,22.5-3,33.8s-3.1,22.3-4.5,33.5c-1.7,13.7-2.6,27.5-5,41-2.8,15.2-6.6,30.1-10.4,45-1.8,6.9-5.1,13.3-7.1,20.1-4.1,14.1-15,23-25.4,31.7A119.4,119.4,0,0,1,535.1,282c-14,6.3-28.5,7.8-43.3.7a101.4,101.4,0,0,1-26.6-18c-9.3-8.9-19.4-17.7-26.1-28.4s-11.3-26-17.1-39c-2.2-5-5.3-9.7-8.2-14.4-.5-.8-2.4-.9-3.6-.7-10.5,1.4-27-12.7-29.8-23.2a26.1,26.1,0,0,1-.3-7.9c.5-6.4.7-13,2.1-19.2.6-2.6,3.9-5.6,6.6-6.4s5,1.9,7.2,3.6c3.7,2.8,5.9,8,11.7,8.1s9-2.2,9.6-8.3S418.3,115.7,418.9,108.3Zm118.2,96.2-1.7.3c.8,2.6,1.3,5.4,2.7,7.8a5,5,0,0,0,4.2,2.1c8.8-1.3,13-6.4,12.6-15a52.8,52.8,0,0,0-2.1-10.2c-1.9-7.5-4-15-5.9-22.5-3-12.3-5.8-24.6-9-36.8-.3-1.2-2.9-3.1-3.9-2.8s-3.7,2.3-4,3.9a26.8,26.8,0,0,0,.4,8.9c2.1,11.2,5.2,22.3,6.4,33.6S537.1,194.3,537.1,204.5Zm10.1,30.9c-5.4-.5-10.3-1.2-15.2-1.2-7.9-.2-15.6-1-22.8-4.5a9.2,9.2,0,0,0-4.3-.9c-3.6.3-7.2.9-11.1,1.3,3.9,7.6,10.5,12.4,18.7,14.5s19.2,1.6,28.6-.8C544.6,243,546.9,240.2,547.2,235.4ZM495.1,121.8c-.3-1.5-.2-4.6-1.5-6.9a12.3,12.3,0,0,0-6.4-4.7c-1.2-.4-4.1,1.5-4.7,3a31.1,31.1,0,0,0-2.6,10.8c-.2,4.8,4.2,9.6,7.4,9.3S495.1,127.3,495.1,121.8Zm83.4-5H578c0-1,.3-2.2-.1-3s-1.7-4.4-3.3-5.3-4.5,0-5.5,1.2c-2.3,3.1-5.1,6.7-5.5,10.4a11.4,11.4,0,0,0,4.6,8.9c3.1,1.9,6.8-.8,8.4-4.1S577.9,119.5,578.5,116.8ZM405.6,174.1c2.8-3.7,3.9-7.6,3.5-13.7s-7.6-10.9-13.4-9c-3,1-4,3.1-2.2,5.7C397.4,162.8,401.5,168.3,405.6,174.1Zm155.6-71.8c6.1-3.2,12.1-4.9,18.8-3.4,1.2.3,2.7-.2,4.1-.4-.3-1.7,0-4-1-5a8.9,8.9,0,0,0-5.8-2.6,32.7,32.7,0,0,0-10.5,2.8C563.7,95.2,560.4,97.4,561.2,102.3ZM476,106.1c6.5-10.3,15.3-7.3,24.4-6-1.1-2.5-2.2-5.1-3.9-5.7a30,30,0,0,0-10.3-1.2C479.2,93.7,474.4,99.3,476,106.1Z"/><path class="cls-1" d="M600.6,602.9c-5.4-.4-10.7-1.3-16-1.2s-8.6,1.1-12.8,1.8c-5.8,1.1-7.5.4-8.2-5.3-1.1-9.9-1.6-19.9-2.5-29.8-1.6-16.7-3.3-33.4-4.9-50-.1-.9-.1-1.7-.2-2.5-.1-4.7-2.2-11.2.1-13.4s9.4-3,14.3-4.3c12.4-3,24.8-6.1,37.3-8.9s24.4-4.8,36.6-7.3c3.5-.7,5,.7,5.5,3.9,2.4,15.2,5.1,30.4,7,45.7.5,4.8-1.2,9.9-2,14.8-3.3,19-6.6,37.9-10.1,56.9a8.2,8.2,0,0,1-4.4,5.2c-5.1,2-10.5,3.1-15.8,4.5s-11.8,3-17.7,4.7c-3.3.9-5.4.7-6.2-3.2s-4.7-6.5,1.1-9.8Z"/><path class="cls-1" d="M432.4,243.8c.9,1.1,2.1,1.9,2.7,3.1,5.7,9.9,14.3,17.3,22.3,25.1a86.9,86.9,0,0,0,43.1,23.3c12.6,2.8,24.8,1.2,36.9-2.3,9.3-2.8,18.4-6.3,27.6-9.3,5.9-1.9,11.5-.7,16.9,1.8,3.8,1.8,4.9,5,4.1,8.7-3.9,17.6-12.4,31.9-28.7,40.6-19.3,10.2-40.1,14.7-61.8,15-9.9.2-20,1-29.8-.1-6.4-.7-12.5-4.1-18.5-6.8-8-3.6-15.8-7.6-23.5-11.9-4.5-2.4-7.2-6.3-8.4-11.6s-4.5-10.6-6.4-16-3.3-8.6-3.4-12.9a13.1,13.1,0,0,1,3.7-9.2,88.6,88.6,0,0,1,14.6-11c6.4-4,8.6-9.6,7.7-16.9-.4-3-.4-6.1-.6-9.1Z"/><path class="cls-1" d="M532.4,26.9c-3.7.7-7.5,2-11.3,2.1-12.5.2-25-.2-37.5-.1-7.6,0-15.3,0-22.8,1.1-15.7,2.4-22.2,9.5-23.6,25.4-.5,4.9-2.5,6.9-7.1,6.8-.7,9.4-2.2,11.5-9.1,11.4,1.3-4.9,2.6-9.6,3.8-14.4s1.5-8.1,2.4-12.1a7.7,7.7,0,0,1,1.7-3.9c8.9-9.4,18.2-18.2,32.1-19.3a10.5,10.5,0,0,0,3.4-.8c16.1-6.2,32.6-3.2,49-1.9,6.4.5,12.6,2.1,18.9,3.2A20.1,20.1,0,0,1,532.4,26.9Z"/><path class="cls-1" d="M542.8,579.7c0-24.8-.1-49.7.1-74.5,0-1.5,1.1-3.1,1.7-4.6.8,1.6,2.2,3.1,2.3,4.7,1.6,16.3,3.2,32.7,4.2,49.1s1.3,30.2,1.9,45.3c.1,2.4.6,5.4-3.3,5.5s-6.2.1-6.3-4.3-.5-10.5-.6-15.7c0-1.9.2-3.7.2-5.5Z"/><path class="cls-1" d="M396.7,100.6c-5.2,1.1-8.9,2-12.6,2.5s-7-1.8-7-6.2,6.4-8.9,10.6-6.9c7.6,3.8,10.5,1.9,13.4-6.2,2.4-6.6,1.3-12.5-1-18.7s1.4-14.6,8.2-17.1a83.8,83.8,0,0,1,4.6,7.5,4.4,4.4,0,0,1,.1,3.2c-1.9,6.7-4,13.4-6.1,20-1.2,3.6-3,7-3.7,10.6a11.3,11.3,0,0,0,1.8,6.8c4.2,6.3,4.7,11.5.7,16.9-1,1.3-2.9,1.9-4.3,2.9-1.6-2.5-3.6-4.8-4.5-7.5S396.7,103.5,396.7,100.6Z"/><path class="cls-1" d="M619.6,40.3c-.5-1.8-1.5-3.5-1.5-5.2.1-13.1-8-17.1-18.3-18.3-16.6-1.8-32.7-.9-48.6,4.6-1.3.5-3-.1-4.5-.2,1-1.3,1.7-3,2.9-3.9,6.9-4.9,14.4-7.3,22.9-6.5s16.4,0,24.3,1.6,14.6,5.2,21.8,8c1,.4,2.7,1.1,2.8,1.9.6,5.8,2.1,11.8.3,17.6Z"/><path class="cls-1" d="M380.6,36.8c-3.7-9.2.9-20.5,7.9-21.3-1,5.2-1.6,10.6-3.1,15.7C384.8,33.2,382.4,34.7,380.6,36.8Z"/><path class="cls-1" d="M388.9,82.7c-1.3-1.7-2.8-3.1-2.6-3.4a16.4,16.4,0,0,1,3.3-3.1c.6.9,1.9,1.9,1.7,2.7S390,81,388.9,82.7Z"/><path d="M537.1,204.5c0-10.2.8-20.6-.3-30.7s-4.3-22.4-6.4-33.6a26.8,26.8,0,0,1-.4-8.9c.3-1.6,2.4-3.4,4-3.9s3.6,1.6,3.9,2.8c3.2,12.2,6,24.5,9,36.8,1.9,7.5,4,15,5.9,22.5a52.8,52.8,0,0,1,2.1,10.2c.4,8.6-3.8,13.7-12.6,15a5,5,0,0,1-4.2-2.1"/><path d="M547.2,235.4c-.3,4.8-2.6,7.6-6.1,8.4-9.4,2.4-19.1,3.3-28.6.8s-14.8-6.9-18.7-14.5c3.9-.4,7.5-1,11.1-1.3a9.2,9.2,0,0,1,4.3.9c7.2,3.5,14.9,4.3,22.8,4.5C536.9,234.2,541.8,234.9,547.2,235.4Z"/><path d="M495.1,121.8c0,5.5-4.3,11.1-7.8,11.5s-7.6-4.5-7.4-9.3a31.1,31.1,0,0,1,2.6-10.8c.6-1.5,3.5-3.4,4.7-3a12.3,12.3,0,0,1,6.4,4.7C494.9,117.2,494.8,120.3,495.1,121.8Z"/><path d="M578.5,116.8c-.6,2.7-.7,5.6-1.9,8s-5.3,6-8.4,4.1a11.4,11.4,0,0,1-4.6-8.9c.4-3.7,3.2-7.3,5.5-10.4,1-1.2,4.2-2,5.5-1.2s2.4,3.4,3.3,5.3.1,2,.1,3Z"/><path d="M405.6,174.1c-4.1-5.8-8.2-11.3-12.1-17-1.8-2.6-.8-4.7,2.2-5.7,5.8-1.9,13,2.9,13.4,9S408.4,170.4,405.6,174.1Z"/><path d="M561.2,102.3c-.8-4.9,2.5-7.1,5.6-8.6a32.7,32.7,0,0,1,10.5-2.8,8.9,8.9,0,0,1,5.8,2.6c1,1,.7,3.3,1,5-1.4.2-2.9.7-4.1.4C573.3,97.4,567.3,99.1,561.2,102.3Z"/><path d="M476,106.1c-1.6-6.8,3.2-12.4,10.2-12.9a30,30,0,0,1,10.3,1.2c1.7.6,2.8,3.2,3.9,5.7C491.3,98.8,482.5,95.8,476,106.1Z"/></g></g></svg>