<?xml version="1.0" encoding="utf-8"?>
<!-- Generator: Adobe Illustrator 25.2.3, SVG Export Plug-In . SVG Version: 6.00 Build 0)  -->
<svg version="1.1" id="레이어_1" xmlns="http://www.w3.org/2000/svg" xmlns:xlink="http://www.w3.org/1999/xlink" x="0px"
	 y="0px" viewBox="0 0 1024 640" style="enable-background:new 0 0 1024 640;" xml:space="preserve">
<style type="text/css">
	.st0{stroke:#000000;stroke-miterlimit:10;}
</style>
<g>
	<path class="st0" d="M642.6,613.1c-0.8,0.1-1.6,0.4-2.4,0.6c-7.6,2-15.2,3.9-22.8,5.9c-0.2,0-0.3,0.1-0.5,0.1
		c-1.6,0.5-13,1.9-10.6,4.8c0.2,1.3,9.5-1,10.7-0.8c2.4,0.5,4.6,1.2,6.5,2.9c1.6,1.3,2.5,1.1,3.7-0.6c0.9-1.3,1.8-2.6,2.8-3.8
		c2.1-2.3,4.8-3.5,7.9-3.6c2.2,0,5.1,1.1,6.8,2.5c1.4,1.8,1.6,10.8,1,17.7c-1.3,0-2.4,0-3.4,0c0.2-4,0.4-7.9,0.5-11.9
		c0-0.5,0-1,0-1.5c-0.2-2.7-1.2-3.3-3.8-3.3c-4.3,0-6.9,2.2-8.8,5.8c-1.9,3.4-3.6,6.9-4.4,10.9c-1.1,0-2.2,0-3.7,0
		c0-1.7-0.1-3.4,0-5.1c0.4-5.3-3.4-6.4-7.3-6.6c-1,0-2,0.2-3,0.1c-2.6-0.2-4.2,1-5.3,3.2c-1.2,2.3-2.3,4.6-3.4,6.9
		c-0.2,0.4-0.5,0.9-0.8,1.4c-1.2,0-2.4,0-3.9,0c0.9-1.9,1.7-3.6,2.5-5.3c0.2-0.5,0.5-1.1,0.6-1.6c0.2-1.3-0.9-2.3-2.1-2
		c-0.4,0.1-0.8,0.3-1.1,0.5c-3.6,3.1-8,3.8-12.4,4.4c-2.3,0.3-4.6,0.4-6.9,0.5c-8,0.1-16.1,0.1-24-1c-4.2-0.5-8.3-1.2-12.5-1.6
		c-6.4-0.6-12.8-1-19.3-1.5c-3.5-0.3-7.1-0.6-10.6-0.9c-0.6-0.1-1.1-0.2-1.7-0.4c-0.9-0.4-1.6-1.2-1.1-2.1c0.3-0.6,1.2-1.1,1.9-1.2
		c0.9-0.1,1.8,0.3,2.7,0.3c5.2,0.3,10.4,0.5,15.6,1c7.9,0.7,15.8,1.8,23.7,2.6c5.3,0.5,10.7,1.1,16.1,1.2c5.2,0.1,10.4-0.1,15.6-0.4
		c2-0.1,4.1-0.7,6.1-1.2c3.6-1,6.4-3.3,7.9-6.7c1.7-4.1,1.9-10.2-3.4-13.4c-2.2-1.3-4.3-2.3-7-2.1c-2.3,0.1-4.6-0.1-7,0.1
		c-4,0.2-7.9,0.6-11.9,0.9c-7.7,0.5-15.6,1.5-23.1-1.1c-7.7-2.7-15.6-2.8-23.5-3.1c-1.4-0.1-2.8,0-4.2,0c-1.7-0.1-3.1,0.1-4.1,1.8
		c-0.5,0.8-1.3,1-2.2,0.7c-0.9-0.4-1.1-1.2-0.9-2.1c0-0.3,0-0.7,0.2-1c2.2-6.4,3.7-13.1,7.1-19c2.8-4.9,6.5-9.1,10.9-12.8
		c2.7-2.3,5.3-4.3,7-6.8c0-0.1,1.2-1.4,1.3-1.5c0.4-1.5,0.7-4.5,0.6-7.1c-0.1-5.3-0.1-10.6-0.2-15.9c0-2.8-0.5-3.2-3.3-3.4
		c-2.2-0.2-4.2,0.2-6.3,1.1c-9.9,4.5-18.6,10.8-26.8,17.7c-4.2,3.6-6.8,8.2-9.3,13c-2.2,4.3-3.5,8.9-4.5,13.6
		c-1.4,6.3-4.3,12-7.8,17.3c-2,3.1-4.4,6-6.5,9.1c-0.5,0.7-1,1.3-1.4,2.1c-2.2,4.5-4.2,9.2-5.2,14.2c-0.5,2.4-0.6,4.9-0.7,7.4
		c-0.1,1.8,0,3.6,0,5.6c-1.2,0-2.2,0-3.5,0c0-3.5-0.2-7.1,0.2-10.7c0.4-3.6,1.4-7,2.7-10.3c0.3-0.8,0.6-1.5,0.9-2.3
		c0.6-2.1-0.5-3.3-2.6-2.8c-2.6,0.6-5.1,1.5-7.6,2.2c-22.4,6.6-44.9,13.2-67.3,19.9c-3.4,1-6.9,1.9-10.2,3.1
		c-4,1.4-8.1,1.3-12.6,1.1c-0.3-2.3-0.6-4.6-0.8-6.8c-0.9-9.1-2.6-18-4.9-26.8c-1.5-5.9-3.3-11.8-4.6-17.8
		c-1.2-5.7-1.8-11.6-2.6-17.4c-1.7-11.5-3.1-23.1-5.1-34.6c-1-6.1-2.8-12.1-4.4-18.1c-0.6-2.2-1.5-4.4-2.3-6.5
		c-1.5-3.8-3-7.7-4.7-11.5c-2.2-4.8-4.9-9.5-8.6-13.3c-2.7-2.8-5.9-5.1-8.8-7.6c-0.9-0.8-1.9-1.6-2.9-2.3c-2.4-1.8-4.7-3.7-7.9-3.7
		c-1.1,0-2-0.5-2-1.7c0.1-1.2,1-1.6,2.1-1.7c2.1-0.2,4.2,0.3,5.9,1.5c2.8,1.9,5.5,3.9,8.1,6.1c3.1,2.6,6.4,5.1,9,8.1
		c2.7,3.1,5,6.6,6.9,10.3c3.9,7.7,7.2,15.6,9.5,24c3.2,12,5.6,24.2,6.9,36.5c1,9.6,2.4,19.2,4,28.8c0.6,4,2,7.9,3,11.8
		c2.4,9.1,4.5,18.3,6,27.6c0.5,3.1,0.8,6.2,1.2,9.4c0.3,2.9,1.1,3.4,3.9,2.6c17.6-5.2,35.2-10.4,52.8-15.5
		c14.5-4.3,29-8.5,43.5-12.8c0.8-0.2,1.7-0.7,2.3-1.3c5.1-6.3,9.5-13,11.9-20.8c0.5-1.7,1-3.3,1.3-5c1.5-7.9,5.1-14.9,9.8-21.3
		c2.2-3,5.2-5.5,8.2-7.9c5.9-4.7,11.9-9.2,18.7-12.7c1.8-1,3.7-1.8,5.6-2.7c2.4-1.2,5-1.7,7.7-1.5c2.7,0.2,3.4-0.5,3.4-3.2
		c-0.1-8.6-0.1-17.2-0.5-25.8c-0.1-3.1,0.4-5.7,2.7-7.9c1.1-1.1,2-2.4,3-3.6c0.8-0.9,1.6-1.3,2.8-0.9c0.7,0.3,1.5,0.3,2.2,0.2
		c6.7-1.2,13.3-2.6,20-3.8c8-1.5,16-2.8,23.9-4.2c13.8-2.4,27.5-4.8,41.3-7.3c5.1-0.9,10.2-1.9,15.4-2.8c0.8-0.1,1.6-0.3,2.5-0.3
		c2.6,0,3.8,1.2,3.7,3.9c-0.1,3.6-0.4,7.3-0.5,10.9c-0.4,7.7-0.7,15.4-1.1,23.1c-0.2,4.5-0.5,8.9-0.8,13.4c0,0.2,0,0.5,0,0.7
		c-0.1,3.7,0.2,4.2,3.8,4.6c4.8,0.6,9.7,1.5,14.6,1c5.8-0.5,11.5-0.9,17.3-1.4c10-0.7,20-1.4,29.9-2.1c9.2-0.7,18.5-1.3,27.7-2
		c9-0.7,18-1.3,27-2c9.2-0.7,18.3-1.3,27.5-2c2.1-0.2,4.1-0.3,6.2-0.5c2.6-0.2,3.4-1.5,2.3-3.8c-2.3-4.9-4.7-9.7-7-14.5
		c-3.1-6.4-6.1-12.9-9.4-19.1c-5.3-9.9-10-20.2-14.3-30.6c-1.8-4.3-3.2-8.6-3.4-13.4c-0.1-2.1-1.3-4.1-1.9-6.1
		c-2.5-7.4-5.1-14.9-7.5-22.4c-3.2-10-6.2-20.1-9.6-30c-2.3-6.5-5.9-12.3-11.1-17.1c-2.9-2.7-5.4-5.8-8-8.8
		c-1.5-1.8-3.2-3.2-5.3-4.4c-3.3-1.9-6.6-3.7-10.2-5.2c-2.5-1.1-4.9-2.5-7-4.1c-6.4-5-13.3-8.9-20.4-12.7
		c-10.3-5.4-20.9-10.4-31.7-14.9c-3.5-1.4-6.8-3.4-10.4-4.7c-4.7-1.7-9.6-3.3-14.5-4.4c-4.8-1.1-9.8-1.5-14.6-2.4
		c-2.4-0.4-4.8-1.1-7.1-2c-4.3-1.7-8.3-4-11.9-7.1c-0.3-0.2-0.5-0.4-0.8-0.6c-1.5-1-2.5-0.9-3.6,0.6c-1.1,1.4-2,2.8-3,4.3
		c-3.7,5.9-7.4,11.8-11.2,17.6c-1.6,2.5-3.7,4.7-5.6,7c-2.4,2.9-4.9,5.8-7.2,8.8c-2.4,3-5.4,5.1-8.7,6.8
		c-11.6,6.3-23.8,11.2-36.3,15.2c-8,2.6-16.2,4.7-24.8,4.6c-4.5,0-9.1,0-13.6-0.2c-2.8-0.2-5.5-0.8-8.3-1.3
		c-0.9-0.1-1.8-0.4-2.7-0.4c-7.2-0.1-14.3-1.6-21.4-2.7c-3.3-0.5-6.3-2-9.2-3.6c-6.4-3.6-13.1-6.9-19.2-10.8
		c-7-4.5-12.6-10.4-15.9-18.2c-2-4.8-3.5-9.6-4.4-14.7c-0.8-4.3-1.9-8.5-3.4-12.7c-1.1-3.1-2-6.3-2.9-9.5c-0.6-2-1.7-2.6-3.5-1.5
		c-2.3,1.5-4.4,3.2-5.9,5.6c-2.8,4.4-6.2,8.3-10.7,11.2c-4.2,2.7-8.1,5.7-12.1,8.7c-1.2,0.9-2.3,2.2-3.3,3.3
		c-4.9,5.8-11.1,10.1-17,14.8c-6.8,5.4-14.6,8.7-22.3,12.3c-11.5,5.3-23.5,9.5-35.4,13.7c-5.9,2.1-11.6,4.8-17.1,7.9
		c-6,3.4-10.1,8.4-12.9,14.7c-3.5,8-7,16.1-10.3,24.2c-3.3,8.4-6.6,16.8-8,25.8c-0.3,2.4-0.7,4.8-0.7,7.1
		c-0.1,8.2,0.1,16.4-0.1,24.6c-0.1,3.7-1,7.4-1.6,11c-2.2,12.4-4.5,24.7-6.8,37.1c-2.1,11.3-4.2,22.6-6.2,33.9
		c-2.1,11.3-4.1,22.6-6.1,33.9c-2.1,11.3-4.2,22.6-6.2,33.9c-1.8,9.8-3.5,19.5-5.3,29.3c-0.2,0.9-0.4,1.8-0.6,2.8
		c-1.2,0-2.2,0-3.5,0c0.3-2,0.6-3.8,0.9-5.6c2.9-16.1,5.8-32.2,8.8-48.3c2.3-12.8,4.7-25.5,7-38.3c2.3-12.6,4.6-25.2,6.9-37.8
		c2.4-13,4.8-26,7.1-39.1c0.7-3.7,1.4-7.3,2-11c0.2-0.9,0.2-1.8,0.2-2.7c0-6.3,0.2-12.6,0-18.9c-0.2-6.8,0.7-13.4,2.4-19.9
		c1.1-3.9,2.3-7.8,3.7-11.6c2.2-6,4.5-11.9,6.9-17.8c2.1-5,4.3-10.1,6.6-15c3.1-6.5,7.5-11.8,13.8-15.5c6.9-3.9,14-7,21.5-9.6
		c12.3-4.3,24.5-9.1,36.4-14.5c12.2-5.4,22.6-13.2,31.8-22.6c4.5-4.6,9.2-8.8,14.7-12.2c0.7-0.4,3.2-2.3,4-2.6
		c2-1.9,1.1-0.6,3.3-3.2c4.3-6.4,9.7-11.6,16.4-15.5c5.4-3.1,10.5-6.7,15.4-10.4c4.3-3.2,7.4-7.5,9.9-12.3c1.1-2.1,1.3-4.4,1.5-6.7
		c0.1-2.1-0.1-4.1-0.1-6.2c0-1.1-0.1-2.2,0.2-3.2c0.9-3.7,0.4-7.3-0.3-10.8c-1.7-7.7-3.9-15.4-6-23c-0.4-1.4-0.8-2.7-1.3-4
		c-0.7-2.4-1.5-4.1-2.2-5.7c-1.3-2.1-1.3-2.4-2.1-3c-1.7-0.9-3.8-1.2-5.8-1.3c-3.3-0.1-6.3-1-9.3-2.4c-7.8-3.7-13.8-9.4-18.2-16.7
		c-0.7-1.2-1.4-2.4-2.2-3.6c-1.6-2.6-2.5-5.3-3-8.3c-1.1-6.9-1.4-13.9-0.7-20.8c0.3-3.1,1.7-6.2,2.7-9.2c0.5-1.3,0.7-2.5,0.4-3.8
		c-0.3-1.4-0.2-3-0.2-4.4c0-3.4-0.7-6.6-2.2-9.6c-1.2-2.4-2.4-4.7-3.4-7.2c-0.6-1.5-1.3-3.1-1.4-4.7c-0.2-4.3-1.5-8.3-3-12.2
		c-0.2-0.6-0.4-1.3-0.7-1.8c-2.6-4.8-2-9.7-0.4-14.7c0.9-2.8,2.1-5.6,3-8.4c1-3,1.8-6,2.5-9.1c0.8-3.5,0.3-7.1-0.4-10.6
		c-1.8-8.4,0.2-15.9,5.3-22.7c2.4-3.1,5-6.1,7.8-9c1.7-1.7,3.7-3,5.7-4.4c1.1-0.8,2.3-1.3,2.7-2.7c0.2-0.5,0.8-0.9,1.3-1.1
		c4.6-2.3,9.5-2.9,15.2-2.1c-2,0.9-3.6,1.5-5.1,2.2c-1.2,0.5-2.6,0.8-2.4,2.4c0.1,1.5,1.4,1.8,2.7,2.1c4.5,1.2,9,1.2,13.5,0.1
		c4.2-1.1,8.5-1.3,12.8-1c3.5,0.2,6.7-0.6,9.8-2.1c5.5-2.7,11.4-3.9,17.5-3.9c9.6,0,19.2,0,28.7,0c-1.8,2.9-3.6,5.8-5.4,8.7
		c-1.3,2.2-0.6,3.5,2,3.6c4.6,0.1,9.3,0,13.9,0c5.6,0,11.3,0,16.9,0c3.3,0,6.4,0.6,9.5,1.6c2.5,0.8,5.1,1.4,7.7,1.9
		c2.1,0.4,3.2-0.8,2.5-2.9c-1.4-4.2-3.9-7.6-7.5-10.2c-1-0.8-2.1-1.4-3.1-2.3c2.4-0.2,4.7-0.8,6.9,0.4c0.5,0.3,1.5,0.2,2.1-0.1
		c2.1-0.8,2.3-0.8,5.1-0.4c-0.8,1.1-1.5,2.2-2.2,3.2c-0.8,1-0.9,2-0.2,3.2c1,1.7,1.7,3.6,2.6,5.3c0.9,1.8,2.2,2.1,3.7,0.8
		c0.9-0.8,1.7-1.6,2.6-2.3c4.5-3.8,9.8-5.4,15.6-5.7c6.5-0.3,13-0.6,19.6-0.7c3.1-0.1,6.3-0.2,9.4,0.2c4.8,0.6,9.6,1.5,14.4,2.3
		c1.5,0.2,2.9,0.5,4.4,0.7c1.1,0.1,2.2,0.1,2.8-1.1c0.6-1.2-0.2-2.1-1-2.8c-1.2-1-2.4-1.9-3.5-3.3c1.4,0,2.9-0.1,4.3,0
		c0.6,0,1.2,0.4,1.7,0.8c2.8,2.1,5.7,4.3,8.5,6.5c0.6,0.5,1.1,1.2,1.5,1.9c2.1,4.4,3.7,9,6.5,13c1.5,2.2,1.6,4.8,1.7,7.4
		c0.1,6.8-0.6,13.4-2.6,19.8c-1,3.2-1.9,6.3-2.5,9.6c-0.5,2.8-0.6,5.7-0.9,8.6c-0.4,5.6-0.4,11.2-1.8,16.7
		c-0.9,3.8-1.2,7.8-1.6,11.8c-0.7,7-1,14-2.2,21c-0.8,5-1.1,10.2-1.5,15.3c-0.7,8.7-1.6,17.5-3.1,26.1c-0.5,2.7-0.8,5.4-1,8.1
		c-0.3,4.6-1.9,8.9-2.9,13.3c-0.8,3.5-1.6,6.9-2.6,10.4c-0.8,2.8-1.7,5.5-2.8,8.2c-3.8,9.3-7.7,18.6-11.5,28
		c-3.4,8.4-6.9,16.9-11.4,24.8c-3.2,5.7-6.4,11.4-11.2,16c-0.4,0.3-0.7,0.7-1,1.1c-0.7,1.1-0.4,2.3,0.8,3
		c6.8,4.1,13.6,8.2,20.5,12.2c1,0.6,2.1,1.1,3.2,1.4c4.3,1.1,7.9,3.4,11.2,6.2c3.2,2.7,6.9,4.6,10.7,6.2c1.8,0.8,3.8,1.2,5.7,1.6
		c3.9,0.7,7.8,1.6,11.7,1.9c5.1,0.5,9.8,2.1,14.6,3.7c3.8,1.3,7.6,2.9,11.2,4.7c5.5,2.7,11.3,4.8,16.8,7.5
		c9.3,4.6,18.4,9.3,27.5,14.3c4.1,2.3,7.9,5.1,11.7,7.9c2.5,1.8,5.2,3.3,8.1,4.3c4.2,1.6,8,4.1,11.6,6.7c2.5,1.8,4.3,4.6,6.4,6.8
		c1.9,2,3.7,4,5.7,5.9c4.9,4.7,8.4,10.3,10.6,16.6c3.3,9.3,6,18.7,9.1,28.1c2.7,8.4,5.6,16.8,8.4,25.2c1.2,3.5,2.1,6.9,2.5,10.6
		c0.4,3.1,1.5,6.1,2.7,9c4.2,10.1,8.7,20,13.8,29.7c5.1,9.8,9.8,19.9,14.6,29.9c1.1,2.2,2.3,4.4,3.3,6.7c0.8,1.6,1.9,2.3,3.8,2.2
		c6.1-0.5,12.2-0.8,18.3-1.3c3.8-0.3,7.6-0.6,11.4-0.9c8.1-0.6,16.2-1.2,24.2-1.8c5.9-0.4,11.7-0.8,17.6-1.2
		c7.6-0.6,15.2-1.2,22.7-1.7c6.1-0.4,12.2-0.8,18.3-1.3c7.7-0.6,15.5-1.2,23.2-1.8c6.2-0.4,12.4-0.8,18.6-1.2
		c7.5-0.5,15-1.2,22.5-1.7c5.9-0.4,11.9-0.8,17.8-1.2c3.2-0.2,6.4-0.5,9.9-0.7c0,1.1,0,2.2,0,3.6c-3.2,0.2-6.5,0.5-9.7,0.7
		c-8,0.6-16,1.2-24,1.8c-5.3,0.4-10.6,0.7-15.8,1.1c-6.6,0.5-13.2,1-19.8,1.4c-8.2,0.6-16.5,1.1-24.7,1.7
		c-10.2,0.7-20.4,1.6-30.7,2.3c-11.5,0.9-23.1,1.7-34.6,2.5c-10,0.7-20,1.4-29.9,2.1c-9.2,0.6-18.3,1.3-27.5,2
		c-9.2,0.7-18.5,1.3-27.7,2c-9,0.7-18,1.3-27,2c-9.1,0.7-18.1,1.3-27.2,2c-9.2,0.7-18.5,1.3-27.7,2c-7.6,0.6-15.2,0.8-22.7,1.9
		c-4.8,0.7-9.3-0.4-14-0.8c-1.3-0.1-2.6-0.3-4-0.3c-1.6,0-2.3,0.6-2.4,2.2c-0.2,3.9-0.4,7.8-0.5,11.7c-0.1,2.2,0.8,3,3,3
		c2.2,0,4.5-0.2,6.7-0.4c4.9-0.3,9.7-0.7,14.6-1.1c9.2-0.6,18.3-1.2,27.5-1.8c6.8-0.4,13.5-0.8,20.3-1.2c6.3-0.4,12.5-0.8,18.8-1.3
		c3.7-0.2,7.4-0.4,11.1-0.7c8-0.5,16-1,24-1.5c8.7-0.5,17.5-1,26.2-1.6c9.4-0.6,18.8-1.3,28.2-1.9c9-0.6,18-1.1,27-1.6
		c10.6-0.7,21.3-1.3,31.9-2c10.4-0.7,20.8-1.3,31.2-2c10.6-0.7,21.1-1.3,31.7-2c9.6-0.6,19.1-1.3,28.7-1.9
		c8.9-0.6,17.8-1.1,26.7-1.6c3.3-0.2,6.6-0.5,9.9-0.8c0.7-0.1,1.5,0,2.4,0c0,1.2,0,2.2,0,3.3c-0.6,0.1-1.3,0.3-1.9,0.4
		c-6.9,0.4-13.7,0.8-20.6,1.2c-8.7,0.6-17.3,1.2-26,1.7c-4.2,0.3-8.4,0.5-12.6,0.7c-6.3,0.4-12.5,0.8-18.8,1.2
		c-3.9,0.2-7.8,0.4-11.6,0.7c-7.8,0.5-15.5,1-23.3,1.4c-8.8,0.5-17.7,1.1-26.5,1.6c-10.7,0.7-21.5,1.3-32.2,2
		c-7.8,0.5-15.5,1-23.3,1.5c-8.1,0.5-16.2,1-24.3,1.5c-7.7,0.5-15.3,1-23,1.5c-10.6,0.7-21.1,1.3-31.7,2c-10.7,0.7-21.5,1.3-32.2,2
		c-7.7,0.5-15.4,1-23,1.5c-9.2,0.6-18.3,1.2-27.5,1.8c-3,0.2-6.1,0.4-9.1,0.5c-2.3,0.1-2.9,0.7-3,3c-0.4,8.5-0.8,17-1.2,25.5
		c-0.5,10.1-0.9,17.9-1.4,28 M520.8,289.7c4.1,0.2,7-0.8,10.5-1.3c1.6-0.1,3.3-1,5.7-1.5c2.1-0.4,4.4-1.3,6.2-2.4
		c4.6-2.6,9.2-5.2,13.7-8c2.2-1.3,4.5-2.6,6.4-4.3c7-6.3,12.9-13.6,17.1-22c3.4-6.6,6.4-13.4,9.4-20.2c3.3-7.7,6.4-15.4,9.6-23.1
		c2.8-6.7,5.8-13.4,7.2-20.5c1.4-6.9,3.7-13.6,4.4-20.6c0.2-1.6,0.3-3.3,0.6-4.9c1.6-8.2,2.6-16.5,3.2-24.8c0.5-7.8,1-15.7,2.5-23.4
		c0.3-1.5,0.5-2.9,0.6-4.4c0.6-9.2,1-18.5,3.3-27.5c0.4-1.7,0.4-3.4,0.5-5.2c0.4-5,0.6-10.1,1.1-15.1c0.3-2.9,1.2-5.7,1.8-8.5
		c0.4-1.7,0.1-2.6-1.5-3.2c-3.8-1.5-6-4.5-7.9-7.8c-1.4-2.5-2.9-5-4.5-7.4c-1.9-2.9-4.7-4.6-8.1-5.2c-1.5-0.3-3-0.5-4.4-0.5
		c-5.2-0.1-10.4-0.1-15.6,0c-2.5,0.1-5,0.7-7.5,1.2c-6.4,1.4-12.7,3-19.1,4.1c-4.4,0.8-8.9,0.8-13.3,1.1c-5.8,0.4-11.5,1.1-17.3,1.2
		c-12,0.3-24,0.4-36,0.5c-5.9,0.1-11.7,0.7-17.4,2.1c-3.9,0.9-7.8,1.7-11.6,2.8c-2,0.6-4,1.5-5.9,2.5c-2.4,1.4-3.8,3.9-5.1,6.3
		c-4.2,7.2-8.2,14.6-12.3,21.8c-0.9,1.6-1.7,3.3-3,4.6c-3.6,3.5-7.3,6.9-11.1,10.3c-1.6,1.4-2,1.3-3.6,0c-1.8-1.4-3-1.1-3.7,1.1
		c-0.8,2.7-1,5.4,0.2,8c0.5,1.1,0.9,2.3,1.4,3.4c2.2,4.8,2.6,9.9,1.7,14.8c-0.8,4.5-2.7,8.9-5.4,12.7c-0.8,1.1-1.2,2.1-0.7,3.4
		c0.7,2.2-0.4,3.5-2.6,2.9c-1.4-0.4-2.7-1.1-4-1.9c-3.6-2.4-7.1-4.9-10.7-7.2c-2.9-1.9-4.8-1.6-7.5,0.4c-4,3-5.8,7.3-7.4,11.8
		c-1.1,3.2-0.9,6.6-0.9,9.8c0,8.2,0.3,16.3,5.3,23.5c2.7,4,5.6,7.7,9.3,10.9c4.9,4.2,10.5,6.8,17.1,7.1c0.9,0,1.8,0.3,2.7,0.4
		c1.5,0.2,2.9,1.4,4,2.6c0.9,0.8,1.7,1.9,2.5,3.1c0.9,1.8,1.5,2.9,2.3,5.1c3,8.9,5.6,17.8,7.6,27c0.3,1.2,0.6,2.4,1.3,3.5
		c1.5,2.4,3.3,4.8,4.9,7.2c5.3,7.7,11.2,15,17.8,21.6c3.4,3.4,6.8,6.7,10.3,10c0.8,0.7,1.6,1.4,2.4,2.1c2,1.7,4.2,3.2,6.1,5
		c2.3,2.1,4.8,3.8,7.7,5c3.7,1.5,7.4,3.2,11.2,4.7c0.9,0.4,0.9,0.2,3.3,1.3c2.5,0.8,4.9,1.3,7.9,2c1.5,0.5,3.3,0.7,4.8,0.9
		C512.4,289,516.6,289.3,520.8,289.7z M498.9,355c1.9,0,5.1,0.4,8.2-0.1c7.5-1,14.9-2.3,22-5c10.8-4.1,21.7-8.1,32-13.5
		c4.5-2.3,8.1-5.3,11.1-9.3c1.7-2.3,3.7-4.5,5.5-6.7c1.9-2.3,3.8-4.6,5.5-7c1.2-1.7,2.3-3.4,3.4-5.2c3.2-5,6.4-10,9.6-15.1
		c1.1-1.8,0.9-2.9-0.9-3.6c-4.6-1.8-8.6-4.6-12.7-7.2c-3.5-2.2-7-4.3-10.7-6.3c-2.7-1.5-5.6-2.2-8.2,0.5c-0.3,0.4-0.8,0.6-1.2,0.8
		c-5.3,3.1-10.5,6.4-15.8,9.4c-3.2,1.9-6.7,3.2-10.4,3.9c-2.2,0.7-2.1,0.8-4.6,1.3c-3.6,0.4-6.8,1.1-10.8,1c-7-0.1-16-1.7-20.9-2.8
		c-2.6-0.7-3.5-1.2-5.1-1.5c-1.7-0.4-1.9-0.4-3.5-1.1c-3.2-1.3-6.4-2.6-9.6-3.9c-3-1.2-6-2.5-8.5-4.6c-3.2-2.7-6.5-5.4-9.7-8.1
		c-1-0.9-1.9-1.8-2.8-2.8c-1.9-1.9-3.6-3.9-5.6-5.6c-6.3-5.5-11.5-11.9-16.6-18.4c-1.3-1.6-2.4-3.4-3.7-5c-0.4-0.5-1.4-0.8-2.1-0.8
		c-0.9,0-1.4,0.8-1.5,1.7c-0.1,0.5-0.1,1-0.1,1.5c0,2.5-0.1,5-0.1,7.5c0,2.3-0.6,4.6-1.6,6.7c-2.7,5.4-6.3,10.1-11.1,13.9
		c-3.5,2.8-7.2,5.2-11,7.7c-1.5,1-2.2,2.1-2.1,3.9c0.1,0.9,0.1,1.8,0.3,2.7c0.8,2.9,1.8,5.7,2.6,8.5c1.1,3.6,2.1,7.3,3.1,11
		c1,3.8,1.8,7.7,2.9,11.5c2.4,8.6,7.7,15.1,14.6,20.4c0.4,0.3,0.8,0.5,1.3,0.8c5.8,3.2,11.5,6.5,17.3,9.7c3.5,1.9,6.9,3.8,10.9,4.6
		c4,0.7,7.9,1.6,11.9,2.3c2.9,0.6,5.8,1.2,8.8,1.6c2.4,0.4,4.7,0.9,7.1,0.9C490,355.5,493.8,355.2,498.9,355z M557.7,504.4
		C557.7,504.4,557.7,504.4,557.7,504.4c0.4,9.3,0.7,18.5,1,27.8c0.2,5.5,0.3,10.9,0.5,16.4c0.3,12.3,0.7,24.7,1,37
		c0.2,5.8,0.3,11.6,0.5,17.4c0.1,2.2,0.7,2.8,2.9,2.8c1.7,0,3.3,0,5-0.2c6.2-1,12.5-1.1,18.8-1.2c4.8-0.1,8.7,1.4,12.3,4.4
		c2.3,1.9,3.6,4.2,4,7.2c0.3,2.7,1.1,3.2,3.8,2.6c2.9-0.7,5.8-1.5,8.6-2.2c9.1-2.3,18.1-4.6,27.2-7c2.2-0.6,2.6-1,2.7-3
		c0.3-5.9,0.6-11.9,0.9-17.8c0.2-5.3,0.4-10.6,0.7-15.9c0.4-8,0.9-16,1.3-24c0.3-5.5,0.5-11.1,0.7-16.6c0.4-7.8,0.8-15.7,1.2-23.5
		c0.3-6.4,0.7-12.7,0.9-19.1c0.1-2.7,0.2-5.5,0.2-8.2c0-2-0.8-2.7-2.8-2.6c-0.4,0-0.8,0.1-1.2,0.2c-7,1.2-14,2.5-21,3.7
		c-9.3,1.6-18.6,3.3-27.8,4.9c-8.8,1.5-17.6,3.1-26.4,4.6c-4.1,0.7-8.1,1.4-12.2,2.3c-2.6,0.5-2.8,0.8-2.8,3.5
		C557.7,500,557.7,502.2,557.7,504.4z M510.6,31.9c0,0.1,1.4-0.1,1.4,0c6-0.2,10.5-0.1,16.4-0.4c3.1-0.1,6.1-0.3,9.1-0.6
		c2-0.2,2.7-1.1,2.3-2.7c-0.8-3.2-2-6.2-5.5-7.4c-1.3-0.4-2.7-0.9-4-1.3c-2.2-0.6-4.4-1.3-6.7-1.8c-2-0.5-4-1.1-6.1-1.1
		c-12.8-0.1-25.7-0.1-38.5,0c-1,0-2.1,0.4-3.1,0.8c-2,0.7-3.9,1.7-6,2.3c-6.5,1.8-12.7,4.1-18.9,6.7c-5.8,2.5-10.7,6.2-15.6,10
		c-4.6,3.6-8.8,7.5-12.4,12.1c-2,2.6-3.2,5.2-3,8.6c0.4,8.1-0.7,16-2.7,23.8c-0.3,1.1,0.4,1.2,1.3,1.9c1,0.7,1.2,1.1,2,0.5
		c0.3-0.2,0.7-0.5,1-0.7c2-1.8,4.2-3.6,6.1-5.5c1.6-1.6,3.2-3.2,4.4-5c2-3.1,3.7-6.4,5.6-9.7c3.2-5.5,6.2-11.1,9.5-16.6
		c3-5,7.4-8.1,13.3-9c1.7-0.3,3.4-0.7,5.1-1.1c6-1.6,12-3.1,18.2-3.4C492.9,32.2,501.7,32.1,510.6,31.9z M398.8,78.8
		c0.8,3.5-0.7,7-2.5,10.5c-1.7,3.4-3.8,6.6-4.3,10.5c-0.7,5.5-2.4,10.6-4.3,15.7c-0.8,2.1,0.2,3.5,2.5,3.1c2.7-0.4,5.1,0.2,7.3,1.7
		c2.2,1.5,4.5,2.8,6.6,4.4c1.7,1.3,3.3,1.5,5,0.3c1-0.8,2.2-1.6,2.7-2.7c1.3-2.7,2.3-5.5,3.4-8.2c0.2-0.6,0.3-1.3,0.4-1.9
		c0.3-4.2,0.1-8.3-1.7-12.1c-0.6-1.3-1.1-2.8-1.6-4.2c-0.7-2-1.2-4-0.7-6.1c0.5-2.3,0.8-4.7,1.5-7c2.2-7,3.3-14.1,3.5-21.5
		c0.1-2.5,0-5,0.1-7.4c0.1-1.3,0.4-2.6,0.8-3.8c0.4-1.5,0.3-2.4-0.7-3.1c-1.2-0.8-2.4-1.5-3.6-2.2c-3.6-2-7.6-1.3-9.7,1.9
		c-3.2,4.9-5,10.4-6.8,15.9c-0.4,1.1-0.1,2,0.6,3c0.5,0.7,0.9,1.6,1,2.4C398.5,71.5,398.6,74.8,398.8,78.8z M628.5,31
		c-0.3-1.4-0.4-3.5-1.2-5.3c-1.9-4.2-4.4-8-8.1-10.8c-1.6-1.2-3.2-2.1-5.1-2.4c-4.5-0.8-8.9-1.6-13.4-2.3c-3.8-0.6-7.7-1.5-11.5-1.6
		c-9.4-0.2-18.9-0.3-28.3,0.6c-8,0.7-14,4.7-18.3,11.3c-1.8,2.7,1.5,9,4.7,9.1c1.9,0,2.3,0.1,4.2,0c1-0.1,2.2,0,3.5,0.1
		c1.8,0.1,3.1-0.3,4.8-0.7c5.1-1.2,10.1-2.5,15.1-3.8c1.5-0.4,3.1-0.9,4.6-0.9c7.7-0.1,15.4-0.8,23,0.2c5.1,0.7,9,3.1,11.8,7.4
		c1.7,2.7,3.2,5.6,5,8.3c1,1.6,2.3,3,3.8,4.2c2,1.6,4,0.7,4.3-1.7C627.8,39,628,35.3,628.5,31z M542.7,555.5c0,1.3,0,2.6,0,3.9
		c0.1,10.4,0.1,20.9,0.2,31.3c0,3.3,0.2,6.6,0.3,9.9c0,1.3,0.3,2.3,1.6,2.8c3.2,1.2,6.5,2.1,9.9,2.2c1.6,0.1,2.5-0.9,2.4-2.5
		c-0.1-2.8-0.2-5.6-0.3-8.4c-0.3-10.3-0.6-20.7-0.9-31c-0.3-9.1-0.4-18.2-0.7-27.3c-0.3-11.3-0.6-22.6-1-33.9
		c-0.1-1.7-0.1-3.3-0.4-4.9c-0.1-0.6-0.6-1.5-1.2-1.7c-1.5-0.4-3.1-0.6-4.6-0.6c-0.6,0-1.3,0.6-1.8,1.1c-1,1-1.7,2.2-2.7,3.2
		c-1.2,1.3-1.7,2.8-1.6,4.5c0.1,4.4,0.2,8.8,0.3,13.1c0.1,6.7,0.1,13.4,0.2,20.1 M370.5,78.8c-0.3,1.9,0.9,3.6,1.6,5.4
		c0.4,1,1,1.8,2.2,1.7c1,0,1.6-0.8,2-1.7c1.3-3.9,4.2-6.6,7.3-9.1c4.6-3.6,7.9-8.2,9.7-13.8c1.2-3.7,2.6-7.3,4.1-10.9
		c0.9-2.1,2.2-4.1,3.4-6c1.4-2.2,3.4-3.7,6-4c2.4-0.3,3.2-1.7,3.3-3.8c0-0.5,0.1-1,0.2-1.5c0.3-2.8,1.2-5.3,3.3-7.3
		c1.3-1.3,2.5-2.6,3.7-4c1.7-1.8,3.4-3.7,4.9-5.6c0.8-1,1.5-1.9,2.8-2.3c0.9-0.3,1.5-1.2,2.2-1.9c0.6-0.6,1-1.3,0.6-2.2
		c-0.4-1-1.3-1.2-2.3-1.1c-1.6,0.2-3.1,0.5-4.6,0.8c-4.7,1.1-9.3,1.3-14,0c-1.3-0.3-2.6-0.5-3.9-0.6c-2-0.2-2.7,0.5-2.8,2.5
		c-0.1,0.9,0,1.8-0.2,2.7c-1.3,7.5-3.6,14.8-6.4,21.9c-2,5.1-5.5,9.2-9.2,13.1c-1,1.1-2.1,1.8-3.7,0.9c-0.5-0.3-1.6-0.2-2,0.2
		c-0.6,0.5-0.9,1.3-1.1,2.1c-1.5,4.9-2.9,9.8-4.5,14.7C371.9,72,370.6,75.1,370.5,78.8z M413.3,39c-0.3,1.1,0.3,1.8,1.2,2.4
		c1.2,0.8,2.4,1.5,3.4,2.5c2.2,2.1,2.6,2.1,4.7-0.3c1.9-2.1,3.8-4.4,6-6.2c3.5-3,7.2-5.8,10.9-8.6c1.1-0.9,2.3-1.6,3.5-2.3
		c8.4-4.7,17.4-8.1,26.7-10.4c5.4-1.3,8.5-5.2,11.2-9.5c0.9-1.4,0.3-2.6-1.2-3.1c-1.6-0.5-3.4-1-5.1-1c-12,0-23.6,1.9-34.7,7
		c-5.1,2.4-9.3,5.6-12.9,9.7c-0.9,1.1-1.4,1.3-2.8,2.9c-0.9,1-0.9,0.7-1.7,1.7c-0.5,0.6-1.6,1.4-2.1,1.9c-1.7,1.6-3.4,3.4-5,5.2
		c-0.6,0.7-1,1.5-1.2,2.4C413.9,35.2,413.6,37.1,413.3,39z M539.5,586.8c-0.1,0-0.1,0-0.2,0c0-4.2,0-8.4,0-12.7
		c0-1.1-0.1-2.2-1.3-2.7c-1.2-0.4-2,0.2-2.8,1c-1,1-2,2-3.1,2.8c-7.4,5.9-11.8,13.7-14.1,22.7c-0.5,2,0.1,3,2.3,3.1
		c5.4,0.2,10.9,0.5,16.3,0.7c2.4,0.1,2.9-0.4,2.9-2.9C539.5,594.9,539.5,590.8,539.5,586.8z M395.4,79.1c-0.2-1.9-0.3-3.8-0.6-5.7
		c-0.3-1.8-2-2.3-3.3-1.2c-0.3,0.2-0.4,0.5-0.7,0.7c-2.1,2-4,4.1-6.3,6c-3.5,2.9-5.7,6.4-5.8,11c0,1.3-0.4,2.4-1.8,3
		c-0.9,0.4-1.6,1.2-1.4,2.1c0.4,2.6,0.2,5.3,1.4,7.8c1.3,2.7,2.6,5.4,3.9,8c0.6,1.2,1,2.7,2.7,2.4c1.6-0.2,1.9-1.7,2.2-3
		c0.9-3.6,1.8-7.2,2.6-10.8c0.3-1.4,0.6-2.8,1.1-4c1.3-3.1,2.8-6.2,4.3-9.2C395,84,395.7,81.7,395.4,79.1z M376.4,37.1
		c-0.1,3.9,0.9,7.5,1.5,11c0.3,1.5,2.2,1.9,3.3,0.7c2.3-2.5,4.8-4.9,6.4-7.8c2-3.5,3.5-7.3,4.8-11.1c1.9-5.5,3.7-11.1,4.1-17.1
		c0.1-1,0.3-2-0.7-2.4c-0.7-0.3-1.7-0.1-2.6,0c-0.3,0-0.6,0.3-0.8,0.5c-1.6,1.5-3.3,3-4.8,4.6c-1.5,1.6-2.8,3.5-4.4,5
		C378.4,25.2,376.7,31.2,376.4,37.1z"/>
	<path class="st0" d="M529.2,243.8c-15.4-0.4-19.1-3.1-22-5.1c-1.5-1-3.1-1.8-4.6-2.7c-0.6-0.3-1.1-0.7-1.5-1.2
		c-0.6-0.7-0.8-1.7-0.2-2.5c0.6-0.8,1.6,0.3,2.4,0.7c1.6,1.5,10.3,6.5,13.3,7.2c1.5,0.1,13.7,1.4,18.8,0.7c2.5-0.9,7.2-2.9,10-4.1
		c0.8-0.4,1.2-1,1.7-0.8c1.5,0.6,1.5,2,0.2,2.9c-3.7,1.5-9.7,4.2-11.4,4.5C533.6,243.8,531.5,243.8,529.2,243.8"/>
	<path class="st0" d="M548.9,199.5c-0.4,2-0.5,3.6-0.9,5.6c-0.6,2.7-2.4,4.3-5,5c-2.6,0.6-5.2,1.2-7.7,1.7c-0.5,0.1-1.1,0.1-1.4-0.2
		c-0.5-0.3-1.1-0.9-1.2-1.4c0-0.5,0.5-1.2,1-1.5c0.5-0.4,1.2-0.4,1.9-0.6c1.5-0.3,3.1-0.6,4.6-0.9c3.9-1,5.1-2.3,5.2-6.4
		c0-2.7-0.2-5.4-0.5-8.2c-0.5-4.8-1.2-9.5-2.7-14.1c-1.2-3.4-2.5-6.8-3.5-10.3c-1.7-5.7-2.6-11.6-3.2-17.5
		c-0.4-3.8-0.7-7.6-0.9-11.3c-0.1-0.7,0-1.5,0.4-2.2c0.3-0.5,1-1.1,1.4-1.1c0.6,0.1,1.2,0.7,1.6,1.3c0.3,0.4,0.2,1.1,0.2,1.7
		c0.5,12.1,2.2,24,6.5,35.4c2.3,6.2,3.6,12.5,4,19.1c0.1,1.8,0.3,3.1,0.5,4.9C548.9,198.8,549,199.1,548.9,199.5z"/>
	<path class="st0" d="M495.9,120.8c-0.1,3.5-1.6,6.4-3.9,8.9c-2.4,2.6-5.6,1.6-6.3-1.8c-1-4.1-0.5-6.2-0.2-10.3
		c0-0.9,2.3-3.9,2.9-4.5c2.8-2,3.4-1.5,6,1.6C496.2,117.2,496,117.8,495.9,120.8z"/>
	<path class="st0" d="M410.7,162.5c-0.2,1.6-1.2,4-2.5,4.1c-1.1-0.7-1.6-0.8-1.7-2.3c-0.3-0.7,0.1-1.9,0-2.6
		c-0.2-5.9-2.2-5.1-6.9-6.5c-1.8-0.8-2.4-3.1-0.8-4.2c0.6-0.4,1.7-0.1,2.5-0.1c2.1,0.1,2.1,0.1,4.2,0.5c2.7,0.5,5.4,9.1,5.2,11.2"/>
	<path class="st0" d="M578.5,119.1c-0.2,1.8-0.1,3-0.5,4.7c-0.3,1.3-0.8,2.6-1.5,3.6c-1.7,2.4-5.1,2.3-7-0.1c-1.7-2.2-1.7-4.8-1-7.1
		c0.7-2.3,2.1-4.5,3.5-6.5c0.9-1.3,2.4-2.3,4.1-1.6c1.7,0.7,2.4,2.2,2.5,4c0.1,0.7,0,1.5,0,2.2C578.6,118.4,578.4,119.1,578.5,119.1
		z"/>
	<path class="st0" d="M492.9,93.3c3.3-0.1,6.1,1.1,8.8,2.9c0.9,0.6,1.6,1.3,1.1,2.4c-0.4,1-1.4,1.2-2.8,0.6
		c-0.5-0.2-0.9-0.4-1.3-0.7c-5.3-2.9-10.2-1.7-15,1.1c-1.2,0.7-1.9,1.8-2.3,3.1c-0.3,1-0.8,1.9-2.1,1.6c-0.9-0.2-1.6-1.5-1.3-2.7
		c0.4-2.2,1.8-3.7,3.6-4.9C484.9,94.4,488.7,93.3,492.9,93.3z"/>
	<path class="st0" d="M576.7,93.1c2.1-0.2,4.2,0.4,6.3,1.6c0.5,0.3,1.1,0.7,1.3,1.1c0.2,0.6,0.2,1.5-0.1,2c-0.2,0.4-1.1,0.4-1.7,0.5
		c-0.4,0-0.8-0.3-1.1-0.5c-3.6-2.4-10.9-0.9-13.8,2.1c-0.4,0.4-0.8,0.9-1.3,1.1c-0.5,0.2-1.4,0.4-1.8,0.1c-0.5-0.4-0.9-1.4-0.7-1.9
		c0.3-0.9,1-1.7,1.7-2.3C568.5,94.4,572.2,93,576.7,93.1z"/>
</g>
</svg>
