<?xml version="1.0" encoding="utf-8"?>
<!-- Generator: Adobe Illustrator 25.2.3, SVG Export Plug-In . SVG Version: 6.00 Build 0)  -->
<svg version="1.1" id="레이어_1" xmlns="http://www.w3.org/2000/svg" xmlns:xlink="http://www.w3.org/1999/xlink" x="0px"
	 y="0px" viewBox="0 0 1024 640" style="enable-background:new 0 0 1024 640;" xml:space="preserve">
<g>
	<path d="M654.4,537.3c0.1-1.1,0.3-1.3,1.4-1.3c0.9,0,1.8,0.1,2.6,0.2c0.4,0,0.9,0.1,1.3,0.1c1.3,0.1,2.6,0.3,3.9,0.4
		c3.3,0.4,6.7,0.9,10.3,0.3c5.2-0.8,10.5-1.1,15.6-1.4c2.3-0.1,4.7-0.3,7-0.5c4.6-0.3,9.2-0.7,13.8-1c4.6-0.3,9.3-0.6,13.9-1
		c4.5-0.4,9.1-0.7,13.6-1c4.5-0.3,9-0.6,13.6-1c4.5-0.3,9-0.7,13.5-1c4.5-0.3,9-0.6,13.5-1c4.6-0.3,9.2-0.7,13.8-1
		c4.6-0.3,9.3-0.6,13.9-1l1.8-0.1c8.4-0.6,17.1-1.3,25.7-1.9c9.9-0.7,19.9-1.4,29.9-2.1l2.1-0.1c10.7-0.7,21.7-1.5,32.5-2.4
		c5.3-0.4,10.6-0.8,15.7-1.2c4.9-0.4,10-0.8,15-1.1c4.1-0.3,8.2-0.6,12.3-0.8c4.1-0.3,8.3-0.6,12.4-0.9c6.6-0.4,13.3-0.9,19.8-1.4
		c2.7-0.2,5.4-0.4,8.1-0.6c2.6-0.2,5.1-0.3,7.7-0.5l24-1.8c1.6-0.1,3.2-0.2,4.9-0.4c1.6-0.1,3.2-0.2,4.8-0.3l0.9-0.1v-5.6l-1.1,0.1
		c-1.9,0.1-3.8,0.3-5.6,0.4c-1.5,0.1-2.9,0.2-4.3,0.3l-17.8,1.2c-3.8,0.3-7.6,0.6-11.3,0.9c-3.7,0.3-7.5,0.6-11.2,0.8l-18.6,1.2
		l-23.2,1.8c-6.1,0.5-12.3,0.9-18.3,1.3c-7.5,0.5-15.2,1.1-22.7,1.7l-17.6,1.2c-7.9,0.6-16,1.2-24,1.8l-11.6,0.9
		c-3,0.2-6.1,0.5-9.1,0.6c-3,0.2-6.1,0.4-9.1,0.6c-1.5,0.1-2.2-0.4-2.8-1.6c-0.7-1.7-1.6-3.3-2.4-4.9c-0.3-0.6-0.6-1.2-0.9-1.9
		c-1-2.1-2-4.3-3.1-6.4c-3.7-7.8-7.5-15.8-11.6-23.5c-4.7-8.8-9.2-18.5-13.8-29.6c-1.1-2.7-2.2-5.7-2.6-8.7
		c-0.4-3.4-1.2-6.8-2.5-10.8c-0.9-2.8-1.9-5.6-2.8-8.4c-1.9-5.5-3.8-11.2-5.6-16.8c-1.2-3.6-2.4-7.3-3.5-10.9
		c-1.8-5.6-3.6-11.5-5.6-17.2c-2.3-6.6-5.9-12.3-10.9-17c-1.5-1.4-2.8-2.8-4.2-4.3c-0.5-0.5-1-1-1.4-1.5c-0.7-0.7-1.4-1.5-2-2.4
		c-1.3-1.6-2.7-3.3-4.5-4.6c-3.4-2.4-7.4-5.1-11.9-6.8c-2.6-0.9-5.3-2.3-7.8-4.2c-3.8-2.8-7.6-5.6-11.8-8
		c-8.6-4.7-17.6-9.4-27.5-14.3c-2.8-1.4-5.7-2.6-8.4-3.8c-2.8-1.2-5.6-2.4-8.3-3.7c-3.7-1.8-7.5-3.4-11.3-4.8l-0.4-0.1
		c-4.6-1.5-9.4-3.1-14.5-3.6c-2.9-0.2-5.8-0.8-8.7-1.3c-1-0.2-2-0.4-2.9-0.5l-0.3-0.1c-1.8-0.4-3.6-0.8-5.3-1.5
		c-4.5-1.9-7.8-3.8-10.4-6c-4-3.4-7.6-5.4-11.6-6.4c-1-0.3-2-0.7-3-1.3c-6.9-4-13.8-8.2-20.5-12.2c-0.2-0.1-0.6-0.4-0.7-0.8
		c-0.1-0.3,0.1-0.6,0.2-0.8c0.3-0.4,0.5-0.7,0.8-0.9l0.1-0.1c4.9-4.7,8.2-10.6,11.4-16.2c4.4-7.7,7.8-15.8,11.5-24.9
		c2.2-5.5,4.5-11,6.7-16.4c1.6-3.9,3.2-7.7,4.8-11.6c1-2.6,2-5.3,2.8-8.3c1-3.6,1.9-7.1,2.6-10.5c0.3-1.4,0.7-2.7,1-4.1
		c0.8-3,1.7-6.1,1.9-9.4c0.2-3,0.5-5.6,1-8c1.7-9.5,2.5-19,3.1-26.2l0.2-2.7c0.3-4.2,0.6-8.5,1.3-12.5c0.8-4.9,1.2-9.8,1.6-14.6
		c0.2-2.1,0.4-4.3,0.6-6.4l0.2-1.7c0.3-3.5,0.7-6.8,1.4-10c1.1-4.4,1.4-8.8,1.6-13.2c0.1-1.2,0.1-2.5,0.2-3.7c0.1-1,0.2-1.9,0.3-2.9
		c0.2-2,0.3-3.8,0.6-5.6c0.6-3.1,1.4-6.1,2.5-9.5c1.9-6,2.8-12.6,2.6-20.1c-0.1-2.7-0.2-5.5-1.9-7.9c-1.9-2.8-3.3-5.8-4.7-9
		c-0.6-1.3-1.1-2.6-1.8-3.9c-0.5-0.9-1.1-1.7-1.8-2.2c-3.1-2.5-6.4-4.9-8.5-6.5c-0.6-0.5-1.4-1-2.2-1c0,0,0,0,0,0c-1-0.1-2,0-3,0
		c-0.5,0-0.9,0-1.4,0h-2.1l1.3,1.6c1,1.3,2.1,2.2,3.1,3l0.5,0.4c1,0.9,0.9,1.2,0.8,1.6c-0.3,0.5-0.7,0.7-1.8,0.6
		c-0.7-0.1-1.4-0.2-2.2-0.3c-0.7-0.1-1.5-0.3-2.2-0.4c-1.2-0.2-2.4-0.4-3.6-0.6c-3.6-0.6-7.2-1.2-10.8-1.7c-3.2-0.4-6.4-0.3-9.5-0.2
		c-6.6,0.1-13.2,0.4-19.6,0.7c-6.6,0.3-11.9,2.3-16.2,5.9c-0.6,0.5-1.2,1-1.8,1.6c-0.3,0.3-0.5,0.5-0.8,0.8
		c-0.5,0.4-0.9,0.6-1.2,0.5c-0.3-0.1-0.7-0.4-1-1.1c-0.4-0.7-0.7-1.4-1.1-2.2c-0.5-1-1-2.1-1.6-3.1c-0.5-0.8-0.4-1.4,0.2-2.1
		c0.3-0.4,0.6-0.8,0.9-1.3c0.4-0.6,0.9-1.3,1.3-1.9l1-1.3l-1.6-0.2c-2.9-0.4-3.3-0.4-5.7,0.5c-0.4,0.2-1,0.2-1.2,0.1
		c-2.1-1.1-4.1-0.9-6.2-0.7c-0.4,0-0.9,0.1-1.3,0.1l-2.3,0.2l1.7,1.5c0.6,0.6,1.3,1,1.9,1.4c0.4,0.3,0.8,0.6,1.3,0.9
		c3.4,2.5,5.8,5.7,7.1,9.7c0.2,0.6,0.2,1.2,0,1.4c-0.2,0.2-0.7,0.3-1.4,0.2c-3-0.6-5.4-1.2-7.6-1.9c-3.4-1.1-6.6-1.6-9.8-1.6h-16.9
		c-1.5,0-3.1,0-4.6,0c-3,0-6.2,0-9.2,0c-1,0-1.5-0.3-1.6-0.5c-0.1-0.2-0.1-0.7,0.4-1.6L491.5,0H461c-6.5,0-12.5,1.3-17.9,4
		c-3.2,1.5-6.2,2.2-9.3,2c-4.9-0.3-9.2,0-13.1,1c-4.4,1.1-8.8,1-13-0.1c-1.5-0.4-1.9-0.6-1.9-1.2c-0.1-0.5,0-0.7,1.3-1.2
		c0.2-0.1,0.3-0.1,0.5-0.2c0.8-0.4,1.6-0.7,2.4-1c0.8-0.3,1.7-0.7,2.7-1.2l3.2-1.4l-3.4-0.5c-6.1-0.9-11.1-0.2-15.7,2.2
		c-0.3,0.1-1.5,0.6-1.9,1.7l0,0.1c-0.2,0.7-0.7,1.1-1.6,1.7c-0.2,0.2-0.5,0.3-0.7,0.5l-0.8,0.6c-1.7,1.2-3.5,2.4-5,3.9
		c-2.8,2.9-5.5,6-7.9,9.1c-5.4,7.2-7.3,15.1-5.5,23.5c0.7,3.3,1.2,6.8,0.4,10.2c-0.7,3.3-1.6,6.2-2.5,9c-0.4,1.4-1,2.8-1.5,4.2
		c-0.5,1.4-1.1,2.8-1.5,4.2c-1.4,4.3-2.5,9.9,0.5,15.5c0.2,0.3,0.4,0.8,0.5,1.3l0.1,0.4c1.4,3.7,2.7,7.6,2.9,11.9
		c0.1,1.6,0.7,3.2,1.3,4.6l0.2,0.4c0.9,2.2,1.9,4.2,2.9,6.2l0.5,1c1.4,2.8,2.1,5.8,2.1,9.2c0,0.3,0,0.5,0,0.8c0,1.2,0,2.5,0.2,3.8
		c0.2,1,0.1,2-0.4,3.3c-0.2,0.7-0.5,1.5-0.8,2.2c-0.8,2.3-1.7,4.7-2,7.2c-0.7,6.7-0.4,13.8,0.7,21.1c0.6,3.3,1.6,6.1,3.2,8.7
		c0.8,1.2,1.5,2.4,2.2,3.6c4.6,7.7,10.9,13.4,18.6,17.1c3.4,1.6,6.5,2.4,9.7,2.5c2.3,0.1,4,0.5,5.3,1.1c0.3,0.3,0.4,0.4,0.9,1.3
		c0.2,0.3,0.5,0.8,0.8,1.4l0.2,0.5c0.6,1.4,1.3,2.9,1.9,5.1c0.5,1.4,0.9,2.7,1.3,3.9l0.8,2.9c1.8,6.6,3.7,13.3,5.2,20
		c0.8,3.8,1.1,7.1,0.3,10.3c-0.3,0.9-0.3,1.9-0.3,2.8c0,0.2,0,0.4,0,0.6c0,0.9,0,1.7,0.1,2.5c0,1.2,0.1,2.4,0,3.6
		c-0.2,2.3-0.4,4.4-1.4,6.3c-2.8,5.3-5.9,9.2-9.6,12c-5.9,4.5-10.6,7.7-15.3,10.3c-6.6,3.9-12.3,9.2-16.7,15.8
		c-1.2,1.4-1.4,1.6-1.7,1.8c-0.3,0.2-0.6,0.4-1.3,1.1c-0.6,0.3-1.5,0.9-2.7,1.7c-0.5,0.4-1,0.7-1.3,0.9c-4.9,3-9.5,6.8-14.9,12.4
		c-9.8,10-20.1,17.4-31.5,22.4c-11.3,5.1-23.5,10-36.3,14.5c-7.9,2.7-15,5.9-21.7,9.7c-6.2,3.6-10.8,8.8-14.2,15.9
		c-2,4.2-4,8.8-6.6,15c-2.6,6.3-4.8,12.1-6.9,17.8c-1.3,3.4-2.4,7.1-3.7,11.7c-1.8,7-2.6,13.6-2.4,20.2c0.1,4.2,0.1,8.4,0,12.6
		c0,2.1,0,4.2,0,6.3c0,0.9,0,1.7-0.2,2.5c-0.5,3.2-1.1,6.2-1.7,9.5l-0.3,1.5c-2.3,13.1-4.7,26.3-7.1,39.1l-6.9,37.8
		c-1.2,6.4-2.3,12.8-3.5,19.2c-1.2,6.4-2.3,12.7-3.5,19.1c-3,16.1-6,32.5-8.8,48.4c-0.3,1.8-0.6,3.6-0.9,5.5l-0.2,1.1h5.5l0.2-0.8
		c0.2-1,0.4-1.9,0.6-2.8c0.9-4.9,1.8-9.8,2.7-14.7c0.9-4.9,1.7-9.7,2.7-14.7c2-11.3,4.1-22.8,6.2-33.9c2-11.1,4-22.6,6.1-33.9
		c2-11.3,4.1-22.8,6.2-33.9l1-5.1c1.9-10.5,4-21.3,5.8-32c0.2-0.9,0.3-1.9,0.5-2.8c0.5-2.7,1-5.5,1.1-8.3c0.1-4.7,0.1-9.5,0.1-14.1
		c0-3.5,0-7,0-10.5c0-1.8,0.2-3.6,0.5-5.5c0.1-0.5,0.1-1,0.2-1.5c1.4-8.9,4.7-17.4,7.9-25.6c3.4-8.4,7.1-16.9,10.3-24.2
		c2.9-6.4,6.9-11.1,12.5-14.2c5.7-3.2,11.4-5.9,16.9-7.8l1-0.3c11.4-4,23.3-8.2,34.5-13.4c0.9-0.4,1.8-0.9,2.7-1.3
		c6.7-3.1,13.7-6.3,19.8-11.1c1.2-0.9,2.4-1.9,3.6-2.8c4.7-3.7,9.6-7.4,13.5-12.1l0.5-0.5c0.9-1,1.8-2,2.7-2.7l1.5-1.1
		c3.5-2.7,6.9-5.2,10.5-7.5c4.2-2.7,7.8-6.5,11-11.5c1.5-2.5,3.8-4.1,5.6-5.3c0.5-0.3,1-0.5,1.2-0.4c0.3,0.1,0.6,0.6,0.8,1.3
		c0.9,3.2,1.8,6.4,2.9,9.6c1.4,4,2.5,8.1,3.4,12.5c0.9,4.9,2.3,9.8,4.5,14.9c3.2,7.5,8.6,13.7,16.3,18.7c4.1,2.6,8.5,5,12.8,7.3
		c2.1,1.1,4.3,2.3,6.5,3.5c2.7,1.5,6,3.2,9.5,3.7c1.6,0.2,3.1,0.5,4.7,0.8c5.5,0.9,11.2,1.9,16.9,1.9c0.4,0,0.9,0.1,1.4,0.2
		c0.4,0.1,0.8,0.2,1.1,0.2c0.6,0.1,1.2,0.2,1.8,0.3c2.1,0.4,4.3,0.8,6.6,1c4.5,0.2,9.2,0.2,13.6,0.2c9.2,0.1,17.9-2.3,25.1-4.6
		c13.7-4.4,25.6-9.4,36.5-15.3c3.9-2,6.8-4.3,9-7.1c1.7-2.2,3.5-4.4,5.3-6.5c0.6-0.8,1.3-1.5,1.9-2.3c0.5-0.6,1-1.2,1.6-1.9
		c1.4-1.7,2.9-3.4,4.1-5.2c3.8-5.8,7.6-11.8,11.2-17.6l0.4-0.6c0.8-1.2,1.6-2.4,2.5-3.6c0.7-1,1.1-1.1,2.2-0.4
		c0.1,0.1,0.2,0.2,0.3,0.2c0.1,0.1,0.3,0.2,0.4,0.3c3.5,3,7.5,5.4,12.1,7.2c2.5,1,4.9,1.7,7.3,2.1c2,0.4,4.1,0.7,6.2,1
		c2.8,0.4,5.6,0.8,8.4,1.4c4.2,0.9,8.7,2.3,14.4,4.4c1.9,0.7,3.8,1.6,5.6,2.5c1.5,0.8,3.1,1.5,4.7,2.2c10.6,4.4,21.2,9.4,31.6,14.9
		c6.3,3.4,13.6,7.4,20.3,12.6c2.1,1.6,4.6,3.1,7.2,4.2c3.7,1.5,7,3.4,10.1,5.1c2,1.2,3.6,2.5,5,4.2c0.5,0.6,1,1.2,1.5,1.8
		c2,2.4,4.2,4.9,6.5,7.1c4.9,4.5,8.5,10.1,10.8,16.7c2.3,6.6,4.4,13.4,6.4,20c1,3.3,2.1,6.7,3.2,10c1.8,5.6,3.7,11.4,5.6,16.9
		c0.6,1.9,1.3,3.7,1.9,5.5c0.2,0.7,0.5,1.5,0.8,2.2c0.5,1.3,1,2.5,1.1,3.7c0.2,5.3,1.9,9.9,3.5,13.7c4.8,11.5,9.5,21.6,14.3,30.7
		c2.5,4.6,4.8,9.5,7.1,14.2c0.8,1.6,1.5,3.2,2.3,4.8c0.9,1.9,1.9,3.9,2.8,5.8c1.4,2.8,2.8,5.8,4.2,8.7c0.4,0.8,0.5,1.4,0.3,1.7
		c-0.2,0.3-0.8,0.6-1.8,0.6c-1,0.1-2.1,0.2-3.1,0.2c-1,0.1-2.1,0.2-3.1,0.2c-4.6,0.3-9.2,0.7-13.7,1c-4.6,0.3-9.2,0.6-13.8,1
		c-4.5,0.3-9,0.7-13.5,1c-4.5,0.3-9,0.6-13.5,1c-4.6,0.3-9.2,0.7-13.8,1c-4.6,0.3-9.3,0.7-13.9,1c-8.8,0.6-17.7,1.2-26.6,1.9
		l-3.3,0.2c-2.9,0.2-5.8,0.5-8.6,0.7c-2.9,0.2-5.8,0.5-8.7,0.7c-3.9,0.4-8-0.1-11.9-0.7c-0.8-0.1-1.6-0.2-2.5-0.3
		c-3-0.3-3-0.3-2.9-3.6l0-0.6l0.1-0.8c0.3-4.3,0.6-8.4,0.7-12.6c0.2-3.9,0.4-7.7,0.5-11.6c0.2-3.8,0.3-7.7,0.6-11.6
		c0-1.8,0.2-3.6,0.2-5.4c0.1-1.8,0.2-3.7,0.3-5.5c0.1-1.6-0.3-2.9-1.1-3.7c-0.8-0.8-2-1.2-3.6-1.2c-0.7,0-1.3,0.1-1.9,0.2
		c-0.2,0-0.5,0.1-0.8,0.1c-2.8,0.5-5.6,1-8.4,1.5c-2.3,0.4-4.6,0.9-7,1.3c-14.1,2.6-28.2,5-41.3,7.3c-2.9,0.5-5.9,1-8.8,1.5
		c-4.9,0.8-10.1,1.7-15.1,2.7c-3.4,0.6-6.7,1.3-10,1.9c-3.3,0.6-6.6,1.3-9.9,1.9c-0.7,0.1-1.2,0.1-1.7-0.2c-1.9-0.6-3.1,0.4-3.9,1.2
		c-0.3,0.4-0.7,0.8-1,1.2c-0.6,0.8-1.3,1.6-1.9,2.3c-2.8,2.7-3.1,5.9-3,8.7c0.3,6.9,0.4,13.9,0.4,20.6c0,1.7,0,3.4,0.1,5.1
		c0,1.1-0.1,1.7-0.4,2c-0.3,0.2-0.9,0.3-1.9,0.2c-2.9-0.2-5.7,0.3-8.2,1.6c-0.5,0.3-1.1,0.5-1.6,0.8c-1.3,0.6-2.7,1.2-4,2
		c-6.5,3.4-12.3,7.6-18.9,12.8c-3.1,2.5-6.1,5-8.4,8.1c-5.3,7.2-8.6,14.3-10,21.7c-0.3,1.4-0.7,2.8-1.1,4.3l-0.2,0.6
		c-2.1,6.7-5.7,13-11.7,20.4c-0.5,0.4-1.2,0.8-1.8,1c-7.2,2.1-14.5,4.3-21.7,6.4c-7.3,2.1-14.5,4.2-21.7,6.4
		c-17.6,5.1-35.5,10.4-52.8,15.5c-1.4,0.4-1.9,0.3-2.1,0.2c-0.2-0.1-0.4-0.6-0.6-2c-0.1-1-0.2-1.9-0.3-2.9c-0.2-2.1-0.5-4.4-0.9-6.5
		c-1.4-8.4-3.3-17.5-6-27.7c-0.3-1.3-0.7-2.6-1.1-3.8c-0.7-2.6-1.5-5.2-1.9-7.9c-1.8-10.7-3.1-20.1-4-28.7
		c-1.2-11.7-3.6-24.1-6.9-36.7c-2.1-7.7-5.3-15.7-9.6-24.2c-2-3.9-4.4-7.5-7-10.5c-2.1-2.5-4.8-4.6-7.3-6.7c-0.6-0.5-1.2-1-1.8-1.5
		c-2.4-2.1-5.1-4.1-8.2-6.2c-1.9-1.3-4.2-1.9-6.6-1.7c-2.4,0.2-2.9,1.7-3,2.7c0,1.6,1.2,2.7,3,2.7c2.7,0,4.7,1.5,6.8,3.2l0.5,0.4
		c0.9,0.6,1.9,1.4,2.8,2.2c1,0.8,2,1.6,3,2.4c2,1.6,4,3.3,5.8,5.1c3.1,3.2,5.8,7.4,8.4,13c1.5,3.2,2.8,6.6,4,9.8l1,2.7
		c0.7,1.7,1.4,3.5,1.9,5.3c0.3,1.2,0.6,2.3,1,3.5c1.3,4.7,2.6,9.6,3.4,14.5c1.3,7.6,2.4,15.4,3.4,22.9c0.5,3.9,1.1,7.8,1.7,11.7
		c0.2,1.5,0.4,3,0.6,4.4c0.6,4.3,1.1,8.8,2,13c0.8,3.8,1.9,7.7,2.9,11.4c0.6,2.1,1.2,4.3,1.7,6.4c2.4,9.3,4,18,4.9,26.6
		c0.2,2.2,0.5,4.5,0.8,6.8l0.1,0.8l0.8,0c4.9,0.2,8.9,0.3,13-1.2c2.4-0.9,4.9-1.6,7.4-2.3c0.9-0.3,1.8-0.5,2.7-0.8
		c18.3-5.5,37-11,55.1-16.3l12.1-3.6c0.9-0.3,1.9-0.6,2.9-0.9c1.5-0.5,3.1-1,4.7-1.3c0.6-0.1,1.1-0.1,1.3,0.1
		c0.2,0.2,0.3,0.8,0.1,1.3c-0.1,0.4-0.3,0.8-0.4,1.1c-0.2,0.4-0.3,0.8-0.5,1.2c-1.5,3.8-2.4,7.2-2.8,10.6c-0.3,2.8-0.3,5.5-0.2,8.2
		c0,0.9,0,1.7,0,2.6v1h5.5v-1c0-0.7,0-1.4,0-2c0-1.2,0-2.4,0-3.6c0.1-2.4,0.2-4.9,0.7-7.2c1-5.2,3.2-10,5.1-13.9
		c0.3-0.5,0.6-1,1-1.5l0.4-0.5c0.9-1.4,1.9-2.7,2.9-4.1c1.2-1.6,2.5-3.3,3.6-5c4.1-6.2,6.7-11.9,7.9-17.6c1.2-5.6,2.6-9.7,4.4-13.3
		c2.4-4.7,5-9.2,9.1-12.7c9.7-8.1,18.1-13.7,26.5-17.5c2-0.9,3.9-1.2,5.8-1c2.3,0.2,2.4,0.2,2.4,2.4c0,2.6,0.1,5.3,0.1,7.9
		c0,2.7,0,5.3,0.1,8c0.1,2.4-0.2,5.1-0.5,6.6c-0.7,0.7-1,1.2-1.2,1.4l0,0c-1.4,2-3.4,3.8-5.6,5.6c-0.4,0.3-0.8,0.7-1.2,1
		c-4.7,4-8.4,8.3-11.1,13.1c-2.5,4.4-4,9.3-5.5,14c-0.5,1.7-1.1,3.4-1.6,5.1c-0.3,0.5-0.3,1-0.3,1.3c-0.3,1.4,0.3,2.6,1.6,3.2
		c1.4,0.5,2.6,0,3.4-1.1c0.7-1.2,1.6-1.4,3.2-1.3c0.5,0,0.9,0,1.4,0c0.9,0,1.8,0,2.7,0l1.7,0.1c7.1,0.3,14.5,0.5,21.5,3
		c6.8,2.4,13.9,1.8,20.7,1.3c0.9-0.1,1.8-0.1,2.8-0.2c1.4-0.1,2.7-0.2,4.1-0.3c2.5-0.2,5.2-0.4,7.8-0.6c1.3-0.1,2.7-0.1,3.9-0.1
		c1,0,2,0,3,0c2.3-0.2,4.1,0.6,6.4,2c4.7,2.9,4.6,8.3,3,12.1c-1.4,3.1-3.9,5.2-7.2,6.1l-0.8,0.2c-1.7,0.4-3.5,0.9-5.1,1
		c-6.3,0.4-11.1,0.5-15.5,0.4c-4.5-0.1-9.1-0.5-13.6-1l-2.4-0.2c-3.4-0.3-6.8-0.7-10.2-1.1c-4.4-0.5-9-1.1-13.6-1.5
		c-3.9-0.4-7.9-0.6-11.7-0.8c-1.3-0.1-2.6-0.1-4-0.2c-0.3,0-0.6-0.1-1-0.1c-0.5-0.1-1.2-0.2-1.8-0.2c-1,0.1-2.2,0.8-2.6,1.7
		c-0.3,0.6-0.4,1.2-0.2,1.8c0.2,0.7,0.9,1.4,1.8,1.8c0.6,0.2,1.2,0.3,1.9,0.4l10.6,0.9c2.1,0.2,4.1,0.3,6.2,0.5
		c4.3,0.3,8.8,0.6,13.1,1c2.5,0.2,5,0.6,7.4,0.9c1.7,0.2,3.4,0.5,5.1,0.7c8,1.1,16,1.1,24.2,1c2.3-0.1,4.6-0.2,7-0.5
		c4-0.5,8.9-1.2,12.9-4.6c0.2-0.2,0.5-0.3,0.7-0.3c0.3-0.1,0.5,0.1,0.6,0.2c0.2,0.2,0.3,0.4,0.2,0.7c-0.1,0.3-0.2,0.6-0.4,1
		c-0.1,0.2-0.1,0.3-0.2,0.4l-0.2,0.5c-0.7,1.5-1.5,3.1-2.3,4.8l-0.7,1.4h5.5l0.6,0l0.3-0.5c0.3-0.5,0.6-1,0.9-1.5
		c1.1-2.2,2.2-4.5,3.4-6.8c1-2,2.3-2.8,4.3-2.7c0.7,0.1,1.3,0,2,0c0.4,0,0.7-0.1,1.1-0.1c2.7,0.1,4.5,0.7,5.4,1.8
		c0.8,0.9,1.1,2.1,0.9,3.7c-0.1,1.2,0,2.3,0,3.5c0,0.6,0,1.1,0,1.7v1h5.5l0.2-0.8c0.8-4,2.5-7.5,4.3-10.6c1.9-3.6,4.4-5.3,7.9-5.3
		c2.2,0,2.7,0.4,2.8,2.3v1.5c-0.1,3.8-0.3,7.5-0.5,11.3l-0.1,1.6h5.4l0.1-0.9c0.4-4.9,0.7-15.9-1.2-18.4l-0.2-0.2
		c-1.9-1.6-5-2.7-7.5-2.7c-3.4,0.1-6.4,1.5-8.6,4c-1,1.2-2,2.6-2.8,3.9c-0.6,0.8-0.9,1-1.1,1c-0.1,0-0.5,0-1.1-0.6
		c-2.2-1.9-4.6-2.6-7-3.1c-0.5-0.1-1.5,0.1-3.9,0.5c-1.9,0.3-5.2,0.9-6.2,0.7l0,0c-0.1-0.1-0.1-0.1-0.1-0.1c0.2-0.5,1.8-1.4,8.3-2.7
		c0.8-0.2,1.5-0.3,1.8-0.4c0.2,0,0.3-0.1,0.4-0.1l0.2,0c3.8-1,7.6-2,11.4-3c3.8-1,7.6-1.9,11.4-2.9c0.3-0.1,0.6-0.2,0.8-0.2
		c0.5-0.1,1-0.3,1.4-0.3l-0.1-1c0,0,0,0,0,0l7-1.6c0,0,0,0,0,0l1,0c0.2-5,0.5-9.5,0.7-14c0.2-4.5,0.5-9,0.7-14l1.2-25.5
		c0.1-1.8,0.3-2,2-2c3-0.1,6-0.3,9.1-0.5l27.5-1.8c7.6-0.5,15.3-1,23-1.5c5.3-0.4,10.7-0.7,16.1-1c5.4-0.3,10.8-0.7,16.1-1
		c5.3-0.4,10.6-0.7,15.9-1c5.3-0.3,10.5-0.7,15.8-1l70.6-4.5c5.3-0.4,10.7-0.7,16.1-1c5.4-0.3,10.8-0.7,16.1-1
		c4.4-0.2,8.8-0.5,13.3-0.8c4.4-0.3,8.8-0.5,13.2-0.8c7.4-0.4,14.8-0.9,22-1.3l1.3-0.1c3.8-0.3,7.7-0.5,11.6-0.7l18.8-1.2
		c4.1-0.2,8.4-0.4,12.6-0.7c8.1-0.5,16.3-1,24.2-1.6l22.4-1.3l0.1,0c0.3-0.1,0.7-0.1,1-0.2c0.3-0.1,0.6-0.1,0.9-0.2l0.8-0.1v-5.1h-1
		c-0.3,0-0.6,0-0.9,0c-0.6,0-1.1,0-1.6,0l-0.1,0c-3.2,0.3-6.5,0.6-9.8,0.8c-8.8,0.5-17.8,1-26.7,1.6c-4.8,0.3-9.6,0.6-14.4,1
		c-4.8,0.3-9.5,0.6-14.4,0.9c-5.3,0.4-10.6,0.7-15.9,1c-5.2,0.3-10.5,0.6-15.8,1c-5.2,0.4-10.4,0.7-15.7,1c-5.2,0.3-10.4,0.6-15.5,1
		c-5.3,0.4-10.7,0.7-16,1c-5.3,0.3-10.6,0.6-15.9,1c-8.9,0.5-18,1-27,1.6c-4.7,0.3-9.4,0.6-14.1,1c-4.7,0.3-9.4,0.6-14.1,0.9
		c-8.2,0.6-16.7,1.1-24.9,1.5l-25.4,1.6c-3.7,0.3-7.4,0.5-11.1,0.7c-6.1,0.5-12.1,0.9-18.8,1.3l-20.3,1.2l-27.5,1.8l-1.1,0.1
		c-4.6,0.4-8.9,0.7-13.5,1c-2.4,0.2-4.5,0.4-6.6,0.4c-0.9,0-1.4-0.1-1.7-0.4c-0.2-0.3-0.4-0.8-0.3-1.6
		C654,545,654.2,541.1,654.4,537.3z M543.3,527.2c0-3.3,0-6.7-0.1-10l-0.3-13.1c-0.1-1.5,0.4-2.7,1.3-3.7c0.5-0.5,1-1.1,1.4-1.7
		c0.4-0.5,0.8-1,1.3-1.5c0.8-0.8,1.1-0.8,1.1-0.8c1.5,0,3,0.2,4.3,0.5c0.2,0.1,0.5,0.5,0.5,0.9c0.2,1.1,0.3,2.3,0.3,3.5
		c0,0.4,0,0.8,0.1,1.2c0.4,11.4,0.7,22.8,1,33.9c0.1,4.5,0.2,9.1,0.3,13.6c0.1,4.5,0.2,9.1,0.4,13.7l0.9,31l0.3,8.4
		c0,0.5-0.1,0.9-0.3,1.2c-0.3,0.3-0.7,0.3-1.1,0.3c-2.9-0.1-5.9-0.8-9.6-2.1c-0.6-0.2-1-0.6-1-1.9c0-1.1-0.1-2.2-0.1-3.3
		c-0.1-2.2-0.2-4.4-0.2-6.6c-0.1-5.2-0.1-10.5-0.1-15.7c0-5.2,0-10.4-0.1-15.6v-3.9h-1l-0.3-18.2c0,0,0,0,0,0l1,0
		C543.3,533.9,543.3,530.6,543.3,527.2z M615.9,615.4c-1.2,0.3-2.4,0.6-3.6,0.9c-1.6,0.4-3.3,0.9-4.9,1.3c-1.1,0.2-1.8,0.3-2,0.1
		c-0.3-0.2-0.4-0.8-0.6-1.8c-0.4-3.2-1.9-5.8-4.4-7.8c-3.8-3.2-7.8-4.6-12.5-4.6c-0.2,0-0.3,0-0.5,0c-6.2,0.1-12.7,0.2-18.9,1.2
		c-1.6,0.2-3.2,0.2-4.9,0.2c-1.6,0-1.8-0.2-1.9-1.8c-0.1-2.9-0.2-5.8-0.2-8.7c-0.1-2.9-0.2-5.8-0.2-8.7c-0.2-6.2-0.3-12.3-0.5-18.5
		c-0.2-6.2-0.4-12.3-0.5-18.5c-0.1-2.7-0.2-5.5-0.2-8.2c-0.1-2.7-0.2-5.5-0.3-8.2c-0.3-10.3-0.6-18.8-1-27.8v-6.5c0-2.1,0-2.1,2-2.5
		c4.1-0.9,8.1-1.6,12.2-2.3c4.4-0.8,8.8-1.5,13.2-2.3c4.4-0.8,8.8-1.5,13.2-2.3c4.2-0.7,8.4-1.5,12.6-2.2c5.1-0.9,10.1-1.8,15.2-2.7
		c3.5-0.6,7-1.2,10.5-1.9c3.5-0.6,7-1.2,10.6-1.9c0.3-0.1,0.7-0.2,1-0.2c0.7,0,1.2,0.1,1.4,0.3c0.3,0.3,0.3,0.9,0.3,1.3
		c0,2.8-0.1,5.6-0.2,8.2c-0.1,4.2-0.4,8.5-0.6,12.6c-0.1,2.2-0.2,4.3-0.3,6.5l-1.2,23.5l0,0.4c-0.2,5.3-0.4,10.8-0.7,16.2
		c-0.2,4-0.4,8-0.6,12c-0.2,4-0.5,8-0.7,12c-0.3,5.4-0.5,10.7-0.7,15.9l-0.9,17.8c-0.1,1.5-0.1,1.6-2,2.1
		C633,611.1,623.2,613.6,615.9,615.4z M393.8,11.3c0.6-0.1,1.3-0.2,1.7,0c0.1,0.1,0.2,0.1,0.1,1.1l0,0.3c-0.4,5.9-2.1,11.3-4,16.8
		c-1.6,4.6-3,8-4.7,10.9c-1.3,2.3-3.2,4.3-5,6.3c-0.4,0.4-0.8,0.9-1.2,1.3c-0.3,0.4-0.8,0.4-1.1,0.3c-0.2-0.1-0.4-0.2-0.5-0.5
		c-0.1-0.9-0.3-1.8-0.5-2.6c-0.5-2.6-1.1-5.3-1-8.2c0.3-6.8,2.5-12,6.5-15.9c1-0.9,1.8-2,2.7-3c0.6-0.7,1.2-1.4,1.8-2
		c1.1-1.2,2.4-2.3,3.6-3.4c0.4-0.4,0.8-0.7,1.2-1.1c0.1-0.1,0.2-0.2,0.2-0.2L393.8,11.3z M379.4,52.9c0.1-0.1,0.3-0.1,0.5-0.1
		c0.1,0,0.2,0,0.3,0c2.6,1.5,4.4-0.5,4.9-1.1c4.2-4.5,7.5-8.5,9.4-13.4c3.2-8,5.3-15.2,6.4-22c0.1-0.6,0.2-1.2,0.2-1.8
		c0-0.3,0-0.7,0.1-1.1c0-0.9,0.2-1.3,0.4-1.4c0.2-0.2,0.7-0.2,1.4-0.2c1.2,0.1,2.5,0.3,3.7,0.6c4.5,1.2,9.2,1.2,14.5,0
		c1.5-0.3,3-0.6,4.5-0.8c1-0.1,1.2,0.2,1.3,0.5c0.1,0.2,0.2,0.5-0.4,1.1c-0.2,0.2-0.4,0.4-0.5,0.6c-0.4,0.5-0.8,0.9-1.2,1.1
		c-1.6,0.5-2.4,1.5-3.3,2.6c-1.3,1.7-2.9,3.5-4.9,5.6c-1.2,1.4-2.4,2.7-3.6,3.9c-2.1,2-3.2,4.6-3.6,7.8c-0.1,0.5-0.2,1.1-0.2,1.6
		c-0.1,1.9-0.7,2.6-2.4,2.9c-2.7,0.3-5.1,1.9-6.7,4.5l-0.3,0.4c-1.2,1.8-2.3,3.7-3.2,5.7c-1.7,4.2-3.1,7.7-4.1,11
		c-1.7,5.3-4.9,9.8-9.4,13.3c-2.9,2.4-6.2,5.3-7.6,9.5c-0.5,1.1-0.9,1.1-1.2,1.1c-0.4,0-0.8,0-1.2-1.1c-0.2-0.5-0.4-1-0.6-1.4
		c-0.6-1.2-1.1-2.3-0.9-3.5l0-0.1c0.1-3.4,1.3-6.3,2.4-9.1l0.2-0.4c1.1-3.3,2.1-6.6,3-9.8c0.5-1.6,1-3.3,1.5-4.9
		C378.7,54,378.9,53.3,379.4,52.9z M388.6,115.8c2.1-5.7,3.7-10.6,4.4-15.9c0.4-2.9,1.7-5.4,3.1-8.1c0.4-0.7,0.7-1.4,1.1-2.1
		c1.7-3.3,3.5-7.2,2.6-11.1c-0.1-1.7-0.2-3.3-0.2-4.8c-0.1-2-0.2-4-0.3-6c-0.1-0.9-0.6-2-1.2-2.8c-0.6-0.9-0.7-1.4-0.5-2.1
		c1.7-5.3,3.6-10.9,6.7-15.7c1.8-2.7,5.2-3.4,8.4-1.6c1.2,0.7,2.4,1.4,3.5,2.1c0.4,0.3,0.7,0.6,0.3,2c-0.5,1.4-0.7,2.8-0.9,4.1
		c-0.1,1.2-0.1,2.5-0.1,3.7c0,1.2,0,2.5,0,3.7c-0.2,7.5-1.3,14.5-3.5,21.2c-0.5,1.6-0.8,3.2-1.1,4.7c-0.1,0.8-0.3,1.6-0.5,2.3
		c-0.6,2.4,0,4.6,0.7,6.7l0.3,0.7c0.4,1.2,0.9,2.4,1.4,3.6c1.9,4,1.8,8.3,1.6,11.5l0,0.2c-0.1,0.5-0.2,1.1-0.3,1.5
		c-0.3,0.8-0.6,1.6-1,2.4c-0.7,1.9-1.5,3.9-2.4,5.8c-0.3,0.7-1.1,1.3-1.9,2l-0.4,0.3c-1.3,0.9-2.4,0.8-3.8-0.3
		c-1.3-1-2.8-1.9-4.1-2.8c-0.8-0.5-1.7-1.1-2.5-1.6c-1.9-1.3-4-2-6.3-2c-0.6,0-1.2,0-1.7,0.1c-0.7,0.1-1.2,0-1.4-0.2
		C388.4,117.1,388.4,116.5,388.6,115.8z M538.8,29.4c-0.2,0.2-0.7,0.4-1.4,0.5c-3,0.3-6,0.5-9.1,0.6c-3.4,0.2-6.3,0.2-9.3,0.3
		c-2.2,0-4.4,0.1-6.9,0.1c-0.2,0-0.3,0-0.5,0v0l-1,0c-9.2,0.2-18.6,0.3-26.8,0.4c-6.2,0.3-12.3,1.8-18.4,3.4c-1.7,0.4-3.4,0.8-5,1.1
		c-6.1,0.9-10.8,4.1-14,9.5c-1.9,3.2-3.8,6.5-5.6,9.7c-1.3,2.3-2.6,4.6-3.9,6.9c-0.6,1.1-1.2,2.2-1.8,3.2c-1.2,2.2-2.4,4.4-3.7,6.4
		c-1.1,1.7-2.7,3.2-4.3,4.8c-1.3,1.3-2.7,2.5-4,3.7c-0.7,0.6-1.3,1.2-2,1.7c-0.1,0.1-0.3,0.2-0.5,0.3c-0.2,0.1-0.3,0.2-0.5,0.4
		c0,0,0,0-0.1,0c-0.1-0.1-0.2-0.1-0.3-0.2c-0.1-0.1-0.3-0.2-0.4-0.3c-0.2-0.2-0.4-0.3-0.6-0.4c-0.1-0.1-0.3-0.2-0.4-0.2c0,0,0,0,0,0
		c0,0,0-0.1,0-0.2c2.2-8.6,3.1-16.5,2.7-24.1c-0.2-2.8,0.7-5.2,2.8-7.9c3.2-4.2,7.1-7.9,12.2-11.9c5.1-4,9.9-7.5,15.4-9.9
		c7-2.9,13-5,18.8-6.7c1.3-0.4,2.5-0.9,3.7-1.4c0.8-0.3,1.6-0.7,2.4-1c0.9-0.4,1.9-0.7,2.7-0.7c12.8-0.1,25.7-0.1,38.5,0
		c1.7,0,3.3,0.4,5,0.9l0.9,0.2c1.6,0.3,3.1,0.8,4.6,1.2c0.7,0.2,1.3,0.4,2,0.6c0.6,0.2,1.3,0.4,2,0.6c0.7,0.2,1.4,0.5,2,0.6
		c2.9,1,4,3.4,4.9,6.7C538.9,28.8,539,29.2,538.8,29.4z M377.3,93.8c1.6-0.7,2.4-2,2.4-3.9c0.1-3.9,1.9-7.3,5.4-10.3
		c1.6-1.3,3-2.7,4.3-4c0.7-0.7,1.3-1.3,2-2c0.2-0.2,0.4-0.4,0.5-0.5c0-0.1,0.1-0.1,0.1-0.1l0.1-0.1c0.4-0.3,0.8-0.4,1.1-0.3
		c0.3,0.1,0.5,0.4,0.6,0.9c0.2,1.2,0.3,2.5,0.4,3.7c0.1,0.6,0.1,1.3,0.2,1.9l0,0c0.3,2.2-0.2,4.2-1.6,6.5c-1.4,2.7-2.9,6-4.3,9.3
		c-0.5,1.3-0.8,2.7-1.2,4.2c-0.8,3.6-1.7,7.2-2.6,10.8l0,0.1c-0.3,1.5-0.6,2-1.4,2.1c-0.6,0.1-0.8-0.1-1.4-1.3
		c-0.1-0.2-0.2-0.4-0.3-0.5c-1.3-2.6-2.6-5.2-3.9-8c-0.8-1.6-0.9-3.3-1.1-5.1c-0.1-0.8-0.1-1.6-0.3-2.5
		C376.4,94.4,376.8,94,377.3,93.8z M381.6,136.1c1.5-4.3,3.2-8.5,7.1-11.3c2.5-1.9,3.9-1.9,6.4-0.4c2.2,1.4,4.4,2.9,6.5,4.4
		c1.4,0.9,2.7,1.9,4.2,2.8c1.2,0.7,2.6,1.5,4.3,2c1.9,0.5,2.9-0.2,3.3-0.6c0.8-0.8,1-2.1,0.5-3.6c-0.3-0.8-0.2-1.4,0.6-2.5
		c2.8-4,4.8-8.5,5.6-13.1c1-5.4,0.4-10.7-1.8-15.4c-0.2-0.5-0.5-1.1-0.7-1.7c-0.2-0.6-0.5-1.2-0.7-1.8c-1-2.1-1-4.4-0.2-7.3
		c0.3-1,0.7-1.2,0.8-1.2c0.1,0,0.5-0.1,1.4,0.6c1.9,1.5,2.9,1.7,4.9,0c4.3-3.9,7.9-7.2,11.1-10.3c1.2-1.2,1.9-2.6,2.7-4
		c0.2-0.3,0.3-0.6,0.5-0.8c1.7-2.9,3.3-5.9,5-8.8c2.4-4.3,4.8-8.7,7.4-13c1.2-2.2,2.5-4.6,4.7-5.9c2.1-1.1,4-1.9,5.7-2.4
		c2.9-0.8,5.9-1.5,8.8-2.2c0.9-0.2,1.8-0.4,2.8-0.6c5.2-1.3,10.9-2,17.2-2.1c11.8-0.1,24-0.2,36-0.5c3.9-0.1,7.8-0.4,11.5-0.7
		c1.9-0.2,3.9-0.3,5.8-0.5c1.2-0.1,2.4-0.1,3.6-0.2c3.2-0.2,6.5-0.3,9.8-0.9c4.5-0.8,9-1.8,13.4-2.8c1.9-0.4,3.8-0.9,5.7-1.3
		l1.3-0.3c2.1-0.4,4.1-0.8,6.1-0.9c5.2-0.1,10.4-0.1,15.6,0c1.2,0,2.6,0.2,4.2,0.5c3.2,0.6,5.7,2.2,7.4,4.8c1.5,2.2,2.9,4.6,4.5,7.3
		c1.9,3.3,4.2,6.6,8.4,8.2c1,0.4,1.2,0.7,0.9,2.1c-0.2,0.9-0.4,1.8-0.6,2.7c-0.5,1.9-1,3.9-1.2,5.9c-0.3,3-0.5,6.1-0.7,9.1
		c-0.1,2-0.3,4-0.4,6.1c0,0.4,0,0.7-0.1,1c-0.1,1.4-0.1,2.7-0.4,4c-2.1,8.2-2.6,16.8-3.2,25l-0.2,2.7c-0.1,1.4-0.3,2.7-0.6,4.3
		c-1.5,7.7-2,15.7-2.5,23.4l0,0.1c-0.6,8.9-1.7,17-3.2,24.7c-0.2,1.1-0.3,2.2-0.4,3.3c-0.1,0.6-0.1,1.1-0.2,1.7
		c-0.4,4.4-1.5,8.8-2.6,13c-0.6,2.4-1.3,5-1.8,7.5c-1.2,6.3-3.8,12.4-6.3,18.3l-0.9,2c-1.1,2.6-2.1,5.1-3.2,7.7
		c-2.1,5-4.2,10.3-6.4,15.4c-2.9,6.7-6,13.6-9.4,20.1c-3.9,7.9-9.6,15.2-16.9,21.7c-1.7,1.5-3.7,2.7-5.7,3.9l-0.6,0.3
		c-4.5,2.8-9.1,5.4-13.7,8c-1.7,1-3.9,1.9-5.9,2.3c-1.1,0.2-2.1,0.6-3,0.8c-1,0.3-1.8,0.6-2.7,0.7c-1.1,0.2-2.1,0.4-3.1,0.5
		c-2.3,0.4-4.5,0.9-7.2,0.7c-2-0.2-4-0.4-6-0.5c-2.2-0.2-4.3-0.4-6.4-0.6l-0.5-0.1c-1.4-0.2-2.9-0.4-4.2-0.8l-1.6-0.4
		c-2.2-0.5-4.2-1-6.2-1.6c-1.5-0.7-2.1-0.9-2.6-1c-0.2-0.1-0.4-0.1-0.7-0.3c-2.1-0.8-4.1-1.7-6.2-2.6c-1.7-0.7-3.4-1.4-5-2.1
		c-2.6-1.1-5.1-2.7-7.4-4.8c-1.2-1.1-2.5-2.1-3.7-3.1c-0.8-0.6-1.6-1.3-2.4-1.9l-2.4-2.1c-3.5-3.3-6.9-6.6-10.3-10
		c-6.2-6.2-12.1-13.4-17.7-21.4c-0.6-1-1.3-1.9-2-2.9c-1-1.4-2-2.9-2.9-4.3c-0.6-1-0.9-2.1-1.2-3.2c-1.8-8.5-4.3-17.3-7.6-27.1
		c-0.7-2-1.3-3.1-2-4.5l-0.3-0.7l-0.1-0.1c-0.8-1.2-1.6-2.4-2.6-3.3c-1.6-1.7-3.1-2.7-4.6-2.9c-0.3,0-0.7-0.1-1-0.2
		c-0.6-0.1-1.2-0.2-1.8-0.2c-6-0.3-11.4-2.5-16.5-6.9c-3.2-2.7-6-6-9.1-10.7c-4.7-6.8-5.1-14.4-5.1-22.9c0-0.4,0-0.9,0-1.3
		C380.8,141.6,380.7,138.7,381.6,136.1z M620.1,39.6c-1-1.5-1.9-3.1-2.8-4.7c-0.7-1.2-1.4-2.4-2.2-3.6c-2.9-4.5-7-7.1-12.5-7.8
		c-3.1-0.4-6.3-0.5-9.4-0.5c-2.6,0-5.2,0.1-7.7,0.2c-2,0.1-4,0.1-6,0.2c-1.4,0-2.9,0.4-4.3,0.8l-0.6,0.2c-4.9,1.3-10,2.6-15.1,3.8
		l-0.7,0.2c-1.4,0.3-2.4,0.6-3.8,0.5l-0.2,0c-1.3-0.1-2.5-0.2-3.5-0.1c-1.2,0.1-1.7,0-2.5,0c-0.5,0-1,0-1.6,0
		c-1.1,0-2.5-1.3-3.4-3.1c-0.9-1.8-1.1-3.6-0.5-4.5c4.3-6.6,10.2-10.2,17.6-10.9c9.4-0.9,19.1-0.8,28.2-0.6c2.7,0.1,5.6,0.6,8.3,1.1
		c1,0.2,2,0.4,3.1,0.5c3.9,0.6,7.6,1.3,11.6,2l1.8,0.3c1.5,0.2,2.9,0.9,4.7,2.2c3.2,2.4,5.7,5.8,7.8,10.4c0.5,1.2,0.7,2.5,0.9,3.7
		c0.1,0.5,0.1,0.9,0.2,1.3c-0.3,2.3-0.5,4.5-0.6,6.6c-0.1,1.7-0.3,3.3-0.5,4.9c-0.1,0.8-0.4,1.4-0.9,1.6c-0.5,0.2-1.1,0-1.8-0.5
		C622.3,42.4,621.1,41.1,620.1,39.6z M432.1,249c0-1.2,0-2.5,0-3.7c0-1.3,0.1-2.5,0.1-3.8c0-0.5,0-0.9,0.1-1.4
		c0-0.1,0.1-0.8,0.5-0.8c0.5,0,1.2,0.3,1.3,0.4c0.6,0.8,1.2,1.6,1.8,2.4c0.6,0.9,1.2,1.7,1.9,2.5c5,6.3,10.3,12.9,16.7,18.5
		c1.3,1.1,2.4,2.3,3.7,3.6c0.6,0.7,1.2,1.3,1.8,1.9c0.9,1,1.8,1.9,2.9,2.9c1.6,1.4,3.2,2.7,4.9,4.1c1.6,1.3,3.2,2.7,4.8,4
		c2.6,2.2,5.8,3.6,8.8,4.8l9.6,3.9c1.5,0.7,1.9,0.7,3.1,1l0.6,0.1c0.8,0.1,1.4,0.4,2.2,0.6c0.7,0.2,1.6,0.5,2.8,0.9
		c5.5,1.2,14.4,2.7,21.1,2.8c3,0.1,5.5-0.3,8-0.6c1-0.1,1.9-0.3,3-0.4c1.9-0.4,2.4-0.5,3.3-0.9c0.3-0.1,0.8-0.3,1.3-0.4
		c3.8-0.7,7.4-2.1,10.6-4c3.1-1.7,6.2-3.6,9.2-5.4c2.2-1.3,4.4-2.7,6.6-3.9l0.2-0.1c0.4-0.2,0.9-0.5,1.4-1c1.8-1.9,3.9-2,7-0.3
		c3.3,1.8,6.7,3.8,10.6,6.3c0.7,0.4,1.3,0.8,2,1.3c3.4,2.2,7,4.5,10.9,6c0.5,0.2,0.8,0.4,0.9,0.6c0,0.1,0.1,0.5-0.5,1.5
		c-3.2,5.1-6.5,10.2-9.6,15.1c-1.2,1.9-2.2,3.6-3.4,5.1c-1.7,2.4-3.6,4.7-5.5,6.9c-0.6,0.7-1.2,1.5-1.9,2.2c-1.2,1.5-2.5,3-3.6,4.5
		c-2.9,3.8-6.4,6.8-10.8,9c-9.4,4.9-19.6,8.8-29.4,12.5l-2.5,1c-7.3,2.8-14.8,4-21.8,4.9c-2.1,0.3-4.4,0.2-6.2,0.2
		c-0.7,0-1.3-0.1-1.9-0.1l0,0c-1.1,0-2.1,0.1-3,0.1c-3.7,0.2-6.6,0.3-9.7,0.1c-1.9,0-3.7-0.3-5.6-0.7c-0.4-0.1-0.9-0.2-1.4-0.2
		c-3-0.4-5.9-1-8.8-1.6c-2-0.3-4-0.8-5.9-1.1c-2-0.4-4-0.8-6-1.2c-3.7-0.7-6.9-2.5-10.2-4.3l-0.4-0.2c-2.9-1.6-5.8-3.2-8.6-4.8
		c-2.9-1.6-5.8-3.3-8.6-4.8l-0.4-0.3c-0.3-0.2-0.5-0.3-0.8-0.5c-7.5-5.7-12.1-12.2-14.2-19.9c-0.6-2.2-1.2-4.5-1.7-6.8
		c-0.4-1.6-0.8-3.2-1.2-4.7c-1-3.6-2-7.4-3.1-11c-0.4-1.3-0.8-2.6-1.2-3.9c-0.5-1.5-1-3-1.4-4.5c-0.1-0.5-0.2-1.1-0.2-1.7
		c0-0.3,0-0.6-0.1-0.9c-0.1-1.4,0.4-2.1,1.7-3l0.7-0.5c3.6-2.4,7.1-4.6,10.4-7.3c4.7-3.8,8.5-8.4,11.4-14.3
		C431.5,253.8,432.1,251.3,432.1,249z M480.3,5.1c0.1,0.3-0.1,0.7-0.2,0.9c-2.9,4.6-5.8,7.9-10.6,9.1c-9.7,2.4-18.8,5.9-27,10.5
		c-1.2,0.7-2.5,1.4-3.6,2.4c-3.6,2.8-7.4,5.6-10.9,8.6c-1.8,1.5-3.5,3.3-5,5.1c-0.4,0.4-0.7,0.8-1.1,1.2c-0.4,0.4-1.3,1.5-1.6,1.5
		c-0.3,0-1.3-0.9-1.6-1.2c-0.9-0.9-1.9-1.5-2.9-2.2l-0.7-0.4c-0.9-0.6-0.9-0.9-0.8-1.3l0.9-5.7c0.2-0.7,0.5-1.4,1-2
		c1.8-2,3.4-3.7,5-5.2c0.2-0.2,0.5-0.4,0.7-0.7c0.5-0.4,1.1-0.9,1.4-1.3c0.4-0.5,0.5-0.6,0.7-0.7c0.2-0.2,0.5-0.4,1-0.9
		c0.7-0.8,1.1-1.2,1.6-1.6c0.4-0.4,0.8-0.7,1.2-1.3c3.6-4.1,7.7-7.1,12.6-9.5c10.1-4.6,21.3-6.9,34.3-6.9c1.5,0,3.2,0.5,4.8,0.9
		C479.9,4.6,480.2,4.9,480.3,5.1z M538.5,587.8v11c0,1.2-0.1,1.6-0.3,1.7c-0.1,0.1-0.5,0.2-1.6,0.2c-2.7-0.1-5.4-0.2-8.1-0.3
		c-2.7-0.1-5.5-0.3-8.2-0.4c-0.7,0-1.2-0.2-1.4-0.4c-0.2-0.2-0.2-0.7,0-1.4c2.4-9.5,6.9-16.7,13.7-22.1c1.2-0.8,2.2-1.9,3.2-2.9
		c0.6-0.6,1-0.8,1.4-0.8c0.1,0,0.2,0,0.3,0.1c0.5,0.2,0.7,0.6,0.7,1.8v13.7H538.5z"/>
	<path d="M503.2,231.8c-0.6-0.4-2.1-1.4-3.1-0.1c-0.8,1.1-0.7,2.6,0.2,3.7c0.5,0.6,1.1,1.1,1.8,1.4c0.6,0.3,1.2,0.7,1.8,1
		c0.9,0.5,1.9,1.1,2.8,1.7l0.1,0.1c2.9,2,6.9,4.8,22.4,5.2l0,0c2.3,0,4.5,0,6.9-0.4c1.2-0.2,4-1.4,8.1-3.1c1.3-0.5,2.5-1,3.5-1.5
		l0.2-0.1c1-0.7,1.5-1.6,1.4-2.6c-0.1-0.9-0.7-1.7-1.8-2.1c-0.8-0.3-1.5,0.1-1.9,0.5c-0.2,0.1-0.4,0.3-0.5,0.4
		c-3.1,1.3-7.4,3.2-9.8,4c-4.3,0.6-13.6-0.3-17.2-0.6c-0.6-0.1-1-0.1-1.3-0.1c-2.8-0.7-11.3-5.5-12.8-6.9l-0.2-0.2
		C503.6,232,503.4,231.9,503.2,231.8z"/>
	<path d="M533.3,212.4c0.4,0.4,1,0.5,1.4,0.5c0.3,0,0.6,0,0.8-0.1c2.5-0.5,5.2-1.1,7.8-1.7c3.1-0.8,5.1-2.8,5.7-5.8
		c0.2-1,0.3-2,0.5-2.9c0.1-0.9,0.2-1.8,0.4-2.7c0-0.2,0.1-0.3,0.1-0.5c0,0,0-0.1,0-0.1l0.3-0.3l-0.1-0.5c-0.1-0.5-0.1-0.9-0.2-1.4
		c-0.1-1.2-0.3-2.2-0.3-3.5c-0.4-6.8-1.7-13.1-4.1-19.4c-3.8-10.1-5.9-21.3-6.4-35c0-0.1,0-0.2,0-0.3c0-0.6,0-1.4-0.4-1.9
		c-0.3-0.5-1.1-1.5-2.3-1.7l-0.2,0c-1,0-1.9,1.1-2.3,1.6c-0.5,0.8-0.7,1.8-0.5,2.8c0.2,3.8,0.5,7.6,0.9,11.3
		c0.7,7.1,1.7,12.7,3.2,17.7c0.8,2.7,1.8,5.4,2.7,8c0.3,0.8,0.6,1.6,0.8,2.3c1.6,4.8,2.2,9.7,2.7,13.9c0.3,3.1,0.5,5.7,0.5,8.1
		c-0.1,3.6-0.9,4.5-4.4,5.4c-0.7,0.1-1.5,0.3-2.3,0.4c-0.8,0.2-1.6,0.3-2.4,0.5c-0.2,0.1-0.4,0.1-0.6,0.1c-0.5,0.1-1.1,0.2-1.6,0.6
		c-0.7,0.5-1.4,1.4-1.4,2.3l0,0.2C531.9,211.3,532.8,212.1,533.3,212.4z"/>
	<path d="M487.8,112.3l-0.1,0.1c-0.3,0.3-3.2,3.7-3.2,5.1c-0.1,0.8-0.1,1.4-0.2,2.1c-0.3,2.9-0.5,5,0.4,8.5c0.4,2,1.6,3.5,3.3,3.9
		c0.4,0.1,0.7,0.1,1.1,0.1c1.3,0,2.6-0.6,3.7-1.8c2.7-2.9,4.1-6.1,4.2-9.5l0-0.7c0.1-2.5,0.1-3.4-1.8-6.1
		C492.5,110.9,491.3,109.8,487.8,112.3z"/>
	<path d="M399.2,156.1l0.1,0c0.9,0.3,1.6,0.4,2.3,0.6c3,0.7,3.7,0.9,3.9,5l0,0.1c0,0.2,0,0.5,0,0.8c-0.1,0.6-0.1,1.3,0.1,1.9
		c0.1,1.6,0.8,2.1,1.8,2.7l0.6,0.4l0.3,0c2.1-0.2,3.2-3.4,3.4-5l0,0c0.2-2.3-2.5-11.5-6-12.2c-2.1-0.4-2.2-0.4-4.4-0.5
		c-0.2,0-0.4,0-0.7,0c-0.8-0.1-1.7-0.2-2.4,0.3c-1,0.7-1.5,1.7-1.3,2.8C397,154.3,397.9,155.5,399.2,156.1z"/>
	<path d="M576.5,111.2c-1.9-0.8-3.9,0-5.3,2c-1.4,2-2.9,4.3-3.6,6.8c-0.9,3-0.5,5.8,1.2,8c1.1,1.4,2.7,2.2,4.4,2.2c0,0,0.1,0,0.1,0
		c1.6,0,3.1-0.8,4-2.2c0.9-1.3,1.4-2.9,1.7-3.9c0.3-1.2,0.3-2.1,0.4-3.1c0-0.5,0.1-1.1,0.1-1.7l0.1-0.6c0-0.1,0-0.2,0-0.3
		c0,0,0,0,0,0l0-0.2h0c0-0.2,0-0.3,0-0.5c0-0.5,0-1.1,0-1.6C579.4,113,577.8,111.7,576.5,111.2z"/>
	<path d="M479.1,105.3c0.2,0.1,0.5,0.1,0.7,0.1c1,0,2-0.5,2.6-2.4c0.4-1.2,1-2,1.8-2.5c5.3-3.1,9.6-3.5,14-1.1
		c0.4,0.3,0.9,0.5,1.4,0.8c1.1,0.5,2,0.5,2.8,0.2c0.6-0.2,1.1-0.7,1.3-1.3c0.6-1.4,0.1-2.6-1.5-3.6c-3.3-2.2-6.3-3.2-9.4-3.1
		c-4.5,0-8.5,1.2-11.8,3.6c-2.3,1.6-3.6,3.3-4,5.5c-0.2,0.9-0.1,1.9,0.4,2.7C477.9,104.7,478.4,105.1,479.1,105.3z"/>
	<path d="M563.9,101.9c0.4,0.3,0.8,0.4,1.2,0.4c0.7,0,1.4-0.2,1.6-0.3c0.6-0.2,1-0.7,1.4-1.1l0.2-0.2c2.5-2.6,9.3-4.1,12.5-2
		l0.1,0.1c0.4,0.2,0.9,0.6,1.6,0.6l0.2,0c0.1,0,0.2,0,0.4,0c0.7-0.1,1.7-0.2,2-0.9c0.5-0.8,0.5-2.1,0.2-2.8l-0.1-0.1
		c-0.3-0.6-1-1.1-1.7-1.5c-2.4-1.3-4.7-1.9-6.8-1.7c-4.5-0.1-8.5,1.3-11.8,4c-0.7,0.6-1.6,1.6-2,2.7
		C562.5,99.8,563.1,101.2,563.9,101.9z"/>
</g>
</svg>
