<?xml version="1.0" encoding="utf-8"?>
<!-- Generator: Adobe Illustrator 25.2.3, SVG Export Plug-In . SVG Version: 6.00 Build 0)  -->
<svg version="1.1" id="레이어_1" xmlns="http://www.w3.org/2000/svg" xmlns:xlink="http://www.w3.org/1999/xlink" x="0px"
	 y="0px" viewBox="0 0 1024 640" style="enable-background:new 0 0 1024 640;" xml:space="preserve">
<g>
	<path d="M1022.7,366.5c-2.7,2.2-5.2,4.5-8,6.5c-1.2,0.9-2.7,1.5-4,2.1c-7,3.6-13.8,7.4-21,10.7c-8.6,3.9-17.6,6.7-27.3,6.7
		c-6.8,0-13.4-0.9-20-2.1c-4.4-0.8-8.4-2.6-12.3-4.7c-5.7-3.1-10.8-7.1-15.8-11.3c-4.3-3.6-6.9-8.4-9.3-13.6c-1.3,0.1-2.7,0.2-4,0.5
		c-11.8,2.1-23.7,4-35.4,6.2c-14.1,2.7-25.2,10.2-33.7,21.7c-8.8,11.9-17.6,23.8-26.3,35.8c-1.7,2.3-3.1,4.8-4.5,7.3
		c-3.8,6.8-7.4,13.6-11.1,20.4c-2.1,3.9-4.1,7.8-6.2,11.7c-1.7,3.2-3.6,6.2-5.3,9.4c-3.1,5.7-6.1,11.4-9.1,17.2
		c-0.4,0.7-0.5,1.4-1,2.6c2.8-0.6,5.2-1.2,7.6-1.6c6.8-1.1,13.5-1.5,20.2,0.8c6.3,2.1,11.1,6.2,14.6,11.9c0.2,0.4,0.5,0.8,0.7,1.2
		c0,0.1,0.1,0.1,0.3,0.3c0.4-0.3,0.9-0.5,1.3-0.8c0.3-0.2,0.6-0.6,0.9-0.8c7.4-4.8,13.4-11.3,20.5-16.6c1.6-1.2,3-2.9,4.3-4.5
		c1.9-2.2,3.7-4.4,5.4-6.7c0.5-0.7,0.8-1.5,1.1-2.3c0.5-1.3,1.2-2,2.4-2c1.2,0,2.2,0.7,2.5,2.2c0.2,0.7,0.2,1.4,0.2,2.1
		c0,3.2-0.2,6.4-0.1,9.6c0.3,7.6-0.5,15-2.1,22.4c-0.3,1.5-0.6,3-0.9,4.6c0.5,0,1.1,0,1.7-0.1c2.8-0.2,5.6-0.7,8.3-0.7
		c6.5-0.1,13-0.1,19.4,0.1c3.6,0.1,7.1,0.9,10.7,1.5c16.4,2.6,32.8,5.3,49.3,8c10.3,1.7,20.7,3.4,31,5c3.2,0.5,6.5,0.9,9.8,1
		c15,0.6,30.1,1.1,45.1,1.6c0,1.8,0,3.5,0,5.3c-2-0.1-4-0.3-6-0.4c-11.9-0.4-23.8-0.8-35.7-1.2c-6.2-0.2-12.3-0.9-18.4-2
		c-0.8-0.1-1.6-0.2-2.2-0.3c-0.3,0.3-0.5,0.3-0.5,0.5c-1.9,4.3-5.7,6.1-9.8,7.4c-1.7,0.6-3.1,1.5-4.4,2.8c-1.9,1.9-4.1,3.6-6.2,5.2
		c-2.3,1.8-4.7,3.4-7,5c-6.2,4.2-12.8,7.5-19.7,10.3c-5.6,2.3-11.3,4.4-16.8,7.1c-3.3,1.6-6.2,3.9-9.3,5.9
		c-3.4,2.3-6.8,4.6-10.2,6.8c-1.5,1-3,1.2-4.8,1.1c-4.3-0.3-8.7-0.1-12.8-1.5c-4.6-1.7-9.4-2.7-14.2-3.3c-4.4-0.6-8.9-0.6-13.4-0.7
		c-13-0.4-25.9-0.9-38.9-1.2c-6.2-0.2-12.5,0-18.7-0.1c-1,0-2.1,0-3.1-0.1c-3.1-0.5-4.2-2-3.7-5c0.4-2.2,0.8-4.4,1.3-6.6
		c0.6-2.9,1.3-5.8,2-8.6c0.9-3.5,2.1-6.9,4.3-10.1c-1.5-2-3.1-3.9-4.7-5.9c-1.8,1.9-3.8,2-6,1.9c-1.6-0.1-3.2-0.1-4.8-0.1
		c-3,0.1-5.6-1-7.6-3c-2.4-2.4-4.7-4.8-6.7-7.5c-4.3-5.9-8.4-11.9-12.6-17.9c-1-1.5-2.3-2.2-4-2.1c-3.5,0.2-7,0.3-10.5,0.5
		c-0.9,0.1-1.8,0.5-2.7,0.9c-57.9,24.4-115.8,48.8-173.8,73.3c-12.5,5.3-25.1,10.6-37.6,15.9c-0.7,0.3-1.4,0.7-2,1.4
		c1.2,0.1,2.5,0.3,3.7,0.3c11.3,0.6,22.5,1.1,33.8,1.6c14.3,0.7,28.6,1.5,42.9,2.2c11.3,0.6,22.7,1.1,34,1.6
		c14.2,0.7,28.4,1.5,42.7,2.2c11.2,0.6,22.4,1.1,33.6,1.6c14.5,0.7,28.9,1.5,43.4,2.2c11.1,0.6,22.2,1.1,33.3,1.6
		c14.5,0.7,28.9,1.5,43.4,2.2c11.3,0.6,22.7,1.1,34,1.6c14.2,0.7,28.4,1.5,42.7,2.2c11.4,0.6,22.9,1.1,34.3,1.7
		c14.1,0.7,28.3,1.5,42.4,2.2c11.5,0.6,23,1.1,34.5,1.7c6.7,0.3,13.4,0.7,20.1,1c0.7,0,1.4,0.2,2.1,0.3c0,1.6,0,3.2,0,4.8
		c-1,0-2.1,0-3.1,0c-11.5-0.6-23-1.2-34.5-1.8c-17.2-0.9-34.4-1.7-51.5-2.5c-18.1-0.9-36.1-1.9-54.2-2.8c-16-0.8-32-1.6-47.9-2.4
		c-16.1-0.8-32.1-1.6-48.2-2.4c-16-0.8-32-1.6-47.9-2.4c-16-0.8-32-1.6-47.9-2.4c-17.3-0.9-34.7-1.7-52-2.5
		c-17.8-0.9-35.6-1.8-53.5-2.7c-12.9-0.7-25.7-1.3-38.6-1.9c-15.8-0.8-31.6-1.6-47.5-2.4c-0.7,0-1.4,0-2.2,0c0,0.8-0.1,1.3-0.1,1.9
		c0.2,6,0.5,12,0.7,18c0.1,4.1,0.2,8.1,0.3,12.2c-1.6,0-3.2,0-4.8,0c-0.4-10.7-0.9-21.4-1.3-32.1c0-1-0.1-1.9-0.2-2.9
		c-0.1-1.4,0.4-2.3,1.7-2.9c0.5-0.2,1-0.4,1.5-0.7c74.1-31.2,148.1-62.5,222.2-93.7c1.8-0.8,3.6-1.2,5.6-1.2c2.9,0,5.9-0.3,9-0.5
		c-0.2-1.7-0.4-3.3,0.9-4.6c0.4-0.4,0.2-1.2,0.3-1.8c0-1.9-0.1-3.9,0.1-5.8c0.2-2,0.6-4,1.2-5.8c0.9-2.7,2.4-5.1,5.6-6
		c-0.4-0.8-0.6-1.4-1-2c-0.8-1.5-1.7-2.9-2.5-4.4c-0.6-1.1-0.7-2.1,0.1-3.1c1.6-2.1,4.7-2,6.1,0.2c1.5,2.4,3,4.9,4.4,7.4
		c0.5,0.9,1.1,1.4,2.3,1.4c7.5-0.1,13.2,3.5,18,9c0.1,0.1,0.1,0.1,0.3,0.2c0.2-0.3,0.5-0.6,0.6-1c3.3-7.3,7.2-14.3,11.3-21.1
		c0.8-1.4,1.6-2.8,2.4-4.2c4.8-8.8,9.5-17.6,14.3-26.4c1.1-2,2.1-4.1,3.2-6.2c2.2-4.5,4.9-8.6,7.9-12.6c5.1-6.7,10-13.5,14.9-20.3
		c3.4-4.6,6.6-9.3,10.1-13.8c9.6-12.5,22.1-20.4,37.7-23.2c11.7-2.1,23.4-4.4,35.2-6c11.2-1.5,22.1-4.5,33-7.1
		c0.6-0.1,1.2-0.4,2-0.6c-0.3-6.8-0.7-13.5-1-20.4c-1.8-0.3-3.7-0.6-5.5-0.9c-10.9-1.5-21.9-2.9-32.8-4.4c-6-0.9-12-2.1-17.6-4.6
		c-3.5-1.6-6.7-3.7-9.8-6c-5.8-4.4-10.6-9.7-15.1-15.4c-1.9-2.4-4.2-4.6-6.3-6.9c-0.8-0.9-1.7-1.9-2.3-3c-4.8-8.5-9.7-17-14.4-25.5
		c-0.8-1.4-1.4-2.9-1.7-4.4c-2.9-12.3-5.7-24.6-8.5-36.9c-0.2-1.1-0.4-2.2-0.5-3.3c-0.6-10.9-1.1-21.7-1.7-32.6
		c-0.5-10.2-1-20.5-1.7-30.7c-0.5-6.5,0.3-12.9,1-19.4c1-9.4,2.1-18.8,3.1-28.1c0.7-6.2,1.1-12.4,3.3-18.4c0.9-2.5,1.4-5.3,1.9-7.9
		c1.3-6.3,3.9-12.2,7-17.8c2.1-3.9,4.5-7.7,6.8-11.6c0.5-0.7,1.1-1.4,1.7-2c7-7.6,14-15.2,20.9-22.8c2.8-3.1,5.8-6.1,9.3-8.2
		c6-3.7,12.1-7.1,18.3-10.4c6-3.2,12.7-4.5,19.4-5.2c7.4-0.8,14.8-1,22.2-1.6c6.8-0.5,24.1,1.6,29.6,5.2c4.3,2.8,8.3,6,12.4,9.1
		c1.8,1.3,3.5,2.8,5.3,4.1c5.9,4.2,11.4,8.8,16.6,13.8c6.1,5.9,6.1,5.9,11.9,15c5.1,6.9,10.2,20.6,14.2,31.7c0,0.1,0.2,0.2,0.3,0.3
		c0,3.7,0,7.4,0,11c-1.4-2.7-3-5.4-4.3-8.2c-1.4-2.8-2.5-5.7-3.9-8.5c-4.3-9-7.2-20.7-14.3-27.6c-2.3-6-5.8-8.5-12.6-14.9
		c-1.1-1-2.3-2-3.5-3c-6.2-4.9-12.4-9.8-18.8-14.5c-3.1-2.3-6.6-4.2-10-6.2c-3-1.7-17.6-2.5-21.1-2.3c-5.9,0.3-11.8,0.6-17.7,1
		c-3.1,0.2-6.2,0.6-9.3,1c-5.2,0.7-10.2,2.1-14.9,4.4c-6.5,3.2-13,6.6-18.8,11.1c-2.2,1.6-4.2,3.5-6,5.5
		c-6.3,6.8-12.5,13.7-18.9,20.4c-3.2,3.3-5.7,7.1-8,11c-4.6,7.8-8.4,16-9.9,25.1c-0.3,1.7-0.6,3.3-1.2,4.9c-1.7,4.4-2.2,9-2.7,13.6
		c-1.5,13.9-3.1,27.8-4.5,41.8c-0.4,3.7,0.1,7.5,0.2,11.3c0.4,8.2,0.9,16.5,1.3,24.7c0.6,12,1.2,24,2,36c0.2,3.2,1.2,6.3,1.9,9.4
		c2.2,9.7,4.5,19.5,6.8,29.2c0.3,1.3,0.8,2.6,1.5,3.8c4.4,8,8.9,15.9,13.5,23.8c0.8,1.4,1.8,2.6,2.8,3.9c3.3,3.8,6.6,7.6,10,11.4
		c5.9,6.7,12.5,12.7,20.9,16c5,2,10.3,2.9,15.6,3.6c10.1,1.4,20.3,2.7,30.4,4.1c12.1,1.7,24.2,3.4,36.4,5c2.2,0.3,4.6,0.1,6.9-0.3
		c4.1-0.8,8.1-1.8,12.1-2.9c1.1-0.3,2.2-0.9,3.2-1.4c0.3-0.1,0.6-0.4,0.9-0.4c3.3-0.4,5.8-2.3,8.2-4.2c3.7-2.9,7.3-6,10.8-9.1
		c5-4.4,9.9-8.8,14.9-13.2c0,2.2,0,4.5,0,6.7c-5.4,4.8-10.8,9.6-16.3,14.5c-4.2,3.8-8.7,7.3-13.9,9.7c-0.2,0.1-0.3,0.3-0.4,0.4
		c0,4.9,0,9.6,0,14.5c2.2,0.4,4.3-0.1,6.3-0.4c2.4-0.4,4.7-1.1,7.1-1.2c5.7-0.3,11.5-0.4,17.2-0.5c0,1.8,0,3.5,0,5.3
		c-6.7-0.9-13.4-0.4-20.1,0.8c-3.9,0.7-7.9,1.4-11.9,1.2c-2.9-0.1-3.7-0.8-3.7-3.7c-0.1-3.8-0.1-7.7-0.2-11.5c0-0.8,0-1.6,0-2.5
		c-0.7,0.1-1.1,0.2-1.5,0.3c-4.3,1-8.5,2.2-12.8,3c-2.2,0.4-4.6,0.5-6.9,0.3c-6.2-0.7-12.4-1.7-18.5-2.5c-2-0.3-4.1-0.5-6.3-0.8
		c0,2.4-0.1,4.7,0,6.9c0.2,4.5,0.6,8.9,0.8,13.4c0.1,2.8-0.5,3.5-3.2,4.2c-1.9,0.5-3.7,0.9-5.6,1.4c-6.9,1.7-13.8,3.3-20.7,5
		c-0.5,0.1-1,0.3-1.5,0.4c2,5,4.9,8.8,9.3,12.2c1.3,1,2.5,2,3.8,3c6.9,5.2,14.2,9.6,23,10.8c2.1,0.3,4.1,0.7,6.2,0.9
		c12.3,1.7,24.1-0.5,35.2-5.8c7.1-3.4,13.9-7.2,20.9-10.7c1.9-1,3.7-2.2,5.4-3.5c2.8-2.3,5.6-4.4,8.4-6.6
		C1022.7,362.3,1022.7,364.4,1022.7,366.5z M772,571.3c1.2,0.1,2,0.2,2.9,0.1c4.9,0,9.8-0.2,14.6-0.1c16.6,0.4,33.3,1,49.9,1.5
		c6.1,0.2,12.1,1.3,17.9,3.2c4.7,1.5,9.4,1.9,14.1,2.3c1.3,0.1,2.4-0.2,3.4-0.9c2.9-2,5.8-4,8.7-5.9c3.5-2.3,6.8-4.8,10.5-6.7
		c4.1-2.1,8.5-3.7,12.8-5.3c10.5-4.1,20.4-9.2,29.3-16.1c2.1-1.6,4.2-3.2,6-5.1c1.6-1.6,3.3-2.9,5.5-3.7c1.8-0.6,3.5-1.5,5.3-2.2
		c0.8-0.4,1.5-0.9,1.5-2c-0.5-0.1-1-0.3-1.5-0.4c-5.1-0.8-10.3-1.7-15.4-2.5c-16.4-2.7-32.8-5.4-49.2-8c-3.8-0.6-7.6-1.4-11.4-1.6
		c-7.2-0.3-14.4-0.2-21.6-0.1c-4.6,0.1-9.1,0.7-13.4,2.5c-3.4,1.5-6.8,3.2-10.2,4.9c-4.4,2.2-8.6,4.9-13.2,6.8
		c-4.6,1.9-9.4,3.2-14.1,4.6c-3.8,1.2-7.7,2.1-11.5,3.4c-2.2,0.7-4.2,1.9-6.3,3c-1.6,0.8-3,1.8-4.6,2.6c-1.4,0.7-2.4,1.8-3.3,3.1
		c-2.4,3.4-3.5,7.4-4.4,11.3C773.6,563.5,772.8,567.3,772,571.3z M775.5,532.6c1,0,2,0,3,0c6.7-0.3,13.2-1.5,19.6-3.2
		c2.9-0.8,5.6-2,7.9-3.9c1.2-1,2.3-2.2,3.4-3.4c0.9-1,1.2-2.3,0.8-3.6c-0.8-2.8-1.5-5.6-2.5-8.3c-2.2-5.9-6.3-9.9-12.1-12.2
		c-5.9-2.4-12-2.1-18.2-1.1c-3,0.5-5.9,1.3-8.9,1.8c-5.1,0.9-6.1,0.3-8.8-4.1c-0.7-1.1-1.4-2.4-2.5-3.2c-2-1.5-4.2-2.7-6.3-3.8
		c-1-0.5-2.2-0.6-3.3-0.9c-0.1,0.1-0.2,0.3-0.3,0.4c4.8,8.1,9.7,16.3,14.5,24.3c1-0.2,1.9-0.6,2.7-0.6c4.5-0.3,9.1-0.7,13.6-0.3
		c5.5,0.5,7,3.3,4.2,8.1c-1.1,1.8-2.6,3.3-3.7,5c-1.1,1.6-2.1,3.2-3,4.9C775,529.7,774.7,531.1,775.5,532.6z M843.8,514
		c-1.2-2.1-1.2-2.1-0.8-5c0.1-0.6,0.2-1.3,0.3-1.9c1.7-7,2.1-14.2,1.8-21.4c0-0.5-0.2-0.9-0.3-1.7c-0.5,0.6-0.9,1-1.1,1.4
		c-2.1,3.2-4.9,5.7-7.9,8c-2.2,1.6-4.3,3.3-6.2,5.2c-3.1,3.1-6.5,5.7-10,8.1c-1.4,0.9-2.7,2.1-3.9,3.2c-1.3,1.2-2.1,2.6-1.2,4.4
		c0.3,0.7,0.4,1.5,0.6,2.3c0.9,3.6,0.2,6.8-2.4,9.6c-0.9,0.9-1.7,1.9-2.9,3.2c1.9-0.6,3.4-0.9,4.8-1.5c1.9-0.8,3.8-1.7,5.6-2.6
		c5.9-2.9,11.7-5.9,17.6-8.7C839.7,515.6,841.8,514.9,843.8,514z M739,487.2c-1.9-0.3-2.7,0.6-3.3,1.8c-1,2-1.5,4.2-1.5,6.5
		c0,2.5,0.2,5-0.1,7.4c-0.3,3.3,0.9,5.9,2.8,8.4c2.6,3.5,5,7.1,7.5,10.5c2.8,3.9,5.7,7.7,8.6,11.5c2,2.6,4.7,4,8.1,3.7
		c0.7-0.1,1.4-0.1,2.2,0c2.8,0.2,3.7-0.3,2-3.3c-8.2-14.4-16.3-28.8-24.4-43.2C740.2,489.3,739.6,488.2,739,487.2z M777.8,515.9
		c-2.9-0.7-8.6-0.6-11.4,0.3c-0.3,2.8,1.8,7.5,4.4,9.8c1.1-1.7,2.3-3.5,3.5-5.1C775.4,519.2,777.1,517.9,777.8,515.9z M779.5,541.3
		c2.1-1.3,4.1-2.5,6.1-3.7c-0.1-0.1-0.1-0.2-0.2-0.3c-2.5,0.2-5.1,0.3-8,0.5C778.2,539,778.8,540,779.5,541.3z"/>
	<path d="M316.9,609.2c0.2,3.5,0.8,6.1,0.7,8.8c-0.2,5,0.1,9.9,0.9,14.8c0.4,2.4,0.3,4.9,0.5,7.4c-1.6,0-3.2,0-4.8,0
		c-0.4-3.7-0.9-7.3-1.3-11c-0.2-1.8-0.4-3.7-0.3-5.5c0.2-4.6-0.5-9.1-0.8-13.6c-0.1-3.4-0.4-5.4-0.4-9.7c0-3.9-0.3-5.9-0.5-9
		c-0.7-9.7-1.4-19.5-2-29.2c-0.2-4.1-1.3-8.2-1.6-12.4c-0.6-8.4-1.6-16.7-0.8-25.2c0.2-2.4,0.6-4.8,0.9-7.2c3.4-0.1,6.6,1.9,7.2,4.7
		c0.8,3.6,2.6,6.5,4.7,9.3c3.8,5,8.3,9.3,12.9,13.6c4.7,4.3,8.9,9,12.7,14.1c5.9,8,13.9,12.8,23.1,15.9c3.1,1,6.2,1.9,9.7,3
		c0.5-1.3,0.9-2.4,1.2-3.5c1.8-5.7,3.5-11.5,5.4-17.2c1.1-3.3,2.2-6.5,3.6-9.7c1-2.3,2.3-4.5,3.6-7c-0.3-0.2-0.7-0.6-1.2-0.7
		c-1.4-0.4-2.8-0.7-4.2-1.1c-2.9-0.9-5.8-1.8-8.6-2.9c-7.3-2.7-12.5-8.2-17.2-14.2c-1.4-1.8-2.3-4-3.3-6.1
		c-2.5-5.6-4.2-11.6-5.8-17.5c-2-7.8-4.3-15.6-4.9-23.7c-0.4-5.4-1.1-10.8-2.5-16.1c-1.8-7-3.4-14-6.6-20.5
		c-3.2-6.4-7.5-11.9-13.3-16.1c-1-0.8-2-1.6-3-2.4c-2.7-2.2-5.8-3.3-9.3-3.4c-9.5-0.2-18.9,0.9-28.3,1.7c-4.6,0.4-9.3,0.6-13.8,1.6
		c-8.7,1.9-17.2,4.2-25.8,6.6c-16.2,4.5-32.4,9-48.8,12.4c-5.7,1.2-11.5,2.2-17.3,2.9c-4.8,0.6-9.6,0.6-14.4,0.8c-3,0.1-6.1,0-9.1,0
		c-1,0-2,0.4-3,0.5c-1.1,0.2-2.2,0.4-3.3,0.3c-3.2-0.2-6,0.6-8.8,2c-6.9,3.6-13.6,7.6-19.4,12.7c-8.2,7.3-15.4,15.6-20.7,25.3
		c-0.5,0.8-0.8,1.8-1,2.7c-5.6,17.4-11,34.9-16.8,52.3c-1.4,4.3-1.8,8.6-1.5,13c0.3,5,1.2,10,1.7,15c0.4,3.6,0.8,7.2,1.3,10.7
		c0.4,2.8,1,5.7,1.5,8.5c0.2,0.8,0.4,1.6,0.8,2.2c1.8,3.2,3.7,6.3,5.6,9.5c0.7,1.2,1.6,2.3,2,3.5c1,2.5,2.6,4.4,4.3,6.3
		c1.7,1.8,3.1,3.9,4.7,5.8c1.9,2.3,3.9,4.7,5.9,7c2.3,2.6,5.1,4.3,8.2,5.7c3.7,1.7,7.2,3.9,10.7,5.9c2.4,1.4,4.9,2.8,7.3,4.1
		c3.3,1.8,6.6,3.5,9.9,5.2c-4,0-8,0-12,0c-0.2-0.2-0.3-0.4-0.5-0.5c-5.2-1.5-9.5-5-14.3-7.3c-1.4-0.7-2.8-1.5-4.3-2.1
		c-2.9-1.1-5.4-2.9-7.4-5.2c-2.7-3.1-5.3-6.4-8-9.6c-1.8-2.2-3.8-4.4-5.6-6.6c-0.9-1-1.9-2.1-2.3-3.3c-0.9-2.8-2.4-5.4-3.8-8
		c-1.6-3-2.8-6.1-4.9-8.8c-0.7-0.9-1.1-2.1-1.4-3.3c-1.8-7.3-2.6-14.8-3.4-22.3c-0.3-3.1-0.8-6.2-1.2-9.3c-0.1-1-0.2-1.9-0.3-2.9
		c-0.3-5.4,0.4-10.5,2.1-15.8c5.8-17.1,11.1-34.4,16.6-51.6c0.4-1.4,1-2.7,1.7-3.9c3.9-6.8,8.8-12.9,14-18.8
		c7.3-8.2,16.1-14,25.5-19.4c3.7-2.1,7.6-3.4,11.9-4.1c4.1-0.6,8.1-0.4,12.1-0.6c5.7-0.3,11.4-0.2,17-0.8c8.8-0.9,17.6-2.6,26.2-4.7
		c2.6-0.6,5.1-1.3,8-2c-1.4-12.7-2.9-25.3-4.5-38.2c-3.3,0.4-6.4,0.7-9.5,1.1c-11.3,1.4-22.5,2.8-33.8,4.2
		c-9.3,1.1-18.6,2.2-27.9,3.5c-3.5,0.5-6.6-0.6-9.6-2c-3.2-1.5-6-3.7-8.4-6.3c-4-4.2-7.9-8.6-11.8-13c-2-2.2-2.9-4.8-3-7.9
		c-0.2-18.6-0.5-37.3-0.8-55.9c-0.4-23.5-0.8-47.1-1.2-70.6c-0.2-10.3-0.3-20.6-0.5-31c0-3.2,2.2-6.4,5.3-7.4
		c8.3-2.5,16.6-4.6,25.2-5.5c12.9-1.3,25.8-2.7,38.7-4.1c11.3-1.2,22.6-2.4,33.9-3.6c11.2-1.2,22.4-2.4,33.6-3.6
		c2.5-0.3,5.1-0.5,7.9-0.8c-1.1-21.7-2.1-43.2-3.2-65c-0.9,0-1.7-0.1-2.5-0.1c-4.1-0.1-8.1-0.9-11.9-2.4c-3.9-1.5-7.2-3.9-9.5-7.4
		c-1.4-2-2.6-4.2-3.7-6.5c-0.5-1-0.9-2.3-1-3.4c-0.3-5.6-0.2-11.2,1.8-16.6c1.5-4.3,4-7.9,7.5-10.7c5.7-4.8,12.1-8.4,19.3-10.3
		c2.6-0.7,5.4-0.5,8.1-0.7c0.2,0,0.5,0,0.7,0.1c4.6,1.3,9.1,2.7,13.7,4c5.3,1.5,8.1,5.2,9.8,10.3c2,6.1,2.1,12.3,1.5,18.5
		c-0.2,2.6-0.5,5.3-1.2,7.8c-1.4,5.4-4.6,9.6-9.5,12.5c-5,2.9-10.3,4.8-16.1,5c-0.4,0-0.8,0-1.2,0.1c-0.1,0-0.3,0.1-0.7,0.3
		c1,21.1,2.1,42.3,3.1,63.7c1.2,0,2.3,0.1,3.4,0c17.2-1.8,34.4-3.7,51.5-5.5c14.3-1.5,18.5-2,32.9-3.5c3.7-0.4,8.2-1.5,11.8-1.9
		c3.5-0.4,10.5-0.7,13.8,0.5c1.3,0.5,2.8,0.8,4.1,1.3c4.8,1.7,6.1,1.8,6.8,7.1c0.6,4.4,0.7,10.9-0.2,16.1c-0.7,5.1-0.3,7.5-0.8,10.9
		c-2,13.9-3.8,24.2-3.8,36.9c-1.1,10.6-3.1,31.6-5.1,45.2c-0.3,12.8-1.6,23.2-1.8,37.5c-0.9,6.1,0.2,12.2-0.7,18.3
		c-0.1,0.9-0.3,1.8-0.2,2.6c0.3,1.7-0.3,3-1.5,4.1c-5.2,4.8-10.4,9.4-16.7,12.8c-4.9,2.7-10.3,3.9-15.6,5.4
		c-7.9,2.3-16.1,2.8-24.1,3.8c-10.9,1.4-21.9,2.7-32.9,4.1c-4.6,0.6-9.2,1.2-13.7,1.7c-3.6,4.9-3.5,26.2-0.3,32
		c0.6-0.1,1.2-0.1,1.8-0.3c7.9-2.4,16.1-3.5,24.3-4.2c6.9-0.5,13.7-1.2,20.6-1.7c3.4-0.2,6.9-0.3,10.3-0.2c4.7,0.2,8.9,1.9,12.3,5.2
		c0.3,0.3,0.5,0.6,0.9,0.8c9.9,6.6,16,15.9,19.5,27.1c2.1,6.9,4.2,13.8,5.3,20.9c0.6,4.3,0.9,8.6,1.6,12.9c0.7,4.1,1.5,8.2,2.7,12.2
		c2.4,7.9,5.2,15.8,7.8,23.7c0.2,0.6,0.4,1.2,0.8,1.8c5.3,8.4,11.9,15.3,21.9,17.8c1.1,0.3,2.2,0.6,3.3,0.8c2.7,0.4,5.2,1.1,6.8,3
		c2.3-0.6,4.2-1.3,6.2-1.5c4.4-0.6,8.6,0.3,12.5,2.5c2.2,1.2,4.4,2.3,6.5,3.5c6.2,3.5,10.5,8.8,14.4,14.5c1.4,2,1.8,4.4,2.1,6.8
		c0.5,5.4-0.5,10.6-2.5,15.5c-1.9,4.8-4.2,9.5-6.5,14.2c-2.5,5.2-6.7,8.1-12.5,9c-6.5,1-13,1.5-19.5,0c-4.2-1-8-2.9-11.2-5.7
		c-4.3-3.7-8.4-7.6-11.1-12.8c-0.3-0.6-1-1-1.6-1.3c-1.6-0.6-3.2-1-4.8-1.6c-3.2-1.3-6.4-2.5-9.5-3.9c-6.6-3.1-11.7-7.9-16.4-13.4
		c-4.4-5.1-9.1-9.9-13.8-14.7c-5.6-5.6-11.3-11.1-15.5-17.9c-0.1-0.1-0.3-0.1-0.6-0.3c0,2-0.1,4,0,5.9c0.3,9.3,1.5,18.5,2.9,27.7
		c0,0.3,0.1,0.6,0.1,1c0,9.5,1.5,18.8,1.8,28.2 M105.2,292.7c0.4,26,0.8,52,1.1,78c0,2.1,0.7,3.8,2,5.2c3.7,4.1,7.3,8.3,11.2,12.2
		c2.1,2.1,4.5,3.8,7,5.4c1.1,0.7,2.5,1,3.8,1.2c3.9,0.4,7.8,0,11.7-0.5c11.2-1.4,22.4-2.8,33.6-4.2c10.9-1.3,21.7-2.7,32.6-4
		c11-1.4,22.1-2.7,33.1-4.1c11-1.4,21.9-2.7,32.9-4c11.2-1.4,22.4-2.9,33.6-4.1c8.5-0.9,16.7-2.6,24.9-5.1
		c8.6-2.6,15.4-8.1,21.7-14.1c0.4-0.4,0.6-1.1,0.7-1.7c3.4-23.2,1.2-46.4,4.5-69.6c3.6-24.6,2.9-44.7,6.5-69.3
		c0.4-2.7,0.9-7.5,0.8-10.2c0.7-3.9,0.4-6.9,0.7-12.9c-0.8-3.5,0-6.5-3.4-7.5c-1.6-0.5-3.2-1.1-4.8-1.4c-1.8-0.3-6.2-0.4-8-0.3
		c-4.1,0.3-7.8,1.3-11.9,1.8c-17.3,1.9-26.8,2.9-44.1,4.7c-15.2,1.6-30.4,3.2-45.6,4.9c-2.2,0.3-4.4,0.6-6.6,0.7
		c-7.6,0.5-15.1,1.5-22.7,2.3c-10,1.1-20,2.1-30.1,3.2c-9.7,1-19.4,2.1-29.1,3.1c-8.2,0.9-16.4,1.9-24.6,2.6
		c-9.8,0.9-19.5,2.3-28.9,5.5c-3.4,1.1-3.9,1.7-3.9,5.3C104.3,241.4,104.8,267.1,105.2,292.7z M379.8,583.3c3.3,4.2,6.7,8,11.2,10.6
		c2,1.2,4.2,2.1,6.4,2.6c5.8,1.4,11.6,0.8,17.4,0c4.2-0.6,7.1-2.7,8.9-6.5c2.1-4.5,4.3-8.9,6.2-13.5c1.7-4.3,2.5-8.7,2.1-13.4
		c-0.2-2.1-0.8-3.9-2-5.5c-1.5-1.9-3-4-4.7-5.8c-5-5.4-11.1-8.9-18-11c-4.6-1.4-8.8-0.4-12.1,3.6c-1.7,2.1-2.8,4.5-3.6,7
		c-3,9.5-6,18.9-8.9,28.4C382.1,581.4,381.6,582.6,379.8,583.3z M243.6,118.7c4.6,0.4,10.8-0.7,16.6-4.1c5.1-2.9,7.8-7.3,8.4-13
		c0.4-4,0.5-8,0.6-12c0-3.7-1-7.3-2.4-10.7c-0.8-1.9-2.2-3.2-4.2-4c-4-1.5-8-2.9-12.2-3.3c-1.6-0.2-3.1-0.8-4.7-0.9
		c-2.8-0.3-5.4,0.5-7.9,1.7c-3.4,1.6-6.7,3.3-9.9,5.3c-6.5,4-10.3,9.9-11,17.6c-0.5,5.1-0.4,10,2.8,14.4c2.5,3.4,5.4,5.8,9.3,7.1
		C233.1,118.2,237.4,118.3,243.6,118.7z M249.7,386c-13.1,1.5-26.1,3.2-39.3,4.8c1.5,12.7,3,25,4.5,37.6c12.1-3.1,23.8-6.4,35.5-9.8
		C247.3,407.8,247.4,397.1,249.7,386z"/>
	<path d="M175.4,640.3c0.6-0.3,1.2-0.5,1.6-0.9c0.7-0.7,1.8-1.4,2-2.3c0.6-2.6,1.1-5.5-1.1-7.7c-2.7-2.6-5.3-5.3-8.3-7.6
		c-4.6-3.4-8.3-7.5-11-12.5c-2.6-4.8-6-9-10.2-12.6c-6.1-5.3-11-11.8-15.4-18.7c-1.5-2.4-2.5-5.1-2.9-8.1
		c-0.6-6.1-0.8-12.1-0.1-18.2c0.5-3.7,0.4-7.5,0.7-11.3c0.5-8.3,1.7-16.6,4-24.6c2.3-7.7,5.6-15,11.1-21.1c1.6-1.8,3.6-3.2,5.5-4.6
		c2.5-1.9,5.6-1.6,5.7,3c0.2,9.4,0.5,18.9,0.7,28.3c0.4,16,0.9,32,1.3,48c0.2,9.6,0.4,19.2,0.6,28.8c0,0.6,0.3,1.2,0.6,1.7
		c1.3,2.1,2.6,4.2,3.9,6.4c2.4,4,5.3,7.5,8.8,10.7c3.6,3.2,6.9,6.7,10.1,10.2c0.9,1,1,2.8,1.4,4.2c0.1,0.5,0.1,1.1,0.2,1.6
		c2.5-0.3,4.9-0.6,7.2-0.8c3.4-0.2,6.4,0.9,8.9,3.4c1.1,1.1,2.4,1.8,3.6,2.8c0.7,0.5,1.3,1.2,1.9,1.7c-2.6,0-5.1,0-7.7,0
		c-2.4-2.5-5.4-3.3-8.8-2.7c-0.8,0.1-1.6,0.1-2.4,0.4c-1.5,0.5-3.3,0.7-4.3,2.3C180.6,640.3,178,640.3,175.4,640.3z M151.7,496.5
		c-2.8,2.2-4.7,4.9-6.4,7.8c-5.3,8.9-7.5,18.6-8.7,28.7c-0.7,6.4-1,12.9-1.4,19.4c-0.2,3.2-0.4,6.4-0.5,9.6c0,2.4,0.5,4.8,0.4,7.2
		c0,2.5,0.5,4.7,2.5,6.4c0.5,0.4,0.9,1.1,1.3,1.7c4.1,5.4,8.7,10.3,13.7,14.8c0.4,0.4,1,0.7,1.9,1.3
		C153.8,560.7,152.8,528.7,151.7,496.5z"/>
	<path d="M521.3,640.3c0-1.4,0.1-2.9,0.1-4.3c0-0.6,0-1.3,0.2-1.9c0.6-2,2.5-2.7,4.1-1.2c0.7,0.6,1.2,1.1,2.2,1.2
		c11.6,1,23.3,1.9,34.9,2.9c9.8,0.8,19.6,1.7,29.4,2.5c0.9,0.1,1.7,0.5,2.6,0.8c-18.6,0-37.1,0-55.7,0c-4.1-0.5-8.2-0.9-12.4-1.4
		c0,0.7-0.1,1-0.1,1.4C524.9,640.3,523.1,640.3,521.3,640.3z"/>
	<path d="M939.4,274.1c-11.3-0.2-22.5-0.9-33.7-2.5c-4-0.5-7.9-1.3-11.8-1.9c-0.8-0.1-1.6-0.2-2.4-0.2c-0.6,0-1.3,0-1.9,0
		c-1.9-0.1-2.9-0.9-3-2.4c0-1.5,0.9-2.5,2.8-2.6c2,0,4,0,6,0.4c8.2,1.6,16.4,2.6,24.7,3.1c7.6,0.5,15.2,0.7,22.7,1.1
		c0.4,0,0.8,0,1.2,0.1c1.4,0.3,2.2,1.3,2.2,2.5c0,1.2-0.9,2.2-2.3,2.4C942.5,274.3,940.9,274.1,939.4,274.1z"/>
	<path d="M853.1,170.1c0-0.9,0-1.8,0-2.6c0.1-1.6,0.7-2.9,1.8-4.1c3.6-3.9,8.2-2.8,9.7,2.2c0.3,1.1,0.6,2.3,0.8,3.5
		c0.7,3.8-1.2,7.4-4.6,9.1c-3.4,1.7-6.5,0.3-7.3-3.4c-0.4-1.5-0.4-3.2-0.5-4.7C853,170.1,853.1,170.1,853.1,170.1z"/>
	<path d="M952.8,74c-1.6,0-2.5-0.6-2.9-1.7c-0.4-1.1,0-2.1,0.9-2.7c1.2-0.9,2.5-1.7,3.8-2.5c7.7-4.6,15.9-8.1,24.7-10.1
		c0.5-0.1,1.1-0.3,1.6-0.3c1.3,0,2.4,0.8,2.6,2c0.2,1.1-0.4,2.1-1.5,2.7c-0.4,0.2-0.9,0.3-1.4,0.4c-9.3,2.1-17.9,5.8-25.8,11.1
		C954.1,73.5,953.2,73.8,952.8,74z"/>
	<path d="M894.9,203.3c-0.2-3.8,0.2-8.3,1.3-12.8c0.3-1.2,0.3-2.5,0.4-3.8c0.2-1.7,1.2-2.7,2.5-2.7c1.4,0,2.5,1.2,2.5,3
		c-0.1,1.9-0.3,3.8-0.7,5.7c-1.4,5.8-1,11.6-0.9,17.4c0,1.2,0.5,2.3,0.8,3.5c0.5,1.8-0.1,3.1-1.5,3.5c-1.3,0.4-2.6-0.2-3.2-1.8
		c-0.6-1.7-1.1-3.5-1.2-5.3C894.7,208.1,894.9,206.1,894.9,203.3z"/>
	<path d="M947.1,177.8c-3.4,0-5.1-1.4-5.7-4.8c-0.5-2.9-0.3-5.7,1.2-8.3c1.2-2.1,3-2.9,5.3-2.2c0.8,0.2,1.8,0.8,2.3,1.5
		c1.6,2.5,2.6,5.3,2.8,8.3c0.2,3.8-1.3,5.4-5.1,5.6C947.6,177.8,947.4,177.8,947.1,177.8z"/>
	<path d="M938.9,49.8c-0.4,5.6-0.8,11.3-1.2,16.9c0,0.2,0,0.5-0.1,0.7c-0.3,1.5-1.3,2.3-2.7,2.2c-1.3-0.1-2.2-1.1-2.2-2.6
		c0-2,0-4,0.2-6c0.7-5.8,0.9-11.6,0.8-17.4c0-0.6,0-1.3,0.1-1.9c0.2-1.3,1.3-2.2,2.5-2.2c1.1,0,2,0.8,2.3,2.1
		c0.1,0.6,0.1,1.3,0.2,1.9c0,2.1,0,4.2,0,6.2C938.9,49.8,938.9,49.8,938.9,49.8z"/>
	<path d="M913,54.3c0.1,3.5,0.2,7,0.4,10.5c0.1,1.9-0.7,3-2.2,3.2c-1.4,0.1-2.5-0.8-2.8-2.6c-0.2-1.4-0.4-2.9-0.4-4.3
		c0-5.7,0-11.3,0-17c0-0.6,0-1.3,0.1-1.9c0.3-1.4,1.3-2.2,2.5-2.1c1.1,0,2,0.8,2.3,2.1c0.2,0.7,0.2,1.4,0.2,2.1c0,3.4,0,6.7,0,10.1
		C913,54.3,913,54.3,913,54.3z"/>
	<path d="M885.7,43.8c0.3,0.3,1.3,0.7,1.5,1.4c1.3,4.1,3.8,7.5,5.6,11.3c1.3,2.7,2.8,5.4,4.1,8.1c0.1,0.3,0.3,0.6,0.4,0.9
		c0.5,1.3,0.2,2.5-0.9,3.2c-1,0.7-2.3,0.5-3.2-0.5c-0.5-0.5-0.9-1.1-1.2-1.8c-2.9-5.5-5.8-11-8.7-16.5c-0.5-1-0.8-2.1-0.8-3.2
		C882.6,44.9,883.8,43.7,885.7,43.8z"/>
	<path d="M871.3,558.2c-2.8-0.5-5.9-1-8.9-1.6c-15.6-2.8-31.1-5.7-46.7-8.6c-0.9-0.2-1.7-0.3-2.6-0.6c-1.2-0.5-1.7-1.6-1.5-2.7
		c0.2-1.1,1.1-2,2.4-1.9c1.6,0.1,3.2,0.4,4.7,0.6c17.4,3.2,34.7,6.4,52.1,9.5c0.5,0.1,1.1,0.2,1.6,0.4c1.5,0.5,2.3,1.5,2.1,2.8
		C874.4,557.4,873.2,558.2,871.3,558.2z"/>
	<path d="M868.8,528.5c5.5,0,11,0,16.5,0c0.8,0,1.6,0.1,2.4,0.3c1.1,0.3,1.8,1.1,1.8,2.3c0,1.1-0.6,2-1.7,2.3
		c-0.7,0.2-1.4,0.2-2.1,0.2c-11-0.1-22-0.3-33.1-0.4c-0.6,0-1.1,0-1.7-0.1c-1.5-0.3-2.4-1.3-2.4-2.6c0-1.2,0.9-2.1,2.3-2.3
		c0.7-0.1,1.4-0.1,2.1-0.1c5.3,0,10.5,0,15.8,0C868.8,528.2,868.8,528.3,868.8,528.5z"/>
	<path d="M287,292.6c-3.8,0-6.8-1.6-9.4-4.2c-5.9-6.2-8.8-13.3-7.8-22c0.6-5.7,2.4-10.7,6.3-14.9c1.6-1.8,3.1-3.7,4.8-5.3
		c4.9-4.8,10.8-7.5,17.7-8c2-0.1,4.8-0.6,6.9-0.6c7.1,0.7,11.3,1.8,16.3,7.5c2,2.3,3.5,5.5,4.3,8c1.3,3.5,0.5,14.7-0.8,22
		c-0.8,4.4-3.2,7.9-6.9,10.2c-5,3.1-10.3,5.9-16.2,6.9c-3.4,0.6-7,0.7-10.5,1 M321.7,256c-0.1-2.5,0-2.7-2.9-7.2
		c-1.4-2.1-3.9-3.2-6.1-4.4c-1.6-0.9-3.7-2.2-5.6-2.2c-2.9,0-5.5,0.4-8.2,1c-3.3,0.3-6.5,1.1-9.3,2.8c-5.6,3.3-9.5,8.2-12.9,13.6
		c-0.7,1.2-1,2.7-1.3,4.1c-0.3,1.8-0.4,3.7-0.5,5.5c-0.6,6.4,2.4,11.3,6.4,15.7c1.3,1.4,3,2.5,5,2.6c4.6,0.1,9.1,0.3,13.6-0.1
		c5.8-0.6,10.8-3.4,15.7-6.3c3-1.8,4.6-4.6,5-8.1c0.5-4.5,0.9-9.1,1.3-13.6"/>
	<path d="M207.3,270c0,6.2-1.1,11.8-3.1,17.1c-1.5,3.8-3.8,6.8-7.3,8.9c-4.3,2.5-8.8,4.7-13.7,5.5c-6.6,1.2-13.1,0.5-19.4-1.7
		c-1.3-0.5-2.5-1-3.8-1.5c-6.8-2.9-10.6-8.1-11.2-15.5c-0.4-5.2-0.1-10.4,1.3-15.5c1.2-4.4,3.5-7.9,6.9-11c6.2-5.6,13.5-8,21.7-7.9
		c4.8,0,9.6-0.4,14.3,0.8c1,0.2,2,0.5,2.9,1.1c3.2,2,5.9,4.6,8.2,7.7C206.8,261.8,207.7,266,207.3,270z M153.9,278.5
		c0,1.1,0,2.2,0,3.4c0.2,5.2,2.5,9.1,7.2,11.3c11.6,5.6,22.8,5.1,33.7-1.9c2.1-1.4,3.4-3.2,4.4-5.5c2.5-5.8,3.1-11.9,3.1-18.1
		c0-6.3-6.8-13.3-12.4-13.6c-3.6-0.2-7.2-0.4-10.7-0.5c-7.5-0.3-14,2-19.4,7.3c-2,1.9-3.4,4-4.3,6.5
		C154.2,271,153.9,274.8,153.9,278.5z"/>
	<path d="M204.2,353.5c-1.3,0-2.4-0.3-3-1.6c-0.4-0.9-0.3-1.9,0.4-2.4c0.7-0.6,1.7-1,2.5-1.1c3-0.4,6-0.7,9.1-1
		c19.1-1.9,38.2-3.8,57.3-5.7c0.6-0.1,1.3-0.1,1.9,0c1.2,0.2,2,1.1,2.1,2.3c0,1.2-0.5,2-1.6,2.4c-0.6,0.2-1.2,0.3-1.9,0.4
		c-13.4,1.3-26.7,2.6-40.1,4c-8.6,0.9-17.2,1.8-25.8,2.6C204.9,353.4,204.5,353.4,204.2,353.5z"/>
	<path d="M314.5,264.2c0,2.8-2.9,7.3-5.6,8.4c-2.2,0.9-4.2,0.1-5.3-2.4c-1.3-2.9-1.4-5.9-0.5-8.9c0.4-1.2,0.9-2.4,1.7-3.4
		c1.8-2.5,4.7-2.7,7-0.3C313.5,259.4,314.5,261.7,314.5,264.2z"/>
	<path d="M178.4,275.6c0-3.9,2.5-7.2,5.7-8.2c1.8-0.6,3.3-0.1,4.4,1.5c1.9,2.8,1.7,7.8-0.4,10.4c-0.4,0.4-0.8,0.8-1.2,1.2
		c-3.6,2.6-7.2,1.2-8.3-3.1C178.5,276.6,178.4,275.9,178.4,275.6z"/>
</g>
</svg>
