<svg xmlns="http://www.w3.org/2000/svg" viewBox="0 0 1024 640"><defs><style>.cls-1{fill:#fff;}</style></defs><g id="레이어_2" data-name="레이어 2"><g id="레이어_1-2" data-name="레이어 1"><path class="cls-1" d="M1024,346.8v4c-.7.6-1.7,1.1-2.1,1.9-5,9.1-12.5,16.1-21,21.6-5.5,3.5-11.6,7.1-17.9,8.2-14.2,2.4-28.5.1-42.2-4.4-7.2-2.4-14-6.2-20.7-9.8-1.4-.9-2.5-3.9-2.2-5.8s3-2,4.8-2.7,3.5-.4,4.7-1.3a6.9,6.9,0,0,0,2.7-4.4c0-1.1-1.7-2.8-3.1-3.5-4.1-2.2-8.1-.1-12.4.4-14.2,2-28.7,2.6-43,4.4-6.4.8-13.4,2-18.8,5.3-10.6,6.3-18.5,15.7-24.8,26.5-8.8,15.1-17.7,30.3-26.7,45.4-2.7,4.5-5.6,9-8.5,13.4-9.4,14.2-18.7,28.5-28.5,42.5-3.5,5-7.1,4-10.3-1.2a140.3,140.3,0,0,0-10.6-14.1c-3.4-4.2-6.4-2.3-9,.8l6.1,12.5a4.8,4.8,0,0,0,2,1.4c11.8,5.7,16,16.4,19.4,27.9.6,2.3,2.3,4.3,3.8,6.3s4.9,5,6.4,8,.3,5.1-.9,6.2-4.4.5-6.4-.1a13.4,13.4,0,0,1-5.1-3.8c-11.3-12.3-23.7-23.9-24-42.7-5.9,1.8-5.7,6.6-6,11-.6,6.7-1.2,6.9-7.6,8s-10.9,2.1-15.7,4.4-10.8,7.6-16.7,10.6c-15.8,8-31.6,15.9-47.8,23.1s-33.2,14.2-50.1,20.4-34.4,11.1-51.6,16.9c-14.9,5-29.6,10.5-44.4,15.8-4.9,1.8-7.1,5.9-7.3,10.4-.5,9.8-.4,19.6-.5,29.4H283c2.4-3.3,5.6-6.3,7.1-9.9,7.5-18,2.6-29.6-13.4-40.2-1.5-1-2.3-3.1-3.4-4.6,1.5-1.1,2.9-2.7,4.5-3,4.7-1.1,9.7-1.1,14.2-2.7,8.3-3,16.5-6.6,24.6-10.3s16.4-7.9,24.6-11.9c3.7-1.8,6.5-1.7,9.5,2,5.7,7,11.9,13.9,21.2,15.9,3.9.8,9.3.9,12.4-1.1,7.3-4.9,14.5-10.6,17.3-19.8,1.8-5.9,4.4-11.7,5.1-17.7s.7-11.5-1.1-16.6c-3.8-10.9-13.9-16.3-23.4-20.4s-18.7-3.7-28.1-5.7c-2-.4-3.9-1.9-5.5-3.4s-2.7-4.5-4.6-5.9a119.8,119.8,0,0,0-13.8-8.9c-12.5-6.9-10.4-4.9-8.1-18.6,3.1-17.7.6-34.3-10.5-49-1.9-2.6-4.2-5-6.3-7.6s-5.8-5.7-7.1-9.2c-4-11-10.2-18.4-23-18.1-6.3.2-12.7-.5-18.9.5-11.1,1.8-22.1,4.7-33.2,6.8-4.7.9-7.1-1.7-6.8-6.7.2-2.8.5-5.6.6-8.4.3-7.6,1.7-9.7,9-11.7,22.3-5.9,45.2-7.4,68.1-8.9,8.8-.6,17.6-1.6,25-6.9s13.2-9.9,14.4-19.3c2.5-20,5.7-39.8,8.5-59.8,2.1-15.1,4-30.3,6.1-45.4,2.6-18.4,8.3-36.4,5.2-55.3-1.4-8.3-2.6-16.3-10.2-21.7-4.4-3.3-8-7.7-12.5-10.8s-10.5-7.7-16.4-8.9a91.5,91.5,0,0,0-27.6-1.2c-18.8,2.3-37.3,6.5-56.1,9-8.6,1.2-10.9-.9-10.4-8.7s.8-15.6,1-23.4c0-4,1.6-6.4,5.3-8.1,7.8-3.4,14.2-8.7,17.3-17S245,50.8,240.1,43s-17-16.1-25.3-14.6c-9.8,1.7-19.2,5.3-25.4,14a48.1,48.1,0,0,1-4.2,4.8c-5.1,5.2-7.5,15.7-4.7,20.6,4.5,8,10.7,14.1,19.5,16.8,4.9,1.4,6.5,4.5,6.6,9.2.1,8,.5,16,.6,24,.2,9.7-.3,10.4-10.1,11.2-22.9,1.9-45.6,5-67.9,10.7-7,1.8-7.7,2.7-5.3,10.4l4.8-.8c9.6-2.2,19-4.9,28.7-6.4,15-2.4,30.2-4.1,45.3-5.8,1.8-.2,5.3,1.1,5.5,2.1.8,4.3,1.5,8.9.5,13.1s-5.3,3.6-8.9,3.6c-13.3.3-26.6,0-39.8,1.3-24.3,2.4-48.5,5.7-72.7,8.8-5.6.7-11.1,2-16.6,3.1-3.1.5-3.9,2.4-3.8,5.4.2,6.1.2,12.2-.1,18.3-.8,17.3-2.1,34.6-2.6,51.9-.6,20.4-1.3,40.8-.5,61.2.5,11.1,3.6,22.2,6.6,33,2.2,8,9,13.5,16.1,16.6a83,83,0,0,0,34.5,6.4c21.3-.6,42.5-1.5,63.8-2.2,15.9-.5,16-.4,15.2,15.4-.4,8.2-1.5,9.4-9.4,11.7a353.9,353.9,0,0,1-81.7,14c-10.7.5-21.3,1.9-30.8,7.5-4.8,2.8-9.4,6.2-14.5,8.5-10.6,4.6-17.1,13-22,22.7s-2.5,19.3-2.2,29c.5,14.8,2.4,29.6,2.4,44.3s-1.7,26.6-3.2,39.8c-.3,2.5-2.6,6.1-4.9,7-11,4.5-22.3,8.2-33.5,12.1V0H909c-5.7,1.9-11.6,3.4-17.1,5.9S878.4,12.5,872.5,17s-13.2,12.2-19.8,18.3-12.7,10-13.5,18.9a10,10,0,0,1-.9,1.8c-3.2,7.7-7.1,15.2-9.6,23.2-9.3,29.5-11.2,60-10.9,90.6.1,13.1,1,26.2,2.2,39.3.9,10.6,1.7,21.6,4.9,31.7,2.4,7.8,2.6,16.5,8.6,23.5,4.4,5.2,6.4,12.3,10,18.3,2.4,4,5.8,7.5,8.4,11.5,9.8,14.8,24.1,23.8,40,30.8a68,68,0,0,0,11.8,3.9c7.7,1.6,15.6,2.8,23.4,3.9s15.1,2.2,22.7,2.2c10.6.1,13.1,2.3,12.6,12.9-.2,4.2-2.2,6.5-6.5,6.4-2.8,0-5.7-.4-8.5-.1s-2.9,1.8-4.3,2.7a27.4,27.4,0,0,0,3.6,3.2,7.2,7.2,0,0,0,3.3.7c7.7.5,15.3,1.3,22.9,1s16.2-1.7,24.3-2.9c3.7-.6,5.7-3.1,4.7-7.4-1.7-.3-3.3-1.1-4.8-.9-3.5.4-6.9,1.2-10.3,1.9-5.9,1.2-8.9-.7-10.4-6.4a39.8,39.8,0,0,1-.8-5.9c-.4-3.4,1-5.6,4.4-6.2a47,47,0,0,0,21.6-10.8c7.7-6.8,14.9-14.1,22.4-21.2v34.9l-13,.4c-3.2.2-5.3,1.8-5.3,5.3s2.5,4.3,5.3,4.4C1015.3,347,1019.7,346.9,1024,346.8Z"/><path class="cls-1" d="M1024,100V285.9c-8.1,8.8-15.9,17.9-24.4,26.3s-16.6,12.1-26.8,13c-23.5,2.1-46.8-.4-69.7-6.4-11.9-3.1-23.4-7.9-31.9-16.6s-14.7-15.2-20-24.7-11.9-19.3-15.2-30.9a215.9,215.9,0,0,1-7.9-42.6c-2.2-29-.6-57.9,2.6-86.6,1.7-15.1,4.2-30.1,9.9-44.5s13.7-29,26.4-39.5,26.3-21.2,44.3-22.9,36.5,3,52,14.5c6.8,5.1,13.4,10.8,20.7,15.1,11.2,6.6,18.6,16.5,24.5,27.6S1018.9,89.2,1024,100ZM906.7,65.5,895.9,49.3c-1.2-1.8-2-4.2-3.6-5.3s-4.3-1.2-6.5-1.7c-.4,2.4-1.7,5.1-1,7a141.1,141.1,0,0,0,7.5,16.3A102.3,102.3,0,0,0,900.5,78c1.1,1.3,4,2.9,5,2.4,4.7-2.6,9.1-5.8,13.6-8.9.3-.2.3-.9.3-1.4-.6-8.8-1.2-17.6-2-26.3-.3-3.3-2-5.5-6-5s-4.4,3.5-4.3,6.2c.1,5.6-3,11.3,0,16.9C907.5,62.6,906.9,63.8,906.7,65.5Zm41.2,14.1c3.9,1.3,8,4.7,11.9.6s10-5.6,15.7-6.8c2.3-.4,4.7-.2,6.9-.7,4.2-.9,6-4.6,5.3-10.4-.5-3.8-3.3-4.9-6.6-4.5s-9,1.6-13.6,1.8C956.3,60.2,948.2,68.3,947.9,79.6ZM908.7,276.2c7.5-.8,14-1.6,20.6-2.1s11.6-.5,17.4-1.3c1.8-.3,3.4-2.4,5.1-3.6-1.7-1.2-3.4-3.2-5.2-3.3-5.8-.2-11.6.3-17.4.3-9.9,0-19.9,0-29.8-.3-2.6-.1-5.1-1.5-7.7-1.9s-3.9.3-4.3,1.1a5.9,5.9,0,0,0,.3,5.2,7.7,7.7,0,0,0,4.7,3.1C898,274.7,903.7,275.4,908.7,276.2Zm-11.3-54.7c9.7.9,12.4-2.9,9.8-10.7a34.9,34.9,0,0,1-1.3-10.7c0-5.5.6-11.1.9-17.7-2.8.4-6.4,0-7.3,1.3-3,4.8-5.1,10.1-4.2,16.3S896.8,214.5,897.4,221.5Zm62.9-47.3c.1-7.2-3.7-12.7-8.9-12.9s-13.4,6.6-13.2,12.1,4.1,10.5,10.1,10.7S960.3,180.1,960.3,174.2ZM936.6,75c5.2,2,5.2-1.3,4.3-4.8-2.4-8.8-1.9-17.5.4-26.3.3-1.3-1.2-4.1-2.6-4.7-4.3-2.1-9.2,1.4-9.3,6.8-.1,7.6.3,15.2.3,22.7C929.8,73.4,931.1,76.3,936.6,75Zm-84.9,95.9c.4,8.7,3.4,12.6,9.5,12.4s11.2-5,11-11.1-4.5-11.5-10.4-11.2S851.4,164.2,851.7,170.9Z"/><path d="M.1,571.7c11.2-3.9,22.5-7.6,33.5-12.1,2.3-.9,4.6-4.5,4.9-7,1.5-13.2,3.1-26.5,3.2-39.8s-1.9-29.5-2.4-44.3c-.3-9.7-2.3-19.8,2.2-29s11.4-18.1,22-22.7c5.1-2.3,9.7-5.7,14.5-8.5,9.5-5.6,20.1-7,30.8-7.5a353.9,353.9,0,0,0,81.7-14c7.9-2.3,9-3.5,9.4-11.7.8-15.8.7-15.9-15.2-15.4-21.3.7-42.5,1.6-63.8,2.2a83,83,0,0,1-34.5-6.4c-7.1-3.1-13.9-8.6-16.1-16.6-3-10.8-6.1-21.9-6.6-33-.8-20.4-.1-40.8.5-61.2.5-17.3,1.8-34.6,2.6-51.9.3-6.1.3-12.2.1-18.3-.1-3,.7-4.9,3.8-5.4,5.5-1.1,11-2.4,16.6-3.1,24.2-3.1,48.4-6.4,72.7-8.8,13.2-1.3,26.5-1,39.8-1.3,3.6,0,8,.3,8.9-3.6s.3-8.8-.5-13.1c-.2-1-3.7-2.3-5.5-2.1-15.1,1.7-30.3,3.4-45.3,5.8-9.7,1.5-19.1,4.2-28.7,6.4l-4.8.8c-2.4-7.7-1.7-8.6,5.3-10.4,22.3-5.7,45-8.8,67.9-10.7,9.8-.8,10.3-1.5,10.1-11.2-.1-8-.5-16-.6-24-.1-4.7-1.7-7.8-6.6-9.2-8.8-2.7-15-8.8-19.5-16.8-2.8-4.9-.4-15.4,4.7-20.6a48.1,48.1,0,0,0,4.2-4.8c6.2-8.7,15.6-12.3,25.4-14,8.3-1.5,20.8,7.3,25.3,14.6s6.8,15.5,3.5,24.1-9.5,13.6-17.3,17c-3.7,1.7-5.3,4.1-5.3,8.1-.2,7.8-.6,15.6-1,23.4s1.8,9.9,10.4,8.7c18.8-2.5,37.3-6.7,56.1-9a91.5,91.5,0,0,1,27.6,1.2c5.9,1.2,11.3,5.4,16.4,8.9s8.1,7.5,12.5,10.8c7.6,5.4,8.8,13.4,10.2,21.7,3.1,18.9-2.6,36.9-5.2,55.3-2.1,15.1-4,30.3-6.1,45.4-2.8,20-6,39.8-8.5,59.8-1.2,9.4-7.6,14.5-14.4,19.3s-16.2,6.3-25,6.9c-22.9,1.5-45.8,3-68.1,8.9-7.3,2-8.7,4.1-9,11.7-.1,2.8-.4,5.6-.6,8.4-.3,5,2.1,7.6,6.8,6.7,11.1-2.1,22.1-5,33.2-6.8,6.2-1,12.6-.3,18.9-.5,12.8-.3,19,7.1,23,18.1,1.3,3.5,4.6,6.2,7.1,9.2s4.4,5,6.3,7.6c11.1,14.7,13.6,31.3,10.5,49-2.3,13.7-4.4,11.7,8.1,18.6a119.8,119.8,0,0,1,13.8,8.9c1.9,1.4,2.8,4.1,4.6,5.9s3.5,3,5.5,3.4c9.4,2,19.5,2,28.1,5.7s19.6,9.5,23.4,20.4c1.8,5.1,1.9,11.2,1.1,16.6s-3.3,11.8-5.1,17.7c-2.8,9.2-10,14.9-17.3,19.8-3.1,2-8.5,1.9-12.4,1.1-9.3-2-15.5-8.9-21.2-15.9-3-3.7-5.8-3.8-9.5-2-8.2,4-16.3,8.1-24.6,11.9s-16.3,7.3-24.6,10.3c-4.5,1.6-9.5,1.6-14.2,2.7-1.6.3-3,1.9-4.5,3,1.1,1.5,1.9,3.6,3.4,4.6,16,10.6,20.9,22.2,13.4,40.2-1.5,3.6-4.7,6.6-7.1,9.9H268c2-1.7,3.8-3.5,5.9-5.2s5.4-3.3,7.3-5.7c6.7-8.3,3.9-24.9-5.5-29.9s-20.1-9.5-30.3-13.7c-11.7-4.9-21.9,0-31.5,6.3S197.3,603,187,604.6a8.5,8.5,0,0,0-4.2,1.5c-3.9,3.1-.1,20.9,4.7,22.4,7.8,2.5,15.6,4.7,23.3,7.3,2.5.9,4.8,2.6,7.2,3.9H189c-5.9-6.4-9.5-6.4-16,0H159c2.2-2.3,4-5.5,6.7-6.8,7.7-3.9,8.1-10.1,6.7-17.2a10.1,10.1,0,0,1-.3-2.5c-.1-5.8-2.2-10.5-8.2-12.2s-11.2-1-15.8,3a89.5,89.5,0,0,0-10.4,10c-1.5,1.8-3,5-2.4,6.9a40.9,40.9,0,0,0,6.3,11.6c2,2.7,4.9,4.8,7.4,7.2H134c-1.2-1.7-3.2-3.3-3.7-5.2-2.7-12.2-9.4-21.8-18-30.6-5.7-5.8-7.8-5.9-15.2-2.5s-17.9,6.8-26.8,10.4c-11.8,4.7-23.7,9.4-35.3,14.6-6.6,2.9-12.5,7.5-19.2,9.9C11,638,5.3,637.3.1,637.7v-18c.9.1,2.1-.2,2.9.3,4.9,3,8.2.3,11-3.3s6.3-8.9,9.4-13.3c5.5-7.8,10.7-15.8,16.7-23.3,2.5-3.1,7.1-4.7,9.9-7.7s3.8-5.7,3.1-7.8-4.6-1.4-7.3-.4c-7.3,2.8-14.7,5.6-22.2,8.2S9.2,575.9,4.4,582.6c-1,1.4-2.9,2.1-4.3,3.1Zm73-291.1h-.3c-.3,6-1.1,12-.7,18s2.2,12.1,3.4,18.1c.8,4.3,1.9,8.5,2.6,12.7,2,13.1,12.3,20.7,23.9,21.3s22.8.9,34.3,1,21.7.7,32.3-.6c18.2-2,36.1-5.6,54.2-8.1s36.5-4.3,54.8-6.4c8.5-1,17.3-.9,25.6-2.8,15.8-3.7,19.8-8.3,21.9-23.5,1.4-10.8,3.7-21.5,5.2-32.3,2.1-14.5,3.8-28.9,5.6-43.4,1.4-11,1.6-22.3,4.7-32.9,3.8-13.2,6-26,3.5-39.6-1.2-6.4-7.1-14-13.6-14.3a218.7,218.7,0,0,0-30.3.6c-8.8.9-17.4,3.5-26.2,5.2-14.3,2.6-28.6,5.5-43,7.4s-29.7,2.6-44.6,4c-20.3,2-40.7,4.2-61,6.4-11.8,1.3-23.7,3-35.6,4.3-6.5.6-9.7,3.3-10.2,9.7Q76.3,233.1,73.1,280.6ZM291.3,419.8c-.9-8.7-1.5-17.5-2.8-26.2-1-6.2-7.9-12.5-14-12.2a164.3,164.3,0,0,0-24.2,2.6c-5.8,1.1-11.3,4.1-17.1,5.6-33.9,8.8-66.9,21.6-102.2,24.5-3.5.2-5.7,2.6-4,6.3,4,8.2,3.7,17.1,3.8,25.8.1,19.8-.6,39.6-.6,59.4s.6,38.5,1.1,57.8a11.2,11.2,0,0,0,2.2,5.8c1.9,2.5,4.5,4.5,6.3,7,3.5,4.9,6.5,10,10,14.8a6,6,0,0,0,4.5,2.1c7.3-1.6,13.4,1.8,18.7,5.4s7.4,2.9,11.3.7c8.8-5.1,17.8-10,26.4-15.5,17.2-11.1,35.1-19.3,56.4-16.1,4.9.7,6.3-1.8,5.8-6.7-.8-7.8-2-15.9-.8-23.6a384.3,384.3,0,0,1,9-41C287.8,471.2,290.6,445.8,291.3,419.8ZM143.2,595.1c-1.2-1.9-2.8-5.2-4.9-8-7.9-10.5-15.8-20.9-23.8-31.3a20.1,20.1,0,0,0-4.6-4.6c-11.4-7.6-13.3-13.7-10.6-27.4,2.3-11.8,3.3-23.9,4.5-35.8.8-8.1.5-16.4,1.5-24.4s2-15.7,8.4-21.7c2.1-2,2.7-6,3-9.2.1-1-3.5-3.7-3.9-3.4-4.2,2.7-10,5.1-11.6,9.1-3,7.7-3.4,16.4-5.1,24.6s-3.4,16.5-5.6,24.6c-1.8,6.5-4.2,12.8-6.5,19.2s-4.6,14.5-7.8,21.3S69.3,540,65.4,545.8s-2.3,8.9,0,12.6c.9,1.5,5.2.9,7.9,1.4s5.9.6,7.8,2.1a226.6,226.6,0,0,1,20.7,18.4c5.3,5.6,9.3,12.4,14.3,18.3a60,60,0,0,0,10.2,9.3C129.3,610.1,143.3,600.5,143.2,595.1ZM73.3,456c-6.4,0-11.9-4.5-9.9-7.9s5.9-9,10.1-10.9c6.2-2.7,13.6-2.5,20.2-4.8a48.4,48.4,0,0,0,14.3-8.1c2.9-2.2,4.8-5.8,6.7-9.1.9-1.3,1.5-3.5,1-4.8a4.7,4.7,0,0,0-3.9-2.2c-9.7,2-19.4,4.1-29,6.8-2.6.7-4.4,3.8-6.9,5.4-4.7,3-9.9,5.4-14.4,8.7-8.1,6-13.4,14.1-13.3,24.4.2,12.8,1.4,25.5,2.1,38.2.9,15.7,2.2,31.5-3.2,46.7a14.7,14.7,0,0,0-1,5.4c.2,1.6,1.1,3.9,2.2,4.3s3.6-.3,4.7-1.4a42.1,42.1,0,0,0,6.2-7.1c3.4-5,7.4-9.9,9.5-15.5,4.4-11.7,8-23.8,11.5-35.8,2.5-8.5,4.7-17.2,6.4-25.9.5-2.7-.8-6.3-2.4-8.6s-4.6.5-7,1Zm207,86c.8,7.8,1.6,13.1,1.9,18.4.7,11.1,2.2,12.1,12.9,8.4l2.3-1c12.8-5.7,25.6-11.3,38.3-17.2,1.6-.7,3.8-2.9,3.5-3.9s-2.2-3.6-3.9-4.3c-6.1-2.2-10.2-6.3-11.4-12.6-1.9-9.9-3.3-19.9-4.7-29.9-.6-3.8.9-6.5,4.6-8.4,1.9-1,5-3.6,4.7-4.5-.9-2.6-2.8-5.6-5.1-6.9-6.7-3.6-13.8-6.4-20.6-9.6-3.8-1.7-6.5-1-7.8,3.2-.4,1.4-.7,2.9-1,4.3-1.5,7.9-2.8,15.9-4.6,23.8C286.3,516,283,530.1,280.3,542Zm118-10.8-.6-5.5c-.4-5.3-4.1-7.9-8-10.4s-8.7-6.1-13.4-8.5-8.8.1-10.1,3.7c-2.9,8.4-5.9,16.9-7.9,25.6-1.1,5-.7,10.5.1,15.6,1.2,7.3,7.1,11.6,13.3,13.6s12.8-.7,17.2-6.2C395.3,550.9,396.5,540.9,398.3,531.2ZM296.8,122.7l-23.4,4.2c-15.3,2.9-30.6,5.9-45.9,8.7-3.3.6-4.8,2.6-5.3,5.7-1.1,6.8,2.7,11.1,9.8,10,8.8-1.2,17.5-3.4,26.3-4.8,13.3-2.3,26.5-4.3,39.7-6.4,6.7-1,13.5-1.9,20.1-3.3,1.5-.3,3-2.4,3.6-4s-1-2.9-2.1-3.4C312.4,126.1,305.3,122.2,296.8,122.7ZM71.4,567.7c-2.3,1.3-5.3,2.2-7.3,4.2-9.8,10.1-19.3,20.4-28.9,30.7a10,10,0,0,0-2.5,4.2,35.1,35.1,0,0,0-.2,6.5c2.2-.1,4.5.2,6.6-.5,8.1-2.3,16.2-4.7,24.1-7.5,10.1-3.6,20.2-7.3,30-11.6,4.3-1.8,5.1-5.5,2.1-8.4-5.8-5.6-12.3-10.6-18.6-15.7C75.5,568.7,73.7,568.5,71.4,567.7ZM209.8,77.1c10.3-.5,17.6-1.9,22.5-9s4-13.8,1-20.3a17.7,17.7,0,0,0-16.6-9.9c-9.4.6-18.5,4.3-24.1,13.1s-2.8,16.6,4.3,21.2C201.3,75.1,206.9,76.1,209.8,77.1ZM337.5,493.8c-6-.1-9.9,4.5-9.2,9.8a82.6,82.6,0,0,1,.8,9.9,33.1,33.1,0,0,0,6.7,18.9c3.9,5.4,9.5,5.3,12.1-.7a276.4,276.4,0,0,0,9.8-26.8c.6-1.7-1-5.5-2.4-6C349.4,496.7,343.1,495.3,337.5,493.8ZM120.9,471.1h1c-.2-2.7,0-5.4-.7-7.9s-2.5-2.6-3.9-2.7-3,1.8-3.2,3a84.8,84.8,0,0,0-1.1,11.3c-.7,14.4-.1,29.1-2.5,43.2-1.6,9.5-3.3,17.7,4.2,25.1.1.1.1.4.2.4l5.5,2.8c.7-1.7,2-3.5,2-5.3-.3-6.2-1.4-12.5-1.4-18.7C120.7,505.2,120.9,488.2,120.9,471.1Zm195.5-26.2c-.4-4.3-.1-9.2-1.5-13.5A87.8,87.8,0,0,0,307,414c-.8-1.5-4.2-2.2-6.3-1.9s-2.1,3.4-2.1,5.3c-.2,8.7.2,17.3-.2,25.9-.4,11.4,2,11.1,10.3,16.7,3,2,5.8.4,6.4-3.3S316,449.1,316.4,444.9Z"/><path class="cls-1" d="M1024,538.8v88.9c-12,.2-24,.8-36,.5-19.1-.5-38.1-1.5-57.2-2.5-17.1-1-34.2-2.3-51.3-3.7-7.6-.7-15.1-3-22.7-3.1-24.6-.5-49.2-.2-73.9-.4-35.9-.4-71.9,2.2-107.8-1.9-10.2-1.2-20.4-2.8-30.7-2.9a766.4,766.4,0,0,1-90.8-6.1c-8.7-1.2-17.5-1.9-26.1-3.3-1.6-.2-2.9-2.5-4.3-3.9,1.3-1.2,2.4-3,4-3.6,5.3-1.8,10.7-3.2,16.1-4.9,7.1-2.3,14.1-5,21.3-7,26.5-7.6,52.9-15.2,77.4-28.1,6.4-3.4,13.4-5.7,19.9-8.9,9.1-4.4,18.1-9.1,27-13.8,12-6.2,23.7-12.7,35.8-18.5,3.3-1.5,8.5-2.4,11.3-.8s6,6.4,8.1,10.2c5.4,9.8,12.7,16.9,24.1,18.8,4.1.7,5.4,2.4,4,6.5-.7,2.1-1.7,5.1-.8,6.6,2.5,3.9.7,5.8-1.5,9a15.2,15.2,0,0,0-1.8,10.5c.8,3.6,4.9,3.1,8.1,3,10.8-.5,21.6-1,32.5-1,6.2,0,12.5.9,18.8,1.5,10.9,1,22-.5,32.6,4.3,4.3,2,10,3,14.5,2,7-1.6,13.7-5,18.4-11.2a7.6,7.6,0,0,1,4-2.8c11.7-3.1,23-7,33.2-14.2s18.5-11.8,28.1-17.2a20.4,20.4,0,0,1,9.8-3C986.7,537.9,1005.4,538.4,1024,538.8Z"/><path d="M1024,538.8c-18.6-.4-37.3-.9-55.9-1a20.4,20.4,0,0,0-9.8,3c-9.6,5.4-19.2,10.8-28.1,17.2s-21.5,11.1-33.2,14.2a7.6,7.6,0,0,0-4,2.8c-4.7,6.2-11.4,9.6-18.4,11.2-4.5,1-10.2,0-14.5-2-10.6-4.8-21.7-3.3-32.6-4.3-6.3-.6-12.6-1.5-18.8-1.5-10.9,0-21.7.5-32.5,1-3.2.1-7.3.6-8.1-3a15.2,15.2,0,0,1,1.8-10.5c2.2-3.2,4-5.1,1.5-9-.9-1.5.1-4.5.8-6.6,1.4-4.1.1-5.8-4-6.5-11.4-1.9-18.7-9-24.1-18.8-2.1-3.8-4.5-8.3-8.1-10.2s-8-.7-11.3.8c-12.1,5.8-23.8,12.3-35.8,18.5-8.9,4.7-17.9,9.4-27,13.8-6.5,3.2-13.5,5.5-19.9,8.9-24.5,12.9-50.9,20.5-77.4,28.1-7.2,2-14.2,4.7-21.3,7-5.4,1.7-10.8,3.1-16.1,4.9-1.6.6-2.7,2.4-4,3.6,1.4,1.4,2.7,3.7,4.3,3.9,8.6,1.4,17.4,2.1,26.1,3.3a766.4,766.4,0,0,0,90.8,6.1c10.3.1,20.5,1.7,30.7,2.9,35.9,4.1,71.9,1.5,107.8,1.9,24.7.2,49.3-.1,73.9.4,7.6.1,15.1,2.4,22.7,3.1,17.1,1.4,34.2,2.7,51.3,3.7,19.1,1,38.1,2,57.2,2.5,12,.3,24-.3,36-.5v10c-8-.3-15.9-.8-23.9-1-27.1-.5-54.2-.9-81.3-1.6-10.7-.3-21.5-.9-32.2-1.9-12.8-1.2-25.4-3.5-38.1-4.6-7.8-.6-15.6.4-23.4.4-32.4.1-64.9.4-97.3.2-14.8-.1-29.6-.7-44.3-1.7-12.4-.8-24.7-2.9-37.1-3.7s-26.6-.4-39.9-1.1c-11.6-.6-23.2-1.7-34.7-3s-23-3.1-34.5-4.8c-4.8-.7-6.7.8-6.7,5.9s.3,12.6.4,18.9H521c.3-7.1.5-14.2,1-21.3.2-3.7-1.2-5.9-4.8-6-5.3-.3-10.6-.3-15.9-.2s-7,1.3-4.3,7.3a5.3,5.3,0,0,1,.4,1.9l.6,18.3H488c.1-9.8,0-19.6.5-29.4.2-4.5,2.4-8.6,7.3-10.4,14.8-5.3,29.5-10.8,44.4-15.8,17.2-5.8,34.6-10.8,51.6-16.9s33.6-13.1,50.1-20.4,32-15.1,47.8-23.1c5.9-3,10.8-7.7,16.7-10.6s10.4-3.4,15.7-4.4,7-1.3,7.6-8c.3-4.4.1-9.2,6-11,.3,18.8,12.7,30.4,24,42.7a13.4,13.4,0,0,0,5.1,3.8c2,.6,5.2,1.2,6.4.1s1.7-4.6.9-6.2-4.3-5.3-6.4-8-3.2-4-3.8-6.3c-3.4-11.5-7.6-22.2-19.4-27.9a4.8,4.8,0,0,1-2-1.4L734.4,474c2.6-3.1,5.6-5,9-.8A140.3,140.3,0,0,1,754,487.3c3.2,5.2,6.8,6.2,10.3,1.2,9.8-14,19.1-28.3,28.5-42.5,2.9-4.4,5.8-8.9,8.5-13.4,9-15.1,17.9-30.3,26.7-45.4,6.3-10.8,14.2-20.2,24.8-26.5,5.4-3.3,12.4-4.5,18.8-5.3,14.3-1.8,28.8-2.4,43-4.4,4.3-.5,8.3-2.6,12.4-.4,1.4.7,3.1,2.4,3.1,3.5a6.9,6.9,0,0,1-2.7,4.4c-1.2.9-3.2.7-4.7,1.3s-4.7,1.6-4.8,2.7.8,4.9,2.2,5.8c6.7,3.6,13.5,7.4,20.7,9.8,13.7,4.5,28,6.8,42.2,4.4,6.3-1.1,12.4-4.7,17.9-8.2,8.5-5.5,16-12.5,21-21.6.4-.8,1.4-1.3,2.1-1.9v17a38.6,38.6,0,0,0-3.8,3c-16.9,16.9-36.4,26.4-60.9,21.9-5-.9-9.7-3.5-14.7-4.2-13.1-1.8-23.9-8.3-34.2-15.8-2.4-1.8-4.1-4.9-5.4-7.8s-2.7-3.4-5.4-3.2c-6.3.6-12.6.9-18.9,1.5s-13.2,1.4-19.6,2.6-6.7,4.7-3.6,8.6,7.5,9.5,11.6,14c10.5,11.7,19.4,24.7,33.5,33.3s28.3,14.1,44.9,13.4c9.5-.4,18.6-1.5,27.7-4.8,16.1-5.8,32.5-10.4,48.8-15.5v11l-20.9,6.7c-20.2,6.5-40.3,12.7-62.2,11.5-18.4-1-34.3-6.6-47.9-19-4.5-4-8.9-8-13.6-11.7-1.3-1-4.1-1.8-5.3-1.1-3.7,2.3-7.6,4.8-10.5,8.1-8.6,9.8-17.3,19.7-25,30.3s-15.1,22.5-22.3,34c-3.2,5.2-1.3,16.6,2.9,19.4,6.1,3.9,12.3,7.8,20.3,6.6a137.6,137.6,0,0,1,20.2-1.7,210,210,0,0,1,23.8,1.8c13.2,1.7,26.4,3.3,39.4,5.9s28.2,6.7,42.9,6.7c16.6,0,33.2.9,49.9,1.5a81.5,81.5,0,0,1,8.3,1ZM868.9,576.9c8.6.1,13.4-4.8,18.8-8.5a57.9,57.9,0,0,1,10.3-5.8c9.1-4.1,18.4-7.6,27.4-11.7a150.2,150.2,0,0,0,18.2-9.6c2.1-1.3,3.5-4.5,3.9-6.9s-2.8-3.6-4.6-4.1c-6.6-1.7-13.3-2.8-19.9-4.1-10.8-2.1-21.4-4.9-32.2-6.2s-23.7-1.6-35.6-2a16.6,16.6,0,0,0-7,2.1c-6.2,3-12,6.9-18.4,9.2-8.9,3.3-18.3,5.4-27.5,8.1-12.7,3.6-20.1,12.6-24.2,24.5-2,5.8-.4,7.5,5.7,7.6,14.3.3,28.6.4,42.8,1.1,10.4.5,20.8,1.6,31.2,3C861.9,574.1,865.9,576,868.9,576.9Zm.2-172.6a31.5,31.5,0,0,0-2.5-4.9l-15.1-20.3c-1.9-2.7-4.4-2.9-6.4-.9-3.9,3.8-8,7.7-10.8,12.3-4,6.4-6.7,13.6-10.3,20.2-4.8,9-10,17.9-15.1,26.8-1.2,2.1-3.3,3.8-4.2,6-3.3,8.3-6.4,16.7-9.2,25.2-.7,2.1-.7,6,.3,6.6,3.2,1.6,7.8,3.7,10.3,2.5,4.8-2.6,8.7-7,12.6-11.1,2.5-2.5,4.2-5.8,6.1-8.7,4.4-6.4,8.9-12.7,13-19.3,7.2-11.5,15.2-22.1,26.9-29.4C866.5,408.2,867.6,406.1,869.1,404.3ZM780.3,519.5h-.1c.1,2.3,0,4.7.3,7,1,7.1,5.4,9.2,11.6,5.7,2.9-1.5,5.7-3.7,8.8-4.3,5-1,8.1-3.8,10.7-7.9s1.4-8-1.8-12.1c-4.5-5.7-12.2-9.7-18.9-8.1s-10.3,7.4-10.6,15.7Z"/><path class="cls-1" d="M1024,525.8a81.5,81.5,0,0,0-8.3-1c-16.7-.6-33.3-1.5-49.9-1.5-14.7,0-28.7-3.8-42.9-6.7s-26.2-4.2-39.4-5.9a210,210,0,0,0-23.8-1.8,137.6,137.6,0,0,0-20.2,1.7c-8,1.2-14.2-2.7-20.3-6.6-4.2-2.8-6.1-14.2-2.9-19.4,7.2-11.5,14.3-23.1,22.3-34s16.4-20.5,25-30.3c2.9-3.3,6.8-5.8,10.5-8.1,1.2-.7,4,.1,5.3,1.1,4.7,3.7,9.1,7.7,13.6,11.7,13.6,12.4,29.5,18,47.9,19,21.9,1.2,42-5,62.2-11.5l20.9-6.7v50c-19.2.6-38.5,1.5-57.7,1.6s-39.3-.4-58.9-1.1c-4.9-.1-9.7-1.9-14.5-3.4s-4.7-4.6-3.5-8.1a124.4,124.4,0,0,1,6.1-15.7c2-4.1,1.2-6.5-3.7-8.9-3.9,7.9-8.4,15.5-11.3,23.7-1.6,4.5-.7,10-.4,15.1,0,1.3,2,3.4,3.3,3.6,9.7,1.2,19.5,2.8,29.2,2.9,27.5.4,55.1.3,82.6.2,9.6,0,19.2-.6,28.8-.9Z"/><path d="M1024,100c-5.1-10.8-9.9-21.8-15.5-32.3s-13.3-21-24.5-27.6c-7.3-4.3-13.9-10-20.7-15.1-15.5-11.5-32.6-16.3-52-14.5S880.1,22.6,867,33.4s-20.4,24.3-26.4,39.5-8.2,29.4-9.9,44.5c-3.2,28.7-4.8,57.6-2.6,86.6a215.9,215.9,0,0,0,7.9,42.6c3.3,11.6,9.7,20.9,15.2,30.9s12.7,17.3,20,24.7,20,13.5,31.9,16.6c22.9,6,46.2,8.5,69.7,6.4,10.2-.9,19.5-5.8,26.8-13s16.3-17.5,24.4-26.3v16c-7.5,7.1-14.7,14.4-22.4,21.2A47,47,0,0,1,980,333.9c-3.4.6-4.8,2.8-4.4,6.2a39.8,39.8,0,0,0,.8,5.9c1.5,5.7,4.5,7.6,10.4,6.4,3.4-.7,6.8-1.5,10.3-1.9,1.5-.2,3.1.6,4.8.9,1,4.3-1,6.8-4.7,7.4-8.1,1.2-16.1,2.6-24.3,2.9s-15.2-.5-22.9-1a7.2,7.2,0,0,1-3.3-.7,27.4,27.4,0,0,1-3.6-3.2c1.4-.9,2.8-2.4,4.3-2.7s5.7.1,8.5.1c4.3.1,6.3-2.2,6.5-6.4.5-10.6-2-12.8-12.6-12.9-7.6,0-15.1-1.2-22.7-2.2s-15.7-2.3-23.4-3.9a68,68,0,0,1-11.8-3.9c-15.9-7-30.2-16-40-30.8-2.6-4-6-7.5-8.4-11.5-3.6-6-5.6-13.1-10-18.3-6-7-6.2-15.7-8.6-23.5-3.2-10.1-4-21.1-4.9-31.7-1.2-13.1-2.1-26.2-2.2-39.3-.3-30.6,1.6-61.1,10.9-90.6,2.5-8,6.4-15.5,9.6-23.2a10,10,0,0,0,.9-1.8c.8-8.9,7.6-13.6,13.5-18.9S865.4,22.4,872.5,17s12.7-8,19.4-11.1S903.3,1.9,909,0h30a85.3,85.3,0,0,1,34,16.7c5.9,4.7,11.8,9.5,18.3,13.3,13.1,7.8,21.3,19.6,28.7,32.3,1.3,2.3,2.7,4.5,4,6.7Z"/><path class="cls-1" d="M1024,414.8c-16.3,5.1-32.7,9.7-48.8,15.5-9.1,3.3-18.2,4.4-27.7,4.8-16.6.7-30.8-4.9-44.9-13.4s-23-21.6-33.5-33.3c-4.1-4.5-7.8-9.3-11.6-14s-1.8-7.7,3.6-8.6,13-1.9,19.6-2.6,12.6-.9,18.9-1.5c2.7-.2,4.2.6,5.4,3.2s3,6,5.4,7.8c10.3,7.5,21.1,14,34.2,15.8,5,.7,9.7,3.3,14.7,4.2,24.5,4.5,44-5,60.9-21.9a38.6,38.6,0,0,1,3.8-3Z"/><path class="cls-1" d="M531,639.7c-.1-6.3-.4-12.6-.4-18.9s1.9-6.6,6.7-5.9c11.5,1.7,23,3.5,34.5,4.8s23.1,2.4,34.7,3c13.3.7,26.6.3,39.9,1.1s24.7,2.9,37.1,3.7c14.7,1,29.5,1.6,44.3,1.7,32.4.2,64.9-.1,97.3-.2,7.8,0,15.6-1,23.4-.4,12.7,1.1,25.3,3.4,38.1,4.6,10.7,1,21.5,1.6,32.2,1.9,27.1.7,54.2,1.1,81.3,1.6,8,.2,15.9.7,23.9,1-.3.7-.5,1.8-1,1.9a13.6,13.6,0,0,1-3.5.1Z"/><path class="cls-1" d="M218,639.7c-2.4-1.3-4.7-3-7.2-3.9-7.7-2.6-15.5-4.8-23.3-7.3-4.8-1.5-8.6-19.3-4.7-22.4a8.5,8.5,0,0,1,4.2-1.5c10.3-1.6,18.5-7.6,26.9-13.1s19.8-11.2,31.5-6.3c10.2,4.2,20.5,8.5,30.3,13.7s12.2,21.6,5.5,29.9c-1.9,2.4-4.9,3.8-7.3,5.7s-3.9,3.5-5.9,5.2Z"/><path class="cls-1" d="M.1,637.7c5.2-.4,10.9.3,15.7-1.4,6.7-2.4,12.6-7,19.2-9.9,11.6-5.2,23.5-9.9,35.3-14.6,8.9-3.6,18.1-6.5,26.8-10.4s9.5-3.3,15.2,2.5c8.6,8.8,15.3,18.4,18,30.6.5,1.9,2.5,3.5,3.7,5.2H3.5C2.3,639.6-.4,641.2.1,637.7Z"/><path class="cls-1" d="M1024,69c-1.3-2.2-2.7-4.4-4-6.7-7.4-12.7-15.6-24.5-28.7-32.3-6.5-3.8-12.4-8.6-18.3-13.3A85.3,85.3,0,0,0,939,0h85Z"/><path d="M1024,484.8c-9.6.3-19.2.9-28.8.9-27.5.1-55.1.2-82.6-.2-9.7-.1-19.5-1.7-29.2-2.9-1.3-.2-3.3-2.3-3.3-3.6-.3-5.1-1.2-10.6.4-15.1,2.9-8.2,7.4-15.8,11.3-23.7,4.9,2.4,5.7,4.8,3.7,8.9a124.4,124.4,0,0,0-6.1,15.7c-1.2,3.5-.4,6.9,3.5,8.1s9.6,3.3,14.5,3.4c19.6.7,39.2,1.2,58.9,1.1s38.5-1,57.7-1.6Z"/><path class="cls-1" d="M.1,585.7c1.4-1,3.3-1.7,4.3-3.1,4.8-6.7,12.3-7.8,19.2-10.2s14.9-5.4,22.2-8.2c2.7-1,6.1-3.1,7.3.4s-1.2,5.9-3.1,7.8-7.4,4.6-9.9,7.7c-6,7.5-11.2,15.5-16.7,23.3-3.1,4.4-6.1,9-9.4,13.3S7.9,623,3,620c-.8-.5-2-.2-2.9-.3Z"/><path class="cls-1" d="M149,639.7c-2.5-2.4-5.4-4.5-7.4-7.2a40.9,40.9,0,0,1-6.3-11.6c-.6-1.9.9-5.1,2.4-6.9a89.5,89.5,0,0,1,10.4-10c4.6-4,10.2-4.7,15.8-3s8.1,6.4,8.2,12.2a10.1,10.1,0,0,0,.3,2.5c1.4,7.1,1,13.3-6.7,17.2-2.7,1.3-4.5,4.5-6.7,6.8Z"/><path class="cls-1" d="M498,639.7l-.6-18.3a5.3,5.3,0,0,0-.4-1.9c-2.7-6-2.1-7.1,4.3-7.3s10.6-.1,15.9.2c3.6.1,5,2.3,4.8,6-.5,7.1-.7,14.2-1,21.3Z"/><path d="M1024,346.8c-4.3.1-8.7.2-13,.1-2.8-.1-5.4-.6-5.3-4.4s2.1-5.1,5.3-5.3l13-.4Z"/><path class="cls-1" d="M173,639.7c6.5-6.4,10.1-6.4,16,0Z"/><path d="M906.7,65.5c.2-1.7.8-2.9.4-3.6-3-5.6.1-11.3,0-16.9-.1-2.7.4-5.7,4.3-6.2s5.7,1.7,6,5c.8,8.7,1.4,17.5,2,26.3,0,.5,0,1.2-.3,1.4-4.5,3.1-8.9,6.3-13.6,8.9-1,.5-3.9-1.1-5-2.4a102.3,102.3,0,0,1-8.2-12.4,141.1,141.1,0,0,1-7.5-16.3c-.7-1.9.6-4.6,1-7,2.2.5,4.7.5,6.5,1.7s2.4,3.5,3.6,5.3Z"/><path d="M947.9,79.6c.3-11.3,8.4-19.4,19.6-20,4.6-.2,9.1-1.3,13.6-1.8s6.1.7,6.6,4.5c.7,5.8-1.1,9.5-5.3,10.4-2.2.5-4.6.3-6.9.7-5.7,1.2-11.4,2.1-15.7,6.8S951.8,80.9,947.9,79.6Z"/><path d="M908.7,276.2c-5-.8-10.7-1.5-16.3-2.8a7.7,7.7,0,0,1-4.7-3.1,5.9,5.9,0,0,1-.3-5.2c.4-.8,2.9-1.3,4.3-1.1s5.1,1.8,7.7,1.9c9.9.3,19.9.3,29.8.3,5.8,0,11.6-.5,17.4-.3,1.8.1,3.5,2.1,5.2,3.3-1.7,1.2-3.3,3.3-5.1,3.6-5.8.8-11.6.8-17.4,1.3S916.2,275.4,908.7,276.2Z"/><path d="M897.4,221.5c-.6-7-.9-14.3-2.1-21.5s1.2-11.5,4.2-16.3c.9-1.3,4.5-.9,7.3-1.3-.3,6.6-.9,12.2-.9,17.7a34.9,34.9,0,0,0,1.3,10.7C909.8,218.6,907.1,222.4,897.4,221.5Z"/><path d="M960.3,174.2c0,5.9-5.1,10.1-12,9.9s-10-4.4-10.1-10.7,7.2-12.3,13.2-12.1S960.4,167,960.3,174.2Z"/><path d="M936.6,75c-5.5,1.3-6.8-1.6-6.9-6.3,0-7.5-.4-15.1-.3-22.7.1-5.4,5-8.9,9.3-6.8,1.4.6,2.9,3.4,2.6,4.7-2.3,8.8-2.8,17.5-.4,26.3C941.8,73.7,941.8,77,936.6,75Z"/><path d="M851.7,170.9c-.3-6.7,2.8-9.6,10.1-9.9s10.1,4.3,10.4,11.2-4.5,10.9-11,11.1S852.1,179.6,851.7,170.9Z"/><path class="cls-1" d="M73.1,280.6q3.2-47.6,6.5-95.2c.5-6.4,3.7-9.1,10.2-9.7,11.9-1.3,23.8-3,35.6-4.3,20.3-2.2,40.7-4.4,61-6.4,14.9-1.4,29.8-2.1,44.6-4s28.7-4.8,43-7.4c8.8-1.7,17.4-4.3,26.2-5.2a218.7,218.7,0,0,1,30.3-.6c6.5.3,12.4,7.9,13.6,14.3,2.5,13.6.3,26.4-3.5,39.6-3.1,10.6-3.3,21.9-4.7,32.9-1.8,14.5-3.5,28.9-5.6,43.4-1.5,10.8-3.8,21.5-5.2,32.3-2.1,15.2-6.1,19.8-21.9,23.5-8.3,1.9-17.1,1.8-25.6,2.8-18.3,2.1-36.6,3.9-54.8,6.4s-36,6.1-54.2,8.1c-10.6,1.3-21.5.7-32.3.6s-22.9-.5-34.3-1-21.9-8.2-23.9-21.3c-.7-4.2-1.8-8.4-2.6-12.7-1.2-6-2.9-12-3.4-18.1s.4-12,.7-18ZM245.9,254c0,16.4,11.7,29.3,27.1,28.9,23.2-.6,35.3-12.4,35.9-32.1.5-17.3-14-29.6-31.2-29.7S246.3,236.7,245.9,254Zm-60.5,7.9c0-6.5-2.7-12.1-7.6-17.6-12.9-14.1-26-14.1-36.7-9.2-12.7,5.9-19.1,15.8-19,29.4,0,4.9,1.4,10.8,4.4,14.4,10.8,12.8,31.9,17.9,46.1,5.5C179.3,278.6,185.9,272.6,185.4,261.9Zm-16.9,61.7,10.6-.8,51.9-5.9c4.4-.5,9-.5,13.2-1.5a7.7,7.7,0,0,0,4.6-4.6c.3-1-2.3-3.3-4.1-4.3s-3.2-.6-4.8-.4c-8.6.9-17.2,2-25.8,3-13.6,1.6-27.3,3-41,5C166.5,315,165.9,316.8,168.5,323.6Z"/><path class="cls-1" d="M291.3,419.8c-.7,26-3.5,51.4-10.2,76.5a384.3,384.3,0,0,0-9,41c-1.2,7.7,0,15.8.8,23.6.5,4.9-.9,7.4-5.8,6.7-21.3-3.2-39.2,5-56.4,16.1-8.6,5.5-17.6,10.4-26.4,15.5-3.9,2.2-7.1,2.2-11.3-.7s-11.4-7-18.7-5.4a6,6,0,0,1-4.5-2.1c-3.5-4.8-6.5-9.9-10-14.8-1.8-2.5-4.4-4.5-6.3-7a11.2,11.2,0,0,1-2.2-5.8c-.5-19.3-1-38.5-1.1-57.8s.7-39.6.6-59.4c-.1-8.7.2-17.6-3.8-25.8-1.7-3.7.5-6.1,4-6.3,35.3-2.9,68.3-15.7,102.2-24.5,5.8-1.5,11.3-4.5,17.1-5.6a164.3,164.3,0,0,1,24.2-2.6c6.1-.3,13,6,14,12.2C289.8,402.3,290.4,411.1,291.3,419.8Z"/><path class="cls-1" d="M143.2,595.1c.1,5.4-13.9,15-16.9,12.8a60,60,0,0,1-10.2-9.3c-5-5.9-9-12.7-14.3-18.3a226.6,226.6,0,0,0-20.7-18.4c-1.9-1.5-5.1-1.6-7.8-2.1s-7,.1-7.9-1.4c-2.3-3.7-2.9-8.3,0-12.6s7.9-11.5,10.8-17.7,5.3-14.2,7.8-21.3,4.7-12.7,6.5-19.2c2.2-8.1,3.9-16.4,5.6-24.6s2.1-16.9,5.1-24.6c1.6-4,7.4-6.4,11.6-9.1.4-.3,4,2.4,3.9,3.4-.3,3.2-.9,7.2-3,9.2-6.4,6-7.5,13.8-8.4,21.7s-.7,16.3-1.5,24.4c-1.2,11.9-2.2,24-4.5,35.8-2.7,13.7-.8,19.8,10.6,27.4a20.1,20.1,0,0,1,4.6,4.6c8,10.4,15.9,20.8,23.8,31.3C140.4,589.9,142,593.2,143.2,595.1Z"/><path class="cls-1" d="M73.3,456l3.9-1.2c2.4-.5,6.4-1.9,7-1s2.9,5.9,2.4,8.6c-1.7,8.7-3.9,17.4-6.4,25.9-3.5,12-7.1,24.1-11.5,35.8-2.1,5.6-6.1,10.5-9.5,15.5a42.1,42.1,0,0,1-6.2,7.1c-1.1,1.1-3.5,1.9-4.7,1.4s-2-2.7-2.2-4.3a14.7,14.7,0,0,1,1-5.4c5.4-15.2,4.1-31,3.2-46.7-.7-12.7-1.9-25.4-2.1-38.2-.1-10.3,5.2-18.4,13.3-24.4,4.5-3.3,9.7-5.7,14.4-8.7,2.5-1.6,4.3-4.7,6.9-5.4,9.6-2.7,19.3-4.8,29-6.8a4.7,4.7,0,0,1,3.9,2.2c.5,1.3-.1,3.5-1,4.8-1.9,3.3-3.8,6.9-6.7,9.1a48.4,48.4,0,0,1-14.3,8.1c-6.6,2.3-14,2.1-20.2,4.8-4.2,1.9-7.7,6.7-10.1,10.9S66.9,456,73.3,456Z"/><path class="cls-1" d="M280.3,542c2.7-11.9,6-26,9.1-40.2,1.8-7.9,3.1-15.9,4.6-23.8.3-1.4.6-2.9,1-4.3,1.3-4.2,4-4.9,7.8-3.2,6.8,3.2,13.9,6,20.6,9.6,2.3,1.3,4.2,4.3,5.1,6.9.3.9-2.8,3.5-4.7,4.5-3.7,1.9-5.2,4.6-4.6,8.4,1.4,10,2.8,20,4.7,29.9,1.2,6.3,5.3,10.4,11.4,12.6,1.7.7,3.6,2.6,3.9,4.3s-1.9,3.2-3.5,3.9c-12.7,5.9-25.5,11.5-38.3,17.2l-2.3,1c-10.7,3.7-12.2,2.7-12.9-8.4C281.9,555.1,281.1,549.8,280.3,542Z"/><path class="cls-1" d="M398.3,531.2c-1.8,9.7-3,19.7-9.4,27.9-4.4,5.5-10.7,8.4-17.2,6.2s-12.1-6.3-13.3-13.6c-.8-5.1-1.2-10.6-.1-15.6,2-8.7,5-17.2,7.9-25.6,1.3-3.6,6.5-5.6,10.1-3.7s8.9,5.7,13.4,8.5,7.6,5.1,8,10.4Z"/><path class="cls-1" d="M296.8,122.7c8.5-.5,15.6,3.4,22.8,6.7,1.1.5,2.4,2.6,2.1,3.4s-2.1,3.7-3.6,4c-6.6,1.4-13.4,2.3-20.1,3.3-13.2,2.1-26.4,4.1-39.7,6.4-8.8,1.4-17.5,3.6-26.3,4.8-7.1,1.1-10.9-3.2-9.8-10,.5-3.1,2-5.1,5.3-5.7,15.3-2.8,30.6-5.8,45.9-8.7Z"/><path class="cls-1" d="M71.4,567.7c2.3.8,4.1,1,5.3,1.9,6.3,5.1,12.8,10.1,18.6,15.7,3,2.9,2.2,6.6-2.1,8.4-9.8,4.3-19.9,8-30,11.6-7.9,2.8-16,5.2-24.1,7.5-2.1.7-4.4.4-6.6.5a35.1,35.1,0,0,1,.2-6.5,10,10,0,0,1,2.5-4.2c9.6-10.3,19.1-20.6,28.9-30.7C66.1,569.9,69.1,569,71.4,567.7Z"/><path class="cls-1" d="M209.8,77.1c-2.9-1-8.5-2-12.9-4.9-7.1-4.6-9.7-12.8-4.3-21.2s14.7-12.5,24.1-13.1a17.7,17.7,0,0,1,16.6,9.9c3,6.5,3.6,13.7-1,20.3S220.1,76.6,209.8,77.1Z"/><path class="cls-1" d="M337.5,493.8c5.6,1.5,11.9,2.9,17.8,5.1,1.4.5,3,4.3,2.4,6a276.4,276.4,0,0,1-9.8,26.8c-2.6,6-8.2,6.1-12.1.7a33.1,33.1,0,0,1-6.7-18.9,82.6,82.6,0,0,0-.8-9.9C327.6,498.3,331.5,493.7,337.5,493.8Z"/><path class="cls-1" d="M120.9,471.1c0,17.1-.2,34.1.1,51.2,0,6.2,1.1,12.5,1.4,18.7,0,1.8-1.3,3.6-2,5.3l-5.5-2.8c-.1,0-.1-.3-.2-.4-7.5-7.4-5.8-15.6-4.2-25.1,2.4-14.1,1.8-28.8,2.5-43.2a84.8,84.8,0,0,1,1.1-11.3c.2-1.2,2.1-3,3.2-3s3.5,1.5,3.9,2.7.5,5.2.7,7.9Z"/><path class="cls-1" d="M316.4,444.9c-.4,4.2-.7,8-1.3,11.8s-3.4,5.3-6.4,3.3c-8.3-5.6-10.7-5.3-10.3-16.7.4-8.6,0-17.2.2-25.9,0-1.9,1.1-5.2,2.1-5.3s5.5.4,6.3,1.9a87.8,87.8,0,0,1,7.9,17.4C316.3,435.7,316,440.6,316.4,444.9Z"/><path class="cls-1" d="M868.9,576.9c-3-.9-7-2.8-11.1-3.3-10.4-1.4-20.8-2.5-31.2-3-14.2-.7-28.5-.8-42.8-1.1-6.1-.1-7.7-1.8-5.7-7.6,4.1-11.9,11.5-20.9,24.2-24.5,9.2-2.7,18.6-4.8,27.5-8.1,6.4-2.3,12.2-6.2,18.4-9.2a16.6,16.6,0,0,1,7-2.1c11.9.4,23.8.6,35.6,2s21.4,4.1,32.2,6.2c6.6,1.3,13.3,2.4,19.9,4.1,1.8.5,4.8,2.9,4.6,4.1s-1.8,5.6-3.9,6.9a150.2,150.2,0,0,1-18.2,9.6c-9,4.1-18.3,7.6-27.4,11.7a57.9,57.9,0,0,0-10.3,5.8C882.3,572.1,877.5,577,868.9,576.9Zm-52.2-35.5c-1,1-3.8,2.4-4.2,4.2s2.4,4.5,4.1,4.9c18.5,3.9,37.1,7.5,55.7,11.1,3,.6,5.5-.4,6.1-3.5s-1.5-4.8-4.4-5.4l-12.2-2.5Zm53.3-5.5h0c5.5,0,11,.4,16.4-.2,1.7-.2,3.1-3,4.6-4.6a28.8,28.8,0,0,0-4.6-2.4,32,32,0,0,0-4.4-.1c-8.9-.5-17.7-1.1-26.6-1.5-3-.2-6.4.6-6,4.2.2,1.7,3.2,4.2,5.2,4.5C859.6,536.3,864.8,535.9,870,535.9Z"/><path class="cls-1" d="M869.1,404.3c-1.5,1.8-2.6,3.9-4.4,5-11.7,7.3-19.7,17.9-26.9,29.4-4.1,6.6-8.6,12.9-13,19.3-1.9,2.9-3.6,6.2-6.1,8.7-3.9,4.1-7.8,8.5-12.6,11.1-2.5,1.2-7.1-.9-10.3-2.5-1-.6-1-4.5-.3-6.6,2.8-8.5,5.9-16.9,9.2-25.2.9-2.2,3-3.9,4.2-6,5.1-8.9,10.3-17.8,15.1-26.8,3.6-6.6,6.3-13.8,10.3-20.2,2.8-4.6,6.9-8.5,10.8-12.3,2-2,4.5-1.8,6.4.9l15.1,20.3A31.5,31.5,0,0,1,869.1,404.3Z"/><path class="cls-1" d="M780.3,519.5v-4c.3-8.3,4.3-14.1,10.6-15.7s14.4,2.4,18.9,8.1c3.2,4.1,4.9,7.3,1.8,12.1s-5.7,6.9-10.7,7.9c-3.1.6-5.9,2.8-8.8,4.3-6.2,3.5-10.6,1.4-11.6-5.7-.3-2.3-.2-4.7-.3-7Z"/><path d="M245.9,254c.4-17.3,15.7-33,31.8-32.9s31.7,12.4,31.2,29.7c-.6,19.7-12.7,31.5-35.9,32.1C257.6,283.3,245.9,270.4,245.9,254Zm29.6,14.1c9.6,0,16.1-3.5,19.4-10.1,4.4-8.9.2-19.5-8.5-20.5a29.4,29.4,0,0,0-20,4.6c-7,4.6-9.1,12-5,18S269.2,268.7,275.5,268.1Z"/><path d="M185.4,261.9c.5,10.7-6.1,16.7-12.8,22.5-14.2,12.4-35.3,7.3-46.1-5.5-3-3.6-4.4-9.5-4.4-14.4-.1-13.6,6.3-23.5,19-29.4,10.7-4.9,23.8-4.9,36.7,9.2C182.7,249.8,185.4,255.4,185.4,261.9Zm-31.3,18.6c5.1-.7,11.8-1.3,15.1-8.1s1.5-13.4-.9-19.9c-1.7-5-5.8-6.3-10.5-7.1-14.8-2.5-23.6,4.7-24.6,17.6C132.4,272.2,141.9,280.6,154.1,280.5Z"/><path d="M168.5,323.6c-2.6-6.8-2-8.6,4.6-9.5,13.7-2,27.4-3.4,41-5,8.6-1,17.2-2.1,25.8-3,1.6-.2,3.5-.4,4.8.4s4.4,3.3,4.1,4.3a7.7,7.7,0,0,1-4.6,4.6c-4.2,1-8.8,1-13.2,1.5l-51.9,5.9Z"/><path d="M816.7,541.4l45.1,8.8,12.2,2.5c2.9.6,5.1,2.2,4.4,5.4s-3.1,4.1-6.1,3.5c-18.6-3.6-37.2-7.2-55.7-11.1-1.7-.4-4.3-3.5-4.1-4.9S815.7,542.4,816.7,541.4Z"/><path d="M870,535.9c-5.2,0-10.4.4-15.4-.2-2-.3-5-2.8-5.2-4.5-.4-3.6,3-4.4,6-4.2,8.9.4,17.7,1,26.6,1.5a32,32,0,0,1,4.4.1A28.8,28.8,0,0,1,891,531c-1.5,1.6-2.9,4.4-4.6,4.6-5.4.6-10.9.2-16.4.2Z"/><path class="cls-1" d="M275.5,268.1c-6.3.6-10.8-2.9-14.1-8s-2-13.4,5-18a29.4,29.4,0,0,1,20-4.6c8.7,1,12.9,11.6,8.5,20.5C291.6,264.6,285.1,268.1,275.5,268.1Z"/><path class="cls-1" d="M154.1,280.5c-12.2.1-21.7-8.3-20.9-17.5,1-12.9,9.8-20.1,24.6-17.6,4.7.8,8.8,2.1,10.5,7.1,2.4,6.5,4.2,13.2.9,19.9S159.2,279.8,154.1,280.5Z"/></g></g></svg>