<?xml version="1.0" encoding="utf-8"?>
<!-- Generator: Adobe Illustrator 25.2.3, SVG Export Plug-In . SVG Version: 6.00 Build 0)  -->
<svg version="1.1" id="레이어_1" xmlns="http://www.w3.org/2000/svg" xmlns:xlink="http://www.w3.org/1999/xlink" x="0px"
	 y="0px" viewBox="0 0 1024 640" style="enable-background:new 0 0 1024 640;" xml:space="preserve">
<style type="text/css">
	.st0{stroke:#FFFFFF;stroke-miterlimit:10;}
</style>
<g id="레이어_2_1_">
	<g id="레이어_1-2">
		<path d="M0.1,571.7c11.2-3.9,22.5-7.6,33.5-12.1c2.3-0.9,4.6-4.5,4.9-7c1.5-13.2,3.1-26.5,3.2-39.8s-1.9-29.5-2.4-44.3
			c-0.3-9.7-2.3-19.8,2.2-29s11.4-18.1,22-22.7c5.1-2.3,9.7-5.7,14.5-8.5c9.5-5.6,20.1-7,30.8-7.5c27.7-1.5,55.1-6.1,81.7-14
			c7.9-2.3,9-3.5,9.4-11.7c0.8-15.8,0.7-15.9-15.2-15.4c-21.3,0.7-42.5,1.6-63.8,2.2c-11.8,0.3-23.6-1.8-34.5-6.4
			c-7.1-3.1-13.9-8.6-16.1-16.6c-3-10.8-6.1-21.9-6.6-33c-0.8-20.4-0.1-40.8,0.5-61.2c0.5-17.3,1.8-34.6,2.6-51.9
			c0.3-6.1,0.3-12.2,0.1-18.3c-0.1-3,0.7-4.9,3.8-5.4c5.5-1.1,11-2.4,16.6-3.1c24.2-3.1,48.4-6.4,72.7-8.8c13.2-1.3,26.5-1,39.8-1.3
			c3.6,0,8,0.3,8.9-3.6s0.3-8.8-0.5-13.1c-0.2-1-3.7-2.3-5.5-2.1c-15.1,1.7-30.3,3.4-45.3,5.8c-9.7,1.5-19.1,4.2-28.7,6.4l-4.8,0.8
			c-2.4-7.7-1.7-8.6,5.3-10.4c22.3-5.7,45-8.8,67.9-10.7c9.8-0.8,10.3-1.5,10.1-11.2c-0.1-8-0.5-16-0.6-24c-0.1-4.7-1.7-7.8-6.6-9.2
			c-8.8-2.7-15-8.8-19.5-16.8c-2.8-4.9-0.4-15.4,4.7-20.6c1.5-1.5,2.9-3.1,4.2-4.8c6.2-8.7,15.6-12.3,25.4-14
			c8.3-1.5,20.8,7.3,25.3,14.6s6.8,15.5,3.5,24.1s-9.5,13.6-17.3,17c-3.7,1.7-5.3,4.1-5.3,8.1c-0.2,7.8-0.6,15.6-1,23.4
			s1.8,9.9,10.4,8.7c18.8-2.5,37.3-6.7,56.1-9c9.2-1,18.5-0.6,27.6,1.2c5.9,1.2,11.3,5.4,16.4,8.9c5.1,3.5,8.1,7.5,12.5,10.8
			c7.6,5.4,8.8,13.4,10.2,21.7c3.1,18.9-2.6,36.9-5.2,55.3c-2.1,15.1-4,30.3-6.1,45.4c-2.8,20-6,39.8-8.5,59.8
			c-1.2,9.4-7.6,14.5-14.4,19.3s-16.2,6.3-25,6.9c-22.9,1.5-45.8,3-68.1,8.9c-7.3,2-8.7,4.1-9,11.7c-0.1,2.8-0.4,5.6-0.6,8.4
			c-0.3,5,2.1,7.6,6.8,6.7c11.1-2.1,22.1-5,33.2-6.8c6.2-1,12.6-0.3,18.9-0.5c12.8-0.3,19,7.1,23,18.1c1.3,3.5,4.6,6.2,7.1,9.2
			s4.4,5,6.3,7.6c11.1,14.7,13.6,31.3,10.5,49c-2.3,13.7-4.4,11.7,8.1,18.6c4.8,2.6,9.4,5.6,13.8,8.9c1.9,1.4,2.8,4.1,4.6,5.9
			s3.5,3,5.5,3.4c9.4,2,19.5,2,28.1,5.7s19.6,9.5,23.4,20.4c1.8,5.1,1.9,11.2,1.1,16.6s-3.3,11.8-5.1,17.7
			c-2.8,9.2-10,14.9-17.3,19.8c-3.1,2-8.5,1.9-12.4,1.1c-9.3-2-15.5-8.9-21.2-15.9c-3-3.7-5.8-3.8-9.5-2c-8.2,4-16.3,8.1-24.6,11.9
			s-16.3,7.3-24.6,10.3c-4.5,1.6-9.5,1.6-14.2,2.7c-1.6,0.3-3,1.9-4.5,3c1.1,1.5,1.9,3.6,3.4,4.6c16,10.6,20.9,22.2,13.4,40.2
			c-1.5,3.6-4.7,6.6-7.1,9.9h-15c2-1.7,3.8-3.5,5.9-5.2s5.4-3.3,7.3-5.7c6.7-8.3,3.9-24.9-5.5-29.9s-20.1-9.5-30.3-13.7
			c-11.7-4.9-21.9,0-31.5,6.3S197.3,603,187,604.6c-1.5,0.1-3,0.6-4.2,1.5c-3.9,3.1-0.1,20.9,4.7,22.4c7.8,2.5,15.6,4.7,23.3,7.3
			c2.5,0.9,4.8,2.6,7.2,3.9h-29c-5.9-6.4-9.5-6.4-16,0h-14c2.2-2.3,4-5.5,6.7-6.8c7.7-3.9,8.1-10.1,6.7-17.2
			c-0.2-0.8-0.3-1.7-0.3-2.5c-0.1-5.8-2.2-10.5-8.2-12.2s-11.2-1-15.8,3c-3.7,3-7.2,6.4-10.4,10c-1.5,1.8-3,5-2.4,6.9
			c1.5,4.2,3.6,8.1,6.3,11.6c2,2.7,4.9,4.8,7.4,7.2h-15c-1.2-1.7-3.2-3.3-3.7-5.2c-2.7-12.2-9.4-21.8-18-30.6
			c-5.7-5.8-7.8-5.9-15.2-2.5s-17.9,6.8-26.8,10.4c-11.8,4.7-23.7,9.4-35.3,14.6c-6.6,2.9-12.5,7.5-19.2,9.9
			c-4.8,1.7-10.5,1-15.7,1.4v-18c0.9,0.1,2.1-0.2,2.9,0.3c4.9,3,8.2,0.3,11-3.3s6.3-8.9,9.4-13.3c5.5-7.8,10.7-15.8,16.7-23.3
			c2.5-3.1,7.1-4.7,9.9-7.7s3.8-5.7,3.1-7.8s-4.6-1.4-7.3-0.4c-7.3,2.8-14.7,5.6-22.2,8.2s-14.4,3.5-19.2,10.2
			c-1,1.4-2.9,2.1-4.3,3.1L0.1,571.7z M73.1,280.6h-0.3c-0.3,6-1.1,12-0.7,18s2.2,12.1,3.4,18.1c0.8,4.3,1.9,8.5,2.6,12.7
			c2,13.1,12.3,20.7,23.9,21.3s22.8,0.9,34.3,1s21.7,0.7,32.3-0.6c18.2-2,36.1-5.6,54.2-8.1s36.5-4.3,54.8-6.4
			c8.5-1,17.3-0.9,25.6-2.8c15.8-3.7,19.8-8.3,21.9-23.5c1.4-10.8,3.7-21.5,5.2-32.3c2.1-14.5,3.8-28.9,5.6-43.4
			c1.4-11,1.6-22.3,4.7-32.9c3.8-13.2,6-26,3.5-39.6c-1.2-6.4-7.1-14-13.6-14.3c-10.1-0.5-20.2-0.3-30.3,0.6
			c-8.8,0.9-17.4,3.5-26.2,5.2c-14.3,2.6-28.6,5.5-43,7.4s-29.7,2.6-44.6,4c-20.3,2-40.7,4.2-61,6.4c-11.8,1.3-23.7,3-35.6,4.3
			c-6.5,0.6-9.7,3.3-10.2,9.7C77.4,217.2,75.2,248.9,73.1,280.6z M291.3,419.8c-0.9-8.7-1.5-17.5-2.8-26.2c-1-6.2-7.9-12.5-14-12.2
			c-8.1,0.3-16.2,1.1-24.2,2.6c-5.8,1.1-11.3,4.1-17.1,5.6c-33.9,8.8-66.9,21.6-102.2,24.5c-3.5,0.2-5.7,2.6-4,6.3
			c4,8.2,3.7,17.1,3.8,25.8c0.1,19.8-0.6,39.6-0.6,59.4c0,19.8,0.6,38.5,1.1,57.8c0.2,2.1,0.9,4.1,2.2,5.8c1.9,2.5,4.5,4.5,6.3,7
			c3.5,4.9,6.5,10,10,14.8c1.1,1.3,2.8,2.1,4.5,2.1c7.3-1.6,13.4,1.8,18.7,5.4s7.4,2.9,11.3,0.7c8.8-5.1,17.8-10,26.4-15.5
			c17.2-11.1,35.1-19.3,56.4-16.1c4.9,0.7,6.3-1.8,5.8-6.7c-0.8-7.8-2-15.9-0.8-23.6c2.3-13.8,5.3-27.5,9-41
			C287.8,471.2,290.6,445.8,291.3,419.8z M143.2,595.1c-1.2-1.9-2.8-5.2-4.9-8c-7.9-10.5-15.8-20.9-23.8-31.3
			c-1.3-1.8-2.8-3.3-4.6-4.6c-11.4-7.6-13.3-13.7-10.6-27.4c2.3-11.8,3.3-23.9,4.5-35.8c0.8-8.1,0.5-16.4,1.5-24.4s2-15.7,8.4-21.7
			c2.1-2,2.7-6,3-9.2c0.1-1-3.5-3.7-3.9-3.4c-4.2,2.7-10,5.1-11.6,9.1c-3,7.7-3.4,16.4-5.1,24.6s-3.4,16.5-5.6,24.6
			c-1.8,6.5-4.2,12.8-6.5,19.2c-2.3,6.4-4.6,14.5-7.8,21.3s-6.9,11.9-10.8,17.7s-2.3,8.9,0,12.6c0.9,1.5,5.2,0.9,7.9,1.4
			s5.9,0.6,7.8,2.1c7.3,5.7,14.2,11.9,20.7,18.4c5.3,5.6,9.3,12.4,14.3,18.3c3,3.5,6.5,6.6,10.2,9.3
			C129.3,610.1,143.3,600.5,143.2,595.1z M73.3,456c-6.4,0-11.9-4.5-9.9-7.9s5.9-9,10.1-10.9c6.2-2.7,13.6-2.5,20.2-4.8
			c5.2-1.9,10-4.6,14.3-8.1c2.9-2.2,4.8-5.8,6.7-9.1c0.9-1.3,1.5-3.5,1-4.8c-0.8-1.3-2.3-2.2-3.9-2.2c-9.7,2-19.4,4.1-29,6.8
			c-2.6,0.7-4.4,3.8-6.9,5.4c-4.7,3-9.9,5.4-14.4,8.7c-8.1,6-13.4,14.1-13.3,24.4c0.2,12.8,1.4,25.5,2.1,38.2
			c0.9,15.7,2.2,31.5-3.2,46.7c-0.7,1.7-1,3.6-1,5.4c0.2,1.6,1.1,3.9,2.2,4.3s3.6-0.3,4.7-1.4c2.3-2.1,4.4-4.5,6.2-7.1
			c3.4-5,7.4-9.9,9.5-15.5c4.4-11.7,8-23.8,11.5-35.8c2.5-8.5,4.7-17.2,6.4-25.9c0.5-2.7-0.8-6.3-2.4-8.6s-4.6,0.5-7,1L73.3,456z
			 M280.3,542c0.8,7.8,1.6,13.1,1.9,18.4c0.7,11.1,2.2,12.1,12.9,8.4l2.3-1c12.8-5.7,25.6-11.3,38.3-17.2c1.6-0.7,3.8-2.9,3.5-3.9
			s-2.2-3.6-3.9-4.3c-6.1-2.2-10.2-6.3-11.4-12.6c-1.9-9.9-3.3-19.9-4.7-29.9c-0.6-3.8,0.9-6.5,4.6-8.4c1.9-1,5-3.6,4.7-4.5
			c-0.9-2.6-2.8-5.6-5.1-6.9c-6.7-3.6-13.8-6.4-20.6-9.6c-3.8-1.7-6.5-1-7.8,3.2c-0.4,1.4-0.7,2.9-1,4.3c-1.5,7.9-2.8,15.9-4.6,23.8
			C286.3,516,283,530.1,280.3,542z M398.3,531.2l-0.6-5.5c-0.4-5.3-4.1-7.9-8-10.4s-8.7-6.1-13.4-8.5s-8.8,0.1-10.1,3.7
			c-2.9,8.4-5.9,16.9-7.9,25.6c-1.1,5-0.7,10.5,0.1,15.6c1.2,7.3,7.1,11.6,13.3,13.6s12.8-0.7,17.2-6.2
			C395.3,550.9,396.5,540.9,398.3,531.2z M296.8,122.7l-23.4,4.2c-15.3,2.9-30.6,5.9-45.9,8.7c-3.3,0.6-4.8,2.6-5.3,5.7
			c-1.1,6.8,2.7,11.1,9.8,10c8.8-1.2,17.5-3.4,26.3-4.8c13.3-2.3,26.5-4.3,39.7-6.4c6.7-1,13.5-1.9,20.1-3.3c1.5-0.3,3-2.4,3.6-4
			s-1-2.9-2.1-3.4C312.4,126.1,305.3,122.2,296.8,122.7z M71.4,567.7c-2.3,1.3-5.3,2.2-7.3,4.2c-9.8,10.1-19.3,20.4-28.9,30.7
			c-1.2,1.2-2,2.6-2.5,4.2c-0.3,2.2-0.3,4.3-0.2,6.5c2.2-0.1,4.5,0.2,6.6-0.5c8.1-2.3,16.2-4.7,24.1-7.5c10.1-3.6,20.2-7.3,30-11.6
			c4.3-1.8,5.1-5.5,2.1-8.4c-5.8-5.6-12.3-10.6-18.6-15.7C75.5,568.7,73.7,568.5,71.4,567.7z M209.8,77.1c10.3-0.5,17.6-1.9,22.5-9
			s4-13.8,1-20.3c-3.1-6.3-9.6-10.2-16.6-9.9c-9.4,0.6-18.5,4.3-24.1,13.1s-2.8,16.6,4.3,21.2C201.3,75.1,206.9,76.1,209.8,77.1z
			 M337.5,493.8c-6-0.1-9.9,4.5-9.2,9.8c0.5,3.3,0.7,6.6,0.8,9.9c0.2,6.8,2.6,13.4,6.7,18.9c3.9,5.4,9.5,5.3,12.1-0.7
			c3.7-8.8,7-17.7,9.8-26.8c0.6-1.7-1-5.5-2.4-6C349.4,496.7,343.1,495.3,337.5,493.8z M120.9,471.1h1c-0.2-2.7,0-5.4-0.7-7.9
			s-2.5-2.6-3.9-2.7s-3,1.8-3.2,3c-0.6,3.7-1,7.5-1.1,11.3c-0.7,14.4-0.1,29.1-2.5,43.2c-1.6,9.5-3.3,17.7,4.2,25.1
			c0.1,0.1,0.1,0.4,0.2,0.4l5.5,2.8c0.7-1.7,2-3.5,2-5.3c-0.3-6.2-1.4-12.5-1.4-18.7C120.7,505.2,120.9,488.2,120.9,471.1z
			 M316.4,444.9c-0.4-4.3-0.1-9.2-1.5-13.5c-2-6.1-4.6-11.9-7.9-17.4c-0.8-1.5-4.2-2.2-6.3-1.9s-2.1,3.4-2.1,5.3
			c-0.2,8.7,0.2,17.3-0.2,25.9c-0.4,11.4,2,11.1,10.3,16.7c3,2,5.8,0.4,6.4-3.3S316,449.1,316.4,444.9z"/>
		<path class="st0" d="M273.2,637.7c0.6-0.6,1.3-1.1,1.9-1.6c0.6-0.5,1.5-1.1,2.3-1.6c1.8-1.2,3.8-2.6,5.3-4.4
			c3.7-4.5,5-11.4,3.6-18.4c-1.4-6.6-4.9-11.9-9.7-14.5c-9.5-5-20.3-9.6-30.5-13.8c-3.4-1.4-6.9-2.1-10.4-2.1
			c-8.6,0-16.4,4.4-22.9,8.6c-0.9,0.6-1.8,1.2-2.7,1.8c-8.1,5.4-14.5,9.6-23.3,11c-1.8,0.2-3.6,0.8-5.1,1.8c0,0-0.1,0-0.1,0.1
			c-3.3,2.6-2.4,9.9-1.8,12.9c0.4,1.9,2.4,11.5,7.1,13c3.2,1,6.5,2,9.6,3c4.5,1.4,9.1,2.8,13.6,4.3c0,0,0,0,0,0h-20.3
			c-3.2-3.4-5.8-4.8-8.6-4.8c-2.8,0-5.5,1.4-9,4.8h-8.9c1.1-1.3,2.1-2.4,3.3-3c4.9-2.5,10.2-6.9,7.8-19.4c-0.2-0.8-0.3-1.4-0.3-2.1
			c-0.2-9.5-5.3-12.9-9.7-14.1c-2.2-0.6-4.3-0.9-6.3-0.9c-4.2,0-8,1.5-11.4,4.4c-3.8,3.1-7.3,6.5-10.6,10.2c-1.7,2-3.7,5.9-2.8,8.8
			c1.6,4.5,3.8,8.5,6.6,12.2c1.1,1.5,2.4,2.8,3.8,4H135c-0.3-0.3-0.6-0.7-0.9-1c-0.8-0.9-1.7-1.9-1.9-2.7
			c-2.4-11-8.3-21.1-18.5-31.5c-3.3-3.4-5.9-5.4-9.3-5.4c-2.3,0-4.7,0.9-8.1,2.5c-4.3,2-9.6,3.9-15.3,6c-3.8,1.4-7.8,2.9-11.5,4.3
			l-2.1,0.9c-11,4.4-22.3,8.9-33.2,13.8c-3,1.3-5.9,3-8.6,4.6c-3.5,2-6.8,4-10.4,5.2c-3,1.1-6.4,1.1-10,1.1c-1,0-2,0-3,0.1v-13.8
			c1.6,1,3.3,1.5,4.9,1.5c3.9,0,6.6-2.9,8.6-5.4c1.9-2.5,4.2-5.8,6.4-9c1-1.5,2.1-3,3-4.4c1.5-2.2,3-4.3,4.5-6.5
			c3.8-5.6,7.8-11.3,12.1-16.7c1.1-1.4,2.8-2.5,4.6-3.6c1.8-1.2,3.7-2.3,5.2-3.9c4.1-4.4,4.2-7.8,3.5-9.8c-0.3-1-1.4-2.7-4.6-2.7
			c-2,0-4.2,0.7-5.3,1.1c-8.2,3.1-15.1,5.7-22.2,8.2c-1.4,0.5-2.8,0.9-4.1,1.3c-6,1.9-11.8,3.6-16,9.6c-0.2,0.2-0.4,0.4-0.7,0.7v-9
			c1.9-0.6,3.7-1.3,5.6-1.9c8.8-3,17.9-6.2,26.7-9.7c3-1.2,5.8-5.5,6.1-8.6l0.3-2.2c1.4-12.4,2.9-25.1,3-37.8
			c0.1-7.7-0.6-16.2-1.2-25.1c-0.5-6.4-1-13-1.2-19.2c-0.1-2-0.2-4.1-0.3-6.1c-0.5-7.8-1-15.1,2.3-21.9c5.2-10.6,12.3-18,21-21.7
			c3.5-1.6,6.8-3.7,9.9-5.7c1.6-1,3.2-2,4.8-3c9.4-5.6,19.9-6.8,29.9-7.2c27.8-1.5,55.5-6.2,82.2-14.1c8.8-2.6,10.4-4.6,10.8-13.5
			c0.4-8.4,0.6-12.6-1.8-15.2c-1.9-2-4.9-2.4-9.3-2.4c-1.7,0-3.6,0.1-6.1,0.1c-8.6,0.3-17.1,0.6-25.6,0.9
			c-12.5,0.5-25.4,0.9-38.2,1.3c-0.8,0-1.6,0-2.4,0c-10.8,0-21.3-2.1-31.3-6.3c-4.5-2-12.6-6.6-14.9-15.3l-0.1-0.2
			c-2.9-10.6-6-21.5-6.5-32.3c-0.7-19-0.2-38.5,0.4-57.2l0.1-3.8c0.3-10.6,0.9-21.4,1.5-31.9c0.4-6.5,0.8-13.3,1.1-20
			c0.3-5.8,0.3-11.8,0.1-18.5c-0.1-2.7,0.6-3.1,2.1-3.4c1.4-0.3,2.8-0.6,4.1-0.8c4.1-0.8,8.3-1.7,12.4-2.2c4.4-0.6,8.7-1.1,13-1.7
			c19.5-2.5,39.7-5.1,59.6-7.1c9.5-0.9,19.3-1,28.7-1.1c3.6,0,7.3-0.1,10.9-0.2l1.4,0c2.7,0,8.2,0,9.4-5.2c1-4.5,0.2-10.1-0.5-13.9
			c-0.5-2.6-5.3-3.8-7.1-3.8c-0.2,0-0.4,0-0.6,0l-0.7,0.1c-14.7,1.7-29.9,3.4-44.7,5.7c-6.9,1.1-13.6,2.7-20.2,4.4
			c-2.8,0.7-5.7,1.4-8.5,2.1l-3,0.5c-0.5-1.6-0.9-3.5-0.5-4.2c0.4-0.8,2.8-1.4,4.9-2c19.9-5.1,41.4-8.5,67.6-10.6
			c10.8-0.9,12.2-2.4,11.9-13.2c0-4-0.2-8.1-0.3-12c-0.1-3.9-0.2-8-0.3-12c-0.1-3.8-1-9.1-8.1-11.1c-7.6-2.3-13.6-7.5-18.3-15.9
			c-2.4-4.1-0.1-13.7,4.4-18.2c1.6-1.6,3-3.2,4.4-5c5-7.1,12.7-11.3,24.2-13.2c0.5-0.1,1.1-0.1,1.6-0.1c7.3,0,17.8,7.6,21.6,13.8
			c4.9,8,6,15.3,3.3,22.3c-2.8,7.2-7.9,12.3-16.2,15.9c-4.4,2-6.5,5.2-6.5,9.9c-0.2,7.7-0.6,15.6-1,23.3c-0.2,3.2,0,6.7,2.1,8.9
			c1.4,1.5,3.5,2.2,6.5,2.2c1.2,0,2.5-0.1,4.1-0.3c8.9-1.2,17.9-2.8,26.6-4.3c9.6-1.7,19.6-3.5,29.5-4.7c3.2-0.3,6.4-0.5,9.6-0.5
			c5.8,0,11.6,0.6,17.3,1.7c4.7,1,9.3,4.1,13.7,7.2c0.7,0.5,1.3,0.9,2,1.4c2.7,1.8,4.8,3.9,6.9,5.8c1.7,1.6,3.5,3.4,5.6,4.9
			c6.8,4.8,8,11.8,9.3,19.9l0.1,0.5c2.2,13.6-0.2,26.5-2.7,40.2c-0.9,4.7-1.8,9.6-2.5,14.5c-1.1,7.6-2.1,15.3-3.1,22.7
			c-1,7.4-2,15.1-3,22.7c-1,7.4-2.1,14.9-3.2,22.2c-1.8,12.3-3.7,25.1-5.3,37.7c-1.1,8.5-6.8,13.1-13.6,17.9c-6.9,4.9-17,6.1-24,6.5
			c-22.6,1.5-46,3-68.5,9c-8,2.2-10.1,5-10.5,13.6c-0.1,1.8-0.2,3.7-0.4,5.5c-0.1,0.9-0.2,1.9-0.2,2.8c-0.2,3.1,0.5,5.4,2,7
			c1.2,1.3,3,2,5.1,2c0.7,0,1.4-0.1,2.1-0.2c4.7-0.9,9.5-1.9,14.1-3c6.2-1.4,12.7-2.8,19-3.8c2.9-0.5,5.8-0.5,8.1-0.5
			c1.3,0,2.6,0,3.9,0c1.3,0,2.6,0,4,0c0.9,0,1.8,0,2.7,0c0.2,0,0.5,0,0.7,0c10,0,16.1,5,20.4,16.8c1.1,2.9,3.2,5.2,5.3,7.4
			c0.8,0.8,1.5,1.6,2.2,2.4c0.8,1,1.6,1.9,2.4,2.8c1.4,1.6,2.6,3.1,3.9,4.7c10.1,13.4,13.4,28.9,10.1,47.5c-0.3,2.1-0.7,3.7-1,5.2
			c-1.8,8.7-1,9.4,8.2,14.4l1.9,1c4.7,2.6,9.3,5.5,13.6,8.8c0.8,0.6,1.4,1.6,2.1,2.6c0.7,1,1.4,2.1,2.3,3.1c2.3,2.3,4.3,3.5,6.5,3.9
			c3.3,0.7,6.8,1.2,10.1,1.6c6.3,0.8,12.2,1.6,17.6,3.9c8.5,3.7,18.8,9.2,22.3,19.2c1.5,4.3,1.9,9.8,1,15.6c-0.6,3.7-2,8.1-3.4,12.3
			c-0.6,1.7-1.1,3.4-1.6,5.1c-2.7,8.9-9.9,14.3-16.5,18.7c-1.3,0.8-3.4,1.3-6,1.3c-1.6,0-3.3-0.2-4.8-0.5
			c-8.6-1.8-14.4-8.2-20.1-15.2c-2.1-2.6-4.4-3.9-7-3.9c-1.5,0-3.1,0.4-5,1.3c-2.2,1.1-4.5,2.2-6.7,3.3c-5.8,2.9-11.8,5.8-17.8,8.6
			c-7.6,3.5-15.7,7.1-24.4,10.2c-2.5,0.9-5.1,1.2-8,1.6c-2,0.3-4,0.5-6,1c-1.6,0.3-2.9,1.4-4.1,2.4c-0.4,0.3-0.8,0.6-1.2,0.9
			c-0.4,0.3-0.7,0.8-0.8,1.3c-0.1,0.5,0,1.1,0.4,1.5c0.3,0.4,0.6,0.9,0.9,1.4c0.8,1.3,1.6,2.7,3,3.6c15.8,10.5,19.5,21.4,12.7,37.8
			c-0.9,2.2-2.6,4.2-4.3,6.3c-0.6,0.8-1.3,1.6-2,2.4H273.2z M71.4,565.7c-0.3,0-0.7,0.1-1,0.3c-0.7,0.4-1.4,0.7-2.2,1.1
			c-1.8,0.9-3.9,1.8-5.5,3.4c-8.2,8.4-16.2,17.1-24.1,25.5l-4.9,5.2c-1.4,1.4-2.4,3.1-3,5c0,0.1-0.1,0.2-0.1,0.3
			c-0.3,2.3-0.4,4.6-0.2,6.9c0.1,1.1,0.9,1.9,2,1.9c0,0,0.1,0,0.1,0c0.4,0,0.8,0,1.1,0l1.4,0c1.4,0,3,0,4.7-0.6
			c7.2-2.1,15.9-4.6,24.1-7.5c9.2-3.3,19.9-7.2,30.1-11.7c2.8-1.2,4.5-3.1,5-5.4c0.4-2.2-0.4-4.4-2.3-6.2c-4.8-4.6-10.1-8.9-15.3-13
			c-1.2-0.9-2.3-1.9-3.5-2.8c-1.1-0.9-2.4-1.2-3.8-1.6c-0.7-0.2-1.4-0.4-2.1-0.6C71.8,565.7,71.6,565.7,71.4,565.7z M111.7,427.6
			c-0.9,0.6-2,1.2-3,1.8c-3.9,2.2-7.9,4.5-9.3,8.2c-2.1,5.4-3,11.1-3.8,16.7c-0.4,2.7-0.8,5.5-1.4,8.2l-0.2,0.9
			c-1.6,7.8-3.3,15.8-5.4,23.6c-1.5,5.3-3.4,10.7-5.3,15.8c-0.4,1.1-0.8,2.2-1.2,3.2c-0.7,1.9-1.4,4-2.1,6.1
			c-1.7,5.1-3.4,10.3-5.6,15c-2.7,5.7-5.7,10.2-9,15c-0.5,0.8-1.1,1.6-1.7,2.5c-4.4,6.6-2.6,10.6,0,14.8c1.1,1.9,3.7,2,6.4,2.1
			c1,0,2.1,0.1,2.8,0.2c0.6,0.1,1.3,0.2,2,0.3c1.9,0.3,3.9,0.6,4.9,1.4c7.2,5.6,14.1,11.8,20.5,18.2c2.9,3,5.5,6.6,8,10.1
			c2,2.7,4,5.5,6.2,8.1c3.1,3.6,6.7,6.8,10.6,9.6c0.6,0.5,1.4,0.7,2.4,0.7h0c3.8,0,10.1-4,13.7-7.8c2.7-2.7,4-5.2,4-7.4
			c0-0.4-0.1-0.7-0.3-1c-0.4-0.6-0.8-1.4-1.3-2.2c-1-1.8-2.2-4-3.7-5.9c-8.3-11-16.1-21.3-23.8-31.3c-1.4-1.9-3.1-3.6-5-5
			c-10.4-6.9-12.4-12.2-9.8-25.4c2-10.2,3-20.8,4-30.9c0.2-1.7,0.3-3.4,0.5-5.1c0.4-3.8,0.5-7.6,0.6-11.3c0.2-4.3,0.3-8.8,0.8-13
			c1-7.7,1.9-14.9,7.8-20.5c2.6-2.4,3.3-6.7,3.6-10.5c0.1-1.1-0.6-2.1-1.1-2.7c0,0-2.8-2.9-4.7-2.9
			C112.5,427.3,112,427.4,111.7,427.6L111.7,427.6z M158,594.7c5.1,0,9.7,2.6,13.9,5.5c3,2,5.1,2.9,7.3,2.9c2.2,0,4.1-0.9,6.1-2.1
			c2.4-1.4,4.9-2.8,7.3-4.2c6.3-3.6,12.9-7.4,19.2-11.4c12.6-8.2,28-16.5,46-16.5c3,0,6,0.2,9,0.7c0.6,0.1,1.2,0.1,1.8,0.1l0,0
			c2,0,3.6-0.6,4.8-1.8c1.4-1.5,1.9-3.8,1.5-7.2c-0.1-1.1-0.2-2.1-0.3-3.2c-0.7-6.6-1.5-13.5-0.5-19.9c2.2-13.7,5.2-27.4,9-40.8
			c6.1-23,9.5-48.2,10.3-77c0-0.1,0-0.2,0-0.3c-0.3-2.6-0.5-5.3-0.8-7.9c-0.6-6-1.1-12.3-2-18.4c-1.2-7.2-8.7-13.9-15.6-13.9
			c-0.2,0-0.3,0-0.5,0c-8.2,0.3-16.4,1.2-24.5,2.6c-3.4,0.6-6.7,1.9-9.8,3.1c-2.4,0.9-4.9,1.9-7.4,2.5c-9.8,2.5-19.6,5.4-29.1,8.3
			c-23.5,6.9-47.8,14.1-72.7,16.2c-2.5,0.1-4.6,1.2-5.6,3c-1,1.7-1,3.9,0,6.1c3.5,7.1,3.5,15.1,3.6,22.8l0,2.2
			c0.1,10.5-0.1,21.3-0.3,31.6c-0.1,9.1-0.3,18.5-0.3,27.8c0,16.8,0.4,32.4,0.9,48.9l0.2,9c0,0,0,0.1,0,0.1c0.2,2.5,1.1,4.8,2.6,6.8
			c1,1.3,2.1,2.5,3.2,3.6c1.1,1.1,2.2,2.2,3,3.4c1.6,2.3,3.2,4.7,4.7,7c1.7,2.6,3.4,5.3,5.3,7.8c0,0,0.1,0.1,0.1,0.1
			c1.5,1.8,3.7,2.8,6,2.8c0,0,0,0,0,0c0.1,0,0.3,0,0.4,0C155.8,594.8,156.9,594.7,158,594.7z M299.4,467.6c-2.1,0-4.9,0.9-6.3,5.5
			c-0.4,1.3-0.6,2.6-0.9,3.9l-0.1,0.6c-0.5,2.4-0.9,4.7-1.3,7.1c-1,5.5-2,11.2-3.3,16.7c-2.2,10-4.5,20.1-6.5,29
			c-0.9,3.9-1.8,7.7-2.6,11.2c0,0.2-0.1,0.4,0,0.6c0.3,2.9,0.6,5.4,0.9,7.7c0.5,3.9,0.8,7.3,1,10.6c0.4,5.7,0.8,12.2,7,12.2h0
			c2.2,0,5-0.8,8.6-2c0,0,0.1,0,0.1-0.1l2.3-1c2.9-1.3,5.8-2.6,8.7-3.9c9.7-4.3,19.8-8.8,29.7-13.4c1.6-0.7,5.4-3.6,4.6-6.3
			c-0.4-1.4-2.7-4.6-5.1-5.6c-5.8-2.1-9.2-5.8-10.2-11.1c-1.9-9.9-3.3-20-4.7-29.8c-0.5-2.9,0.6-4.8,3.5-6.3c0.1,0,6.7-3.7,5.7-6.9
			c-1-2.8-3-6.3-6-8c-4.4-2.4-9-4.4-13.5-6.4c-2.4-1.1-4.9-2.2-7.2-3.3C302.1,468,300.7,467.6,299.4,467.6z M372.6,503.9
			c-3.7,0-7,2.3-8.3,6l-0.5,1.5c-2.7,7.9-5.5,16.1-7.5,24.4c-1,4.5-1,9.7,0.1,16.4c1.2,7,6.5,12.6,14.7,15.2
			c1.6,0.5,3.2,0.8,4.8,0.8c5.4,0,10.7-2.8,14.6-7.6c6-7.7,7.7-16.9,9.2-25.7c0.2-1,0.4-2,0.6-3.1c0-0.2,0-0.4,0-0.6l-0.6-5.5
			c-0.5-6.5-5.4-9.6-8.9-11.9c-1.2-0.7-2.4-1.6-3.7-2.5c-3-2.1-6.5-4.4-9.9-6.1C375.7,504.2,374.1,503.9,372.6,503.9z M111.8,406.2
			c-0.1,0-0.3,0-0.4,0c-10.9,2.2-20,4.3-29.1,6.8c-2,0.5-3.5,2-5,3.5c-0.8,0.8-1.6,1.6-2.5,2.2c-1.9,1.2-3.9,2.3-5.8,3.4
			c-2.9,1.6-5.9,3.3-8.7,5.4c-9.3,6.9-14.2,15.9-14.1,26c0.1,8.6,0.7,17.3,1.3,25.7c0.3,4.1,0.6,8.4,0.8,12.6l0.2,2.6
			c0.8,14.4,1.7,29.3-3.2,43.3c-0.7,1.9-1.1,4-1.1,6.1c0,0.1,0,0.2,0,0.2c0.2,1.7,1.2,5.1,3.5,5.9c0.4,0.2,0.9,0.2,1.5,0.2
			c1.6,0,4-0.7,5.3-2.1c2.4-2.2,4.6-4.7,6.4-7.4c0.7-1.1,1.5-2.2,2.3-3.3c2.8-4,5.7-8.1,7.4-12.7c4.4-11.6,8-23.6,11.5-35.9
			c2.7-9.1,4.8-17.8,6.4-26.1c0.6-3.4-0.9-7.5-2.7-10.1c-0.8-1.1-1.9-1.8-3.3-1.8c-1.3,0-2.6,0.6-3.8,1.2c-0.7,0.3-1.4,0.7-1.9,0.8
			c-0.1,0-0.1,0-0.2,0L73,454c-3.6-0.1-6.8-1.9-7.8-3.6c-0.4-0.8-0.2-1.2-0.1-1.3c1.1-1.9,5.1-8.2,9.2-10.1
			c3.1-1.3,6.6-1.9,10.3-2.5c3.2-0.5,6.5-1.1,9.7-2.2c5.4-2,10.5-4.8,14.9-8.4c2.9-2.2,4.8-5.6,6.7-8.8l0.5-0.8
			c1.2-1.8,2-4.5,1.2-6.6c0-0.1-0.1-0.2-0.2-0.3C116.2,407.4,114.1,406.2,111.8,406.2C111.8,406.2,111.8,406.2,111.8,406.2z
			 M119.5,548.1c0.3,0.1,0.6,0.2,0.9,0.2c0.2,0,0.5,0,0.7-0.1c0.5-0.2,0.9-0.6,1.2-1.1c0.2-0.4,0.4-0.9,0.7-1.4
			c0.7-1.4,1.5-2.9,1.5-4.7c-0.1-2.8-0.4-5.5-0.7-8.1c-0.4-3.5-0.7-7.1-0.7-10.6c-0.2-12.2-0.2-24.6-0.1-36.6c0-4.3,0-8.6,0-12.9
			c0.2-0.1,0.3-0.2,0.5-0.4c0.4-0.4,0.6-1,0.5-1.5c-0.1-0.8-0.1-1.6-0.1-2.4c-0.1-1.9-0.1-3.9-0.7-5.9c-1.1-3.8-4.2-4-5.6-4.2
			c-0.1,0-0.2,0-0.3,0c-2.6,0-4.8,2.8-5.1,4.7c-0.6,3.8-1,7.7-1.1,11.6c-0.2,4.3-0.3,8.8-0.4,13.1c-0.2,9.9-0.4,20.1-2.1,29.8
			l-0.2,1c-1.6,9.1-3,17.8,4.6,25.6c0.3,0.6,0.7,0.9,1,1.1L119.5,548.1z M337.3,491.8c-3.4,0-6.5,1.3-8.5,3.7
			c-2,2.3-2.9,5.3-2.5,8.4c0.5,3.2,0.7,6.5,0.8,9.7c0.2,7.3,2.7,14.2,7.1,20.1c2.2,3,5,4.7,7.9,4.7c3.2,0,6-2.1,7.6-5.8
			c3.7-8.8,7.1-17.9,9.9-27c0.9-2.6-1.2-7.6-3.6-8.5c-4.6-1.7-9.3-2.9-13.9-4.1c-1.4-0.4-2.7-0.7-4-1.1c-0.2,0-0.3-0.1-0.5-0.1
			L337.3,491.8z M301.7,410c-0.5,0-0.9,0-1.3,0.1c-3.8,0.5-3.8,5.3-3.8,7.3c-0.1,3.7-0.1,7.5,0,11.2c0,4.8,0.1,9.8-0.2,14.6
			c-0.4,10.5,1.7,12.3,8.2,16.5c0.9,0.6,1.9,1.2,3,2c1.2,0.8,2.4,1.2,3.7,1.2c0,0,0,0,0,0c3,0,5.2-2.3,5.8-5.8
			c0.5-3.1,0.8-6.3,1.1-9.6l0.2-2.3c0-0.1,0-0.2,0-0.4c-0.1-1.2-0.2-2.5-0.2-3.8c-0.1-3.3-0.3-6.8-1.4-10.1
			c-2-6.2-4.8-12.2-8.1-17.8C307.5,410.7,303.7,410,301.7,410z M71.2,279.4c-0.2,0.3-0.4,0.7-0.4,1.1c-0.1,1.7-0.2,3.5-0.3,5.2
			c-0.3,4.2-0.6,8.6-0.3,13c0.3,4.4,1.3,8.8,2.3,13.1c0.4,1.7,0.8,3.5,1.2,5.3c0.4,1.9,0.8,3.9,1.2,5.7c0.5,2.4,1,4.6,1.4,6.9
			c2,13,12.3,22.3,25.8,23c11,0.6,22.2,0.9,34.4,1c2.5,0,4.9,0.1,7.3,0.1c3.2,0.1,6.2,0.1,9.2,0.1c6.4,0,11.3-0.3,16.1-0.8
			c10.8-1.2,21.7-3,32.2-4.7c7.2-1.2,14.6-2.4,22-3.4c12.7-1.8,25.7-3.2,38.3-4.6c5.5-0.6,10.9-1.2,16.4-1.8c3-0.4,6.1-0.6,9-0.8
			c5.5-0.4,11.3-0.8,16.8-2.1c16.4-3.8,21.2-9,23.4-25.2c0.7-5.7,1.7-11.4,2.7-17c0.9-5,1.8-10.2,2.5-15.3
			c1.7-11.8,3.2-23.8,4.6-35.4l1-8c0.4-3.2,0.7-6.6,1-9.8c0.7-7.6,1.5-15.5,3.6-22.8c3.3-11.5,6.3-25.4,3.5-40.5
			c-1.4-7.3-8.1-15.6-15.5-15.9c-3.6-0.2-7.3-0.3-10.9-0.3c-6.5,0-13.1,0.3-19.6,0.9c-5.9,0.6-11.7,1.9-17.3,3.2
			c-3,0.7-6.1,1.4-9.1,2c-3.2,0.6-6.5,1.2-9.7,1.8c-10.8,2-22.1,4.1-33.1,5.6c-9.1,1.2-18.7,1.9-28.1,2.6c-5.4,0.4-11,0.8-16.5,1.4
			c-19.8,1.9-39.3,4.1-61,6.4c-5.8,0.6-11.8,1.4-17.5,2.1c-5.9,0.7-12.1,1.5-18.1,2.2c-7.6,0.7-11.4,4.4-12,11.5
			C75.4,216.5,73.3,248.1,71.2,279.4z M298.3,120.7c-0.5,0-1.1,0-1.6,0c-0.1,0-0.2,0-0.2,0l-23.4,4.2c-5.1,1-10.2,2-15.3,2.9
			c-10,1.9-20.4,3.9-30.6,5.8c-3.9,0.7-6.2,3.2-6.9,7.3c-0.6,3.8,0.1,7,2,9.3c1.8,2.1,4.4,3.2,7.6,3.2c0.8,0,1.6-0.1,2.4-0.2
			c4.9-0.7,9.9-1.7,14.7-2.6c3.8-0.8,7.8-1.6,11.6-2.2c9.8-1.7,19.8-3.3,29.4-4.8c3.4-0.5,6.9-1.1,10.3-1.6c1.2-0.2,2.4-0.3,3.6-0.5
			c5.5-0.8,11.2-1.6,16.6-2.8c2.6-0.5,4.5-3.7,5.1-5.3c1-2.6-0.9-4.9-3.1-5.9c-0.8-0.4-1.6-0.7-2.4-1.1
			C311.9,123.6,305.6,120.7,298.3,120.7z M217.4,35.9c-0.3,0-0.5,0-0.8,0c-8,0.5-18.9,3.4-25.7,14c-5.8,9.1-3.9,18.3,4.9,24
			c3.5,2.3,7.7,3.5,10.8,4.4c1,0.3,1.9,0.5,2.5,0.8c0.2,0.1,0.4,0.1,0.7,0.1c0,0,0.1,0,0.1,0c9.4-0.5,18.3-1.6,24-9.9
			c6.2-8.9,3.6-17,1.2-22.3C231.8,40.2,224.9,35.9,217.4,35.9z"/>
		<path d="M1024,538.8c-18.6-0.4-37.3-0.9-55.9-1c-3.5,0.1-6.8,1.2-9.8,3c-9.6,5.4-19.2,10.8-28.1,17.2s-21.5,11.1-33.2,14.2
			c-1.6,0.5-3,1.5-4,2.8c-4.7,6.2-11.4,9.6-18.4,11.2c-4.5,1-10.2,0-14.5-2c-10.6-4.8-21.7-3.3-32.6-4.3c-6.3-0.6-12.6-1.5-18.8-1.5
			c-10.9,0-21.7,0.5-32.5,1c-3.2,0.1-7.3,0.6-8.1-3c-0.7-3.6,0-7.3,1.8-10.5c2.2-3.2,4-5.1,1.5-9c-0.9-1.5,0.1-4.5,0.8-6.6
			c1.4-4.1,0.1-5.8-4-6.5c-11.4-1.9-18.7-9-24.1-18.8c-2.1-3.8-4.5-8.3-8.1-10.2s-8-0.7-11.3,0.8c-12.1,5.8-23.8,12.3-35.8,18.5
			c-8.9,4.7-17.9,9.4-27,13.8c-6.5,3.2-13.5,5.5-19.9,8.9c-24.5,12.9-50.9,20.5-77.4,28.1c-7.2,2-14.2,4.7-21.3,7
			c-5.4,1.7-10.8,3.1-16.1,4.9c-1.6,0.6-2.7,2.4-4,3.6c1.4,1.4,2.7,3.7,4.3,3.9c8.6,1.4,17.4,2.1,26.1,3.3
			c30.1,3.8,60.4,5.9,90.8,6.1c10.3,0.1,20.5,1.7,30.7,2.9c35.9,4.1,71.9,1.5,107.8,1.9c24.7,0.2,49.3-0.1,73.9,0.4
			c7.6,0.1,15.1,2.4,22.7,3.1c17.1,1.4,34.2,2.7,51.3,3.7c19.1,1,38.1,2,57.2,2.5c12,0.3,24-0.3,36-0.5v10c-8-0.3-15.9-0.8-23.9-1
			c-27.1-0.5-54.2-0.9-81.3-1.6c-10.7-0.3-21.5-0.9-32.2-1.9c-12.8-1.2-25.4-3.5-38.1-4.6c-7.8-0.6-15.6,0.4-23.4,0.4
			c-32.4,0.1-64.9,0.4-97.3,0.2c-14.8-0.1-29.6-0.7-44.3-1.7c-12.4-0.8-24.7-2.9-37.1-3.7s-26.6-0.4-39.9-1.1
			c-11.6-0.6-23.2-1.7-34.7-3s-23-3.1-34.5-4.8c-4.8-0.7-6.7,0.8-6.7,5.9s0.3,12.6,0.4,18.9h-10c0.3-7.1,0.5-14.2,1-21.3
			c0.2-3.7-1.2-5.9-4.8-6c-5.3-0.3-10.6-0.3-15.9-0.2s-7,1.3-4.3,7.3c0.2,0.6,0.4,1.2,0.4,1.9l0.6,18.3h-10c0.1-9.8,0-19.6,0.5-29.4
			c0.2-4.5,2.4-8.6,7.3-10.4c14.8-5.3,29.5-10.8,44.4-15.8c17.2-5.8,34.6-10.8,51.6-16.9s33.6-13.1,50.1-20.4s32-15.1,47.8-23.1
			c5.9-3,10.8-7.7,16.7-10.6s10.4-3.4,15.7-4.4s7-1.3,7.6-8c0.3-4.4,0.1-9.2,6-11c0.3,18.8,12.7,30.4,24,42.7c1.4,1.7,3.1,3,5.1,3.8
			c2,0.6,5.2,1.2,6.4,0.1s1.7-4.6,0.9-6.2s-4.3-5.3-6.4-8s-3.2-4-3.8-6.3c-3.4-11.5-7.6-22.2-19.4-27.9c-0.8-0.3-1.5-0.8-2-1.4
			l-6.1-12.5c2.6-3.1,5.6-5,9-0.8c3.8,4.5,7.4,9.2,10.6,14.1c3.2,5.2,6.8,6.2,10.3,1.2c9.8-14,19.1-28.3,28.5-42.5
			c2.9-4.4,5.8-8.9,8.5-13.4c9-15.1,17.9-30.3,26.7-45.4c6.3-10.8,14.2-20.2,24.8-26.5c5.4-3.3,12.4-4.5,18.8-5.3
			c14.3-1.8,28.8-2.4,43-4.4c4.3-0.5,8.3-2.6,12.4-0.4c1.4,0.7,3.1,2.4,3.1,3.5c-0.3,1.8-1.3,3.3-2.7,4.4c-1.2,0.9-3.2,0.7-4.7,1.3
			s-4.7,1.6-4.8,2.7s0.8,4.9,2.2,5.8c6.7,3.6,13.5,7.4,20.7,9.8c13.7,4.5,28,6.8,42.2,4.4c6.3-1.1,12.4-4.7,17.9-8.2
			c8.5-5.5,16-12.5,21-21.6c0.4-0.8,1.4-1.3,2.1-1.9v17c-1.3,0.9-2.6,1.9-3.8,3c-16.9,16.9-36.4,26.4-60.9,21.9
			c-5-0.9-9.7-3.5-14.7-4.2c-13.1-1.8-23.9-8.3-34.2-15.8c-2.4-1.8-4.1-4.9-5.4-7.8s-2.7-3.4-5.4-3.2c-6.3,0.6-12.6,0.9-18.9,1.5
			s-13.2,1.4-19.6,2.6s-6.7,4.7-3.6,8.6s7.5,9.5,11.6,14c10.5,11.7,19.4,24.7,33.5,33.3s28.3,14.1,44.9,13.4
			c9.5-0.4,18.6-1.5,27.7-4.8c16.1-5.8,32.5-10.4,48.8-15.5v11l-20.9,6.7c-20.2,6.5-40.3,12.7-62.2,11.5c-18.4-1-34.3-6.6-47.9-19
			c-4.5-4-8.9-8-13.6-11.7c-1.3-1-4.1-1.8-5.3-1.1c-3.7,2.3-7.6,4.8-10.5,8.1c-8.6,9.8-17.3,19.7-25,30.3s-15.1,22.5-22.3,34
			c-3.2,5.2-1.3,16.6,2.9,19.4c6.1,3.9,12.3,7.8,20.3,6.6c6.7-1.1,13.4-1.6,20.2-1.7c8,0.1,15.9,0.7,23.8,1.8
			c13.2,1.7,26.4,3.3,39.4,5.9s28.2,6.7,42.9,6.7c16.6,0,33.2,0.9,49.9,1.5c2.8,0.2,5.6,0.5,8.3,1V538.8z M868.9,576.9
			c8.6,0.1,13.4-4.8,18.8-8.5c3.2-2.3,6.7-4.2,10.3-5.8c9.1-4.1,18.4-7.6,27.4-11.7c6.3-2.8,12.4-6,18.2-9.6
			c2.1-1.3,3.5-4.5,3.9-6.9s-2.8-3.6-4.6-4.1c-6.6-1.7-13.3-2.8-19.9-4.1c-10.8-2.1-21.4-4.9-32.2-6.2s-23.7-1.6-35.6-2
			c-2.5,0.2-4.9,0.9-7,2.1c-6.2,3-12,6.9-18.4,9.2c-8.9,3.3-18.3,5.4-27.5,8.1c-12.7,3.6-20.1,12.6-24.2,24.5
			c-2,5.8-0.4,7.5,5.7,7.6c14.3,0.3,28.6,0.4,42.8,1.1c10.4,0.5,20.8,1.6,31.2,3C861.9,574.1,865.9,576,868.9,576.9z M869.1,404.3
			c-0.7-1.7-1.5-3.3-2.5-4.9l-15.1-20.3c-1.9-2.7-4.4-2.9-6.4-0.9c-3.9,3.8-8,7.7-10.8,12.3c-4,6.4-6.7,13.6-10.3,20.2
			c-4.8,9-10,17.9-15.1,26.8c-1.2,2.1-3.3,3.8-4.2,6c-3.3,8.3-6.4,16.7-9.2,25.2c-0.7,2.1-0.7,6,0.3,6.6c3.2,1.6,7.8,3.7,10.3,2.5
			c4.8-2.6,8.7-7,12.6-11.1c2.5-2.5,4.2-5.8,6.1-8.7c4.4-6.4,8.9-12.7,13-19.3c7.2-11.5,15.2-22.1,26.9-29.4
			C866.5,408.2,867.6,406.1,869.1,404.3L869.1,404.3z M780.3,519.5L780.3,519.5c0,2.3-0.1,4.7,0.2,7c1,7.1,5.4,9.2,11.6,5.7
			c2.9-1.5,5.7-3.7,8.8-4.3c5-1,8.1-3.8,10.7-7.9s1.4-8-1.8-12.1c-4.5-5.7-12.2-9.7-18.9-8.1s-10.3,7.4-10.6,15.7V519.5z"/>
		<path class="st0" d="M523.1,637.7c0-1.1,0.1-2.2,0.1-3.2c0.2-5.2,0.4-10.6,0.8-15.9c0.1-2.7-0.4-4.7-1.7-6.1c-1.2-1.3-2.9-2-5-2
			c-3.1-0.2-6.4-0.3-10.1-0.3c-2,0-3.9,0-5.9,0.1c-2.8,0.1-5.6,0.4-6.9,2.5c-1.4,2.2-0.4,5.1,0.8,7.7c0.1,0.3,0.2,0.7,0.2,1.1
			l0.5,16.3H490c0-1.8,0-3.6,0-5.3c0-7.2,0.1-14.7,0.4-22c0.1-2.4,1-6.8,6-8.6c4.3-1.5,8.6-3.1,13-4.7c10.3-3.7,20.9-7.6,31.4-11.1
			c7.1-2.4,14.3-4.7,21.4-6.9c10-3.2,20.3-6.4,30.3-10c18.8-6.7,36.7-14.5,50.2-20.5c16-7.1,31.2-14.7,47.9-23.1
			c3-1.5,5.8-3.5,8.4-5.4c2.8-2,5.4-3.8,8.2-5.2c4.8-2.4,8.6-3,12.9-3.8c0.7-0.1,1.5-0.3,2.2-0.4c5.9-1.1,8.5-1.9,9.2-9.8l0.1-1.1
			c0.2-3.3,0.4-5.5,2.1-6.9c1.4,16.2,11.6,27.2,21.5,37.8c1,1,1.9,2.1,2.9,3.1c1.6,1.9,3.6,3.4,5.8,4.3c0.1,0,0.1,0.1,0.2,0.1
			c1,0.3,2.9,0.8,4.7,0.8c1.6,0,2.8-0.4,3.6-1.1c1.8-1.7,2.5-6.2,1.3-8.6c-0.6-1.2-2.1-3-3.9-5.1c-0.9-1.1-1.9-2.3-2.7-3.2l-0.4-0.5
			c-1.8-2.3-2.6-3.3-3-5.1c-3.4-11.4-7.7-23-20.5-29.2c-0.1,0-0.1-0.1-0.2-0.1c-0.4-0.1-0.7-0.4-1-0.7l-5.4-11c1-1,1.9-1.6,2.6-1.6
			c0.9,0,1.8,0.9,2.5,1.7c3.8,4.4,7.3,9.1,10.5,13.9c2.2,3.5,4.6,5.4,7.3,5.4c2.3,0,4.4-1.4,6.3-4.1c7.9-11.4,15.7-23.1,23.2-34.4
			c1.8-2.7,3.6-5.4,5.4-8.1c3.6-5.4,6.2-9.6,8.5-13.5c9.6-16.1,18.9-32,26.7-45.4c6.9-11.8,14.8-20.2,24.1-25.8c5-3.1,11.6-4.2,18-5
			c6.6-0.8,13.3-1.4,19.8-2c7.6-0.7,15.6-1.3,23.3-2.4c1.3-0.1,2.5-0.4,3.7-0.7c1.5-0.3,3-0.7,4.4-0.7c1.2,0,2.2,0.2,3.1,0.7
			c0.9,0.5,1.7,1.3,2,1.8c-0.3,1.1-0.9,2.1-1.8,2.8c-0.3,0.2-1.1,0.4-1.8,0.5c-0.8,0.1-1.6,0.3-2.5,0.6c-0.2,0.1-0.5,0.2-0.8,0.3
			c-2.5,0.9-5.1,1.9-5.3,4.1c-0.1,1.4,0.7,6.1,3.1,7.7c0,0,0.1,0.1,0.1,0.1l1.7,0.9c6.2,3.3,12.6,6.8,19.4,9
			c11.2,3.7,21.4,5.5,31.1,5.5c4.1,0,8.2-0.3,12.1-1c6.7-1.2,13.2-5,18.6-8.5c8.6-5.6,15.3-12.1,20-19.5v10.3
			c-1.1,0.8-2.1,1.6-3.1,2.5c0,0-0.1,0-0.1,0.1c-15.1,15.1-30.7,22.4-47.6,22.4c-3.7,0-7.6-0.4-11.5-1.1c-2.2-0.4-4.4-1.2-6.7-2
			c-2.6-0.9-5.3-1.9-8.1-2.3c-13.1-1.8-23.8-8.5-33.3-15.4c-2.2-1.6-3.8-4.8-4.8-7c-1.4-3.1-3.3-4.4-6.3-4.4c-0.3,0-0.7,0-1.1,0
			c-3.2,0.3-6.3,0.5-9.4,0.7c-3.1,0.2-6.3,0.5-9.5,0.8c-8,0.8-14.3,1.6-19.8,2.6c-3.7,0.7-6,2.2-6.8,4.4c-0.6,1.5-0.7,4,2,7.4l0.8,1
			c3,3.8,7.1,8.9,10.9,13.1c2.4,2.7,4.8,5.5,7.1,8.2c7.7,9.2,15.7,18.7,26.8,25.4c15.6,9.5,28.9,13.8,43.1,13.8c1,0,1.9,0,2.9-0.1
			c7.8-0.3,18-1.2,28.3-4.9c11.4-4.1,23.1-7.6,34.4-11.1c3.9-1.2,7.8-2.4,11.7-3.6v6.8l-19.5,6.3c-16.8,5.4-35.9,11.6-56.1,11.6
			c-1.8,0-3.6,0-5.4-0.1c-18.9-1-34.1-7.1-46.7-18.5l-1.8-1.6c-3.8-3.4-7.8-6.9-11.9-10.2c-1.4-1-3.6-1.8-5.3-1.8
			c-0.9,0-1.6,0.2-2.2,0.5c-4.1,2.6-8,5.1-11,8.5l-0.2,0.2c-8.5,9.6-17.2,19.6-24.9,30.2c-7.4,10.2-14.5,21.6-21.5,32.6l-0.9,1.5
			c-3.7,6-1.7,18.7,3.5,22.1c5.3,3.4,11.2,7.2,18.5,7.2c1.1,0,2.2-0.1,3.2-0.2c6.6-1,13.3-1.6,19.9-1.7c7.8,0.1,15.7,0.7,23.5,1.8
			l3.5,0.5c11.8,1.5,24,3.1,35.7,5.4c2.6,0.5,5.4,1.1,8.2,1.7c10.9,2.3,23.2,5,35.1,5c12.4,0,25,0.5,37.2,1
			c4.2,0.2,8.4,0.3,12.7,0.5c2.1,0.1,4.2,0.4,6.4,0.7v9.3c-3-0.1-6-0.1-9-0.2c-14.7-0.3-29.9-0.7-44.9-0.8
			c-3.9,0.2-7.6,1.3-10.9,3.3c-9.4,5.3-19.2,10.8-28.2,17.3c-9.6,6.9-23,11.4-32.5,13.9c-2.1,0.6-3.9,1.9-5.1,3.5
			c-3.9,5.2-9.8,8.7-17.2,10.4c-1,0.2-2.2,0.3-3.4,0.3c-3.2,0-6.8-0.8-9.8-2.2c-8-3.6-16.2-3.8-24.1-4c-3-0.1-6.2-0.2-9.2-0.4
			c-1.6-0.2-3.1-0.3-4.7-0.5c-4.7-0.5-9.5-1-14.3-1c-10.9,0-22,0.5-32.6,1l-0.8,0c-0.6,0-1.1,0-1.7,0c-2.9,0-3.3-0.7-3.5-1.5
			c-0.6-3,0-6.3,1.5-9l0.5-0.7c2-2.8,4-5.8,1-10.5c-0.4-0.7,0.7-3.9,1-4.9c0.6-1.6,1.2-4-0.1-6.1c-1.2-2.1-3.7-2.7-5.5-3
			c-9.7-1.6-16.9-7.3-22.7-17.8l-0.2-0.4c-2.2-4-4.7-8.5-8.7-10.6c-1.5-0.8-3.2-1.2-5.1-1.2c-2.4,0-5.1,0.7-7.9,2
			c-8.1,3.9-16.1,8.1-23.9,12.3c-3.9,2.1-8,4.2-12,6.3c-8.1,4.3-17.5,9.2-27,13.8c-2.9,1.4-5.9,2.7-8.9,3.9c-3.7,1.5-7.5,3.1-11.1,5
			c-24.4,12.9-51.2,20.5-77,27.9c-4.6,1.3-9.3,2.9-13.7,4.4c-2.5,0.9-5.1,1.8-7.6,2.6c-2.2,0.7-4.4,1.3-6.6,2
			c-3.1,0.9-6.4,1.9-9.5,2.9c-1.6,0.6-2.7,1.8-3.6,2.9c-0.4,0.4-0.7,0.8-1.1,1.1c-0.4,0.4-0.6,0.9-0.6,1.4s0.2,1.1,0.6,1.5
			c0.3,0.3,0.7,0.8,1.1,1.2c1.2,1.4,2.5,3,4.4,3.2c5,0.8,10.2,1.4,15.3,2c3.5,0.4,7.2,0.8,10.8,1.3c30.1,3.8,60.7,5.9,91.1,6.1
			c8,0.1,16.2,1.1,24.1,2.1c2.1,0.3,4.3,0.5,6.4,0.8c14.3,1.6,29.6,2.4,49.5,2.4c8.4,0,16.9-0.1,25.2-0.2c8.2-0.1,16.7-0.2,25.1-0.2
			c2.7,0,5.4,0,8.2,0c9.5,0.1,19.2,0.1,28.5,0.1c14.9,0,30.3,0,45.4,0.3c4.2,0.1,8.4,0.8,12.8,1.6c3.2,0.6,6.5,1.2,9.8,1.5
			c20.7,1.7,36.6,2.8,51.4,3.7l0.6,0c18.6,1,37.7,2,56.7,2.5c2.2,0.1,4.5,0.1,7,0.1c6,0,12.1-0.2,18-0.3c3-0.1,6-0.2,9-0.2v5.9
			c-2.5-0.1-5-0.2-7.5-0.3c-4.7-0.2-9.5-0.5-14.3-0.6c-6.8-0.1-13.5-0.2-20.3-0.4c-20-0.4-40.7-0.7-61-1.2c-11.2-0.3-22-1-32.1-1.9
			c-6.1-0.6-12.3-1.4-18.3-2.2c-6.5-0.9-13.2-1.8-19.8-2.4c-1.7-0.1-3.6-0.2-5.6-0.2c-3,0-6.1,0.2-9.1,0.3c-2.9,0.1-6,0.3-8.9,0.3
			c-9.3,0-18.6,0.1-27.9,0.1c-15.1,0.1-30.7,0.1-46.1,0.1c-8.4,0-16,0-23.4-0.1c-14.2-0.1-29-0.7-44.2-1.7
			c-6.2-0.4-12.4-1.1-18.5-1.8c-6.1-0.7-12.4-1.5-18.7-1.9c-6.5-0.4-13.4-0.5-20.7-0.6c-6.4-0.1-12.9-0.2-19.2-0.5
			c-10.2-0.5-21.2-1.5-34.6-3c-9.6-1.1-19.3-2.5-28.7-3.9l-5.7-0.9c-0.8-0.1-1.6-0.2-2.3-0.2c-6.7,0-6.7,6.1-6.7,8.1
			c0,3,0.1,6.7,0.2,10.7c0.1,2.1,0.1,4.2,0.2,6.2H523.1z M847.3,518.3c-2.3,1.1-4.6,2.4-6.8,3.6c-3.9,2.1-7.5,4.1-11.4,5.5
			c-5.9,2.2-12.2,3.9-18.2,5.5c-3,0.8-6.1,1.7-9.2,2.5c-12.2,3.5-20.8,12.1-25.5,25.8c-0.8,2.4-1.6,5.4,0,7.6
			c1.6,2.2,4.7,2.6,7.6,2.6c3.6,0.1,7.1,0.1,10.7,0.2c10.5,0.2,21.4,0.4,32,0.9c9.3,0.4,19.4,1.4,31,3c2.6,0.3,5.3,1.3,7.7,2.2
			c1.1,0.4,2.1,0.8,3.1,1.1c0.2,0.1,0.4,0.1,0.6,0.1l0.3,0c7.6,0,12.6-3.7,16.9-6.9c0.9-0.7,1.8-1.3,2.7-2c3.1-2.2,6.5-4.1,10-5.6
			c4.4-2,8.9-3.9,13.3-5.7c4.7-1.9,9.5-3.9,14.1-6c6.3-2.8,12.5-6.1,18.4-9.7c2.7-1.6,4.3-5.3,4.8-8.3c0.3-1.7-0.1-4.7-6-6.4
			c-5-1.3-10-2.2-14.9-3.1c-1.7-0.3-3.5-0.7-5.2-1c-3.5-0.7-7-1.4-10.4-2.2c-7.1-1.5-14.5-3.1-21.9-4c-9.7-1.2-20.9-1.5-31.8-1.9
			c0,0-4-0.1-4.1-0.1c0,0-0.1,0-0.1,0C852.3,516.2,849.7,517,847.3,518.3z M778.3,518.9c-0.1,0.2-0.1,0.4-0.1,0.7
			c0,0.7,0,1.5,0.1,2.3c0,1.6,0,3.3,0.3,4.9c1.2,8.2,6.2,9.1,8.3,9.1c1.9,0,4-0.6,6.3-1.9c0.9-0.4,1.8-1,2.6-1.5
			c1.9-1.1,3.7-2.2,5.6-2.6c5.1-1,8.8-3.7,12-8.8c2.8-4.4,2.2-9.1-1.9-14.4c-4.4-5.6-11.3-9.2-17.4-9.2c-1.2,0-2.4,0.1-3.5,0.4
			c-7.4,1.8-11.8,8.2-12.1,17.6L778.3,518.9z M847.9,374.9c-1.5,0-3,0.7-4.3,1.9l-0.5,0.5c-3.8,3.7-7.8,7.6-10.6,12.2
			c-2.4,3.8-4.4,8-6.2,12c-1.3,2.8-2.6,5.6-4.1,8.3c-3.9,7.4-8.2,14.8-12.3,21.9l-2.8,4.8c-0.4,0.8-1,1.5-1.7,2.3
			c-1,1.2-2,2.4-2.6,3.9c-3.6,8.9-6.6,17.2-9.2,25.3c-0.5,1.5-1.5,7.4,1.2,8.9c0,0,0.1,0.1,0.1,0.1c3,1.5,6.5,3.1,9.4,3.1l0,0
			c1,0,1.9-0.2,2.7-0.6c4.7-2.5,8.4-6.5,12-10.3l1.2-1.2c2-2,3.5-4.4,4.9-6.7c0.5-0.8,0.9-1.5,1.4-2.2c0.9-1.4,1.9-2.7,2.9-4.1
			c3.4-4.9,6.9-10,10.2-15.2c6.3-10,14.3-21.3,26.3-28.8c1.6-1,2.6-2.4,3.7-3.8c0.4-0.6,0.8-1.1,1.2-1.6c0.5-0.6,0.6-1.3,0.3-2
			c-0.7-1.8-1.6-3.6-2.7-5.2c0,0-0.1-0.1-0.1-0.1l-15.1-20.3C851.7,376,849.9,374.9,847.9,374.9z"/>
		<path d="M1024,100c-5.1-10.8-9.9-21.8-15.5-32.3s-13.3-21-24.5-27.6c-7.3-4.3-13.9-10-20.7-15.1c-15.5-11.5-32.6-16.3-52-14.5
			S880.1,22.6,867,33.4s-20.4,24.3-26.4,39.5s-8.2,29.4-9.9,44.5c-3.2,28.7-4.8,57.6-2.6,86.6c1.2,14.4,3.8,28.7,7.9,42.6
			c3.3,11.6,9.7,20.9,15.2,30.9s12.7,17.3,20,24.7s20,13.5,31.9,16.6c22.9,6,46.2,8.5,69.7,6.4c10.2-0.9,19.5-5.8,26.8-13
			s16.3-17.5,24.4-26.3v16c-7.5,7.1-14.7,14.4-22.4,21.2c-6.1,5.4-13.6,9.1-21.6,10.8c-3.4,0.6-4.8,2.8-4.4,6.2c0.1,2,0.4,4,0.8,5.9
			c1.5,5.7,4.5,7.6,10.4,6.4c3.4-0.7,6.8-1.5,10.3-1.9c1.5-0.2,3.1,0.6,4.8,0.9c1,4.3-1,6.8-4.7,7.4c-8.1,1.2-16.1,2.6-24.3,2.9
			s-15.2-0.5-22.9-1c-1.1,0-2.3-0.2-3.3-0.7c-1.3-1-2.5-2-3.6-3.2c1.4-0.9,2.8-2.4,4.3-2.7s5.7,0.1,8.5,0.1c4.3,0.1,6.3-2.2,6.5-6.4
			c0.5-10.6-2-12.8-12.6-12.9c-7.6,0-15.1-1.2-22.7-2.2s-15.7-2.3-23.4-3.9c-4-0.9-8-2.2-11.8-3.9c-15.9-7-30.2-16-40-30.8
			c-2.6-4-6-7.5-8.4-11.5c-3.6-6-5.6-13.1-10-18.3c-6-7-6.2-15.7-8.6-23.5c-3.2-10.1-4-21.1-4.9-31.7c-1.2-13.1-2.1-26.2-2.2-39.3
			c-0.3-30.6,1.6-61.1,10.9-90.6c2.5-8,6.4-15.5,9.6-23.2c0.4-0.6,0.7-1.2,0.9-1.8c0.8-8.9,7.6-13.6,13.5-18.9s12.7-12.9,19.8-18.3
			s12.7-8,19.4-11.1s11.4-4,17.1-5.9h30c12.4,2.9,24.1,8.7,34,16.7c5.9,4.7,11.8,9.5,18.3,13.3c13.1,7.8,21.3,19.6,28.7,32.3
			c1.3,2.3,2.7,4.5,4,6.7V100z"/>
		<path class="st0" d="M969.3,359.8c-4.8,0-9.2-0.3-13.9-0.7c-1.7-0.1-3.4-0.3-5.2-0.4c0,0-0.3,0-0.3,0c-0.7,0-1.4-0.1-2.1-0.4
			c-0.5-0.4-1-0.8-1.5-1.3c0.6-0.4,1.2-0.9,1.6-0.9c0.1,0,0.5-0.1,1.4-0.1c0.9,0,2,0,3.2,0.1c1.2,0.1,2.5,0.1,3.5,0.1l0.3,0
			c5.1,0,8-3,8.2-8.3c0.2-4.5,0-9-2.6-11.7c-2.5-2.6-6.6-3.2-12-3.3c-6.3,0-12.5-0.8-19-1.7c-1.1-0.2-2.3-0.3-3.4-0.5
			c-8.3-1.1-16.2-2.4-23.3-3.9c-3.9-0.9-7.7-2.2-11.4-3.8c-18.8-8.3-30.8-17.5-39.1-30.1c-1.2-1.9-2.7-3.7-4-5.4
			c-1.6-2-3.1-3.9-4.3-6c-1.4-2.3-2.5-4.8-3.6-7.2c-1.8-3.9-3.7-8-6.6-11.4c-4-4.7-5.2-10.1-6.5-15.9c-0.5-2.3-1-4.6-1.7-6.9
			c-3-9.4-3.8-19.7-4.7-29.6l-0.1-1.6c-1.4-15.4-2.1-27.8-2.2-39.1c-0.2-25.2,0.8-58.1,10.8-90c1.6-5.3,4-10.5,6.2-15.5
			c1.1-2.4,2.2-4.9,3.2-7.4c0.4-0.6,0.7-1.3,1-2c0.1-0.2,0.1-0.4,0.1-0.5c0.6-7,5.4-11.1,10.5-15.6c0.8-0.7,1.6-1.4,2.3-2
			c2.2-1.9,4.4-4.2,6.8-6.5c4.2-4.1,8.5-8.3,12.9-11.7c7-5.3,12.6-7.9,19-10.9c4.5-2.1,8.1-3.1,11.8-4.2c1.5-0.5,3.1-0.9,4.8-1.5
			h29.4c12,2.9,23.4,8.5,33,16.3l1.1,0.9c5.5,4.4,11.2,8.9,17.4,12.6c12.2,7.2,20,17.9,28,31.6c0.8,1.4,1.7,2.8,2.5,4.2
			c0.4,0.7,0.8,1.4,1.2,2.1V91c-0.1-0.3-0.2-0.5-0.4-0.8c-3.6-7.8-7.3-15.8-11.4-23.4c-7.1-13.3-15.3-22.5-25.2-28.4
			c-5.1-3-10.1-6.9-14.8-10.6c-1.9-1.5-3.8-3-5.7-4.4c-13.8-10.3-28.7-15.3-45.4-15.3c-2.6,0-5.3,0.1-8,0.4
			c-19.3,1.8-31.3,11.7-43.9,22.1l-1.5,1.2c-14.5,11.9-21.8,27.1-27,40.3c-5.8,14.6-8.1,28.1-10,45c-3.7,33.5-4.6,61.2-2.6,87
			c1.2,14.5,3.9,29,8,43c2.6,9.2,7.2,17,11.5,24.6c1.3,2.2,2.6,4.5,3.8,6.7c5.6,10.2,13.1,17.8,20.3,25.1c7,7.1,19.6,13.7,32.8,17.1
			c18.2,4.8,36.3,7.2,53.7,7.2c5.6,0,11.2-0.2,16.7-0.7c10.3-0.9,19.9-5.6,28-13.6c5.2-5.1,11.3-11.9,17.2-18.4
			c1.3-1.4,2.5-2.8,3.8-4.2v10c-2.3,2.2-4.5,4.4-6.8,6.5c-4.8,4.7-9.8,9.5-14.9,14c-5.9,5.2-13,8.8-20.7,10.3
			c-4.3,0.8-6.5,3.8-6,8.3c0.1,2.1,0.4,4.1,0.8,6.1c1.5,5.6,4.5,8.3,9.3,8.3c1.1,0,2.2-0.1,3.4-0.4c0.7-0.1,1.3-0.3,2-0.4
			c2.7-0.6,5.4-1.1,8.2-1.5c0.1,0,0.2,0,0.3,0c0.5,0,1.2,0.2,2,0.4c0.2,0.1,0.4,0.1,0.5,0.2c0.1,0.8,0,1.7-0.5,2.3
			c-0.6,0.9-1.9,1.3-2.8,1.5c-1.3,0.2-2.6,0.4-3.9,0.6c-6.6,1-13.4,2-20.2,2.3C971.6,359.7,970.4,359.8,969.3,359.8z"/>
		<path d="M1024,484.8c-9.6,0.3-19.2,0.9-28.8,0.9c-27.5,0.1-55.1,0.2-82.6-0.2c-9.7-0.1-19.5-1.7-29.2-2.9
			c-1.3-0.2-3.3-2.3-3.3-3.6c-0.3-5.1-1.2-10.6,0.4-15.1c2.9-8.2,7.4-15.8,11.3-23.7c4.9,2.4,5.7,4.8,3.7,8.9
			c-2.4,5.1-4.4,10.3-6.1,15.7c-1.2,3.5-0.4,6.9,3.5,8.1s9.6,3.3,14.5,3.4c19.6,0.7,39.2,1.2,58.9,1.1s38.5-1,57.7-1.6L1024,484.8z"
			/>
		<path class="st0" d="M958.2,483.8c-17.6,0-32.1-0.1-45.6-0.3c-7.6-0.1-15.4-1.1-22.9-2.1c-2-0.3-4-0.5-6-0.8
			c-0.4-0.1-1.4-1.2-1.6-1.7c-0.1-1-0.1-2-0.2-3c-0.3-4-0.6-8.1,0.5-11.3c2-5.7,5-11.4,7.8-16.8c0.8-1.6,1.7-3.2,2.5-4.8
			c2.5,1.6,2.2,2.9,1,5.3c-2.4,5.2-4.5,10.6-6.2,16c-0.9,2.5-0.8,5,0.2,6.9c0.9,1.8,2.5,3,4.6,3.7c0.6,0.2,1.3,0.4,1.9,0.6
			c3.9,1.2,8.7,2.8,13.1,2.9c21.5,0.8,38.2,1.1,53.9,1.1c1.7,0,3.4,0,5.1,0c14.3-0.1,28.4-0.6,42.1-1.1c4.5-0.2,9.1-0.3,13.6-0.5v5
			c-2.6,0.1-5.1,0.2-7.7,0.3c-6.3,0.3-12.8,0.5-19.1,0.5c0,0-0.1,0-0.1,0C983,483.7,970.5,483.8,958.2,483.8z"/>
		<path d="M1024,346.8c-4.3,0.1-8.7,0.2-13,0.1c-2.8-0.1-5.4-0.6-5.3-4.4s2.1-5.1,5.3-5.3l13-0.4V346.8z"/>
		<path class="st0" d="M1014.8,344.9c-1.3,0-2.5,0-3.7,0c-3.1-0.1-3.4-0.7-3.3-2.3c0.1-2.4,0.9-3.2,3.4-3.4l10.9-0.3v6
			C1019.7,344.9,1017.2,344.9,1014.8,344.9z"/>
		<path d="M906.7,65.5c0.2-1.7,0.8-2.9,0.4-3.6c-3-5.6,0.1-11.3,0-16.9c-0.1-2.7,0.4-5.7,4.3-6.2s5.7,1.7,6,5
			c0.8,8.7,1.4,17.5,2,26.3c0,0.5,0,1.2-0.3,1.4c-4.5,3.1-8.9,6.3-13.6,8.9c-1,0.5-3.9-1.1-5-2.4c-3-3.9-5.8-8.1-8.2-12.4
			c-2.8-5.3-5.3-10.7-7.5-16.3c-0.7-1.9,0.6-4.6,1-7c2.2,0.5,4.7,0.5,6.5,1.7s2.4,3.5,3.6,5.3L906.7,65.5z"/>
		<path class="st0" d="M904.9,78.5c-0.7-0.2-2.2-1-2.8-1.8c-2.9-3.8-5.6-7.9-8-12.1c-2.8-5.1-5.3-10.6-7.4-16
			c-0.2-0.7,0.2-2.1,0.5-3.4c0-0.2,0.1-0.4,0.1-0.5c0.1,0,0.1,0,0.2,0c1.4,0.2,2.8,0.4,3.7,1c0.8,0.5,1.3,1.5,1.9,2.7
			c0.3,0.7,0.7,1.4,1.2,2.1L905,66.6c0.4,0.6,1,0.9,1.7,0.9c0.2,0,0.3,0,0.5-0.1c0.8-0.2,1.4-0.9,1.5-1.7c0.1-0.5,0.2-1,0.3-1.5
			c0.2-1.1,0.5-2.2-0.1-3.4c-1.6-3-1-6.3-0.4-9.8c0.4-2,0.7-4.1,0.7-6.2c-0.1-3.2,0.8-4,2.6-4.2c0.3,0,0.6-0.1,0.8-0.1
			c1.3,0,2.7,0.4,3,3.3c0.8,8.6,1.4,17.5,2,26.1c0,0,0,0.1,0,0.1c-0.6,0.4-1.2,0.8-1.8,1.2C912,74,908.5,76.4,904.9,78.5z"/>
		<path d="M947.9,79.6c0.3-11.3,8.4-19.4,19.6-20c4.6-0.2,9.1-1.3,13.6-1.8s6.1,0.7,6.6,4.5c0.7,5.8-1.1,9.5-5.3,10.4
			c-2.2,0.5-4.6,0.3-6.9,0.7c-5.7,1.2-11.4,2.1-15.7,6.8S951.8,80.9,947.9,79.6z"/>
		<path class="st0" d="M955.5,80.4c-1.2,0-2.5-0.7-3.9-1.4c-0.5-0.3-1-0.5-1.6-0.8c0.8-9.5,7.8-16.2,17.6-16.7
			c2.9-0.1,5.7-0.6,8.5-1c1.8-0.3,3.5-0.6,5.2-0.8c0.6-0.1,1.1-0.1,1.5-0.1c2,0,2.5,0.4,2.9,2.9c0.6,4.8-0.7,7.5-3.7,8.2
			c-1,0.2-2.2,0.3-3.4,0.4c-1.1,0.1-2.3,0.1-3.4,0.3l-1.2,0.3c-5.5,1.1-11.2,2.3-15.6,7.2C957,80.3,956.1,80.4,955.5,80.4z"/>
		<path d="M908.7,276.2c-5-0.8-10.7-1.5-16.3-2.8c-1.9-0.4-3.6-1.5-4.7-3.1c-0.9-1.6-1-3.5-0.3-5.2c0.4-0.8,2.9-1.3,4.3-1.1
			s5.1,1.8,7.7,1.9c9.9,0.3,19.9,0.3,29.8,0.3c5.8,0,11.6-0.5,17.4-0.3c1.8,0.1,3.5,2.1,5.2,3.3c-1.7,1.2-3.3,3.3-5.1,3.6
			c-5.8,0.8-11.6,0.8-17.4,1.3S916.2,275.4,908.7,276.2z"/>
		<path class="st0" d="M908.8,274.2c-1.2-0.2-2.4-0.4-3.6-0.6c-4-0.6-8.2-1.2-12.3-2.2c-1.4-0.3-2.6-1.1-3.5-2.2
			c-0.5-0.9-0.6-2-0.3-3c0.4-0.1,1.1-0.3,1.9-0.3c0.1,0,0.3,0,0.4,0c0.3,0,1.2,0.3,2,0.6c1.8,0.6,4,1.3,5.9,1.3
			c9.9,0.3,20.1,0.3,29.9,0.3c2.5,0,4.9-0.1,7.3-0.2c2.4-0.1,4.8-0.2,7.2-0.2c0.9,0,1.9,0,2.8,0c0.5,0,1.3,0.7,2.1,1.3
			c-0.8,0.7-1.7,1.5-2.3,1.6c-3.4,0.5-7,0.7-10.5,0.8c-2.2,0.1-4.5,0.2-6.8,0.4c-5.1,0.4-11.2,1.1-17.7,1.8L908.8,274.2z"/>
		<path d="M897.4,221.5c-0.6-7-0.9-14.3-2.1-21.5s1.2-11.5,4.2-16.3c0.9-1.3,4.5-0.9,7.3-1.3c-0.3,6.6-0.9,12.2-0.9,17.7
			c-0.1,3.6,0.3,7.2,1.3,10.7C909.8,218.6,907.1,222.4,897.4,221.5z"/>
		<path class="st0" d="M900,219.6c-0.2,0-0.5,0-0.8,0c-0.1-1.3-0.2-2.5-0.3-3.8c-0.4-5.3-0.8-10.7-1.7-16.1c-1-6.3,0.8-9.9,3.8-14.7
			c0.5-0.2,2-0.3,3.1-0.3c0.2,0,0.4,0,0.6,0c-0.1,1.7-0.2,3.3-0.3,4.9c-0.2,3.7-0.5,7.2-0.5,10.7c-0.1,3.8,0.3,7.6,1.4,11.2
			c0.7,2.2,1.4,5.1,0.3,6.6C904.5,219.3,902,219.6,900,219.6z"/>
		<path d="M960.3,174.2c0,5.9-5.1,10.1-12,9.9s-10-4.4-10.1-10.7s7.2-12.3,13.2-12.1S960.4,167,960.3,174.2z"/>
		<path class="st0" d="M948.4,182.1c-5.4-0.2-8.1-3-8.2-8.7c0-2.1,1-4.4,2.9-6.3c2.3-2.3,5.4-3.8,8-3.8l0.2,0c6.6,0.2,7,8.4,7,10.9
			c0,4.7-3.9,7.9-9.5,7.9C948.6,182.1,948.5,182.1,948.4,182.1z"/>
		<path d="M936.6,75c-5.5,1.3-6.8-1.6-6.9-6.3c0-7.5-0.4-15.1-0.3-22.7c0.1-5.4,5-8.9,9.3-6.8c1.4,0.6,2.9,3.4,2.6,4.7
			c-2.3,8.8-2.8,17.5-0.4,26.3C941.8,73.7,941.8,77,936.6,75z"/>
		<path class="st0" d="M939.2,73.6c-0.3,0-0.8-0.1-1.9-0.5c-0.2-0.1-0.5-0.1-0.7-0.1c-0.2,0-0.3,0-0.5,0.1c-0.7,0.2-1.4,0.3-1.9,0.3
			c0,0,0,0,0,0c-1.1,0-2.4,0-2.5-4.7c0-3.3-0.1-6.7-0.2-10c-0.1-4.1-0.2-8.4-0.1-12.6c0.1-3.4,2.5-5.4,4.7-5.4
			c0.6,0,1.2,0.1,1.7,0.4c0.6,0.3,1.5,1.9,1.5,2.5c-2.6,9.8-2.7,18.8-0.4,27.2C939.4,72.6,939.4,73.3,939.2,73.6
			C939.3,73.6,939.3,73.6,939.2,73.6z"/>
		<path d="M851.7,170.9c-0.3-6.7,2.8-9.6,10.1-9.9s10.1,4.3,10.4,11.2s-4.5,10.9-11,11.1S852.1,179.6,851.7,170.9z"/>
		<path class="st0" d="M860.7,181.3c-4,0-6.6-1.8-7-10.5c-0.1-2.6,0.3-4.5,1.4-5.6c1.2-1.3,3.4-2,6.8-2.2c0.2,0,0.4,0,0.6,0
			c3.4,0,7.4,1.1,7.7,9.3c0.1,2.6-0.6,4.6-2,6.2c-1.6,1.7-4.1,2.7-7,2.8C861,181.3,860.9,181.3,860.7,181.3z"/>
		<path d="M245.9,254c0.4-17.3,15.7-33,31.8-32.9s31.7,12.4,31.2,29.7c-0.6,19.7-12.7,31.5-35.9,32.1
			C257.6,283.3,245.9,270.4,245.9,254z M275.5,268.1c9.6,0,16.1-3.5,19.4-10.1c4.4-8.9,0.2-19.5-8.5-20.5c-7-0.9-14.1,0.7-20,4.6
			c-7,4.6-9.1,12-5,18S269.2,268.7,275.5,268.1z"/>
		<path class="st0" d="M272.3,280.9c-13.7,0-24.4-11.8-24.4-26.9c0.4-16.1,14.5-30.9,29.6-30.9l0.1,0c8.2,0.1,16.4,3.5,22,9.3
			c3.4,3.6,7.5,9.6,7.2,18.3c-0.6,19.2-12.3,29.6-34,30.2C272.7,280.9,272.5,280.9,272.3,280.9z M282.6,235.2
			c-6.2,0-12.1,1.8-17.3,5.2c-4.2,2.7-6.9,6.5-7.7,10.6c-0.7,3.5,0.1,7.1,2.2,10.2c3.2,4.7,7.1,9,14.1,9c0,0,0,0,0,0
			c0.6,0,1.2,0,1.8-0.1c10.1,0,17.4-3.9,21.1-11.2c2.6-5.3,2.6-11.6,0-16.4c-2.1-3.9-5.8-6.5-10-7
			C285.3,235.3,283.9,235.2,282.6,235.2z"/>
		<path d="M185.4,261.9c0.5,10.7-6.1,16.7-12.8,22.5c-14.2,12.4-35.3,7.3-46.1-5.5c-3-3.6-4.4-9.5-4.4-14.4
			c-0.1-13.6,6.3-23.5,19-29.4c10.7-4.9,23.8-4.9,36.7,9.2C182.7,249.8,185.4,255.4,185.4,261.9z M154.1,280.5
			c5.1-0.7,11.8-1.3,15.1-8.1s1.5-13.4-0.9-19.9c-1.7-5-5.8-6.3-10.5-7.1c-14.8-2.5-23.6,4.7-24.6,17.6
			C132.4,272.2,141.9,280.6,154.1,280.5L154.1,280.5z"/>
		<path class="st0" d="M153.4,289.5c-9.5,0-19.2-4.6-25.4-11.9c-2.4-2.9-3.9-8-3.9-13.1c-0.1-12.8,5.9-22,17.8-27.6
			c4-1.8,8-2.8,11.9-2.8c7.9,0,15.5,3.9,22.5,11.5c4.8,5.4,7.1,10.6,7.1,16.2c0.4,9.4-4.7,14.6-12.1,21
			C166.3,287.2,160.1,289.5,153.4,289.5z M152.2,242.9c-12.2,0-20.1,7.5-21,19.9c-0.4,4.3,1.2,8.6,4.5,12.2c4.4,4.8,11,7.5,18.2,7.5
			l0.2,0c0.1,0,0.2,0,0.3,0l0.7-0.1c5.2-0.7,12.3-1.7,15.9-9.1c3.7-7.7,1.5-15.1-0.8-21.5c-2-5.9-7-7.5-12-8.4
			C156.1,243.1,154.1,242.9,152.2,242.9z"/>
		<path d="M168.5,323.6c-2.6-6.8-2-8.6,4.6-9.5c13.7-2,27.4-3.4,41-5c8.6-1,17.2-2.1,25.8-3c1.6-0.2,3.5-0.4,4.8,0.4
			s4.4,3.3,4.1,4.3c-0.8,2.1-2.5,3.8-4.6,4.6c-4.2,1-8.8,1-13.2,1.5l-51.9,5.9L168.5,323.6z"/>
		<path class="st0" d="M169.9,321.5c-0.5-1.5-1.1-3.4-0.7-4.1c0.2-0.4,1.1-0.9,4.2-1.3c10.1-1.5,20.4-2.6,30.3-3.8
			c3.6-0.4,7.1-0.8,10.7-1.2c2.9-0.3,5.7-0.7,8.6-1c5.6-0.7,11.5-1.4,17.2-2c0.7-0.1,1.4-0.2,2-0.2c0.9,0,1.3,0.2,1.5,0.3
			c1,0.6,2.4,1.8,3,2.5c-0.6,1.3-1.7,2.2-3,2.8c-2.6,0.6-5.4,0.8-8.3,1c-1.5,0.1-3,0.2-4.5,0.4l-51.9,5.9L169.9,321.5z"/>
		<path d="M816.7,541.4l45.1,8.8l12.2,2.5c2.9,0.6,5.1,2.2,4.4,5.4s-3.1,4.1-6.1,3.5c-18.6-3.6-37.2-7.2-55.7-11.1
			c-1.7-0.4-4.3-3.5-4.1-4.9S815.7,542.4,816.7,541.4z"/>
		<path class="st0" d="M873.9,559.8c-0.4,0-0.8,0-1.2-0.1c-18.3-3.5-37.2-7.2-55.7-11.1c-0.6-0.2-2.1-1.8-2.5-2.7
			c0.4-0.5,1.5-1.4,2.1-1.8c0.2-0.2,0.4-0.3,0.6-0.5l44.1,8.6l12.2,2.5c1.3,0.3,2.3,0.8,2.7,1.4c0.1,0.1,0.4,0.6,0.2,1.6
			C876.1,559.2,875.4,559.8,873.9,559.8z"/>
		<path d="M870,535.9c-5.2,0-10.4,0.4-15.4-0.2c-2-0.3-5-2.8-5.2-4.5c-0.4-3.6,3-4.4,6-4.2c8.9,0.4,17.7,1,26.6,1.5
			c1.5-0.1,2.9,0,4.4,0.1c1.6,0.7,3.1,1.5,4.6,2.4c-1.5,1.6-2.9,4.4-4.6,4.6c-5.4,0.6-10.9,0.2-16.4,0.2V535.9z"/>
		<path class="st0" d="M861.1,534c-2.5,0-4.5-0.1-6.3-0.3c-1.2-0.2-3.3-2-3.5-2.8c-0.1-0.8,0.2-1.1,0.3-1.2c0.4-0.5,1.5-0.8,2.9-0.8
			c0.2,0,0.5,0,0.7,0c5.9,0.3,11.8,0.6,17.6,1c3,0.2,6,0.4,9.1,0.5c0,0,0.2,0,0.2,0c0.5,0,0.9,0,1.4,0c0.8,0,1.6,0,2.4,0.1
			c0.7,0.3,1.4,0.6,2.1,1c-0.5,0.7-1.4,1.9-1.9,2.1c-1.9,0.2-4.1,0.3-6.7,0.3c-1.5,0-3.1,0-4.7-0.1c-1.6,0-3.2-0.1-4.8-0.1
			c-0.2,0-0.4,0-0.6,0.1c-1.3,0-2.6,0-3.9,0.1C864,534,862.6,534,861.1,534z"/>
	</g>
</g>
</svg>
