<?xml version="1.0" encoding="utf-8"?>
<!-- Generator: Adobe Illustrator 25.2.3, SVG Export Plug-In . SVG Version: 6.00 Build 0)  -->
<svg version="1.1" id="레이어_1" xmlns="http://www.w3.org/2000/svg" xmlns:xlink="http://www.w3.org/1999/xlink" x="0px"
	 y="0px" viewBox="0 0 1024 640" style="enable-background:new 0 0 1024 640;" xml:space="preserve">
<g>
	<path d="M769.7,491.2c3.4-6.5,6.3-12,9.1-17.2c0.8-1.6,1.8-3.2,2.6-4.7c0.9-1.5,1.8-3.1,2.7-4.7c1.1-2,2.1-3.9,3.1-5.9
		c1-1.9,2-3.9,3.1-5.8c1.2-2.3,2.5-4.6,3.7-6.8c2.4-4.4,4.9-9,7.4-13.6c1.4-2.4,2.8-5,4.5-7.3c8.8-12.1,17.7-24.2,26.3-35.8
		c8.7-11.7,19.9-19,33.5-21.6c7.1-1.3,14.4-2.6,21.4-3.8c4.7-0.8,9.3-1.6,14-2.4c1.2-0.3,2.5-0.4,3.7-0.5c2.6,5.6,5.2,10.1,9.3,13.5
		c4.8,4,10,8.1,15.9,11.3c3.2,1.7,7.6,3.9,12.4,4.7c5.4,1,12.6,2.1,20.1,2.1c8.6,0,17.3-2.1,27.5-6.7c5-2.3,10-4.9,14.8-7.4
		c2.1-1.1,4.2-2.2,6.2-3.3l0.7-0.3c1.2-0.5,2.4-1.1,3.4-1.8c1.9-1.4,3.7-2.9,5.4-4.3c0.9-0.7,1.7-1.5,2.6-2.2l0.1-0.1v-0.2
		c0-2.1,0-4.2-0.1-5.6l-0.1-0.7l-0.6,0.4c-0.9,0.7-1.9,1.5-2.8,2.2c-1.8,1.4-3.7,2.9-5.6,4.4c-1.8,1.4-3.6,2.5-5.3,3.5
		c-3,1.5-5.9,3-8.8,4.5c-3.9,2.1-8,4.2-12.1,6.2c-11.4,5.5-23.2,7.4-35,5.8c-1.4-0.1-2.6-0.3-4-0.6c-0.7-0.1-1.4-0.2-2.2-0.3
		c-9.2-1.3-16.7-6.1-22.8-10.7c-0.6-0.5-1.3-1-1.9-1.5c-0.6-0.5-1.3-1-1.9-1.5c-4.2-3.3-7-6.9-9-11.6c0.1,0,0.2-0.1,0.3-0.1
		c0.2-0.1,0.5-0.1,0.7-0.2c3.5-0.9,6.9-1.7,10.4-2.5c3.4-0.8,6.9-1.6,10.3-2.5c0.9-0.2,1.9-0.5,2.8-0.7c0.9-0.2,1.9-0.5,2.8-0.7
		c2.9-0.8,3.6-1.7,3.5-4.6c-0.1-2.3-0.3-4.5-0.4-6.7c-0.1-2.2-0.3-4.4-0.4-6.7c-0.1-1.4,0-2.9,0-4.5c0-0.7,0-1.3,0-2
		c0.8,0.1,1.6,0.2,2.4,0.3c1.2,0.1,2.3,0.3,3.4,0.4c2.3,0.3,4.7,0.6,7,1c3.8,0.5,7.6,1.1,11.5,1.5c2.4,0.2,4.8,0.1,7-0.3
		c2.8-0.5,5.7-1.2,8.4-1.9c1.5-0.4,2.9-0.7,4.5-1.1c0.3-0.1,0.6-0.1,1-0.2v2.1c0.1,1.9,0.1,3.8,0.1,5.8c0,1.9,0,3.8,0.1,5.7
		c0,3.1,0.9,4,4.1,4.1c4.1,0.2,8.3-0.5,12-1.2c7.5-1.3,14-1.6,20-0.8l0.4,0.1V339l-0.5,0c-5.6,0.1-11.4,0.2-17.1,0.5
		c-1.6,0.1-3.2,0.4-4.7,0.7c-0.8,0.2-1.6,0.3-2.4,0.5c-0.3,0.1-0.7,0.1-1,0.2c-1.6,0.3-3.2,0.5-4.9,0.3v-14c0,0,0,0,0,0
		c0.1-0.1,0.1-0.1,0.2-0.2c4.5-2.1,8.8-5.1,14-9.8c5.5-4.9,10.9-9.7,16.3-14.5l0.1-0.1v-7.7l-0.6,0.5c-2.5,2.2-5,4.4-7.4,6.6
		c-2.5,2.2-5,4.4-7.5,6.6c-2.9,2.6-6.7,5.9-10.8,9.1c-2.7,2.1-4.9,3.7-8,4.1c-0.3,0-0.5,0.1-0.7,0.3c-0.1,0.1-0.2,0.1-0.3,0.2
		l-0.4,0.2c-0.9,0.4-1.8,0.9-2.7,1.2c-4.6,1.3-8.4,2.2-12.1,2.9c-2.7,0.5-4.9,0.6-6.8,0.3c-12.3-1.6-24.5-3.3-36.4-5
		c-5.1-0.7-10.1-1.4-15.2-2.1c-5.1-0.7-10.1-1.3-15.2-2c-5.1-0.7-10.5-1.6-15.5-3.6c-7.1-2.8-13.5-7.7-20.8-15.9
		c-3.4-3.8-6.8-7.7-10-11.4l-0.5-0.7c-0.8-1-1.6-2-2.2-3.2c-5-8.5-9.4-16.3-13.5-23.8c-0.7-1.1-1.2-2.4-1.5-3.7
		c-2.8-11.8-4.9-20.8-6.8-29.2c-0.2-0.8-0.4-1.7-0.6-2.5c-0.6-2.2-1.1-4.5-1.3-6.8c-0.8-12.1-1.4-24.2-2-36
		c-0.2-4.1-0.4-8.2-0.6-12.3c-0.2-4.1-0.5-8.3-0.7-12.4c0-1.2-0.1-2.4-0.2-3.5c-0.2-2.6-0.3-5.2,0-7.7c0.9-9.5,2-19.1,3-28.4
		c0.5-4.5,1-8.9,1.5-13.4c0.5-4.5,1-9.2,2.7-13.5c0.6-1.6,0.9-3.2,1.2-5c1.3-7.8,4.4-15.8,9.9-25c2-3.5,4.6-7.4,7.9-10.9
		c4.3-4.5,8.5-9.1,12.6-13.6c2.1-2.3,4.2-4.6,6.3-6.8c1.9-2.2,3.9-4,6-5.5c6-4.6,12.8-8.1,18.7-11.1c4.4-2.2,9.4-3.6,14.8-4.4
		c3-0.4,6.2-0.8,9.3-1c5.9-0.4,11.8-0.7,17.6-1l0.1,0c3.5-0.2,18,0.6,20.9,2.2c0.7,0.4,1.4,0.8,2.1,1.2c2.7,1.6,5.5,3.2,7.9,5
		c6.4,4.7,12.7,9.7,18.8,14.5c1.2,1,2.4,2,3.5,3c1.1,1,2.1,1.9,3,2.8c4.9,4.5,7.6,7,9.5,12l0.1,0.1c5,4.9,7.9,12.1,10.7,19.2
		c1.2,2.9,2.3,5.7,3.5,8.3c0.7,1.4,1.3,2.8,1.9,4.2c0.6,1.4,1.3,2.9,2,4.3c0.8,1.8,1.8,3.6,2.7,5.3c0.5,1,1.1,2,1.6,2.9l0.7,1.4
		V79.2l-0.1-0.1c0,0-0.1-0.1-0.2-0.1c0,0,0,0-0.1,0c-4.3-11.8-9.2-25-14.2-31.8c-5.8-9.1-5.8-9.1-12-15.1
		c-5.3-5.1-10.9-9.7-16.6-13.8c-0.9-0.6-1.8-1.4-2.6-2c-0.9-0.7-1.8-1.4-2.7-2.1c-0.9-0.7-1.8-1.4-2.7-2c-3.1-2.4-6.4-4.9-9.7-7.1
		c-5.8-3.8-23.3-5.7-29.8-5.3c-3,0.2-6,0.4-8.9,0.6c-4.4,0.3-8.9,0.5-13.3,1c-5.6,0.6-12.9,1.7-19.5,5.2c-7.2,3.8-13,7.1-18.3,10.4
		c-3.7,2.2-6.8,5.4-9.4,8.3c-6.9,7.6-14,15.3-20.9,22.8c-0.6,0.6-1.2,1.3-1.8,2.1c-0.7,1.2-1.4,2.4-2.1,3.6c-1.6,2.6-3.2,5.3-4.7,8
		c-3.6,6.6-5.9,12.3-7,17.9l-0.1,0.6c-0.5,2.4-0.9,5-1.8,7.2c-1.9,5.2-2.5,10.6-3,15.9c-0.1,0.9-0.2,1.8-0.3,2.6
		c-0.5,4.4-1,8.8-1.5,13.2c-0.6,5-1.1,9.9-1.6,14.9l-0.2,1.5c-0.6,5.9-1.3,11.9-0.8,18c0.7,10,1.2,20.1,1.7,30l0,0.7
		c0.3,5.5,0.6,10.9,0.9,16.4c0.3,5.4,0.5,10.8,0.8,16.2c0.1,1.1,0.3,2.2,0.5,3.3c2.7,12,5.6,24.5,8.5,36.9c0.3,1.5,0.9,3,1.7,4.5
		c3.1,5.7,6.4,11.5,9.6,17.1c1.6,2.8,3.2,5.6,4.8,8.4c0.6,1.1,1.5,2.1,2.3,3l0.1,0.1c0.7,0.8,1.4,1.5,2.2,2.3c1.4,1.5,2.9,3,4.1,4.6
		c5.4,6.8,10.1,11.6,15.2,15.5c3.7,2.7,6.8,4.6,9.9,6c5.9,2.6,12.2,3.8,17.7,4.6c5.4,0.8,10.9,1.5,16.4,2.2c5.5,0.7,11,1.5,16.4,2.2
		c0.9,0.1,1.8,0.3,2.7,0.4c0.8,0.1,1.7,0.3,2.5,0.4c0.2,3.4,0.3,6.8,0.5,10.2c0.2,3.2,0.3,6.4,0.5,9.6c-0.3,0.1-0.5,0.2-0.7,0.2
		c-0.3,0.1-0.7,0.2-1,0.3c-2.2,0.5-4.4,1.1-6.6,1.6c-8.6,2.1-17.4,4.3-26.3,5.5c-9.2,1.3-18.5,3-27.5,4.6c-2.6,0.5-5.1,0.9-7.7,1.4
		c-15.4,2.8-28.2,10.6-37.9,23.3c-2.2,2.8-4.3,5.7-6.3,8.5c-1.3,1.8-2.5,3.5-3.8,5.3c-4.8,6.7-9.8,13.6-14.9,20.3
		c-3.4,4.6-5.9,8.6-7.9,12.7c-0.4,0.8-0.9,1.7-1.3,2.5c-0.6,1.3-1.2,2.5-1.9,3.7c-2.4,4.4-4.8,8.8-7.1,13.2
		c-2.4,4.4-4.8,8.8-7.2,13.2l-2.4,4.2c-4.8,8-8.4,14.7-11.3,21.2c0,0.2-0.2,0.4-0.3,0.6c-5.3-6.1-11.2-9.1-17.9-9.1
		c-0.1,0-0.2,0-0.3,0c-1.1,0-1.5-0.4-2-1.2c-1.3-2.3-2.8-4.8-4.4-7.4c-0.7-1.1-1.9-1.8-3.2-1.9c-1.4-0.1-2.6,0.5-3.5,1.7
		c-0.8,1-0.9,2.2-0.1,3.5c0.4,0.8,0.8,1.5,1.3,2.2c0.4,0.7,0.8,1.4,1.3,2.2c0.2,0.4,0.4,0.7,0.6,1.2c0.1,0.1,0.1,0.3,0.2,0.4
		c-3.4,1.2-4.7,4-5.4,6.1c-0.6,1.8-1,3.8-1.2,5.9c-0.2,1.5-0.1,3-0.1,4.4c0,0.5,0,1,0,1.4c0,0.2,0,0.5,0,0.7c0,0.4,0,0.7-0.2,0.9
		c-1.3,1.3-1.2,2.9-1.1,4.5c-0.7,0-1.4,0.1-2.1,0.1c-2.3,0.2-4.4,0.3-6.5,0.3c-2,0-3.9,0.4-5.7,1.2c-37,15.6-74,31.2-111,46.8
		c-37.1,15.6-74.1,31.3-111.2,46.9c-0.5,0.3-0.9,0.5-1.5,0.7c-1.4,0.7-2,1.7-1.9,3.3l0,0.3c0.1,0.9,0.2,1.7,0.2,2.6
		c0.2,5.4,0.4,10.7,0.7,16.1c0.2,5.3,0.4,10.7,0.6,16l0,0.4h5.5l-0.3-12.6c-0.1-3-0.2-6-0.4-9c-0.1-3-0.2-6-0.3-9c0-0.3,0-0.5,0-0.8
		c0-0.2,0-0.5,0-0.7l1.8,0c13.7,0.7,27.4,1.4,41,2.1l6.5,0.3c13.7,0.6,26,1.2,38.6,1.9c15,0.8,30,1.5,44.9,2.3l10.3,0.5
		c16.5,0.8,33.5,1.5,50.3,2.4c15.9,0.8,31.9,1.6,47.9,2.4c15.9,0.8,31.9,1.6,47.9,2.4l48.2,2.4c13.3,0.7,26.7,1.3,40,2l7.9,0.4
		c9.1,0.5,18.2,0.9,27.2,1.4c9,0.5,18,0.9,27,1.4l2.3,0.1c16.1,0.8,32.8,1.5,49.2,2.4l34.5,1.8h3.5v-5.5l-0.3,0
		c-0.2,0-0.5-0.1-0.7-0.1c-0.5-0.1-1-0.2-1.5-0.2c0,0,0,0,0,0c-3.3-0.1-6.7-0.3-10-0.5c-3.4-0.2-6.7-0.4-10.1-0.5
		c-5.8-0.3-11.6-0.6-17.3-0.9c-5.7-0.3-11.4-0.5-17.2-0.8c-7-0.3-14.1-0.7-21.2-1.1c-7.1-0.4-14.2-0.8-21.2-1.1
		c-5.7-0.3-11.4-0.6-17.1-0.8c-5.8-0.3-11.5-0.6-17.2-0.9c-7.3-0.4-14.6-0.7-21.9-1.1c-6.9-0.4-13.8-0.7-20.8-1.1l-1.4-0.1
		c-10.7-0.5-21.8-1-32.6-1.5c-7.2-0.3-14.5-0.7-21.7-1.1c-7.2-0.4-14.5-0.8-21.7-1.1c-10.9-0.5-22.2-1-33.3-1.6
		c-7.2-0.3-14.5-0.7-21.7-1.1c-7.2-0.4-14.5-0.8-21.7-1.1c-11-0.5-22.4-1-33.6-1.6c-7.3-0.4-14.6-0.7-21.9-1.1
		c-6.9-0.4-13.8-0.7-20.8-1.1l-1.4-0.1c-10.7-0.5-21.8-1-32.6-1.5c-7.1-0.3-14.3-0.7-21.4-1.1c-7.2-0.4-14.3-0.8-21.5-1.1
		c-12-0.5-22.9-1-33.8-1.6c-0.8,0-1.6-0.1-2.5-0.2c-0.1,0-0.3,0-0.4,0c0.5-0.4,0.9-0.6,1.3-0.8c6.2-2.6,12.5-5.3,18.8-7.9
		c6.3-2.7,12.6-5.3,18.8-8c58.6-24.7,117.1-49.4,173.8-73.3c0.9-0.4,1.7-0.8,2.6-0.9c1.7-0.1,3.5-0.2,5.2-0.2
		c1.8-0.1,3.5-0.2,5.3-0.3c1.6-0.1,2.7,0.5,3.7,1.9c1.1,1.6,2.3,3.3,3.4,4.9c3,4.3,6.1,8.7,9.2,13c1.9,2.6,4.1,4.9,6.7,7.5
		c2.1,2.1,4.9,3.2,7.9,3.1c1.6,0,3.2,0,4.8,0.1c2.1,0.1,4.1,0,6-1.7c0.4,0.5,0.8,1,1.2,1.5c1.1,1.3,2.1,2.5,3,3.8
		c-2.3,3.5-3.5,7.2-4.2,10c-0.6,2.5-1.4,5.6-2,8.6c-0.5,2.2-0.9,4.4-1.3,6.6c-0.3,1.6-0.1,2.8,0.5,3.7c0.6,0.9,1.8,1.5,3.5,1.7
		c1,0.1,2.1,0.1,3.1,0.1c2.7,0,5.4,0,8,0c3.5,0,7.1,0,10.7,0.1c8.6,0.2,17.3,0.5,25.7,0.8c4.4,0.1,8.8,0.3,13.2,0.4l1.9,0
		c3.8,0.1,7.7,0.1,11.4,0.7c5.3,0.7,9.9,1.7,14.1,3.3c3.2,1.1,6.6,1.2,9.8,1.4c1,0,2.1,0.1,3.1,0.2c2.1,0.1,3.6-0.2,5-1.2
		c3.4-2.2,6.9-4.5,10.2-6.8c1-0.6,1.9-1.3,2.9-1.9c2-1.4,4.2-2.9,6.4-4c4.1-2,8.3-3.7,12.4-5.3c1.5-0.6,2.9-1.2,4.4-1.8
		c7.6-3.1,14-6.5,19.8-10.3l1.4-1c1.9-1.3,3.8-2.6,5.6-4c2.2-1.7,4.4-3.4,6.2-5.2c1.3-1.3,2.6-2.1,4.2-2.7c4-1.3,8-3.1,10-7.6l0-0.1
		c0,0,0,0,0,0c0.1,0,0.1-0.1,0.2-0.2c0.6,0.1,1.3,0.2,2,0.3c6.4,1.2,12.4,1.8,18.5,2l35.7,1.2c1,0,2,0.1,3,0.2c1,0.1,2,0.2,3,0.2
		l0.4,0v-6.1l-1.8-0.1c-14.3-0.5-29.2-1-43.7-1.6c-2.9-0.1-6-0.4-9.8-1c-10.6-1.7-21.2-3.4-31-5l-6.9-1.1
		c-13.9-2.3-28.3-4.6-42.4-6.9c-0.8-0.1-1.7-0.3-2.5-0.4c-2.7-0.5-5.5-1-8.3-1.1c-5.8-0.2-12.1-0.2-19.4-0.1c-1.7,0-3.5,0.2-5.2,0.4
		c-1,0.1-2.1,0.2-3.2,0.3c-0.4,0.1-0.8,0.1-1.2,0.1c0.3-1.4,0.5-2.8,0.8-4.1c1.7-7.9,2.4-15.2,2.1-22.5c-0.1-1.9,0-3.9,0-5.7
		c0-1.3,0.1-2.6,0.1-3.9c0-0.7,0-1.5-0.2-2.2c-0.3-1.6-1.4-2.5-2.9-2.5c-1.7,0-2.4,1.3-2.8,2.2c-0.3,0.8-0.6,1.6-1,2.2
		c-1.6,2.1-3.3,4.2-5.4,6.7c-1.2,1.4-2.6,3.2-4.2,4.4c-3,2.3-5.9,4.8-8.7,7.2c-3.7,3.3-7.6,6.6-11.8,9.4c-0.2,0.1-0.3,0.3-0.5,0.4
		c-0.1,0.1-0.3,0.3-0.4,0.4c-0.2,0.1-0.4,0.3-0.6,0.4c-0.1,0.1-0.3,0.2-0.4,0.3c-0.1-0.2-0.2-0.4-0.4-0.6c-0.1-0.2-0.2-0.4-0.3-0.6
		c-3.7-5.9-8.6-10-14.8-12.1c-7.2-2.5-14.3-1.8-20.4-0.8c-1.7,0.3-3.3,0.7-5.1,1.1c-0.6,0.1-1.2,0.3-1.8,0.4
		c0.1-0.3,0.2-0.5,0.2-0.7C769.4,491.9,769.5,491.5,769.7,491.2z M734.6,497.6c0-0.7,0-1.4,0-2.1c0-2.3,0.5-4.4,1.5-6.3
		c0.5-1,1.1-1.7,2.3-1.7c0.1,0,0.3,0,0.5,0c0.3,0.5,0.6,1.1,0.9,1.6c0.3,0.5,0.6,1,0.9,1.5c7.9,14.1,16.2,28.7,24.4,43.2
		c0.9,1.6,0.9,2.2,0.7,2.4c-0.3,0.4-1.5,0.4-2.4,0.3c-0.8-0.1-1.6-0.1-2.3,0c-3.1,0.3-5.7-0.9-7.8-3.6c-2.8-3.7-5.8-7.6-8.6-11.5
		c-1.2-1.6-2.4-3.3-3.5-4.9c-1.3-1.8-2.6-3.7-4-5.6c-2.1-2.8-3-5.3-2.7-8.1C734.7,501.2,734.6,499.4,734.6,497.6z M815.3,515.8
		c-0.1-0.5-0.2-1.1-0.5-1.7c-0.7-1.4-0.3-2.6,1.1-4l0.1-0.1c1.2-1.1,2.4-2.2,3.8-3.1c4.1-2.8,7.3-5.4,10.1-8.1
		c1.7-1.7,3.7-3.4,6.2-5.2c2.5-1.9,5.7-4.6,8-8.1c0.1-0.2,0.3-0.4,0.5-0.7c0,0.1,0,0.1,0,0.2c0.1,0.3,0.1,0.5,0.1,0.7
		c0.3,8-0.3,15-1.8,21.3c0,0.3-0.1,0.6-0.1,1s-0.1,0.7-0.2,1c-0.4,2.8-0.4,3,0.6,4.9c-0.6,0.3-1.3,0.5-2,0.8c-1.2,0.5-2.5,1-3.7,1.6
		c-3.7,1.7-7.4,3.6-11,5.4c-2.2,1.1-4.4,2.2-6.6,3.3c-2.1,1-3.9,1.9-5.6,2.6c-0.9,0.4-1.8,0.6-2.8,0.9c-0.2,0.1-0.4,0.1-0.7,0.2
		c0.2-0.2,0.3-0.3,0.4-0.5c0.6-0.6,1-1.2,1.6-1.7c2.6-2.8,3.4-6.1,2.5-9.9C815.4,516.3,815.4,516,815.3,515.8z M777.3,516.2
		c-0.4,1-1.1,1.8-1.9,2.7c-0.5,0.6-1,1.2-1.4,1.8c-1.2,1.6-2.3,3.3-3.3,4.7c-2.3-2.2-4.1-6.4-4-8.9
		C769.3,515.7,774.4,515.6,777.3,516.2z M781.1,538c1.2-0.1,2.4-0.1,3.5-0.2c-1.6,1-3.3,2-5,3c-0.5-1-1-1.8-1.6-2.6
		C779.1,538.1,780.1,538,781.1,538z M773.6,565.3c0.4-1.8,0.7-3.6,1.1-5.2c0.8-3.6,1.9-7.7,4.3-11.2c1-1.5,2-2.4,3.2-3
		c0.8-0.4,1.6-0.9,2.3-1.3c0.7-0.4,1.5-0.9,2.3-1.3c0.4-0.2,0.9-0.5,1.3-0.7c1.7-0.9,3.2-1.7,5-2.3c2.1-0.7,4.4-1.3,6.5-1.9
		c1.6-0.5,3.3-0.9,5-1.5c0.8-0.2,1.5-0.5,2.3-0.7c3.9-1.1,8-2.3,11.8-3.9c2.9-1.2,5.7-2.7,8.4-4.2c1.6-0.9,3.2-1.8,4.9-2.6
		c3.3-1.7,6.8-3.4,10.2-4.9c3.8-1.6,8-2.4,13.3-2.5c7.1-0.1,14.4-0.2,21.5,0.1c2.8,0.1,5.7,0.6,8.5,1.1c1,0.2,1.9,0.3,2.9,0.5
		c16.4,2.6,33,5.3,49.2,8c2.5,0.4,5.1,0.8,7.7,1.2c2.6,0.4,5.2,0.9,7.7,1.2c0.2,0,0.5,0.1,0.7,0.2c0.2,0,0.3,0.1,0.5,0.1
		c-0.1,0.7-0.5,1-1.2,1.4c-0.8,0.3-1.5,0.6-2.2,0.9c-1,0.4-2,0.9-3.1,1.2c-2,0.7-3.7,1.9-5.6,3.8c-1.8,1.9-3.9,3.5-6,5.1
		c-8.1,6.3-17.7,11.5-29.2,16l-0.7,0.3c-4,1.5-8.2,3.1-12.1,5c-2.7,1.4-5.2,3.1-7.7,4.8c-1,0.7-1.9,1.3-2.9,1.9
		c-2.9,1.9-5.8,3.9-8.7,5.9c-0.9,0.7-2,0.9-3.2,0.8c-4.6-0.4-9.4-0.8-14-2.3c-5.9-1.9-12-3-18-3.2c-5.5-0.2-11-0.3-16.4-0.5
		c-11-0.4-22.3-0.7-33.5-1c-1,0-1.9,0-2.9,0c-2,0-3.9,0-5.8,0.1c-2,0-3.9,0.1-5.9,0.1c-0.7,0.1-1.4,0-2.3-0.1l-0.1,0
		C772.8,569,773.2,567.1,773.6,565.3z M809.1,521.9c-1.1,1.2-2.2,2.4-3.4,3.4c-2.1,1.7-4.6,3-7.8,3.8c-7.1,1.9-13.4,2.9-19.5,3.2
		h-2.8c-0.5-1.1-0.5-2.2,0.2-3.5c0.8-1.6,1.8-3.1,3-4.9c0.5-0.8,1.1-1.5,1.7-2.3c0.7-0.9,1.4-1.8,2-2.8c1.5-2.5,1.8-4.5,1-6
		c-0.8-1.5-2.6-2.4-5.5-2.7c-4.1-0.4-8.2-0.1-12.2,0.2l-1.4,0.1c-0.5,0-1.1,0.2-1.7,0.3c-0.3,0.1-0.5,0.2-0.8,0.2
		c-5.4-8.9-10-16.8-14.2-23.8c0.3,0.1,0.6,0.1,0.9,0.2c0.8,0.2,1.5,0.3,2.1,0.6c2,1,4.2,2.3,6.3,3.8c0.9,0.6,1.5,1.6,2.1,2.6
		l0.3,0.5c2.8,4.6,4,5.2,9.2,4.3c1.5-0.3,3-0.6,4.5-0.9c1.4-0.3,2.9-0.6,4.4-0.9c5.4-0.9,11.8-1.4,18,1.1c5.8,2.3,9.8,6.3,11.9,12
		c0.8,2.1,1.4,4.2,1.9,6.3c0.2,0.7,0.4,1.3,0.6,2C810.2,519.8,809.9,520.9,809.1,521.9z"/>
	<path d="M434.5,555.3c-3.7-5.4-8-11-14.5-14.6c-1.3-0.7-2.6-1.4-3.9-2.1c-0.9-0.5-1.7-0.9-2.6-1.4c-4.1-2.3-8.3-3.1-12.7-2.5
		c-1.5,0.1-2.9,0.6-4.4,1c-0.5,0.2-1.1,0.3-1.7,0.5c-1.8-2-4.5-2.6-6.9-2.9c-1.1-0.2-2.2-0.5-3.3-0.8c-8.5-2.1-15.4-7.7-21.7-17.6
		c-0.4-0.6-0.6-1.1-0.8-1.7c-0.9-2.6-1.8-5.3-2.6-7.9c-1.7-5.2-3.6-10.5-5.1-15.8c-1.3-4.2-2.1-8.5-2.7-12.2
		c-0.4-2.4-0.7-4.9-0.9-7.4c-0.2-1.8-0.4-3.7-0.7-5.5c-1.1-7.1-3.2-14.2-5.3-21c-3.8-12.1-10.2-21-19.7-27.3
		c-0.2-0.1-0.4-0.3-0.6-0.5c-0.1-0.1-0.1-0.2-0.2-0.2c-3.4-3.3-7.6-5.1-12.6-5.3c-3.1-0.1-6.5,0-10.3,0.2c-3.5,0.2-6.9,0.6-10.3,0.9
		c-3.4,0.3-6.8,0.6-10.3,0.8c-6.8,0.6-15.7,1.6-24.4,4.2c-0.4,0.1-0.7,0.2-1.1,0.2c-0.1,0-0.2,0-0.4,0c-3.2-6.2-3-26.4,0.3-31.2
		c4.4-0.5,9-1.1,13.4-1.7l0.2,0c5.2-0.7,10.4-1.3,15.6-1.9c5.8-0.7,11.6-1.4,17.3-2.2c1.8-0.2,3.6-0.4,5.3-0.6
		c6.2-0.7,12.6-1.4,18.8-3.2c0.9-0.3,1.8-0.5,2.7-0.7c4.4-1.2,8.9-2.4,13-4.7c6.3-3.4,11.6-8,16.8-12.9c1.4-1.3,1.9-2.7,1.6-4.4
		c-0.1-0.5-0.1-0.8-0.1-1.5c0-0.2,0.1-1.2,0.1-1.4c0.2-2.6,0.5-6.2,0.7-8.9c0.2-3,0.5-4.7,0.5-9.2c0.1-5.4,0.3-11.8,0.4-18.1
		c0.1-5.5,0.8-14.6,1.4-19.6c1.1-11.3,3-27.7,4.1-38.7c0.2-2.3,0.4-4.4,0.6-6.2c0-11,1.3-20,3-31.5c0.3-1.7,0.5-3.5,0.8-5.4
		c0.2-1.6,0.3-3,0.3-4.5c0.1-1.7,0.1-3.7,0.5-6.4c0.9-5.4,0.8-12,0.2-16.2c-0.7-5.2-2.1-5.7-6.2-7.1l-0.9-0.3
		c-0.7-0.3-1.4-0.5-2.1-0.7c-0.7-0.2-1.4-0.4-2-0.6c-3.3-1.2-10.1-1-14-0.5c-1.8,0.2-3.8,0.6-5.8,0.9c-2,0.4-4.1,0.8-6,1
		c-7.6,0.8-12.4,1.3-17.3,1.8c-4.4,0.5-8.9,1-15.6,1.7c-8.1,0.9-16.2,1.7-24.3,2.6c-9.1,1-18.1,2-27.2,2.9c-0.7,0.1-1.4,0-2.2,0
		c-0.3,0-0.6,0-0.8,0c-0.5-11.4-1.1-22.7-1.6-33.9c-0.5-9.8-1-19.5-1.4-29.2c0.2-0.1,0.3-0.1,0.4-0.2c0.4-0.1,0.7-0.1,1.1-0.1
		c5.4-0.2,10.7-1.8,16.3-5.1c5-3,8.2-7.2,9.7-12.7c0.7-2.6,1-5.5,1.2-7.9c0.7-7.4,0.2-13.3-1.5-18.7c-1.9-5.8-5.1-9.1-10.1-10.5
		c-2.3-0.6-4.6-1.3-6.8-2c-2.3-0.7-4.6-1.4-6.8-2c-0.3-0.1-0.6-0.1-0.9-0.1c-0.8,0.1-1.7,0.1-2.5,0.1c-1.9,0.1-3.8,0.1-5.7,0.6
		c-6.9,1.8-13.4,5.3-19.4,10.4c-3.5,2.8-6.1,6.5-7.6,10.9c-2.1,5.6-2.1,11.4-1.8,16.8c0.1,1.1,0.5,2.5,1,3.5
		c1.2,2.6,2.5,4.7,3.7,6.5c2.2,3.4,5.5,5.9,9.7,7.5c3.8,1.5,7.9,2.3,12,2.4c0.4,0,0.8,0,1.2,0c0.3,0,0.6,0,1,0
		c0.5,10.5,1,20.9,1.5,31.3c0.5,11,1.1,22,1.6,33c-1.1,0.1-2.1,0.2-3.1,0.3c-1.5,0.1-3,0.3-4.4,0.5l-67.5,7.2
		c-12.7,1.4-25.8,2.8-38.7,4.1c-9.5,1-18.5,3.5-25.3,5.5c-3.2,1-5.6,4.4-5.6,7.8c0.1,5.1,0.2,10.3,0.2,15.4
		c0.1,5.2,0.2,10.4,0.3,15.6l1.2,70.6c0.3,17.3,0.6,36.9,0.8,55.9c0.1,3.3,1.1,6,3.1,8.1c3.8,4.3,7.8,8.8,11.8,13
		c2.6,2.8,5.4,4.9,8.5,6.4c2.9,1.4,6.1,2.6,9.8,2c9.3-1.3,18.7-2.4,27.8-3.5l0.1,0c5.9-0.7,11.7-1.5,17.5-2.2l16.3-2
		c1.7-0.2,3.5-0.4,5.2-0.6c1.3-0.1,2.6-0.3,3.9-0.4c1.7,13.8,3.2,26.1,4.4,37.5c-1.2,0.3-2.3,0.6-3.4,0.9c-1.4,0.4-2.8,0.7-4.3,1.1
		c-9.6,2.3-18.1,3.9-26.2,4.7c-3.6,0.4-7.2,0.5-10.8,0.6c-2,0.1-4.1,0.1-6.2,0.2c-1.3,0.1-2.7,0.1-4,0.1c-2.6,0-5.4,0.1-8.1,0.5
		c-4.5,0.7-8.4,2.1-12,4.1c-8.8,5-17.9,10.9-25.6,19.5c-4.3,4.9-9.8,11.4-14,18.9c-0.8,1.4-1.4,2.7-1.7,4c-1.6,5-3.2,10-4.8,15
		c-3.8,12-7.7,24.4-11.8,36.6c-1.7,5.4-2.4,10.6-2.1,16l0.3,2.9c0.1,1,0.3,2.1,0.4,3.1c0.3,2,0.6,4.1,0.8,6.2
		c0.8,7.4,1.6,15,3.4,22.4c0.3,1.1,0.7,2.4,1.5,3.4c1.5,1.9,2.5,3.9,3.5,6.1c0.4,0.9,0.9,1.8,1.3,2.6l0.5,1c1.2,2.2,2.5,4.6,3.3,7
		c0.4,1.3,1.4,2.4,2.4,3.4c0.9,1.1,1.9,2.2,2.8,3.3c0.9,1.1,1.9,2.2,2.8,3.3c1.1,1.3,2.2,2.6,3.3,4c1.5,1.9,3.1,3.8,4.7,5.6
		c2.1,2.4,4.6,4.2,7.5,5.3c1.1,0.4,2.1,1,3.1,1.5c0.4,0.2,0.8,0.4,1.2,0.6c1.8,0.8,3.5,1.9,5.2,2.9c2.9,1.7,5.9,3.5,9.1,4.4
		c0.1,0,0.1,0.1,0.2,0.2c0.1,0.1,0.1,0.2,0.2,0.2l0.1,0.1H145l-1.4-0.7c-3.2-1.7-6.6-3.4-9.9-5.2c-2.5-1.4-5-2.8-7.3-4.1
		c-0.9-0.5-1.7-1-2.6-1.5c-2.6-1.5-5.4-3.1-8.2-4.4c-3.6-1.6-6.1-3.3-8.1-5.6c-2.1-2.4-4.1-4.9-5.9-7c-0.6-0.8-1.2-1.6-1.8-2.3
		c-0.9-1.2-1.8-2.4-2.9-3.5c-1.7-1.9-3.3-3.8-4.2-6.2c-0.3-0.9-0.8-1.7-1.3-2.5c-0.2-0.4-0.5-0.7-0.7-1.1c-0.5-0.9-1-1.7-1.5-2.6
		c-1.3-2.3-2.7-4.6-4.1-6.9c-0.4-0.5-0.5-1.3-0.7-2.1c-0.2-0.9-0.3-1.7-0.5-2.6c-0.4-1.9-0.7-3.9-1-5.9c-0.5-3.5-0.9-7.1-1.3-10.7
		c-0.2-2-0.5-4-0.7-6c-0.4-2.9-0.8-6-1-9c-0.3-4.6,0.2-8.8,1.5-12.9c3.8-11.3,7.4-22.9,11-34.1c1.9-6.1,3.9-12.2,5.8-18.3
		c0.2-1.1,0.6-2,1-2.6c4.9-9,11.6-17.2,20.6-25.2c5-4.4,10.9-8.3,19.3-12.6c3-1.5,5.8-2.1,8.6-2c1.1,0.1,2.3-0.1,3.4-0.3
		c0.5,0,0.9-0.1,1.3-0.2c0.6-0.1,1.1-0.3,1.6-0.3c1,0,2,0,3,0c2,0,4.1,0,6.1,0c1.2-0.1,2.4-0.1,3.6-0.1c3.5-0.1,7.2-0.2,10.8-0.7
		c5.5-0.7,11.3-1.6,17.3-2.9c16.4-3.4,32.9-8,48.8-12.4c7.7-2.1,16.7-4.6,25.8-6.6c3.6-0.8,7.3-1.1,10.9-1.4
		c0.9-0.1,1.9-0.1,2.8-0.2c1.8-0.1,3.5-0.3,5.3-0.5c7.5-0.7,15.3-1.4,23-1.2c3.5,0.1,6.5,1.2,9.1,3.3l3,2.4c5.5,4,9.8,9.2,13.2,16
		c2.9,5.8,4.5,12.1,6,18.2l0.6,2.2c1.2,4.7,2,9.8,2.5,16c0.5,7,2.3,13.8,4,20.4c0.3,1.1,0.6,2.3,0.9,3.4c1.6,6.1,3.3,12,5.8,17.6
		c0.2,0.4,0.3,0.7,0.5,1.1c0.8,1.7,1.6,3.5,2.8,5.1c4.5,5.8,9.8,11.5,17.4,14.3c2.8,1.1,5.8,2,8.6,2.9c0.7,0.2,1.4,0.4,2.1,0.6
		c0.7,0.2,1.4,0.3,2.1,0.6c0.3,0.1,0.6,0.3,0.8,0.4c-0.4,0.7-0.7,1.3-1.1,2c-0.9,1.6-1.7,3.2-2.4,4.7c-1.4,3.3-2.6,6.6-3.6,9.7
		c-1.2,3.6-2.4,7.4-3.5,11c-0.6,2.1-1.3,4.2-1.9,6.2c-0.3,1-0.6,2-1.1,3.1c-1.4-0.4-2.8-0.9-4.1-1.2c-1.8-0.6-3.6-1.1-5.3-1.6
		c-10.1-3.4-17.6-8.6-22.9-15.8c-3.9-5.2-8.2-10-12.7-14.2c-4.8-4.5-9.1-8.7-12.9-13.5c-1.8-2.4-3.8-5.4-4.6-9.2
		c-0.6-2.9-4-5.1-7.6-5l-0.3,0l0,0.3c-0.1,0.8-0.2,1.6-0.3,2.4c-0.2,1.6-0.4,3.2-0.6,4.8c-0.7,7-0.1,13.9,0.4,20.6
		c0.1,1.5,0.2,3.1,0.4,4.6c0.1,2,0.5,4,0.8,6c0.3,2.1,0.7,4.3,0.8,6.4c0.6,9.6,1.3,19.3,2,29.2c0.1,0.9,0.1,1.7,0.2,2.5
		c0.2,1.9,0.3,3.7,0.3,6.4c0,2.6,0.1,4.4,0.2,6.1c0.1,1.1,0.1,2.2,0.2,3.6c0.1,1.4,0.2,2.8,0.4,4.1c0.3,3.1,0.6,6.3,0.4,9.4
		c-0.1,1.9,0.1,3.9,0.3,5.6c0.2,1.9,0.4,3.7,0.7,5.5c0.2,1.8,0.4,3.6,0.6,5.5l0,0.3h5.5l0-0.4c-0.1-0.9-0.1-1.9-0.1-2.8
		c-0.1-1.5-0.1-3.1-0.4-4.7c-0.8-4.9-1.1-9.7-0.9-14.7c0.1-1.6-0.1-3.2-0.3-4.9c-0.1-1.2-0.3-2.5-0.4-3.9l-0.4,0c0,0,0,0,0,0
		l-1.3-17l0.4,0c-0.1-4.2-0.5-8.4-0.9-12.5c-0.5-5.1-0.9-10.4-0.9-15.7c0-0.2,0-0.4-0.1-0.6c0-0.1,0-0.2,0-0.4
		c-1.3-8.7-2.6-18-2.9-27.7c-0.1-1.2,0-2.5,0-3.9c0-0.5,0-0.9,0-1.4c3.9,6.3,9.2,11.6,14.3,16.7l1.1,1.1c4.6,4.7,9.4,9.6,13.8,14.7
		c5.7,6.6,10.8,10.8,16.5,13.5c2.2,1,4.5,1.9,6.7,2.8c0.9,0.4,1.9,0.7,2.8,1.1c0.8,0.3,1.6,0.6,2.4,0.8c0.8,0.2,1.6,0.5,2.3,0.8
		c0.6,0.3,1.2,0.6,1.4,1.1c2.8,5.5,7.3,9.5,11.2,12.9c3.2,2.8,7,4.8,11.4,5.8c6.9,1.6,13.8,0.9,19.6,0c6.1-0.9,10.3-4,12.8-9.2
		c2.3-4.6,4.6-9.4,6.5-14.2c2.2-5.3,3-10.5,2.5-15.7C436.4,559.9,436,557.4,434.5,555.3z M429.6,576.4c-1.4,3.3-2.9,6.6-4.5,9.8
		c-0.6,1.2-1.2,2.4-1.7,3.7c-1.7,3.7-4.5,5.7-8.6,6.3c-5.6,0.8-11.5,1.4-17.3,0c-2.1-0.5-4.3-1.4-6.3-2.6
		c-4.4-2.6-7.8-6.4-10.8-10.1c1.6-0.8,2.1-2.1,2.7-3.5c2.3-7.7,4.8-15.4,7.1-22.9l1.7-5.5c0.9-2.8,2.1-5,3.5-6.9
		c3.1-3.7,7-4.9,11.7-3.5c7.3,2.2,13.1,5.8,17.8,10.9c1.2,1.3,2.4,2.8,3.5,4.2c0.4,0.5,0.8,1,1.2,1.5c1.1,1.5,1.7,3.2,1.9,5.3
		C432,567.6,431.3,571.9,429.6,576.4z M249.9,418.3c-9.4,2.7-21.7,6.2-34.7,9.6c-0.6-5.3-1.3-10.5-1.9-15.7c-0.8-7-1.7-14-2.5-21.1
		c4.8-0.6,9.5-1.2,14.3-1.8c7.9-1,16.1-2,24.2-2.9C246.9,397.9,247.1,408.4,249.9,418.3z M365.7,213.9c-1.8,12.3-2.5,23.7-3.3,34.7
		c-0.7,11-1.4,22.3-3.2,34.6c-1.6,11.5-1.9,23.2-2.2,34.5c-0.3,11.5-0.6,23.4-2.3,35.1c-0.1,0.7-0.3,1.2-0.6,1.5
		c-6,5.7-12.7,11.4-21.6,14c-8.3,2.5-16.4,4.2-24.8,5.1c-8.4,0.9-17,2-25.2,3c-2.8,0.4-5.6,0.7-8.4,1.1c-10.4,1.2-21.6,2.6-32.9,4
		c-5.5,0.7-11,1.4-16.5,2c-5.5,0.7-11.1,1.4-16.6,2.1c-5.5,0.6-10.9,1.3-16.3,2c-5.4,0.7-10.8,1.3-16.3,2l-33.6,4.2
		c-3.7,0.5-7.7,0.9-11.6,0.5c-1.2-0.2-2.6-0.5-3.7-1.1c-2.2-1.4-4.7-3.1-6.9-5.4c-2.9-2.9-5.7-6.1-8.4-9.1c-0.9-1-1.8-2.1-2.8-3.1
		c-1.3-1.4-1.9-3-1.9-4.9c-0.3-26-0.7-52.4-1.1-78c-0.2-12.8-0.4-25.6-0.6-38.4c-0.2-12.9-0.5-25.7-0.7-38.5c0-3.4,0.3-3.9,3.6-4.9
		c10.1-3.4,20.2-4.7,28.8-5.5c6.2-0.5,12.4-1.2,18.5-1.9c2.1-0.2,4.1-0.5,6.2-0.7c4.9-0.5,9.7-1,14.6-1.6c4.8-0.5,9.7-1,14.5-1.5
		c4.8-0.5,9.5-1,14.2-1.5c5.3-0.6,10.6-1.1,15.9-1.7c2.2-0.2,4.4-0.5,6.6-0.7c5.2-0.6,10.7-1.2,16-1.6c2.2-0.1,4.5-0.4,6.6-0.7
		c15.3-1.7,30.7-3.3,45.6-4.9c17.3-1.8,26.6-2.8,44.1-4.7c1.8-0.2,3.5-0.5,5.1-0.8c2.3-0.4,4.4-0.8,6.8-1c0.5,0,1.1,0,1.8,0
		c2.1,0,4.8,0.1,6.1,0.3c1.2,0.2,2.4,0.6,3.6,1c0.4,0.1,0.8,0.3,1.2,0.4c2.3,0.7,2.5,2.3,2.7,4.6c0.1,0.8,0.2,1.7,0.4,2.6
		c-0.1,2.1-0.1,3.9-0.2,5.4c0,2.7-0.1,4.9-0.5,7.5C366.6,206.6,366.1,211.5,365.7,213.9z M243.6,118.3l-2.2-0.1
		c-5.1-0.3-8.7-0.5-12.3-1.7c-3.6-1.2-6.5-3.4-9.1-7c-3.2-4.4-3.2-9.4-2.7-14.1c0.7-7.5,4.3-13.3,10.8-17.3c2.8-1.8,6-3.4,9.9-5.3
		c2.4-1.2,4.5-1.7,6.6-1.7c0.4,0,0.8,0,1.2,0.1c0.9,0.1,1.7,0.3,2.5,0.5c0.7,0.2,1.4,0.3,2.2,0.4c4.2,0.4,8.1,1.8,12.1,3.3
		c1.9,0.8,3.2,2,4,3.8c1.6,3.9,2.4,7.3,2.4,10.5c-0.1,3.9-0.2,8-0.6,12c-0.6,5.7-3.4,10-8.2,12.7
		C254.9,117.3,248.8,118.8,243.6,118.3z"/>
	<path d="M205.7,639.2c-0.4-0.4-0.8-0.7-1.2-1c-0.5-0.4-1-0.8-1.5-1.1c-0.7-0.5-1.4-1-2.1-1.6c-2.5-2.5-5.6-3.7-9.2-3.5
		c-2,0.2-4.1,0.4-6.3,0.7l-0.5,0.1c0-0.1,0-0.3,0-0.4c0-0.3-0.1-0.6-0.1-0.9c-0.1-0.4-0.2-0.8-0.3-1.2c-0.2-1.1-0.5-2.3-1.2-3.1
		c-3.1-3.4-6.5-7-10.1-10.2c-3.5-3.2-6.4-6.7-8.7-10.6c-1.3-2.2-2.6-4.3-3.9-6.4c-0.3-0.4-0.5-1-0.5-1.5l-0.6-28.8
		c-0.2-8-0.4-16-0.6-24c-0.2-8-0.5-16-0.6-24c-0.1-4.7-0.2-9.4-0.4-14.2c-0.1-4.7-0.2-9.4-0.4-14.1c-0.1-2.7-1.1-3.8-2-4.2
		c-1.2-0.6-2.8-0.3-4.3,0.9l-0.5,0.4c-1.7,1.3-3.5,2.6-5,4.2c-4.9,5.5-8.5,12.2-11.2,21.2c-2.2,7.5-3.5,15.6-4,24.7
		c-0.1,1.5-0.2,3.1-0.2,4.6c-0.1,2.2-0.2,4.5-0.5,6.7c-0.6,5.4-0.6,11.2,0.1,18.3c0.4,3,1.4,5.7,3,8.3c5.2,8.2,10.1,14.1,15.5,18.8
		c4.1,3.6,7.5,7.8,10.1,12.5c2.7,4.9,6.3,9.1,11.1,12.6c2.4,1.8,4.6,4,6.7,6c0.5,0.5,1.1,1,1.6,1.6c2,2,1.6,4.6,1,7.4
		c-0.1,0.5-0.7,1.1-1.3,1.5c-0.2,0.2-0.4,0.4-0.6,0.6c-0.2,0.2-0.6,0.4-1,0.6c-0.2,0.1-0.3,0.1-0.5,0.2l-1.4,0.7h1.6
		c2.6,0,5.2,0,7.6-0.2l0.2,0l0.1-0.2c0.7-1.2,1.9-1.5,3.2-1.9c0.3-0.1,0.6-0.2,0.9-0.3c0.6-0.2,1.1-0.3,1.7-0.3c0.2,0,0.4,0,0.6-0.1
		c3.4-0.6,6.2,0.3,8.5,2.6l0.1,0.1h8.9l-0.8-0.7C206.2,639.6,206,639.4,205.7,639.2z M135.5,569.2c0.1-1.3-0.1-2.7-0.2-4
		c-0.1-1.1-0.2-2.2-0.2-3.2c0.1-3.2,0.3-6.4,0.5-9.6c0.1-1.3,0.2-2.6,0.2-3.9c0.3-5.1,0.6-10.4,1.2-15.5c1-8.2,2.8-18.8,8.7-28.6
		c1.4-2.3,3.1-5,5.7-7.2c0.9,27.8,2,60.8,2.8,95.4c-0.1,0-0.1-0.1-0.2-0.1c-0.5-0.3-0.8-0.5-1-0.7c-5.1-4.6-9.7-9.6-13.6-14.7
		l-0.2-0.3c-0.3-0.5-0.7-1.1-1.2-1.4C136.2,573.9,135.5,572.1,135.5,569.2z"/>
	<path d="M594.2,639.7c-0.6-0.2-1.2-0.5-1.9-0.5c-4.9-0.4-9.8-0.8-14.7-1.2c-4.9-0.4-9.8-0.8-14.7-1.2c-5.8-0.5-11.6-1-17.5-1.5
		c-5.8-0.5-11.6-1-17.4-1.4c-0.8-0.1-1.2-0.5-1.8-1l-0.2-0.1c-0.8-0.8-1.8-1.1-2.7-0.8c-0.9,0.3-1.7,1.1-2,2.2
		c-0.2,0.7-0.2,1.4-0.2,2c0,0.7,0,1.4,0,2.1c0,0.7-0.1,1.5-0.1,2.2v0.4h6v-0.4c0-0.2,0-0.3,0-0.5c0-0.2,0-0.3,0.1-0.5
		c1.8,0.2,3.7,0.4,5.5,0.6c2.2,0.2,4.3,0.5,6.6,0.7h58l-2.2-0.7C594.7,639.9,594.4,639.8,594.2,639.7z"/>
	<path d="M889.6,269.9h1.9c0.8,0,1.6,0.1,2.3,0.2c1.5,0.2,3,0.5,4.5,0.8c2.4,0.4,4.8,0.8,7.3,1.1c10.2,1.5,21.3,2.3,33.7,2.5h0
		c0.5,0,1,0,1.5,0c0.5,0,1,0,1.5,0c0.5,0,1,0,1.5-0.1c1.5-0.2,2.6-1.4,2.6-2.8c0-1.4-1-2.5-2.5-2.9c-0.4-0.1-0.9-0.1-1.3-0.1
		c-3-0.2-6.1-0.3-9.2-0.4c-4.4-0.2-9-0.4-13.5-0.7c-8.6-0.5-16.6-1.5-24.6-3.1c-2-0.4-4.1-0.4-6.1-0.4c-2,0.1-3.2,1.2-3.2,3
		C886.3,268.3,887,269.7,889.6,269.9z"/>
	<path d="M860.6,160.8c-2-0.5-4.2,0.4-6,2.3c-1.2,1.3-1.8,2.7-1.9,4.4v2.2h-0.1l0,0.4c0,0.3,0,0.6,0.1,1c0.1,1.3,0.1,2.6,0.5,3.8
		c0.4,1.9,1.4,3.3,2.8,4c0.6,0.3,1.3,0.5,2.1,0.5c0.9,0,1.9-0.3,3-0.8c3.6-1.8,5.5-5.6,4.8-9.5c-0.2-1.3-0.5-2.6-0.8-3.5
		C864.2,163,862.6,161.3,860.6,160.8z"/>
	<path d="M980.7,62.2c0.5-0.1,1-0.2,1.5-0.4c1.3-0.7,1.9-1.9,1.7-3.1c-0.2-1.4-1.4-2.3-3-2.3c-0.4,0-0.8,0.1-1.2,0.2
		c-0.2,0-0.3,0.1-0.5,0.1c-8.4,1.9-16.7,5.3-24.8,10.1c-1.3,0.8-2.6,1.6-3.8,2.5c-1.1,0.7-1.5,1.9-1,3.1c0.5,1.3,1.6,1.9,3.3,1.9
		h0.1l0.1,0c0.1,0,0.2-0.1,0.3-0.1c0.5-0.2,1.2-0.5,1.7-1C962.8,68,971.5,64.2,980.7,62.2z"/>
	<path d="M902,187c0-2-1.2-3.4-2.9-3.4c-1.5,0-2.7,1.2-2.9,3c0,0.3,0,0.6-0.1,1c-0.1,1-0.1,1.9-0.3,2.8c-1.1,4.3-1.5,8.9-1.3,12.9
		c0,1,0,1.9,0,2.7c0,1.5-0.1,2.8,0.1,4c0.1,1.6,0.5,3.3,1.2,5.4c0.5,1.4,1.6,2.2,2.8,2.2c0.3,0,0.6,0,0.9-0.1c1.6-0.5,2.3-2,1.8-4
		c-0.1-0.4-0.2-0.7-0.3-1.1c-0.2-0.8-0.5-1.5-0.5-2.3c0-0.8,0-1.7-0.1-2.5c-0.1-4.9-0.2-9.9,0.9-14.8
		C901.6,191.1,901.9,189.2,902,187z"/>
	<path d="M947.8,178.3L947.8,178.3l0.1,0c2.1-0.1,3.4-0.6,4.3-1.6c0.9-1,1.3-2.4,1.1-4.4c-0.2-3-1.2-5.8-2.9-8.5
		c-0.6-0.9-1.7-1.4-2.5-1.6c-2.4-0.7-4.4,0.1-5.7,2.4c-1.4,2.4-1.8,5.2-1.2,8.6c0.6,3.6,2.4,5.1,6.1,5.1
		C947.4,178.2,947.5,178.2,947.8,178.3z"/>
	<path d="M932.3,67c0,1.7,1,2.9,2.5,3c0.1,0,0.2,0,0.3,0c1.5,0,2.5-0.9,2.8-2.5c0.1-0.3,0.1-0.6,0.1-0.8l1.2-17.1l-0.1-0.1l0-6.1
		c0-0.3-0.1-0.6-0.1-0.9c0-0.3-0.1-0.7-0.1-1c-0.3-1.5-1.4-2.4-2.7-2.4c-1.4,0-2.6,1.1-2.9,2.5c-0.1,0.6-0.1,1.3-0.1,2
		c0.1,6.3-0.2,12-0.8,17.4C932.3,63,932.3,65,932.3,67z"/>
	<path d="M913.5,44.3c0-0.7,0-1.5-0.2-2.2c-0.3-1.5-1.4-2.4-2.6-2.4c0,0,0,0,0,0c-1.4-0.1-2.6,0.8-2.9,2.4c-0.1,0.6-0.1,1.3-0.1,2
		v17c0,1.4,0.2,2.9,0.4,4.4c0.3,1.8,1.4,2.9,3,2.9c0.1,0,0.2,0,0.2,0c1.7-0.2,2.6-1.5,2.5-3.6c-0.2-3.2-0.3-6.4-0.4-9.5l0.1,0.1
		V44.3z"/>
	<path d="M897.4,64.9c-0.1-0.1-0.1-0.3-0.2-0.4c-0.7-1.4-1.4-2.7-2.1-4.1c-0.7-1.3-1.4-2.7-2-4c-0.7-1.4-1.4-2.8-2.2-4.1
		c-1.3-2.3-2.6-4.6-3.4-7.1c-0.2-0.6-0.8-1-1.2-1.3c-0.1-0.1-0.3-0.2-0.4-0.3l-0.1-0.1l-0.1,0c-2-0.1-3.5,1.2-3.6,3.3
		c0,1.1,0.3,2.3,0.8,3.4l8.7,16.5c0.3,0.7,0.7,1.4,1.3,1.9c0.6,0.7,1.4,1,2.2,1c0.5,0,1-0.2,1.5-0.5c1.2-0.8,1.6-2.2,1.1-3.6
		C897.6,65.2,897.5,65,897.4,64.9z"/>
	<path d="M813,547.8c0.6,0.2,1.2,0.3,1.8,0.4c0.3,0.1,0.5,0.1,0.8,0.2l6,1.1c13.3,2.5,27.1,5,40.7,7.5c2.1,0.4,4.2,0.8,6.3,1.1
		c0.9,0.2,1.8,0.3,2.6,0.5l0.1,0c2.1,0,3.5-0.9,3.6-2.4c0.2-1.5-0.6-2.6-2.3-3.2c-0.5-0.2-1-0.3-1.5-0.4l-0.2,0
		c-15-2.7-30.1-5.5-44.8-8.2l-7.3-1.3c-0.4-0.1-0.9-0.1-1.4-0.2c-1.1-0.2-2.2-0.3-3.4-0.4c-1.4-0.1-2.5,0.8-2.8,2.2
		C811,546,811.7,547.2,813,547.8z"/>
	<path d="M850.8,533.5c0.6,0.1,1.2,0.1,1.8,0.1c5.6,0,11.1,0.1,16.7,0.2c5.5,0.1,10.9,0.1,16.4,0.2c0.7,0,1.5,0,2.2-0.2
		c1.2-0.3,2-1.4,2-2.7c0-1.3-0.8-2.3-2.1-2.7c-0.8-0.2-1.7-0.3-2.5-0.3h-16.2c0-0.1-0.1-0.2-0.2-0.3l-0.1-0.1h-16
		c-0.7,0-1.4,0-2.2,0.1c-1.6,0.2-2.6,1.3-2.6,2.7C848.1,532,849.2,533.1,850.8,533.5z"/>
	<path d="M322.1,244.9c-4.9-5.6-9.1-6.9-16.6-7.6c-1.2,0-2.7,0.2-4.1,0.3c-1,0.1-2,0.2-2.8,0.3c-6.9,0.5-13,3.2-17.9,8.1
		c-1.2,1.2-2.4,2.5-3.5,3.8c-0.5,0.5-0.9,1.1-1.4,1.6c-3.6,3.9-5.7,8.9-6.4,15.1c-1,8.4,1.6,15.7,7.9,22.3c2.9,2.9,6.1,4.3,9.7,4.3
		v-0.4l4.7,0.6c0,0,0,0,0,0l0,0.4c1-0.1,2-0.2,3-0.2c2.5-0.2,5.1-0.3,7.5-0.8c6.2-1.1,11.7-4.1,16.3-7c3.8-2.4,6.3-6,7.1-10.5
		c1.2-6.9,2.2-18.4,0.8-22.2C325.5,249.9,323.8,246.9,322.1,244.9z M281.6,284.6c-3.3-3.6-6.9-8.6-6.3-15.4l0-0.1
		c0.1-1.8,0.2-3.6,0.5-5.3l0-0.2c0.3-1.3,0.6-2.7,1.2-3.8c2.8-4.4,6.7-9.9,12.8-13.5c2.5-1.5,5.5-2.4,9.2-2.8c3.1-0.7,5.6-1,8.1-1
		c1.6,0,3.5,1.1,5,1.9l0.4,0.3c0.3,0.2,0.6,0.3,0.9,0.5c1.9,1,3.9,2,5,3.8c2.7,4.2,2.7,4.5,2.8,6.7l0,0.3l0.4,0l0.2,3.4l-0.4,0
		l-0.1,1c-0.4,4.1-0.7,8.4-1.2,12.6c-0.4,3.5-2,6.1-4.8,7.8c-5.2,3.1-10,5.7-15.5,6.2c-3.8,0.3-7.6,0.2-11.6,0.1l-2,0
		C284.2,287,282.6,285.7,281.6,284.6z"/>
	<path d="M207.7,270c0.4-4.4-0.7-8.6-3.3-12.2c-2.4-3.2-5.2-5.8-8.3-7.8c-0.8-0.5-1.8-0.9-3-1.2c-3.8-1-7.7-0.9-11.5-0.8
		c-1,0-1.9,0-2.9,0c-8.7-0.1-15.9,2.5-22,8c-3.6,3.3-5.8,6.8-7,11.2c-1.3,4.8-1.8,9.9-1.3,15.6c0.6,7.5,4.5,12.8,11.4,15.8
		c0.6,0.2,1.3,0.5,1.9,0.7c0.6,0.3,1.3,0.5,1.9,0.8c4.4,1.5,8.8,2.3,13.1,2.3c2.2,0,4.3-0.2,6.5-0.6c5.3-0.9,9.9-3.3,13.8-5.5
		c3.4-2,5.9-5,7.5-9.1C206.7,281.7,207.7,276,207.7,270z M201.9,267.7c0,5-0.3,11.6-3.1,18c-1.1,2.4-2.4,4.1-4.3,5.3
		c-10.7,6.9-21.7,7.5-33.3,1.9c-4.4-2.1-6.8-5.8-7-11v-3.4c0-3.1,0.2-7.1,1.6-11c0.9-2.4,2.2-4.5,4.2-6.4c4.9-4.9,10.8-7.2,17.8-7.2
		c0.4,0,0.9,0,1.3,0c3.5,0.1,7.2,0.3,10.7,0.5C195.5,254.8,201.9,261.8,201.9,267.7z"/>
	<path d="M272.5,341.3c-0.6-0.1-1.4-0.1-2,0l-57.3,5.7c-3.1,0.3-6.1,0.6-9.1,1c-0.9,0.1-2,0.6-2.7,1.2c-0.8,0.6-1,1.7-0.5,2.9
		c0.7,1.6,2.2,1.8,3.3,1.8h0.1l0.1,0c0.2-0.1,0.6-0.1,0.8-0.1c8.7-0.8,17.4-1.7,25.8-2.6c13.7-1.4,27.3-2.8,40.1-4
		c0.7-0.1,1.3-0.2,2-0.4c1.2-0.4,1.8-1.4,1.8-2.8C274.8,342.6,273.8,341.6,272.5,341.3z"/>
	<path d="M307.2,273.3c0.6,0,1.2-0.1,1.8-0.4c2.8-1.1,5.8-5.7,5.8-8.7c0-2.5-1-4.9-2.8-6.9c-1.2-1.3-2.6-1.9-4.1-1.8
		c-1.3,0.1-2.6,0.9-3.5,2.1c-0.9,1.1-1.4,2.5-1.8,3.5c-1,3.2-0.8,6.3,0.5,9.2C304.1,272.3,305.5,273.3,307.2,273.3z"/>
	<path d="M184,267c-3.5,1.1-6,4.6-6,8.6c0,0.3,0.1,0.7,0.1,1.4l0.1,0.5c0.6,2.2,1.8,3.8,3.5,4.4c0.5,0.2,1,0.3,1.6,0.3
		c1.2,0,2.6-0.5,3.9-1.4l1.2-1.2c2.2-2.7,2.4-7.9,0.4-10.8C187.6,267,186,266.4,184,267z"/>
</g>
</svg>
