<?xml version="1.0" encoding="utf-8"?>
<!-- Generator: Adobe Illustrator 25.2.3, SVG Export Plug-In . SVG Version: 6.00 Build 0)  -->
<svg version="1.1" id="레이어_1" xmlns="http://www.w3.org/2000/svg" xmlns:xlink="http://www.w3.org/1999/xlink" x="0px"
	 y="0px" viewBox="0 0 1024 640" style="enable-background:new 0 0 1024 640;" xml:space="preserve">
<g>
	<path d="M449,639.6c-0.8-15.4-1.6-30.7-2.4-46.3c-1.2,0-2.2,0-3.3,0c-55.2-0.2-110.4-0.3-165.6-0.4c-48.5-0.1-97-0.2-145.6-0.2
		c-4.4,0-7.2-1.8-8.7-5.6c-1.8-4.5-3.3-9.1-3.3-14.1c0.1-182.3,0.1-364.5,0-546.8c0-5.2,4.1-9.6,9.2-9.8c0.6,0,1.5-0.1,1.9,0.2
		c1.6,1.6,3.6,1.2,5.5,1.2c22.5-0.3,44.9-0.6,67.4-0.9c41.7-0.5,83.4-1,125-1.5c31.7-0.4,63.5-0.8,95.2-1.2
		c22.7-0.3,45.4-0.5,68.1-0.8c30.4-0.4,60.7-0.8,91.1-1.2c22.1-0.3,44.3-0.5,66.4-0.8c31.2-0.4,62.4-0.8,93.5-1.2
		c22.1-0.3,44.3-0.5,66.4-0.8c28.7-0.3,57.5-0.7,86.2-1c5.1-0.1,9.4,1.7,12.8,5.5c1.8,1.9,2.6,4.1,2.6,6.9
		c0.1,65,0.3,129.9,0.5,194.9c0.3,98.3,0.6,196.7,1,295c0.1,24.1,0.2,48.2,0.3,72.3c0,2-0.4,3.8-1.3,5.6c-1.4,2.9-3.7,4.5-6.7,5.1
		c-2.6,0.5-5.3,0.9-8,0.9c-52.4-0.1-104.9-0.3-157.3-0.4c-41.1-0.1-82.2-0.2-123.3-0.3c-1,0-1.9,0-3.2,0c0,1.1-0.1,2-0.1,2.9
		c0.3,8.8,0.7,17.6,1,26.4c0.2,5.5,0.4,11.1,0.5,16.6c-1.6,0-3.3,0-4.9,0c-0.1-1-0.3-2.1-0.4-3.1c-0.5-13.5-1-27-1.5-40.5
		c0-0.7-0.2-1.4-0.3-2.2c-52.1-0.2-104-0.3-156.2-0.5c0.2,3.1,0.3,5.8,0.4,8.5c0.5,9.5,1,19,1.4,28.5c0.1,3.1,0.1,6.2,0.2,9.2
		C452.3,639.6,450.6,639.6,449,639.6z M515.9,588.3c90.8,0.2,181.6,0.4,272.4,0.7c36.5,0.1,73,0.2,109.4,0.3c2.3,0,4.6-0.3,6.8-0.7
		c2.4-0.5,3.7-2.2,3.8-4.7c0-0.7,0-1.3,0-2c-0.2-78.6-0.5-157.3-0.7-235.9c-0.3-108-0.7-216.1-1-324.1c0-3.7-2.4-6.9-5.8-7.6
		c-2.3-0.5-4.6-0.9-7-0.8c-5.3,0.2-10.6,0.2-15.9,0.3c-20.8,0.2-41.7,0.4-62.5,0.7c-32.6,0.4-65.3,0.9-97.9,1.3
		c-20.7,0.3-41.4,0.4-62,0.7c-32.4,0.4-64.8,0.9-97.2,1.3c-20.8,0.3-41.7,0.4-62.5,0.7c-32.4,0.4-64.8,0.9-97.2,1.3
		c-20.9,0.3-41.8,0.4-62.8,0.7c-32.6,0.4-65.1,0.8-97.7,1.3c-23.2,0.3-46.4,0.6-69.6,0.9c-11.5,0.1-23,0.3-34.4,0.3
		c-1,0-2.2-0.2-3-0.8c-1-0.7-1.9-0.6-2.7-0.1c-1.6,0.9-3,2-2.7,4.2c0.1,1.1,0,2.3,0,3.4c0,180.8,0,361.6-0.1,542.4
		c0,4.4,1.1,8.3,2.5,12.3c1,2.8,1.5,3,4.5,3C260.2,587.6,388.1,588,515.9,588.3z"/>
	<path d="M510.7,59.4c23.3-0.4,44.8-0.7,66.3-1.1c22.1-0.4,44.3-0.9,66.4-1.3c21.5-0.4,43-0.7,64.5-1.1c22.3-0.4,44.6-0.9,66.9-1.3
		c21.3-0.4,42.7-0.7,64-1.1c8.5-0.2,16.9-0.4,25.4-0.5c1.6,0,3.2,0.3,4.8,0.6c3,0.5,6.1,1,9.1,1.5c0.5,0.1,0.9,0.2,1.4,0.3
		c1.5,0.4,2.2,1.4,2.2,2.8c0,0.6,0,1.1,0,1.7c-0.5,30-1,60.1-1.5,90.1c-0.5,28-1,56-1.5,84c-0.5,28.1-1,56.2-1.5,84.2
		c-0.5,28.1-1,56.2-1.5,84.2c-0.7,37.4-1.3,74.9-2,112.3c-0.1,6.5-0.2,13-0.4,19.5c-0.1,5.1-4,9.5-9,10.3c-0.6,0.1-1.3,0.2-1.9,0.1
		c-4.1-1.1-8.3-0.7-12.4-0.7c-52.3-0.5-104.7-0.9-157-1.3c-31.4-0.3-62.8-0.5-94.3-0.8c-46.1-0.4-92.2-0.9-138.2-1.3
		c-28.9-0.3-57.8-0.4-86.7-0.7c-45.8-0.4-91.5-0.8-137.3-1.3c-21-0.2-42-0.3-63-0.5c-3.9,0-7.8-0.2-11.7-0.4c-0.9,0-1.8-0.3-2.6-0.6
		c-2.1-0.7-3.1-2.1-3.1-4.4c0-8.7-0.2-17.4-0.2-26.1c-0.4-66-0.8-132-1.2-198c-0.5-70.2-1-140.3-1.4-210.5c-0.1-7.3-0.1-14.7-0.2-22
		c0-1.7-0.4-3.4-0.6-5c-0.3-1.6,0.2-3,1.8-3.6c1.7-0.7,3.6-1.3,5.4-1.3c14-0.3,28-0.5,42-0.8c24.9-0.5,49.8-0.9,74.7-1.4
		c21.5-0.4,43-0.7,64.5-1.1c22.4-0.4,44.8-0.9,67.1-1.3c21.2-0.4,42.5-0.7,63.7-1.1C485.3,60,498.9,59.6,510.7,59.4z M876.5,60
		c-1.2-0.3-2.1-0.5-2.9-0.6c-2.4-0.4-4.8-0.8-7.2-1.2c-0.6-0.1-1.1-0.2-1.7-0.2c-8.5,0.1-17.1,0.3-25.6,0.5
		c-21.2,0.4-42.3,0.8-63.5,1.2c-13.8,0.3-27.5,0.4-41.3,0.7c-21.2,0.4-42.5,0.8-63.7,1.2c-13.8,0.3-27.5,0.4-41.3,0.7
		c-20.9,0.4-41.8,0.8-62.8,1.2c-14,0.3-28,0.5-42,0.7c-21.2,0.4-42.3,0.8-63.5,1.2c-13.8,0.3-27.5,0.4-41.3,0.7
		c-21.2,0.4-42.5,0.8-63.7,1.2c-13.6,0.3-27.2,0.4-40.8,0.7c-29,0.6-58,1.2-86.9,1.7c-22.7,0.4-45.4,0.8-68.1,1.2
		c-0.5,0-1.1,0.1-1.8,0.2c0,1,0,1.9,0,2.8c0.2,29.3,0.3,58.6,0.5,87.9c0.4,65.6,0.9,131.2,1.4,196.8c0.3,46.1,0.6,92.1,0.9,138.2
		c0.1,10.7,0.1,21.5,0.1,32.2c0,1,0.1,2,0.2,3.3c46.4,0.9,92.6,0.8,138.6,1.5c1.2-1.6,1.7-3.2,1.7-4.9c0.1-1.2,0.2-2.4,0.4-3.6
		c0.6-3.6,1.4-7.2,1.9-10.8c0.3-1.9,0-3.8,0-5.9c-1,0-1.8-0.1-2.6-0.1c-3.3,0-6.5,0-9.8,0c-0.9,0-1.8-0.1-2.6-0.3
		c-3.3-0.7-6.5-1.5-9.8-2.2c-9-1.9-17.4-5.3-25-10.6c-2.4-1.7-4.8-3.4-7.2-5c-4.2-2.8-8-6.1-11.2-10.1c-0.4-0.5-0.8-1-1.1-1.6
		c-1-1.9-1.9-3.9-3-5.9c-2.8-5-5.6-9.9-7.4-15.4c-3-8.8-3.9-17.7-0.8-26.8c0.9-2.6,1.3-5.4,2-8c0.1-0.5,0.2-0.9,0.4-1.4
		c0.5-1.3,1.2-2.5,1.7-3.8c1.7-4.7,4.1-9.1,7.3-12.9c3.4-4.1,7.1-8.1,10.6-12.1c2.7-3,5.7-5.6,9-7.8c6.3-4.1,12.7-8.3,19-12.4
		c6.2-4,12.7-7.2,19.6-9.9c5-2,10.2-3.2,15.7-3c7.1,0.3,14.2,0.3,21.2,0.6c2.6,0.1,5.2,0.2,7.8,0.5c9.4,0.9,18.1,3.9,26.1,8.9
		c2.4,1.5,4.6,3.3,6.4,5.6c2.2,3,2.3,6.2,0.4,9.4c-0.9,1.5-2,3-3,4.5c0.8,2.9,1.4,6,2.4,8.9c2.4,7.3,5,14.6,7.5,21.9
		c0.4,1.3,1,2.6,1.2,4c0.8,5.3,1.4,10.6,2.2,15.9c0.6,4,0.2,8.1,1.7,12c0.2,0.4,0.1,1,0,1.5c-0.1,2-0.1,4.1-0.3,6.1
		c-0.5,5.1-1.5,10-3.8,14.6c-1.7,3.5-3.7,6.9-5.7,10.3c-2,3.5-4.6,6.6-7.8,9c-6.6,5.2-13.5,9.9-21.6,12.6c-2.8,0.9-5.5,1.9-8.4,3
		c0,0.7,0,1.4,0,2.1c0.1,4.5,0.2,8.9,0.4,13.4c0.1,2,0.4,4,0.7,6c0.5,3.3,1.9,4.1,4.9,4.1c25.4,0.1,50.8,0.4,76.2,0.6
		c17.5,0.2,35,0.3,52.5,0.5c0.9,0,1.9,0,2.8,0c0.1-1.9,0.1-3.5,0.3-5c1.1-7.9,3.2-15.4,6.6-22.6c4-8.5,10.3-15.2,17.5-21
		c0.8-0.6,1.6-1.1,2.5-1.6c1.9-1,3.8-2,5.4-2.9c0-3.6-0.1-7,0-10.4c0.2-3.4,0.6-6.7,0.9-10.1c-0.9-0.3-1.6-0.5-2.3-0.7
		c-6.8-2.1-13.5-4.2-20.3-6.3c-0.5-0.1-0.9-0.3-1.3-0.6c-1.8-1.1-3.6-2.2-5.3-3.5c-1.8-1.3-3.6-2.6-5-4.2c-2.5-2.8-4.8-5.8-7.1-8.7
		c-0.4-0.4-0.6-1-0.9-1.5c-0.9-1.5-1.7-3-2.6-4.4c-2.9-4.3-5.7-8.6-7.6-13.6c-2.4-6.1-3.4-12.4-3.5-18.8
		c-0.2-10.1,1.1-20.1,3.9-29.9c1.2-4,3.2-7.7,5.5-11.1c3.7-5.4,7.9-10.4,12.5-15c4.5-4.5,9.2-9,14.9-12.1c2.8-1.5,5.5-3.1,8.4-4.4
		c3.4-1.6,6.8-3.1,10.4-4.2c12.7-3.8,25.6-4.3,38.7-2.3c4.7,0.7,9.2,2.1,13.5,4.1c6.6,3.2,11.9,8.2,17.4,12.9
		c3.6,3.1,6.8,6.5,9.4,10.5c2.7,4.1,5.6,8,8.3,12c0.3,0.4,0.5,0.9,0.6,1.3c1.5,4.5,3.2,9,3.7,13.8c1.1,10,3.3,19.9,2.1,30.1
		c-0.4,3.7-0.8,7.3-2.1,10.7c-1.4,3.5-2.9,6.9-4.5,10.3c-2.9,6.1-6.6,11.6-12.2,15.6c-0.6,0.4-1.2,0.9-1.7,1.4
		c-6.1,5.8-13.6,9.1-21.3,12c-2,0.8-4,1.7-5.9,2.5c-0.6,4-0.6,20.6,0,22.3c1.9,0,3.6-0.1,5.4,0c3.3,0.3,6,1.6,7.7,4.7
		c4.5,8,9.1,16,13.6,24c1.3,2.4,2.5,4.9,3.4,7.5c1.8,4.7,2.1,9.7,2.5,14.6c0.1,1.7,0.3,3.3,0.4,5.1c25.5,0.2,50.7,0.5,75.8,0.7
		c2.5-5.2,5.8-9.3,10.4-12.2c7.1-4.5,14.5-8.5,22.5-10.9c1-0.3,1.5-0.7,1.7-1.7c0.3-1.8,0.9-3.5,1.2-5.2c0.2-0.9,0.2-1.7,0.2-2.5
		c-5.7-2.3-12.5-8.8-16.4-13.4c-3.3-4-5.8-8.4-8.3-12.9c-2.7-4.6-4.2-9.5-5.3-14.6c-1.5-6.9-1.8-13.9-1.7-20.9c0-1,0.2-2.1,0.4-3.1
		c1.5-6.4,2.9-12.8,4.4-19.3c0.6-2.8,1-5.7,2.2-8.2c3.4-7.5,7.9-14.4,14.1-20c1.9-1.7,3.8-3.4,5.7-5c0.6-0.5,1.3-1,2-1.4
		c1.9-1.1,3.9-2.1,5.7-3.2c4.6-2.8,9.3-5.5,14.4-7.2c11.4-3.8,23.1-5.3,35.1-2.9c5.9,1.2,11.7,3.1,16.7,6.7
		c9.1,6.5,18,13.2,26.9,19.9c0.8,0.6,1.7,1.3,2.3,2.2c4.6,6.8,8.4,13.9,9.9,22.1c0.5,2.7,0.6,5.5,1,8.2c1.1,8.4,1.8,16.8,0.7,25.3
		c-0.2,1.2-0.5,2.4-0.5,3.6c0,3.4-0.9,6.5-2.4,9.4c-2.6,4.7-5.2,9.4-8.2,13.9c-2.6,3.8-5.6,7.5-9.5,10.1c-4.4,3-9,5.8-13.7,8.5
		c-5.1,3-10.7,4.7-16.3,6.6c-4,1.3-8,2.2-12.1,2.5c-2,0.2-4.1,0.3-6.2,0.4c-0.9,1.5-1.7,2.9-2.5,4.3c3.7,2.6,7.1,5.3,9.8,8.7
		c3.6,4.4,8.1,7.5,13.3,9.7c1,0.4,1.9,1.1,2.7,1.9c1.2,1.2,2.3,1.8,4.1,1.8c30.6,0.2,61.2,0.5,91.8,0.8c2.3,0,4.5,0.3,6.8,0.4
		c0.5,0,1,0,1.4-0.2c2-1.1,3.5-2.4,3.5-5.1c0.2-16.4,0.5-32.9,0.8-49.3c0.5-24.7,0.9-49.5,1.4-74.2c0.4-22.7,0.7-45.4,1.1-68.1
		c0.6-33.5,1.2-67.1,1.8-100.6c0.5-28,1-56,1.5-84c0.5-31.7,1.1-63.5,1.6-95.2C876.5,61.8,876.5,61,876.5,60z M590.4,368.6
		c-0.2-2.2-3.5-7.3-5-9.3c-2.9-4-6.2-7.7-8.6-12.2c-0.5-1-1.4-1.8-2.1-2.7c-4.1-4.6-9.2-8-14-11.8c-2.8-2.2-5.9-3.7-9.3-4.7
		c-2.2-0.7-4.6-1.1-6.9-1.6c-10.2-2.2-20.4-1.8-30.5,0c-6.7,1.2-13,3.4-18.9,6.9c-3.1,1.8-6.5,3.2-9.3,5.3
		c-8.3,6.4-15.6,13.7-21.4,22.6c-0.2,0.3-0.4,0.7-0.7,1c-2.2,2.7-3.9,5.6-4.7,9c-1.1,4.7-2.3,9.3-3,14.1
		c-1.4,10.9-1.5,21.7,2.7,32.2c1.2,2.9,2.5,5.6,4.2,8.2c1.4,2.1,3.1,4,4.2,6.3c1.8,3.5,4.1,6.5,6.6,9.3c4.1,4.6,9.1,8.3,15,10.2
		c8.7,2.8,17.5,5.1,26.2,7.6c0.7,0.2,1.4,0.3,2.2,0.4c11,1.3,21.3-1.9,31.4-5.5c5.5-1.9,10.7-4.7,16.1-7c3.1-1.3,5.9-3.1,8.5-5.2
		c2.2-1.8,4.3-3.7,6.5-5.5c2.1-1.7,3.9-3.7,5.2-6.1c2.2-4.1,4.4-8.2,6.4-12.3c1.6-3.3,2.5-6.9,2.9-10.5c1.2-9.8-0.6-19.5-1.9-29.1
		c-0.1-0.9-0.6-1.3-1.3-1.8c-2.4-1.4-4.6-3.1-6.8-4.6c-1.8-1.2-3.5-2.7-5.4-3.6c-7.8-3.6-15.5-7.2-22.9-11.4c-1-0.6-2-1.1-3.1-1.5
		c-3.9-1.3-7.4-3.2-11-5.3c-4.8-2.9-10-4.6-15.8-4.1c-2.6,0.2-5.2,0.2-7.8,0.3c-5.2,0.1-10.1,1.6-14.7,3.9
		c-7.3,3.6-13.9,8-19.2,14.4c-0.9,1.1-2,2.2-3.1,3.1c-1,0.8-2.3,0.7-3.1-0.1c-0.9-0.8-1-1.9-0.6-2.9c0.2-0.6,0.7-1.1,1.1-1.6
		c0.9-1,1.8-1.9,2.7-2.8c6.4-7.4,14.5-12.3,23.3-16.2c4.2-1.8,8.7-2.8,13.3-3c3.7-0.1,7.3,0,11-0.2c3.5-0.1,6.8,0.7,10,2
		c2.7,1.1,5.2,2.6,7.8,4c1.3,0.7,2.6,1.4,3.9,2c3.2,1.5,6.4,2.8,9.5,4.3c4,1.9,8,3.9,12,5.9C577.5,361.5,584.7,364.8,590.4,368.6z
		 M363.3,392.1c-1.5,0.8-2.7,1.4-3.9,2c-2.9,1.6-5.8,3.3-8.7,5c-5,2.7-10,5.5-15,8.1c-5.1,2.7-10.2,5.3-15.5,7.7
		c-4.8,2.1-9.8,4-15.3,3.9c-0.4,0-0.8,0.1-1.2,0.2c-5.5,1.6-11.2,3-16.6,4.9c-8.6,2.9-16.3,7-21,15.3c-1.9,3.3-4.7,6-7.5,8.6
		c-4.5,4.1-9.5,5.7-15.5,4.8c-2-0.3-4-0.7-5.7-1.9c-2.9-2-5.7-4-8.6-6c-0.4-0.3-0.9-0.6-1.6-1c0,0.9,0,1.4,0,2
		c0.4,3.5,1,6.9,2.2,10.2c2.2,6.3,5.8,11.8,8.7,17.7c2.1,4.4,5.3,7.8,9.1,10.6c3.3,2.5,6.8,4.8,10.2,7.2c5.7,4.1,11.9,6.9,18.7,8.7
		c4,1.1,8.1,1.9,12.1,2.8c1.5,0.3,3,0.7,4.5,0.8c12.5,0.1,24.9,0,37.4,0c3,0,5.9-0.6,8.8-1.5c7.9-2.4,14.9-6.6,21.4-11.4
		c5.1-3.8,8.6-8.7,11.4-14.9c-2,0.7-3.6,1.4-5.3,1.9c-5,1.7-9.8,4-15.1,4.5c-6.8,0.6-13.7,0.9-20.4-0.1c-8.7-1.4-16.6-4.7-23.6-10
		c-1.4-1-2.8-1.9-4.2-2.9c-0.9-0.7-1.3-1.6-0.9-2.8c0.4-1.1,1.4-1.8,2.7-1.6c0.7,0.1,1.4,0.4,2,0.8c1.2,0.8,2.4,1.6,3.6,2.5
		c6.6,5,14.1,8.2,22.3,9.1c5.3,0.5,10.7,0.2,16.1,0.1c2.3-0.1,4.6-0.4,6.7-1.1c5.4-1.8,10.6-4.2,16.1-5.7c3.2-0.9,4.2-2.7,4.7-5.5
		c0.7-3.5,1.4-7.1,1.1-10.6c-0.5-5.9-1.1-11.8-1.9-17.7c-0.7-4.8-1.2-9.7-2.7-14.3C369.9,412.3,365.7,402.7,363.3,392.1z
		 M700.8,387.6c-2.4,1.6-4.9,3.1-7.1,4.8c-5.4,4.1-10,9.1-13.5,15c-1.8,2.9-3.6,5.8-4.4,9.2c-1.8,8-3.7,16-5.5,24
		c-0.3,1.3-0.4,2.7-0.5,4.1c-0.1,7.1,0.6,14.1,2.4,21c0.6,2.5,1.6,5,2.6,7.3c0.9,2.1,2.2,4,3.3,6c4,7.5,9.6,13.5,16.3,18.5
		c1.6,1.2,3.3,1.9,5.3,2.3c9.9,1.8,19.8,3.6,29.8,5.4c3.6,0.6,7.1,1.4,10.9,1.3c8.3-0.2,15.9-3.1,23.5-6c6.7-2.6,12.4-7.1,18.5-10.8
		c0.8-0.5,1.6-1.2,2.2-1.9c3.6-3.6,6.8-7.4,9.3-11.9c1-1.8,2-3.5,3.1-5.3c2.6-4.2,3.8-8.7,3.4-13.8c-0.9,0-1.8,0-2.6,0
		c-3.1-0.1-6.2-0.2-9.3-0.2c-2.4,0-4.7-0.8-6.6-2.2c-1.6-1.1-3.2-2.3-4.5-3.7c-5.5-5.8-9.5-12.7-13.4-19.7c-0.6-1.1-1.4-2.2-2.3-3.1
		c-7.7-7.1-16.9-11.9-26.5-15.7c-9.1-3.6-17.6-7.9-25.4-13.8c-2.3-1.7-4.3-3.7-5.9-6.1C703,390.8,702,389.3,700.8,387.6z
		 M227.4,437.4c1.5,0.9,2.6,1.6,3.7,2.4c2.5,1.8,4.9,3.8,7.5,5.5c5.1,3.4,10.7,3.2,15.5-0.7c2.1-1.7,4-3.8,5.8-5.8
		c1.6-1.9,3-4.1,4.4-6.1c1.7-2.4,3.7-4.6,6.1-6.2c4.9-3.3,10.1-6,15.7-7.7c5.2-1.5,10.5-3.1,15.7-4.5c1.4-0.4,2.9-0.5,4.3-0.7
		c1.7-0.3,3.4-0.4,5-0.9c7.6-2.3,14.7-5.6,21.6-9.6c3.6-2.1,7.2-4.1,10.8-6.1c5.7-3.1,11.4-6.2,17.1-9.4c2.2-1.2,4.1-2.7,5.3-4.9
		c0.9-1.7,0.8-3.8-0.4-5.2c-0.7-0.8-1.4-1.6-2.3-2.1c-4.3-2.7-8.5-5.4-13.4-6.9c-7-2.1-14.1-3.3-21.4-3.2c-5.3,0-10.6-0.1-15.9-0.5
		c-6-0.4-11.7,0.3-17.2,2.6c-2.7,1.1-5.4,2.4-8,3.6c-7.4,3.4-14.2,7.9-21.1,12.3c-4.7,2.9-9.3,6-13.4,9.7c-6,5.4-11.4,11.4-16,18.1
		c-2.8,4.1-4.4,8.7-6,13.3c-1.2,3.5-2,7.2-3,10.8C227.7,435.9,227.5,436.8,227.4,437.4z M579.5,536.5c-0.2-3.2-0.4-6.1-0.6-9
		c-0.4-4.6-1.3-9.1-3.5-13.1c-4.9-8.8-9.9-17.6-14.9-26.4c-0.8-1.5-2.1-2.4-3.7-2.3c-2.1,0.1-4.3,0.2-6.3,0.7
		c-5.3,1.5-10.6,2.6-16.1,2.4c-1.6-0.1-3.3,0-4.9,0c-4.8,0.1-9.6-0.4-14.3-1.4c-3.5-0.8-7.2-0.5-10.5,1.1c-3.5,1.6-6.6,3.9-9.2,6.7
		c-2.1,2.4-4.4,4.6-6.3,7.2c-1.8,2.4-3.3,5-4.7,7.7c-2.8,5.5-4.3,11.4-5.6,17.4c-0.6,2.6-1,5.2-0.5,8.2
		C512,535.8,545.5,536.1,579.5,536.5z M705.5,385.1c1.9,3,3.3,6,6,8c5.4,4,10.9,8,17.2,10.7c6.4,2.8,12.9,5.4,19.2,8.5
		c6.5,3.2,12.2,7.4,17.7,12c1,0.9,2,2,2.7,3.1c2.1,3.5,4,7.3,6.3,10.7c2.3,3.4,4.9,6.5,7.5,9.6c1.6,1.9,3.7,3.4,6.2,3.5
		c4.2,0.2,8.4,0.1,12.7,0.1c0.1,0,0.3-0.2,0.4-0.3c0-0.3,0.1-0.7,0.2-1.1c0.3-8.4-0.8-16.7-1.9-25c-0.9-7-4.1-13.2-7.9-19
		c-0.9-1.3-2-2.6-3.3-3.5c-7.3-5.5-14.7-10.8-21.9-16.4c-4.1-3.1-8.4-5.6-13.3-7.1c-3.9-1.2-7.9-2.1-11.9-2.4
		c-7.8-0.6-15.4,0.5-22.9,2.7C713.8,380.6,709.6,382.4,705.5,385.1z M511.4,463.4c-1.2,6.2-1.4,12.2-0.7,18c3.3,0.5,6.1,1,9,1.5
		c1,0.2,1.9,0.5,2.9,0.5c5.4,0.1,10.9,0.3,16.3,0.2c2.4-0.1,4.8-0.9,7.2-1.3c0-7.4,0-14.6,0-22.1C534.7,464,523.4,466.6,511.4,463.4
		z M702.1,505.4c-0.5,2.4-1,4.4-1.5,6.5c-1.1,4.1-1.7,8.3-1.5,12.5c0.3,6.1,3.3,10.3,8.6,13.3c1.6-1.1,3.2-2,4.6-3.2
		c2.6-2.2,5-4.6,7.5-7c0.9-0.9,1.9-1.8,2.6-2.9c2.7-3.8,5.4-7.7,8.1-11.6c0.4-0.6,0.8-1.3,1.2-2.2
		C721.8,508.9,712.1,507.2,702.1,505.4z M331.7,534c-0.1-0.7-0.2-1.4-0.3-2c-0.3-2.8-0.6-5.6-0.8-8.5c-0.1-1.9,0-3.9,0-5.9
		c-0.1-2.9-0.4-5.8-0.6-8.8c-6.8,0-13.5,0-20.5,0c0,1,0.1,1.8,0,2.6c-0.5,4-0.9,8.1-1.5,12.1c-0.5,3.4-1.2,6.8-1.9,10.5
		C314.9,534,323.3,534,331.7,534z M693.7,519.5c-0.5,0.2-1.1,0.3-1.6,0.5c-6.8,2.4-13.1,5.8-19,9.8c-2.2,1.5-3.8,3.7-5.7,5.7
		c-0.3,0.4-0.5,0.9-0.9,1.7c10.8,0,21.2,0,31.5,0c-1.2-2.8-2.7-5.5-3.4-8.5C694,525.8,694,522.7,693.7,519.5z M752.2,538
		c0-0.2,0.1-0.3,0.1-0.5c-0.6-0.4-1.3-0.8-1.9-1.2c-3.2-1.9-6.1-4.3-8.6-7.1c-2.3-2.4-4.7-4.7-7.1-7c-0.9-0.9-2-1.4-3.3-1.3
		c-2.1,3-4.1,6.1-6.5,8.8c-2.4,2.7-5.2,5-7.8,7.4c0.1,0.1,0.2,0.3,0.3,0.4C728.9,537.7,740.5,537.9,752.2,538z"/>
	<path d="M546.2,132.5c2.8-2.5,5.3-5,8-7.2c3-2.4,6.3-4.7,9.5-6.8c2.8-1.8,5.3-2.8,10.3-4.2c6.8-1.9,10-1,15.6-0.5
		c4,0.4,7.6,1.3,11.6,2c5,0.8,10.3,4.2,14.9,6.4c0.9,0.4,1.7,0.9,2.5,1.6c8.3,7,14.8,15.1,16.4,26.3c1.1,7.5,2.1,15,1.3,22.6
		c-0.6,5.5-2.1,10.7-5.3,15.5c-4,5.9-8.2,11.8-13.1,17c-5.6,5.9-10.2,12.7-15.1,19.2c-6.2,8.3-12.1,16.7-18.2,25.1
		c-0.8,1.1-1.6,2.2-2.5,3.3c-4.4,5.3-8.8,10.5-13.1,15.8c-1.4,1.7-2.7,3.5-3.9,5.3c-2.4,4-5.4,7.6-8.5,11c-1.4,1.5-3.2,2.7-5,3.9
		c-0.4,0.3-1.3,0.4-1.8,0.1c-1.3-0.8-2.6-1.7-3.6-2.8c-1.1-1.1-1.9-2.4-2.8-3.7c-3.9-5.1-8.2-9.6-13.6-13.1c-3.7-2.5-7-5.6-10.4-8.5
		c-4-3.3-7.8-6.7-11.9-9.7c-9.6-7.3-19.4-14.3-29-21.6c-10.6-8.1-20.3-17.1-27.8-28.3c-3.9-5.8-6.3-12.2-7.5-19.2
		c-0.7-4-1-7.9-1-11.9c-0.1-10.3,2.1-20.4,6.6-29.5c4.7-9.4,11.5-17.3,21.5-21.4c7.6-3.2,15.7-4.7,24-5c2.4-0.1,4.9,0,7.3-0.1
		c7-0.5,13.8,0.9,20.5,2.4c5.8,1.3,10.6,4.5,15,8.2c2.6,2.2,5,4.6,7.6,6.9C545.2,131.8,545.7,132.1,546.2,132.5z M550.9,283.3
		c2.8-3.5,5.9-6.7,8.2-10.3c5.1-8.2,11.4-15.4,17.6-22.8c1.8-2.1,3.4-4.3,5.1-6.6c5.1-7,10.1-14.2,15.4-21.1
		c5.5-7.1,10.7-14.6,17.1-21c5.3-5.4,9.8-11.6,13.8-18c0.8-1.3,1.7-2.7,2-4.1c0.7-3.7,1.4-7.4,1.5-11.1c0.2-6.1-0.7-12.2-2-18.2
		c-1-4.7-2.4-9.2-5.3-13c-5.4-7.2-14.3-14-23.3-16.1c-5.3-1.3-8.7-1.6-14.1-2.3c-4.4-0.5-7.2,0-11.6,0.5c-2.9,0.3-7.4,2.5-9.7,4.1
		c-3.5,2.4-6.9,4.9-10.1,7.6c-3,2.5-5.6,5.4-8.6,8.3c-1.5-0.5-3-1.3-4.3-2.5c-2.9-2.7-5.7-5.4-8.6-8c-3.6-3.1-7.4-6-12-7.3
		c-4.4-1.2-8.9-2.3-13.4-2.5c-9.1-0.5-18.2-0.3-27.2,1.9c-4.4,1.1-9,1.9-12.8,4.6c-7.9,5.7-14.4,12.7-17.3,22.3
		c-1.8,5.9-3.6,11.9-3.8,18.1c-0.1,5,0.1,10.1,0.8,15.1c1,6.4,3.3,12.2,6.9,17.5c7.1,10.4,16.3,18.8,26.2,26.4
		c9.6,7.4,19.5,14.4,29.2,21.7c4.1,3.1,7.9,6.5,11.9,9.7c4.1,3.3,8.2,6.7,12.5,9.8c3,2.2,5.9,4.6,8.3,7.5c2,2.5,4,5,5.9,7.4
		C549.7,281.9,550.2,282.5,550.9,283.3z"/>
	<path d="M526.8,439c-8,0.6-15.5-1.8-23-4.3c-2.5-0.8-5-1.6-7.3-2.8c-5.9-2.9-8.9-7.7-8.9-14.2c0-1.8-0.1-3.6,0-5.4
		c0.1-2.5,2-3.6,4.2-2.4c0.9,0.5,1.8,1,2.8,1.6c5.9,3.4,12.5,4.7,19.1,5.3c5.5,0.5,11,0.5,16.6,0.8c4.6,0.2,9-1,13.4-2.3
		c5.5-1.7,11.1-3.3,16.6-4.8c1-0.3,2.1-0.3,3.1-0.3c2.8,0.2,4.8,2.4,4.7,5.3c-0.2,3.1-0.8,6.1-2.2,8.9c-1.1,2.3-2.8,4.3-5.1,5.4
		c-9.1,4.6-18.3,8.9-28.8,9.3C530.4,439.1,528.6,439,526.8,439z M493,416.7c-0.5,2.8,0.2,5.2,1.8,7.4c1.7,2.3,4.1,3.5,6.6,4.3
		c3.2,1.1,6.5,2.1,9.7,3.2c8.7,2.9,17.6,2.9,26.5,1.6c5.6-0.8,10.7-3.4,15.8-5.5c1.6-0.7,3.2-1.6,4.8-2.4c2.7-1.2,5.1-7.3,4.1-10
		c-0.7,0.1-1.4,0.2-2.1,0.4c-5,1.5-10,2.8-15,4.4c-5.4,1.7-10.8,2.9-16.5,2.7c-4.2-0.2-8.5-0.2-12.7-0.6c-7.6-0.7-15.2-1.7-22.2-5.2
		C493.8,416.8,493.4,416.8,493,416.7z"/>
	<path d="M559.5,378.2c0,3.8-1.6,5.8-5.3,6.4c-0.8,0.1-1.6,0.2-2.4,0.2c-2.5,0-4.3-1.1-4.9-3.5c-0.5-1.9-0.6-3.8-0.7-5.8
		c-0.1-1.5,0.7-2.6,1.8-3.6c1.7-1.5,3.8-2.2,6.1-2.1c2.4,0.1,4.2,1.6,4.8,4.1C559.2,375.3,559.3,376.7,559.5,378.2z"/>
	<path d="M504.2,376.4c0.1,3.4-3,7.6-6.2,8.5c-3,0.9-5.3-0.3-6.3-3.3c-0.9-2.6-0.8-4.9,1.5-6.8c0.6-0.5,1.1-1.2,1.6-1.8
		c1.7-2,3.7-2.6,5.8-1.9C502.6,371.8,504.2,374,504.2,376.4z"/>
	<path d="M359.5,432.4c0,0.2,0,0.3,0,0.3c-1.2,2.4-2.2,4.9-4.5,6.4c-2,1.3-4.8,0-5.6-2.6c-0.5-1.6-0.7-3.3-0.9-5
		c-0.2-2,2.5-5.9,4.4-6.7c1.9-0.8,4.2,0.2,5,2.3c0.6,1.5,1,3.1,1.5,4.6C359.4,432,359.4,432.2,359.5,432.4z"/>
	<path d="M325.1,442.3c0,2.6-1.2,4.7-2.6,6.5c-2.2,2.7-5.4,2.2-6.4-1.1c-1.1-3.4-2-7,1-10c0.5-0.5,0.9-0.9,1.4-1.3
		c2.1-1.4,4.5-0.9,5.5,1.5C324.6,439.3,324.8,440.9,325.1,442.3z"/>
	<path d="M732.7,481.3c-4.2-0.4-8.5-0.8-12.8-1.2c-2.1-0.2-4.3-0.2-6.2-0.9c-2.2-0.8-4.2-2-6.2-3.3c-1.9-1.2-3.6-2.7-5.5-4.1
		c-6.8-5-11-11.9-13.5-19.8c-0.4-1.2-0.4-2.6-0.3-3.8c0.1-1.4,1.2-2.2,2.5-2.2c1.3,0,2.2,0.9,2.5,2.3c1.4,8.6,6,15.1,13,20.1
		c1.6,1.2,3.2,2.4,4.9,3.7c2,1.5,4.1,2.4,6.7,2.6c4.8,0.3,9.5,0.9,14.3,1.3c0.6,0.1,1.3,0.1,1.9,0.3c1.5,0.4,2.3,1.5,2.1,2.8
		c-0.2,1.2-1.2,2-2.6,2.2C733.3,481.3,733,481.3,732.7,481.3z"/>
	<path d="M732.6,449.4c0.3-3.6,3.4-6.5,7-6.3c1.4,0.1,2.4,0.7,2.9,1.9c0.9,2.1,1.1,4.2,0.6,6.4c-0.1,0.3-0.2,0.7-0.4,0.9
		c-1.7,1.2-3.4,2.5-5.2,3.4c-1.3,0.6-2.9-0.4-3.5-1.9C733.3,452.5,733,450.9,732.6,449.4z"/>
	<path d="M696.5,427.8c0-2.7,3.1-6.6,5.7-7.3c1.4-0.4,2.7,0,3.5,1.2c1.4,2.1,2.2,4.4,1.1,6.9c-1,2.2-4,3.8-6.4,3.7
		C698.1,432.2,696.5,430.4,696.5,427.8z"/>
</g>
</svg>
