<svg xmlns="http://www.w3.org/2000/svg" viewBox="0 0 1024 640"><defs><style>.cls-1{fill:#fff;}</style></defs><g id="레이어_2" data-name="레이어 2"><g id="레이어_1-2" data-name="레이어 1"><path class="cls-1" d="M0,0H1024V640H0ZM902.1,599.8c.2-4.1.7-7.8.6-11.4q-.6-31.5-1.4-63c-.7-32.1-1.6-64.2-2.1-96.4-.5-30.6-1.1-61.3-.9-91.9.2-60,.9-120,1.3-180q.4-65.5.5-131c.1-6.7-.3-7-7.1-6.9-32,.5-63.9,1.3-95.9,1.6-90.8.8-181.7,1.3-272.5,2-47.3.4-94.6,1.1-141.9,1.7-39.2.5-78.3,1-117.4,1.7Q196,27.4,126.9,29c-6,.1-9.8,4-9.9,10l-.9,53c-.3,26-.9,52-.9,77.9,0,54.5.5,109,.6,163.4.2,71.6.1,143.1.3,214.6,0,14.1.4,28.3.6,42.4.2,5.4,1.7,6.8,6.9,6.8,3.5.1,7,.3,10.5.3l144.5.4,153,.5c9,.1,9,.1,9.4,9.2s1,20.2,1.5,30.4h9c-.8-10.8-1.4-21.2-2.4-31.6-.7-6.9-.5-7.6,6.4-7.6H586c12.2,0,11.8-1.9,12,11.8.2,9.1.7,18.2,1.1,27.3h8.7c0-2,.1-3.8,0-5.6-.5-8.6-1.2-17.3-1.6-25.9s-.3-7.5,7.2-7.4l280.5,1.1Z"/><path d="M902.1,599.8l-8.2.3L613.4,599c-7.5-.1-7.6,0-7.2,7.4s1.1,17.3,1.6,25.9c.1,1.8,0,3.6,0,5.6h-8.7c-.4-9.1-.9-18.2-1.1-27.3-.2-13.7.2-11.8-12-11.8H455.5c-6.9,0-7.1.7-6.4,7.6,1,10.4,1.6,20.8,2.4,31.6h-9c-.5-10.2-1.1-20.3-1.5-30.4s-.4-9.1-9.4-9.2l-153-.5-144.5-.4c-3.5,0-7-.2-10.5-.3-5.2,0-6.7-1.4-6.9-6.8-.2-14.1-.6-28.3-.6-42.4-.2-71.5-.1-143-.3-214.6-.1-54.4-.6-108.9-.6-163.4,0-25.9.6-51.9.9-77.9l.9-53c.1-6,3.9-9.9,9.9-10q69.2-1.5,138.4-2.8c39.1-.7,78.2-1.2,117.4-1.7,47.3-.6,94.6-1.3,141.9-1.7,90.8-.7,181.7-1.2,272.5-2,32-.3,63.9-1.1,95.9-1.6,6.8-.1,7.2.2,7.1,6.9q-.1,65.6-.5,131c-.4,60-1.1,120-1.3,180-.2,30.6.4,61.3.9,91.9.5,32.2,1.4,64.3,2.1,96.4q.8,31.5,1.4,63C902.8,592,902.3,595.7,902.1,599.8ZM528,588.8v1.6H879c15.8,0,14.7,3.1,14.3-14.8-.8-43.3-2-86.5-3-129.8-.4-15.5-.6-31-.8-46.5-.3-33.5-.9-67-.8-100.5.1-43.3.8-86.6,1.3-129.9.3-18.7.8-37.3.9-56,.2-25.8.1-51.6.2-77.5,0-3.8-1.3-5.5-5.2-5.3-8.3.3-16.7.6-25,.7-31,.4-61.9.9-92.9,1l-162.5.6q-103.9.6-207.9,1.5-59.9.6-119.5,1.8c-32.6.5-65.1,1.4-97.7,2.1L133,38.9c-4.5.1-6.9,1.5-6.9,6.8-.2,38.7-.8,77.3-1.1,116s-.1,76.7-.1,115q.1,140.3.4,280.5c0,8.2-.2,16.4.5,24.5.5,6.5,1.8,7.2,8.3,7.1,12.3-.1,24.7-.6,37-.5l125,.5Q412.1,589,528,588.8Z"/><path class="cls-1" d="M528,588.8q-116,0-231.9,0l-125-.5c-12.3-.1-24.7.4-37,.5-6.5.1-7.8-.6-8.3-7.1-.7-8.1-.5-16.3-.5-24.5q-.1-140.3-.4-280.5c0-38.3-.1-76.7.1-115s.9-77.3,1.1-116c0-5.3,2.4-6.7,6.9-6.8l47.4-1.2c32.6-.7,65.1-1.6,97.7-2.1q59.7-1.2,119.5-1.8,103.9-1,207.9-1.5L768,31.7c31-.1,61.9-.6,92.9-1,8.3-.1,16.7-.4,25-.7,3.9-.2,5.2,1.5,5.2,5.3-.1,25.9,0,51.7-.2,77.5-.1,18.7-.6,37.3-.9,56-.5,43.3-1.2,86.6-1.3,129.9-.1,33.5.5,67,.8,100.5.2,15.5.4,31,.8,46.5,1,43.3,2.2,86.5,3,129.8.4,17.9,1.5,14.8-14.3,14.8H528Zm266.2-37.5v.6h58c1.5,0,3-.3,4.5-.4s3.7-1.4,3.5-4.1c-.4-4.8-.9-9.7-.9-14.5.2-35.6.3-71.3.7-106.9.3-22.5,1-45,1.8-67.4q1.2-40.8,2.9-81.4c1.3-31.4,2.8-62.8,4.1-94.2.6-13.7,1.1-27.3,1.6-41,.9-23.2,1.7-46.5,2.8-69.8.1-4.2-1.8-6.2-5.5-6.8a33.9,33.9,0,0,0-5.5-.4c-48.6.7-97.3,1.5-145.9,1.9-54.2.5-108.3.6-162.5,1.1-41.1.3-82.2,1-123.4,1.7-37.4.7-74.9,1.3-112.3,2.4-32,.9-63.9,2.7-95.8,3.7-21.6.7-43.3.8-64.9,1.1-6.2.1-7.6,1.5-7.6,7.1.3,72.7.3,145.4.9,218.1.3,36.4,1.5,72.9,2.2,109.3q.6,27.8.9,55.5c.1,20.8.1,41.7,0,62.5a15,15,0,0,1-1.1,6.3c-1.9,4-.5,6,3.5,6.7a40.3,40.3,0,0,0,5.9.5c36.5.3,73,.4,109.5.8q88.5.9,176.9,2.2,66.5.9,132.9,2.2c33.8.6,67.6,1.3,101.4,1.8C719.9,550.5,757.1,550.8,794.2,551.3Z"/><path d="M794.2,551.3c-37.1-.5-74.3-.8-111.4-1.4-33.8-.5-67.6-1.2-101.4-1.8q-66.4-1.2-132.9-2.2-88.3-1.2-176.9-2.2c-36.5-.4-73-.5-109.5-.8a40.3,40.3,0,0,1-5.9-.5c-4-.7-5.4-2.7-3.5-6.7a15,15,0,0,0,1.1-6.3c.1-20.8.1-41.7,0-62.5q-.3-27.7-.9-55.5c-.7-36.4-1.9-72.9-2.2-109.3-.6-72.7-.6-145.4-.9-218.1,0-5.6,1.4-7,7.6-7.1,21.6-.3,43.3-.4,64.9-1.1,31.9-1,63.8-2.8,95.8-3.7,37.4-1.1,74.9-1.7,112.3-2.4,41.2-.7,82.3-1.4,123.4-1.7,54.2-.5,108.3-.6,162.5-1.1,48.6-.4,97.3-1.2,145.9-1.9a33.9,33.9,0,0,1,5.5.4c3.7.6,5.6,2.6,5.5,6.8-1.1,23.3-1.9,46.6-2.8,69.8-.5,13.7-1,27.3-1.6,41-1.3,31.4-2.8,62.8-4.1,94.2q-1.7,40.7-2.9,81.4c-.8,22.4-1.5,44.9-1.8,67.4-.4,35.6-.5,71.3-.7,106.9,0,4.8.5,9.7.9,14.5.2,2.7-.9,4-3.5,4.1s-3,.4-4.5.4h-58ZM161.9,435h.4v89.5c0,9.4.4,9.8,9.9,9.8,32.8.1,65.7,0,98.5.2,5,0,9.4-.3,13.3-4,2.2-2.1,5.6-2.8,8.2-4.6a7.4,7.4,0,0,0,3-4.4c.7-5.6-3.6-5.5-7.2-5.7-24.2-.8-42.7-13.1-55.3-32s-15.9-39.6-7.7-61.6a69.5,69.5,0,0,1,21.1-29.7c7.6-6.3,16.7-10.7,25.3-15.6a87.3,87.3,0,0,1,43-11.5c15.3-.2,29.5,2.7,42.6,11.2s12.2,7.9,10.2,22a15.1,15.1,0,0,0,.9,6.3c3.4,12.3,8.1,24.4,10.2,36.9,4.1,24.7-1,46.8-23.2,61.8-5.9,4-13,6.4-19.5,9.6-1.2.6-2.9,1.6-3,2.6s1.3,2.6,2.4,3.3a134.8,134.8,0,0,0,13.1,8c9.5,5,18.9,10,30.5,9.2,9.5-.7,19.2.1,28.9.2l54.9,1.1c2.9.1,4.7-1,5.3-4,2.4-13.7,6.4-26.9,13.8-38.8,1.6-2.6,4.5-4.4,6.6-6.8a17.4,17.4,0,0,0,3.8-5.6c.7-2,.4-4.3.3-6.4,0-7.5-.7-7.2-7.6-10s-13.2-6.1-18-11-10.9-13.7-15.4-21.1c-7.3-11.9-11.1-24.9-9.4-39.1,1-8.8,4.8-16.4,8.5-24.2a82,82,0,0,1,28.8-33.1c15.6-10.3,33.1-14.7,51.9-11.4,17,3,31.5,10.5,42.6,23.7s15.8,25.3,18.4,40.4,2.2,29.8-5.3,43.3-19.7,24-35,29.7c-1.2.5-3.2,1.6-3.3,2.5-.2,5.9-1.5,12,3.2,17.1s8.5,8.2,11.3,13.2c6.8,12.3,13.4,24.9,16.4,38.9.4,1.7,3.3,3.8,5.2,3.9,19.6.7,39.3,1.2,58.9,1.3,2.8,0,6.9-1.3,8.3-3.4,4.3-6.6,11.1-10,17.2-14,4.4-2.9,9.6-4.5,14.3-6.8a41,41,0,0,0,4.1-2.2c-.9-1.4-1.5-3.2-2.7-4.2-8.1-6.6-16-13-21.2-22.7a75.3,75.3,0,0,1-8.9-41.7c1.2-16.3,8.1-30.2,17.5-43.3s22.2-19.7,36.3-23.2c15.6-4,31.7-3.2,46.9,5,12.4,6.7,23.4,14.9,30.3,26.7,11.9,19.9,15.5,41.3,7.6,64.2-7,20.1-20.3,33-40.6,38.7-5.4,1.5-11.1,2.1-16.7,2.9-4,.5-5.7,2.9-3.6,6.1A121,121,0,0,0,744.1,538a11.9,11.9,0,0,0,7.7,3.4c29.3.5,58.6.7,87.9.9,11.1.1,10.5,1.3,10.6-10.4.2-48.7,0-97.4,1-146,.7-37,2.8-73.9,4.3-110.8q2.7-65.1,5.5-130.2,1.4-32,3-63.9c.2-4.8-1.5-6.4-6.4-6.3-18.4.5-36.9.7-55.4.9l-68.5.9c-56.1.3-112.3.4-168.5.8q-75,.5-149.9,1.4c-31,.5-61.9,1.4-92.9,2.3l-78.8,2.6q-39.4,1.2-78.9,2c-4.4.1-5.9,1.6-5.9,5.9.4,62.7.4,125.4.9,188.1C160.2,331.4,161.2,383.2,161.9,435Zm413-64.1c-1.8-8.4-3-11-13-20.7-13.8-13.5-30.8-17.8-49.4-16.5-16,1.1-28.4,10.2-40.2,20.3-4.9,4.2-7.9,9.5-10.4,15.4-1.5,3.5-5.7,6.1-6.6,9.6a221.2,221.2,0,0,0-4.8,26.8c-.9,6.4,2.2,11.9,4.7,17.5,8.5,19.5,21.4,33.9,43.2,38.2,13.4,2.6,26.8,3.8,39.8-1.4,6.2-2.6,12.1-5.9,18.2-9.1,15-7.7,24.7-19.7,27.6-36.5,2.3-12.7.1-24.3-9.9-33.3-6.9-6.2-14.1-12-21.4-17.9-3.3-2.6-6.7-5.9-10.6-7a74.7,74.7,0,0,0-20.4-3.1c-15.7,0-29.9,4.5-40.5,16.9-2.9,3.4-5.5,7.2-10.7,3.4-.4-.3-1.4.1-2.2.2l-1.1-1.4a67.7,67.7,0,0,1,5.9-6.1c1.6-1.3,3.8-1.9,5.7-2.9,7.3-4.1,14.3-9,22.1-12.2,13.9-5.7,28.4-6.5,42.1.4C554.2,357.2,564.5,364.5,574.9,370.9ZM299,468.3c3,1.6,5.6,2.4,7.6,4,12.9,10.1,43.5,13,59.8-1a14.3,14.3,0,0,0,4.4-8.9c2.1-19-3.5-36.6-10.6-53.7-2-4.9-3.3-5.1-7.9-2.2-2,1.2-3.8,2.7-5.8,3.8-18.3,9.7-37.1,17.8-58.1,19.7-7.7.7-15.2,2.9-20.6,9.1a159.4,159.4,0,0,0-9.8,13.1c-4.4,6.4-14.6,10.4-22.1,8.4-3.3-.8-5,.6-4,3.9a48.8,48.8,0,0,0,3.6,8.1c4.9,8.4,10.6,16.1,18.8,21.6,4.3,2.8,8.2,6.8,12.9,8.3,14.3,4.7,28.8,9.6,44.3,7.4,18.2-2.6,36.2-5.6,48-22.5-8.4,0-16.5-.3-24.6.1-12.2.6-22.7-3.4-32.1-10.7C300.5,475,297.7,473,299,468.3ZM662.4,452c.8,4.7,1.3,9.5,2.6,14.1,5.3,20,16,35.3,37.2,40.8,24.6,6.3,47.6,3.1,68.2-12.8,9-7.1,13.7-16.9,17.1-27.4,1.5-4.7.3-6.2-4.5-5.3-10.9,2.2-17.2-2.3-21.9-12.2-3.5-7.1-8.3-14.7-14.5-19.3-8.6-6.3-19-10.1-28.8-14.7s-16.9-10.5-24.4-17.3c-1.1-1-4.4-1.5-5.1-.7a185.5,185.5,0,0,0-13.2,15.9C666.6,424.5,663,437.6,662.4,452ZM230,437.8c-.3,7.5,8.7,16.5,14.1,16.2h1c5-3.1,10.4-5.6,12.2-12.2,1-3.5,2.4-8,5-9.6a116.5,116.5,0,0,1,21.6-9.8c4.8-1.7,10.2-1.4,15.2-2.5,19-4.1,36.4-12.3,53.1-22,8.6-5,8.3-10.4-.2-15.4-17.6-10.3-36.5-10.9-55.4-6-16.3,4.2-31.4,11.3-44.6,22.4S232.1,423.3,230,437.8Zm495.7-53.5c-7.5,1.6-14.9,3.1-22.3,4.8-2.7.6-4.4,2.6-2.3,5s6.6,7.6,10.6,10.4,10.8,5.9,16.1,8.9c9.6,5.3,20.8,8,28.4,16.8a46.8,46.8,0,0,1,4.8,6.2c3,4.8,5.5,9.8,8.7,14.5a11.9,11.9,0,0,0,5.8,4.3c11.5,3.7,15.8-.2,13.4-12-3.4-16.6-9.9-31.1-23.8-42.3C753.4,391.4,741.1,385.1,725.7,384.3ZM533.2,539v.3h8.9c5.8-.1,6.6-.9,5.4-6.4-1.8-8.4-3.5-16.9-6.2-25-1.3-4.2-4.3-8.1-7.4-11.4-1.3-1.3-4.8-.4-7.3-.6l-1.5-.3c-5.9-1-9.9,2.2-9.6,8.2.7,10.4,1.8,20.8,2.7,31.2.2,2.7,1.5,4.2,4.5,4.1S529.7,539,533.2,539Zm29.3.5c8.1,0,8.8-.6,7.9-5.3-3.4-16.6-12-30.7-22-44-2-2.8-4.3-3.6-7.1-1.3s-1.8,4.3-.2,6.8c2.8,4.3,5.7,8.7,7.4,13.5a250.4,250.4,0,0,1,7,24.3C556.6,538,558.3,540.6,562.5,539.5Zm-62.2-1.3c8,.1,8.9-.8,8.3-8.9-.3-4.4-.8-8.9-.9-13.3s.1-11.8.1-17.7c.1-3.3-1.3-5.6-4.7-5.9s-3.9,2-4.2,4.8c-1.4,11-3.1,22-4.7,33C493,538.1,492.9,538.1,500.3,538.2Zm18-65.8c-3.6-.3-5.9-.7-8.2-.5s-3.4,1-3.6,1.8a49.1,49.1,0,0,0-.7,10.8c.1.9,2.2,2.3,3.6,2.5a105.4,105.4,0,0,0,11.3,1c12.9.8,13.5,0,12.5-12.8-.3-3.4-1.8-4.3-4.8-3.9ZM483,537.9c4.2.9,5.9-1.4,6.3-5.7.8-9.4,1.9-18.8,2.7-28.2.1-1.2-1.1-3.5-1.7-3.5s-3.5.7-4,1.8c-4.4,8.9-9.1,17.6-10.2,27.8C475.4,536.8,476,537.8,483,537.9Zm206.5-15.5c.2,3.5.6,7.5.9,11.5a4,4,0,0,0,.3,1.9c.7,1.2,1.3,3,2.3,3.3s2.8-.6,3.9-1.5a92.9,92.9,0,0,0,7.8-7.6,58.5,58.5,0,0,0,5.4-6.9c1.8-2.9,1-5.3-2.3-6.2s-9-2.4-13.5-3.4c-3-.6-4.9.6-4.8,3.9Zm-373.2,12c8.2.1,10.5-2.8,8.2-10.9-.5-2-2.2-4.6-3.9-5.2a15,15,0,0,0-8.4.2c-5.3,1.6-1.5,7.1-3.6,10.3-.7,1.1.3,3.4.9,5s1.5.6,2.3.6S314.8,534.4,316.3,534.4Zm405.9,7.7v.2c2.5,0,5,.1,7.5,0s4.4-1.9,2.6-4.6a67.1,67.1,0,0,0-7.8-9.8c-.7-.8-3.6-.8-4.4-.1a96,96,0,0,0-7.9,9c-2.2,2.9-1.2,5,2.5,5.2S719.7,542.1,722.2,542.1Zm-49.7-1v.2c2,0,4.1.4,6-.1s2.9-1.8,3.1-3c1-7-4.1-11-10.7-8.1a20,20,0,0,0-6.2,4.7c-.9,1.1-1.6,3.3-1.2,4.4s2.6,1.5,4,1.8A28,28,0,0,0,672.5,541.1Zm-328.9-6.6c-1-1.6-2-3.8-3.6-5.4s-3.6-.7-3.8-.2a10.6,10.6,0,0,0-1,5.5c0,.7,2,1.8,3,1.7A33.9,33.9,0,0,0,343.6,534.5Z"/><path class="cls-1" d="M161.9,435c-.7-51.8-1.7-103.6-2.1-155.4-.5-62.7-.5-125.4-.9-188.1,0-4.3,1.5-5.8,5.9-5.9q39.4-.7,78.9-2L322.5,81c31-.9,61.9-1.8,92.9-2.3q75-1,149.9-1.4c56.2-.4,112.4-.5,168.5-.8l68.5-.9c18.5-.2,37-.4,55.4-.9,4.9-.1,6.6,1.5,6.4,6.3q-1.6,31.9-3,63.9-2.7,65.1-5.5,130.2c-1.5,36.9-3.6,73.8-4.3,110.8-1,48.6-.8,97.3-1,146-.1,11.7.5,10.5-10.6,10.4-29.3-.2-58.6-.4-87.9-.9a11.9,11.9,0,0,1-7.7-3.4,121,121,0,0,1-11.9-15.8c-2.1-3.2-.4-5.6,3.6-6.1,5.6-.8,11.3-1.4,16.7-2.9,20.3-5.7,33.6-18.6,40.6-38.7,7.9-22.9,4.3-44.3-7.6-64.2-6.9-11.8-17.9-20-30.3-26.7-15.2-8.2-31.3-9-46.9-5-14.1,3.5-27.2,10.6-36.3,23.2s-16.3,27-17.5,43.3a75.3,75.3,0,0,0,8.9,41.7c5.2,9.7,13.1,16.1,21.2,22.7,1.2,1,1.8,2.8,2.7,4.2a41,41,0,0,1-4.1,2.2c-4.7,2.3-9.9,3.9-14.3,6.8-6.1,4-12.9,7.4-17.2,14-1.4,2.1-5.5,3.4-8.3,3.4-19.6-.1-39.3-.6-58.9-1.3-1.9-.1-4.8-2.2-5.2-3.9-3-14-9.6-26.6-16.4-38.9-2.8-5-7.3-9-11.3-13.2s-3.4-11.2-3.2-17.1c.1-.9,2.1-2,3.3-2.5,15.3-5.7,27.2-15.7,35-29.7s7.8-28.4,5.3-43.3-8.4-28.7-18.4-40.4S548,329.1,531,326.1c-18.8-3.3-36.3,1.1-51.9,11.4a82,82,0,0,0-28.8,33.1c-3.7,7.8-7.5,15.4-8.5,24.2-1.7,14.2,2.1,27.2,9.4,39.1,4.5,7.4,9.3,15,15.4,21.1s11.5,8.4,18,11,7.6,2.5,7.6,10c.1,2.1.4,4.4-.3,6.4a17.4,17.4,0,0,1-3.8,5.6c-2.1,2.4-5,4.2-6.6,6.8-7.4,11.9-11.4,25.1-13.8,38.8-.6,3-2.4,4.1-5.3,4l-54.9-1.1c-9.7-.1-19.4-.9-28.9-.2-11.6.8-21-4.2-30.5-9.2a134.8,134.8,0,0,1-13.1-8c-1.1-.7-2.4-2.3-2.4-3.3s1.8-2,3-2.6c6.5-3.2,13.6-5.6,19.5-9.6,22.2-15,27.3-37.1,23.2-61.8-2.1-12.5-6.8-24.6-10.2-36.9a15.1,15.1,0,0,1-.9-6.3c2-14.1,1.5-14.3-10.2-22s-27.3-11.4-42.6-11.2a87.3,87.3,0,0,0-43,11.5c-8.6,4.9-17.7,9.3-25.3,15.6A69.5,69.5,0,0,0,225,422.2c-8.2,22-4.6,43.3,7.7,61.6s31.1,31.2,55.3,32c3.6.2,7.9.1,7.2,5.7a7.4,7.4,0,0,1-3,4.4c-2.6,1.8-6,2.5-8.2,4.6-3.9,3.7-8.3,4-13.3,4-32.8-.2-65.7-.1-98.5-.2-9.5,0-9.9-.4-9.9-9.8V435ZM503.6,123.5h-6c-16.7.4-31.9,5.4-43.3,17.6a56,56,0,0,0-15,31.9c-2.5,21.5,2.1,41.6,13.8,59,9.9,14.8,23.1,27.6,40.9,33.7a91.7,91.7,0,0,0,21.1,5.2c19.8,1.9,37-5.2,52.9-16.5a171.9,171.9,0,0,0,50.7-56.6c7.2-12.9,10.2-26.2,8.2-40.8-1.6-11.9-6.3-22.8-15.6-30.3-11-8.9-24.2-11.3-38.2-7.5-10.8,2.9-21.2,6.7-29.8,14.3-1.2,1-4.5,1.3-5.6.4C527.7,125.8,515.9,123.7,503.6,123.5Z"/><path class="cls-1" d="M574.9,370.9c-10.4-6.4-20.7-13.7-31.9-19.4-13.7-6.9-28.2-6.1-42.1-.4-7.8,3.2-14.8,8.1-22.1,12.2-1.9,1-4.1,1.6-5.7,2.9a67.7,67.7,0,0,0-5.9,6.1l1.1,1.4c.8-.1,1.8-.5,2.2-.2,5.2,3.8,7.8,0,10.7-3.4,10.6-12.4,24.8-16.9,40.5-16.9a74.7,74.7,0,0,1,20.4,3.1c3.9,1.1,7.3,4.4,10.6,7,7.3,5.9,14.5,11.7,21.4,17.9,10,9,12.2,20.6,9.9,33.3-2.9,16.8-12.6,28.8-27.6,36.5-6.1,3.2-12,6.5-18.2,9.1-13,5.2-26.4,4-39.8,1.4-21.8-4.3-34.7-18.7-43.2-38.2-2.5-5.6-5.6-11.1-4.7-17.5a221.2,221.2,0,0,1,4.8-26.8c.9-3.5,5.1-6.1,6.6-9.6,2.5-5.9,5.5-11.2,10.4-15.4,11.8-10.1,24.2-19.2,40.2-20.3,18.6-1.3,35.6,3,49.4,16.5C571.9,359.9,573.1,362.5,574.9,370.9Zm-54.3,77.7c5.7-1.4,14.4-2.5,22.3-5.7,5.5-2.3,10.6-6.9,14.4-11.6,2.2-2.7,3.2-8.3,2-11.5s-6.7-2.9-10.7-2.1c-15.3,3.1-30.6,4.5-46.1,2.6-5.3-.7-10.5-1.9-15.7-2.6-3-.4-7.1-1.1-7.8,3.1s-.3,10.7,4.1,15.2C492.7,446,505,447.6,520.6,448.6Zm-22.7-62.5c0-4.3-3.5-8.3-7.2-8.2s-6.4,4.1-5.3,7.2,3.3,6.1,5.9,7.6S497.9,389.2,497.9,386.1Zm51-8.2c-3.6,1-7.9.9-9.2,2.9s-.4,6.2.5,9.1c.3.9,4.2,1.7,5.7.9C550.6,388.5,549.3,383.9,548.9,377.9Z"/><path class="cls-1" d="M299,468.3c-1.3,4.7,1.5,6.7,3.8,8.5,9.4,7.3,19.9,11.3,32.1,10.7,8.1-.4,16.2-.1,24.6-.1-11.8,16.9-29.8,19.9-48,22.5-15.5,2.2-30-2.7-44.3-7.4-4.7-1.5-8.6-5.5-12.9-8.3-8.2-5.5-13.9-13.2-18.8-21.6a48.8,48.8,0,0,1-3.6-8.1c-1-3.3.7-4.7,4-3.9,7.5,2,17.7-2,22.1-8.4a159.4,159.4,0,0,1,9.8-13.1c5.4-6.2,12.9-8.4,20.6-9.1,21-1.9,39.8-10,58.1-19.7,2-1.1,3.8-2.6,5.8-3.8,4.6-2.9,5.9-2.7,7.9,2.2,7.1,17.1,12.7,34.7,10.6,53.7a14.3,14.3,0,0,1-4.4,8.9c-16.3,14-46.9,11.1-59.8,1C304.6,470.7,302,469.9,299,468.3Zm53-10c4-.2,6.4-2.5,6.6-6.1s-2.3-5.7-5.9-6a6.1,6.1,0,0,0-6.8,5.7C345.8,456,348.2,457.8,352,458.3Zm-30.4-7.1c.3-5.8-2-7.9-5.5-8.2s-5,2.2-4.9,5.5.7,7,5,6.5C318.5,454.7,320.4,452.1,321.6,451.2Z"/><path class="cls-1" d="M662.4,452c.6-14.4,4.2-27.5,12.7-38.9a185.5,185.5,0,0,1,13.2-15.9c.7-.8,4-.3,5.1.7,7.5,6.8,15.2,13,24.4,17.3s20.2,8.4,28.8,14.7c6.2,4.6,11,12.2,14.5,19.3,4.7,9.9,11,14.4,21.9,12.2,4.8-.9,6,.6,4.5,5.3-3.4,10.5-8.1,20.3-17.1,27.4-20.6,15.9-43.6,19.1-68.2,12.8-21.2-5.5-31.9-20.8-37.2-40.8C663.7,461.5,663.2,456.7,662.4,452Zm62.8,33.1.4-3c-3-1-6-2.7-9.1-3-11.1-1.3-21.5-3.1-26.6-15a111.3,111.3,0,0,0-6.1-11.9c-.7-1.1-2.5-2.5-3.4-2.3a5.9,5.9,0,0,0-3.2,3.2,9.1,9.1,0,0,0,0,4.9c4.3,15.7,20.5,29.2,37,28.4C717.9,486.2,721.5,485.5,725.2,485.1Zm1.1-27.6c4.1-.9,7.2-1,7.1-5s-1.9-4.9-5.1-4.8-6.2.6-5.8,4.4C722.7,454,725,455.7,726.3,457.5Zm-35.6-30.2c-1.7,2.7-3.9,4.9-3.5,5.7s3.1,4.2,5.2,4.8,3.2-2.7,4.8-4.2Z"/><path class="cls-1" d="M230,437.8c2.1-14.5,9.1-28,22-39s28.3-18.2,44.6-22.4c18.9-4.9,37.8-4.3,55.4,6,8.5,5,8.8,10.4.2,15.4-16.7,9.7-34.1,17.9-53.1,22-5,1.1-10.4.8-15.2,2.5a116.5,116.5,0,0,0-21.6,9.8c-2.6,1.6-4,6.1-5,9.6-1.8,6.6-7.2,9.1-12.2,12.2h-1C238.7,454.3,229.7,445.3,230,437.8Z"/><path class="cls-1" d="M725.7,384.3c15.4.8,27.7,7.1,39.4,16.6,13.9,11.2,20.4,25.7,23.8,42.3,2.4,11.8-1.9,15.7-13.4,12a11.9,11.9,0,0,1-5.8-4.3c-3.2-4.7-5.7-9.7-8.7-14.5a46.8,46.8,0,0,0-4.8-6.2c-7.6-8.8-18.8-11.5-28.4-16.8-5.3-3-11.1-5.4-16.1-8.9s-7.4-6.6-10.6-10.4-.4-4.4,2.3-5C710.8,387.4,718.2,385.9,725.7,384.3Z"/><path class="cls-1" d="M533.2,539c-3.5,0-7-.1-10.5.1s-4.3-1.4-4.5-4.1c-.9-10.4-2-20.8-2.7-31.2-.3-6,3.7-9.2,9.6-8.2l1.5.3c2.5.2,6-.7,7.3.6,3.1,3.3,6.1,7.2,7.4,11.4,2.7,8.1,4.4,16.6,6.2,25,1.2,5.5.4,6.3-5.4,6.4h-8.9Z"/><path class="cls-1" d="M562.5,539.5c-4.2,1.1-5.9-1.5-7-6a250.4,250.4,0,0,0-7-24.3c-1.7-4.8-4.6-9.2-7.4-13.5-1.6-2.5-2.6-4.6.2-6.8s5.1-1.5,7.1,1.3c10,13.3,18.6,27.4,22,44C571.3,538.9,570.6,539.5,562.5,539.5Z"/><path class="cls-1" d="M500.3,538.2c-7.4-.1-7.3-.1-6.1-8,1.6-11,3.3-22,4.7-33,.3-2.8.9-5.1,4.2-4.8s4.8,2.6,4.7,5.9c0,5.9-.2,11.8-.1,17.7s.6,8.9.9,13.3C509.2,537.4,508.3,538.3,500.3,538.2Z"/><path class="cls-1" d="M518.3,472.4l10.1-1.1c3-.4,4.5.5,4.8,3.9,1,12.8.4,13.6-12.5,12.8a105.4,105.4,0,0,1-11.3-1c-1.4-.2-3.5-1.6-3.6-2.5a49.1,49.1,0,0,1,.7-10.8c.2-.8,2.3-1.7,3.6-1.8S514.7,472.1,518.3,472.4Z"/><path class="cls-1" d="M483,537.9c-7-.1-7.6-1.1-6.9-7.8,1.1-10.2,5.8-18.9,10.2-27.8.5-1.1,2.7-1.8,4-1.8s1.8,2.3,1.7,3.5c-.8,9.4-1.9,18.8-2.7,28.2C488.9,536.5,487.2,538.8,483,537.9Z"/><path class="cls-1" d="M689.5,522.4v-5c-.1-3.3,1.8-4.5,4.8-3.9,4.5,1,9,2.1,13.5,3.4s4.1,3.3,2.3,6.2a58.5,58.5,0,0,1-5.4,6.9,92.9,92.9,0,0,1-7.8,7.6c-1.1.9-2.8,1.7-3.9,1.5s-1.6-2.1-2.3-3.3a4,4,0,0,1-.3-1.9C690.1,529.9,689.7,525.9,689.5,522.4Z"/><path class="cls-1" d="M316.3,534.4c-1.5,0-3,.1-4.5,0s-2.1-.2-2.3-.6-1.6-3.9-.9-5c2.1-3.2-1.7-8.7,3.6-10.3a15,15,0,0,1,8.4-.2c1.7.6,3.4,3.2,3.9,5.2C326.8,531.6,324.5,534.5,316.3,534.4Z"/><path class="cls-1" d="M722.2,542.1c-2.5,0-5,.1-7.5-.1s-4.7-2.3-2.5-5.2a96,96,0,0,1,7.9-9c.8-.7,3.7-.7,4.4.1a67.1,67.1,0,0,1,7.8,9.8c1.8,2.7.5,4.4-2.6,4.6s-5,0-7.5,0Z"/><path class="cls-1" d="M672.5,541.1a28,28,0,0,1-5-.1c-1.4-.3-3.6-.8-4-1.8s.3-3.3,1.2-4.4a20,20,0,0,1,6.2-4.7c6.6-2.9,11.7,1.1,10.7,8.1-.2,1.2-1.9,2.6-3.1,3s-4,.1-6,.1Z"/><path class="cls-1" d="M343.6,534.5a33.9,33.9,0,0,1-5.4,1.6c-1,.1-3-1-3-1.7a10.6,10.6,0,0,1,1-5.5c.2-.5,3.1-.5,3.8.2S342.6,532.9,343.6,534.5Z"/><path d="M503.6,123.5c12.3.2,24.1,2.3,34.1,10.4,1.1.9,4.4.6,5.6-.4,8.6-7.6,19-11.4,29.8-14.3,14-3.8,27.2-1.4,38.2,7.5,9.3,7.5,14,18.4,15.6,30.3,2,14.6-1,27.9-8.2,40.8A171.9,171.9,0,0,1,568,254.4c-15.9,11.3-33.1,18.4-52.9,16.5a91.7,91.7,0,0,1-21.1-5.2c-17.8-6.1-31-18.9-40.9-33.7-11.7-17.4-16.3-37.5-13.8-59a56,56,0,0,1,15-31.9c11.4-12.2,26.6-17.2,43.3-17.6ZM542,150.4c-5.2-4.6-9.4-9.5-14.7-12.6-9.9-5.9-21.2-6.3-32.4-5.4-14.7,1.1-27.5,6.4-37,18.1-7.4,9.2-10,20-10.5,31.6-.7,19.2,5.8,36.4,17,51.1a75.1,75.1,0,0,0,29.6,23c8.6,3.9,17.4,7,26.8,6.6,19.2-.8,35.5-8.8,49.6-21.4.9-.8,1.9-1.5,2.7-2.3,6.4-6,13.6-11.4,18.9-18.2s12.8-16.2,18.2-25.2c8.7-14.6,11.4-29.5,6.5-45.4-2.4-7.9-6.9-14.9-14.7-19.3s-17.2-5.4-26.4-3.2c-12.5,3-24.3,7.2-31.2,19.4A25.6,25.6,0,0,1,542,150.4Z"/><path d="M520.6,448.6c-15.6-1-27.9-2.6-37.5-12.6-4.4-4.5-4.9-9.8-4.1-15.2s4.8-3.5,7.8-3.1c5.2.7,10.4,1.9,15.7,2.6,15.5,1.9,30.8.5,46.1-2.6,4-.8,9-2,10.7,2.1s.2,8.8-2,11.5c-3.8,4.7-8.9,9.3-14.4,11.6C535,446.1,526.3,447.2,520.6,448.6ZM543,430.8H531l-30.3-1c-2.2,0-4.5.3-7.4.4C502,441.2,526.3,442.3,543,430.8Z"/><path d="M497.9,386.1c0,3.1-4.3,7.9-6.6,6.6s-4.8-4.7-5.9-7.6,2.6-7.1,5.3-7.2S497.9,381.8,497.9,386.1Z"/><path d="M548.9,377.9c.4,6,1.7,10.6-3,12.9-1.5.8-5.4,0-5.7-.9-.9-2.9-1.9-7-.5-9.1S545.3,378.9,548.9,377.9Z"/><path d="M352,458.3c-3.8-.5-6.2-2.3-6.1-6.4a6.1,6.1,0,0,1,6.8-5.7c3.6.3,6.2,2.3,5.9,6S356,458.1,352,458.3Z"/><path d="M321.6,451.2c-1.2.9-3.1,3.5-5.4,3.8-4.3.5-4.8-3.2-5-6.5s1.5-5.7,4.9-5.5S321.9,445.4,321.6,451.2Z"/><path d="M725.2,485.1c-3.7.4-7.3,1.1-11,1.3-16.5.8-32.7-12.7-37-28.4a9.1,9.1,0,0,1,0-4.9,5.9,5.9,0,0,1,3.2-3.2c.9-.2,2.7,1.2,3.4,2.3a111.3,111.3,0,0,1,6.1,11.9c5.1,11.9,15.5,13.7,26.6,15,3.1.3,6.1,2,9.1,3Z"/><path d="M726.3,457.5c-1.3-1.8-3.6-3.5-3.8-5.4-.4-3.8,2.8-4.3,5.8-4.4s5.1,1.6,5.1,4.8S730.4,456.6,726.3,457.5Z"/><path d="M690.7,427.3l6.5,6.3c-1.6,1.5-3.6,4.5-4.8,4.2s-4.1-2.8-5.2-4.8S689,430,690.7,427.3Z"/><path class="cls-1" d="M542,150.4a25.6,25.6,0,0,0,2.4-3.2c6.9-12.2,18.7-16.4,31.2-19.4,9.2-2.2,17.9-1.7,26.4,3.2s12.3,11.4,14.7,19.3c4.9,15.9,2.2,30.8-6.5,45.4-5.4,9-11.8,17.1-18.2,25.2s-12.5,12.2-18.9,18.2c-.8.8-1.8,1.5-2.7,2.3C556.3,254,540,262,520.8,262.8c-9.4.4-18.2-2.7-26.8-6.6a75.1,75.1,0,0,1-29.6-23c-11.2-14.7-17.7-31.9-17-51.1.5-11.6,3.1-22.4,10.5-31.6,9.5-11.7,22.3-17,37-18.1,11.2-.9,22.5-.5,32.4,5.4C532.6,140.9,536.8,145.8,542,150.4Z"/><path class="cls-1" d="M543,430.8c-16.7,11.5-41,10.4-49.7-.6,2.9-.1,5.2-.4,7.4-.4l30.3,1Z"/></g></g></svg>