<?xml version="1.0" encoding="utf-8"?>
<!-- Generator: Adobe Illustrator 25.2.3, SVG Export Plug-In . SVG Version: 6.00 Build 0)  -->
<svg version="1.1" id="레이어_1" xmlns="http://www.w3.org/2000/svg" xmlns:xlink="http://www.w3.org/1999/xlink" x="0px"
	 y="0px" viewBox="0 0 1024 640" style="enable-background:new 0 0 1024 640;" xml:space="preserve">
<style type="text/css">
	.st0{fill:#FFFFFF;}
</style>
<g>
	<g>
		<path d="M609.3,639.8v-0.2c-0.1-0.3-0.1-0.5-0.1-0.8c0-0.3-0.1-0.5-0.1-0.8c0-0.3-0.1-0.5-0.1-0.8c0-0.3-0.1-0.6-0.1-0.8
			l-1.5-40.5c0-0.4-0.1-1-0.2-1.3c0,0,0-0.1,0-0.2c0-0.1-0.1-0.2-0.1-0.3v-0.1l-78.3-0.3c-25.4,0-51.2-0.1-76.1-0.2l-1.2,0l0,0.1
			c0.2,2.9,0.3,5.3,0.4,7.8l0,0.3c0.5,8.5,1,18.5,1.4,28.5c0,0.7,0,1.5,0.1,2.3c0,0.8,0,1.5,0,2.3c0,1.6,0,3.1,0.1,4.6l0,0.3h-5
			l-0.6-12.3c-0.6-11.2-1.2-22.5-1.8-33.9l0-0.1h-3c-54-0.2-108.9-0.3-161.9-0.4l-3.7,0c-51.7-0.1-98.4-0.2-145.6-0.2
			c-4.4,0-7.3-1.9-8.9-5.7c-1.7-4.3-3.3-9-3.3-14.2c0.1-181.4,0.1-365.4,0-546.8c0-5.5,2.6-8.4,7.8-8.6h1.6c0.9-0.1,1.8-0.1,2.3-0.1
			c1.8-0.1,3.4-0.1,5.3-0.1l68-0.9L329.1,15l95.2-1.2c11.3-0.2,22.7-0.3,33.8-0.4l0.3,0c11.1-0.1,22.5-0.2,34-0.4l91.1-1.2
			c11-0.2,22.3-0.3,33.2-0.4c10.9-0.1,22.1-0.2,33.2-0.4l93.5-1.2c11-0.2,22.3-0.3,33.2-0.4c10.9-0.1,22.1-0.2,33.2-0.4
			c14.5-0.1,29.1-0.3,43.2-0.5c14-0.2,28.6-0.4,43-0.5l0.4,0c5.1,0,9.3,1.9,12.6,5.6c1.8,2,2.7,4.3,2.7,7.1
			c0.1,64.3,0.3,128.6,0.5,194.3v1.5l0.1,23.7c0.3,88.7,0.6,180.4,0.9,270.4l-0.1,72.1c0,2.1-0.4,4-1.3,5.7
			c-1.4,2.8-3.8,4.6-6.9,5.2c-2.4,0.4-5.2,0.9-8.1,0.9c-25.9,0-52.4-0.1-77.9-0.2l-1.8,0c-25.4-0.1-51.7-0.2-77.5-0.2l-126.2-0.3
			l0,0.1c-0.1,0.4-0.1,0.8-0.1,1.2v1.3c0.1,4.4,0.3,8.9,0.5,13.2c0.1,2.2,0.2,4.4,0.2,6.6s0.2,4.4,0.2,6.6
			c0.2,4.1,0.4,10.3,0.5,16.6v0.3H609.3z M130.3,23.3c-1.3,0-2.2,0.1-2.7,0.4c-0.9,0.4-1.9,1-1.8,3.2v2.8c0,177.8,0,361.6-0.1,542.6
			c0,4.5,1.2,8.5,2.5,12.2c0.9,2.7,1.3,2.8,4.2,2.8l399.8,0.9c83.9,0.2,170.7,0.4,256,0.7l109.4,0.3c2.1,0,4.2-0.2,6.7-0.7
			c2.3-0.4,3.5-1.9,3.6-4.4v-2c-0.2-39.6-0.3-79.5-0.4-118l-0.3-117.9c-0.1-54.8-0.3-109.8-0.5-162.9c-0.2-52.8-0.4-107.3-0.5-161.2
			c0-3.5-2.4-6.6-5.6-7.3c-1.8-0.4-3.9-0.8-6.2-0.8c-0.2,0-0.5,0-0.8,0c-3.1,0.1-7,0.2-10.6,0.2c-0.9,0-1.8,0-2.7,0.1
			c-0.9,0-1.7,0-2.6,0h-0.6l-4,0c-19,0.2-38.6,0.4-57.9,0.7c-10.9,0.1-22,0.2-32.8,0.4c-5.4,0.1-10.8,0.2-16.2,0.2l-48.9,0.6
			c-10,0.2-20.2,0.3-30.1,0.4l-0.9,0c-5.1,0-10.2,0.1-15.4,0.2c-5.2,0.1-10.4,0.2-15.6,0.2c-10.8,0.1-21.8,0.2-32.4,0.4
			c-5.4,0.1-10.8,0.2-16.2,0.2l-48.6,0.6c-10.1,0.2-20.4,0.3-30.4,0.4l-0.9,0c-6.8,0-13.9,0.1-20.8,0.2c-3.5,0-7,0.1-10.4,0.1
			c-10.8,0.1-21.8,0.2-32.4,0.4c-5.4,0.1-10.8,0.2-16.2,0.2l-48.6,0.6c-10.1,0.2-20.4,0.3-30.4,0.4l-1.1,0c-6.8,0-13.9,0.1-20.7,0.2
			c-3.5,0-7.1,0.1-10.6,0.1l-11.4,0.1c-28.1,0.4-57.2,0.7-86.3,1.2L168.5,23c-1.9,0-3.9,0-5.8,0.1c-1.9,0-3.8,0-5.8,0
			c-7,0.1-15,0.2-22.8,0.2H130.3z"/>
		<path class="st0" d="M896.4,8.1c5,0,9.2,1.9,12.5,5.5c1.8,2,2.6,4.2,2.6,7c0.1,63.7,0.3,128.2,0.5,194.3v1.5l0.1,25.7
			c0.3,88,0.6,179.1,0.9,268.4l-0.1,72.1c0,2.1-0.4,4-1.3,5.7c-1.4,2.8-3.7,4.6-6.8,5.2c-2.4,0.4-5.2,0.9-8.1,0.9
			c-26.2,0-52.9-0.1-78.7-0.2l-0.3,0c-25.7-0.1-52.2-0.2-78.3-0.2l-126.1-0.3l-0.2,0l0,0.2c-0.1,0.4-0.1,0.9-0.1,1.3l0,1.3
			c0.1,4.4,0.3,8.9,0.5,13.2c0.1,2.2,0.2,4.4,0.2,6.6c0.1,2.2,0.2,4.4,0.3,6.6c0.2,4.1,0.4,10.3,0.5,16.6v0.1h-5.1l0-0.1
			c0-0.2-0.1-0.5-0.1-0.7c0-0.3-0.1-0.5-0.1-0.8c0-0.3-0.1-0.5-0.1-0.8c0-0.3-0.1-0.6-0.1-0.8l-1.5-40.5c0-0.3-0.1-0.8-0.2-1.3
			c0-0.1,0-0.1,0-0.2c0-0.1-0.1-0.2-0.1-0.3V594l-0.2,0l-39.1-0.2l-39.1-0.1c-25.6,0-51.7-0.1-76.9-0.2l-0.3,0l-0.3,0l0,0.3
			c0.2,2.9,0.3,5.3,0.4,7.8l0,0.3c0.5,8.5,1,18.5,1.4,28.5c0,0.8,0,1.5,0.1,2.3c0,0.8,0,1.5,0,2.3c0,1.6,0,3.1,0.1,4.6v0.1h-4.7
			l-0.6-12.2c-0.6-11.2-1.2-22.5-1.8-33.9l0-0.2H446h-2.9c-53.5-0.2-107.9-0.3-160.5-0.4l-5.1,0c-42.3-0.1-94.9-0.2-145.6-0.2
			c-4.4,0-7.2-1.8-8.8-5.6c-1.7-4.3-3.3-9-3.3-14.1c0.1-181.4,0.1-365.4,0-546.8c0-5.4,2.6-8.3,7.7-8.4l1.6,0
			c0.9-0.1,1.8-0.1,2.3-0.1c1.8-0.1,3.4-0.1,5.3-0.1l68-0.9l124.4-1.5l95.2-1.2c11.3-0.2,22.7-0.3,33.8-0.4l0.3,0
			c11.1-0.1,22.6-0.2,34-0.4l91.1-1.2c11-0.2,22.3-0.3,33.2-0.4c10.9-0.1,22.2-0.2,33.2-0.4l93.5-1.2c11-0.2,22.3-0.3,33.2-0.4
			c10.9-0.1,22.2-0.2,33.2-0.4c14.4-0.1,29-0.3,43.1-0.5l0.1,0c14-0.2,28.5-0.4,43-0.5C896.1,8.1,896.3,8.1,896.4,8.1 M897.7,589.3
			L897.7,589.3c2.1,0,4.2-0.2,6.7-0.7c2.3-0.4,3.6-2,3.7-4.5v-2c-0.2-39.2-0.3-79.1-0.4-117.7l0-0.3l-0.3-117.9
			c-0.1-54.3-0.3-109.5-0.5-162.9c-0.2-52.8-0.4-107.3-0.5-161.2c0-3.6-2.4-6.7-5.7-7.4c-1.8-0.4-3.9-0.8-6.2-0.8
			c-0.3,0-0.5,0-0.8,0c-3.3,0.1-7,0.2-10.6,0.2c-0.9,0-1.8,0-2.7,0.1c-0.9,0-1.7,0-2.6,0h-0.6l-3.7,0c-19.1,0.2-38.9,0.4-58.2,0.7
			c-10.9,0.1-22,0.2-32.7,0.4c-5.4,0.1-10.8,0.2-16.3,0.2l-16.3,0.2l-32.6,0.4c-10,0.2-20.2,0.3-30.1,0.4l-0.9,0
			c-5.1,0-10.3,0.1-15.3,0.2c-5.1,0.1-10.5,0.2-15.7,0.2c-10.8,0.1-21.8,0.2-32.4,0.4c-5.4,0.1-10.8,0.2-16.2,0.2l-16.4,0.2
			l-32.2,0.4c-10.1,0.2-20.4,0.3-30.4,0.4l-0.9,0c-6.8,0-13.9,0.1-20.8,0.2c-3.5,0-7,0.1-10.4,0.1C485,18.8,474,19,463.4,19.1
			c-5.4,0.1-10.8,0.2-16.2,0.2L398.6,20c-10.1,0.2-20.4,0.3-30.4,0.4l-1.1,0c-6.8,0-13.8,0.1-20.7,0.2c-3.5,0-7.1,0.1-10.6,0.1
			l-11.7,0.1c-28,0.4-57,0.7-86,1.2l-69.6,0.9c-2,0-3.9,0-5.8,0.1c-1.9,0-3.8,0-5.8,0c-7,0.1-15,0.2-22.8,0.2h-2.7h-1.1
			c-1.3,0-2.2,0.1-2.7,0.4c-1,0.5-2,1.2-1.8,3.3v2.8c0,177.8,0,361.6-0.1,542.6c0,4.5,1.2,8.6,2.5,12.3c1,2.8,1.4,2.9,4.3,2.9
			l82.9,0.2c58,0.1,116,0.3,172.7,0.4l63.8,0.1l64,0.2l16.6,0c83.9,0.2,170.6,0.4,255.8,0.7L897.7,589.3 M896.4,7.9
			c-0.1,0-0.3,0-0.4,0c-14.3,0.1-28.7,0.3-43,0.5c-14.4,0.2-28.8,0.4-43.2,0.5c-11,0.2-22.1,0.3-33.2,0.4
			c-11.1,0.1-22.2,0.2-33.2,0.4l-93.5,1.2c-11,0.2-22.1,0.3-33.2,0.4c-11.1,0.1-22.2,0.2-33.2,0.4l-91.1,1.2
			c-11.4,0.2-22.7,0.3-34,0.4c-11.3,0.1-22.7,0.2-34.1,0.4l-95.2,1.2l-124.4,1.5l-68,0.9c-1.9,0-3.5,0-5.3,0.1c-0.5,0-1.4,0-2.3,0.1
			c-0.7,0-1.3,0-1.6,0c-5.2,0.2-7.9,3.1-7.9,8.7c0.1,181.4,0.1,365.4,0,546.8c0,5.2,1.6,9.9,3.3,14.2c1.6,3.9,4.5,5.8,9,5.8
			c49.1,0,98.1,0.1,145.6,0.2c54.3,0.1,110.4,0.2,165.6,0.4h2.9c0.6,11.4,1.2,22.7,1.8,33.9l0.6,12.4h5.2v-0.4
			c-0.1-1.5-0.1-3-0.1-4.6c0-1.5-0.1-3.1-0.1-4.6c-0.4-9.5-0.9-19.2-1.4-28.5c-0.1-2.5-0.2-5.1-0.4-8.1c25.8,0.1,51.5,0.2,77.2,0.2
			c26.1,0.1,52.1,0.2,78.2,0.3c0,0.2,0.1,0.4,0.1,0.5c0.1,0.4,0.2,0.9,0.2,1.3l1.5,40.5c0.1,0.5,0.1,1,0.2,1.6
			c0.1,0.5,0.1,1,0.2,1.5v0.3h5.6v-0.4c-0.1-5.7-0.3-11.7-0.5-16.6c-0.2-4.4-0.3-8.8-0.5-13.2c-0.2-4.4-0.4-8.8-0.5-13.2
			c0-0.4,0-0.8,0-1.3c0-0.4,0-0.8,0.1-1.2l126.1,0.3c26.1,0,52.2,0.1,78.3,0.2c26.4,0.1,52.7,0.2,79,0.2c3,0,5.9-0.5,8.1-0.9
			c3.2-0.6,5.6-2.4,7-5.3c0.9-1.8,1.3-3.7,1.3-5.8l0.1-72.1c-0.4-98-0.7-197.7-1-294.1V215c-0.2-63.7-0.4-129.5-0.5-194.3
			c0-2.9-0.9-5.2-2.7-7.2C905.8,9.8,901.5,7.9,896.4,7.9L896.4,7.9z M897.7,589.1l-109.4-0.3c-90.8-0.3-183.1-0.5-272.4-0.7
			c-42.6-0.1-85.2-0.2-127.8-0.3c-83.8-0.2-170.4-0.4-255.6-0.6c-2.9,0-3.2-0.1-4.1-2.7c-1.3-3.7-2.5-7.7-2.5-12.2
			c0.1-181,0.1-364.8,0.1-542.6v-2.8c-0.1-2.1,0.8-2.7,1.7-3.1c0.5-0.3,1.5-0.4,2.6-0.4c0.4,0,0.7,0,1.1,0h2.7
			c7.6,0,15.3-0.1,22.8-0.2c3.9,0,7.7-0.1,11.6-0.1l69.6-0.9c33-0.5,65.9-0.9,97.7-1.3c10.5-0.1,21.1-0.3,31.3-0.3
			c10.3-0.1,21-0.2,31.5-0.4c16.2-0.2,32.4-0.4,48.6-0.6c16.2-0.2,32.4-0.5,48.6-0.6c10.4-0.1,21-0.3,31.2-0.3
			c10.3-0.1,20.9-0.2,31.3-0.4c16.2-0.2,32.4-0.4,48.6-0.6c16.2-0.2,32.4-0.5,48.6-0.6c10.3-0.1,20.8-0.3,31-0.4
			c10.2-0.1,20.7-0.2,31-0.4c16.3-0.2,32.6-0.4,48.9-0.6c16.3-0.2,32.7-0.5,49-0.6c20.6-0.3,41.6-0.5,61.9-0.7h0.6
			c1.8,0,3.5-0.1,5.3-0.1c3.5,0,7.1-0.1,10.6-0.2c0.3,0,0.5,0,0.7,0c2.1,0,4.2,0.4,6.2,0.8c3.2,0.7,5.5,3.7,5.5,7.2
			c0.1,53.7,0.3,107.5,0.5,161.2c0.2,54.3,0.4,108.6,0.5,162.9c0.1,39.3,0.2,78.6,0.3,117.9c0.1,39.3,0.2,78.7,0.4,118v2
			c-0.1,2.4-1.3,3.9-3.5,4.3C901.8,588.9,899.7,589.1,897.7,589.1L897.7,589.1z"/>
	</g>
	<g>
		<path d="M862.3,544.8c-2-0.5-4.3-0.7-7.2-0.7c-0.8,0-1.7,0-2.5,0H850c-46.5-0.4-94-0.8-139.8-1.2l-15.9-0.1H693
			c-7.9,0-15.7-0.1-23.5-0.2c-7.9-0.1-15.8-0.2-23.8-0.2c-7.9,0-15.7-0.1-23.6-0.2c-7.8-0.1-15.6-0.1-23.4-0.2
			c-11.6-0.1-23.3-0.2-34.9-0.3s-23.2-0.2-34.9-0.3l-68.4-0.6l-43.8-0.3c-14-0.1-28.6-0.2-42.9-0.4l-15.6-0.1
			c-39.6-0.4-80.5-0.7-121.7-1.2c-5.3,0-10.6-0.1-15.8-0.1c-5.2,0-10.5-0.1-15.8-0.1c-10.5,0-21.2-0.1-31.5-0.2
			c-3.8,0-7.7-0.2-11.7-0.4c-0.9,0-1.8-0.3-2.7-0.6c-2.2-0.8-3.2-2.3-3.2-4.7c0-2.2,0-4.3,0-6.5c0-2.2,0-4.3,0-6.5
			c0-2.1,0-4.3,0-6.5c0-2.2-0.1-4.4-0.1-6.6L154.5,307c-0.5-66.8-1-138.3-1.4-209c-0.1-3.7-0.1-7.2-0.1-11c0-3.8,0-7.3-0.1-11
			c0-1.1-0.2-2.4-0.4-3.4c-0.1-0.5-0.2-1-0.3-1.9c-0.4-1.9,0.3-3.3,1.9-3.9c2-0.9,3.8-1.3,5.5-1.3c7-0.2,14.1-0.3,21-0.4
			c6.9-0.1,14-0.2,21-0.4c12.6-0.3,25.2-0.5,37.4-0.7c6.2-0.1,12.4-0.2,18.7-0.4s12.4-0.2,18.6-0.3c5.4-0.1,10.7-0.2,16.1-0.2
			c5.4-0.1,10.8-0.2,16.1-0.3l32.3-0.6c5.6-0.1,11.3-0.2,17-0.4s11.3-0.2,16.9-0.4l33.2-0.6c10.8-0.1,22-0.3,31.9-0.5l31.8-0.6
			c13.3-0.4,27.2-0.8,39-1l1.2,0c9.4-0.2,18.2-0.4,27-0.5c10.3-0.2,20.4-0.3,30.4-0.5l7.7-0.1c7.4-0.1,14.8-0.2,22.1-0.4
			c3.7-0.1,7.4-0.2,11.1-0.2l33.2-0.6c10.7-0.1,21.4-0.3,31.9-0.5l32.6-0.6c7.4-0.1,15-0.2,22.3-0.4c3.7-0.1,7.4-0.2,11.1-0.2
			l33.5-0.6c10.6-0.1,21.4-0.3,31.9-0.5l32.1-0.6h0.5c8-0.2,16.5-0.4,24.9-0.5c1.7,0,3.3,0.3,4.9,0.6c0.8,0.1,1.5,0.2,2.3,0.4
			c0.8,0.1,1.5,0.3,2.3,0.4l0.7,0.1c1.3,0.3,2.6,0.5,3.9,0.7c0.1,0,0.2,0.1,0.3,0.1c0.1,0,0.2,0,0.3,0.1c0.1,0,0.3,0,0.4,0.1
			c0.1,0,0.3,0.1,0.4,0.1c1.5,0.5,2.4,1.6,2.4,3.1v1.7l-1.5,90.1l-4.5,252.4c-0.4,18.4-0.7,37.2-1,55.3l0,0.9
			c-0.2,9.4-0.3,18.7-0.5,28.1c-0.2,9.3-0.4,18.7-0.5,28l0,0.9c-0.1,6.1-0.2,12.5-0.4,18.6c-0.1,5.2-4.1,9.8-9.2,10.6c0,0,0,0,0,0
			c-0.2,0-0.4,0-0.6,0c-0.2,0-0.5,0.1-0.8,0.1H862.3z M736.8,370.6c4,0,8,0.4,11.9,1.2c7.2,1.5,12.5,3.7,16.8,6.8
			c7.8,5.6,16.3,11.9,26.9,19.9c0.9,0.7,1.8,1.4,2.4,2.3c5.6,8.2,8.7,15,10,22.2c0.2,1,0.3,2,0.4,3.1c0.1,0.5,0.1,1,0.2,1.5
			c0.1,1.2,0.2,2.3,0.4,3.5c0.9,7.5,1.8,16.2,0.7,25.4c0,0.1-0.1,0.3-0.1,0.4c0,0.1,0,0.3-0.1,0.4c0,0.3-0.1,0.6-0.1,0.9
			c-0.1,0.6-0.2,1.1-0.2,1.7c0,3.2-0.8,6.3-2.4,9.5c-2.3,4.3-5.1,9.3-8.2,13.9c-2,3-5.1,7.3-9.6,10.2c-4,2.7-8.4,5.5-13.7,8.5
			c-4.7,2.8-9.9,4.5-14.4,6l-2,0.7c-4.4,1.4-8.3,2.2-12.2,2.5c-1.8,0.2-3.8,0.3-5.7,0.4l-0.4,0l0,0.1c-0.5,0.8-1,1.7-1.4,2.5
			c-0.3,0.5-0.5,0.9-0.8,1.3l-0.1,0.1l0.1,0.1c4.2,2.9,7.3,5.6,9.7,8.5c3.4,4.2,7.7,7.3,13.2,9.6c1,0.4,1.8,1.1,2.8,2
			c1.3,1.3,2.3,1.7,3.9,1.7c30.9,0.2,62.3,0.5,91.8,0.8c1.4,0,2.7,0.1,4.1,0.2c0.9,0.1,1.8,0.2,2.7,0.2c0.4,0,0.9,0,1.3-0.2
			c2-1.1,3.4-2.4,3.4-4.9c0.2-14.4,0.4-31,0.8-49.3c0.1-6.2,0.2-12.4,0.3-18.6s0.2-12.4,0.4-18.6c0.1-6.2,0.2-12.4,0.3-18.5
			c0.1-6.2,0.2-12.4,0.3-18.6c0.1-5.7,0.2-11.4,0.3-17.2c0.1-5.6,0.1-11.2,0.2-16.8c0.1-11.4,0.3-22.9,0.5-34l2.7-184.9
			c0.2-16,0.5-32,0.8-47.6c0.3-15.6,0.6-31.8,0.8-47.6c0.1-0.4,0.1-1.1,0.1-1.9v-0.1l-0.9-0.2c-0.7-0.1-1.3-0.3-1.8-0.3l-7.4-1.2
			l-0.2,0c-0.4-0.1-0.8-0.2-1.2-0.2c-7.3,0.1-15.5,0.2-25.6,0.5L775,59.7L754.3,60c-3.3,0-6.6,0.1-10,0.2c-3.5,0.1-7.1,0.2-10.6,0.2
			L670,61.6l-20.7,0.3c-3.3,0-6.6,0.1-10,0.2c-3.5,0.1-7.1,0.2-10.6,0.2l-62.8,1.2c-13.3,0.3-26.7,0.5-39.8,0.7l-2.2,0l-63.5,1.2
			c-6.7,0.2-13.6,0.3-20.2,0.4l-1.3,0c-6.5,0.1-13.1,0.2-19.8,0.4l-63.7,1.2c-6.6,0.2-13.4,0.3-19.9,0.4l-0.5,0
			c-4.5,0-9.1,0.1-13.6,0.2c-2.3,0-4.6,0.1-6.8,0.1c-25.8,0.5-56.4,1.2-86.9,1.7L159.6,71c-0.4,0-0.8,0-1.4,0.1l-0.1,0v2.6l0.3,44.1
			c0,14.6,0.1,29.4,0.2,43.8c0.4,66.7,0.9,134,1.4,196.8l0.9,138.2c0.1,10.7,0.1,21.6,0.1,32.2c0,0.7,0,1.6,0.1,2.5l0,0.5l0.1,0
			c25,0.5,50.4,0.7,75,0.9l1.7,0c20.6,0.1,41.2,0.3,61.4,0.6l0.1,0l0-0.1c1-1.4,1.5-3,1.5-4.6c0.1-1.3,0.2-2.5,0.4-3.7
			c0.1-0.7,0.3-1.4,0.4-2.2c0.1-0.7,0.2-1.4,0.4-2.1c0.4-2.2,0.8-4.4,1.1-6.5c0.2-1.1,0.2-2.2,0.1-3.7c-0.1-0.5-0.1-1.1-0.1-1.7
			v-0.1l-0.1,0c-0.4-0.1-0.8-0.1-1.1-0.1h-10.9c-1,0-1.9-0.1-2.7-0.3c-1.4-0.3-2.9-0.6-4.9-1.1c-2-0.5-3.6-0.8-4.9-1.1
			c-9.4-2-17.8-5.6-25.1-10.7c-2.3-1.7-4.8-3.4-7.2-5c-4.4-2.9-8.1-6.3-11.3-10.2c-0.4-0.5-0.8-1.1-1.1-1.7c-0.4-0.6-0.7-1.3-1-1.9
			l-0.3-0.6c-0.5-1.1-1.1-2.3-1.7-3.4l-0.3-0.6l-0.5-0.9c-2.5-4.4-5-9-6.6-14c-3.4-9.7-3.6-18.5-0.8-26.9c0.4-1.2,0.7-2.4,1-3.6
			c0.1-0.5,0.2-0.9,0.3-1.3l0.1-0.4c0.2-0.9,0.4-1.8,0.6-2.7l0.1-0.3c0.1-0.3,0.2-0.7,0.3-1.1c0.1-0.3,0.3-0.6,0.4-0.9
			c0.1-0.3,0.3-0.6,0.4-0.9c0.3-0.6,0.6-1.3,0.8-1.9c1.7-4.8,4.2-9.2,7.4-13c2-2.4,4.2-4.8,6.2-7.1l0.8-0.8c0.6-0.7,1.2-1.4,1.8-2.1
			c0.6-0.7,1.2-1.3,1.8-2c2.7-3,5.8-5.7,9.1-7.9c1.6-1,3.1-2,4.7-3c1.6-1,3.2-2.1,4.8-3.2c1.9-1.3,3.9-2.6,5.9-3.8
			c1.2-0.8,2.4-1.6,3.6-2.4c5.9-3.7,12.3-7,19.7-9.9c5.2-2,9.9-3,14.6-3c0.4,0,0.8,0,1.3,0c2.4,0.1,4.8,0.2,7.1,0.2
			c1.2,0,2.3,0,3.5,0.1c1.2,0,2.4,0.1,3.5,0.1c2.3,0,4.7,0.1,7.1,0.2l0.3,0c2.5,0.1,5,0.2,7.5,0.5c9.2,0.9,18,3.9,26.2,9
			c2.6,1.6,4.7,3.5,6.5,5.7c2.2,3.1,2.3,6.4,0.4,9.7c-0.6,1-1.3,2-2,3c-0.2,0.3-0.3,0.5-0.5,0.7c-0.2,0.2-0.3,0.5-0.5,0.7l0,0l0,0.1
			c0.3,1,0.6,2,0.8,3l0.2,0.9c0.4,1.6,0.9,3.3,1.4,4.9c1.4,4.2,3,8.9,5,14.6c0.4,1.2,0.8,2.4,1.3,3.7c0.4,1.2,0.8,2.4,1.2,3.6
			c0,0.2,0.1,0.4,0.2,0.6c0.1,0.2,0.1,0.4,0.2,0.6c0.1,0.2,0.1,0.4,0.2,0.6c0.2,0.7,0.5,1.4,0.6,2.1c0.4,2.7,0.8,5.4,1.1,8
			c0.3,2.6,0.7,5.4,1.1,7.9c0.2,1.4,0.3,2.8,0.4,4.2l0.1,0.8c0.2,2.3,0.3,4.7,1.2,6.9c0.2,0.5,0.1,1.1,0,1.6c-0.1,0.6-0.1,1.3-0.1,2
			c0,1.4-0.1,2.8-0.2,4.1c-0.5,5.7-1.7,10.3-3.8,14.7c-1.5,3-3.3,6.4-5.7,10.3c-2.1,3.6-4.8,6.8-7.9,9.1
			c-5.4,4.3-12.8,9.7-21.7,12.7c-1.9,0.6-3.8,1.3-5.8,2c-0.7,0.3-1.5,0.6-2.3,0.9l-0.1,0v1.9l0,0.6c0.1,4.1,0.2,8.4,0.4,12.8
			c0.1,2,0.4,4,0.7,6c0.5,3.3,1.9,3.9,4.6,3.9l1,0c16.5,0.1,33.5,0.2,49.9,0.4c4.2,0.1,8.5,0.1,12.7,0.1c4.2,0,8.4,0,12.6,0.1l0.5,0
			c8.4,0.1,17.2,0.2,25.8,0.2c8.8,0,17.7,0.1,26.2,0.2l2.6,0l0-0.1c0.1-0.5,0.1-0.9,0.1-1.3c0-1.2,0.1-2.3,0.2-3.4
			c1.1-8.1,3.2-15.5,6.6-22.7c3.6-7.6,9.2-14.3,17.6-21.1c0.8-0.5,1.6-1,2.6-1.6c0.9-0.5,1.7-0.9,2.6-1.4c0.9-0.5,1.8-0.9,2.6-1.4
			l0.1,0v-3.5c0-0.8,0-1.5,0-2.3c0-1.5,0-3,0-4.5l0.6-6.6l0.3-3.3l-0.1,0c-0.8-0.2-1.4-0.4-2-0.6c-3.5-1.1-7-2.2-10.2-3.2
			c-1.3-0.4-2.7-0.8-4.1-1.3c-2-0.6-4-1.2-6-1.8c-0.5-0.1-0.9-0.3-1.4-0.7c-0.5-0.3-1-0.6-1.5-0.9c-1.3-0.8-2.6-1.6-3.8-2.6
			c-1.6-1.1-3.6-2.5-5.1-4.2c-2.1-2.3-4-4.7-5.9-7.1l-1.2-1.6c-0.3-0.2-0.5-0.6-0.7-1c-0.1-0.1-0.1-0.2-0.2-0.3
			c0-0.1-0.1-0.1-0.1-0.2l-0.3-0.4c-0.2-0.4-0.5-0.8-0.7-1.3c-0.4-0.6-0.7-1.1-1-1.7c-0.2-0.3-0.4-0.6-0.6-0.9
			c-2.8-4.2-5.6-8.6-7.6-13.7c-2.3-5.8-3.4-12-3.5-18.9c-0.2-10.1,1.1-20.2,3.9-30c1.1-3.5,2.9-7.1,5.6-11.2
			c3.6-5.4,7.8-10.4,12.5-15.1c4.7-4.7,9.3-9.1,15-12.2c0.4-0.2,0.8-0.4,1.2-0.6c0.4-0.2,0.7-0.4,1.1-0.6c1.9-1.1,4-2.2,6.1-3.2
			c3.4-1.6,6.8-3.1,10.4-4.2c7.8-2.3,15.6-3.5,23.9-3.5c4.8,0,9.8,0.4,15,1.2c4.9,0.7,9.4,2.1,13.6,4.1c5.4,2.7,10,6.6,14.5,10.4
			l0.7,0.6l2.3,2c3.9,3.3,7,6.8,9.5,10.6c0.9,1.5,1.9,2.9,2.9,4.3c0.6,0.8,1.1,1.6,1.7,2.4l0.8,1.2c1,1.3,1.9,2.7,2.9,4.1
			c0.4,0.5,0.6,1,0.7,1.4l0.8,2.5c1.2,3.7,2.5,7.4,2.9,11.4c0.1,1.6,0.4,3.3,0.6,5c0.1,0.8,0.2,1.5,0.3,2.3c1.2,8,2.1,15.3,1.2,22.9
			l0,0.1c-0.4,3.5-0.8,7.2-2.1,10.6c-1.2,3.1-2.7,6.5-4.5,10.3c-3.4,7.1-7.3,12.1-12.3,15.7c-0.6,0.4-1.2,0.9-1.7,1.4
			c-6.3,6-14,9.3-21.4,12.1c-0.8,0.3-1.7,0.7-2.5,1c-0.5,0.2-0.9,0.4-1.3,0.6c-0.3,0.2-0.6,0.3-0.9,0.4c-0.3,0.1-0.7,0.3-1,0.4
			l-0.1,0l0,0.1c-0.6,4.2-0.6,19.2-0.1,21.7l0,0.1h1.7c0.4,0,0.9,0,1.3,0c0.4,0,0.8,0,1.1,0c0.4,0,0.8,0,1.2,0
			c3.7,0.3,6.3,1.9,7.9,4.8c1.2,2,2.3,4,3.4,6s2.2,4,3.4,6c1.1,2,2.3,4,3.4,6s2.2,4,3.4,6c1.6,3.1,2.6,5.4,3.4,7.6
			c1.6,4.1,1.9,8.5,2.3,12.7l0.1,1l0.1,1c0,0.4,0.1,0.8,0.1,1.2c0,0.4,0.1,0.8,0.1,1.2c0.1,0.4,0.1,0.7,0.1,1.1c0,0.4,0,0.8,0.1,1.2
			l0,0.1l0.1,0c6.4,0,12.8,0.1,19.2,0.2c6.4,0.1,12.8,0.1,19.2,0.2l36.9,0.3l0-0.1c2.6-5.3,5.9-9.2,10.4-12
			c8.7-5.4,15.6-8.8,22.6-10.9c0.9-0.3,1.3-0.6,1.5-1.5c0.1-0.7,0.2-1.3,0.4-2c0.1-0.3,0.1-0.6,0.2-0.8c0.3-0.8,0.5-1.6,0.6-2.4
			c0.2-0.8,0.2-1.5,0.2-2.2v-0.1l-0.1,0c-5.6-2.4-12.1-8.5-16.3-13.4c-3.1-3.8-5.4-7.8-8.3-13c-2.3-4.1-4-8.7-5.3-14.7
			c-1.3-5.9-1.8-12.4-1.7-21c0-1.1,0.2-2.2,0.4-3.2c0.9-3.6,1.7-7.2,2.5-10.8l0.3-1.3c0.5-2.4,1-4.8,1.6-7.2
			c0.1-0.3,0.3-1.4,0.3-1.7c0.1-0.4,0.2-0.8,0.3-1.1c0.4-1.9,0.8-3.8,1.6-5.4c3.8-8.4,8.5-15,14.2-20.1c1.8-1.6,3.8-3.4,5.7-5
			c0.7-0.5,1.4-1,2.1-1.4c0.8-0.5,1.7-1,2.5-1.4c1.1-0.6,2.2-1.2,3.2-1.8l0.5-0.3c4.2-2.4,8.9-5.2,14-6.9
			C721.6,371.9,729.3,370.6,736.8,370.6z M731.6,521.2c-0.2,0.3-0.4,0.6-0.6,0.9s-0.4,0.5-0.6,0.8c-1.7,2.4-3.4,4.8-5.3,7
			c-1.8,2-4,4-5.7,5.5c-0.5,0.4-1.3,1.1-1.8,1.6l-0.2,0.2l0.3,0c9.4,0.2,21.7,0.4,34.2,0.5l0.5,0l-0.5-0.2c-0.1,0-0.2-0.1-0.3-0.2
			c-0.1-0.1-0.2-0.2-0.3-0.2c-0.4-0.2-0.7-0.4-1-0.6c-3.2-1.9-6.2-4.4-8.7-7.2c-2.1-2.2-4.5-4.5-7-6.9c-0.9-0.8-1.9-1.2-3-1.2
			L731.6,521.2L731.6,521.2z M702.3,505.8c-0.3,1.8-0.7,3.4-1.1,4.9l-0.3,1.3c-1.2,4.5-1.7,8.6-1.4,12.4c0.3,5.7,3,10,8.3,13l0.1,0
			l0.1,0c0.2-0.1,0.4-0.3,0.6-0.4c0.2-0.2,0.5-0.3,0.7-0.5l0.7-0.5c0.8-0.5,1.6-1.1,2.3-1.7c1.9-1.7,3.8-3.4,6-5.6l1.9-1.9
			c0.8-0.8,1.5-1.5,2.1-2.4c2.9-4,5.7-8,8.1-11.6c0.4-0.5,0.7-1.1,1-1.7l0.1-0.1l-0.2,0c-4.8-0.9-9.4-1.7-14.1-2.6
			c-2.8-0.5-5.6-1-8.5-1.5l-6.3-1.1L702.3,505.8z M693.4,520c-0.1,0-0.2,0-0.3,0.1c-0.5,0-0.8,0.2-0.9,0.2
			c-6.4,2.3-12.5,5.5-18.9,9.8c-1.6,1-2.8,2.4-4.1,3.8l-0.1,0.1c-0.2,0.3-0.5,0.6-0.8,0.8c-0.3,0.3-0.6,0.6-0.8,0.9
			c0,0.1-0.1,0.1-0.1,0.2c-0.1,0.2-0.3,0.5-0.4,0.8l-0.1,0.2l30.8,0.1l-0.1-0.2c-0.1-0.3-0.3-0.6-0.4-0.8c-0.1-0.3-0.3-0.6-0.4-0.9
			l-0.2-0.5c-0.8-1.8-1.7-3.7-2.1-5.7c-0.4-1.8-0.6-3.8-0.7-6.2c-0.1-0.5-0.1-0.9-0.1-1.3c0-0.4-0.1-0.9-0.1-1.3l0-0.1H693.4z
			 M511.6,487.2c-2.4,0-4.6,0.5-6.7,1.5c-3.3,1.5-6.5,3.8-9.1,6.6l-2.1,2.4c-1.6,1.7-2.9,3.3-4.1,4.8c-1.7,2.2-3.1,4.7-4.7,7.7
			c-2.7,5.2-4.2,10.7-5.6,17.3c-0.5,2-1,4.6-0.5,7.6l0,0.1h0.1c36.1,0.1,67.1,0.4,100.4,0.8l0.1,0l0-0.1c-0.1-2.9-0.3-5.5-0.5-8.2
			v-0.4c-0.5-5.5-1.6-9.6-3.5-13c-3.1-5.5-6.2-11.1-9.3-16.5c-1.9-3.3-3.8-6.6-5.6-9.9c-0.8-1.4-2-2.2-3.3-2.2c-0.1,0-0.2,0-0.2,0
			c-2.2,0.1-4.3,0.2-6.2,0.7c-4.4,1.2-9.6,2.4-15,2.4c-0.4,0-0.8,0-1.2,0h-4.9c-0.4,0-0.8,0-1.2,0c-4.2,0-8.6-0.5-13.2-1.4
			C514,487.3,512.8,487.2,511.6,487.2z M309.7,509.7c0,0.2,0,0.4,0,0.6c0,0.4,0,0.7,0,1.1c-0.1,0.7-0.2,1.4-0.3,2.1
			c-0.1,0.7-0.1,1.4-0.2,2.1l-0.1,0.7c-0.3,2.4-0.6,4.8-0.9,7.2c-0.3,2.1-0.7,4-1,6.2l-0.4,1.9l-0.4,2.1h25v-0.1
			c0-0.6-0.1-1.1-0.2-1.6c-0.3-2.8-0.6-5.6-0.8-8.5l0-5.9c-0.1-1.9-0.2-3.8-0.4-5.7c0-0.4-0.1-0.9-0.1-1.4c0-0.5-0.1-1-0.1-1.4
			l0-0.1h-20V509.7z M698.7,389.2c-0.5,0.3-1,0.7-1.5,1c-1.2,0.8-2.3,1.6-3.4,2.4c-5.5,4.2-10,9.2-13.4,14.9
			c-1.8,2.8-3.6,5.8-4.4,9.1c-0.5,2-0.9,4-1.4,6c-0.5,2-0.9,4-1.4,6l-2.7,12c-0.3,1.2-0.4,2.6-0.5,4c-0.1,7.4,0.7,14.3,2.4,21
			c0.6,2.6,1.8,5.3,2.6,7.2c0.6,1.3,1.3,2.6,2.1,4c0.2,0.4,0.4,0.7,0.6,1c0.2,0.3,0.4,0.6,0.6,1c3.8,7.1,9.1,13.1,16.2,18.4
			c1.4,1.1,3.1,1.8,5.1,2.2l1.2,0.2c4.3,0.8,8.7,1.6,13.1,2.4c5.2,0.9,10.3,1.9,15.5,2.8c0,0,1.6,0.2,2,0.3c2.4,0.4,5.1,0.9,8,0.9
			c0.3,0,0.5,0,0.8,0c8.1-0.2,15.6-3,22.8-5.8l0.6-0.2c4.8-2,9.2-4.9,13.1-7.4l1.3-0.9c1.3-0.8,2.6-1.7,4-2.5
			c0.7-0.4,1.5-1.1,2.1-1.8c4.1-4,7.1-7.8,9.3-11.8c0.9-1.7,1.9-3.3,3.1-5.3c2.6-4.1,3.7-8.5,3.4-13.3l0-0.1h-2.4
			c-2.7-0.1-6-0.2-9.2-0.2c-2.4,0-4.8-0.8-6.7-2.3c-1.6-1.1-3.2-2.2-4.6-3.7c-5.3-5.6-9.3-12.3-13.5-19.8c-0.6-1.1-1.4-2.2-2.2-3
			c-6.6-6.1-15-11.1-26.4-15.6c-10.2-4-18.3-8.4-25.5-13.8c-2.3-1.6-4.2-3.6-6-6.2c-1-1.6-1.9-2.9-2.9-4.4l-0.1-0.1L698.7,389.2z
			 M227.4,445.7c0.5,4.1,1.2,7.3,2.2,10.1c1.2,3.5,3,6.9,4.8,10.2l0.8,1.6c1,1.7,2,3.6,3.1,5.8c1.9,3.9,4.8,7.3,9,10.5
			c1.9,1.5,4,2.9,5.9,4.2l0.9,0.6c0.5,0.4,1.1,0.8,1.7,1.2c0.6,0.4,1.1,0.8,1.7,1.2c5.7,4,11.8,6.9,18.6,8.6c1.2,0.3,2.4,0.6,3.6,1
			c1.7,0.4,3.4,0.9,5,1.3c0.6,0.1,1.1,0.2,1.7,0.4c0.6,0.1,1.1,0.3,1.7,0.4c0.3,0,0.7,0.1,1.1,0.2c1.1,0.3,2.2,0.5,3.3,0.6l37.4,0
			c2.6,0,5.3-0.5,8.7-1.5c6.8-2,13.6-5.6,21.3-11.3c4.5-3.3,8-7.7,10.9-13.9l0.2-0.3l-0.3,0.2c-0.2,0.1-0.4,0.2-0.6,0.2
			c-0.2,0.1-0.5,0.2-0.7,0.3c-0.8,0.3-1.9,0.7-3.1,1.1c-0.6,0.3-1.2,0.5-1.9,0.7c-0.6,0.2-1.3,0.5-1.9,0.7
			c-3.7,1.5-7.4,2.8-11.4,3.2c-3.5,0.3-7.2,0.6-11.1,0.6c-3.4,0-6.5-0.2-9.3-0.7c-8.7-1.4-16.7-4.8-23.7-10.1
			c-0.4-0.3-0.7-0.5-1.1-0.7c-0.3-0.2-0.7-0.4-1-0.7l-2.1-1.5c-1-0.7-1.3-1.8-1-3.1c0.4-1.2,1.4-1.8,2.5-1.8c0.1,0,0.3,0,0.4,0
			c0.8,0.1,1.4,0.4,2.1,0.9c1.2,0.8,2.4,1.6,3.6,2.5c6.7,5.1,14.1,8.1,22.2,9c2.1,0.2,4.3,0.3,7.1,0.3c2,0,4,0,5.7-0.1
			c1.1-0.1,2.2-0.1,3.3-0.1c2.5-0.1,4.7-0.5,6.6-1.1c2.2-0.7,4.3-1.5,6.4-2.3l0.5-0.2c3-1.2,6.1-2.4,9.2-3.2c3.1-0.9,4-2.6,4.5-5.3
			c0.7-3.3,1.4-7,1.1-10.5c-0.7-7.3-1.3-12.9-1.9-17.7c-0.1-0.9-0.2-1.7-0.3-2.5c-0.6-4.5-1.2-8.2-2.3-11.8
			c-1.1-4.1-2.5-8.1-3.9-11.9c-1.7-4.8-4-11.2-5.6-18l0-0.2l-0.5,0.3c-1.2,0.6-2.2,1.2-3.2,1.6c-3.2,1.6-6.3,3.5-8.6,4.9l0,0
			c-0.9,0.5-1.7,0.9-2.5,1.4c-0.8,0.5-1.7,0.9-2.5,1.4l-2.4,1.3c-2.5,1.4-5.1,2.8-7.6,4.1c-6.3,3.3-11.1,5.7-15.5,7.7
			c-3.9,1.6-9.2,3.9-15,3.9l-0.4,0c-0.3,0-0.6,0.1-0.9,0.2l-0.2,0.1c-0.9,0.3-1.7,0.5-2.6,0.7c-0.9,0.2-1.7,0.5-2.6,0.7l-1.9,0.5
			c-3.2,0.9-6.5,1.9-9.6,3c-7.5,2.5-15.8,6.2-20.9,15.2c-1.9,3.2-4.5,5.8-7.6,8.7c-3.8,3.4-7.9,5.1-12.6,5.1c-1,0-2.1-0.1-3.1-0.2
			c-2-0.3-4.1-0.7-5.8-2c-1.5-1-2.9-2-4.3-3c-1.4-1-2.8-2-4.3-3c-0.3-0.3-0.6-0.5-1-0.7l-0.2-0.1V445.7z M511.6,463.8
			c-1.1,5.7-1.3,11.5-0.7,17.2l0,0.1l0.1,0c2.7,0.4,5.1,0.8,7.3,1.2l1.5,0.3c0.1,0,0.3,0.1,0.4,0.1c0.1,0,0.2,0,0.4,0.1
			c0.3,0,0.5,0.1,0.7,0.1c0.4,0.1,0.8,0.2,1.3,0.2c0.6,0,1.3,0,2,0c0.7,0,1.4,0,2,0c2.8,0.1,5.8,0.1,8.7,0.1c1.2,0,2.4,0,3.6,0
			c1.2,0,2.4-0.3,3.6-0.5c0.3-0.1,0.6-0.1,0.9-0.2c0.9-0.3,1.6-0.4,2.3-0.5l0.1,0v-21.6l-0.2,0.1c-6.7,2.2-14.6,4.5-23,4.5
			c0,0,0,0,0,0c-3.7,0-7.4-0.5-10.9-1.4l-0.1,0L511.6,463.8z M530.3,324.7c-5,0-10.3,0.5-15.9,1.5c-7.1,1.3-13.2,3.6-18.8,6.9
			c-0.5,0.3-1.1,0.6-1.7,0.9c-0.6,0.3-1.2,0.6-1.7,0.9l-0.8,0.4c-1.8,1-3.6,1.9-5.1,3.1c-8.8,6.8-15.8,14.1-21.3,22.5
			c0,0-0.1,0.1-0.1,0.2c0,0,0,0.1-0.1,0.1c-0.2,0.3-0.4,0.6-0.6,0.8c-2.4,2.9-3.9,5.8-4.6,8.9c-0.1,0.4-0.2,0.9-0.3,1.3
			c-0.1,0.4-0.2,0.9-0.3,1.3c-0.9,3.7-1.8,7.6-2.4,11.5c-1.2,9.6-1.8,20.9,2.7,32.1c1.4,3.3,2.7,5.8,4.2,8.1c0.3,0.4,0.5,0.7,0.8,1
			c0.2,0.3,0.5,0.6,0.7,1l0.1,0.2c1,1.3,2,2.6,2.7,4.1c1.5,3.1,3.7,6.1,6.5,9.2c4.3,4.9,9.3,8.3,14.9,10.1
			c5.2,1.7,10.5,3.2,15.7,4.7l2.6,0.7l1.4,0.4c2.2,0.6,4.4,1.2,6.5,1.8c0.6,0.2,1.3,0.3,2.1,0.4c1.6,0.2,3.3,0.3,5,0.3
			c9.3,0,18-2.9,26.3-5.8c3.3-1.2,6.7-2.7,10-4.2l0.2-0.1c0.8-0.4,1.7-0.8,2.6-1.2c1-0.5,2.1-1,3.2-1.4c3.1-1.3,5.9-3,8.4-5.1
			c0.5-0.4,1.1-0.9,1.7-1.4c0.5-0.4,1-0.9,1.5-1.3c1-0.9,2.1-1.8,3.2-2.7c2.2-1.8,3.9-3.8,5.1-6c2.3-4.3,4.5-8.4,6.4-12.3
			c1.5-3.2,2.5-6.7,2.9-10.4c1.1-8.5-0.2-17.3-1.3-25c-0.1-0.7-0.6-4-0.6-4c0-0.8-0.5-1.1-1.2-1.6c-1.5-0.9-3.1-2-4.7-3.2
			c-0.7-0.4-1.4-0.9-2.1-1.4c-0.3-0.2-0.6-0.4-0.9-0.6c-0.3-0.2-0.6-0.5-0.9-0.7c-0.3-0.2-0.6-0.4-0.9-0.6c-0.9-0.6-1.8-1.2-2.7-1.7
			c-7.6-3.5-15.5-7.2-22.9-11.4c-1-0.7-2-1.1-3-1.5c-3.8-1.2-7.2-3-11.1-5.3c-4.7-2.8-9.2-4.1-13.6-4.1c-0.7,0-1.4,0-2.1,0.1
			c-1.8,0.1-3.5,0.2-5.2,0.2c-0.5,0-0.9,0-1.3,0c-0.4,0-0.8,0-1.3,0c-4.7,0.1-9.5,1.4-14.6,3.9c-8.2,4-14.3,8.6-19.1,14.3
			c-1,1.2-2.1,2.3-3.2,3.2c-0.5,0.4-1.1,0.6-1.7,0.6c-0.6,0-1.3-0.3-1.7-0.7c-0.9-0.8-1.1-2-0.7-3.2c0.2-0.5,0.5-1,0.9-1.4l0.3-0.3
			c0.9-1,1.8-1.9,2.7-2.8c5.6-6.5,13-11.7,23.4-16.3c4.2-1.8,8.7-2.8,13.4-3c1.5-0.1,2.9-0.1,4.4-0.1c2.2,0,4.4,0,6.6-0.1
			c0.2,0,0.5,0,0.7,0c3.1,0,6.2,0.7,9.5,2c2.1,0.8,4.1,1.9,6,3c0.3,0.2,0.6,0.3,0.9,0.5c0.3,0.2,0.6,0.4,0.9,0.5
			c1.3,0.7,2.6,1.4,3.9,2c0.7,0.3,1.4,0.6,2.2,1c0.7,0.3,1.4,0.6,2.1,0.9c0.8,0.4,1.7,0.8,2.6,1.2c0.9,0.4,1.7,0.8,2.6,1.2
			c4.5,2.1,8.4,4.1,12,5.9c3.9,1.7,11.4,5.1,17.9,8.8l0.3,0.2l-0.1-0.3c-0.7-2.3-3.2-6.3-4.7-8.3c-0.8-1.1-1.7-2.4-2.6-3.5l-0.7-0.9
			c-1.9-2.5-3.8-5-5.3-7.9c-0.2-0.6-0.6-1-1-1.5l-0.3-0.3c-0.3-0.3-0.6-0.6-0.8-0.9c-3.2-3.5-7.1-6.5-10.4-9
			c-1.1-0.9-2.3-1.8-3.5-2.7c-3-2.2-6-3.7-9.3-4.7c-1.7-0.5-3.4-0.9-5.1-1.2c-0.3,0-0.6-0.1-0.9-0.2c-0.3-0.1-0.6-0.2-0.9-0.2
			C540.1,325.2,535.3,324.7,530.3,324.7z M737.3,376.5c-6.1,0-12.2,0.9-18.7,2.8c-4.9,1.5-9,3.3-12.6,5.7l-0.1,0.1l0.1,0.1
			c0.3,0.5,0.7,1.1,0.9,1.4l0.1,0.2c1.4,2.2,2.7,4.4,4.7,5.8c5.2,4,10.8,8,17.1,10.7c1.8,0.8,3.7,1.6,5.6,2.4
			c4.1,1.7,8.9,3.8,13.6,6.1c5.4,2.6,10.9,6.3,17.8,12c1.2,1,2.1,2.2,2.8,3.2c0.8,1.2,1.5,2.6,2.3,4c1.3,2.3,2.6,4.6,4,6.7
			c2.2,3.2,4.7,6.2,7.1,9.1l0.4,0.5c0.8,1,3,3.3,6,3.4c3.2,0.1,6.3,0.1,9.5,0.1h3.2l0.2-0.1c0-0.3,0.1-0.5,0.2-0.8l0.1-0.2
			c0.3-7.9-0.7-15.9-1.9-24.8c-0.9-7.4-4.4-13.7-7.8-19c-1-1.6-2.2-2.8-3.2-3.4c-1.4-1-2.8-2.1-4.2-3.1c-1.4-1-2.8-2.1-4.2-3.1
			c-4.1-3-8.9-6.6-13.6-10.2c-4.6-3.4-8.8-5.6-13.2-7c-4.4-1.3-8.2-2.1-11.8-2.4C740,376.6,738.6,376.5,737.3,376.5z M309.4,364.9
			c-5.2,0-9.8,0.9-14,2.7c-2.1,0.8-4.2,1.8-6.3,2.8l-1.6,0.8c-6.8,3.2-13.3,7.3-19,11l-2.1,1.3c-3.9,2.4-9,5.7-13.4,9.7
			c-6.2,5.6-11.5,11.6-15.9,18c-2.7,3.8-4.3,8.3-5.8,12.6l-0.2,0.6c-0.8,2.4-1.4,4.8-2,7.2c-0.4,1.2-0.7,2.4-1,3.6
			c0,0.3-0.1,0.8-0.2,1.3c0,0.1,0,0.2,0,0.3c0,0.1-0.1,0.2-0.1,0.3v0.1l0.1,0c1.5,0.9,2.5,1.6,3.3,2.3c0.5,0.4,0.9,0.7,1.4,1.1
			c0.5,0.3,0.9,0.7,1.4,1c1.8,1.4,3.3,2.5,4.7,3.4c2.4,1.6,4.9,2.3,7.3,2.3c2.8,0,5.5-1,8-3.1c2.3-1.9,4.3-4.2,5.8-5.8
			c1.2-1.4,2.3-3,3.3-4.5c0.2-0.2,0.4-0.5,0.5-0.7c0.2-0.2,0.3-0.5,0.5-0.7c2-2.8,3.9-4.7,6.2-6.3c5.4-3.6,10.6-6.1,15.8-7.7
			c0.7-0.2,1.5-0.4,2.3-0.6c0.8-0.2,1.6-0.5,2.3-0.7c3.7-1.1,7.5-2.2,11.1-3.2c1-0.3,2.1-0.5,3.2-0.6c0,0,0.1,0,0.1,0
			c0.4,0,0.7,0,1-0.1c0.3,0,0.6-0.1,0.8-0.1c0.3,0,0.5-0.1,0.8-0.1c1.2-0.1,2.3-0.3,3.3-0.6c7.3-2.3,14.3-5.4,21.5-9.6
			c2.1-1.2,4.2-2.4,6.3-3.6c1.5-0.8,3-1.7,4.5-2.5c4-2.2,8.1-4.4,12.3-6.7c1.6-0.9,3.2-1.8,4.8-2.7c2.6-1.5,4.3-3,5.3-4.9
			c0.9-1.7,0.7-3.7-0.4-4.9c-0.6-0.7-1.3-1.5-2.2-2l-0.5-0.3c-4.2-2.7-8.1-5.2-12.8-6.6c-7-2.2-13.7-3.2-20.4-3.2
			c-0.3,0-0.6,0-0.9,0c-5.7,0-10.6-0.2-15.9-0.5C311.4,364.9,310.3,364.9,309.4,364.9z"/>
		<path class="st0" d="M864.1,52.8L864.1,52.8c1.7,0,3.3,0.3,4.9,0.6c0.7,0.1,1.5,0.2,2.2,0.3c0.7,0.1,1.5,0.3,2.2,0.3l0.8,0.1
			c1.3,0.2,2.6,0.5,3.8,0.7c0.1,0.1,0.2,0.1,0.4,0.1c0.1,0,0.2,0,0.3,0.1l0.1,0h0.1c0.1,0,0.2,0,0.3,0c0.1,0,0.2,0,0.4,0.1
			c1.5,0.5,2.3,1.5,2.3,3v1.7l-1.5,90.1l-4.5,252.4c-0.4,18.4-0.7,37.2-1,55.3l0,0.9c-0.2,9.3-0.3,18.9-0.5,28
			c-0.2,9.2-0.4,18.7-0.5,28.1v0.2l0,0.8c-0.1,6.1-0.2,12.3-0.4,18.5c-0.1,5.2-4,9.7-9,10.5c-0.2,0-0.4,0-0.6,0
			c-0.2,0-0.5,0.1-0.8,0.1h-0.6c-2-0.5-4.3-0.7-7.2-0.7c-0.7,0-1.5,0-2.5,0H850c-46.2-0.4-93.3-0.8-138.8-1.2l-17-0.1H693
			c-7.9,0-15.9-0.1-23.6-0.2c-7.7-0.1-15.8-0.2-23.7-0.2c-7.8,0-15.8-0.1-23.5-0.2c-7.7-0.1-15.7-0.2-23.5-0.2
			c-11.6-0.1-23.5-0.2-34.9-0.4c-11.4-0.1-23.3-0.2-34.9-0.4l-68.4-0.6l-16.3-0.1l-27-0.2l-0.9,0c-13.9-0.1-28.3-0.2-42.4-0.4
			l-16.5-0.1c-39.3-0.4-79.9-0.7-120.8-1.2c-5.2,0-10.6-0.1-15.7-0.1c-5.2,0-10.5-0.1-15.8-0.1c-10.5,0-21.2-0.1-31.5-0.2
			c-3.8,0-7.7-0.2-11.7-0.4c-0.9,0-1.7-0.3-2.6-0.6c-2.1-0.8-3.1-2.3-3.1-4.6c0-2.2,0-4.4-0.1-6.5c0-2.1,0-4.3,0-6.5
			c0-2.1,0-4.3,0-6.5c0-2.2-0.1-4.4-0.1-6.6L154.7,307c-0.5-66.8-1-138.3-1.4-209c-0.1-3.7-0.1-7.2-0.1-11c0-3.8,0-7.3-0.1-11
			c0-1.1-0.2-2.4-0.4-3.4c-0.1-0.5-0.2-1-0.3-1.9c-0.4-1.8,0.3-3.2,1.9-3.7c2-0.9,3.8-1.3,5.4-1.3c7-0.2,14.1-0.3,21-0.4
			c6.9-0.1,14-0.2,21-0.4c12.7-0.3,25.3-0.5,37.4-0.7c6.2-0.1,12.5-0.2,18.7-0.4c6.1-0.1,12.4-0.2,18.6-0.3c5.4-0.1,10.8-0.2,16-0.2
			c5.3-0.1,10.8-0.2,16.2-0.3c10.7-0.2,21.5-0.4,32.2-0.6l0.1,0c5.7-0.1,11.4-0.2,17-0.4c5.6-0.1,11.3-0.2,17-0.4
			c11.1-0.2,22.2-0.4,33.2-0.6c10.8-0.1,22-0.3,31.9-0.5l31.8-0.6c13.3-0.4,27.3-0.8,39-1l1.2,0c9.4-0.2,18.2-0.4,27-0.5
			c10.8-0.2,21.3-0.3,31.8-0.5l6.3-0.1c7.4-0.1,14.8-0.2,22.1-0.4c3.7-0.1,7.4-0.2,11.1-0.2l16.6-0.3l16.6-0.3
			c10.6-0.1,21.3-0.3,31.7-0.5l0.6,0c10.7-0.2,21.4-0.4,32.2-0.6c7.4-0.1,15-0.2,22.4-0.4c3.7-0.1,7.4-0.2,11-0.2l16.8-0.3l16.7-0.3
			c10.6-0.1,21.5-0.3,32-0.5c10.7-0.2,21.4-0.4,32-0.6l0.5,0C847.2,53.1,855.7,52.9,864.1,52.8 M299.4,533.5l0.1-0.1
			c1-1.4,1.5-3,1.5-4.6c0.1-1.3,0.2-2.5,0.4-3.7c0.2-0.7,0.3-1.4,0.4-2.2c0.1-0.7,0.2-1.4,0.4-2.1c0.4-2.2,0.8-4.4,1.1-6.5
			c0.2-1.1,0.2-2.3,0.1-3.8c-0.1-0.5-0.1-1.1-0.1-1.7v-0.2l-0.2,0c-0.4-0.1-0.9-0.1-1.2-0.1h-1.1h-9.8c-1,0-1.9-0.1-2.7-0.3
			c-1.4-0.3-2.9-0.6-4.9-1.1c-2-0.5-3.5-0.8-4.9-1.1c-9.3-2-17.8-5.6-25-10.7c-2.4-1.7-4.8-3.4-7.2-5c-4.4-2.9-8.1-6.2-11.2-10.1
			c-0.4-0.5-0.8-1.1-1.1-1.7c-0.4-0.6-0.7-1.2-1-1.9c-0.1-0.2-0.2-0.4-0.3-0.6c-0.5-1.1-1.1-2.3-1.7-3.4l-0.3-0.6l-0.5-0.9
			c-2.5-4.4-5-9-6.6-14c-3.4-9.7-3.6-18.5-0.8-26.8c0.4-1.2,0.7-2.4,1-3.6c0.1-0.5,0.2-0.9,0.3-1.3l0.1-0.4c0.2-0.9,0.4-1.8,0.6-2.7
			l0.1-0.2c0.1-0.3,0.2-0.7,0.3-1.1c0.2-0.3,0.3-0.6,0.5-1c0.1-0.3,0.3-0.6,0.4-0.9c0.3-0.6,0.6-1.4,0.8-1.9
			c1.7-4.8,4.2-9.2,7.4-12.9c2.1-2.4,4.2-4.8,6.3-7.2l0.7-0.8c0.6-0.7,1.2-1.4,1.8-2c0.6-0.7,1.2-1.4,1.8-2c2.7-3,5.8-5.7,9.1-7.9
			c1.6-1,3.2-2.1,4.7-3.1c1.6-1,3.2-2.1,4.8-3.1c1.9-1.3,3.9-2.6,5.9-3.8c1.2-0.8,2.4-1.6,3.6-2.3c5.9-3.7,12.3-7,19.7-9.9
			c5.2-2,9.9-3,14.5-3c0.4,0,0.8,0,1.3,0c2.4,0.1,4.8,0.2,7.1,0.2c1.2,0,2.4,0,3.5,0.1c1.2,0,2.4,0.1,3.6,0.1c2.3,0,4.7,0.1,7,0.2
			l0.3,0c2.5,0.1,5,0.2,7.5,0.5c9.2,0.9,18,3.9,26.2,9c2.6,1.6,4.7,3.5,6.4,5.6c2.2,3.1,2.3,6.4,0.4,9.5c-0.6,1-1.3,2-2,3
			c-0.1,0.2-0.3,0.5-0.4,0.7c-0.2,0.2-0.3,0.5-0.5,0.7l-0.1,0.1l0,0.1c0.3,1,0.6,2,0.8,3l0.2,0.8c0.4,1.6,0.9,3.3,1.4,4.9
			c1.4,4.2,3,8.9,5,14.6c0.4,1.2,0.8,2.4,1.3,3.7c0.4,1.2,0.8,2.4,1.2,3.6c0.1,0.2,0.1,0.4,0.2,0.6c0.1,0.2,0.1,0.4,0.2,0.6
			c0.1,0.2,0.1,0.4,0.2,0.6c0.2,0.7,0.5,1.4,0.6,2.1c0.4,2.6,0.8,5.4,1.1,8c0.3,2.6,0.7,5.4,1.1,7.9c0.2,1.4,0.3,2.8,0.4,4.2
			l0.1,0.8c0.2,2.3,0.3,4.7,1.3,6.9c0.2,0.4,0.1,1,0,1.6c-0.1,0.6-0.1,1.3-0.1,2c0,1.4-0.1,2.8-0.2,4.1c-0.5,5.7-1.7,10.3-3.8,14.6
			c-1.5,3-3.3,6.4-5.7,10.3c-2.1,3.6-4.8,6.7-7.8,9c-5.4,4.3-12.8,9.7-21.6,12.7c-1.9,0.6-3.8,1.3-5.8,2c-0.7,0.3-1.5,0.6-2.3,0.9
			l-0.2,0.1v0.2l0,1.8l0,0.6c0.1,4.1,0.2,8.4,0.4,12.8c0.1,2,0.4,4.1,0.7,6c0.5,3.4,2,4,4.7,4l0.6,0c16.6,0.1,33.8,0.2,50.3,0.4
			c4.2,0.1,8.5,0.1,12.7,0.1c4.2,0,8.4,0,12.6,0.1l0.2,0c8.5,0.1,17.3,0.2,26.1,0.2c8.7,0,17.5,0.1,26,0.2l0.3,0h2.4h0.2l0-0.2
			c0.1-0.5,0.1-0.9,0.1-1.3c0-1.2,0.1-2.3,0.2-3.4c1.1-8.1,3.2-15.5,6.6-22.6c3.6-7.5,9.1-14.2,17.5-21c0.8-0.5,1.6-1,2.6-1.6
			c0.9-0.5,1.7-0.9,2.6-1.4c0.9-0.5,1.8-0.9,2.6-1.4l0.1-0.1v-0.1v-3.4c0-0.8,0-1.5,0-2.3c0-1.5,0-3,0-4.5l0.6-6.6
			c0-0.5,0.1-1.1,0.1-1.6c0-0.5,0.1-1.1,0.2-1.6l0-0.2l-0.2-0.1c-0.8-0.2-1.4-0.4-2-0.6c-3.5-1.1-7-2.2-10.2-3.2
			c-1.3-0.4-2.7-0.8-4.1-1.3c-2-0.6-4-1.2-6-1.8c-0.5-0.1-0.8-0.3-1.3-0.7c-0.5-0.3-1-0.6-1.5-0.9c-1.3-0.8-2.6-1.6-3.8-2.6
			c-1.6-1.1-3.6-2.5-5.1-4.2c-2.1-2.3-4-4.7-5.9-7.1l-1.2-1.6l0,0l0,0c-0.2-0.2-0.4-0.5-0.6-0.9c-0.1-0.1-0.1-0.2-0.2-0.3
			c0-0.1-0.1-0.1-0.1-0.2c-0.1-0.1-0.2-0.3-0.3-0.4c-0.2-0.4-0.5-0.8-0.7-1.3c-0.4-0.6-0.7-1.1-1-1.7c-0.2-0.3-0.4-0.6-0.6-0.9
			c-2.8-4.2-5.6-8.6-7.6-13.7c-2.2-5.8-3.4-12-3.5-18.8c-0.2-10.1,1.1-20.2,3.9-29.9c1.1-3.5,2.9-7.1,5.6-11.1
			c3.6-5.4,7.8-10.4,12.5-15.1c4.7-4.7,9.3-9.1,14.9-12.2c0.4-0.2,0.8-0.4,1.2-0.6c0.4-0.2,0.7-0.4,1.2-0.6c1.9-1.1,4-2.2,6.1-3.2
			c3.4-1.6,6.7-3.1,10.4-4.2c7.7-2.3,15.5-3.5,23.8-3.5c4.8,0,9.8,0.4,14.9,1.2c4.9,0.7,9.4,2.1,13.5,4.1c5.4,2.6,10,6.6,14.4,10.4
			l0.7,0.6c0.4,0.4,0.8,0.7,1.2,1c0.4,0.3,0.7,0.6,1.2,1c3.9,3.3,7,6.8,9.5,10.5c0.9,1.5,1.9,2.9,2.9,4.3c0.6,0.8,1.1,1.6,1.7,2.5
			l0.8,1.2c1,1.3,1.9,2.7,2.9,4.1c0.4,0.5,0.6,0.9,0.7,1.3l0.6,1.8l0.2,0.7c1.2,3.7,2.5,7.4,2.9,11.4c0.1,1.6,0.4,3.4,0.6,5
			c0.1,0.8,0.2,1.5,0.3,2.3c1.2,8,2.1,15.2,1.2,22.8l0,0.1c-0.4,3.5-0.8,7.2-2.1,10.6c-1.2,3.1-2.7,6.5-4.5,10.3
			c-3.4,7.1-7.3,12-12.2,15.6c-0.6,0.4-1.2,0.9-1.7,1.4c-6.2,5.9-13.9,9.3-21.3,12c-0.8,0.3-1.7,0.7-2.5,1c-0.5,0.2-0.9,0.4-1.3,0.6
			c-0.3,0.1-0.6,0.3-0.9,0.4c-0.3,0.1-0.7,0.3-1,0.4l-0.1,0.1l0,0.1c-0.6,4.2-0.6,19.2-0.1,21.8l0,0.2h0.2h1.6c0.4,0,0.9,0,1.3,0
			c0.4,0,0.8,0,1.1,0c0.4,0,0.8,0,1.2,0c3.7,0.3,6.2,1.9,7.8,4.8c1.1,2,2.3,4,3.4,6c1.1,2,2.3,4,3.4,6c1.1,2,2.3,4,3.4,6
			c1.1,2,2.3,4,3.4,6c1.6,3.1,2.6,5.4,3.4,7.6c1.6,4.1,1.9,8.4,2.3,12.7l0.1,1l0.1,1c0,0.4,0.1,0.8,0.1,1.2c0,0.4,0.1,0.8,0.1,1.2
			c0.1,0.4,0.1,0.7,0.1,1.1c0,0.4,0,0.8,0.1,1.2l0,0.2l0.2,0c6.4,0,12.9,0.1,19.2,0.2c6.3,0.1,12.8,0.2,19.2,0.2l36.8,0.3l0.2,0
			l0.1-0.1c2.5-5.3,5.9-9.2,10.3-12c8.7-5.4,15.6-8.8,22.5-10.9c1-0.3,1.3-0.7,1.6-1.6c0.1-0.7,0.2-1.3,0.4-1.9
			c0.1-0.3,0.1-0.6,0.2-0.8c0.3-0.8,0.5-1.6,0.6-2.4c0.2-0.8,0.2-1.6,0.2-2.3v-0.2l-0.2-0.1c-5.6-2.4-12.2-8.7-16.2-13.3
			c-3.1-3.8-5.4-7.8-8.3-13c-2.3-4.1-4-8.7-5.3-14.6c-1.3-5.9-1.8-12.3-1.7-20.9c0-1.1,0.2-2.2,0.4-3.1c0.9-3.6,1.7-7.3,2.5-10.8
			l0.3-1.3c0.5-2.4,1-4.9,1.6-7.2c0-0.3,0.1-0.6,0.1-0.8c0.1-0.3,0.1-0.6,0.1-0.8c0.1-0.4,0.2-0.8,0.3-1.2c0.4-1.8,0.8-3.8,1.6-5.4
			c3.8-8.4,8.5-14.9,14.1-20c1.9-1.7,3.8-3.4,5.7-5c0.7-0.5,1.4-1,2.1-1.4c0.8-0.5,1.6-1,2.5-1.4c1.1-0.6,2.2-1.2,3.2-1.8l0.5-0.3
			c4.2-2.4,8.9-5.2,14-6.9c8.2-2.7,15.8-4,23.3-4c4,0,8,0.4,11.9,1.2c7.2,1.5,12.5,3.7,16.7,6.8c7.8,5.6,16.3,11.9,26.9,19.9
			c0.9,0.7,1.8,1.4,2.3,2.2c5.6,8.2,8.7,15,10,22.1c0.2,1,0.3,2,0.4,3.1c0.1,0.5,0.1,1,0.2,1.5c0.1,1.2,0.2,2.3,0.4,3.5
			c0.9,7.5,1.8,16.2,0.7,25.3c-0.1,0.2-0.1,0.3-0.1,0.5c0,0.1,0,0.3-0.1,0.4l0,0l0,0c0,0.3-0.1,0.6-0.1,0.9
			c-0.1,0.6-0.2,1.1-0.2,1.7c0,3.2-0.8,6.3-2.4,9.5c-2.3,4.3-5.1,9.3-8.2,13.9c-2,3-5.1,7.3-9.5,10.1c-4,2.7-8.4,5.5-13.7,8.5
			c-4.7,2.8-9.8,4.5-14.4,6l-2,0.7c-4.4,1.4-8.3,2.2-12.2,2.5c-1.8,0.2-3.8,0.3-5.7,0.4l-0.3,0l-0.1,0l-0.1,0.1
			c-0.5,0.8-1,1.7-1.4,2.5c-0.3,0.5-0.5,0.9-0.8,1.3l-0.1,0.2l0.2,0.1c4.2,2.9,7.3,5.6,9.6,8.5c3.4,4.2,7.7,7.3,13.3,9.7
			c1,0.4,1.8,1,2.7,1.9c1.3,1.3,2.4,1.8,4,1.8c30.9,0.2,62.3,0.5,91.8,0.8c1.4,0,2.8,0.1,4.1,0.2c0.9,0.1,1.8,0.2,2.7,0.2
			c0.4,0,1,0,1.3-0.2c2.1-1.1,3.4-2.4,3.4-5c0.2-14.5,0.4-31.1,0.8-49.3c0.1-6.2,0.2-12.5,0.4-18.5c0.1-6.1,0.2-12.4,0.4-18.6
			c0.1-6.2,0.2-12.5,0.3-18.5c0.1-6.1,0.3-12.4,0.4-18.6c0.1-5.7,0.2-11.5,0.3-17.1c0.1-5.5,0.1-11.3,0.2-16.9
			c0.1-11.5,0.3-23.4,0.5-34l2.7-184.9c0.2-15.8,0.5-32,0.8-47.6c0.3-15.6,0.6-31.8,0.8-47.6c0.1-0.4,0.1-1.1,0.1-1.9v-0.2l-0.2,0
			l-0.8-0.2c-0.7-0.1-1.3-0.3-1.9-0.3l-7.4-1.2l-0.2,0c-0.4-0.1-0.8-0.2-1.2-0.2c-7.3,0.1-15.4,0.2-25.6,0.5L775,59.6l-6.9,0.1
			l-13.8,0.2c-3.3,0-6.7,0.1-10,0.2c-3.5,0.1-7.1,0.2-10.6,0.2L670,61.5l-6.9,0.1l-13.8,0.2c-3.3,0-6.7,0.1-10,0.2
			c-3.5,0.1-7.1,0.2-10.6,0.2l-62.8,1.2c-13.3,0.3-26.7,0.5-39.8,0.7l-2.2,0l-63.5,1.2c-6.7,0.2-13.5,0.3-20.1,0.4l-0.6,0l-0.8,0
			c-6.5,0.1-13.1,0.2-19.8,0.4l-63.7,1.2c-6.6,0.2-13.3,0.3-19.8,0.4l-0.6,0c-4.5,0-9.1,0.1-13.6,0.2c-2.3,0-4.6,0.1-6.8,0.1
			c-25.9,0.5-56.5,1.2-86.9,1.7l-68.1,1.2c-0.4,0-0.8,0-1.4,0.1l-0.2,0v0.2v2.5l0.3,44.1c0,14.6,0.1,29.4,0.2,43.8
			c0.4,66.7,0.9,134,1.4,196.8l0.9,138.2c0.1,10.7,0.1,21.6,0.1,32.2c0,0.7,0,1.6,0.1,2.5v0.4v0.2l0.2,0c25,0.5,50.4,0.7,74.9,0.9
			l1.8,0c20.6,0.1,41.3,0.3,61.4,0.6L299.4,533.5 M464.8,360.8c-0.1,0.1-0.1,0.1-0.1,0.2c0,0,0,0.1-0.1,0.1
			c-0.2,0.3-0.4,0.6-0.6,0.8c-2.4,2.9-3.9,5.8-4.7,8.9c-0.1,0.4-0.2,0.9-0.3,1.3c-0.1,0.4-0.2,0.9-0.3,1.3
			c-0.9,3.7-1.8,7.6-2.4,11.5c-1.2,9.6-1.8,20.9,2.7,32.1c1.4,3.3,2.7,5.8,4.2,8.1c0.3,0.4,0.5,0.7,0.8,1c0.2,0.3,0.5,0.6,0.8,1
			l0.1,0.2c1,1.3,2,2.6,2.7,4.1c1.5,3.1,3.7,6.1,6.5,9.3c4.3,4.9,9.3,8.3,14.9,10.2c5.2,1.7,10.5,3.2,15.7,4.7l2.7,0.7l1.4,0.4
			c2.2,0.6,4.4,1.2,6.5,1.8c0.6,0.2,1.4,0.3,2.1,0.4c1.6,0.2,3.3,0.3,5,0.3c9.3,0,18.1-2.9,26.3-5.8c3.3-1.2,6.7-2.7,10-4.2l0.2-0.1
			c0.9-0.4,1.7-0.8,2.6-1.2c1-0.5,2.1-1,3.2-1.4c3.1-1.3,5.9-3,8.5-5.1c0.5-0.4,1.1-0.9,1.7-1.4c0.5-0.4,1-0.9,1.5-1.3
			c1-0.9,2.1-1.8,3.2-2.7c2.2-1.8,4-3.9,5.2-6.1c2.3-4.3,4.5-8.4,6.4-12.3c1.5-3.2,2.5-6.7,2.9-10.5c1.1-8.5-0.2-17.3-1.3-25.1
			c-0.1-0.6-0.2-1.3-0.3-2c-0.1-0.7-0.2-1.4-0.3-2c0-0.8-0.5-1.2-1.2-1.7c-1.5-0.9-3.1-2-4.7-3.2c-0.7-0.4-1.4-0.9-2.1-1.4
			c-0.3-0.2-0.6-0.4-0.9-0.6c-0.3-0.2-0.6-0.5-0.9-0.7c-0.3-0.2-0.6-0.4-0.9-0.6c-0.9-0.6-1.8-1.2-2.7-1.7
			c-7.6-3.5-15.5-7.2-22.9-11.4c-1-0.7-2.1-1.1-3.1-1.5c-3.8-1.2-7.1-3-11-5.3c-4.8-2.8-9.2-4.1-13.7-4.1c-0.7,0-1.4,0-2.1,0.1
			c-1.8,0.1-3.5,0.2-5.2,0.2c-0.5,0-0.9,0-1.3,0.1c-0.4,0-0.8,0-1.3,0c-4.7,0.1-9.5,1.4-14.6,3.9c-8.2,4-14.3,8.6-19.2,14.4
			c-1,1.2-2.1,2.3-3.2,3.2c-0.5,0.4-1.1,0.6-1.6,0.6c-0.6,0-1.2-0.2-1.6-0.7c-0.8-0.7-1.1-1.9-0.6-3c0.2-0.5,0.5-1,0.8-1.3l0.3-0.3
			c0.9-1,1.8-1.9,2.7-2.8c5.6-6.5,13-11.6,23.3-16.2c4.1-1.8,8.6-2.8,13.3-3c1.5-0.1,2.9-0.1,4.4-0.1c2.2,0,4.4,0,6.6-0.1
			c0.2,0,0.5,0,0.7,0c3.1,0,6.2,0.7,9.4,2c2.1,0.8,4.1,1.9,6,3c0.3,0.1,0.6,0.3,0.9,0.5c0.3,0.2,0.6,0.4,0.9,0.5
			c1.3,0.7,2.6,1.4,3.9,2c0.7,0.3,1.4,0.6,2.1,0.9c0.7,0.3,1.5,0.7,2.1,0.9c0.9,0.4,1.7,0.8,2.6,1.2c0.9,0.4,1.7,0.8,2.6,1.2
			c4.5,2.1,8.4,4.1,12,5.9c3.9,1.7,11.4,5.1,17.9,8.8l0.5,0.3l-0.2-0.6c-0.7-2.4-3.2-6.3-4.7-8.4c-0.8-1.1-1.7-2.4-2.6-3.5l-0.7-0.9
			c-1.9-2.5-3.8-5-5.3-7.8c-0.3-0.6-0.6-1.1-1.1-1.5c-0.1-0.1-0.2-0.2-0.3-0.3c-0.3-0.3-0.6-0.6-0.8-0.9c-3.2-3.5-7.1-6.5-10.4-9
			c-1.1-0.9-2.3-1.8-3.5-2.7c-2.9-2.2-6-3.7-9.3-4.6c-1.7-0.5-3.4-0.9-5.1-1.2c-0.3,0-0.6-0.1-0.9-0.2c-0.3-0.1-0.6-0.2-0.9-0.2
			c-4.6-1-9.5-1.5-14.5-1.5c-5,0-10.4,0.5-15.9,1.5c-7.1,1.3-13.3,3.6-18.9,6.9c-0.5,0.3-1.1,0.6-1.7,0.9c-0.6,0.3-1.2,0.6-1.7,0.9
			l-0.8,0.4c-1.8,1-3.6,1.9-5.1,3.1C477.3,345.1,470.3,352.4,464.8,360.8 M245.8,447.6c2.8,0,5.5-1,8-3.1c2.1-1.7,3.9-3.7,5.8-5.8
			c1.2-1.4,2.3-3,3.3-4.5c0.2-0.3,0.4-0.5,0.6-0.8c0.2-0.2,0.3-0.5,0.5-0.7c2-2.7,3.9-4.7,6.1-6.2c5.4-3.6,10.5-6.1,15.7-7.7
			c0.8-0.2,1.5-0.4,2.3-0.7c0.8-0.2,1.5-0.4,2.3-0.7c3.7-1.1,7.5-2.2,11.1-3.2c1-0.3,2-0.5,3.1-0.6c0.4,0,0.7,0,1.1-0.1
			c0.3-0.1,0.6-0.1,0.9-0.2c0.3,0,0.5-0.1,0.8-0.1c1.2-0.1,2.3-0.3,3.4-0.6c7.3-2.3,14.4-5.4,21.6-9.6c2.1-1.2,4.2-2.4,6.3-3.6
			c1.5-0.8,3-1.7,4.5-2.5c4.1-2.2,8.1-4.4,12.3-6.7c1.6-0.9,3.2-1.8,4.8-2.7c2.6-1.5,4.3-3,5.3-4.9c0.9-1.8,0.7-3.8-0.4-5.1
			c-0.6-0.7-1.4-1.5-2.3-2l-0.5-0.3c-4.2-2.7-8.1-5.2-12.9-6.6c-7.1-2.2-13.7-3.2-20.4-3.2c-0.3,0-0.6,0-0.9,0
			c-5.7,0-10.6-0.2-15.9-0.5c-1-0.1-2.1-0.1-3.1-0.1c-5.2,0-9.8,0.9-14,2.7c-2.1,0.8-4.2,1.8-6.3,2.8l-1.6,0.8
			c-6.8,3.2-13.3,7.3-19,11l-2.1,1.3c-3.9,2.4-9,5.7-13.4,9.7c-6.2,5.6-11.5,11.6-15.9,18c-2.7,3.8-4.3,8.3-5.8,12.6l-0.2,0.6
			c-0.8,2.4-1.4,4.9-2,7.2c-0.4,1.2-0.7,2.4-1,3.6l0,0v0c0,0.3-0.1,0.8-0.2,1.3c0,0.1,0,0.2,0,0.2c0,0.1-0.1,0.2-0.1,0.4v0.1
			l0.1,0.1c1.5,0.9,2.5,1.6,3.3,2.3c0.5,0.4,0.9,0.7,1.4,1.1c0.5,0.3,0.9,0.7,1.4,1c1.8,1.4,3.3,2.5,4.7,3.4
			C240.9,446.8,243.4,447.6,245.8,447.6 M797.8,451.1h3.2h0.1l0.1-0.1l0.1-0.1l0.1-0.1v-0.1c0-0.2,0.1-0.4,0.1-0.7l0.1-0.2l0,0l0,0
			c0.3-7.9-0.7-15.9-1.9-24.8c-0.9-7.4-4.5-13.8-7.8-19c-1.1-1.6-2.2-2.8-3.3-3.5c-1.4-1.1-2.8-2.1-4.2-3.1c-1.4-1-2.8-2-4.2-3.1
			c-5.1-3.7-9.4-6.9-13.6-10.2c-4.6-3.4-8.8-5.6-13.3-7c-4.4-1.3-8.2-2.1-11.9-2.4c-1.4-0.1-2.8-0.1-4.2-0.1
			c-6.1,0-12.3,0.9-18.7,2.9c-4.9,1.5-9,3.3-12.7,5.7l-0.2,0.1l0.1,0.2c0.3,0.5,0.7,1.1,0.9,1.4l0.1,0.2c1.4,2.3,2.7,4.4,4.7,5.9
			c5.2,4,10.8,8,17.2,10.7c1.8,0.8,3.7,1.6,5.6,2.4c4.1,1.7,8.9,3.8,13.6,6.1c5.4,2.6,10.9,6.3,17.7,12c1.2,1,2,2.1,2.7,3.1
			c0.8,1.2,1.6,2.6,2.3,4c1.3,2.3,2.6,4.6,4,6.7c2.2,3.2,4.7,6.2,7.1,9.1l0.4,0.5c0.8,1,3,3.4,6.1,3.5
			C791.5,451.1,794.6,451.1,797.8,451.1 M739.5,506.3c0.3,0,0.5,0,0.8,0c8.1-0.2,15.6-3,22.9-5.8l0.6-0.2c4.8-2,9.3-4.9,13.1-7.4
			c0.4-0.3,0.9-0.6,1.3-0.9c1.3-0.8,2.6-1.7,4-2.5c0.7-0.4,1.5-1.1,2.2-1.8c4.2-4.1,7.1-7.8,9.3-11.9c0.9-1.6,1.9-3.3,3.1-5.3
			c2.6-4.1,3.7-8.6,3.4-13.3l0-0.2H800l-2.3,0c-2.8-0.1-6-0.2-9.2-0.2c-2.4,0-4.7-0.8-6.7-2.3c-1.6-1-3.2-2.2-4.6-3.7
			c-5.3-5.6-9.2-12.3-13.5-19.7c-0.6-1.1-1.4-2.3-2.2-3.1c-6.6-6.1-15-11.1-26.5-15.6c-10.2-4-18.3-8.3-25.4-13.8
			c-2.3-1.6-4.2-3.6-5.9-6.1c-1-1.6-1.9-2.9-2.9-4.4l-0.1-0.2l-0.2,0.1l-1.8,1.2c-0.5,0.3-1,0.7-1.5,1c-1.2,0.8-2.4,1.6-3.4,2.4
			c-5.5,4.2-10.1,9.3-13.5,15c-1.8,2.8-3.6,5.8-4.4,9.2c-0.5,2-0.9,4-1.4,6c-0.5,2-0.9,4-1.4,6l-0.9,4l-1.8,8
			c-0.3,1.2-0.4,2.7-0.5,4.1c-0.1,7.4,0.7,14.3,2.4,21c0.6,2.6,1.8,5.3,2.6,7.2c0.6,1.3,1.3,2.6,2.1,4c0.2,0.4,0.4,0.7,0.6,1
			c0.2,0.3,0.4,0.6,0.6,1c3.8,7.1,9.1,13.1,16.3,18.5c1.4,1.1,3.1,1.8,5.2,2.3l1.2,0.2c4.3,0.8,8.7,1.6,13.1,2.4
			c5.1,0.9,10.3,1.9,15.5,2.8c0.3,0,0.7,0.1,1,0.1c0.3,0.1,0.7,0.1,1,0.1C733.9,505.8,736.6,506.3,739.5,506.3 M350.9,399.4
			L350.9,399.4L350.9,399.4l-0.1,0c-0.9,0.5-1.7,0.9-2.5,1.4c-0.8,0.4-1.6,0.9-2.5,1.4c-0.8,0.4-1.6,0.9-2.4,1.3
			c-2.5,1.4-5.1,2.8-7.6,4.1c-6.3,3.3-11.1,5.7-15.5,7.7c-3.9,1.6-9.2,3.9-15,3.9c-0.1,0-0.3,0-0.4,0c-0.4,0-0.7,0.1-1,0.2l-0.2,0.1
			c-0.8,0.2-1.7,0.5-2.5,0.7c-0.8,0.2-1.7,0.5-2.6,0.7l-1.9,0.6c-3.2,0.9-6.5,1.9-9.6,2.9c-7.5,2.5-15.9,6.3-20.9,15.2
			c-1.8,3.2-4.5,5.8-7.6,8.6c-3.7,3.4-7.8,5.1-12.5,5.1c-1,0-2.1-0.1-3.1-0.2c-2-0.3-4-0.7-5.8-2c-1.5-1-2.9-2-4.3-3
			c-1.4-1-2.8-2-4.3-3c-0.3-0.3-0.6-0.5-1.1-0.7l-0.4-0.2v0.4l0,1.3c0.5,4.1,1.2,7.3,2.2,10.2c1.2,3.5,3,7,4.8,10.2
			c0.3,0.5,0.6,1.1,0.8,1.6c1,1.7,2,3.6,3.1,5.8c1.9,3.9,4.8,7.4,9.1,10.6c1.9,1.5,4,2.9,5.9,4.2l0.9,0.6c0.6,0.4,1.1,0.8,1.7,1.2
			c0.6,0.4,1.1,0.8,1.7,1.2c5.7,4,11.8,6.9,18.7,8.6c1.2,0.3,2.4,0.6,3.6,1c1.7,0.4,3.4,0.9,5,1.3c0.5,0.1,1.1,0.2,1.6,0.3
			c0.5,0.1,1.1,0.3,1.7,0.4c0.3,0,0.7,0.1,1,0.2c1.1,0.3,2.2,0.5,3.4,0.6h24.9h12.5c2.6,0,5.3-0.5,8.8-1.5c6.8-2,13.6-5.6,21.4-11.3
			c4.5-3.3,8-7.8,11-14l0.3-0.7l-0.6,0.3c-0.2,0.1-0.4,0.2-0.6,0.2c-0.2,0.1-0.5,0.2-0.7,0.3c-0.8,0.3-1.9,0.7-3.1,1.1
			c-0.6,0.2-1.2,0.5-1.8,0.7c-0.6,0.2-1.3,0.5-1.9,0.7c-3.7,1.5-7.4,2.8-11.3,3.2c-3.5,0.3-7.2,0.6-11.1,0.6c-3.4,0-6.5-0.2-9.3-0.7
			c-8.7-1.4-16.7-4.8-23.7-10.1c-0.4-0.3-0.7-0.5-1.1-0.7c-0.3-0.2-0.7-0.4-1-0.7l-1.1-0.8l-1-0.7c-1-0.7-1.3-1.7-0.9-2.9
			c0.4-1.1,1.3-1.8,2.4-1.8c0.1,0,0.3,0,0.4,0c0.7,0.1,1.4,0.4,2.1,0.9c1.2,0.8,2.4,1.6,3.6,2.5c6.7,5.1,14.2,8.1,22.2,9
			c2.1,0.2,4.3,0.3,7.1,0.3c2,0,4,0,5.7-0.1c1.1-0.1,2.2-0.1,3.3-0.1c2.5-0.1,4.7-0.5,6.7-1.1c2.2-0.7,4.3-1.5,6.4-2.3l0.5-0.2
			c3-1.2,6.1-2.3,9.2-3.2c3.2-0.9,4-2.6,4.6-5.4c0.7-3.3,1.4-7,1.1-10.6c-0.7-7.3-1.3-12.9-1.9-17.7c-0.1-0.9-0.2-1.7-0.3-2.5
			c-0.6-4.5-1.2-8.2-2.3-11.8c-1.1-4.1-2.5-8.1-3.9-11.9c-1.7-4.8-4-11.2-5.6-18l-0.1-0.3l-0.3,0.2l-0.3,0.1
			c-1.2,0.6-2.2,1.2-3.2,1.6C356.3,396.1,353.3,397.9,350.9,399.4 M522.6,464.9c-3.7,0-7.4-0.5-10.9-1.4l-0.3-0.1l0,0.3
			c-1.1,5.7-1.3,11.5-0.7,17.3l0,0.2l0.2,0c2.7,0.4,5,0.8,7.3,1.2l1.5,0.3c0.2,0.1,0.3,0.1,0.4,0.1c0.1,0,0.2,0,0.4,0.1
			c0.2,0,0.5,0.1,0.7,0.1c0.4,0.1,0.9,0.2,1.3,0.2c0.6,0,1.3,0,2,0c0.7,0,1.4,0.1,2,0.1c2.9,0.1,5.8,0.1,8.7,0.1c1.3,0,2.5,0,3.6,0
			c1.2,0,2.5-0.3,3.7-0.5c0.3-0.1,0.6-0.1,0.9-0.2c0.9-0.3,1.6-0.4,2.3-0.5l0.2,0V482v-21.3v-0.3l-0.3,0.1
			C539,462.7,531,464.9,522.6,464.9 M535.7,488.9c-0.4,0-0.8,0-1.2,0h-3.3l-1.6,0c-0.4,0-0.8,0-1.2,0c-4.2,0-8.6-0.5-13.2-1.4
			c-1.2-0.3-2.5-0.4-3.7-0.4c-2.4,0-4.7,0.5-6.8,1.5c-3.3,1.5-6.5,3.8-9.2,6.7l-2.1,2.4c-1.6,1.7-3,3.3-4.1,4.8
			c-1.7,2.2-3.1,4.7-4.7,7.7c-2.7,5.2-4.2,10.7-5.6,17.4c-0.5,2-1,4.7-0.5,7.7l0,0.2l0.2,0c36.2,0.1,67.1,0.4,100.4,0.8l0.3,0l0-0.3
			c-0.1-2.9-0.3-5.5-0.5-8.2l0-0.4c-0.5-5.5-1.6-9.6-3.5-13c-3.1-5.5-6.2-11.1-9.3-16.5c-1.9-3.3-3.8-6.6-5.6-9.9
			c-0.8-1.4-2-2.2-3.4-2.2c-0.1,0-0.2,0-0.2,0l-0.1,0c-2.1,0.1-4.3,0.2-6.2,0.7C546.3,487.7,541.1,488.9,535.7,488.9 M707.8,537.6
			l0.1-0.1c0.2-0.1,0.4-0.3,0.6-0.4c0.2-0.2,0.5-0.3,0.7-0.5c0.2-0.2,0.5-0.3,0.7-0.5c0.8-0.5,1.6-1.1,2.3-1.7
			c1.9-1.7,3.8-3.4,6-5.6l1.9-1.9c0.8-0.8,1.5-1.5,2.1-2.4c2.9-4.1,5.7-8,8.1-11.6c0.4-0.5,0.7-1.1,1-1.7l0.1-0.3l-0.3-0.1
			c-4.7-0.9-9.3-1.7-14-2.5c-2.8-0.5-5.7-1-8.6-1.6l-6.2-1.1l-0.2,0l0,0.2c-0.3,1.8-0.7,3.4-1.1,4.9l-0.3,1.3
			c-1.2,4.6-1.7,8.6-1.4,12.5c0.3,5.8,3,10,8.3,13.1L707.8,537.6 M306.2,533.8h0.3h24.7h0.2v-0.2c0-0.6-0.1-1.1-0.2-1.6
			c-0.3-2.8-0.6-5.6-0.8-8.5v-3.9l0-2c-0.1-1.9-0.2-3.8-0.4-5.7c0-0.4-0.1-0.9-0.1-1.4c0-0.5-0.1-1-0.1-1.4l0-0.2h-0.2h-19.8h-0.2
			v0.2v0.6c0,0.2,0,0.4,0,0.6c0,0.4,0,0.7,0,1.1c-0.1,0.7-0.2,1.4-0.3,2.1c-0.1,0.7-0.1,1.4-0.2,2.1l-0.1,0.7
			c-0.3,2.4-0.6,4.8-0.9,7.2c-0.3,2.1-0.7,4-1,6.1c-0.1,0.6-0.2,1.3-0.4,1.9l-0.4,2L306.2,533.8 M697.9,537.2l-0.2-0.4
			c-0.1-0.3-0.3-0.6-0.4-0.8c-0.1-0.3-0.3-0.6-0.4-0.8l-0.2-0.6c-0.8-1.8-1.7-3.7-2.1-5.7c-0.4-1.8-0.6-3.8-0.7-6.2
			c0-0.4-0.1-0.9-0.1-1.3c0-0.4-0.1-0.9-0.1-1.3l0-0.2h-0.2c-0.2,0-0.3,0-0.4,0.1c0,0,0,0,0,0c-0.4,0-0.8,0.2-0.9,0.2
			c-6.4,2.3-12.6,5.5-18.9,9.8c-1.6,1-2.8,2.4-4.1,3.9l-0.1,0.1c-0.2,0.3-0.5,0.6-0.8,0.8c-0.3,0.3-0.6,0.6-0.8,0.9l0,0l0,0
			c0,0.1-0.1,0.1-0.1,0.2c-0.1,0.2-0.3,0.5-0.4,0.8l-0.1,0.3l0.4,0l30.4,0.1L697.9,537.2 M753,537.9l-1-0.5c-0.1,0-0.2-0.1-0.3-0.2
			c-0.1-0.1-0.2-0.2-0.3-0.2c-0.4-0.2-0.7-0.4-1-0.6c-3.1-1.9-6.1-4.3-8.6-7.2c-2.1-2.2-4.5-4.5-7-6.9c-0.9-0.8-2-1.3-3.1-1.3h-0.1
			l-0.1,0.1c-0.2,0.3-0.4,0.6-0.6,0.8c-0.2,0.3-0.4,0.6-0.6,0.9c-1.7,2.4-3.4,4.8-5.3,7c-1.8,2-3.9,3.9-5.7,5.5
			c-0.8,0.7-1.4,1.2-1.8,1.6l-0.4,0.4l0.6,0c9.4,0.2,21.7,0.4,34.2,0.5L753,537.9 M864.1,52.5c-8.3,0.1-16.8,0.3-24.9,0.5h-0.5
			c-10.6,0.2-21.3,0.4-32,0.6c-10.7,0.2-21.4,0.4-32,0.5c-11.2,0.2-22.3,0.4-33.5,0.6c-11.1,0.2-22.3,0.5-33.4,0.6
			c-10.8,0.2-21.5,0.4-32.2,0.6c-10.8,0.2-21.5,0.4-32.3,0.5c-11.1,0.2-22.1,0.4-33.2,0.6c-11.1,0.2-22.1,0.5-33.2,0.6
			c-12.6,0.2-25.1,0.4-38.1,0.6c-9.2,0.1-18.6,0.3-28.2,0.5c-11.8,0.2-25.6,0.6-39,1c-10.6,0.2-21.2,0.4-31.8,0.6
			c-10.6,0.2-21.3,0.4-31.9,0.5c-11,0.2-22.1,0.4-33.2,0.6c-11.3,0.2-22.6,0.5-33.9,0.7c-10.8,0.2-21.6,0.4-32.3,0.6
			c-10.7,0.2-21.4,0.3-32.2,0.5c-12.4,0.2-24.9,0.5-37.3,0.7c-12.5,0.2-24.9,0.4-37.4,0.7c-7,0.2-14,0.3-21,0.4
			c-7,0.1-14,0.2-21,0.4c-1.6,0-3.4,0.4-5.5,1.3c-1.7,0.6-2.4,2.1-2,4c0.1,0.9,0.2,1.4,0.3,1.9c0.2,1.1,0.4,2.3,0.4,3.4
			c0.1,3.7,0.1,7.3,0.1,11s0,7.3,0.1,11c0.4,69.7,0.9,140.5,1.4,209l1.2,199.5c0,4.4,0.1,8.8,0.1,13.1c0,4.3,0.1,8.7,0.1,13
			c0,2.4,1.1,4,3.3,4.8c0.9,0.3,1.8,0.6,2.7,0.6c3.8,0.2,7.8,0.4,11.7,0.4c10.5,0.1,21,0.2,31.5,0.2s21,0.2,31.5,0.2
			c46.6,0.5,92.7,0.9,137.3,1.3c14.5,0.2,29.1,0.3,43.4,0.4c14.2,0.1,28.9,0.2,43.3,0.3c22.8,0.2,45.6,0.4,68.4,0.6
			c23.3,0.2,46.5,0.5,69.8,0.7c15.7,0.1,31.3,0.3,47,0.4c15.8,0.1,31.5,0.3,47.3,0.4h1.2c51.1,0.4,103.9,0.8,155.8,1.3
			c0.9,0,1.7,0,2.6,0c0.8,0,1.7,0,2.5,0c2.4,0,4.8,0.2,7.2,0.7c0.2,0,0.4,0,0.6,0c0.5,0,1-0.1,1.4-0.1c5.2-0.8,9.2-5.4,9.3-10.7
			c0.2-6.4,0.3-13,0.4-19.3v-0.2c0.3-18.7,0.7-37.4,1-56.1c0.3-18.7,0.6-37.5,1-56.2l4.5-252.4l1.5-90.1v-1.7c0-1.6-0.9-2.7-2.5-3.2
			c-0.2,0-0.5-0.1-0.7-0.1c-0.2-0.1-0.5-0.1-0.7-0.2c-1.5-0.2-3-0.5-4.6-0.8c-1.5-0.2-3-0.5-4.5-0.7
			C867.4,52.8,865.8,52.5,864.1,52.5L864.1,52.5z M299.3,533.2c-20.4-0.3-41.2-0.5-61.4-0.6c-25.1-0.2-51.1-0.4-76.7-0.9v-0.4
			c-0.1-0.9-0.1-1.8-0.1-2.5c0-10.6,0-21.5-0.1-32.2l-0.9-138.2c-0.5-64.5-1-131.2-1.4-196.8c-0.1-14.6-0.2-29.2-0.2-43.8
			c-0.1-14.7-0.2-29.4-0.3-44.1v-2.5c0.6-0.1,1-0.1,1.4-0.1l68.1-1.2c28.9-0.5,58.4-1.1,86.9-1.7c6.8-0.1,13.7-0.3,20.4-0.3
			c6.7-0.1,13.6-0.2,20.4-0.4l63.7-1.2c6.9-0.2,13.9-0.3,20.6-0.4c6.8-0.1,13.8-0.2,20.7-0.4l63.5-1.2c13.8-0.2,28-0.4,42-0.7
			l62.8-1.2c6.9-0.1,13.9-0.3,20.6-0.4c6.8-0.1,13.8-0.2,20.7-0.3l63.7-1.2c6.9-0.1,13.9-0.3,20.6-0.4c6.8-0.1,13.8-0.2,20.7-0.3
			l63.5-1.2c7.9-0.2,16.9-0.4,25.6-0.5c0.5,0,0.9,0.1,1.4,0.2l7.4,1.2c0.7,0.1,1.6,0.3,2.6,0.5c0,0.8,0,1.5-0.1,1.9
			c-0.2,15.8-0.5,31.7-0.8,47.6c-0.3,15.9-0.6,31.8-0.8,47.6L871.1,342c-0.2,11.3-0.4,22.7-0.5,34c-0.2,11.4-0.3,22.7-0.5,34
			c-0.2,12.4-0.5,24.7-0.7,37.1c-0.2,12.4-0.5,24.7-0.7,37.1c-0.3,15.3-0.6,32.6-0.8,49.3c0,2.5-1.3,3.7-3.3,4.8
			c-0.3,0.2-0.8,0.2-1.2,0.2c-0.9,0-1.8-0.1-2.7-0.2c-1.3-0.1-2.7-0.2-4.1-0.2c-30.1-0.3-61.2-0.6-91.8-0.8c-1.6,0-2.6-0.5-3.8-1.7
			c-1-1-1.9-1.6-2.8-2c-5.5-2.3-9.8-5.4-13.2-9.6c-2.9-3.5-6.5-6.3-9.7-8.5c0.7-1.2,1.4-2.5,2.2-3.8c2-0.1,4.1-0.2,6-0.4
			c3.9-0.3,7.8-1.1,12.2-2.5l2-0.7c4.8-1.6,9.8-3.3,14.4-6c5.3-3,9.8-5.8,13.7-8.5c4.3-2.8,7.4-6.9,9.6-10.2c3-4.5,5.7-9.3,8.2-13.9
			c1.6-3.2,2.4-6.3,2.4-9.6c0-0.9,0.2-1.7,0.3-2.6c0.1-0.3,0.1-0.6,0.2-0.9c1.1-8.9,0.3-17.4-0.7-25.4c-0.2-1.2-0.3-2.3-0.4-3.5
			c-0.2-1.6-0.3-3.2-0.6-4.7c-1.3-7.1-4.4-14-10-22.2c-0.6-0.9-1.5-1.6-2.4-2.3c-8.7-6.6-17.8-13.4-26.9-19.9
			c-4.4-3.2-9.8-5.3-16.8-6.8c-3.9-0.8-7.9-1.2-11.9-1.2c-7.5,0-15.2,1.3-23.4,4.1c-5.3,1.8-10.2,4.7-14.5,7.2
			c-1,0.6-2.1,1.2-3.2,1.8c-0.8,0.4-1.7,0.9-2.5,1.4c-0.7,0.4-1.4,0.9-2.1,1.4c-1.9,1.6-3.8,3.3-5.7,5c-5.8,5.2-10.4,11.8-14.2,20.1
			c-1,2-1.4,4.4-1.9,6.6c-0.1,0.6-0.2,1.1-0.3,1.7c-0.7,2.8-1.3,5.7-1.9,8.5c-0.8,3.6-1.6,7.2-2.5,10.8c-0.2,1-0.4,2.1-0.4,3.2
			c-0.1,8.5,0.4,15,1.7,21c1.3,6.1,3,10.7,5.3,14.7c2.7,4.8,5.1,9,8.3,13c4,4.7,10.6,11,16.3,13.4c0,0.7,0,1.4-0.2,2.2
			c-0.1,0.8-0.3,1.6-0.6,2.4c-0.2,0.9-0.5,1.8-0.6,2.8c-0.2,0.8-0.5,1.1-1.4,1.4c-7,2.1-14,5.5-22.6,10.9
			c-4.4,2.8-7.8,6.7-10.4,12.1c-12.2-0.1-24.5-0.2-36.8-0.3c-12.8-0.1-25.6-0.3-38.4-0.4c-0.1-0.8-0.1-1.6-0.2-2.3
			c-0.1-0.8-0.1-1.6-0.2-2.4l-0.1-1c-0.4-4.6-0.7-9.3-2.4-13.7c-0.8-2.3-1.9-4.7-3.4-7.6c-2.3-4-4.5-8-6.8-12c-2.3-4-4.5-8-6.8-12
			c-1.6-3-4.2-4.6-8-4.9c-0.4,0-0.8,0-1.2,0c-0.8,0-1.6,0-2.4,0c-0.5,0-1,0-1.6,0c-0.5-2.6-0.5-17.6,0.1-21.7
			c0.6-0.3,1.3-0.5,1.9-0.8c1.2-0.5,2.5-1.1,3.8-1.6c7-2.6,15-6,21.4-12.1c0.5-0.5,1.1-1,1.7-1.4c5-3.6,8.9-8.6,12.3-15.7
			c1.7-3.6,3.2-7,4.5-10.3c1.3-3.5,1.7-7.2,2.1-10.8c0.9-7.8-0.1-15.4-1.2-22.9c-0.3-2.4-0.7-4.9-0.9-7.3c-0.4-4.2-1.8-8.2-3.1-12.1
			c-0.2-0.6-0.4-1.2-0.6-1.8c-0.1-0.5-0.4-1-0.7-1.4c-1.2-1.8-2.5-3.6-3.7-5.3c-1.5-2.2-3.1-4.4-4.6-6.7c-2.4-3.7-5.5-7.2-9.5-10.6
			c-0.8-0.7-1.5-1.3-2.3-2c-4.7-4-9.5-8.2-15.2-11c-4.4-2.1-9-3.4-13.6-4.1c-5.1-0.8-10.1-1.2-15-1.2c-8.3,0-16.2,1.1-23.9,3.5
			c-3.7,1.1-7.2,2.7-10.4,4.2c-2.1,1-4.2,2.1-6.1,3.2c-0.8,0.4-1.5,0.8-2.3,1.2c-5.7,3.1-10.3,7.5-15,12.2
			c-4.7,4.7-8.9,9.8-12.5,15.1c-2.6,3.9-4.5,7.6-5.6,11.2c-2.8,9.8-4.1,19.9-3.9,30c0.1,7,1.3,13.2,3.5,18.9c1.9,5,4.7,9.3,7.6,13.7
			c0.5,0.8,1,1.7,1.6,2.6c0.3,0.6,0.7,1.2,1,1.7c0.1,0.2,0.2,0.3,0.3,0.5c0.2,0.4,0.4,0.8,0.7,1l1.2,1.6c1.9,2.4,3.8,4.8,5.9,7.1
			c1.4,1.6,3.3,3,5.1,4.2c1.7,1.3,3.6,2.4,5.3,3.5c0.5,0.4,0.9,0.6,1.4,0.7c3.4,1,6.8,2.1,10.1,3.1s6.8,2.1,10.2,3.2
			c0.6,0.2,1.2,0.4,2,0.6c-0.1,1.1-0.2,2.1-0.3,3.2c-0.2,2.2-0.4,4.4-0.6,6.6c-0.1,2.3,0,4.5,0,6.8c0,1.1,0,2.2,0,3.4
			c-1.6,0.9-3.4,1.8-5.2,2.8c-1,0.6-1.8,1.1-2.6,1.6c-8.4,6.8-14,13.5-17.6,21.1c-3.3,7-5.5,14.4-6.6,22.7c-0.1,1.1-0.2,2.2-0.2,3.4
			c0,0.4,0,0.8-0.1,1.3h-2.4c-8.8-0.1-17.5-0.2-26.3-0.2c-8.8,0-17.5-0.1-26.3-0.2c-8.4-0.1-16.9-0.1-25.3-0.2
			c-16.7-0.2-33.9-0.3-50.9-0.4c-2.7,0-4-0.6-4.5-3.8c-0.3-2-0.6-4-0.7-6c-0.2-4.6-0.3-9.1-0.4-13.4v-1.8c3-1.1,5.5-2.1,8.1-2.9
			c8.6-2.9,15.8-8,21.7-12.7c3.1-2.3,5.8-5.4,7.9-9.1c2-3.3,4-6.8,5.7-10.3c2-4.1,3.3-8.7,3.8-14.7c0.1-1.3,0.2-2.7,0.2-4.1
			c0-0.7,0-1.4,0.1-2c0.1-0.6,0.2-1.2,0-1.7c-1-2.5-1.1-5.2-1.3-7.7c-0.1-1.4-0.2-2.8-0.4-4.2c-0.4-2.6-0.8-5.3-1.1-7.9
			c-0.3-2.6-0.7-5.3-1.1-8c-0.1-1-0.5-1.9-0.8-2.8c-0.1-0.4-0.3-0.8-0.4-1.2c-0.8-2.4-1.7-4.9-2.5-7.3c-1.7-4.8-3.4-9.7-5-14.6
			c-0.6-1.8-1.1-3.8-1.6-5.7c-0.2-1-0.5-2-0.8-3c0.3-0.5,0.6-0.9,0.9-1.4c0.7-1,1.4-2,2-3c2-3.3,1.8-6.7-0.4-9.8
			c-1.7-2.1-3.8-4-6.5-5.7c-8.1-5-16.9-8.1-26.3-9c-2.6-0.3-5.3-0.4-7.8-0.5c-3.5-0.2-7.1-0.2-10.6-0.3c-3.5-0.1-7-0.1-10.6-0.3
			c-0.4,0-0.9,0-1.3,0c-4.7,0-9.5,1-14.6,3c-7.3,2.9-13.7,6.1-19.7,9.9c-3.2,2.1-6.4,4.1-9.5,6.2c-3.2,2.1-6.3,4.1-9.5,6.2
			c-3.3,2.2-6.4,4.9-9.1,7.9c-1.2,1.4-2.4,2.7-3.6,4.1c-2.3,2.6-4.7,5.3-7,8c-3.1,3.7-5.6,8-7.4,13c-0.2,0.6-0.5,1.3-0.8,1.9
			c-0.3,0.6-0.6,1.3-0.9,1.9c-0.2,0.5-0.3,1-0.4,1.4c-0.3,1-0.5,2.1-0.7,3.1c-0.4,1.6-0.7,3.3-1.3,4.9c-2.8,8.3-2.6,17.2,0.8,27
			c1.7,5.3,4.5,10.2,7.1,14.9l0.3,0.6c0.6,1.1,1.2,2.3,1.7,3.4c0.4,0.8,0.8,1.7,1.3,2.5c0.3,0.6,0.7,1.2,1.1,1.7
			c3.1,3.8,6.8,7.2,11.3,10.2c2.4,1.6,4.8,3.3,7.2,5c7.3,5.1,15.8,8.7,25.1,10.7c1.6,0.3,3.3,0.7,4.9,1.1c1.6,0.4,3.3,0.8,4.9,1.1
			c0.8,0.2,1.7,0.3,2.7,0.3h9.8c0.4,0,0.7,0,1.1,0c0.3,0,0.7,0,1.1,0.1c0,0.6,0,1.2,0.1,1.7c0.1,1.3,0.1,2.5-0.1,3.7
			c-0.3,2.1-0.7,4.3-1.1,6.5c-0.3,1.4-0.5,2.9-0.8,4.3c-0.2,1.2-0.3,2.4-0.4,3.7C300.8,530.3,300.3,531.8,299.3,533.2L299.3,533.2z
			 M522.4,459c-1.6,0-3.3-0.1-5-0.3c-0.8-0.1-1.5-0.2-2.1-0.4c-2.6-0.8-5.3-1.5-7.9-2.2c-6-1.7-12.2-3.4-18.3-5.4
			c-5.4-1.8-10.4-5.1-14.8-10.1c-2.9-3.2-5-6.2-6.5-9.2c-0.7-1.6-1.8-3-2.8-4.3c-0.5-0.7-1-1.3-1.5-2c-1.5-2.3-2.8-4.8-4.2-8.1
			c-4.6-11.4-3.8-23.1-2.7-32c0.6-3.9,1.5-7.8,2.4-11.5c0.2-0.9,0.4-1.7,0.6-2.6c0.7-3,2.2-5.9,4.6-8.8c0.2-0.2,0.4-0.5,0.6-0.8
			c0.1-0.1,0.1-0.2,0.2-0.3c5.4-8.2,12.3-15.6,21.3-22.5c1.8-1.3,3.9-2.4,5.9-3.5c1.1-0.6,2.3-1.2,3.4-1.8
			c5.7-3.4,11.8-5.6,18.8-6.9c5.6-1,10.9-1.5,15.9-1.5s9.8,0.5,14.4,1.5c0.6,0.1,1.2,0.3,1.8,0.4c1.7,0.3,3.4,0.7,5.1,1.2
			c3.5,1,6.5,2.6,9.2,4.6c1.2,0.9,2.4,1.8,3.5,2.7c3.6,2.7,7.3,5.6,10.4,9c0.2,0.3,0.5,0.6,0.8,0.9c0.5,0.6,1,1.1,1.3,1.8
			c1.7,3.2,3.9,6,6,8.8c0.9,1.1,1.8,2.3,2.6,3.5c1.4,1.9,4,5.9,4.7,8.3c-6-3.4-13.1-6.7-17.9-8.8c-3.9-2-8-4-12-5.9
			c-1.7-0.8-3.5-1.6-5.2-2.4c-1.4-0.6-2.9-1.3-4.3-1.9c-1.3-0.6-2.6-1.3-3.9-2c-0.6-0.3-1.2-0.7-1.8-1c-1.9-1.1-3.9-2.2-6-3
			c-3.3-1.4-6.4-2-9.5-2c-0.2,0-0.5,0-0.7,0c-2.2,0.1-4.4,0.1-6.6,0.1c-1.5,0-2.9,0-4.4,0.1c-4.7,0.2-9.2,1.2-13.4,3
			c-10.3,4.6-17.8,9.8-23.4,16.3c-0.9,0.9-1.8,1.8-2.7,2.8c-0.1,0.1-0.2,0.2-0.3,0.3c-0.4,0.4-0.7,0.9-0.9,1.4
			c-0.5,1.2-0.2,2.5,0.7,3.3c0.5,0.5,1.2,0.8,1.8,0.8c0.6,0,1.3-0.2,1.8-0.7c1.1-0.9,2.2-2,3.2-3.2c4.7-5.6,10.7-10.2,19.1-14.3
			c5-2.5,9.8-3.8,14.5-3.9c0.9,0,1.7-0.1,2.6-0.1c1.7,0,3.5-0.1,5.2-0.2c0.7-0.1,1.4-0.1,2.1-0.1c4.5,0,8.9,1.4,13.5,4.1
			c3.9,2.3,7.3,4.1,11.1,5.3c1,0.4,2,0.8,3,1.5c7.2,4.1,14.7,7.6,22.9,11.4c1.2,0.6,2.4,1.5,3.6,2.3c0.6,0.4,1.2,0.9,1.8,1.3
			c0.7,0.5,1.4,1,2.1,1.4c1.5,1.1,3.1,2.2,4.7,3.2c0.7,0.5,1.1,0.8,1.1,1.5c0.2,1.3,0.4,2.7,0.6,4c1.2,8.2,2.4,16.6,1.3,25
			c-0.4,3.8-1.4,7.3-2.9,10.4c-2,4.1-4.2,8.3-6.4,12.3c-1.2,2.2-2.9,4.2-5.1,6c-1.1,0.9-2.2,1.8-3.2,2.7c-1.1,0.9-2.2,1.9-3.2,2.7
			c-2.8,2.3-5.6,3.9-8.4,5.1c-2,0.8-3.9,1.8-5.8,2.6c-3.3,1.5-6.8,3.1-10.2,4.3C540.3,456.2,531.6,459,522.4,459L522.4,459z
			 M245.8,447.3c-2.4,0-4.8-0.8-7.2-2.3c-1.6-1-3.2-2.2-4.7-3.4c-0.9-0.7-1.9-1.4-2.8-2.1c-0.8-0.7-1.8-1.4-3.3-2.3
			c0-0.2,0.1-0.4,0.1-0.6c0.1-0.5,0.2-1,0.2-1.3c0.3-1.2,0.6-2.4,1-3.6c0.6-2.4,1.2-4.8,2-7.2c1.6-4.5,3.2-9.2,6-13.2
			c4.4-6.4,9.8-12.5,15.9-18c4.4-4,9.5-7.3,13.4-9.7l2.1-1.3c6.1-3.9,12.4-7.9,19-11l1.6-0.8c2.1-1,4.2-2,6.3-2.8
			c4.3-1.8,8.9-2.7,13.9-2.7c1,0,2,0,3.1,0.1c4.6,0.3,9.5,0.5,15.9,0.5c0.3,0,0.6,0,0.9,0c6.6,0,13.2,1,20.4,3.2
			c4.7,1.4,8.6,3.9,12.8,6.6l0.5,0.3c0.8,0.5,1.5,1.2,2.2,2c1.1,1.2,1.2,3.2,0.4,4.8c-1,1.9-2.7,3.4-5.2,4.8
			c-5.8,3.2-11.5,6.4-17.1,9.4c-3.5,2-7.2,4-10.8,6.1c-7.4,4.3-14.5,7.4-21.5,9.6c-1,0.3-2.1,0.5-3.3,0.6c-0.6,0.1-1.1,0.2-1.7,0.3
			c-0.4,0.1-0.7,0.1-1.1,0.1c-1.1,0.1-2.2,0.3-3.2,0.6c-3.7,1-7.5,2.1-11.1,3.2c-1.5,0.4-3.1,0.9-4.6,1.3
			c-5.3,1.6-10.4,4.1-15.8,7.7c-2.2,1.5-4.2,3.5-6.2,6.3c-0.4,0.5-0.7,1-1.1,1.5c-1,1.5-2.1,3.1-3.3,4.5c-1.7,1.9-3.6,4-5.8,5.8
			C251.2,446.3,248.5,447.3,245.8,447.3L245.8,447.3z M797.8,450.8c-3.2,0-6.3,0-9.5-0.1c-2.6-0.1-4.7-1.9-5.9-3.4
			c-2.5-3-5.2-6.2-7.5-9.6c-1.4-2.1-2.7-4.4-4-6.7c-0.7-1.3-1.5-2.7-2.3-4c-0.7-1-1.6-2.2-2.8-3.2c-6.6-5.5-12.1-9.3-17.8-12
			c-4.5-2.2-9.1-4.2-13.6-6.1c-1.9-0.8-3.8-1.6-5.6-2.4c-6.5-2.8-12.4-7.1-17.1-10.7c-2.1-1.5-3.4-3.7-4.8-6
			c-0.2-0.3-0.6-0.9-0.9-1.4c3.7-2.4,7.7-4.2,12.6-5.7c6.6-1.9,12.7-2.8,18.7-2.8c1.4,0,2.8,0,4.1,0.1c3.6,0.3,7.5,1.1,11.8,2.4
			c4.4,1.4,8.6,3.6,13.2,7c4.5,3.5,9.1,6.9,13.6,10.2c2.8,2.1,5.6,4.1,8.4,6.2c1.1,0.7,2.2,1.9,3.2,3.4c3.1,4.8,6.9,11.3,7.8,18.9
			c1.1,8.1,2.2,16.6,1.9,24.8c-0.1,0.4-0.2,0.7-0.2,1l-0.1,0.1C799.9,450.8,798.9,450.8,797.8,450.8L797.8,450.8z M739.5,506
			c-2.8,0-5.4-0.5-8-0.9c-0.7-0.1-1.3-0.2-2-0.3c-9.6-1.7-19.1-3.5-28.6-5.2l-1.2-0.2c-2-0.4-3.7-1.1-5.1-2.2
			c-7.1-5.3-12.4-11.3-16.2-18.4c-0.4-0.7-0.8-1.3-1.2-2c-0.8-1.3-1.5-2.6-2.1-4c-0.9-2.1-2-4.7-2.6-7.2c-1.7-6.6-2.5-13.4-2.4-20.9
			c0.1-1.4,0.2-2.8,0.5-4c0.9-4,1.8-8,2.7-12c0.9-4,1.9-8,2.8-12c0.8-3.3,2.6-6.3,4.4-9.1c3.4-5.7,7.9-10.7,13.4-14.9
			c1.5-1.2,3.3-2.3,4.9-3.4c0.6-0.4,1.2-0.8,1.8-1.2c1.2,1.7,2.1,3.1,2.9,4.4c1.6,2.3,3.5,4.4,6,6.2c7.1,5.4,15.2,9.8,25.5,13.8
			c11.3,4.5,19.7,9.4,26.4,15.6c0.8,0.8,1.6,1.9,2.2,3c4,7.1,8,14,13.5,19.8c1.4,1.5,3.1,2.7,4.6,3.7c2,1.5,4.4,2.3,6.8,2.3
			c3.1,0,6.2,0.1,9.2,0.2h2.3c0.3,4.7-0.8,9.1-3.4,13.2c-1.2,1.9-2.2,3.6-3.1,5.3c-2.2,4-5.1,7.7-9.3,11.8c-0.6,0.7-1.4,1.4-2.1,1.8
			c-1.8,1.1-3.6,2.3-5.3,3.4c-4.1,2.7-8.4,5.5-13.1,7.4c-7.4,2.8-15.1,5.8-23.4,6C740,506,739.8,506,739.5,506L739.5,506z
			 M305.3,419.3c5.6,0,10.7-2,15.1-3.9c4.6-2.1,9.4-4.5,15.5-7.7c3.3-1.7,6.7-3.6,10-5.4c1.7-0.9,3.3-1.8,5-2.7h0.1
			c2.8-1.7,5.7-3.4,8.6-4.9c1.1-0.5,2.2-1.1,3.5-1.8c1.5,6.2,3.5,12.2,5.6,18c1.4,3.9,2.8,7.9,3.9,11.9c1.2,3.8,1.8,7.8,2.3,11.8
			c0.1,0.8,0.2,1.6,0.3,2.5c0.7,5.3,1.3,11.1,1.9,17.7c0.3,3.5-0.4,7.2-1.1,10.5c-0.5,2.6-1.3,4.3-4.4,5.2c-3.3,0.9-6.6,2.2-9.7,3.4
			c-2.1,0.8-4.2,1.6-6.4,2.3c-1.8,0.6-4,1-6.6,1.1c-1.1,0-2.2,0-3.3,0.1c-1.9,0-3.8,0.1-5.7,0.1c-2.4,0-4.8-0.1-7.1-0.3
			c-7.9-0.9-15.4-3.9-22.1-9c-1.2-0.9-2.4-1.7-3.6-2.5c-0.7-0.5-1.4-0.8-2.2-0.9c-0.2,0-0.3,0-0.5,0c-1.2,0-2.2,0.7-2.6,1.9
			c-0.4,1.3-0.1,2.4,1,3.2c0.7,0.5,1.4,1,2.1,1.5c0.7,0.5,1.4,0.9,2.1,1.4c7,5.3,14.9,8.7,23.8,10.1c3.1,0.5,6.3,0.7,9.4,0.7
			c3.9,0,7.7-0.3,11.1-0.6c4-0.4,7.8-1.8,11.4-3.2c1.2-0.5,2.5-0.9,3.7-1.4c1-0.3,2.1-0.7,3.1-1.1c0.4-0.2,0.9-0.3,1.3-0.5
			c-2.9,6.1-6.4,10.6-10.9,13.9c-7.7,5.7-14.4,9.3-21.3,11.3c-3.3,1-6,1.5-8.7,1.5c-4.2,0-8.3,0-12.5,0c-8.2,0-16.6,0-24.9,0
			c-1.1-0.1-2.2-0.3-3.3-0.6c-0.4-0.1-0.8-0.2-1.1-0.2c-1.1-0.2-2.2-0.5-3.3-0.7c-2.7-0.8-5.7-1.5-8.6-2.3c-7-1.8-13.1-4.7-18.6-8.6
			c-1.1-0.8-2.3-1.6-3.4-2.4c-2.2-1.5-4.6-3.1-6.8-4.8c-4.1-3.1-7.1-6.5-9-10.5c-1-2-2-3.9-3.1-5.8c-2-3.8-4.2-7.7-5.6-11.8
			c-1-2.8-1.7-6-2.2-10.1v-1.3c0.4,0.2,0.7,0.4,1,0.7c1.5,1,2.9,2,4.3,3c1.4,1,2.8,2,4.3,3c1.8,1.3,3.9,1.7,5.9,2
			c1.1,0.2,2.1,0.2,3.2,0.2c4.7,0,8.9-1.7,12.6-5.1c2.9-2.7,5.7-5.4,7.6-8.7c5-8.8,13.3-12.6,20.8-15.1c3.7-1.3,7.7-2.4,11.5-3.5
			c1.7-0.5,3.4-0.9,5.1-1.4c0.4-0.1,0.7-0.2,1.1-0.2C305,419.3,305.2,419.3,305.3,419.3L305.3,419.3z M522.6,465.2
			c8,0,15.7-2,23.1-4.5V482c-0.8,0.1-1.6,0.3-2.3,0.5c-1.5,0.3-3,0.7-4.5,0.7c-1.2,0-2.4,0-3.6,0c-2.9,0-5.8-0.1-8.7-0.1
			c-1.3,0-2.7-0.1-4-0.1c-0.7,0-1.3-0.2-2-0.3c-0.3-0.1-0.5-0.1-0.8-0.2l-1.5-0.3c-2.3-0.4-4.6-0.8-7.3-1.2
			c-0.6-5.6-0.4-11.4,0.7-17.2C515.4,464.8,519,465.2,522.6,465.2L522.6,465.2z M535.7,489.1c5.6,0,10.9-1.3,15-2.4
			c1.9-0.5,4.1-0.6,6.2-0.7c0.1,0,0.2,0,0.2,0c1.3,0,2.4,0.8,3.2,2.1c4.9,8.7,10,17.6,14.9,26.4c1.9,3.4,3,7.5,3.5,12.9v0.4
			c0.2,2.6,0.4,5.3,0.5,8.2c-38.4-0.5-70.3-0.7-100.4-0.8c-0.5-2.8-0.1-5.3,0.5-7.6c1.4-6.7,2.9-12.2,5.6-17.3
			c1.7-3.2,3.1-5.6,4.7-7.7c1.3-1.7,2.7-3.3,4.1-4.8c0.7-0.8,1.4-1.6,2.1-2.4c2.6-2.8,5.7-5.1,9.1-6.6c2.1-1,4.3-1.5,6.7-1.5
			c1.2,0,2.4,0.1,3.6,0.4c4.5,0.9,8.9,1.4,13.2,1.4c0.4,0,0.8,0,1.2,0c0.5,0,1.1,0,1.6,0c1.1,0,2.2,0,3.3,0
			C534.9,489.1,535.3,489.1,535.7,489.1L535.7,489.1z M707.8,537.3c-5.2-3-7.9-7.2-8.2-12.9c-0.3-3.9,0.2-8,1.4-12.4l0.3-1.3
			c0.4-1.5,0.8-3.1,1.1-4.9l6.2,1.1c7.7,1.4,15,2.7,22.6,4.1c-0.3,0.6-0.6,1.2-1,1.7c-2.6,3.8-5.4,7.8-8.1,11.6
			c-0.6,0.9-1.3,1.6-2.1,2.4l-1.9,1.9c-2,2-3.9,3.8-6,5.6c-0.9,0.8-2,1.5-3,2.2C708.7,536.7,708.2,537,707.8,537.3L707.8,537.3z
			 M306.5,533.6l0.4-2c0.5-2.8,1-5.4,1.4-8.1c0.4-2.6,0.7-5.3,1-7.9c0.2-1.4,0.3-2.8,0.5-4.2c0.1-0.6,0-1.1,0-1.7c0-0.2,0-0.4,0-0.6
			h19.8c0.1,0.9,0.1,1.9,0.2,2.8c0.2,1.9,0.3,3.8,0.4,5.7c0,0.7,0,1.3,0,2c0,1.3,0,2.6,0,3.9c0.2,2.9,0.5,5.7,0.8,8.5
			c0.1,0.5,0.2,1,0.2,1.6H306.5L306.5,533.6z M697.5,536.9l-30.4-0.1c0.2-0.5,0.4-0.8,0.5-1c0.5-0.6,1.1-1.1,1.6-1.7
			c1.3-1.5,2.5-2.9,4.1-3.9c6.4-4.3,12.6-7.5,18.9-9.8c0.2-0.1,0.5-0.2,0.8-0.2c0.1,0,0.2-0.1,0.4-0.1c0.1,0.9,0.1,1.7,0.2,2.6
			c0.1,2.2,0.3,4.2,0.7,6.2c0.5,2.2,1.5,4.3,2.4,6.3C697,535.8,697.2,536.3,697.5,536.9L697.5,536.9z M751.9,537.6
			c-11.7-0.1-23.6-0.3-34.2-0.5c0.5-0.5,1.2-1.1,1.8-1.6c1.9-1.7,3.9-3.5,5.7-5.5c1.9-2.2,3.6-4.6,5.3-7c0.4-0.6,0.8-1.1,1.2-1.7
			c1,0,2,0.4,2.9,1.2c2.3,2.2,4.8,4.6,7,6.9c2.5,2.8,5.5,5.3,8.7,7.2c0.3,0.2,0.6,0.4,1,0.6C751.5,537.3,751.7,537.5,751.9,537.6
			L751.9,537.6z"/>
	</g>
	<g>
		<path d="M550.6,289.3c-0.4,0-0.7,0-0.9-0.2c-1.4-0.8-2.7-1.9-3.7-2.9c-0.9-0.9-1.7-2-2.3-3l-0.5-0.7c-4.5-5.8-8.8-10-13.5-13
			c-2.3-1.5-4.4-3.3-6.5-5.1c-0.5-0.5-1.1-0.9-1.6-1.4c-0.7-0.6-1.4-1.2-2.2-1.9l-0.1-0.1c-0.4-0.4-0.9-0.7-1.3-1
			c-0.8-0.6-1.5-1.2-2.2-1.9l-0.3-0.3c-2.6-2.2-5.3-4.5-8.1-6.6l-2.4-1.8c-4-3-8.1-6.1-12.1-9c-4-2.9-8.1-6-12.1-9l-2.4-1.8
			c-12.5-9.6-21.3-18.6-27.9-28.4c-3.8-5.5-6.3-11.8-7.6-19.3c-0.7-3.7-1-7.7-1-12c-0.1-10.4,2.2-20.6,6.6-29.6
			c5.3-10.6,12.6-17.9,21.6-21.5c7.1-3,15.2-4.7,24.1-5c1.2,0,2.4,0,3.6,0c1.2,0,2.5,0,3.7,0c1-0.1,2-0.1,3-0.1
			c5.8,0,11.4,1.1,17.5,2.5c6.4,1.5,11.5,5.2,15.1,8.3c1.4,1.2,2.9,2.5,4.2,3.8l3.4,3c0.4,0.1,0.8,0.4,1.3,0.7l0.1,0.1l0.1-0.1
			c0.4-0.4,0.9-0.8,1.3-1.2s0.9-0.9,1.4-1.3c0.5-0.5,1.1-0.9,1.6-1.4c1.2-1.1,2.3-2.1,3.5-3.1c2.5-2,5.5-4.2,9.5-6.8
			c2.6-1.6,5-2.7,10.4-4.2c2.8-0.8,5.2-1.2,7.7-1.2c1.6,0,3.2,0.2,4.8,0.3l0.5,0l0.9,0.1c0.6,0.1,1.2,0.1,1.8,0.2
			c2.5,0.3,4.8,0.7,7.2,1.2l0.6,0.1c0.5,0.1,1.1,0.2,1.7,0.3c0.7,0.1,1.4,0.3,2.2,0.4c3.7,0.6,7.7,2.6,11.4,4.6l3.6,1.8
			c1.1,0.5,1.8,1,2.6,1.7c10.1,8.5,15.2,16.6,16.6,26.4c1.1,7.7,2.1,15.2,1.3,22.7c-0.7,6.1-2.4,11.2-5.4,15.6
			c-4.1,6-8.2,11.8-13.1,17c-4.1,4.3-7.7,9.2-11.1,13.9l-0.5,0.6c-0.6,0.8-1.2,1.5-1.7,2.3c-0.6,0.8-1.2,1.6-1.8,2.4
			c-3.6,4.9-7.2,9.9-10.7,14.8l-1.1,1.5c-1,1.4-2.1,2.9-3.2,4.4c-1.1,1.5-2.2,3-3.2,4.4c-0.8,1.1-1.6,2.2-2.5,3.3
			c-0.7,0.8-1.4,1.7-2.1,2.5c-0.7,0.8-1.4,1.7-2.1,2.5l-2,2.4c-2.3,2.8-4.7,5.6-6.9,8.4c-1.6,1.9-2.8,3.6-3.9,5.3
			c-2.1,3.5-5,7.2-8.5,11c-1.5,1.6-3.3,2.8-5.1,4C551.5,289.2,551.1,289.3,550.6,289.3z M500.8,119.1c-7.1,0-13.3,0.7-19.3,2.1
			c-0.3,0.1-0.6,0.2-1,0.3c-0.3,0.1-0.7,0.2-1,0.3l-0.3,0.1c-3.6,0.9-7.4,1.8-10.5,4c-9.1,6.6-14.6,13.6-17.2,22.2
			c-1.7,5.5-3.6,11.7-3.8,18c-0.1,5.2,0.2,10.2,0.8,15c1,6.4,3.3,12.1,6.8,17.4c6,8.9,14.3,17.2,26.1,26.3c4.8,3.8,9.9,7.5,14.8,11
			l2.1,1.6c4,2.9,8.2,6,12.3,9.1c2.3,1.7,4.4,3.5,6.6,5.3l0.6,0.5c1.5,1.3,3.1,2.6,4.7,3.9l2.2,1.8c3.1,2.5,6.7,5.4,10.3,8
			c2.7,2,5.7,4.5,8.4,7.6c2,2.5,4,5,5.9,7.4c0.4,0.8,0.9,1.4,1.4,2l0.1,0.1l0.1-0.1c0.4-0.5,0.8-1,1.2-1.5c0.4-0.5,0.9-1,1.3-1.5
			c1.9-2.2,3.9-4.5,5.4-6.9c4.4-7,9.6-13.4,15.5-20.3l2.2-2.6c1.4-1.7,2.9-3.6,4.6-6l0.6-0.7c0.8-1.2,1.6-2.3,2.5-3.4
			c0.8-1.1,1.7-2.3,2.5-3.4l1.6-2.2c2.9-4,5.9-8.1,8.9-12.1c0.6-0.8,1.2-1.6,1.8-2.4c0.6-0.8,1.3-1.7,1.9-2.5l0.7-1
			c3.9-5.1,8-10.4,12.7-15.1c4.8-5,9.3-10.8,13.7-17.9l0.1-0.2c0.2-0.3,0.3-0.6,0.5-0.8c0.6-1,1.1-2,1.3-3c0.6-3.2,1.4-7.2,1.5-11
			c0.2-5.5-0.4-11.3-2-17.9c-0.7-3.8-2-8.8-5.2-12.9c-5.9-7.9-15-14.2-23.2-16c-4.5-1.1-7.8-1.5-11.5-2c-0.8-0.1-1.6-0.2-2.5-0.3
			c-1.2-0.1-2.3-0.2-3.5-0.2c-2.1,0-3.9,0.2-6.2,0.5l-0.2,0c-0.3,0.1-0.5,0.1-0.8,0.1c-0.3,0-0.6,0-0.9,0.1c-3,0.3-7.5,2.6-9.5,4
			c-3.8,2.6-7.1,5.1-10.1,7.6c-2,1.7-3.8,3.5-5.7,5.4c-0.6,0.7-1.2,1.3-1.9,1.9c-0.3,0.3-0.7,0.6-1,1l-0.1,0.1l-0.1-0.1
			c-1.7-0.6-3.2-1.5-4.4-2.6c-0.9-0.8-1.9-1.7-2.8-2.6c-1.9-1.8-3.8-3.6-5.8-5.4c-3.7-3.1-7.4-6-12-7.2c-4-1.1-8.7-2.3-13.3-2.5
			l-0.6,0C505.5,119.2,503,119.1,500.8,119.1z"/>
		<path class="st0" d="M581.6,113c1.6,0,3.2,0.2,4.8,0.3l0.5,0l0.9,0.1c0.6,0.1,1.2,0.1,1.8,0.2c2.5,0.3,4.8,0.7,7.2,1.2l0.6,0.1
			c0.5,0.1,1.1,0.2,1.6,0.3c0.7,0.1,1.4,0.3,2.2,0.4c3.7,0.6,7.6,2.6,11.3,4.6l0.9,0.5l2.7,1.3c1.1,0.5,1.8,1,2.6,1.7
			c10,8.4,15.1,16.6,16.5,26.3c1.1,7.6,2.1,15.1,1.3,22.6c-0.7,6.1-2.4,11.2-5.4,15.6c-4.1,6-8.2,11.8-13.1,17
			c-4.1,4.3-7.7,9.2-11.2,13.9l-0.5,0.6c-0.6,0.8-1.2,1.6-1.8,2.4c-0.6,0.8-1.1,1.5-1.7,2.3c-3.6,4.9-7.2,9.9-10.7,14.8l-1.1,1.5
			c-1,1.4-2.1,2.9-3.2,4.4c-1.1,1.5-2.2,3-3.2,4.4c-0.8,1.1-1.6,2.2-2.5,3.3c-0.7,0.8-1.4,1.7-2.1,2.5c-0.7,0.8-1.4,1.7-2.1,2.5
			l-2,2.4c-2.3,2.8-4.7,5.6-6.9,8.4c-1.6,1.9-2.8,3.6-3.9,5.3c-2.1,3.5-5,7.2-8.5,11c-1.5,1.6-3.3,2.8-5.1,4
			c-0.3,0.2-0.6,0.3-1.1,0.3c-0.4,0-0.6,0-0.9-0.2c-0.8-0.5-2.4-1.5-3.6-2.9c-0.9-0.9-1.6-2-2.3-3l-0.5-0.7
			c-4.5-5.8-8.8-10-13.6-13.1c-2.3-1.5-4.4-3.3-6.4-5.1c-0.5-0.5-1.1-0.9-1.6-1.4c-0.7-0.6-1.5-1.3-2.3-2c-0.4-0.4-0.9-0.7-1.3-1
			c-0.8-0.6-1.5-1.2-2.2-1.9l-0.3-0.3c-2.6-2.2-5.3-4.5-8.1-6.6l-2.4-1.8c-4-3-8.1-6.1-12.1-9c-4-2.9-8.1-6-12.1-9l-2.4-1.8
			c-12.5-9.6-21.3-18.6-27.8-28.3c-3.8-5.5-6.2-11.8-7.6-19.2c-0.7-3.7-1-7.6-1-12c-0.1-10.4,2.2-20.6,6.6-29.6
			c5.3-10.6,12.6-17.8,21.6-21.5c7.1-3,15.2-4.7,24-5c1.2,0,2.4,0,3.6,0c1.2,0,2.5,0,3.7-0.1c1-0.1,2-0.1,3-0.1
			c5.8,0,11.3,1.1,17.5,2.5c6.4,1.5,11.4,5.2,15.1,8.3c1.4,1.2,2.9,2.5,4.2,3.8l0.1,0.1c0.5,0.5,1.1,1,1.6,1.4
			c0.5,0.5,1.1,1,1.6,1.5l0,0l0.1,0c0.3,0.1,0.8,0.3,1.2,0.7l0.2,0.1l0.2-0.1c0.5-0.4,0.9-0.8,1.4-1.3c0.4-0.4,0.9-0.8,1.3-1.2
			c0.5-0.5,1.1-0.9,1.6-1.4c1.2-1.1,2.3-2.1,3.5-3.1c2.5-2,5.5-4.2,9.5-6.8c2.6-1.6,5-2.7,10.3-4.2C576.8,113.3,579.2,113,581.6,113
			 M546.9,139.5L546.9,139.5c-1.7-0.6-3.2-1.5-4.4-2.6c-0.9-0.8-1.9-1.7-2.8-2.6c-1.9-1.8-3.8-3.6-5.8-5.4c-3.7-3.1-7.5-6-12-7.2
			c-4-1.1-8.7-2.3-13.4-2.5l-0.6,0c-2.6-0.1-5-0.2-7.2-0.2c-7.1,0-13.3,0.7-19.4,2.1c-0.3,0.1-0.6,0.2-0.9,0.2
			c-0.3,0.1-0.7,0.2-1,0.3l-0.3,0.1c-3.6,0.9-7.4,1.8-10.6,4.1c-9.2,6.6-14.7,13.6-17.3,22.2c-1.7,5.5-3.6,11.7-3.8,18.1
			c-0.1,5.2,0.2,10.2,0.8,15c1,6.4,3.3,12.1,6.8,17.4c6,8.9,14.3,17.3,26.2,26.4c4.8,3.8,9.9,7.5,14.8,11l2.1,1.6
			c4,2.9,8.2,6,12.3,9.1c2.3,1.7,4.5,3.5,6.6,5.3l0.6,0.5c1.5,1.3,3.1,2.6,4.7,3.9l2.2,1.8c3.1,2.5,6.7,5.4,10.3,8
			c2.7,2,5.7,4.5,8.4,7.6c2,2.5,4,5,5.9,7.4c0.4,0.8,0.9,1.4,1.4,2l0.2,0.2l0.2-0.2c0.4-0.5,0.8-1,1.2-1.5c0.4-0.5,0.9-1,1.2-1.5
			c1.9-2.2,3.9-4.5,5.4-6.9c4.4-7,9.6-13.3,15.5-20.3l2.2-2.6c1.4-1.7,2.9-3.6,4.6-6l0.6-0.7c0.8-1.1,1.6-2.3,2.4-3.4
			c0.8-1.1,1.7-2.3,2.5-3.4l1.6-2.2c2.9-4,5.9-8.1,8.9-12.1c0.6-0.8,1.2-1.6,1.8-2.4c0.6-0.8,1.3-1.7,1.9-2.5l0.7-0.9
			c3.9-5.1,8-10.4,12.7-15.1c4.9-5,9.3-10.8,13.7-18l0.1-0.2c0.2-0.3,0.3-0.6,0.5-0.8c0.6-1,1.1-2,1.4-3c0.7-3.4,1.4-7.2,1.5-11
			c0.2-5.5-0.4-11.4-2-18c-0.7-3.8-2-8.8-5.2-13c-6-7.9-15.1-14.2-23.2-16.1c-4.5-1.1-7.8-1.5-11.5-2c-0.8-0.1-1.6-0.2-2.5-0.3
			c-1.2-0.1-2.4-0.2-3.5-0.2c-2.1,0-3.9,0.2-6.2,0.5l-0.2,0c-0.2,0-0.5,0.1-0.8,0.1c-0.3,0-0.6,0-0.9,0.1c-3,0.3-7.5,2.6-9.6,4
			c-3.8,2.6-7.1,5.1-10.1,7.6c-2,1.7-3.8,3.5-5.7,5.4c-0.6,0.7-1.2,1.3-1.9,1.9C547.7,138.8,547.4,139.1,546.9,139.5L546.9,139.5
			 M581.6,112.7c-2.2,0-4.6,0.3-7.7,1.2c-5.1,1.4-7.6,2.5-10.4,4.2c-3.8,2.5-6.9,4.7-9.5,6.8c-1.7,1.4-3.3,2.9-5.1,4.5
			c-0.9,0.8-1.8,1.7-2.7,2.5c-0.4-0.3-0.9-0.6-1.3-0.7c-1.1-1-2.1-1.9-3.2-2.9c-1.4-1.3-2.9-2.7-4.4-3.9c-3.7-3.1-8.7-6.8-15.2-8.3
			c-6.1-1.4-11.8-2.5-17.6-2.5c-1,0-2,0-3,0.1c-2.4,0.1-4.9,0-7.3,0.1c-8.8,0.3-17,2-24.1,5c-9.1,3.7-16.4,11-21.7,21.6
			c-4.4,9-6.7,19.2-6.6,29.7c0,4.2,0.3,8.1,1,12c1.3,7.3,3.7,13.6,7.6,19.3c6.6,9.9,15.5,18.9,27.9,28.4c4.8,3.6,9.7,7.3,14.5,10.8
			s9.7,7.2,14.5,10.8c2.9,2.1,5.7,4.5,8.4,6.8c1.1,1,2.3,1.9,3.5,2.9c0.8,0.7,1.6,1.4,2.3,2c2.6,2.2,5.2,4.6,8.1,6.5
			c4.8,3.1,9.1,7.3,13.5,13l0.5,0.7c0.7,1.1,1.4,2.1,2.3,3c1.1,1.2,2.5,2.2,3.7,2.9c0.3,0.2,0.6,0.2,1,0.2c0.5,0,0.9-0.1,1.2-0.3
			c1.8-1.2,3.6-2.4,5.1-4c2.6-2.8,5.9-6.7,8.5-11c1.3-2,2.6-3.7,3.9-5.3c2.9-3.6,6-7.3,8.9-10.8c1.4-1.7,2.8-3.3,4.2-5
			c0.9-1.1,1.7-2.2,2.5-3.3c2.1-2.9,4.3-5.9,6.4-8.8c3.8-5.3,7.8-10.9,11.8-16.3c1.2-1.6,2.3-3.1,3.5-4.7c3.6-4.9,7.3-10,11.6-14.5
			c5-5.3,9.2-11.3,13.1-17c2.9-4.4,4.7-9.5,5.4-15.7c0.8-7.4-0.1-14.7-1.3-22.7c-1.4-9.9-6.5-18-16.6-26.5c-0.8-0.7-1.6-1.2-2.6-1.7
			c-1.2-0.6-2.4-1.2-3.6-1.8c-3.7-2-7.6-4-11.4-4.6c-1.3-0.2-2.6-0.5-3.8-0.7c-2.6-0.5-5.1-1-7.8-1.3c-1-0.1-1.8-0.2-2.7-0.3
			C585.1,112.9,583.4,112.7,581.6,112.7L581.6,112.7z M547,139.8l0.2-0.2c1-1,2-1.9,2.9-2.9c1.9-1.9,3.7-3.7,5.7-5.4
			c2.9-2.4,6.2-4.9,10.1-7.6c2.1-1.4,6.5-3.7,9.5-4c0.6-0.1,1.2-0.1,1.7-0.2c2.3-0.3,4.2-0.5,6.3-0.5c1.1,0,2.2,0.1,3.5,0.2
			c0.9,0.1,1.7,0.2,2.5,0.3c4,0.5,7.1,0.9,11.5,2c8.2,1.9,17.2,8.2,23.1,16c3.1,4,4.4,8.7,5.2,12.9c1.6,6.8,2.2,12.6,2,17.9
			c-0.1,3.7-0.8,7.4-1.5,11c-0.3,1.3-1.1,2.5-1.8,3.8l-0.1,0.2c-4.5,7.3-9,13.1-13.7,17.9c-5,5-9.2,10.6-13.4,16.1
			c-1.2,1.6-2.5,3.3-3.7,4.9c-3.6,4.7-7.1,9.6-10.5,14.3c-1.6,2.3-3.3,4.5-4.9,6.8L581,244c-1.5,2.1-3,4.1-4.6,6l-2.2,2.6
			c-5.4,6.4-10.9,13-15.5,20.3c-1.5,2.4-3.4,4.6-5.4,6.9c-0.8,1-1.7,2-2.5,3c-0.5-0.6-1-1.2-1.4-2c-1.9-2.4-3.9-4.9-5.9-7.4
			c-2.7-3.2-5.9-5.7-8.4-7.6c-3.5-2.5-7-5.3-10.3-8l-2.2-1.8c-1.6-1.3-3.2-2.6-4.7-3.9c-2.3-1.9-4.7-3.9-7.2-5.8
			c-4.1-3.1-8.2-6.1-12.3-9.1c-5.6-4.1-11.4-8.3-16.9-12.6c-11.7-9-20-17.3-26.1-26.3c-3.6-5.3-5.8-11-6.8-17.3
			c-0.6-4.6-0.9-9.5-0.8-15c0.2-6.3,2.1-12.5,3.8-18c2.6-8.5,8-15.5,17.2-22.1c3.2-2.3,7.1-3.2,10.8-4.1c0.6-0.2,1.3-0.3,1.9-0.5
			c5.9-1.4,12-2.1,19.3-2.1c2.4,0,5,0.1,7.8,0.2c4.6,0.2,9.3,1.4,13.3,2.5c4.3,1.2,7.8,3.8,11.9,7.2c2,1.8,3.9,3.6,5.8,5.4
			c0.9,0.9,1.9,1.8,2.8,2.6c1.2,1.1,2.7,2,4.4,2.6L547,139.8L547,139.8z"/>
	</g>
	<g>
		<path d="M529.5,439.3c-0.9-0.1-1.8-0.1-2.7-0.1c-0.8,0.1-1.6,0.1-2.5,0.1h0c-7.5,0-14.4-2.3-20.6-4.4l-0.5-0.1
			c-2.3-0.7-4.8-1.5-6.9-2.6c-6-2.9-9-7.7-9-14.4v-1.9c0-0.4,0-0.8,0-1.2c0-0.8,0-1.6,0-2.4c0-1.2,0.6-2.3,1.4-2.8
			c0.4-0.2,0.8-0.3,1.2-0.3c0.6,0,1.2,0.2,1.9,0.5c0.9,0.5,1.8,1,2.8,1.6c5.2,2.9,11.1,4.5,19,5.2c3.5,0.3,6.9,0.4,10.3,0.5
			c2.1,0.1,4.2,0.2,6.3,0.3c0.4,0,0.7,0,1.1,0c4.3,0,8.4-1.2,12.3-2.3c4.4-1.4,9.2-2.8,14.4-4.2l2.2-0.6c1-0.3,2.2-0.3,3.2-0.3
			c3,0.2,5.1,2.5,5,5.6c-0.2,3.6-0.9,6.5-2.2,9c-1.3,2.6-3.1,4.5-5.2,5.5c-8.8,4.5-18.2,8.9-28.8,9.3H529.5z M493,417.1
			c-0.3,2.4,0.3,4.6,1.8,6.8c1.4,1.9,3.4,3.2,6.5,4.2c1.7,0.6,3.3,1.1,4.9,1.6c1.5,0.4,3.2,1,4.9,1.6c4.9,1.6,10,2.4,15.7,2.4
			c3.4,0,6.9-0.3,10.7-0.8c4.5-0.7,8.6-2.5,12.6-4.1l0.1-0.1c0.7-0.2,1.3-0.5,1.9-0.8c0.4-0.2,0.8-0.4,1.2-0.5
			c0.7-0.3,1.5-0.7,2.2-1.1c0.3-0.2,0.7-0.3,1-0.5c0.3-0.2,0.5-0.3,0.8-0.4c0.3-0.1,0.6-0.3,0.8-0.4c2.4-1,4.8-6.5,4.1-9.3l0-0.1
			H562c-0.6,0-1.1,0.1-1.7,0.3c-1,0.3-2,0.6-3,0.8c-1,0.3-2,0.6-3,0.9c-1,0.3-2,0.6-3,0.9c-2,0.6-4,1.2-6,1.8
			c-6.1,1.9-10.8,2.7-15.2,2.7l0,0c-0.5,0-0.9,0-1.4,0l-0.3,0c-1.4-0.1-2.7-0.2-4-0.2c-3.2,0-6-0.1-8.5-0.4
			c-6.9-0.6-14.8-1.5-22.3-5.2l-0.3-0.1V417H493L493,417.1z"/>
		<path class="st0" d="M490,409.2c0.6,0,1.2,0.2,1.8,0.5c0.9,0.5,1.8,1,2.8,1.6c5.2,2.9,11.1,4.5,19,5.2c3.5,0.3,6.9,0.4,10.3,0.5
			l0.1,0c2,0.1,4.1,0.2,6.2,0.3c0.4,0,0.7,0,1.1,0c4.3,0,8.4-1.2,12.3-2.3c4.4-1.4,9.2-2.8,14.4-4.2l2.2-0.6c1-0.3,2.2-0.3,3.1-0.3
			c3,0.2,5,2.4,4.9,5.4c-0.2,3.6-0.9,6.4-2.2,9c-1.3,2.6-3,4.4-5.2,5.5c-8.8,4.5-18.2,8.9-28.8,9.3l-2.5,0c-0.8-0.1-1.7-0.1-2.5-0.1
			c-0.1,0-0.1,0-0.2,0c-0.8,0.1-1.6,0.1-2.4,0.1c-7.4,0-14.4-2.3-20.6-4.4l-0.5-0.1c-2.3-0.7-4.8-1.5-6.9-2.6c-5.9-2.9-9-7.7-9-14.3
			l0-1.9c0-0.4,0-0.8,0-1.2c0-0.8,0-1.6,0-2.4c0-1.2,0.5-2.2,1.4-2.7C489.2,409.3,489.6,409.2,490,409.2 M530.1,422.9
			c-0.5,0-0.9,0-1.4,0l-0.3,0c-1.4-0.1-2.7-0.2-4-0.2c-3.2,0-6-0.1-8.5-0.4c-6.9-0.6-14.8-1.5-22.2-5.2l0,0l0,0l-0.2-0.1v-0.2h-0.2
			h-0.1h-0.2l0,0.2c-0.3,2.5,0.3,4.7,1.8,6.9c1.4,1.9,3.4,3.3,6.5,4.3c1.7,0.6,3.3,1.1,4.9,1.6c1.4,0.4,3.2,0.9,4.9,1.6
			c4.9,1.6,10,2.5,15.7,2.5c3.4,0,6.9-0.3,10.7-0.8c4.5-0.7,8.6-2.5,12.6-4.2l0.1-0.1c0.7-0.2,1.3-0.5,1.9-0.8
			c0.4-0.2,0.8-0.4,1.2-0.5c0.7-0.3,1.5-0.7,2.2-1.1c0.3-0.2,0.7-0.4,1-0.5c0.2-0.1,0.5-0.3,0.8-0.4c0.3-0.1,0.6-0.3,0.8-0.4
			c2.5-1,4.9-6.6,4.1-9.5l0-0.2H562c-0.6,0-1.1,0.1-1.8,0.3c-1,0.3-2,0.6-3,0.8c-1,0.3-2,0.6-3,0.9c-1,0.3-2,0.6-3,0.9
			c-2,0.6-4,1.2-6,1.8C539.1,422,534.4,422.9,530.1,422.9 M490,409c-0.5,0-0.9,0.1-1.3,0.3c-0.9,0.5-1.5,1.6-1.5,2.9
			c-0.1,1.2,0,2.4,0,3.6c0,0.7,0,1.3,0,1.9c0,6.7,3.1,11.6,9.1,14.5c2.3,1.2,4.9,2,7.4,2.8c6.2,2.1,13.2,4.4,20.6,4.4
			c0.8,0,1.6,0,2.5-0.1c0.9,0,1.8,0,2.7,0.1c0.8,0,1.7,0,2.5,0c10.5-0.4,19.7-4.6,28.9-9.3c2.2-1.1,4-3,5.3-5.6s2-5.5,2.2-9.1
			c0.1-3.1-2-5.5-5.1-5.7c-1,0-2.2,0-3.2,0.3c-6.1,1.7-11.6,3.2-16.6,4.8c-4.2,1.3-8.1,2.3-12.2,2.3c-0.4,0-0.7,0-1.1,0
			c-2.1-0.1-4.2-0.2-6.2-0.3c-3.4-0.1-6.9-0.2-10.4-0.5c-8.1-0.7-13.9-2.4-18.9-5.2c-1-0.6-1.9-1.1-2.8-1.6
			C491.2,409.2,490.6,409,490,409L490,409z M530.1,423.1c4.6,0,9.3-0.9,15.2-2.7c3-1,6-1.8,9-2.7c2-0.6,4-1.1,6-1.7
			c0.6-0.2,1.1-0.3,1.7-0.3c0.7,2.7-1.6,8.2-4,9.2c-0.5,0.3-1.1,0.5-1.6,0.8c-1,0.5-2.1,1.1-3.2,1.6c-1,0.4-2,0.9-3.1,1.3
			c-4,1.7-8.2,3.5-12.7,4.2c-3.8,0.6-7.3,0.8-10.7,0.8c-5.7,0-10.8-0.8-15.6-2.4c-1.6-0.6-3.2-1.1-4.9-1.6c-1.6-0.5-3.2-1-4.9-1.6
			c-3-1-5-2.3-6.4-4.2c-1.5-2.1-2.1-4.3-1.8-6.7h0.1v0.1l0.4,0.1c7.2,3.6,15,4.6,22.3,5.2c2.8,0.3,5.7,0.4,8.5,0.4
			c1.4,0,2.8,0.1,4.3,0.2C529.2,423.1,529.6,423.1,530.1,423.1L530.1,423.1z"/>
	</g>
	<g>
		<path d="M551.8,385.1c-2.7,0-4.6-1.3-5.1-3.7c-0.5-2-0.6-3.9-0.7-5.8c-0.1-1.9,0.9-3,1.9-3.9c1.7-1.4,3.8-2.2,5.9-2.2
			c0.1,0,0.3,0,0.4,0c2.4,0.1,4.4,1.8,5,4.3c0.2,1,0.3,2,0.4,3c0.1,0.3,0.1,0.5,0.1,0.7c0,0.2,0.1,0.5,0.1,0.7
			c0,3.9-1.7,6.1-5.5,6.7C553.5,385,552.6,385.1,551.8,385.1z"/>
		<path class="st0" d="M553.8,369.6c0.1,0,0.3,0,0.4,0c2.4,0.1,4.3,1.7,4.9,4.2c0.2,1,0.3,2,0.4,3c0,0.2,0.1,0.5,0.1,0.7
			c0,0.2,0.1,0.5,0.1,0.7c0,3.9-1.7,6-5.4,6.6c-0.8,0.1-1.7,0.2-2.5,0.2c-2.7,0-4.5-1.3-5-3.6c-0.5-2-0.6-3.9-0.7-5.8l0-0.1
			c-0.1-1.7,0.9-2.9,1.8-3.7C549.6,370.4,551.7,369.6,553.8,369.6 M553.8,369.4c-2.2,0-4.3,0.8-6,2.2c-1,0.9-2,2.1-1.9,3.9
			c0.1,1.9,0.2,3.9,0.7,5.9c0.5,2.4,2.4,3.8,5.2,3.8c0.8,0,1.7-0.1,2.5-0.2c3.8-0.6,5.6-2.8,5.6-6.8c-0.1-0.5-0.1-0.9-0.2-1.4
			c-0.1-1-0.2-2-0.4-3c-0.6-2.6-2.6-4.3-5.1-4.4C554.1,369.4,553.9,369.4,553.8,369.4L553.8,369.4z"/>
	</g>
	<g>
		<path d="M496.2,385.5c-2.2,0-3.9-1.4-4.8-3.9c-1.1-3.1-0.6-5.3,1.6-7.1c0.4-0.3,0.8-0.8,1.2-1.3c0.1,0,0.2-0.2,0.3-0.3
			c0,0,0.1-0.1,0.1-0.1c1.3-1.5,2.7-2.3,4.3-2.3c0.6,0,1.2,0.1,1.8,0.3c2.2,0.8,3.8,3.1,3.8,5.6c0.1,3.6-3.1,7.9-6.4,8.8
			C497.5,385.4,496.8,385.5,496.2,385.5z"/>
		<path class="st0" d="M498.9,370.6c0.6,0,1.1,0.1,1.7,0.3c2.2,0.8,3.7,3.1,3.7,5.5c0.1,3.5-3,7.8-6.3,8.7c-0.5,0.2-1.2,0.3-1.8,0.3
			c-2.2,0-3.8-1.3-4.7-3.8c-1.1-3-0.6-5.2,1.5-6.9c0.4-0.3,0.8-0.8,1.2-1.3c0.2-0.1,0.3-0.2,0.3-0.3c0,0,0-0.1,0.1-0.1
			C496,371.4,497.4,370.6,498.9,370.6 M498.9,370.4c-1.6,0-3.1,0.8-4.4,2.3c-0.1,0.1-0.2,0.3-0.4,0.4c-0.4,0.5-0.8,1-1.2,1.3
			c-2.2,1.8-2.7,4.1-1.6,7.2c0.9,2.6,2.6,4,4.9,4c0.6,0,1.3-0.1,1.9-0.3c3.4-0.9,6.6-5.3,6.5-8.9c0-2.5-1.6-4.9-3.9-5.7
			C500.1,370.5,499.5,370.4,498.9,370.4L498.9,370.4z"/>
	</g>
	<g>
		<path d="M353.2,439.8c-0.4,0-0.9,0-1.2-0.2c-1.4-0.5-2.3-1.5-2.8-3c-0.4-1.2-0.6-2.5-0.8-3.9c-0.1-0.4-0.1-0.8-0.2-1.2
			c-0.3-2.2,2.5-6.2,4.5-7c0.4-0.2,0.9-0.3,1.4-0.3c0.5,0,1,0.1,1.6,0.3c1.1,0.5,2,1.4,2.3,2.4c0.4,1,0.7,2,1,3
			c0.1,0.3,0.2,0.5,0.3,0.8c0.1,0.3,0.2,0.6,0.3,0.8c0,0.4,0,0.5,0.1,0.6l0,0.1v0.5c0,0.1-0.1,0.2-0.2,0.4c-0.1,0.2-0.2,0.3-0.2,0.5
			c-0.9,1.9-2,4.2-4.2,5.6C354.6,439.6,353.9,439.8,353.2,439.8z"/>
		<path class="st0" d="M354.1,424.2c0.5,0,1,0.1,1.5,0.3c1.1,0.5,1.9,1.3,2.3,2.4c0.4,1,0.7,2,1,3c0.1,0.2,0.2,0.5,0.2,0.8
			c0.1,0.3,0.1,0.5,0.2,0.8v0.1c0,0.3,0,0.4,0.1,0.6v0.1v0.5c0,0.1-0.1,0.2-0.2,0.4c-0.1,0.2-0.2,0.3-0.2,0.5
			c-0.9,1.9-2,4.2-4.1,5.6c-0.4,0.3-1.1,0.5-1.7,0.5c-0.4,0-0.8,0-1.2-0.2c-1.3-0.5-2.3-1.5-2.7-2.9c-0.4-1.2-0.6-2.5-0.8-3.9
			c-0.1-0.4-0.1-0.8-0.2-1.2c-0.3-2.1,2.5-6.1,4.5-6.8C353.1,424.3,353.6,424.2,354.1,424.2 M354.1,424c-0.5,0-1,0.1-1.5,0.3
			c-2,0.8-4.9,4.8-4.6,7.1c0.3,1.8,0.5,3.6,1,5.2c0.5,1.5,1.5,2.6,2.9,3.1c0.4,0.2,0.9,0.2,1.3,0.2c0.7,0,1.4-0.2,1.9-0.6
			c2.1-1.4,3.2-3.6,4.2-5.7c0.1-0.3,0.3-0.6,0.4-0.9v-0.5V432c-0.1-0.1-0.1-0.2-0.1-0.5v-0.1c-0.2-0.5-0.3-1.1-0.5-1.6
			c-0.3-1-0.6-2-1-3c-0.4-1.1-1.3-2-2.4-2.5C355.2,424.1,354.6,424,354.1,424L354.1,424z"/>
	</g>
	<g>
		<path d="M319.4,450.9c-0.2,0-0.3,0-0.4-0.1c-0.1,0-0.2,0-0.3,0c-1.4-0.3-2.4-1.4-2.7-2.9c-1.2-3.9-1.9-7.3,1.1-10.3
			c0.5-0.5,0.9-0.9,1.4-1.3c0.8-0.5,1.7-0.8,2.5-0.8c0.3,0,0.7,0,1,0.1c1,0.4,1.9,1.2,2.3,2.3c0.5,1,0.7,2.1,0.9,3.2l0,0.2
			c0.1,0.2,0.1,0.3,0.1,0.5c0,0.2,0.1,0.4,0.1,0.5l0,0.1c0,2.7-1.3,4.8-2.7,6.6C321.8,450.2,320.6,450.9,319.4,450.9z"/>
		<path class="st0" d="M321,435.6c0.3,0,0.6,0,0.9,0.1c1,0.4,1.8,1.2,2.3,2.3c0.5,1,0.7,2.1,0.8,3.2l0,0.2c0,0.1,0.1,0.3,0.1,0.5
			c0,0.2,0,0.3,0.1,0.5v0.1c0,2.7-1.3,4.7-2.6,6.6c-0.8,1.1-2.1,1.8-3.2,1.8c-0.1,0-0.3,0-0.4-0.1c-0.1,0-0.2,0-0.3,0
			c-1.3-0.3-2.3-1.4-2.6-2.8c-1.2-3.8-1.9-7.2,1-10.2c0.5-0.5,0.9-0.9,1.4-1.3C319.3,435.9,320.2,435.6,321,435.6 M321,435.4
			c-0.8,0-1.7,0.3-2.6,0.8c-0.5,0.4-0.9,0.8-1.4,1.3c-3.1,3.1-2.2,6.8-1.1,10.4c0.3,1.6,1.4,2.7,2.8,3c0.2,0,0.4,0.1,0.7,0.1
			c1.2,0,2.5-0.7,3.4-1.9c1.2-1.6,2.7-3.8,2.7-6.7v-0.1c-0.1-0.3-0.1-0.7-0.2-1c-0.2-1.1-0.4-2.3-0.9-3.4c-0.5-1.2-1.4-2-2.4-2.4
			C321.7,435.4,321.3,435.4,321,435.4L321,435.4z"/>
	</g>
	<g>
		<path d="M732.7,481.5c-4.2-0.4-8.5-0.8-12.8-1.2c-0.3,0-0.5,0-0.7-0.1c-0.2,0-0.5-0.1-0.7-0.1c-1.7-0.1-3.4-0.2-4.9-0.8
			c-2.4-0.8-4.6-2.3-6.3-3.3c-0.8-0.6-1.6-1.1-2.4-1.8c-0.4-0.3-0.7-0.5-1.1-0.8c-0.4-0.3-0.7-0.5-1-0.7c-0.3-0.3-0.7-0.5-1-0.8
			c-6.3-4.7-10.8-11.2-13.8-20c-0.3-1-0.4-2.3-0.3-3.9c0.1-1.4,1.2-2.4,2.8-2.4c1.4,0,2.5,1,2.8,2.5c1.4,8.2,5.6,14.8,13,20
			c1.6,1.2,3.2,2.4,4.9,3.7c2,1.5,4.1,2.3,6.6,2.5c2.9,0.2,5.9,0.5,8.5,0.8c2,0.1,3.9,0.3,5.8,0.5c0.3,0.1,0.6,0.1,0.8,0.1
			c0.4,0,0.9,0.1,1.3,0.2c1.6,0.4,2.5,1.6,2.3,3.1c-0.2,1.3-1.3,2.2-2.8,2.4H732.7z"/>
		<path class="st0" d="M690.6,445.8c1.4,0,2.4,0.9,2.7,2.4c1.4,8.3,5.7,14.8,13,20.1c1.6,1.2,3.2,2.4,4.9,3.7c2,1.5,4.2,2.3,6.6,2.5
			c2.9,0.2,5.9,0.5,8.5,0.8c2,0.1,3.9,0.3,5.8,0.5c0.3,0.1,0.6,0.1,0.8,0.1c0.3,0,0.7,0.1,1.2,0.2c1.5,0.4,2.4,1.5,2.2,2.9
			c-0.2,1.2-1.2,2.1-2.7,2.3l-0.9,0c-4.2-0.4-8.5-0.8-12.8-1.2c-0.2,0-0.4,0-0.7,0c-0.2,0-0.5-0.1-0.7-0.1c0,0,0,0,0,0
			c-1.7-0.1-3.4-0.2-4.8-0.8c-2.4-0.8-4.6-2.2-6.2-3.3c-0.8-0.6-1.6-1.1-2.4-1.8c-0.4-0.3-0.7-0.5-1.1-0.8c-0.3-0.2-0.7-0.5-1-0.7
			c-0.3-0.3-0.7-0.5-1-0.8c-6.3-4.6-10.8-11.2-13.7-20c-0.3-1-0.4-2.2-0.3-3.8C688,446.8,689.1,445.8,690.6,445.8 M690.6,445.6
			c-1.6,0-2.8,1-2.9,2.5c-0.1,1.6,0,2.9,0.3,3.9c2.9,8.8,7.4,15.4,13.8,20.1c0.7,0.5,1.3,1,2,1.5c1.2,0.9,2.3,1.8,3.5,2.6
			c1.9,1.2,4,2.5,6.3,3.3c1.5,0.6,3.2,0.7,4.9,0.8c0.5,0,0.9,0.1,1.4,0.1c4.3,0.4,8.6,0.8,12.8,1.2h0.9c1.6-0.2,2.7-1.2,2.9-2.5
			c0.2-1.5-0.7-2.8-2.4-3.2c-0.4-0.1-0.9-0.2-1.3-0.2c-0.2,0-0.4,0-0.7-0.1c-1.9-0.2-3.8-0.4-5.8-0.5c-2.8-0.3-5.7-0.6-8.5-0.8
			c-2.4-0.2-4.5-1-6.5-2.5c-1.7-1.3-3.3-2.5-4.9-3.7c-7.3-5.2-11.5-11.7-12.9-19.9C693.2,446.6,692.1,445.6,690.6,445.6L690.6,445.6
			z"/>
	</g>
	<g>
		<path d="M736.7,456.1c-0.2,0-0.6-0.1-1-0.2c-0.8-0.3-1.5-1.1-1.9-2c-0.6-0.9-0.9-2.1-1.1-3.3l-0.1-0.2c-0.1-0.3-0.2-0.6-0.2-0.9
			v-0.2c0.3-3.6,3.3-6.5,6.9-6.5c0.1,0,0.2,0,0.4,0c1.6,0.1,2.6,0.8,3.1,2c0.9,2.2,1.1,4.3,0.6,6.5l-0.1,0.2l-0.1,0.2
			c-0.1,0.3-0.2,0.5-0.3,0.7l-0.9,0.7c-1.7,1.2-3.1,2.1-4.4,2.8C737.3,456,736.9,456.1,736.7,456.1z"/>
		<path class="st0" d="M739.3,442.9c0.1,0,0.2,0,0.3,0c1.5,0.1,2.5,0.7,3,1.9c0.9,2.2,1.1,4.2,0.6,6.4l-0.1,0.2l-0.1,0.2
			c-0.1,0.2-0.2,0.5-0.3,0.6L742,453c-1.7,1.2-3.1,2.1-4.3,2.8c-0.4,0.1-0.7,0.2-0.9,0.2s-0.6-0.1-0.9-0.2c-0.8-0.3-1.5-1.1-1.9-2
			c-0.5-0.9-0.8-2.1-1.1-3.2l-0.1-0.2c-0.1-0.3-0.2-0.6-0.2-0.8v-0.1l0-0.1C732.8,445.7,735.8,442.9,739.3,442.9 M739.3,442.7
			c-3.6,0-6.8,2.9-7,6.6v0.1v0.1c0,0.3,0.1,0.6,0.2,0.9c0.3,1.2,0.6,2.5,1.2,3.5c0.4,1,1.2,1.8,2,2.1c0.3,0.1,0.7,0.2,1,0.2
			s0.7-0.1,1-0.2c1.5-0.8,3-1.8,4.4-2.8l0.9-0.7c0.2-0.2,0.3-0.6,0.4-0.9l0.1-0.2c0.5-2.3,0.3-4.4-0.6-6.6c-0.5-1.3-1.6-2-3.2-2.1
			C739.6,442.7,739.5,442.7,739.3,442.7L739.3,442.7z"/>
	</g>
	<g>
		<path d="M700.4,432.6c-2.5-0.1-4.2-2.1-4.2-4.8c0-2.8,3.1-6.8,5.9-7.6c0.3-0.1,0.7-0.1,1-0.1c1.1,0,2.1,0.5,2.8,1.5
			c1.7,2.7,2.1,4.9,1.1,7.2c-1,2.1-3.9,3.8-6.4,3.8H700.4z"/>
		<path class="st0" d="M703.1,420.2c1.1,0,2,0.5,2.6,1.4c1.7,2.7,2,4.9,1.1,7.1c-1,2.1-3.8,3.8-6.3,3.8l-0.2,0
			c-2.4-0.1-4.1-2-4.1-4.7c0-2.7,3.1-6.7,5.8-7.5C702.5,420.3,702.8,420.2,703.1,420.2 M703.1,420c-0.3,0-0.7,0-1,0.1
			c-2.8,0.8-6,4.8-6,7.7c0,2.8,1.8,4.8,4.3,4.9c0.1,0,0.2,0,0.2,0c2.6,0,5.5-1.8,6.5-3.9c1-2.3,0.6-4.6-1.1-7.3
			C705.3,420.5,704.3,420,703.1,420L703.1,420z"/>
	</g>
</g>
</svg>
