<?xml version="1.0" encoding="utf-8"?>
<!-- Generator: Adobe Illustrator 25.2.3, SVG Export Plug-In . SVG Version: 6.00 Build 0)  -->
<svg version="1.1" id="레이어_1" xmlns="http://www.w3.org/2000/svg" xmlns:xlink="http://www.w3.org/1999/xlink" x="0px"
	 y="0px" viewBox="0 0 1024 640" style="enable-background:new 0 0 1024 640;" xml:space="preserve">
<style type="text/css">
	.st0{fill:#FFFFFF;}
</style>
<g>
	<g>
		<path d="M606.5,651.4v-0.2c-0.1-0.3-0.1-0.5-0.1-0.8c0-0.3-0.1-0.5-0.1-0.8c0-0.3-0.1-0.5-0.1-0.8c0-0.3-0.1-0.6-0.1-0.8
			l-1.5-39.3c0-0.4-0.1-1-0.2-1.3c0,0,0-0.1,0-0.2s-0.1-0.2-0.1-0.3V607l-75.9-0.3c-24.6,0-49.7-0.1-73.8-0.2h-1.2v0.1
			c0.2,2.8,0.3,5.1,0.4,7.6v0.3c0.5,8.2,1,17.9,1.4,27.6c0,0.7,0,1.5,0.1,2.2c0,0.8,0,1.5,0,2.2c0,1.6,0,3,0.1,4.5v0.3h-4.8
			l-0.6-11.9c-0.6-10.9-1.2-21.8-1.7-32.9v-0.1h-2.9c-52.4-0.2-105.6-0.3-157-0.4h-3.6c-50.1-0.1-95.4-0.2-141.2-0.2
			c-4.3,0-7.1-1.8-8.6-5.5c-1.6-4.2-3.2-8.7-3.2-13.8c0.1-175.9,0.1-354.3,0-530.3c0-5.3,2.5-8.1,7.6-8.3h1.6
			c0.9-0.1,1.7-0.1,2.2-0.1c1.7-0.1,3.3-0.1,5.1-0.1l65.9-0.9l120.6-1.4l92.3-1.2c11-0.2,22-0.3,32.8-0.4h0.3
			c10.8-0.1,21.8-0.2,33-0.4l88.3-1.2c10.7-0.2,21.6-0.3,32.2-0.4c10.6-0.1,21.4-0.2,32.2-0.4l90.7-1.2c10.7-0.2,21.6-0.3,32.2-0.4
			c10.6-0.1,21.4-0.2,32.2-0.4c14.1-0.1,28.2-0.3,41.9-0.5c13.6-0.2,27.7-0.4,41.7-0.5h0.4c4.9,0,9,1.8,12.2,5.4
			c1.7,1.9,2.6,4.2,2.6,6.9c0.1,62.4,0.3,124.7,0.5,188.4v1.5l0.1,23c0.3,86,0.6,174.9,0.9,262.2l-0.1,69.9c0,2-0.4,3.9-1.3,5.5
			c-1.4,2.7-3.7,4.5-6.7,5c-2.3,0.4-5,0.9-7.9,0.9c-25.1,0-50.8-0.1-75.5-0.2H808c-24.6-0.1-50.1-0.2-75.2-0.2l-122.4-0.3v0.1
			c-0.1,0.4-0.1,0.8-0.1,1.2v1.3c0.1,4.3,0.3,8.6,0.5,12.8c0.1,2.1,0.2,4.3,0.2,6.4c0,2.1,0.2,4.3,0.2,6.4c0.2,4,0.4,10,0.5,16.1
			v0.3L606.5,651.4L606.5,651.4z M142,53.6c-1.3,0-2.1,0.1-2.6,0.4c-0.9,0.4-1.8,1-1.7,3.1v2.7c0,172.4,0,350.7-0.1,526.2
			c0,4.4,1.2,8.2,2.4,11.8c0.9,2.6,1.3,2.7,4.1,2.7l387.7,0.9c81.4,0.2,165.5,0.4,248.3,0.7l106.1,0.3c2,0,4.1-0.2,6.5-0.7
			c2.2-0.4,3.4-1.8,3.5-4.3v-1.9c-0.2-38.4-0.3-77.1-0.4-114.4l-0.3-114.3c-0.1-53.1-0.3-106.5-0.5-158
			c-0.2-51.2-0.4-104.1-0.5-156.3c0-3.4-2.3-6.4-5.4-7.1c-1.7-0.4-3.8-0.8-6-0.8c-0.2,0-0.5,0-0.8,0c-3,0.1-6.8,0.2-10.3,0.2
			c-0.9,0-1.7,0-2.6,0.1c-0.9,0-1.6,0-2.5,0h-0.6h-3.9c-18.4,0.2-37.4,0.4-56.1,0.7c-10.6,0.1-21.3,0.2-31.8,0.4
			c-5.2,0.1-10.5,0.2-15.7,0.2l-47.4,0.6c-9.7,0.2-19.6,0.3-29.2,0.4h-0.9c-4.9,0-9.9,0.1-14.9,0.2c-5,0.1-10.1,0.2-15.1,0.2
			c-10.5,0.1-21.1,0.2-31.4,0.4c-5.2,0.1-10.5,0.2-15.7,0.2l-47.1,0.6c-9.8,0.2-19.8,0.3-29.5,0.4h-0.9c-6.6,0-13.5,0.1-20.2,0.2
			c-3.4,0-6.8,0.1-10.1,0.1c-10.5,0.1-21.1,0.2-31.4,0.4c-5.2,0.1-10.5,0.2-15.7,0.2L402,50.5c-9.8,0.2-19.8,0.3-29.5,0.4h-1.1
			c-6.6,0-13.5,0.1-20.1,0.2c-3.4,0-6.9,0.1-10.3,0.1L330,51.2c-27.3,0.4-55.5,0.7-83.7,1.2L179,53.3c-1.8,0-3.8,0-5.6,0.1
			c-1.8,0-3.7,0-5.6,0c-6.8,0.1-14.5,0.2-22.1,0.2C145.7,53.6,142,53.6,142,53.6z"/>
		<path class="st0" d="M884.9,38.8c4.8,0,8.9,1.8,12.1,5.3c1.7,1.9,2.5,4.1,2.5,6.8c0.1,61.8,0.3,124.3,0.5,188.4v1.5l0.1,24.9
			c0.3,85.3,0.6,173.7,0.9,260.3l-0.1,69.9c0,2-0.4,3.9-1.3,5.5c-1.4,2.7-3.6,4.5-6.6,5c-2.3,0.4-5,0.9-7.9,0.9
			c-25.4,0-51.3-0.1-76.3-0.2h-0.3c-24.9-0.1-50.6-0.2-75.9-0.2l-122.3-0.3h-0.2v0.2c-0.1,0.4-0.1,0.9-0.1,1.3v1.3
			c0.1,4.3,0.3,8.6,0.5,12.8c0.1,2.1,0.2,4.3,0.2,6.4c0.1,2.1,0.2,4.3,0.3,6.4c0.2,4,0.4,10,0.5,16.1v0.1h-4.9v-0.1
			c0-0.2-0.1-0.5-0.1-0.7c0-0.3-0.1-0.5-0.1-0.8c0-0.3-0.1-0.5-0.1-0.8c0-0.3-0.1-0.6-0.1-0.8l-1.5-39.3c0-0.3-0.1-0.8-0.2-1.3
			c0-0.1,0-0.1,0-0.2s-0.1-0.2-0.1-0.3V607h-0.2l-37.9-0.2l-37.9-0.1c-24.8,0-50.1-0.1-74.6-0.2h-0.3h-0.3v0.3
			c0.2,2.8,0.3,5.1,0.4,7.6v0.3c0.5,8.2,1,17.9,1.4,27.6c0,0.8,0,1.5,0.1,2.2c0,0.8,0,1.5,0,2.2c0,1.6,0,3,0.1,4.5v0.1h-4.6
			l-0.6-11.8c-0.6-10.9-1.2-21.8-1.7-32.9v-0.2h-0.2h-2.8c-51.9-0.2-104.6-0.3-155.6-0.4h-4.9c-41-0.1-92-0.2-141.2-0.2
			c-4.3,0-7-1.7-8.5-5.4c-1.6-4.2-3.2-8.7-3.2-13.7c0.1-175.9,0.1-354.3,0-530.3c0-5.2,2.5-8,7.5-8.1h1.6c0.9-0.1,1.7-0.1,2.2-0.1
			c1.7-0.1,3.3-0.1,5.1-0.1l65.9-0.9l120.6-1.5l92.3-1.2c11-0.2,22-0.3,32.8-0.4h0.3c10.8-0.1,21.9-0.2,33-0.4l88.3-1.2
			c10.7-0.2,21.6-0.3,32.2-0.4c10.6-0.1,21.5-0.2,32.2-0.4l90.7-1.2c10.7-0.2,21.6-0.3,32.2-0.4c10.6-0.1,21.5-0.2,32.2-0.4
			c14-0.1,28.1-0.3,41.8-0.5h0.1c13.6-0.2,27.6-0.4,41.7-0.5C884.6,38.8,884.8,38.8,884.9,38.8 M886.2,602.4L886.2,602.4
			c2,0,4.1-0.2,6.5-0.7c2.2-0.4,3.5-1.9,3.6-4.4v-1.9c-0.2-38-0.3-76.7-0.4-114.1V481l-0.3-114.3c-0.1-52.7-0.3-106.2-0.5-158
			c-0.2-51.2-0.4-104.1-0.5-156.3c0-3.5-2.3-6.5-5.5-7.2c-1.7-0.4-3.8-0.8-6-0.8c-0.3,0-0.5,0-0.8,0c-3.2,0.1-6.8,0.2-10.3,0.2
			c-0.9,0-1.7,0-2.6,0.1c-0.9,0-1.6,0-2.5,0h-0.6h-3.6c-18.5,0.2-37.7,0.4-56.4,0.7c-10.6,0.1-21.3,0.2-31.7,0.4
			c-5.2,0.1-10.5,0.2-15.8,0.2l-15.8,0.2l-31.6,0.4c-9.7,0.2-19.6,0.3-29.2,0.4h-0.9c-4.9,0-10,0.1-14.8,0.2
			c-4.9,0.1-10.2,0.2-15.2,0.2c-10.5,0.1-21.1,0.2-31.4,0.4c-5.2,0.1-10.5,0.2-15.7,0.2l-15.9,0.2l-31.2,0.4
			c-9.8,0.2-19.8,0.3-29.5,0.4h-0.9c-6.6,0-13.5,0.1-20.2,0.2c-3.4,0-6.8,0.1-10.1,0.1c-10.4,0-21,0.2-31.3,0.3
			c-5.2,0.1-10.5,0.2-15.7,0.2l-47.1,0.7c-9.8,0.2-19.8,0.3-29.5,0.4h-1.1c-6.6,0-13.4,0.1-20.1,0.2c-3.4,0-6.9,0.1-10.3,0.1
			l-11.3,0.1c-27.2,0.4-55.3,0.7-83.4,1.2L179,53.2c-1.9,0-3.8,0-5.6,0.1c-1.8,0-3.7,0-5.6,0c-6.8,0.1-14.5,0.2-22.1,0.2H143H142
			c-1.3,0-2.1,0.1-2.6,0.4c-1,0.5-1.9,1.2-1.7,3.2v2.7c0,172.4,0,350.7-0.1,526.2c0,4.4,1.2,8.3,2.4,11.9c1,2.7,1.4,2.8,4.2,2.8
			l80.4,0.2c56.2,0.1,112.5,0.3,167.5,0.4l61.9,0.1l62.1,0.2H532c81.4,0.2,165.4,0.4,248.1,0.7L886.2,602.4 M884.9,38.6
			c-0.1,0-0.3,0-0.4,0c-13.9,0.1-27.8,0.3-41.7,0.5c-14,0.2-27.9,0.4-41.9,0.5c-10.7,0.2-21.4,0.3-32.2,0.4
			c-10.8,0.1-21.5,0.2-32.2,0.4l-90.7,1.2c-10.7,0.2-21.4,0.3-32.2,0.4c-10.8,0.1-21.5,0.2-32.2,0.4l-88.3,1.2
			c-11.1,0.2-22,0.3-33,0.4c-11,0.1-22,0.2-33.1,0.4l-92.3,1.2l-120.6,1.5l-65.9,0.9c-1.8,0-3.4,0-5.1,0.1c-0.5,0-1.4,0-2.2,0.1
			c-0.7,0-1.3,0-1.6,0c-5,0.2-7.7,3-7.7,8.4c0.1,175.9,0.1,354.3,0,530.3c0,5,1.6,9.6,3.2,13.8c1.6,3.8,4.4,5.6,8.7,5.6
			c47.6,0,95.1,0.1,141.2,0.2c52.7,0.1,107.1,0.2,160.6,0.4h2.8c0.6,11.1,1.2,22,1.7,32.9l0.6,12h5v-0.4c-0.1-1.5-0.1-2.9-0.1-4.5
			c0-1.5-0.1-3-0.1-4.5c-0.4-9.2-0.9-18.6-1.4-27.6c-0.1-2.4-0.2-4.9-0.4-7.9c25,0.1,49.9,0.2,74.9,0.2c25.3,0.1,50.5,0.2,75.8,0.3
			c0,0.2,0.1,0.4,0.1,0.5c0.1,0.4,0.2,0.9,0.2,1.3l1.5,39.3c0.1,0.5,0.1,1,0.2,1.6c0.1,0.5,0.1,1,0.2,1.5v0.3h5.4v-0.4
			c-0.1-5.5-0.3-11.3-0.5-16.1c-0.2-4.3-0.3-8.5-0.5-12.8s-0.4-8.5-0.5-12.8c0-0.4,0-0.8,0-1.3c0-0.4,0-0.8,0.1-1.2l122.3,0.3
			c25.3,0,50.6,0.1,75.9,0.2c25.6,0.1,51.1,0.2,76.6,0.2c2.9,0,5.7-0.5,7.9-0.9c3.1-0.6,5.4-2.3,6.8-5.1c0.9-1.7,1.3-3.6,1.3-5.6
			l0.1-69.9c-0.4-95-0.7-191.7-1-285.2v-1.5c-0.2-61.8-0.4-125.6-0.5-188.4c0-2.8-0.9-5-2.6-7C894,40.5,889.9,38.6,884.9,38.6
			L884.9,38.6z M886.2,602.2L780.1,602c-88.1-0.3-177.6-0.5-264.2-0.7c-41.3-0.1-82.6-0.2-123.9-0.3c-81.3-0.2-165.2-0.4-247.9-0.6
			c-2.8,0-3.1-0.1-4-2.6c-1.3-3.6-2.4-7.5-2.4-11.8c0.1-175.5,0.1-353.8,0.1-526.2v-2.7c-0.1-2,0.8-2.6,1.6-3
			c0.5-0.3,1.5-0.4,2.5-0.4c0.4,0,0.7,0,1.1,0h2.6c7.4,0,14.8-0.1,22.1-0.2c3.8,0,7.5-0.1,11.2-0.1l67.5-0.9
			c32-0.5,63.9-0.9,94.7-1.3c10.2-0.1,20.5-0.3,30.4-0.3c10-0.1,20.4-0.2,30.5-0.4c15.7-0.2,31.4-0.4,47.1-0.6s31.4-0.5,47.1-0.6
			c10.1-0.1,20.4-0.3,30.3-0.3c10-0.1,20.3-0.2,30.4-0.4c15.7-0.2,31.4-0.4,47.1-0.6c15.7-0.2,31.4-0.5,47.1-0.6
			c10-0.1,20.2-0.3,30.1-0.4c9.9-0.1,20.1-0.2,30.1-0.4c15.8-0.2,31.6-0.4,47.4-0.6c15.8-0.2,31.7-0.5,47.5-0.6
			c20-0.3,40.3-0.5,60-0.7h0.6c1.7,0,3.4-0.1,5.1-0.1c3.4,0,6.9-0.1,10.3-0.2c0.3,0,0.5,0,0.7,0c2,0,4.1,0.4,6,0.8
			c3.1,0.7,5.3,3.6,5.3,7c0.1,52.1,0.3,104.2,0.5,156.3c0.2,52.7,0.4,105.3,0.5,158c0.1,38.1,0.2,76.2,0.3,114.3
			c0.1,38.1,0.2,76.3,0.4,114.4v1.9c-0.1,2.3-1.3,3.8-3.4,4.2C890.1,602.1,888.1,602.2,886.2,602.2L886.2,602.2z"/>
	</g>
	<g>
		<path d="M851.8,559.3c-1.9-0.5-4.2-0.7-7-0.7c-0.8,0-1.6,0-2.4,0h-2.5c-45.1-0.4-91.2-0.8-135.6-1.2l-15.4-0.1h-1.3
			c-7.7,0-15.2-0.1-22.8-0.2c-7.7-0.1-15.3-0.2-23.1-0.2c-7.7,0-15.2-0.1-22.9-0.2c-7.6-0.1-15.1-0.1-22.7-0.2
			c-11.2-0.1-22.6-0.2-33.8-0.3c-11.2-0.1-22.5-0.2-33.8-0.3l-66.3-0.6l-42.5-0.3c-13.6-0.1-27.7-0.2-41.6-0.4l-15.1-0.1
			c-38.4-0.4-78.1-0.7-118-1.2c-5.1,0-10.3-0.1-15.3-0.1c-5,0-10.2-0.1-15.3-0.1c-10.2,0-20.6-0.1-30.5-0.2c-3.7,0-7.5-0.2-11.3-0.4
			c-0.9,0-1.7-0.3-2.6-0.6c-2.1-0.8-3.1-2.2-3.1-4.6c0-2.1,0-4.2,0-6.3c0-2.1,0-4.2,0-6.3c0-2,0-4.2,0-6.3s-0.1-4.3-0.1-6.4
			l-1.2-193.6c-0.5-64.8-1-134.1-1.4-202.7c-0.1-3.6-0.1-7-0.1-10.7c0-3.7,0-7.1-0.1-10.7c0-1.1-0.2-2.3-0.4-3.3
			c-0.1-0.5-0.2-1-0.3-1.8c-0.4-1.8,0.3-3.2,1.8-3.8c1.9-0.9,3.7-1.3,5.3-1.3c6.8-0.2,13.7-0.3,20.4-0.4c6.7-0.1,13.6-0.2,20.4-0.4
			c12.2-0.3,24.4-0.5,36.3-0.7c6-0.1,12-0.2,18.1-0.4c6.1-0.2,12-0.2,18-0.3c5.2-0.1,10.4-0.2,15.6-0.2c5.2-0.1,10.5-0.2,15.6-0.3
			l31.3-0.6c5.4-0.1,11-0.2,16.5-0.4c5.5-0.2,11-0.2,16.4-0.4l32.2-0.6c10.5-0.1,21.3-0.3,30.9-0.5l30.8-0.6
			c12.9-0.4,26.4-0.8,37.8-1h1.2c9.1-0.2,17.6-0.4,26.2-0.5c10-0.2,19.8-0.3,29.5-0.5l7.5-0.1c7.2-0.1,14.4-0.2,21.4-0.4
			c3.6-0.1,7.2-0.2,10.8-0.2l32.2-0.6c10.4-0.1,20.8-0.3,30.9-0.5l31.6-0.6c7.2-0.1,14.5-0.2,21.6-0.4c3.6-0.1,7.2-0.2,10.8-0.2
			l32.5-0.6c10.3-0.1,20.8-0.3,30.9-0.5l31.1-0.6h0.5c7.8-0.2,16-0.4,24.1-0.5c1.6,0,3.2,0.3,4.8,0.6c0.8,0.1,1.5,0.2,2.2,0.4
			c0.8,0.1,1.5,0.3,2.2,0.4l0.7,0.1c1.3,0.3,2.5,0.5,3.8,0.7c0.1,0,0.2,0.1,0.3,0.1c0.1,0,0.2,0,0.3,0.1c0.1,0,0.3,0,0.4,0.1
			c0.1,0,0.3,0.1,0.4,0.1c1.5,0.5,2.3,1.6,2.3,3v1.6l-1.5,87.4l-4.4,244.8c-0.4,17.8-0.7,36.1-1,53.6v0.9
			c-0.2,9.1-0.3,18.1-0.5,27.3c-0.2,9-0.4,18.1-0.5,27.2v0.9c-0.1,5.9-0.2,12.1-0.4,18c-0.1,5-4,9.5-8.9,10.3l0,0
			c-0.2,0-0.4,0-0.6,0c-0.2,0-0.5,0.1-0.8,0.1L851.8,559.3L851.8,559.3z M730.1,390.4c3.9,0,7.8,0.4,11.5,1.2
			c7,1.5,12.1,3.6,16.3,6.6c7.6,5.4,15.8,11.5,26.1,19.3c0.9,0.7,1.7,1.4,2.3,2.2c5.4,8,8.4,14.5,9.7,21.5c0.2,1,0.3,1.9,0.4,3
			c0.1,0.5,0.1,1,0.2,1.5c0.1,1.2,0.2,2.2,0.4,3.4c0.9,7.3,1.7,15.7,0.7,24.6c0,0.1-0.1,0.3-0.1,0.4s0,0.3-0.1,0.4
			c0,0.3-0.1,0.6-0.1,0.9c-0.1,0.6-0.2,1.1-0.2,1.6c0,3.1-0.8,6.1-2.3,9.2c-2.2,4.2-4.9,9-8,13.5c-1.9,2.9-4.9,7.1-9.3,9.9
			c-3.9,2.6-8.1,5.3-13.3,8.2c-4.6,2.7-9.6,4.4-14,5.8l-1.9,0.7c-4.3,1.4-8,2.1-11.8,2.4c-1.7,0.2-3.7,0.3-5.5,0.4h-0.4v0.1
			c-0.5,0.8-1,1.6-1.4,2.4c-0.3,0.5-0.5,0.9-0.8,1.3l-0.1,0.1l0.1,0.1c4.1,2.8,7.1,5.4,9.4,8.2c3.3,4.1,7.5,7.1,12.8,9.3
			c1,0.4,1.7,1.1,2.7,1.9c1.3,1.3,2.2,1.6,3.8,1.6c30,0.2,60.4,0.5,89,0.8c1.4,0,2.6,0.1,4,0.2c0.9,0.1,1.7,0.2,2.6,0.2
			c0.4,0,0.9,0,1.3-0.2c1.9-1.1,3.3-2.3,3.3-4.8c0.2-14,0.4-30.1,0.8-47.8c0.1-6,0.2-12,0.3-18c0.1-6,0.2-12,0.4-18
			c0.1-6,0.2-12,0.3-17.9c0.1-6,0.2-12,0.3-18c0.1-5.5,0.2-11.1,0.3-16.7c0.1-5.4,0.1-10.9,0.2-16.3c0.1-11.1,0.3-22.2,0.5-33
			l2.6-179.3c0.2-15.5,0.5-31,0.8-46.2c0.3-15.1,0.6-30.8,0.8-46.2c0.1-0.4,0.1-1.1,0.1-1.8v-0.1l-0.9-0.2c-0.7-0.1-1.3-0.3-1.7-0.3
			l-7.2-1.2h-0.2c-0.4-0.1-0.8-0.2-1.2-0.2c-7.1,0.1-15,0.2-24.8,0.5l-61.6,1.2l-20.1,0.3c-3.2,0-6.4,0.1-9.7,0.2
			c-3.4,0.1-6.9,0.2-10.3,0.2l-61.8,1.2L645.3,91c-3.2,0-6.4,0.1-9.7,0.2c-3.4,0.1-6.9,0.2-10.3,0.2l-60.9,1.2
			c-12.9,0.3-25.9,0.5-38.6,0.7h-2.1l-61.6,1.2c-6.5,0.2-13.2,0.3-19.6,0.4h-1.3c-6.3,0.1-12.7,0.2-19.2,0.4l-61.8,1.2
			c-6.4,0.2-13,0.3-19.3,0.4h-0.5c-4.4,0-8.8,0.1-13.2,0.2c-2.2,0-4.5,0.1-6.6,0.1c-25,0.5-54.7,1.2-84.3,1.6l-66,1.2
			c-0.4,0-0.8,0-1.4,0.1h-0.1v2.5l0.3,42.8c0,14.2,0.1,28.5,0.2,42.5c0.4,64.7,0.9,129.9,1.4,190.8l0.9,134
			c0.1,10.4,0.1,20.9,0.1,31.2c0,0.7,0,1.6,0.1,2.4v0.5h0.1c24.2,0.5,48.9,0.7,72.7,0.9h1.6c20,0.1,40,0.3,59.5,0.6h0.1V548
			c1-1.4,1.5-2.9,1.5-4.5c0.1-1.3,0.2-2.4,0.4-3.6c0.1-0.7,0.3-1.4,0.4-2.1c0.1-0.7,0.2-1.4,0.4-2c0.4-2.1,0.8-4.3,1.1-6.3
			c0.2-1.1,0.2-2.1,0.1-3.6c-0.1-0.5-0.1-1.1-0.1-1.6v-0.1h-0.1c-0.4-0.1-0.8-0.1-1.1-0.1h-10.6c-1,0-1.8-0.1-2.6-0.3
			c-1.4-0.3-2.8-0.6-4.8-1.1s-3.5-0.8-4.8-1.1c-9.1-1.9-17.3-5.4-24.3-10.4c-2.2-1.6-4.7-3.3-7-4.8c-4.3-2.8-7.9-6.1-11-9.9
			c-0.4-0.5-0.8-1.1-1.1-1.6c-0.4-0.6-0.7-1.3-1-1.8l-0.3-0.6c-0.5-1.1-1.1-2.2-1.6-3.3l-0.3-0.6l-0.5-0.9
			c-2.4-4.3-4.8-8.7-6.4-13.6c-3.3-9.4-3.5-17.9-0.8-26.1c0.4-1.2,0.7-2.3,1-3.5c0.1-0.5,0.2-0.9,0.3-1.3l0.1-0.4
			c0.2-0.9,0.4-1.7,0.6-2.6l0.1-0.3c0.1-0.3,0.2-0.7,0.3-1.1c0.1-0.3,0.3-0.6,0.4-0.9c0.1-0.3,0.3-0.6,0.4-0.9
			c0.3-0.6,0.6-1.3,0.8-1.8c1.6-4.7,4.1-8.9,7.2-12.6c1.9-2.3,4.1-4.7,6-6.9l0.8-0.8c0.6-0.7,1.2-1.4,1.7-2c0.6-0.7,1.2-1.3,1.7-1.9
			c2.6-2.9,5.6-5.5,8.8-7.7c1.6-1,3-1.9,4.6-2.9c1.6-1,3.1-2,4.7-3.1c1.8-1.3,3.8-2.5,5.7-3.7c1.2-0.8,2.3-1.6,3.5-2.3
			c5.7-3.6,11.9-6.8,19.1-9.6c5-1.9,9.6-2.9,14.2-2.9c0.4,0,0.8,0,1.3,0c2.3,0.1,4.7,0.2,6.9,0.2c1.2,0,2.2,0,3.4,0.1
			c1.2,0,2.3,0.1,3.4,0.1c2.2,0,4.6,0.1,6.9,0.2h0.3c2.4,0.1,4.8,0.2,7.3,0.5c8.9,0.9,17.5,3.8,25.4,8.7c2.5,1.6,4.6,3.4,6.3,5.5
			c2.1,3,2.2,6.2,0.4,9.4c-0.6,1-1.3,1.9-1.9,2.9c-0.2,0.3-0.3,0.5-0.5,0.7c-0.2,0.2-0.3,0.5-0.5,0.7l0,0v0.1c0.3,1,0.6,1.9,0.8,2.9
			l0.2,0.9c0.4,1.6,0.9,3.2,1.4,4.8c1.4,4.1,2.9,8.6,4.8,14.2c0.4,1.2,0.8,2.3,1.3,3.6c0.4,1.2,0.8,2.3,1.2,3.5
			c0,0.2,0.1,0.4,0.2,0.6s0.1,0.4,0.2,0.6c0.1,0.2,0.1,0.4,0.2,0.6c0.2,0.7,0.5,1.4,0.6,2c0.4,2.6,0.8,5.2,1.1,7.8
			c0.3,2.5,0.7,5.2,1.1,7.7c0.2,1.4,0.3,2.7,0.4,4.1l0.1,0.8c0.2,2.2,0.3,4.6,1.2,6.7c0.2,0.5,0.1,1.1,0,1.6
			c-0.1,0.6-0.1,1.3-0.1,1.9c0,1.4-0.1,2.7-0.2,4c-0.5,5.5-1.6,10-3.7,14.3c-1.5,2.9-3.2,6.2-5.5,10c-2,3.5-4.7,6.6-7.7,8.8
			c-5.2,4.2-12.4,9.4-21,12.3c-1.8,0.6-3.7,1.3-5.6,1.9c-0.7,0.3-1.5,0.6-2.2,0.9h-0.1v1.8v0.6c0.1,4,0.2,8.1,0.4,12.4
			c0.1,1.9,0.4,3.9,0.7,5.8c0.5,3.2,1.8,3.8,4.5,3.8h1c16,0.1,32.5,0.2,48.4,0.4c4.1,0.1,8.2,0.1,12.3,0.1s8.1,0,12.2,0.1h0.5
			c8.1,0.1,16.7,0.2,25,0.2c8.5,0,17.2,0.1,25.4,0.2h2.5v-0.1c0.1-0.5,0.1-0.9,0.1-1.3c0-1.2,0.1-2.2,0.2-3.3c1.1-7.9,3.1-15,6.4-22
			c3.5-7.4,8.9-13.9,17.1-20.5c0.8-0.5,1.6-1,2.5-1.6c0.9-0.5,1.6-0.9,2.5-1.4c0.9-0.5,1.7-0.9,2.5-1.4h0.1v-3.4c0-0.8,0-1.5,0-2.2
			c0-1.5,0-2.9,0-4.4l0.6-6.4l0.3-3.2h-0.1c-0.8-0.2-1.4-0.4-1.9-0.6c-3.4-1.1-6.8-2.1-9.9-3.1c-1.3-0.4-2.6-0.8-4-1.3
			c-1.9-0.6-3.9-1.2-5.8-1.7c-0.5-0.1-0.9-0.3-1.4-0.7c-0.5-0.3-1-0.6-1.5-0.9c-1.3-0.8-2.5-1.6-3.7-2.5c-1.6-1.1-3.5-2.4-4.9-4.1
			c-2-2.2-3.9-4.6-5.7-6.9l-1.2-1.6c-0.3-0.2-0.5-0.6-0.7-1c-0.1-0.1-0.1-0.2-0.2-0.3c0-0.1-0.1-0.1-0.1-0.2l-0.3-0.4
			c-0.2-0.4-0.5-0.8-0.7-1.3c-0.4-0.6-0.7-1.1-1-1.6c-0.2-0.3-0.4-0.6-0.6-0.9c-2.7-4.1-5.4-8.3-7.4-13.3
			c-2.2-5.6-3.3-11.6-3.4-18.3c-0.2-9.8,1.1-19.6,3.8-29.1c1.1-3.4,2.8-6.9,5.4-10.9c3.5-5.2,7.6-10.1,12.1-14.6
			c4.6-4.6,9-8.8,14.5-11.8c0.4-0.2,0.8-0.4,1.2-0.6c0.4-0.2,0.7-0.4,1.1-0.6c1.8-1.1,3.9-2.1,5.9-3.1c3.3-1.6,6.6-3,10.1-4.1
			c7.6-2.2,15.1-3.4,23.2-3.4c4.7,0,9.5,0.4,14.5,1.2c4.8,0.7,9.1,2,13.2,4c5.2,2.6,9.7,6.4,14.1,10.1l0.7,0.6l2.2,1.9
			c3.8,3.2,6.8,6.6,9.2,10.3c0.9,1.5,1.8,2.8,2.8,4.2c0.6,0.8,1.1,1.6,1.6,2.3l0.8,1.2c1,1.3,1.8,2.6,2.8,4c0.4,0.5,0.6,1,0.7,1.4
			l0.8,2.4c1.2,3.6,2.4,7.2,2.8,11.1c0.1,1.6,0.4,3.2,0.6,4.8c0.1,0.8,0.2,1.5,0.3,2.2c1.2,7.8,2,14.8,1.2,22.2v0.1
			c-0.4,3.4-0.8,7-2,10.3c-1.2,3-2.6,6.3-4.4,10c-3.3,6.9-7.1,11.7-11.9,15.2c-0.6,0.4-1.2,0.9-1.6,1.4c-6.1,5.8-13.6,9-20.8,11.7
			c-0.8,0.3-1.6,0.7-2.4,1c-0.5,0.2-0.9,0.4-1.3,0.6c-0.3,0.2-0.6,0.3-0.9,0.4c-0.3,0.1-0.7,0.3-1,0.4h-0.1v0.1
			c-0.6,4.1-0.6,18.6-0.1,21v0.1h1.6c0.4,0,0.9,0,1.3,0c0.4,0,0.8,0,1.1,0c0.4,0,0.8,0,1.2,0c3.6,0.3,6.1,1.8,7.7,4.7
			c1.2,1.9,2.2,3.9,3.3,5.8c1.1,1.9,2.1,3.9,3.3,5.8c1.1,1.9,2.2,3.9,3.3,5.8s2.1,3.9,3.3,5.8c1.6,3,2.5,5.2,3.3,7.4
			c1.6,4,1.8,8.2,2.2,12.3l0.1,1l0.1,1c0,0.4,0.1,0.8,0.1,1.2s0.1,0.8,0.1,1.2c0.1,0.4,0.1,0.7,0.1,1.1c0,0.4,0,0.8,0.1,1.2v0.1h0.1
			c6.2,0,12.4,0.1,18.6,0.2c6.2,0.1,12.4,0.1,18.6,0.2l35.8,0.3v-0.1c2.5-5.1,5.7-8.9,10.1-11.6c8.4-5.2,15.1-8.5,21.9-10.6
			c0.9-0.3,1.3-0.6,1.5-1.5c0.1-0.7,0.2-1.3,0.4-1.9c0.1-0.3,0.1-0.6,0.2-0.8c0.3-0.8,0.5-1.6,0.6-2.3c0.2-0.8,0.2-1.5,0.2-2.1v-0.1
			h-0.1c-5.4-2.3-11.7-8.2-15.8-13c-3-3.7-5.2-7.6-8-12.6c-2.2-4-3.9-8.4-5.1-14.3c-1.3-5.7-1.7-12-1.6-20.4c0-1.1,0.2-2.1,0.4-3.1
			c0.9-3.5,1.6-7,2.4-10.5l0.3-1.3c0.5-2.3,1-4.7,1.6-7c0.1-0.3,0.3-1.4,0.3-1.6c0.1-0.4,0.2-0.8,0.3-1.1c0.4-1.8,0.8-3.7,1.6-5.2
			c3.7-8.1,8.2-14.5,13.8-19.5c1.7-1.6,3.7-3.3,5.5-4.8c0.7-0.5,1.4-1,2-1.4c0.8-0.5,1.6-1,2.4-1.4c1.1-0.6,2.1-1.2,3.1-1.7l0.5-0.3
			c4.1-2.3,8.6-5,13.6-6.7C715.4,391.6,722.9,390.4,730.1,390.4z M725.1,536.4c-0.2,0.3-0.4,0.6-0.6,0.9c-0.2,0.3-0.4,0.5-0.6,0.8
			c-1.6,2.3-3.3,4.7-5.1,6.8c-1.7,1.9-3.9,3.9-5.5,5.3c-0.5,0.4-1.3,1.1-1.7,1.6l-0.2,0.2h0.3c9.1,0.2,21,0.4,33.2,0.5h0.5l-0.5-0.2
			c-0.1,0-0.2-0.1-0.3-0.2c-0.1-0.1-0.2-0.2-0.3-0.2c-0.4-0.2-0.7-0.4-1-0.6c-3.1-1.8-6-4.3-8.4-7c-2-2.1-4.4-4.4-6.8-6.7
			C727.1,536.8,726.2,536.4,725.1,536.4L725.1,536.4L725.1,536.4z M696.7,521.5c-0.3,1.7-0.7,3.3-1.1,4.8l-0.3,1.3
			c-1.2,4.4-1.6,8.3-1.4,12c0.3,5.5,2.9,9.7,8,12.6h0.1h0.1c0.2-0.1,0.4-0.3,0.6-0.4c0.2-0.2,0.5-0.3,0.7-0.5l0.7-0.5
			c0.8-0.5,1.6-1.1,2.2-1.6c1.8-1.6,3.7-3.3,5.8-5.4l1.8-1.8c0.8-0.8,1.5-1.5,2-2.3c2.8-3.9,5.5-7.8,7.9-11.2c0.4-0.5,0.7-1.1,1-1.6
			l0.1-0.1h-0.2c-4.7-0.9-9.1-1.6-13.7-2.5c-2.7-0.5-5.4-1-8.2-1.5L696.7,521.5L696.7,521.5z M688,535.2c-0.1,0-0.2,0-0.3,0.1
			c-0.5,0-0.8,0.2-0.9,0.2c-6.2,2.2-12.1,5.3-18.3,9.5c-1.6,1-2.7,2.3-4,3.7l-0.1,0.1c-0.2,0.3-0.5,0.6-0.8,0.8
			c-0.3,0.3-0.6,0.6-0.8,0.9c0,0.1-0.1,0.1-0.1,0.2c-0.1,0.2-0.3,0.5-0.4,0.8l-0.1,0.2l29.9,0.1l-0.1-0.2c-0.1-0.3-0.3-0.6-0.4-0.8
			c-0.1-0.3-0.3-0.6-0.4-0.9l-0.2-0.5c-0.8-1.7-1.6-3.6-2-5.5c-0.4-1.7-0.6-3.7-0.7-6c-0.1-0.5-0.1-0.9-0.1-1.3
			c0-0.4-0.1-0.9-0.1-1.3v-0.1L688,535.2L688,535.2z M511.7,503.4c-2.3,0-4.5,0.5-6.5,1.5c-3.2,1.5-6.3,3.7-8.8,6.4l-2,2.3
			c-1.6,1.6-2.8,3.2-4,4.7c-1.6,2.1-3,4.6-4.6,7.5c-2.6,5-4.1,10.4-5.4,16.8c-0.5,1.9-1,4.5-0.5,7.4v0.1h0.1
			c35,0.1,65.1,0.4,97.4,0.8h0.1v-0.1c-0.1-2.8-0.3-5.3-0.5-8v-0.4c-0.5-5.3-1.6-9.3-3.4-12.6c-3-5.3-6-10.8-9-16
			c-1.8-3.2-3.7-6.4-5.4-9.6c-0.8-1.4-1.9-2.1-3.2-2.1c-0.1,0-0.2,0-0.2,0c-2.1,0.1-4.2,0.2-6,0.7c-4.3,1.2-9.3,2.3-14.5,2.3
			c-0.4,0-0.8,0-1.2,0h-4.8c-0.4,0-0.8,0-1.2,0c-4.1,0-8.3-0.5-12.8-1.4C514.1,503.5,512.9,503.4,511.7,503.4z M316,525.3
			c0,0.2,0,0.4,0,0.6c0,0.4,0,0.7,0,1.1c-0.1,0.7-0.2,1.4-0.3,2c-0.1,0.7-0.1,1.4-0.2,2l-0.1,0.7c-0.3,2.3-0.6,4.7-0.9,7
			c-0.3,2-0.7,3.9-1,6l-0.4,1.8l-0.4,2H337v-0.1c0-0.6-0.1-1.1-0.2-1.6c-0.3-2.7-0.6-5.4-0.8-8.2v-5.7c-0.1-1.8-0.2-3.7-0.4-5.5
			c0-0.4-0.1-0.9-0.1-1.4c0-0.5-0.1-1-0.1-1.4v-0.1h-19.4L316,525.3L316,525.3z M693.2,408.4c-0.5,0.3-1,0.7-1.5,1
			c-1.2,0.8-2.2,1.6-3.3,2.3c-5.3,4.1-9.7,8.9-13,14.4c-1.7,2.7-3.5,5.6-4.3,8.8c-0.5,1.9-0.9,3.9-1.4,5.8c-0.5,1.9-0.9,3.9-1.4,5.8
			l-2.6,11.6c-0.3,1.2-0.4,2.5-0.5,3.9c-0.1,7.2,0.7,13.9,2.3,20.4c0.6,2.5,1.7,5.1,2.5,7c0.6,1.3,1.3,2.5,2,3.9
			c0.2,0.4,0.4,0.7,0.6,1c0.2,0.3,0.4,0.6,0.6,1c3.7,6.9,8.8,12.7,15.7,17.8c1.4,1.1,3,1.7,4.9,2.1l1.2,0.2
			c4.2,0.8,8.4,1.6,12.7,2.3c5,0.9,10,1.8,15,2.7c0,0,1.6,0.2,1.9,0.3c2.3,0.4,4.9,0.9,7.8,0.9c0.3,0,0.5,0,0.8,0
			c7.9-0.2,15.1-2.9,22.1-5.6l0.6-0.2c4.7-1.9,8.9-4.8,12.7-7.2l1.3-0.9c1.3-0.8,2.5-1.6,3.9-2.4c0.7-0.4,1.5-1.1,2-1.7
			c4-3.9,6.9-7.6,9-11.4c0.9-1.6,1.8-3.2,3-5.1c2.5-4,3.6-8.2,3.3-12.9V474H789c-2.6-0.1-5.8-0.2-8.9-0.2c-2.3,0-4.7-0.8-6.5-2.2
			c-1.6-1.1-3.1-2.1-4.5-3.6c-5.1-5.4-9-11.9-13.1-19.2c-0.6-1.1-1.4-2.1-2.1-2.9c-6.4-5.9-14.5-10.8-25.6-15.1
			c-9.9-3.9-17.7-8.1-24.7-13.4c-2.2-1.6-4.1-3.5-5.8-6c-1-1.6-1.8-2.8-2.8-4.3l-0.1-0.1L693.2,408.4z M236.1,463.2
			c0.5,4,1.2,7.1,2.1,9.8c1.2,3.4,2.9,6.7,4.7,9.9l0.8,1.6c1,1.6,1.9,3.5,3,5.6c1.8,3.8,4.7,7.1,8.7,10.2c1.8,1.5,3.9,2.8,5.7,4.1
			l0.9,0.6c0.5,0.4,1.1,0.8,1.6,1.2c0.6,0.4,1.1,0.8,1.6,1.2c5.5,3.9,11.4,6.7,18,8.3c1.2,0.3,2.3,0.6,3.5,1
			c1.6,0.4,3.3,0.9,4.8,1.3c0.6,0.1,1.1,0.2,1.6,0.4c0.6,0.1,1.1,0.3,1.6,0.4c0.3,0,0.7,0.1,1.1,0.2c1.1,0.3,2.1,0.5,3.2,0.6h36.3
			c2.5,0,5.1-0.5,8.4-1.5c6.6-1.9,13.2-5.4,20.7-11c4.4-3.2,7.8-7.5,10.6-13.5l0.2-0.3l-0.3,0.2c-0.2,0.1-0.4,0.2-0.6,0.2
			c-0.2,0.1-0.5,0.2-0.7,0.3c-0.8,0.3-1.8,0.7-3,1.1c-0.6,0.3-1.2,0.5-1.8,0.7c-0.6,0.2-1.3,0.5-1.8,0.7c-3.6,1.5-7.2,2.7-11.1,3.1
			c-3.4,0.3-7,0.6-10.8,0.6c-3.3,0-6.3-0.2-9-0.7c-8.4-1.4-16.2-4.7-23-9.8c-0.4-0.3-0.7-0.5-1.1-0.7c-0.3-0.2-0.7-0.4-1-0.7l-2-1.5
			c-1-0.7-1.3-1.7-1-3c0.4-1.2,1.4-1.7,2.4-1.7c0.1,0,0.3,0,0.4,0c0.8,0.1,1.4,0.4,2,0.9c1.2,0.8,2.3,1.6,3.5,2.4
			c6.5,4.9,13.7,7.9,21.5,8.7c2,0.2,4.2,0.3,6.9,0.3c1.9,0,3.9,0,5.5-0.1c1.1-0.1,2.1-0.1,3.2-0.1c2.4-0.1,4.6-0.5,6.4-1.1
			c2.1-0.7,4.2-1.5,6.2-2.2l0.5-0.2c2.9-1.2,5.9-2.3,8.9-3.1c3-0.9,3.9-2.5,4.4-5.1c0.7-3.2,1.4-6.8,1.1-10.2
			c-0.7-7.1-1.3-12.5-1.8-17.2c-0.1-0.9-0.2-1.6-0.3-2.4c-0.6-4.4-1.2-8-2.2-11.4c-1.1-4-2.4-7.9-3.8-11.5
			c-1.6-4.7-3.9-10.9-5.4-17.5v-0.2l-0.5,0.3c-1.2,0.6-2.1,1.2-3.1,1.6c-3.1,1.6-6.1,3.4-8.3,4.8l0,0c-0.9,0.5-1.6,0.9-2.4,1.4
			c-0.8,0.5-1.6,0.9-2.4,1.4l-2.3,1.3c-2.4,1.4-4.9,2.7-7.4,4c-6.1,3.2-10.8,5.5-15,7.5c-3.8,1.6-8.9,3.8-14.5,3.8h-0.4
			c-0.3,0-0.6,0.1-0.9,0.2l-0.2,0.1c-0.9,0.3-1.6,0.5-2.5,0.7c-0.9,0.2-1.6,0.5-2.5,0.7l-1.8,0.5c-3.1,0.9-6.3,1.8-9.3,2.9
			c-7.3,2.4-15.3,6-20.3,14.7c-1.8,3.1-4.4,5.6-7.4,8.4c-3.7,3.3-7.7,4.9-12.2,4.9c-1,0-2-0.1-3-0.2c-1.9-0.3-4-0.7-5.6-1.9
			c-1.5-1-2.8-1.9-4.2-2.9c-1.4-1-2.7-1.9-4.2-2.9c-0.3-0.3-0.6-0.5-1-0.7l-0.2-0.1v1.1H236.1z M511.7,480.7
			c-1.1,5.5-1.3,11.2-0.7,16.7v0.1h0.1c2.6,0.4,4.9,0.8,7.1,1.2l1.5,0.3c0.1,0,0.3,0.1,0.4,0.1s0.2,0,0.4,0.1c0.3,0,0.5,0.1,0.7,0.1
			c0.4,0.1,0.8,0.2,1.3,0.2c0.6,0,1.3,0,1.9,0s1.4,0,1.9,0c2.7,0.1,5.6,0.1,8.4,0.1c1.2,0,2.3,0,3.5,0s2.3-0.3,3.5-0.5
			c0.3-0.1,0.6-0.1,0.9-0.2c0.9-0.3,1.6-0.4,2.2-0.5h0.1v-20.9l-0.2,0.1c-6.5,2.1-14.2,4.4-22.3,4.4l0,0c-3.6,0-7.2-0.5-10.6-1.4
			h-0.1L511.7,480.7z M529.9,345.8c-4.8,0-10,0.5-15.4,1.5c-6.9,1.3-12.8,3.5-18.2,6.7c-0.5,0.3-1.1,0.6-1.6,0.9
			c-0.6,0.3-1.2,0.6-1.6,0.9l-0.8,0.4c-1.7,1-3.5,1.8-4.9,3c-8.5,6.6-15.3,13.7-20.7,21.8c0,0-0.1,0.1-0.1,0.2c0,0,0,0.1-0.1,0.1
			c-0.2,0.3-0.4,0.6-0.6,0.8c-2.3,2.8-3.8,5.6-4.5,8.6c-0.1,0.4-0.2,0.9-0.3,1.3c-0.1,0.4-0.2,0.9-0.3,1.3
			c-0.9,3.6-1.7,7.4-2.3,11.2c-1.2,9.3-1.7,20.3,2.6,31.1c1.4,3.2,2.6,5.6,4.1,7.9c0.3,0.4,0.5,0.7,0.8,1c0.2,0.3,0.5,0.6,0.7,1
			l0.1,0.2c1,1.3,1.9,2.5,2.6,4c1.5,3,3.6,5.9,6.3,8.9c4.2,4.8,9,8,14.4,9.8c5,1.6,10.2,3.1,15.2,4.6l2.5,0.7l1.4,0.4
			c2.1,0.6,4.3,1.2,6.3,1.7c0.6,0.2,1.3,0.3,2,0.4c1.6,0.2,3.2,0.3,4.8,0.3c9,0,17.5-2.8,25.5-5.6c3.2-1.2,6.5-2.6,9.7-4.1l0.2-0.1
			c0.8-0.4,1.6-0.8,2.5-1.2c1-0.5,2-1,3.1-1.4c3-1.3,5.7-2.9,8.1-4.9c0.5-0.4,1.1-0.9,1.6-1.4c0.5-0.4,1-0.9,1.5-1.3
			c1-0.9,2-1.7,3.1-2.6c2.1-1.7,3.8-3.7,4.9-5.8c2.2-4.2,4.4-8.1,6.2-11.9c1.5-3.1,2.4-6.5,2.8-10.1c1.1-8.2-0.2-16.8-1.3-24.2
			c-0.1-0.7-0.6-3.9-0.6-3.9c0-0.8-0.5-1.1-1.2-1.6c-1.5-0.9-3-1.9-4.6-3.1c-0.7-0.4-1.4-0.9-2-1.4c-0.3-0.2-0.6-0.4-0.9-0.6
			c-0.3-0.2-0.6-0.5-0.9-0.7c-0.3-0.2-0.6-0.4-0.9-0.6c-0.9-0.6-1.7-1.2-2.6-1.6c-7.4-3.4-15-7-22.2-11.1c-1-0.7-1.9-1.1-2.9-1.5
			c-3.7-1.2-7-2.9-10.8-5.1c-4.6-2.7-8.9-4-13.2-4c-0.7,0-1.4,0-2,0.1c-1.7,0.1-3.4,0.2-5,0.2c-0.5,0-0.9,0-1.3,0s-0.8,0-1.3,0
			c-4.6,0.1-9.2,1.4-14.2,3.8c-8,3.9-13.9,8.3-18.5,13.9c-1,1.2-2,2.2-3.1,3.1c-0.5,0.4-1.1,0.6-1.6,0.6c-0.6,0-1.3-0.3-1.6-0.7
			c-0.9-0.8-1.1-1.9-0.7-3.1c0.2-0.5,0.5-1,0.9-1.4l0.3-0.3c0.9-1,1.7-1.8,2.6-2.7c5.4-6.3,12.6-11.3,22.7-15.8
			c4.1-1.7,8.4-2.7,13-2.9c1.5-0.1,2.8-0.1,4.3-0.1c2.1,0,4.3,0,6.4-0.1c0.2,0,0.5,0,0.7,0c3,0,6,0.7,9.2,1.9c2,0.8,4,1.8,5.8,2.9
			c0.3,0.2,0.6,0.3,0.9,0.5c0.3,0.2,0.6,0.4,0.9,0.5c1.3,0.7,2.5,1.4,3.8,1.9c0.7,0.3,1.4,0.6,2.1,1c0.7,0.3,1.4,0.6,2,0.9
			c0.8,0.4,1.6,0.8,2.5,1.2c0.9,0.4,1.6,0.8,2.5,1.2c4.4,2,8.1,4,11.6,5.7c3.8,1.6,11.1,4.9,17.4,8.5l0.3,0.2l-0.1-0.3
			c-0.7-2.2-3.1-6.1-4.6-8c-0.8-1.1-1.6-2.3-2.5-3.4l-0.7-0.9c-1.8-2.4-3.7-4.8-5.1-7.7c-0.2-0.6-0.6-1-1-1.5l-0.3-0.3
			c-0.3-0.3-0.6-0.6-0.8-0.9c-3.1-3.4-6.9-6.3-10.1-8.7c-1.1-0.9-2.2-1.7-3.4-2.6c-2.9-2.1-5.8-3.6-9-4.6c-1.6-0.5-3.3-0.9-4.9-1.2
			c-0.3,0-0.6-0.1-0.9-0.2c-0.3-0.1-0.6-0.2-0.9-0.2C539.4,346.3,534.7,345.8,529.9,345.8z M730.6,396.1c-5.9,0-11.8,0.9-18.1,2.7
			c-4.8,1.5-8.7,3.2-12.2,5.5l-0.1,0.1l0.1,0.1c0.3,0.5,0.7,1.1,0.9,1.4l0.1,0.2c1.4,2.1,2.6,4.3,4.6,5.6c5,3.9,10.5,7.8,16.6,10.4
			c1.7,0.8,3.6,1.6,5.4,2.3c4,1.6,8.6,3.7,13.2,5.9c5.2,2.5,10.6,6.1,17.3,11.6c1.2,1,2,2.1,2.7,3.1c0.8,1.2,1.5,2.5,2.2,3.9
			c1.3,2.2,2.5,4.5,3.9,6.5c2.1,3.1,4.6,6,6.9,8.8l0.4,0.5c0.8,1,2.9,3.2,5.8,3.3c3.1,0.1,6.1,0.1,9.2,0.1h3.1l0.2-0.1
			c0-0.3,0.1-0.5,0.2-0.8l0.1-0.2c0.3-7.7-0.7-15.4-1.8-24c-0.9-7.2-4.3-13.3-7.6-18.4c-1-1.6-2.1-2.7-3.1-3.3c-1.4-1-2.7-2-4.1-3
			c-1.4-1-2.7-2-4.1-3c-4-2.9-8.6-6.4-13.2-9.9c-4.5-3.3-8.5-5.4-12.8-6.8c-4.3-1.3-8-2-11.4-2.3
			C733.2,396.2,731.9,396.1,730.6,396.1z M315.7,384.8c-5,0-9.5,0.9-13.6,2.6c-2,0.8-4.1,1.7-6.1,2.7l-1.6,0.8
			c-6.6,3.1-12.9,7.1-18.4,10.7l-2,1.3c-3.8,2.3-8.7,5.5-13,9.4c-6,5.4-11.2,11.2-15.4,17.5c-2.6,3.7-4.2,8-5.6,12.2l-0.2,0.6
			c-0.8,2.3-1.4,4.7-1.9,7c-0.4,1.2-0.7,2.3-1,3.5c0,0.3-0.1,0.8-0.2,1.3c0,0.1,0,0.2,0,0.3c0,0.1-0.1,0.2-0.1,0.3v0.1h0.1
			c1.5,0.9,2.4,1.6,3.2,2.2c0.5,0.4,0.9,0.7,1.4,1.1c0.5,0.3,0.9,0.7,1.4,1c1.7,1.4,3.2,2.4,4.6,3.3c2.3,1.6,4.8,2.2,7.1,2.2
			c2.7,0,5.3-1,7.8-3c2.2-1.8,4.2-4.1,5.6-5.6c1.2-1.4,2.2-2.9,3.2-4.4c0.2-0.2,0.4-0.5,0.5-0.7c0.2-0.2,0.3-0.5,0.5-0.7
			c1.9-2.7,3.8-4.6,6-6.1c5.2-3.5,10.3-5.9,15.3-7.5c0.7-0.2,1.5-0.4,2.2-0.6s1.6-0.5,2.2-0.7c3.6-1.1,7.3-2.1,10.8-3.1
			c1-0.3,2-0.5,3.1-0.6h0.1c0.4,0,0.7,0,1-0.1c0.3,0,0.6-0.1,0.8-0.1c0.3,0,0.5-0.1,0.8-0.1c1.2-0.1,2.2-0.3,3.2-0.6
			c7.1-2.2,13.9-5.2,20.8-9.3c2-1.2,4.1-2.3,6.1-3.5c1.5-0.8,2.9-1.6,4.4-2.4c3.9-2.1,7.9-4.3,11.9-6.5c1.6-0.9,3.1-1.7,4.7-2.6
			c2.5-1.5,4.2-2.9,5.1-4.8c0.9-1.6,0.7-3.6-0.4-4.8c-0.6-0.7-1.3-1.5-2.1-1.9l-0.5-0.3c-4.1-2.6-7.9-5-12.4-6.4
			c-6.8-2.1-13.3-3.1-19.8-3.1c-0.3,0-0.6,0-0.9,0c-5.5,0-10.3-0.2-15.4-0.5C317.6,384.8,316.5,384.8,315.7,384.8z"/>
		<path class="st0" d="M853.6,82.2L853.6,82.2c1.6,0,3.2,0.3,4.8,0.6c0.7,0.1,1.5,0.2,2.1,0.3c0.7,0.1,1.5,0.3,2.1,0.3l0.8,0.1
			c1.3,0.2,2.5,0.5,3.7,0.7c0.1,0.1,0.2,0.1,0.4,0.1c0.1,0,0.2,0,0.3,0.1h0.1h0.1c0.1,0,0.2,0,0.3,0c0.1,0,0.2,0,0.4,0.1
			c1.5,0.5,2.2,1.5,2.2,2.9V89l-1.5,87.4L865,421.1c-0.4,17.8-0.7,36.1-1,53.6v0.9c-0.2,9-0.3,18.3-0.5,27.2
			c-0.2,8.9-0.4,18.1-0.5,27.2v0.2v0.8c-0.1,5.9-0.2,11.9-0.4,17.9c-0.1,5-3.9,9.4-8.7,10.2c-0.2,0-0.4,0-0.6,0
			c-0.2,0-0.5,0.1-0.8,0.1H852c-1.9-0.5-4.2-0.7-7-0.7c-0.7,0-1.5,0-2.4,0h-2.7c-44.8-0.4-90.5-0.8-134.6-1.2l-16.5-0.1h-1.2
			c-7.7,0-15.4-0.1-22.9-0.2c-7.5-0.1-15.3-0.2-23-0.2c-7.6,0-15.3-0.1-22.8-0.2c-7.5-0.1-15.2-0.2-22.8-0.2
			c-11.2-0.1-22.8-0.2-33.8-0.4c-11.1-0.1-22.6-0.2-33.8-0.4l-66.3-0.6l-15.8-0.1l-26.2-0.2h-0.9c-13.5-0.1-27.4-0.2-41.1-0.4
			l-16-0.1c-38.1-0.4-77.5-0.7-117.1-1.2c-5,0-10.3-0.1-15.2-0.1c-5,0-10.2-0.1-15.3-0.1c-10.2,0-20.6-0.1-30.5-0.2
			c-3.7,0-7.5-0.2-11.3-0.4c-0.9,0-1.6-0.3-2.5-0.6c-2-0.8-3-2.2-3-4.5c0-2.1,0-4.3-0.1-6.3c0-2,0-4.2,0-6.3c0-2,0-4.2,0-6.3
			c0-2.1-0.1-4.3-0.1-6.4l-1.3-193.4c-0.5-64.8-1-134.1-1.4-202.7c-0.1-3.6-0.1-7-0.1-10.7c0-3.7,0-7.1-0.1-10.7
			c0-1.1-0.2-2.3-0.4-3.3c-0.1-0.5-0.2-1-0.3-1.8c-0.4-1.7,0.3-3.1,1.8-3.6c1.9-0.9,3.7-1.3,5.2-1.3c6.8-0.2,13.7-0.3,20.4-0.4
			c6.7-0.1,13.6-0.2,20.4-0.4c12.3-0.3,24.5-0.5,36.3-0.7c6-0.1,12.1-0.2,18.1-0.4c5.9-0.1,12-0.2,18-0.3c5.2-0.1,10.5-0.2,15.5-0.2
			c5.1-0.1,10.5-0.2,15.7-0.3c10.4-0.2,20.8-0.4,31.2-0.6h0.1c5.5-0.1,11.1-0.2,16.5-0.4c5.4-0.1,11-0.2,16.5-0.4
			c10.8-0.2,21.5-0.4,32.2-0.6c10.5-0.1,21.3-0.3,30.9-0.5l30.8-0.6c12.9-0.4,26.5-0.8,37.8-1h1.2c9.1-0.2,17.6-0.4,26.2-0.5
			c10.5-0.2,20.7-0.3,30.8-0.5l6.1-0.1c7.2-0.1,14.4-0.2,21.4-0.4c3.6-0.1,7.2-0.2,10.8-0.2l16.1-0.3l16.1-0.3
			c10.3-0.1,20.7-0.3,30.7-0.5h0.6c10.4-0.2,20.8-0.4,31.2-0.6c7.2-0.1,14.5-0.2,21.7-0.4c3.6-0.1,7.2-0.2,10.7-0.2l16.3-0.3
			l16.2-0.3c10.3-0.1,20.8-0.3,31-0.5c10.4-0.2,20.8-0.4,31-0.6h0.5C837.2,82.5,845.4,82.3,853.6,82.2 M306,548.3L306,548.3
			c1.1-1.5,1.6-3,1.6-4.6c0.1-1.3,0.2-2.4,0.4-3.6c0.2-0.7,0.3-1.4,0.4-2.1c0.1-0.7,0.2-1.4,0.4-2c0.4-2.1,0.8-4.3,1.1-6.3
			c0.2-1.1,0.2-2.2,0.1-3.7c-0.1-0.5-0.1-1.1-0.1-1.6v-0.2h-0.2c-0.4-0.1-0.9-0.1-1.2-0.1h-1.1h-9.5c-1,0-1.8-0.1-2.6-0.3
			c-1.4-0.3-2.8-0.6-4.8-1.1c-1.9-0.5-3.4-0.8-4.8-1.1c-9-1.9-17.3-5.4-24.2-10.4c-2.3-1.6-4.7-3.3-7-4.8c-4.3-2.8-7.9-6-10.9-9.8
			c-0.4-0.5-0.8-1.1-1.1-1.6c-0.4-0.6-0.7-1.2-1-1.8c-0.1-0.2-0.2-0.4-0.3-0.6c-0.5-1.1-1.1-2.2-1.6-3.3l-0.3-0.6l-0.5-0.9
			c-2.4-4.3-4.8-8.7-6.4-13.6c-3.3-9.4-3.5-17.9-0.8-26c0.4-1.2,0.7-2.3,1-3.5c0.1-0.5,0.2-0.9,0.3-1.3l0.1-0.4
			c0.2-0.9,0.4-1.7,0.6-2.6l0.1-0.2c0.1-0.3,0.2-0.7,0.3-1.1c0.2-0.3,0.3-0.6,0.5-1c0.1-0.3,0.3-0.6,0.4-0.9
			c0.3-0.6,0.6-1.4,0.8-1.8c1.6-4.7,4.1-8.9,7.2-12.5c2-2.3,4.1-4.7,6.1-7l0.7-0.8c0.6-0.7,1.2-1.4,1.7-1.9c0.6-0.7,1.2-1.4,1.7-1.9
			c2.6-2.9,5.6-5.5,8.8-7.7c1.6-1,3.1-2,4.6-3c1.6-1,3.1-2,4.7-3c1.8-1.3,3.8-2.5,5.7-3.7c1.2-0.8,2.3-1.6,3.5-2.2
			c5.7-3.6,11.9-6.8,19.1-9.6c5-1.9,9.6-2.9,14.1-2.9c0.4,0,0.8,0,1.3,0c2.3,0.1,4.7,0.2,6.9,0.2c1.2,0,2.3,0,3.4,0.1
			c1.2,0,2.3,0.1,3.5,0.1c2.2,0,4.6,0.1,6.8,0.2h0.3c2.4,0.1,4.8,0.2,7.3,0.5c8.9,0.9,17.5,3.8,25.4,8.7c2.5,1.6,4.6,3.4,6.2,5.4
			c2.1,3,2.2,6.2,0.4,9.2c-0.6,1-1.3,1.9-1.9,2.9c-0.1,0.2-0.3,0.5-0.4,0.7c-0.2,0.2-0.3,0.5-0.5,0.7l-0.1,0.1v0.1
			c0.3,1,0.6,1.9,0.8,2.9l0.2,0.8c0.4,1.6,0.9,3.2,1.4,4.8c1.4,4.1,2.9,8.6,4.8,14.2c0.4,1.2,0.8,2.3,1.3,3.6
			c0.4,1.2,0.8,2.3,1.2,3.5c0.1,0.2,0.1,0.4,0.2,0.6s0.1,0.4,0.2,0.6s0.1,0.4,0.2,0.6c0.2,0.7,0.5,1.4,0.6,2
			c0.4,2.5,0.8,5.2,1.1,7.8c0.3,2.5,0.7,5.2,1.1,7.7c0.2,1.4,0.3,2.7,0.4,4.1l0.1,0.8c0.2,2.2,0.3,4.6,1.3,6.7c0.2,0.4,0.1,1,0,1.6
			s-0.1,1.3-0.1,1.9c0,1.4-0.1,2.7-0.2,4c-0.5,5.5-1.6,10-3.7,14.2c-1.5,2.9-3.2,6.2-5.5,10c-2,3.5-4.7,6.5-7.6,8.7
			c-5.2,4.2-12.4,9.4-20.9,12.3c-1.8,0.6-3.7,1.3-5.6,1.9c-0.7,0.3-1.5,0.6-2.2,0.9l-0.2,0.1v0.2v1.7v0.6c0.1,4,0.2,8.1,0.4,12.4
			c0.1,1.9,0.4,4,0.7,5.8c0.5,3.3,1.9,3.9,4.6,3.9h0.6c16.1,0.1,32.8,0.2,48.8,0.4c4.1,0.1,8.2,0.1,12.3,0.1s8.1,0,12.2,0.1h0.2
			c8.2,0.1,16.8,0.2,25.3,0.2c8.4,0,17,0.1,25.2,0.2h0.3h2.3h0.2v-0.2c0.1-0.5,0.1-0.9,0.1-1.3c0-1.2,0.1-2.2,0.2-3.3
			c1.1-7.9,3.1-15,6.4-21.9c3.5-7.3,8.8-13.8,17-20.4c0.8-0.5,1.6-1,2.5-1.6c0.9-0.5,1.6-0.9,2.5-1.4c0.9-0.5,1.7-0.9,2.5-1.4
			l0.1-0.1v-0.1V495c0-0.8,0-1.5,0-2.2c0-1.5,0-2.9,0-4.4l0.6-6.4c0-0.5,0.1-1.1,0.1-1.6c0-0.5,0.1-1.1,0.2-1.6v-0.2l-0.2-0.1
			c-0.8-0.2-1.4-0.4-1.9-0.6c-3.4-1.1-6.8-2.1-9.9-3.1c-1.3-0.4-2.6-0.8-4-1.3c-1.9-0.6-3.9-1.2-5.8-1.7c-0.5-0.1-0.8-0.3-1.3-0.7
			c-0.5-0.3-1-0.6-1.5-0.9c-1.3-0.8-2.5-1.6-3.7-2.5c-1.6-1.1-3.5-2.4-4.9-4.1c-2-2.2-3.9-4.6-5.7-6.9l-1.2-1.6l0,0l0,0
			c-0.2-0.2-0.4-0.5-0.6-0.9c-0.1-0.1-0.1-0.2-0.2-0.3c0-0.1-0.1-0.1-0.1-0.2c-0.1-0.1-0.2-0.3-0.3-0.4c-0.2-0.4-0.5-0.8-0.7-1.3
			c-0.4-0.6-0.7-1.1-1-1.6c-0.2-0.3-0.4-0.6-0.6-0.9c-2.7-4.1-5.4-8.3-7.4-13.3c-2.1-5.6-3.3-11.6-3.4-18.2
			c-0.2-9.8,1.1-19.6,3.8-29c1.1-3.4,2.8-6.9,5.4-10.8c3.5-5.2,7.6-10.1,12.1-14.6c4.6-4.6,9-8.8,14.4-11.8c0.4-0.2,0.8-0.4,1.2-0.6
			c0.4-0.2,0.7-0.4,1.2-0.6c1.8-1.1,3.9-2.1,5.9-3.1c3.3-1.6,6.5-3,10.1-4.1c7.5-2.2,15-3.4,23.1-3.4c4.7,0,9.5,0.4,14.4,1.2
			c4.8,0.7,9.1,2,13.1,4c5.2,2.5,9.7,6.4,14,10.1l0.7,0.6c0.4,0.4,0.8,0.7,1.2,1s0.7,0.6,1.2,1c3.8,3.2,6.8,6.6,9.2,10.2
			c0.9,1.5,1.8,2.8,2.8,4.2c0.6,0.8,1.1,1.6,1.6,2.4l0.8,1.2c1,1.3,1.8,2.6,2.8,4c0.4,0.5,0.6,0.9,0.7,1.3l0.6,1.7l0.2,0.7
			c1.2,3.6,2.4,7.2,2.8,11.1c0.1,1.6,0.4,3.3,0.6,4.8c0.1,0.8,0.2,1.5,0.3,2.2c1.2,7.8,2,14.7,1.2,22.1v0.1c-0.4,3.4-0.8,7-2,10.3
			c-1.2,3-2.6,6.3-4.4,10c-3.3,6.9-7.1,11.6-11.8,15.1c-0.6,0.4-1.2,0.9-1.6,1.4c-6,5.7-13.5,9-20.7,11.6c-0.8,0.3-1.6,0.7-2.4,1
			c-0.5,0.2-0.9,0.4-1.3,0.6c-0.3,0.1-0.6,0.3-0.9,0.4c-0.3,0.1-0.7,0.3-1,0.4l-0.1,0.1v0.1c-0.6,4.1-0.6,18.6-0.1,21.1v0.2h0.2h1.6
			c0.4,0,0.9,0,1.3,0s0.8,0,1.1,0c0.4,0,0.8,0,1.2,0c3.6,0.3,6,1.8,7.6,4.7c1.1,1.9,2.2,3.9,3.3,5.8c1.1,1.9,2.2,3.9,3.3,5.8
			c1.1,1.9,2.2,3.9,3.3,5.8c1.1,1.9,2.2,3.9,3.3,5.8c1.6,3,2.5,5.2,3.3,7.4c1.6,4,1.8,8.1,2.2,12.3l0.1,1l0.1,1
			c0,0.4,0.1,0.8,0.1,1.2c0,0.4,0.1,0.8,0.1,1.2c0.1,0.4,0.1,0.7,0.1,1.1c0,0.4,0,0.8,0.1,1.2v0.2h0.2c6.2,0,12.5,0.1,18.6,0.2
			c6.1,0.1,12.4,0.2,18.6,0.2l35.7,0.3h0.2l0.1-0.1c2.4-5.1,5.7-8.9,10-11.6c8.4-5.2,15.1-8.5,21.8-10.6c1-0.3,1.3-0.7,1.6-1.6
			c0.1-0.7,0.2-1.3,0.4-1.8c0.1-0.3,0.1-0.6,0.2-0.8c0.3-0.8,0.5-1.6,0.6-2.3c0.2-0.8,0.2-1.6,0.2-2.2V520l-0.2-0.1
			c-5.4-2.3-11.8-8.4-15.7-12.9c-3-3.7-5.2-7.6-8-12.6c-2.2-4-3.9-8.4-5.1-14.2s-1.7-11.9-1.6-20.3c0-1.1,0.2-2.1,0.4-3
			c0.9-3.5,1.6-7.1,2.4-10.5l0.3-1.3c0.5-2.3,1-4.8,1.6-7c0-0.3,0.1-0.6,0.1-0.8c0.1-0.3,0.1-0.6,0.1-0.8c0.1-0.4,0.2-0.8,0.3-1.2
			c0.4-1.7,0.8-3.7,1.6-5.2c3.7-8.1,8.2-14.4,13.7-19.4c1.8-1.6,3.7-3.3,5.5-4.8c0.7-0.5,1.4-1,2-1.4c0.8-0.5,1.6-1,2.4-1.4
			c1.1-0.6,2.1-1.2,3.1-1.7l0.5-0.3c4.1-2.3,8.6-5,13.6-6.7c8-2.6,15.3-3.9,22.6-3.9c3.9,0,7.8,0.4,11.5,1.2
			c7,1.5,12.1,3.6,16.2,6.6c7.6,5.4,15.8,11.5,26.1,19.3c0.9,0.7,1.7,1.4,2.2,2.1c5.4,8,8.4,14.5,9.7,21.4c0.2,1,0.3,1.9,0.4,3
			c0.1,0.5,0.1,1,0.2,1.5c0.1,1.2,0.2,2.2,0.4,3.4c0.9,7.3,1.7,15.7,0.7,24.5c-0.1,0.2-0.1,0.3-0.1,0.5c0,0.1,0,0.3-0.1,0.4l0,0l0,0
			c0,0.3-0.1,0.6-0.1,0.9c-0.1,0.6-0.2,1.1-0.2,1.6c0,3.1-0.8,6.1-2.3,9.2c-2.2,4.2-4.9,9-8,13.5c-1.9,2.9-4.9,7.1-9.2,9.8
			c-3.9,2.6-8.1,5.3-13.3,8.2c-4.6,2.7-9.5,4.4-14,5.8l-1.9,0.7c-4.3,1.4-8,2.1-11.8,2.4c-1.7,0.2-3.7,0.3-5.5,0.4h-0.3h-0.1
			l-0.1,0.1c-0.5,0.8-1,1.6-1.4,2.4c-0.3,0.5-0.5,0.9-0.8,1.3l-0.1,0.2l0.2,0.1c4.1,2.8,7.1,5.4,9.3,8.2c3.3,4.1,7.5,7.1,12.9,9.4
			c1,0.4,1.7,1,2.6,1.8c1.3,1.3,2.3,1.7,3.9,1.7c30,0.2,60.4,0.5,89,0.8c1.4,0,2.7,0.1,4,0.2c0.9,0.1,1.7,0.2,2.6,0.2
			c0.4,0,1,0,1.3-0.2c2-1.1,3.3-2.3,3.3-4.8c0.2-14.1,0.4-30.2,0.8-47.8c0.1-6,0.2-12.1,0.4-17.9c0.1-5.9,0.2-12,0.4-18
			c0.1-6,0.2-12.1,0.3-17.9c0.1-5.9,0.3-12,0.4-18c0.1-5.5,0.2-11.2,0.3-16.6c0.1-5.3,0.1-11,0.2-16.4c0.1-11.2,0.3-22.7,0.5-33
			l2.6-179.3c0.2-15.3,0.5-31,0.8-46.2c0.3-15.1,0.6-30.8,0.8-46.2c0.1-0.4,0.1-1.1,0.1-1.8v-0.2h-0.2l-0.8-0.2
			c-0.7-0.1-1.3-0.3-1.8-0.3l-7.2-1.2h-0.2c-0.4-0.1-0.8-0.2-1.2-0.2c-7.1,0.1-14.9,0.2-24.8,0.5l-61.6,0.9l-6.7,0.1l-13.4,0.2
			c-3.2,0-6.5,0.1-9.7,0.2c-3.4,0.1-6.9,0.2-10.3,0.2l-61.8,1.2l-6.7,0.1l-13.4,0.2c-3.2,0-6.5,0.1-9.7,0.2
			c-3.4,0.1-6.9,0.2-10.3,0.2l-60.9,1.2c-12.9,0.3-25.9,0.5-38.6,0.7h-2.1l-61.6,1.2c-6.5,0.2-13.1,0.3-19.5,0.4H442h-0.8
			c-6.3,0.1-12.7,0.2-19.2,0.4l-61.8,1.2c-6.4,0.2-12.9,0.3-19.2,0.4h-0.6c-4.4,0-8.8,0.1-13.2,0.2c-2.2,0-4.5,0.1-6.6,0.1
			c-25.1,0.5-54.8,1.2-84.3,1.6l-66,1.2c-0.4,0-0.8,0-1.4,0.1h-0.2v0.2v2.4l0.3,42.8c0,14.2,0.1,28.5,0.2,42.5
			c0.4,64.7,0.9,129.9,1.4,190.8l0.9,134c0.1,10.4,0.1,20.9,0.1,31.2c0,0.7,0,1.6,0.1,2.4v0.4v0.2h0.2c24.2,0.5,48.9,0.7,72.6,0.9
			h1.7C266.3,547.7,286.4,547.9,306,548.3L306,548.3 M466.4,380.9c-0.1,0.1-0.1,0.1-0.1,0.2c0,0,0,0.1-0.1,0.1
			c-0.2,0.3-0.4,0.6-0.6,0.8c-2.3,2.8-3.8,5.6-4.6,8.6c-0.1,0.4-0.2,0.9-0.3,1.3c-0.1,0.4-0.2,0.9-0.3,1.3
			c-0.9,3.6-1.7,7.4-2.3,11.2c-1.2,9.3-1.7,20.3,2.6,31.1c1.4,3.2,2.6,5.6,4.1,7.9c0.3,0.4,0.5,0.7,0.8,1c0.2,0.3,0.5,0.6,0.8,1
			l0.1,0.2c1,1.3,1.9,2.5,2.6,4c1.5,3,3.6,5.9,6.3,9c4.2,4.8,9,8,14.4,9.9c5,1.6,10.2,3.1,15.2,4.6l2.6,0.7l1.4,0.4
			c2.1,0.6,4.3,1.2,6.3,1.7c0.6,0.2,1.4,0.3,2,0.4c1.6,0.2,3.2,0.3,4.8,0.3c9,0,17.6-2.8,25.5-5.6c3.2-1.2,6.5-2.6,9.7-4.1l0.2-0.1
			c0.9-0.4,1.6-0.8,2.5-1.2c1-0.5,2-1,3.1-1.4c3-1.3,5.7-2.9,8.2-4.9c0.5-0.4,1.1-0.9,1.6-1.4c0.5-0.4,1-0.9,1.5-1.3
			c1-0.9,2-1.7,3.1-2.6c2.1-1.7,3.9-3.8,5-5.9c2.2-4.2,4.4-8.1,6.2-11.9c1.5-3.1,2.4-6.5,2.8-10.2c1.1-8.2-0.2-16.8-1.3-24.3
			c-0.1-0.6-0.2-1.3-0.3-1.9c-0.1-0.7-0.2-1.4-0.3-1.9c0-0.8-0.5-1.2-1.2-1.6c-1.5-0.9-3-1.9-4.6-3.1c-0.7-0.4-1.4-0.9-2-1.4
			c-0.3-0.2-0.6-0.4-0.9-0.6c-0.3-0.2-0.6-0.5-0.9-0.7c-0.3-0.2-0.6-0.4-0.9-0.6c-0.9-0.6-1.7-1.2-2.6-1.6c-7.4-3.4-15-7-22.2-11.1
			c-1-0.7-2-1.1-3-1.5c-3.7-1.2-6.9-2.9-10.7-5.1c-4.7-2.7-8.9-4-13.3-4c-0.7,0-1.4,0-2,0.1c-1.7,0.1-3.4,0.2-5,0.2
			c-0.5,0-0.9,0-1.3,0.1c-0.4,0-0.8,0-1.3,0c-4.6,0.1-9.2,1.4-14.2,3.8c-8,3.9-13.9,8.3-18.6,14c-1,1.2-2,2.2-3.1,3.1
			c-0.5,0.4-1.1,0.6-1.6,0.6c-0.6,0-1.2-0.2-1.6-0.7c-0.8-0.7-1.1-1.8-0.6-2.9c0.2-0.5,0.5-1,0.8-1.3l0.3-0.3c0.9-1,1.7-1.8,2.6-2.7
			c5.4-6.3,12.6-11.2,22.6-15.7c4-1.7,8.3-2.7,12.9-2.9c1.5-0.1,2.8-0.1,4.3-0.1c2.1,0,4.3,0,6.4-0.1c0.2,0,0.5,0,0.7,0
			c3,0,6,0.7,9.1,1.9c2,0.8,4,1.8,5.8,2.9c0.3,0.1,0.6,0.3,0.9,0.5c0.3,0.2,0.6,0.4,0.9,0.5c1.3,0.7,2.5,1.4,3.8,1.9
			c0.7,0.3,1.4,0.6,2,0.9s1.5,0.7,2,0.9c0.9,0.4,1.6,0.8,2.5,1.2c0.9,0.4,1.6,0.8,2.5,1.2c4.4,2,8.1,4,11.6,5.7
			c3.8,1.6,11.1,4.9,17.4,8.5l0.5,0.3l-0.2-0.6c-0.7-2.3-3.1-6.1-4.6-8.1c-0.8-1.1-1.6-2.3-2.5-3.4l-0.7-0.9
			c-1.8-2.4-3.7-4.8-5.1-7.6c-0.3-0.6-0.6-1.1-1.1-1.5c-0.1-0.1-0.2-0.2-0.3-0.3c-0.3-0.3-0.6-0.6-0.8-0.9
			c-3.1-3.4-6.9-6.3-10.1-8.7c-1.1-0.9-2.2-1.7-3.4-2.6c-2.8-2.1-5.8-3.6-9-4.5c-1.6-0.5-3.3-0.9-4.9-1.2c-0.3,0-0.6-0.1-0.9-0.2
			c-0.3-0.1-0.6-0.2-0.9-0.2c-4.5-1-9.2-1.5-14.1-1.5s-10.1,0.5-15.4,1.5c-6.9,1.3-12.9,3.5-18.3,6.7c-0.5,0.3-1.1,0.6-1.6,0.9
			c-0.6,0.3-1.2,0.6-1.6,0.9l-0.8,0.4c-1.7,1-3.5,1.8-4.9,3C478.5,365.6,471.7,372.7,466.4,380.9 M254,465c2.7,0,5.3-1,7.8-3
			c2-1.6,3.8-3.6,5.6-5.6c1.2-1.4,2.2-2.9,3.2-4.4c0.2-0.3,0.4-0.5,0.6-0.8c0.2-0.2,0.3-0.5,0.5-0.7c1.9-2.6,3.8-4.6,5.9-6
			c5.2-3.5,10.2-5.9,15.2-7.5c0.8-0.2,1.5-0.4,2.2-0.7c0.8-0.2,1.5-0.4,2.2-0.7c3.6-1.1,7.3-2.1,10.8-3.1c1-0.3,1.9-0.5,3-0.6
			c0.4,0,0.7,0,1.1-0.1c0.3-0.1,0.6-0.1,0.9-0.2c0.3,0,0.5-0.1,0.8-0.1c1.2-0.1,2.2-0.3,3.3-0.6c7.1-2.2,14-5.2,20.9-9.3
			c2-1.2,4.1-2.3,6.1-3.5c1.5-0.8,2.9-1.6,4.4-2.4c4-2.1,7.9-4.3,11.9-6.5c1.6-0.9,3.1-1.7,4.7-2.6c2.5-1.5,4.2-2.9,5.1-4.8
			c0.9-1.7,0.7-3.7-0.4-4.9c-0.6-0.7-1.4-1.5-2.2-1.9l-0.5-0.3c-4.1-2.6-7.9-5-12.5-6.4c-6.9-2.1-13.3-3.1-19.8-3.1
			c-0.3,0-0.6,0-0.9,0c-5.5,0-10.3-0.2-15.4-0.5c-1-0.1-2-0.1-3-0.1c-5,0-9.5,0.9-13.6,2.6c-2,0.8-4.1,1.7-6.1,2.7l-1.6,0.8
			c-6.6,3.1-12.9,7.1-18.4,10.7l-2,1.3c-3.8,2.3-8.7,5.5-13,9.4c-6,5.4-11.2,11.2-15.4,17.5c-2.6,3.7-4.2,8-5.6,12.2l-0.2,0.6
			c-0.8,2.3-1.4,4.8-1.9,7c-0.4,1.2-0.7,2.3-1,3.5l0,0l0,0c0,0.3-0.1,0.8-0.2,1.3c0,0.1,0,0.2,0,0.2c0,0.1-0.1,0.2-0.1,0.4v0.1
			l0.1,0.1c1.5,0.9,2.4,1.6,3.2,2.2c0.5,0.4,0.9,0.7,1.4,1.1c0.5,0.3,0.9,0.7,1.4,1c1.7,1.4,3.2,2.4,4.6,3.3
			C249.2,464.3,251.7,465,254,465 M789.3,468.4h3.1h0.1l0.1-0.1l0.1-0.1l0.1-0.1V468c0-0.2,0.1-0.4,0.1-0.7l0.1-0.2l0,0l0,0
			c0.3-7.7-0.7-15.4-1.8-24c-0.9-7.2-4.4-13.4-7.6-18.4c-1.1-1.6-2.1-2.7-3.2-3.4c-1.4-1.1-2.7-2-4.1-3s-2.7-1.9-4.1-3
			c-4.9-3.6-9.1-6.7-13.2-9.9c-4.5-3.3-8.5-5.4-12.9-6.8c-4.3-1.3-8-2-11.5-2.3c-1.4-0.1-2.7-0.1-4.1-0.1c-5.9,0-11.9,0.9-18.1,2.8
			c-4.8,1.5-8.7,3.2-12.3,5.5l-0.2,0.1l0.1,0.2c0.3,0.5,0.7,1.1,0.9,1.4l0.1,0.2c1.4,2.2,2.6,4.3,4.6,5.7c5,3.9,10.5,7.8,16.7,10.4
			c1.7,0.8,3.6,1.6,5.4,2.3c4,1.6,8.6,3.7,13.2,5.9c5.2,2.5,10.6,6.1,17.2,11.6c1.2,1,1.9,2,2.6,3c0.8,1.2,1.6,2.5,2.2,3.9
			c1.3,2.2,2.5,4.5,3.9,6.5c2.1,3.1,4.6,6,6.9,8.8l0.4,0.5c0.8,1,2.9,3.3,5.9,3.4C783.2,468.4,786.2,468.4,789.3,468.4 M732.8,522
			c0.3,0,0.5,0,0.8,0c7.9-0.2,15.1-2.9,22.2-5.6l0.6-0.2c4.7-1.9,9-4.8,12.7-7.2c0.4-0.3,0.9-0.6,1.3-0.9c1.3-0.8,2.5-1.6,3.9-2.4
			c0.7-0.4,1.5-1.1,2.1-1.7c4.1-4,6.9-7.6,9-11.5c0.9-1.6,1.8-3.2,3-5.1c2.5-4,3.6-8.3,3.3-12.9v-0.2h-0.2h-2.2
			c-2.7-0.1-5.8-0.2-8.9-0.2c-2.3,0-4.6-0.8-6.5-2.2c-1.6-1-3.1-2.1-4.5-3.6c-5.1-5.4-8.9-11.9-13.1-19.1c-0.6-1.1-1.4-2.2-2.1-3
			c-6.4-5.9-14.5-10.8-25.7-15.1c-9.9-3.9-17.7-8-24.6-13.4c-2.2-1.6-4.1-3.5-5.7-5.9c-1-1.6-1.8-2.8-2.8-4.3l-0.1-0.2l-0.2,0.1
			l-1.7,1.2c-0.5,0.3-1,0.7-1.5,1c-1.2,0.8-2.3,1.6-3.3,2.3c-5.3,4.1-9.8,9-13.1,14.5c-1.7,2.7-3.5,5.6-4.3,8.9
			c-0.5,1.9-0.9,3.9-1.4,5.8s-0.9,3.9-1.4,5.8l-0.9,3.9l-1.7,7.8c-0.3,1.2-0.4,2.6-0.5,4c-0.1,7.2,0.7,13.9,2.3,20.4
			c0.6,2.5,1.7,5.1,2.5,7c0.6,1.3,1.3,2.5,2,3.9c0.2,0.4,0.4,0.7,0.6,1c0.2,0.3,0.4,0.6,0.6,1c3.7,6.9,8.8,12.7,15.8,17.9
			c1.4,1.1,3,1.7,5,2.2l1.2,0.2c4.2,0.8,8.4,1.6,12.7,2.3c4.9,0.9,10,1.8,15,2.7c0.3,0,0.7,0.1,1,0.1c0.3,0.1,0.7,0.1,1,0.1
			C727.3,521.5,729.9,522,732.8,522 M355.9,418.3L355.9,418.3L355.9,418.3L355.9,418.3c-1,0.5-1.7,0.9-2.5,1.4
			c-0.8,0.4-1.6,0.9-2.4,1.4c-0.8,0.4-1.6,0.9-2.3,1.3c-2.4,1.4-4.9,2.7-7.4,4c-6.1,3.2-10.8,5.5-15,7.5c-3.8,1.6-8.9,3.8-14.5,3.8
			c-0.1,0-0.3,0-0.4,0c-0.4,0-0.7,0.1-1,0.2l-0.2,0.1c-0.8,0.2-1.6,0.5-2.4,0.7s-1.6,0.5-2.5,0.7l-1.8,0.6c-3.1,0.9-6.3,1.8-9.3,2.8
			c-7.3,2.4-15.4,6.1-20.3,14.7c-1.7,3.1-4.4,5.6-7.4,8.3c-3.6,3.3-7.6,4.9-12.1,4.9c-1,0-2-0.1-3-0.2c-1.9-0.3-3.9-0.7-5.6-1.9
			c-1.5-1-2.8-1.9-4.2-2.9s-2.7-1.9-4.2-2.9c-0.3-0.3-0.6-0.5-1.1-0.7l-0.4-0.2v0.4v1.3c0.5,4,1.2,7.1,2.1,9.9
			c1.2,3.4,2.9,6.8,4.7,9.9c0.3,0.5,0.6,1.1,0.8,1.6c1,1.6,1.9,3.5,3,5.6c1.8,3.8,4.7,7.2,8.8,10.3c1.8,1.5,3.9,2.8,5.7,4.1l0.9,0.6
			c0.6,0.4,1.1,0.8,1.6,1.2s1.1,0.8,1.6,1.2c5.5,3.9,11.4,6.7,18.1,8.3c1.2,0.3,2.3,0.6,3.5,1c1.6,0.4,3.3,0.9,4.8,1.3
			c0.5,0.1,1.1,0.2,1.6,0.3c0.5,0.1,1.1,0.3,1.6,0.4c0.3,0,0.7,0.1,1,0.2c1.1,0.3,2.1,0.5,3.3,0.6h24.1h12.1c2.5,0,5.1-0.5,8.5-1.5
			c6.6-1.9,13.2-5.4,20.8-11c4.4-3.2,7.8-7.6,10.7-13.6l0.3-0.7l-0.6,0.3c-0.2,0.1-0.4,0.2-0.6,0.2c-0.2,0.1-0.5,0.2-0.7,0.3
			c-0.8,0.3-1.8,0.7-3,1.1c-0.6,0.2-1.2,0.5-1.7,0.7c-0.6,0.2-1.3,0.5-1.8,0.7c-3.6,1.5-7.2,2.7-11,3.1c-3.4,0.3-7,0.6-10.8,0.6
			c-3.3,0-6.3-0.2-9-0.7c-8.4-1.4-16.2-4.7-23-9.8c-0.4-0.3-0.7-0.5-1.1-0.7c-0.3-0.2-0.7-0.4-1-0.7l-1.1-0.8l-1-0.7
			c-1-0.7-1.3-1.6-0.9-2.8c0.4-1.1,1.3-1.7,2.3-1.7c0.1,0,0.3,0,0.4,0c0.7,0.1,1.4,0.4,2,0.9c1.2,0.8,2.3,1.6,3.5,2.4
			c6.5,4.9,13.8,7.9,21.5,8.7c2,0.2,4.2,0.3,6.9,0.3c1.9,0,3.9,0,5.5-0.1c1.1-0.1,2.1-0.1,3.2-0.1c2.4-0.1,4.6-0.5,6.5-1.1
			c2.1-0.7,4.2-1.5,6.2-2.2l0.5-0.2c2.9-1.2,5.9-2.2,8.9-3.1c3.1-0.9,3.9-2.5,4.5-5.2c0.7-3.2,1.4-6.8,1.1-10.3
			c-0.7-7.1-1.3-12.5-1.8-17.2c-0.1-0.9-0.2-1.6-0.3-2.4c-0.6-4.4-1.2-8-2.2-11.4c-1.1-4-2.4-7.9-3.8-11.5
			c-1.6-4.7-3.9-10.9-5.4-17.5l-0.1-0.3l-0.3,0.2l-0.3,0.1c-1.2,0.6-2.1,1.2-3.1,1.6C361.1,415.1,358.2,416.8,355.9,418.3
			 M522.4,481.8c-3.6,0-7.2-0.5-10.6-1.4l-0.3-0.1v0.3c-1.1,5.5-1.3,11.2-0.7,16.8v0.2h0.2c2.6,0.4,4.8,0.8,7.1,1.2l1.5,0.3
			c0.2,0.1,0.3,0.1,0.4,0.1c0.1,0,0.2,0,0.4,0.1c0.2,0,0.5,0.1,0.7,0.1c0.4,0.1,0.9,0.2,1.3,0.2c0.6,0,1.3,0,1.9,0s1.4,0.1,1.9,0.1
			c2.8,0.1,5.6,0.1,8.4,0.1c1.3,0,2.4,0,3.5,0c1.2,0,2.4-0.3,3.6-0.5c0.3-0.1,0.6-0.1,0.9-0.2c0.9-0.3,1.6-0.4,2.2-0.5h0.2v-0.2
			v-20.7v-0.3l-0.3,0.1C538.3,479.7,530.6,481.8,522.4,481.8 M535.1,505.1c-0.4,0-0.8,0-1.2,0h-3.2h-1.6c-0.4,0-0.8,0-1.2,0
			c-4.1,0-8.3-0.5-12.8-1.4c-1.2-0.3-2.4-0.4-3.6-0.4c-2.3,0-4.6,0.5-6.6,1.5c-3.2,1.5-6.3,3.7-8.9,6.5l-2,2.3
			c-1.6,1.6-2.9,3.2-4,4.7c-1.6,2.1-3,4.6-4.6,7.5c-2.6,5-4.1,10.4-5.4,16.9c-0.5,1.9-1,4.6-0.5,7.5v0.2h0.2
			c35.1,0.1,65.1,0.4,97.4,0.8h0.3v-0.3c-0.1-2.8-0.3-5.3-0.5-8v-0.4c-0.5-5.3-1.6-9.3-3.4-12.6c-3-5.3-6-10.8-9-16
			c-1.8-3.2-3.7-6.4-5.4-9.6c-0.8-1.4-1.9-2.1-3.3-2.1c-0.1,0-0.2,0-0.2,0h-0.1c-2,0.1-4.2,0.2-6,0.7
			C545.4,503.9,540.4,505.1,535.1,505.1 M702,552.3L702,552.3c0.3-0.2,0.5-0.4,0.7-0.5c0.2-0.2,0.5-0.3,0.7-0.5s0.5-0.3,0.7-0.5
			c0.8-0.5,1.6-1.1,2.2-1.6c1.8-1.6,3.7-3.3,5.8-5.4l1.8-1.8c0.8-0.8,1.5-1.5,2-2.3c2.8-4,5.5-7.8,7.9-11.2c0.4-0.5,0.7-1.1,1-1.6
			l0.1-0.3l-0.3-0.1c-4.6-0.9-9-1.6-13.6-2.4c-2.7-0.5-5.5-1-8.3-1.6l-6-1.1h-0.2v0.2c-0.3,1.7-0.7,3.3-1.1,4.8l-0.3,1.3
			c-1.2,4.5-1.6,8.3-1.4,12.1c0.3,5.6,2.9,9.7,8,12.7L702,552.3 M312.6,548.6h0.3h24h0.2v-0.2c0-0.6-0.1-1.1-0.2-1.6
			c-0.3-2.7-0.6-5.4-0.8-8.2v-3.8v-1.9c-0.1-1.8-0.2-3.7-0.4-5.5c0-0.4-0.1-0.9-0.1-1.4s-0.1-1-0.1-1.4v-0.2h-0.2h-19.2h-0.2v0.2
			v0.6c0,0.2,0,0.4,0,0.6c0,0.4,0,0.7,0,1.1c-0.1,0.7-0.2,1.4-0.3,2c-0.1,0.7-0.1,1.4-0.2,2l-0.1,0.7c-0.3,2.3-0.6,4.7-0.9,7
			c-0.3,2-0.7,3.9-1,5.9c-0.1,0.6-0.2,1.3-0.4,1.8l-0.4,1.9L312.6,548.6 M692.4,551.9l-0.2-0.4c-0.1-0.3-0.3-0.6-0.4-0.8
			c-0.1-0.3-0.3-0.6-0.4-0.8l-0.2-0.6c-0.8-1.7-1.6-3.6-2-5.5c-0.4-1.7-0.6-3.7-0.7-6c0-0.4-0.1-0.9-0.1-1.3c0-0.4-0.1-0.9-0.1-1.3
			v-0.2h-0.2c-0.2,0-0.3,0-0.4,0.1l0,0c-0.4,0-0.8,0.2-0.9,0.2c-6.2,2.2-12.2,5.3-18.3,9.5c-1.6,1-2.7,2.3-4,3.8l-0.1,0.1
			c-0.2,0.3-0.5,0.6-0.8,0.8c-0.3,0.3-0.6,0.6-0.8,0.9l0,0l0,0c0,0.1-0.1,0.1-0.1,0.2c-0.1,0.2-0.3,0.5-0.4,0.8l-0.1,0.3h0.4
			l29.5,0.1L692.4,551.9 M745.8,552.6l-1-0.5c-0.1,0-0.2-0.1-0.3-0.2s-0.2-0.2-0.3-0.2c-0.4-0.2-0.7-0.4-1-0.6c-3-1.8-5.9-4.2-8.3-7
			c-2-2.1-4.4-4.4-6.8-6.7c-0.9-0.8-1.9-1.3-3-1.3h-0.1l-0.1,0.1c-0.2,0.3-0.4,0.6-0.6,0.8c-0.2,0.3-0.4,0.6-0.6,0.9
			c-1.6,2.3-3.3,4.7-5.1,6.8c-1.7,1.9-3.8,3.8-5.5,5.3c-0.8,0.7-1.4,1.2-1.7,1.6L711,552h0.6c9.1,0.2,21,0.4,33.2,0.5L745.8,552.6
			 M853.6,81.9c-8,0.1-16.3,0.3-24.1,0.5H829c-10.3,0.2-20.7,0.4-31,0.6s-20.8,0.4-31,0.5c-10.9,0.2-21.6,0.4-32.5,0.6
			c-10.8,0.2-21.6,0.5-32.4,0.6c-10.5,0.2-20.8,0.4-31.2,0.6c-10.5,0.2-20.8,0.4-31.3,0.5c-10.8,0.2-21.4,0.4-32.2,0.6
			c-10.8,0.2-21.4,0.5-32.2,0.6c-12.2,0.2-24.3,0.4-36.9,0.6c-8.9,0.1-18,0.3-27.3,0.5c-11.4,0.2-24.8,0.6-37.8,1
			c-10.3,0.2-20.6,0.4-30.8,0.6c-10.3,0.2-20.7,0.4-30.9,0.5c-10.7,0.2-21.4,0.4-32.2,0.6c-11,0.2-21.9,0.5-32.9,0.7
			c-10.5,0.2-20.9,0.4-31.3,0.6c-10.4,0.2-20.8,0.3-31.2,0.5c-12,0.2-24.1,0.5-36.2,0.7c-12.1,0.2-24.1,0.4-36.3,0.7
			c-6.8,0.2-13.6,0.3-20.4,0.4c-6.8,0.1-13.6,0.2-20.4,0.4c-1.6,0-3.3,0.4-5.3,1.3c-1.6,0.6-2.3,2-1.9,3.9c0.1,0.9,0.2,1.4,0.3,1.8
			c0.2,1.1,0.4,2.2,0.4,3.3c0.1,3.6,0.1,7.1,0.1,10.7c0,3.6,0,7.1,0.1,10.7c0.4,67.6,0.9,136.3,1.4,202.7l1.2,193.5
			c0,4.3,0.1,8.5,0.1,12.7s0.1,8.4,0.1,12.6c0,2.3,1.1,3.9,3.2,4.7c0.9,0.3,1.7,0.6,2.6,0.6c3.7,0.2,7.6,0.4,11.3,0.4
			c10.2,0.1,20.4,0.2,30.5,0.2s20.4,0.2,30.5,0.2c45.2,0.5,89.9,0.9,133.1,1.3c14.1,0.2,28.2,0.3,42.1,0.4c13.8,0.1,28,0.2,42,0.3
			c22.1,0.2,44.2,0.4,66.3,0.6c22.6,0.2,45.1,0.5,67.7,0.7c15.2,0.1,30.4,0.3,45.6,0.4c15.3,0.1,30.5,0.3,45.9,0.4h1.2
			c49.6,0.4,100.8,0.8,151.1,1.3c0.9,0,1.6,0,2.5,0c0.8,0,1.6,0,2.4,0c2.3,0,4.7,0.2,7,0.7c0.2,0,0.4,0,0.6,0c0.5,0,1-0.1,1.4-0.1
			c5-0.8,8.9-5.2,9-10.4c0.2-6.2,0.3-12.6,0.4-18.7V530c0.3-18.1,0.7-36.3,1-54.4c0.3-18.1,0.6-36.4,1-54.5l4.4-244.8l1.5-87.4v-1.6
			c0-1.6-0.9-2.6-2.4-3.1c-0.2,0-0.5-0.1-0.7-0.1c-0.2-0.1-0.5-0.1-0.7-0.2c-1.5-0.2-2.9-0.5-4.5-0.8c-1.5-0.2-2.9-0.5-4.4-0.7
			C856.8,82.2,855.2,81.9,853.6,81.9L853.6,81.9z M305.9,548c-19.8-0.3-40-0.5-59.5-0.6c-24.3-0.2-49.6-0.4-74.4-0.9v-0.4
			c-0.1-0.9-0.1-1.7-0.1-2.4c0-10.3,0-20.8-0.1-31.2l-0.9-134c-0.5-62.5-1-127.2-1.4-190.8c-0.1-14.2-0.2-28.3-0.2-42.5
			c-0.1-14.3-0.2-28.5-0.3-42.8V100c0.6-0.1,1-0.1,1.4-0.1l66-1.2c28-0.5,56.6-1.1,84.3-1.6c6.6-0.1,13.3-0.3,19.8-0.3
			c6.5-0.1,13.2-0.2,19.8-0.4l61.8-1.2c6.7-0.2,13.5-0.3,20-0.4c6.6-0.1,13.4-0.2,20.1-0.4l61.6-1.2c13.4-0.2,27.2-0.4,40.7-0.7
			l60.9-1.2c6.7-0.1,13.5-0.3,20-0.4c6.6-0.1,13.4-0.2,20.1-0.3l61.8-1.2c6.7-0.1,13.5-0.3,20-0.4c6.6-0.1,13.4-0.2,20.1-0.3
			l61.6-1.2c7.7-0.2,16.4-0.4,24.8-0.5c0.5,0,0.9,0.1,1.4,0.2l7.2,1.2c0.7,0.1,1.6,0.3,2.5,0.5c0,0.8,0,1.5-0.1,1.8
			c-0.2,15.3-0.5,30.7-0.8,46.2c-0.3,15.4-0.6,30.8-0.8,46.2l-2.6,179.3c-0.2,11-0.4,22-0.5,33c-0.2,11.1-0.3,22-0.5,33
			c-0.2,12-0.5,24-0.7,36s-0.5,24-0.7,36c-0.3,14.8-0.6,31.6-0.8,47.8c0,2.4-1.3,3.6-3.2,4.7c-0.3,0.2-0.8,0.2-1.2,0.2
			c-0.9,0-1.7-0.1-2.6-0.2c-1.3-0.1-2.6-0.2-4-0.2c-29.2-0.3-59.3-0.6-89-0.8c-1.6,0-2.5-0.5-3.7-1.6c-1-1-1.8-1.6-2.7-1.9
			c-5.3-2.2-9.5-5.2-12.8-9.3c-2.8-3.4-6.3-6.1-9.4-8.2c0.7-1.2,1.4-2.4,2.1-3.7c1.9-0.1,4-0.2,5.8-0.4c3.8-0.3,7.6-1.1,11.8-2.4
			l1.9-0.7c4.7-1.6,9.5-3.2,14-5.8c5.1-2.9,9.5-5.6,13.3-8.2c4.2-2.7,7.2-6.7,9.3-9.9c2.9-4.4,5.5-9,8-13.5c1.6-3.1,2.3-6.1,2.3-9.3
			c0-0.9,0.2-1.6,0.3-2.5c0.1-0.3,0.1-0.6,0.2-0.9c1.1-8.6,0.3-16.9-0.7-24.6c-0.2-1.2-0.3-2.2-0.4-3.4c-0.2-1.6-0.3-3.1-0.6-4.6
			c-1.3-6.9-4.3-13.6-9.7-21.5c-0.6-0.9-1.5-1.6-2.3-2.2c-8.4-6.4-17.3-13-26.1-19.3c-4.3-3.1-9.5-5.1-16.3-6.6
			c-3.8-0.8-7.7-1.2-11.5-1.2c-7.3,0-14.7,1.3-22.7,4c-5.1,1.7-9.9,4.6-14.1,7c-1,0.6-2,1.2-3.1,1.7c-0.8,0.4-1.6,0.9-2.4,1.4
			c-0.7,0.4-1.4,0.9-2,1.4c-1.8,1.6-3.7,3.2-5.5,4.8c-5.6,5-10.1,11.4-13.8,19.5c-1,1.9-1.4,4.3-1.8,6.4c-0.1,0.6-0.2,1.1-0.3,1.6
			c-0.7,2.7-1.3,5.5-1.8,8.2c-0.8,3.5-1.6,7-2.4,10.5c-0.2,1-0.4,2-0.4,3.1c-0.1,8.2,0.4,14.5,1.6,20.4c1.3,5.9,2.9,10.4,5.1,14.3
			c2.6,4.7,4.9,8.7,8,12.6c3.9,4.6,10.3,10.7,15.8,13c0,0.7,0,1.4-0.2,2.1c-0.1,0.8-0.3,1.6-0.6,2.3c-0.2,0.9-0.5,1.7-0.6,2.7
			c-0.2,0.8-0.5,1.1-1.4,1.4c-6.8,2-13.6,5.3-21.9,10.6c-4.3,2.7-7.6,6.5-10.1,11.7c-11.8-0.1-23.8-0.2-35.7-0.3
			c-12.4-0.1-24.8-0.3-37.2-0.4c-0.1-0.8-0.1-1.6-0.2-2.2c-0.1-0.8-0.1-1.6-0.2-2.3l-0.1-1c-0.4-4.5-0.7-9-2.3-13.3
			c-0.8-2.2-1.8-4.6-3.3-7.4c-2.2-3.9-4.4-7.8-6.6-11.6c-2.2-3.9-4.4-7.8-6.6-11.6c-1.6-2.9-4.1-4.5-7.8-4.8c-0.4,0-0.8,0-1.2,0
			c-0.8,0-1.6,0-2.3,0c-0.5,0-1,0-1.6,0c-0.5-2.5-0.5-17.1,0.1-21c0.6-0.3,1.3-0.5,1.8-0.8c1.2-0.5,2.4-1.1,3.7-1.6
			c6.8-2.5,14.5-5.8,20.8-11.7c0.5-0.5,1.1-1,1.6-1.4c4.8-3.5,8.6-8.3,11.9-15.2c1.6-3.5,3.1-6.8,4.4-10c1.3-3.4,1.6-7,2-10.5
			c0.9-7.6-0.1-14.9-1.2-22.2c-0.3-2.3-0.7-4.8-0.9-7.1c-0.4-4.1-1.7-8-3-11.7c-0.2-0.6-0.4-1.2-0.6-1.7c-0.1-0.5-0.4-1-0.7-1.4
			c-1.2-1.7-2.4-3.5-3.6-5.1c-1.5-2.1-3-4.3-4.5-6.5c-2.3-3.6-5.3-7-9.2-10.3c-0.8-0.7-1.5-1.3-2.2-1.9c-4.6-3.9-9.2-8-14.7-10.7
			c-4.3-2-8.7-3.3-13.2-4c-4.9-0.8-9.8-1.2-14.5-1.2c-8,0-15.7,1.1-23.2,3.4c-3.6,1.1-7,2.6-10.1,4.1c-2,1-4.1,2-5.9,3.1
			c-0.8,0.4-1.5,0.8-2.2,1.2c-5.5,3-10,7.3-14.5,11.8c-4.6,4.6-8.6,9.5-12.1,14.6c-2.5,3.8-4.4,7.4-5.4,10.9
			c-2.7,9.5-4,19.3-3.8,29.1c0.1,6.8,1.3,12.8,3.4,18.3c1.8,4.8,4.6,9,7.4,13.3c0.5,0.8,1,1.6,1.6,2.5c0.3,0.6,0.7,1.2,1,1.6
			c0.1,0.2,0.2,0.3,0.3,0.5c0.2,0.4,0.4,0.8,0.7,1l1.2,1.6c1.8,2.3,3.7,4.7,5.7,6.9c1.4,1.6,3.2,2.9,4.9,4.1
			c1.6,1.3,3.5,2.3,5.1,3.4c0.5,0.4,0.9,0.6,1.4,0.7c3.3,1,6.6,2,9.8,3s6.6,2,9.9,3.1c0.6,0.2,1.2,0.4,1.9,0.6
			c-0.1,1.1-0.2,2-0.3,3.1c-0.2,2.1-0.4,4.3-0.6,6.4c-0.1,2.2,0,4.4,0,6.6c0,1.1,0,2.1,0,3.3c-1.6,0.9-3.3,1.7-5,2.7
			c-1,0.6-1.7,1.1-2.5,1.6c-8.1,6.6-13.6,13.1-17.1,20.5c-3.2,6.8-5.3,14-6.4,22c-0.1,1.1-0.2,2.1-0.2,3.3c0,0.4,0,0.8-0.1,1.3h-2.3
			c-8.5-0.1-17-0.2-25.5-0.2c-8.5,0-17-0.1-25.5-0.2c-8.1-0.1-16.4-0.1-24.5-0.2c-16.2-0.2-32.9-0.3-49.4-0.4
			c-2.6,0-3.9-0.6-4.4-3.7c-0.3-1.9-0.6-3.9-0.7-5.8c-0.2-4.5-0.3-8.8-0.4-13v-1.7c2.9-1.1,5.3-2,7.9-2.8c8.3-2.8,15.3-7.8,21-12.3
			c3-2.2,5.6-5.2,7.7-8.8c1.9-3.2,3.9-6.6,5.5-10c1.9-4,3.2-8.4,3.7-14.3c0.1-1.3,0.2-2.6,0.2-4c0-0.7,0-1.4,0.1-1.9s0.2-1.2,0-1.6
			c-1-2.4-1.1-5-1.3-7.5c-0.1-1.4-0.2-2.7-0.4-4.1c-0.4-2.5-0.8-5.1-1.1-7.7c-0.3-2.5-0.7-5.1-1.1-7.8c-0.1-1-0.5-1.8-0.8-2.7
			c-0.1-0.4-0.3-0.8-0.4-1.2c-0.8-2.3-1.6-4.8-2.4-7.1c-1.6-4.7-3.3-9.4-4.8-14.2c-0.6-1.7-1.1-3.7-1.6-5.5c-0.2-1-0.5-1.9-0.8-2.9
			c0.3-0.5,0.6-0.9,0.9-1.4c0.7-1,1.4-1.9,1.9-2.9c1.9-3.2,1.7-6.5-0.4-9.5c-1.6-2-3.7-3.9-6.3-5.5c-7.9-4.8-16.4-7.9-25.5-8.7
			c-2.5-0.3-5.1-0.4-7.6-0.5c-3.4-0.2-6.9-0.2-10.3-0.3c-3.4-0.1-6.8-0.1-10.3-0.3c-0.4,0-0.9,0-1.3,0c-4.6,0-9.2,1-14.2,2.9
			c-7.1,2.8-13.3,5.9-19.1,9.6c-3.1,2-6.2,4-9.2,6c-3.1,2-6.1,4-9.2,6c-3.2,2.1-6.2,4.8-8.8,7.7c-1.2,1.4-2.3,2.6-3.5,4
			c-2.2,2.5-4.6,5.1-6.8,7.8c-3,3.6-5.4,7.8-7.2,12.6c-0.2,0.6-0.5,1.3-0.8,1.8c-0.3,0.6-0.6,1.3-0.9,1.8c-0.2,0.5-0.3,1-0.4,1.4
			c-0.3,1-0.5,2-0.7,3c-0.4,1.6-0.7,3.2-1.3,4.8c-2.7,8-2.5,16.7,0.8,26.2c1.6,5.1,4.4,9.9,6.9,14.4l0.3,0.6
			c0.6,1.1,1.2,2.2,1.6,3.3c0.4,0.8,0.8,1.6,1.3,2.4c0.3,0.6,0.7,1.2,1.1,1.6c3,3.7,6.6,7,11,9.9c2.3,1.6,4.7,3.2,7,4.8
			c7.1,4.9,15.3,8.4,24.3,10.4c1.6,0.3,3.2,0.7,4.8,1.1c1.6,0.4,3.2,0.8,4.8,1.1c0.8,0.2,1.6,0.3,2.6,0.3h9.5c0.4,0,0.7,0,1.1,0
			c0.3,0,0.7,0,1.1,0.1c0,0.6,0,1.2,0.1,1.6c0.1,1.3,0.1,2.4-0.1,3.6c-0.3,2-0.7,4.2-1.1,6.3c-0.3,1.4-0.5,2.8-0.8,4.2
			c-0.2,1.2-0.3,2.3-0.4,3.6C307.3,545.2,306.8,546.7,305.9,548L305.9,548z M522.2,476.1c-1.6,0-3.2-0.1-4.8-0.3
			c-0.8-0.1-1.5-0.2-2-0.4c-2.5-0.8-5.1-1.5-7.7-2.1c-5.8-1.6-11.8-3.3-17.7-5.2c-5.2-1.7-10.1-4.9-14.4-9.8c-2.8-3.1-4.8-6-6.3-8.9
			c-0.7-1.6-1.7-2.9-2.7-4.2c-0.5-0.7-1-1.3-1.5-1.9c-1.5-2.2-2.7-4.7-4.1-7.9c-4.5-11.1-3.7-22.4-2.6-31c0.6-3.8,1.5-7.6,2.3-11.2
			c0.2-0.9,0.4-1.6,0.6-2.5c0.7-2.9,2.1-5.7,4.5-8.5c0.2-0.2,0.4-0.5,0.6-0.8c0.1-0.1,0.1-0.2,0.2-0.3c5.2-8,11.9-15.1,20.7-21.8
			c1.7-1.3,3.8-2.3,5.7-3.4c1.1-0.6,2.2-1.2,3.3-1.7c5.5-3.3,11.4-5.4,18.2-6.7c5.4-1,10.6-1.5,15.4-1.5s9.5,0.5,14,1.5
			c0.6,0.1,1.2,0.3,1.7,0.4c1.6,0.3,3.3,0.7,4.9,1.2c3.4,1,6.3,2.5,8.9,4.5c1.2,0.9,2.3,1.7,3.4,2.6c3.5,2.6,7.1,5.4,10.1,8.7
			c0.2,0.3,0.5,0.6,0.8,0.9c0.5,0.6,1,1.1,1.3,1.7c1.6,3.1,3.8,5.8,5.8,8.5c0.9,1.1,1.7,2.2,2.5,3.4c1.4,1.8,3.9,5.7,4.6,8
			c-5.8-3.3-12.7-6.5-17.4-8.5c-3.8-1.9-7.8-3.9-11.6-5.7c-1.6-0.8-3.4-1.6-5-2.3c-1.4-0.6-2.8-1.3-4.2-1.8
			c-1.3-0.6-2.5-1.3-3.8-1.9c-0.6-0.3-1.2-0.7-1.7-1c-1.8-1.1-3.8-2.1-5.8-2.9c-3.2-1.4-6.2-1.9-9.2-1.9c-0.2,0-0.5,0-0.7,0
			c-2.1,0.1-4.3,0.1-6.4,0.1c-1.5,0-2.8,0-4.3,0.1c-4.6,0.2-8.9,1.2-13,2.9c-10,4.5-17.3,9.5-22.7,15.8c-0.9,0.9-1.7,1.7-2.6,2.7
			c-0.1,0.1-0.2,0.2-0.3,0.3c-0.4,0.4-0.7,0.9-0.9,1.4c-0.5,1.2-0.2,2.4,0.7,3.2c0.5,0.5,1.2,0.8,1.7,0.8c0.6,0,1.3-0.2,1.7-0.7
			c1.1-0.9,2.1-1.9,3.1-3.1c4.6-5.4,10.4-9.9,18.5-13.9c4.8-2.4,9.5-3.7,14.1-3.8c0.9,0,1.6-0.1,2.5-0.1c1.6,0,3.4-0.1,5-0.2
			c0.7-0.1,1.4-0.1,2-0.1c4.4,0,8.6,1.4,13.1,4c3.8,2.2,7.1,4,10.8,5.1c1,0.4,1.9,0.8,2.9,1.5c7,4,14.3,7.4,22.2,11.1
			c1.2,0.6,2.3,1.5,3.5,2.2c0.6,0.4,1.2,0.9,1.7,1.3c0.7,0.5,1.4,1,2,1.4c1.5,1.1,3,2.1,4.6,3.1c0.7,0.5,1.1,0.8,1.1,1.5
			c0.2,1.3,0.4,2.6,0.6,3.9c1.2,8,2.3,16.1,1.3,24.2c-0.4,3.7-1.4,7.1-2.8,10.1c-1.9,4-4.1,8-6.2,11.9c-1.2,2.1-2.8,4.1-4.9,5.8
			c-1.1,0.9-2.1,1.7-3.1,2.6c-1.1,0.9-2.1,1.8-3.1,2.6c-2.7,2.2-5.4,3.8-8.1,4.9c-1.9,0.8-3.8,1.7-5.6,2.5c-3.2,1.5-6.6,3-9.9,4.2
			C539.6,473.4,531.1,476.1,522.2,476.1L522.2,476.1z M254,464.7c-2.3,0-4.7-0.8-7-2.2c-1.6-1-3.1-2.1-4.6-3.3
			c-0.9-0.7-1.8-1.4-2.7-2c-0.8-0.7-1.7-1.4-3.2-2.2c0-0.2,0.1-0.4,0.1-0.6c0.1-0.5,0.2-1,0.2-1.3c0.3-1.2,0.6-2.3,1-3.5
			c0.6-2.3,1.2-4.7,1.9-7c1.6-4.4,3.1-8.9,5.8-12.8c4.3-6.2,9.5-12.1,15.4-17.5c4.3-3.9,9.2-7.1,13-9.4l2-1.3
			c5.9-3.8,12-7.7,18.4-10.7l1.6-0.8c2-1,4.1-1.9,6.1-2.7c4.2-1.7,8.6-2.6,13.5-2.6c1,0,1.9,0,3,0.1c4.5,0.3,9.2,0.5,15.4,0.5
			c0.3,0,0.6,0,0.9,0c6.4,0,12.8,1,19.8,3.1c4.6,1.4,8.3,3.8,12.4,6.4l0.5,0.3c0.8,0.5,1.5,1.2,2.1,1.9c1.1,1.2,1.2,3.1,0.4,4.7
			c-1,1.8-2.6,3.3-5,4.7c-5.6,3.1-11.2,6.2-16.6,9.1c-3.4,1.9-7,3.9-10.5,5.9c-7.2,4.2-14.1,7.2-20.8,9.3c-1,0.3-2,0.5-3.2,0.6
			c-0.6,0.1-1.1,0.2-1.6,0.3c-0.4,0.1-0.7,0.1-1.1,0.1c-1.1,0.1-2.1,0.3-3.1,0.6c-3.6,1-7.3,2-10.8,3.1c-1.5,0.4-3,0.9-4.5,1.3
			c-5.1,1.6-10.1,4-15.3,7.5c-2.1,1.5-4.1,3.4-6,6.1c-0.4,0.5-0.7,1-1.1,1.5c-1,1.5-2,3-3.2,4.4c-1.6,1.8-3.5,3.9-5.6,5.6
			C259.2,463.8,256.6,464.7,254,464.7L254,464.7z M789.3,468.1c-3.1,0-6.1,0-9.2-0.1c-2.5-0.1-4.6-1.8-5.7-3.3c-2.4-2.9-5-6-7.3-9.3
			c-1.4-2-2.6-4.3-3.9-6.5c-0.7-1.3-1.5-2.6-2.2-3.9c-0.7-1-1.6-2.1-2.7-3.1c-6.4-5.3-11.7-9-17.3-11.6c-4.4-2.1-8.8-4.1-13.2-5.9
			c-1.8-0.8-3.7-1.6-5.4-2.3c-6.3-2.7-12-6.9-16.6-10.4c-2-1.5-3.3-3.6-4.7-5.8c-0.2-0.3-0.6-0.9-0.9-1.4c3.6-2.3,7.5-4.1,12.2-5.5
			c6.4-1.8,12.3-2.7,18.1-2.7c1.4,0,2.7,0,4,0.1c3.5,0.3,7.3,1.1,11.4,2.3c4.3,1.4,8.3,3.5,12.8,6.8c4.4,3.4,8.8,6.7,13.2,9.9
			c2.7,2,5.4,4,8.1,6c1.1,0.7,2.1,1.8,3.1,3.3c3,4.7,6.7,11,7.6,18.3c1.1,7.9,2.1,16.1,1.8,24c-0.1,0.4-0.2,0.7-0.2,1l-0.1,0.1
			C791.3,468.1,790.4,468.1,789.3,468.1L789.3,468.1z M732.8,521.7c-2.7,0-5.2-0.5-7.8-0.9c-0.7-0.1-1.3-0.2-1.9-0.3
			c-9.3-1.6-18.5-3.4-27.7-5l-1.2-0.2c-1.9-0.4-3.6-1.1-4.9-2.1c-6.9-5.1-12-11-15.7-17.8c-0.4-0.7-0.8-1.3-1.2-1.9
			c-0.8-1.3-1.5-2.5-2-3.9c-0.9-2-1.9-4.6-2.5-7c-1.6-6.4-2.4-13-2.3-20.3c0.1-1.4,0.2-2.7,0.5-3.9c0.9-3.9,1.7-7.8,2.6-11.6
			s1.8-7.8,2.7-11.6c0.8-3.2,2.5-6.1,4.3-8.8c3.3-5.5,7.7-10.4,13-14.4c1.5-1.2,3.2-2.2,4.8-3.3c0.6-0.4,1.2-0.8,1.7-1.2
			c1.2,1.6,2,3,2.8,4.3c1.6,2.2,3.4,4.3,5.8,6c6.9,5.2,14.7,9.5,24.7,13.4c11,4.4,19.1,9.1,25.6,15.1c0.8,0.8,1.6,1.8,2.1,2.9
			c3.9,6.9,7.8,13.6,13.1,19.2c1.4,1.5,3,2.6,4.5,3.6c1.9,1.5,4.3,2.2,6.6,2.2c3,0,6,0.1,8.9,0.2h2.2c0.3,4.6-0.8,8.8-3.3,12.8
			c-1.2,1.8-2.1,3.5-3,5.1c-2.1,3.9-4.9,7.5-9,11.4c-0.6,0.7-1.4,1.4-2,1.7c-1.7,1.1-3.5,2.2-5.1,3.3c-4,2.6-8.1,5.3-12.7,7.2
			c-7.2,2.7-14.6,5.6-22.7,5.8C733.2,521.7,733,521.7,732.8,521.7L732.8,521.7z M311.7,437.6c5.4,0,10.4-1.9,14.6-3.8
			c4.5-2,9.1-4.4,15-7.5c3.2-1.6,6.5-3.5,9.7-5.2c1.6-0.9,3.2-1.7,4.8-2.6h0.1c2.7-1.6,5.5-3.3,8.3-4.8c1.1-0.5,2.1-1.1,3.4-1.7
			c1.5,6,3.4,11.8,5.4,17.5c1.4,3.8,2.7,7.7,3.8,11.5c1.2,3.7,1.7,7.6,2.2,11.4c0.1,0.8,0.2,1.6,0.3,2.4c0.7,5.1,1.3,10.8,1.8,17.2
			c0.3,3.4-0.4,7-1.1,10.2c-0.5,2.5-1.3,4.2-4.3,5c-3.2,0.9-6.4,2.1-9.4,3.3c-2,0.8-4.1,1.6-6.2,2.2c-1.7,0.6-3.9,1-6.4,1.1
			c-1.1,0-2.1,0-3.2,0.1c-1.8,0-3.7,0.1-5.5,0.1c-2.3,0-4.7-0.1-6.9-0.3c-7.7-0.9-14.9-3.8-21.4-8.7c-1.2-0.9-2.3-1.6-3.5-2.4
			c-0.7-0.5-1.4-0.8-2.1-0.9c-0.2,0-0.3,0-0.5,0c-1.2,0-2.1,0.7-2.5,1.8c-0.4,1.3-0.1,2.3,1,3.1c0.7,0.5,1.4,1,2,1.5
			c0.7,0.5,1.4,0.9,2,1.4c6.8,5.1,14.4,8.4,23.1,9.8c3,0.5,6.1,0.7,9.1,0.7c3.8,0,7.5-0.3,10.8-0.6c3.9-0.4,7.6-1.7,11.1-3.1
			c1.2-0.5,2.4-0.9,3.6-1.4c1-0.3,2-0.7,3-1.1c0.4-0.2,0.9-0.3,1.3-0.5c-2.8,5.9-6.2,10.3-10.6,13.5c-7.5,5.5-14,9-20.7,11
			c-3.2,1-5.8,1.5-8.4,1.5c-4.1,0-8,0-12.1,0c-8,0-16.1,0-24.1,0c-1.1-0.1-2.1-0.3-3.2-0.6c-0.4-0.1-0.8-0.2-1.1-0.2
			c-1.1-0.2-2.1-0.5-3.2-0.7c-2.6-0.8-5.5-1.5-8.3-2.2c-6.8-1.7-12.7-4.6-18-8.3c-1.1-0.8-2.2-1.6-3.3-2.3c-2.1-1.5-4.5-3-6.6-4.7
			c-4-3-6.9-6.3-8.7-10.2c-1-1.9-1.9-3.8-3-5.6c-1.9-3.7-4.1-7.5-5.4-11.4c-1-2.7-1.6-5.8-2.1-9.8v-1.3c0.4,0.2,0.7,0.4,1,0.7
			c1.5,1,2.8,1.9,4.2,2.9c1.4,1,2.7,1.9,4.2,2.9c1.7,1.3,3.8,1.6,5.7,1.9c1.1,0.2,2,0.2,3.1,0.2c4.6,0,8.6-1.6,12.2-4.9
			c2.8-2.6,5.5-5.2,7.4-8.4c4.8-8.5,12.9-12.2,20.2-14.6c3.6-1.3,7.5-2.3,11.2-3.4c1.6-0.5,3.3-0.9,4.9-1.4c0.4-0.1,0.7-0.2,1.1-0.2
			C311.4,437.6,311.6,437.6,311.7,437.6L311.7,437.6z M522.4,482.1c7.8,0,15.2-1.9,22.4-4.4v20.7c-0.8,0.1-1.6,0.3-2.2,0.5
			c-1.5,0.3-2.9,0.7-4.4,0.7c-1.2,0-2.3,0-3.5,0c-2.8,0-5.6-0.1-8.4-0.1c-1.3,0-2.6-0.1-3.9-0.1c-0.7,0-1.3-0.2-1.9-0.3
			c-0.3-0.1-0.5-0.1-0.8-0.2l-1.5-0.3c-2.2-0.4-4.5-0.8-7.1-1.2c-0.6-5.4-0.4-11.1,0.7-16.7C515.4,481.7,518.9,482.1,522.4,482.1
			L522.4,482.1z M535.1,505.3c5.4,0,10.6-1.3,14.5-2.3c1.8-0.5,4-0.6,6-0.7c0.1,0,0.2,0,0.2,0c1.3,0,2.3,0.8,3.1,2
			c4.8,8.4,9.7,17.1,14.4,25.6c1.8,3.3,2.9,7.3,3.4,12.5v0.4c0.2,2.5,0.4,5.1,0.5,8c-37.2-0.5-68.2-0.7-97.4-0.8
			c-0.5-2.7-0.1-5.1,0.5-7.4c1.4-6.5,2.8-11.8,5.4-16.8c1.6-3.1,3-5.4,4.6-7.5c1.3-1.6,2.6-3.2,4-4.7c0.7-0.8,1.4-1.6,2-2.3
			c2.5-2.7,5.5-4.9,8.8-6.4c2-1,4.2-1.5,6.5-1.5c1.2,0,2.3,0.1,3.5,0.4c4.4,0.9,8.6,1.4,12.8,1.4c0.4,0,0.8,0,1.2,0
			c0.5,0,1.1,0,1.6,0c1.1,0,2.1,0,3.2,0C534.3,505.3,534.7,505.3,535.1,505.3L535.1,505.3z M702,552c-5-2.9-7.7-7-8-12.5
			c-0.3-3.8,0.2-7.8,1.4-12l0.3-1.3c0.4-1.5,0.8-3,1.1-4.8l6,1.1c7.5,1.4,14.5,2.6,21.9,4c-0.3,0.6-0.6,1.2-1,1.6
			c-2.5,3.7-5.2,7.6-7.9,11.2c-0.6,0.9-1.3,1.6-2,2.3l-1.8,1.8c-1.9,1.9-3.8,3.7-5.8,5.4c-0.9,0.8-1.9,1.5-2.9,2.1
			C702.9,551.4,702.4,551.7,702,552L702,552z M312.9,548.4l0.4-1.9c0.5-2.7,1-5.2,1.4-7.9c0.4-2.5,0.7-5.1,1-7.7
			c0.2-1.4,0.3-2.7,0.5-4.1c0.1-0.6,0-1.1,0-1.6c0-0.2,0-0.4,0-0.6h19.2c0.1,0.9,0.1,1.8,0.2,2.7c0.2,1.8,0.3,3.7,0.4,5.5
			c0,0.7,0,1.3,0,1.9c0,1.3,0,2.5,0,3.8c0.2,2.8,0.5,5.5,0.8,8.2c0.1,0.5,0.2,1,0.2,1.6L312.9,548.4L312.9,548.4z M692,551.6
			l-29.5-0.1c0.2-0.5,0.4-0.8,0.5-1c0.5-0.6,1.1-1.1,1.6-1.6c1.3-1.5,2.4-2.8,4-3.8c6.2-4.2,12.2-7.3,18.3-9.5
			c0.2-0.1,0.5-0.2,0.8-0.2c0.1,0,0.2-0.1,0.4-0.1c0.1,0.9,0.1,1.6,0.2,2.5c0.1,2.1,0.3,4.1,0.7,6c0.5,2.1,1.5,4.2,2.3,6.1
			C691.5,550.6,691.7,551,692,551.6L692,551.6z M744.8,552.3c-11.3-0.1-22.9-0.3-33.2-0.5c0.5-0.5,1.2-1.1,1.7-1.6
			c1.8-1.6,3.8-3.4,5.5-5.3c1.8-2.1,3.5-4.5,5.1-6.8c0.4-0.6,0.8-1.1,1.2-1.6c1,0,1.9,0.4,2.8,1.2c2.2,2.1,4.7,4.5,6.8,6.7
			c2.4,2.7,5.3,5.1,8.4,7c0.3,0.2,0.6,0.4,1,0.6C744.4,552,744.6,552.2,744.8,552.3L744.8,552.3z"/>
	</g>
	<g>
		<path d="M549.6,311.5c-0.4,0-0.7,0-0.9-0.2c-1.4-0.8-2.6-1.8-3.6-2.8c-0.9-0.9-1.6-1.9-2.2-2.9l-0.5-0.7
			c-4.4-5.6-8.5-9.7-13.1-12.6c-2.2-1.5-4.3-3.2-6.3-4.9c-0.5-0.5-1.1-0.9-1.6-1.4c-0.7-0.6-1.4-1.2-2.1-1.8l-0.1-0.1
			c-0.4-0.4-0.9-0.7-1.3-1c-0.8-0.6-1.5-1.2-2.1-1.8l-0.3-0.3c-2.5-2.1-5.1-4.4-7.9-6.4l-2.3-1.7c-3.9-2.9-7.9-5.9-11.7-8.7
			c-3.9-2.8-7.9-5.8-11.7-8.7l-2.3-1.7c-12.1-9.3-20.7-18-27.1-27.5c-3.7-5.3-6.1-11.4-7.4-18.7c-0.7-3.6-1-7.5-1-11.6
			c-0.1-10.1,2.1-20,6.4-28.7c5.1-10.3,12.2-17.4,20.9-20.8c6.9-2.9,14.7-4.6,23.4-4.8c1.2,0,2.3,0,3.5,0c1.2,0,2.4,0,3.6,0
			c1-0.1,1.9-0.1,2.9-0.1c5.6,0,11.1,1.1,17,2.4c6.2,1.5,11.2,5,14.6,8c1.4,1.2,2.8,2.4,4.1,3.7l3.3,2.9c0.4,0.1,0.8,0.4,1.3,0.7
			l0.1,0.1l0.1-0.1c0.4-0.4,0.9-0.8,1.3-1.2c0.4-0.4,0.9-0.9,1.4-1.3c0.5-0.5,1.1-0.9,1.6-1.4c1.2-1.1,2.2-2,3.4-3
			c2.4-1.9,5.3-4.1,9.2-6.6c2.5-1.6,4.8-2.6,10.1-4.1c2.7-0.8,5-1.2,7.5-1.2c1.6,0,3.1,0.2,4.7,0.3h0.5l0.9,0.1
			c0.6,0.1,1.2,0.1,1.7,0.2c2.4,0.3,4.7,0.7,7,1.2l0.6,0.1c0.5,0.1,1.1,0.2,1.6,0.3c0.7,0.1,1.4,0.3,2.1,0.4
			c3.6,0.6,7.5,2.5,11.1,4.5l3.5,1.7c1.1,0.5,1.7,1,2.5,1.6c9.8,8.2,14.7,16.1,16.1,25.6c1.1,7.5,2,14.7,1.3,22
			c-0.7,5.9-2.3,10.9-5.2,15.1c-4,5.8-8,11.4-12.7,16.5c-4,4.2-7.5,8.9-10.8,13.5L604,244c-0.6,0.8-1.2,1.5-1.6,2.2
			c-0.6,0.8-1.2,1.6-1.7,2.3c-3.5,4.8-7,9.6-10.4,14.4l-1.1,1.5c-1,1.4-2,2.8-3.1,4.3c-1.1,1.5-2.1,2.9-3.1,4.3
			c-0.8,1.1-1.6,2.1-2.4,3.2c-0.7,0.8-1.4,1.6-2,2.4c-0.7,0.8-1.4,1.6-2,2.4l-1.9,2.3c-2.2,2.7-4.6,5.4-6.7,8.1
			c-1.6,1.8-2.7,3.5-3.8,5.1c-2,3.4-4.8,7-8.2,10.7c-1.5,1.6-3.2,2.7-4.9,3.9C550.4,311.4,550.1,311.5,549.6,311.5z M501.3,146.5
			c-6.9,0-12.9,0.7-18.7,2c-0.3,0.1-0.6,0.2-1,0.3c-0.3,0.1-0.7,0.2-1,0.3l-0.3,0.1c-3.5,0.9-7.2,1.7-10.2,3.9
			c-8.8,6.4-14.2,13.2-16.7,21.5c-1.6,5.3-3.5,11.3-3.7,17.5c-0.1,5,0.2,9.9,0.8,14.5c1,6.2,3.2,11.7,6.6,16.9
			c5.8,8.6,13.9,16.7,25.3,25.5c4.7,3.7,9.6,7.3,14.4,10.7l2,1.6c3.9,2.8,8,5.8,11.9,8.8c2.2,1.6,4.3,3.4,6.4,5.1l0.6,0.5
			c1.5,1.3,3,2.5,4.6,3.8l2.1,1.7c3,2.4,6.5,5.2,10,7.8c2.6,1.9,5.5,4.4,8.1,7.4c1.9,2.4,3.9,4.8,5.7,7.2c0.4,0.8,0.9,1.4,1.4,1.9
			l0.1,0.1l0.1-0.1c0.4-0.5,0.8-1,1.2-1.5c0.4-0.5,0.9-1,1.3-1.5c1.8-2.1,3.8-4.4,5.2-6.7c4.3-6.8,9.3-13,15-19.7l2.1-2.5
			c1.4-1.6,2.8-3.5,4.5-5.8l0.6-0.7c0.8-1.2,1.6-2.2,2.4-3.3c0.8-1.1,1.6-2.2,2.4-3.3l1.6-2.1c2.8-3.9,5.7-7.9,8.6-11.7
			c0.6-0.8,1.2-1.6,1.7-2.3c0.6-0.8,1.3-1.6,1.8-2.4l0.7-1c3.8-4.9,7.8-10.1,12.3-14.6c4.7-4.8,9-10.5,13.3-17.4l0.1-0.2
			c0.2-0.3,0.3-0.6,0.5-0.8c0.6-1,1.1-1.9,1.3-2.9c0.6-3.1,1.4-7,1.5-10.7c0.2-5.3-0.4-11-1.9-17.4c-0.7-3.7-1.9-8.5-5-12.5
			c-5.7-7.7-14.5-13.8-22.5-15.5c-4.4-1.1-7.6-1.5-11.2-1.9c-0.8-0.1-1.6-0.2-2.4-0.3c-1.2-0.1-2.2-0.2-3.4-0.2c-2,0-3.8,0.2-6,0.5
			h-0.2c-0.3,0.1-0.5,0.1-0.8,0.1c-0.3,0-0.6,0-0.9,0.1c-2.9,0.3-7.3,2.5-9.2,3.9c-3.7,2.5-6.9,4.9-9.8,7.4
			c-1.9,1.6-3.7,3.4-5.5,5.2c-0.6,0.7-1.2,1.3-1.8,1.8c-0.3,0.3-0.7,0.6-1,1l-0.1,0.1l-0.1-0.1c-1.6-0.6-3.1-1.5-4.3-2.5
			c-0.9-0.8-1.8-1.6-2.7-2.5c-1.8-1.7-3.7-3.5-5.6-5.2c-3.6-3-7.2-5.8-11.6-7c-3.9-1.1-8.4-2.2-12.9-2.4h-0.6
			C505.8,146.6,503.4,146.5,501.3,146.5z"/>
		<path class="st0" d="M579.6,140.6c1.6,0,3.1,0.2,4.7,0.3h0.5l0.9,0.1c0.6,0.1,1.2,0.1,1.7,0.2c2.4,0.3,4.7,0.7,7,1.2l0.6,0.1
			c0.5,0.1,1.1,0.2,1.6,0.3c0.7,0.1,1.4,0.3,2.1,0.4c3.6,0.6,7.4,2.5,11,4.5l0.9,0.5l2.6,1.3c1.1,0.5,1.7,1,2.5,1.6
			c9.7,8.1,14.6,16.1,16,25.5c1.1,7.4,2,14.6,1.3,21.9c-0.7,5.9-2.3,10.9-5.2,15.1c-4,5.8-8,11.4-12.7,16.5
			c-4,4.2-7.5,8.9-10.9,13.5l-0.5,0.6c-0.6,0.8-1.2,1.6-1.7,2.3c-0.6,0.8-1.1,1.5-1.6,2.2c-3.5,4.8-7,9.6-10.4,14.4l-1.1,1.5
			c-1,1.4-2,2.8-3.1,4.3c-1.1,1.5-2.1,2.9-3.1,4.3c-0.8,1.1-1.6,2.1-2.4,3.2c-0.7,0.8-1.4,1.6-2,2.4c-0.7,0.8-1.4,1.6-2,2.4
			l-1.9,2.3c-2.2,2.7-4.6,5.4-6.7,8.1c-1.6,1.8-2.7,3.5-3.8,5.1c-2,3.4-4.8,7-8.2,10.7c-1.5,1.6-3.2,2.7-4.9,3.9
			c-0.3,0.2-0.6,0.3-1.1,0.3c-0.4,0-0.6,0-0.9-0.2c-0.8-0.5-2.3-1.5-3.5-2.8c-0.9-0.9-1.6-1.9-2.2-2.9l-0.5-0.7
			c-4.4-5.6-8.5-9.7-13.2-12.7c-2.2-1.5-4.3-3.2-6.2-4.9c-0.5-0.5-1.1-0.9-1.6-1.4c-0.7-0.6-1.5-1.3-2.2-1.9c-0.4-0.4-0.9-0.7-1.3-1
			c-0.8-0.6-1.5-1.2-2.1-1.8l-0.3-0.3c-2.5-2.1-5.1-4.4-7.9-6.4l-2.3-1.7c-3.9-2.9-7.9-5.9-11.7-8.7c-3.9-2.8-7.9-5.8-11.7-8.7
			l-2.3-1.7c-12.1-9.3-20.7-18-27-27.4c-3.7-5.3-6-11.4-7.4-18.6c-0.7-3.6-1-7.4-1-11.6c-0.1-10.1,2.1-20,6.4-28.7
			c5.1-10.3,12.2-17.3,20.9-20.8c6.9-2.9,14.7-4.6,23.3-4.8c1.2,0,2.3,0,3.5,0c1.2,0,2.4,0,3.6-0.1c1-0.1,1.9-0.1,2.9-0.1
			c5.6,0,11,1.1,17,2.4c6.2,1.5,11.1,5,14.6,8c1.4,1.2,2.8,2.4,4.1,3.7l0.1,0.1c0.5,0.5,1.1,1,1.6,1.4c0.5,0.5,1.1,1,1.6,1.5l0,0
			h0.1c0.3,0.1,0.8,0.3,1.2,0.7l0.2,0.1l0.2-0.1c0.5-0.4,0.9-0.8,1.4-1.3c0.4-0.4,0.9-0.8,1.3-1.2c0.5-0.5,1.1-0.9,1.6-1.4
			c1.2-1.1,2.2-2,3.4-3c2.4-1.9,5.3-4.1,9.2-6.6c2.5-1.6,4.8-2.6,10-4.1C575,140.8,577.3,140.6,579.6,140.6 M546,166.2L546,166.2
			c-1.6-0.6-3.1-1.5-4.3-2.5c-0.9-0.8-1.8-1.6-2.7-2.5c-1.8-1.7-3.7-3.5-5.6-5.2c-3.6-3-7.3-5.8-11.6-7c-3.9-1.1-8.4-2.2-13-2.4
			h-0.6c-2.5-0.1-4.8-0.2-7-0.2c-6.9,0-12.9,0.7-18.8,2c-0.3,0.1-0.6,0.2-0.9,0.2c-0.3,0.1-0.7,0.2-1,0.3l-0.3,0.1
			c-3.5,0.9-7.2,1.7-10.3,4c-8.9,6.4-14.3,13.2-16.8,21.5c-1.6,5.3-3.5,11.3-3.7,17.6c-0.1,5,0.2,9.9,0.8,14.5
			c1,6.2,3.2,11.7,6.6,16.9c5.8,8.6,13.9,16.8,25.4,25.6c4.7,3.7,9.6,7.3,14.4,10.7l2,1.6c3.9,2.8,8,5.8,11.9,8.8
			c2.2,1.6,4.4,3.4,6.4,5.1l0.6,0.5c1.5,1.3,3,2.5,4.6,3.8l2.1,1.7c3,2.4,6.5,5.2,10,7.8c2.6,1.9,5.5,4.4,8.1,7.4
			c1.9,2.4,3.9,4.8,5.7,7.2c0.4,0.8,0.9,1.4,1.4,1.9l0.2,0.2l0.2-0.2c0.4-0.5,0.8-1,1.2-1.5c0.4-0.5,0.9-1,1.2-1.5
			c1.8-2.1,3.8-4.4,5.2-6.7c4.3-6.8,9.3-12.9,15-19.7l2.1-2.5c1.4-1.6,2.8-3.5,4.5-5.8l0.6-0.7c0.8-1.1,1.6-2.2,2.3-3.3
			c0.8-1.1,1.6-2.2,2.4-3.3l1.6-2.1c2.8-3.9,5.7-7.9,8.6-11.7c0.6-0.8,1.2-1.6,1.7-2.3c0.6-0.8,1.3-1.6,1.8-2.4l0.7-0.9
			c3.8-4.9,7.8-10.1,12.3-14.6c4.8-4.8,9-10.5,13.3-17.5l0.1-0.2c0.2-0.3,0.3-0.6,0.5-0.8c0.6-1,1.1-1.9,1.4-2.9
			c0.7-3.3,1.4-7,1.5-10.7c0.2-5.3-0.4-11.1-1.9-17.5c-0.7-3.7-1.9-8.5-5-12.6c-5.8-7.7-14.6-13.8-22.5-15.6
			c-4.4-1.1-7.6-1.5-11.2-1.9c-0.8-0.1-1.6-0.2-2.4-0.3c-1.2-0.1-2.3-0.2-3.4-0.2c-2,0-3.8,0.2-6,0.5h-0.2c-0.2,0-0.5,0.1-0.8,0.1
			s-0.6,0-0.9,0.1c-2.9,0.3-7.3,2.5-9.3,3.9c-3.7,2.5-6.9,4.9-9.8,7.4c-1.9,1.6-3.7,3.4-5.5,5.2c-0.6,0.7-1.2,1.3-1.8,1.8
			C546.8,165.6,546.5,165.9,546,166.2L546,166.2 M579.6,140.3c-2.1,0-4.5,0.3-7.5,1.2c-4.9,1.4-7.4,2.4-10.1,4.1
			c-3.7,2.4-6.7,4.6-9.2,6.6c-1.6,1.4-3.2,2.8-4.9,4.4c-0.9,0.8-1.7,1.6-2.6,2.4c-0.4-0.3-0.9-0.6-1.3-0.7c-1.1-1-2-1.8-3.1-2.8
			c-1.4-1.3-2.8-2.6-4.3-3.8c-3.6-3-8.4-6.6-14.7-8c-5.9-1.4-11.4-2.4-17.1-2.4c-1,0-1.9,0-2.9,0.1c-2.3,0.1-4.8,0-7.1,0.1
			c-8.5,0.3-16.5,1.9-23.4,4.8c-8.8,3.6-15.9,10.7-21,20.9c-4.3,8.7-6.5,18.6-6.4,28.8c0,4.1,0.3,7.9,1,11.6
			c1.3,7.1,3.6,13.2,7.4,18.7c6.4,9.6,15,18.3,27.1,27.5c4.7,3.5,9.4,7.1,14.1,10.5c4.7,3.4,9.4,7,14.1,10.5c2.8,2,5.5,4.4,8.1,6.6
			c1.1,1,2.2,1.8,3.4,2.8c0.8,0.7,1.6,1.4,2.2,1.9c2.5,2.1,5,4.5,7.9,6.3c4.7,3,8.8,7.1,13.1,12.6l0.5,0.7c0.7,1.1,1.4,2,2.2,2.9
			c1.1,1.2,2.4,2.1,3.6,2.8c0.3,0.2,0.6,0.2,1,0.2c0.5,0,0.9-0.1,1.2-0.3c1.7-1.2,3.5-2.3,4.9-3.9c2.5-2.7,5.7-6.5,8.2-10.7
			c1.3-1.9,2.5-3.6,3.8-5.1c2.8-3.5,5.8-7.1,8.6-10.5c1.4-1.6,2.7-3.2,4.1-4.8c0.9-1.1,1.6-2.1,2.4-3.2c2-2.8,4.2-5.7,6.2-8.5
			c3.7-5.1,7.6-10.6,11.4-15.8c1.2-1.6,2.2-3,3.4-4.6c3.5-4.8,7.1-9.7,11.2-14.1c4.8-5.1,8.9-11,12.7-16.5c2.8-4.3,4.6-9.2,5.2-15.2
			c0.8-7.2-0.1-14.3-1.3-22c-1.4-9.6-6.3-17.5-16.1-25.7c-0.8-0.7-1.6-1.2-2.5-1.6c-1.2-0.6-2.3-1.2-3.5-1.7
			c-3.6-1.9-7.4-3.9-11.1-4.5c-1.3-0.2-2.5-0.5-3.7-0.7c-2.5-0.5-4.9-1-7.6-1.3c-1-0.1-1.7-0.2-2.6-0.3
			C583,140.5,581.4,140.3,579.6,140.3L579.6,140.3z M546.1,166.5l0.2-0.2c1-1,1.9-1.8,2.8-2.8c1.8-1.8,3.6-3.6,5.5-5.2
			c2.8-2.3,6-4.8,9.8-7.4c2-1.4,6.3-3.6,9.2-3.9c0.6-0.1,1.2-0.1,1.6-0.2c2.2-0.3,4.1-0.5,6.1-0.5c1.1,0,2.1,0.1,3.4,0.2
			c0.9,0.1,1.6,0.2,2.4,0.3c3.9,0.5,6.9,0.9,11.2,1.9c8,1.8,16.7,8,22.4,15.5c3,3.9,4.3,8.4,5,12.5c1.6,6.6,2.1,12.2,1.9,17.4
			c-0.1,3.6-0.8,7.2-1.5,10.7c-0.3,1.3-1.1,2.4-1.7,3.7l-0.1,0.2c-4.4,7.1-8.7,12.7-13.3,17.4c-4.8,4.8-8.9,10.3-13,15.6
			c-1.2,1.6-2.4,3.2-3.6,4.8c-3.5,4.6-6.9,9.3-10.2,13.9c-1.6,2.2-3.2,4.4-4.8,6.6l-0.6,0.7c-1.5,2-2.9,4-4.5,5.8l-2.1,2.5
			c-5.2,6.2-10.6,12.6-15,19.7c-1.5,2.3-3.3,4.5-5.2,6.7c-0.8,1-1.6,1.9-2.4,2.9c-0.5-0.6-1-1.2-1.4-1.9c-1.8-2.3-3.8-4.8-5.7-7.2
			c-2.6-3.1-5.7-5.5-8.1-7.4c-3.4-2.4-6.8-5.1-10-7.8l-2.1-1.7c-1.6-1.3-3.1-2.5-4.6-3.8c-2.2-1.8-4.6-3.8-7-5.6
			c-4-3-8-5.9-11.9-8.8c-5.4-4-11.1-8-16.4-12.2c-11.3-8.7-19.4-16.8-25.3-25.5c-3.5-5.1-5.6-10.7-6.6-16.8
			c-0.6-4.5-0.9-9.2-0.8-14.5c0.2-6.1,2-12.1,3.7-17.5c2.5-8.2,7.8-15,16.7-21.4c3.1-2.2,6.9-3.1,10.5-4c0.6-0.2,1.3-0.3,1.8-0.5
			c5.7-1.4,11.6-2,18.7-2c2.3,0,4.8,0.1,7.6,0.2c4.5,0.2,9,1.4,12.9,2.4c4.2,1.2,7.6,3.7,11.5,7c1.9,1.7,3.8,3.5,5.6,5.2
			c0.9,0.9,1.8,1.7,2.7,2.5c1.2,1.1,2.6,1.9,4.3,2.5L546.1,166.5L546.1,166.5z"/>
	</g>
	<g>
		<path d="M529.1,457c-0.9-0.1-1.7-0.1-2.6-0.1c-0.8,0.1-1.6,0.1-2.4,0.1l0,0c-7.3,0-14-2.2-20-4.3l-0.5-0.1
			c-2.2-0.7-4.7-1.5-6.7-2.5c-5.8-2.8-8.7-7.5-8.7-14v-1.8c0-0.4,0-0.8,0-1.2c0-0.8,0-1.6,0-2.3c0-1.2,0.6-2.2,1.4-2.7
			c0.4-0.2,0.8-0.3,1.2-0.3c0.6,0,1.2,0.2,1.8,0.5c0.9,0.5,1.7,1,2.7,1.6c5,2.8,10.8,4.4,18.4,5c3.4,0.3,6.7,0.4,10,0.5
			c2,0.1,4.1,0.2,6.1,0.3c0.4,0,0.7,0,1.1,0c4.2,0,8.1-1.2,11.9-2.2c4.3-1.4,8.9-2.7,14-4.1l2.1-0.6c1-0.3,2.1-0.3,3.1-0.3
			c2.9,0.2,4.9,2.4,4.8,5.4c-0.2,3.5-0.9,6.3-2.1,8.7c-1.3,2.5-3,4.4-5,5.3c-8.5,4.4-17.6,8.6-27.9,9L529.1,457L529.1,457z
			 M493.7,435.5c-0.3,2.3,0.3,4.5,1.7,6.6c1.4,1.8,3.3,3.1,6.3,4.1c1.6,0.6,3.2,1.1,4.8,1.6c1.5,0.4,3.1,1,4.8,1.6
			c4.8,1.6,9.7,2.3,15.2,2.3c3.3,0,6.7-0.3,10.4-0.8c4.4-0.7,8.3-2.4,12.2-4l0.1-0.1c0.7-0.2,1.3-0.5,1.8-0.8
			c0.4-0.2,0.8-0.4,1.2-0.5c0.7-0.3,1.5-0.7,2.1-1.1c0.3-0.2,0.7-0.3,1-0.5c0.3-0.2,0.5-0.3,0.8-0.4s0.6-0.3,0.8-0.4
			c2.3-1,4.7-6.3,4-9V434h-0.2c-0.6,0-1.1,0.1-1.6,0.3c-1,0.3-1.9,0.6-2.9,0.8c-1,0.3-1.9,0.6-2.9,0.9c-1,0.3-1.9,0.6-2.9,0.9
			c-1.9,0.6-3.9,1.2-5.8,1.7c-5.9,1.8-10.5,2.6-14.7,2.6l0,0c-0.5,0-0.9,0-1.4,0H528c-1.4-0.1-2.6-0.2-3.9-0.2
			c-3.1,0-5.8-0.1-8.2-0.4c-6.7-0.6-14.4-1.5-21.6-5l-0.3-0.1v-0.1L493.7,435.5L493.7,435.5z"/>
		<path class="st0" d="M490.8,427.8c0.6,0,1.2,0.2,1.7,0.5c0.9,0.5,1.7,1,2.7,1.6c5,2.8,10.8,4.4,18.4,5c3.4,0.3,6.7,0.4,10,0.5h0.1
			c1.9,0.1,4,0.2,6,0.3c0.4,0,0.7,0,1.1,0c4.2,0,8.1-1.2,11.9-2.2c4.3-1.4,8.9-2.7,14-4.1l2.1-0.6c1-0.3,2.1-0.3,3-0.3
			c2.9,0.2,4.8,2.3,4.8,5.2c-0.2,3.5-0.9,6.2-2.1,8.7s-2.9,4.3-5,5.3c-8.5,4.4-17.6,8.6-27.9,9h-2.4c-0.8-0.1-1.6-0.1-2.4-0.1
			c-0.1,0-0.1,0-0.2,0c-0.8,0.1-1.6,0.1-2.3,0.1c-7.2,0-14-2.2-20-4.3l-0.5-0.1c-2.2-0.7-4.7-1.5-6.7-2.5c-5.7-2.8-8.7-7.5-8.7-13.9
			v-1.8c0-0.4,0-0.8,0-1.2c0-0.8,0-1.6,0-2.3c0-1.2,0.5-2.1,1.4-2.6C490,427.9,490.4,427.8,490.8,427.8 M529.7,441.1
			c-0.5,0-0.9,0-1.4,0H528c-1.4-0.1-2.6-0.2-3.9-0.2c-3.1,0-5.8-0.1-8.2-0.4c-6.7-0.6-14.4-1.5-21.5-5l0,0l0,0l-0.2-0.1v-0.2H494
			h-0.1h-0.2v0.2c-0.3,2.4,0.3,4.6,1.7,6.7c1.4,1.8,3.3,3.2,6.3,4.2c1.6,0.6,3.2,1.1,4.8,1.6c1.4,0.4,3.1,0.9,4.8,1.6
			c4.8,1.6,9.7,2.4,15.2,2.4c3.3,0,6.7-0.3,10.4-0.8c4.4-0.7,8.3-2.4,12.2-4.1l0.1-0.1c0.7-0.2,1.3-0.5,1.8-0.8
			c0.4-0.2,0.8-0.4,1.2-0.5c0.7-0.3,1.5-0.7,2.1-1.1c0.3-0.2,0.7-0.4,1-0.5c0.2-0.1,0.5-0.3,0.8-0.4s0.6-0.3,0.8-0.4
			c2.4-1,4.8-6.4,4-9.2v-0.2h-0.2c-0.6,0-1.1,0.1-1.7,0.3c-1,0.3-1.9,0.6-2.9,0.8c-1,0.3-1.9,0.6-2.9,0.9c-1,0.3-1.9,0.6-2.9,0.9
			c-1.9,0.6-3.9,1.2-5.8,1.7C538.4,440.2,533.9,441.1,529.7,441.1 M490.8,427.6c-0.5,0-0.9,0.1-1.3,0.3c-0.9,0.5-1.5,1.6-1.5,2.8
			c-0.1,1.2,0,2.3,0,3.5c0,0.7,0,1.3,0,1.8c0,6.5,3,11.2,8.8,14.1c2.2,1.2,4.8,1.9,7.2,2.7c6,2,12.8,4.3,20,4.3c0.8,0,1.6,0,2.4-0.1
			c0.9,0,1.7,0,2.6,0.1c0.8,0,1.6,0,2.4,0c10.2-0.4,19.1-4.5,28-9c2.1-1.1,3.9-2.9,5.1-5.4s1.9-5.3,2.1-8.8c0.1-3-1.9-5.3-4.9-5.5
			c-1,0-2.1,0-3.1,0.3c-5.9,1.6-11.2,3.1-16.1,4.7c-4.1,1.3-7.9,2.2-11.8,2.2c-0.4,0-0.7,0-1.1,0c-2-0.1-4.1-0.2-6-0.3
			c-3.3-0.1-6.7-0.2-10.1-0.5c-7.9-0.7-13.5-2.3-18.3-5c-1-0.6-1.8-1.1-2.7-1.6C492,427.8,491.4,427.6,490.8,427.6L490.8,427.6z
			 M529.7,441.3c4.5,0,9-0.9,14.7-2.6c2.9-1,5.8-1.7,8.7-2.6c1.9-0.6,3.9-1.1,5.8-1.6c0.6-0.2,1.1-0.3,1.6-0.3
			c0.7,2.6-1.6,8-3.9,8.9c-0.5,0.3-1.1,0.5-1.6,0.8c-1,0.5-2,1.1-3.1,1.6c-1,0.4-1.9,0.9-3,1.3c-3.9,1.6-8,3.4-12.3,4.1
			c-3.7,0.6-7.1,0.8-10.4,0.8c-5.5,0-10.5-0.8-15.1-2.3c-1.6-0.6-3.1-1.1-4.8-1.6c-1.6-0.5-3.1-1-4.8-1.6c-2.9-1-4.8-2.2-6.2-4.1
			c-1.5-2-2-4.2-1.7-6.5h0.1v0.1l0.4,0.1c7,3.5,14.5,4.5,21.6,5c2.7,0.3,5.5,0.4,8.2,0.4c1.4,0,2.7,0.1,4.2,0.2
			C528.8,441.3,529.2,441.3,529.7,441.3L529.7,441.3z"/>
	</g>
	<g>
		<path d="M550.7,404.4c-2.6,0-4.5-1.3-4.9-3.6c-0.5-1.9-0.6-3.8-0.7-5.6c-0.1-1.8,0.9-2.9,1.8-3.8c1.6-1.4,3.7-2.1,5.7-2.1
			c0.1,0,0.3,0,0.4,0c2.3,0.1,4.3,1.7,4.8,4.2c0.2,1,0.3,1.9,0.4,2.9c0.1,0.3,0.1,0.5,0.1,0.7s0.1,0.5,0.1,0.7
			c0,3.8-1.6,5.9-5.3,6.5C552.4,404.3,551.5,404.4,550.7,404.4z"/>
		<path class="st0" d="M552.7,389.4c0.1,0,0.3,0,0.4,0c2.3,0.1,4.2,1.6,4.8,4.1c0.2,1,0.3,1.9,0.4,2.9c0,0.2,0.1,0.5,0.1,0.7
			s0.1,0.5,0.1,0.7c0,3.8-1.6,5.8-5.2,6.4c-0.8,0.1-1.6,0.2-2.4,0.2c-2.6,0-4.4-1.3-4.8-3.5c-0.5-1.9-0.6-3.8-0.7-5.6v-0.1
			c-0.1-1.6,0.9-2.8,1.7-3.6C548.6,390.2,550.6,389.4,552.7,389.4 M552.7,389.2c-2.1,0-4.2,0.8-5.8,2.1c-1,0.9-1.9,2-1.8,3.8
			c0.1,1.8,0.2,3.8,0.7,5.7c0.5,2.3,2.3,3.7,5,3.7c0.8,0,1.6-0.1,2.4-0.2c3.7-0.6,5.4-2.7,5.4-6.6c-0.1-0.5-0.1-0.9-0.2-1.4
			c-0.1-1-0.2-1.9-0.4-2.9c-0.6-2.5-2.5-4.2-4.9-4.3C553,389.2,552.8,389.2,552.7,389.2L552.7,389.2z"/>
	</g>
	<g>
		<path d="M496.8,404.8c-2.1,0-3.8-1.4-4.7-3.8c-1.1-3-0.6-5.1,1.6-6.9c0.4-0.3,0.8-0.8,1.2-1.3c0.1,0,0.2-0.2,0.3-0.3l0.1-0.1
			c1.3-1.5,2.6-2.2,4.2-2.2c0.6,0,1.2,0.1,1.7,0.3c2.1,0.8,3.7,3,3.7,5.4c0.1,3.5-3,7.7-6.2,8.5
			C498.1,404.7,497.4,404.8,496.8,404.8z"/>
		<path class="st0" d="M499.4,390.4c0.6,0,1.1,0.1,1.6,0.3c2.1,0.8,3.6,3,3.6,5.3c0.1,3.4-2.9,7.6-6.1,8.4c-0.5,0.2-1.2,0.3-1.7,0.3
			c-2.1,0-3.7-1.3-4.6-3.7c-1.1-2.9-0.6-5,1.5-6.7c0.4-0.3,0.8-0.8,1.2-1.3c0.2-0.1,0.3-0.2,0.3-0.3c0,0,0-0.1,0.1-0.1
			C496.6,391.1,498,390.4,499.4,390.4 M499.4,390.2c-1.6,0-3,0.8-4.3,2.2c-0.1,0.1-0.2,0.3-0.4,0.4c-0.4,0.5-0.8,1-1.2,1.3
			c-2.1,1.7-2.6,4-1.6,7c0.9,2.5,2.5,3.9,4.8,3.9c0.6,0,1.3-0.1,1.8-0.3c3.3-0.9,6.4-5.1,6.3-8.6c0-2.4-1.6-4.8-3.8-5.5
			C500.6,390.3,500,390.2,499.4,390.2L499.4,390.2z"/>
	</g>
	<g>
		<path d="M358.1,457.5c-0.4,0-0.9,0-1.2-0.2c-1.4-0.5-2.2-1.5-2.7-2.9c-0.4-1.2-0.6-2.4-0.8-3.8c-0.1-0.4-0.1-0.8-0.2-1.2
			c-0.3-2.1,2.4-6,4.4-6.8c0.4-0.2,0.9-0.3,1.4-0.3c0.5,0,1,0.1,1.6,0.3c1.1,0.5,1.9,1.4,2.2,2.3c0.4,1,0.7,1.9,1,2.9
			c0.1,0.3,0.2,0.5,0.3,0.8c0.1,0.3,0.2,0.6,0.3,0.8c0,0.4,0,0.5,0.1,0.6v0.1v0.5c0,0.1-0.1,0.2-0.2,0.4c-0.1,0.2-0.2,0.3-0.2,0.5
			c-0.9,1.8-1.9,4.1-4.1,5.4C359.5,457.3,358.8,457.5,358.1,457.5z"/>
		<path class="st0" d="M359,442.3c0.5,0,1,0.1,1.5,0.3c1.1,0.5,1.8,1.3,2.2,2.3c0.4,1,0.7,1.9,1,2.9c0.1,0.2,0.2,0.5,0.2,0.8
			c0.1,0.3,0.1,0.5,0.2,0.8v0.1c0,0.3,0,0.4,0.1,0.6v0.1v0.5c0,0.1-0.1,0.2-0.2,0.4s-0.2,0.3-0.2,0.5c-0.9,1.8-1.9,4.1-4,5.4
			c-0.4,0.3-1.1,0.5-1.6,0.5c-0.4,0-0.8,0-1.2-0.2c-1.3-0.5-2.2-1.5-2.6-2.8c-0.4-1.2-0.6-2.4-0.8-3.8c-0.1-0.4-0.1-0.8-0.2-1.2
			c-0.3-2,2.4-5.9,4.4-6.6C358,442.4,358.5,442.3,359,442.3 M359,442.1c-0.5,0-1,0.1-1.5,0.3c-1.9,0.8-4.8,4.7-4.5,6.9
			c0.3,1.7,0.5,3.5,1,5c0.5,1.5,1.5,2.5,2.8,3c0.4,0.2,0.9,0.2,1.3,0.2c0.7,0,1.4-0.2,1.8-0.6c2-1.4,3.1-3.5,4.1-5.5
			c0.1-0.3,0.3-0.6,0.4-0.9v-0.5v-0.2c-0.1-0.1-0.1-0.2-0.1-0.5v-0.1c-0.2-0.5-0.3-1.1-0.5-1.6c-0.3-1-0.6-1.9-1-2.9
			c-0.4-1.1-1.3-1.9-2.3-2.4C360.1,442.2,359.5,442.1,359,442.1L359,442.1z"/>
	</g>
	<g>
		<path d="M325.4,468.2c-0.2,0-0.3,0-0.4-0.1c-0.1,0-0.2,0-0.3,0c-1.4-0.3-2.3-1.4-2.6-2.8c-1.2-3.8-1.8-7.1,1.1-10
			c0.5-0.5,0.9-0.9,1.4-1.3c0.8-0.5,1.6-0.8,2.4-0.8c0.3,0,0.7,0,1,0.1c1,0.4,1.8,1.2,2.2,2.2c0.5,1,0.7,2,0.9,3.1v0.2
			c0.1,0.2,0.1,0.3,0.1,0.5s0.1,0.4,0.1,0.5v0.1c0,2.6-1.3,4.7-2.6,6.4C327.7,467.6,326.5,468.2,325.4,468.2z"/>
		<path class="st0" d="M326.9,453.4c0.3,0,0.6,0,0.9,0.1c1,0.4,1.7,1.2,2.2,2.2c0.5,1,0.7,2,0.8,3.1v0.2c0,0.1,0.1,0.3,0.1,0.5
			s0,0.3,0.1,0.5v0.1c0,2.6-1.3,4.6-2.5,6.4c-0.8,1.1-2,1.7-3.1,1.7c-0.1,0-0.3,0-0.4-0.1c-0.1,0-0.2,0-0.3,0
			c-1.3-0.3-2.2-1.4-2.5-2.7c-1.2-3.7-1.8-7,1-9.9c0.5-0.5,0.9-0.9,1.4-1.3C325.3,453.7,326.1,453.4,326.9,453.4 M326.9,453.2
			c-0.8,0-1.6,0.3-2.5,0.8c-0.5,0.4-0.9,0.8-1.4,1.3c-3,3-2.1,6.6-1.1,10.1c0.3,1.6,1.4,2.6,2.7,2.9c0.2,0,0.4,0.1,0.7,0.1
			c1.2,0,2.4-0.7,3.3-1.8c1.2-1.6,2.6-3.7,2.6-6.5v-0.1c-0.1-0.3-0.1-0.7-0.2-1c-0.2-1.1-0.4-2.2-0.9-3.3c-0.5-1.2-1.4-1.9-2.3-2.3
			C327.6,453.2,327.2,453.2,326.9,453.2L326.9,453.2z"/>
	</g>
	<g>
		<path d="M726.2,497.9c-4.1-0.4-8.2-0.8-12.4-1.2c-0.3,0-0.5,0-0.7-0.1c-0.2,0-0.5-0.1-0.7-0.1c-1.6-0.1-3.3-0.2-4.8-0.8
			c-2.3-0.8-4.5-2.2-6.1-3.2c-0.8-0.6-1.6-1.1-2.3-1.7c-0.4-0.3-0.7-0.5-1.1-0.8c-0.4-0.3-0.7-0.5-1-0.7c-0.3-0.3-0.7-0.5-1-0.8
			c-6.1-4.6-10.5-10.9-13.4-19.4c-0.3-1-0.4-2.2-0.3-3.8c0.1-1.4,1.2-2.3,2.7-2.3c1.4,0,2.4,1,2.7,2.4c1.4,8,5.4,14.4,12.6,19.4
			c1.6,1.2,3.1,2.3,4.8,3.6c1.9,1.5,4,2.2,6.4,2.4c2.8,0.2,5.7,0.5,8.2,0.8c1.9,0.1,3.8,0.3,5.6,0.5c0.3,0.1,0.6,0.1,0.8,0.1
			c0.4,0,0.9,0.1,1.3,0.2c1.6,0.4,2.4,1.6,2.2,3c-0.2,1.3-1.3,2.1-2.7,2.3L726.2,497.9L726.2,497.9z"/>
		<path class="st0" d="M685.3,463.3c1.4,0,2.3,0.9,2.6,2.3c1.4,8,5.5,14.4,12.6,19.5c1.6,1.2,3.1,2.3,4.8,3.6
			c1.9,1.5,4.1,2.2,6.4,2.4c2.8,0.2,5.7,0.5,8.2,0.8c1.9,0.1,3.8,0.3,5.6,0.5c0.3,0.1,0.6,0.1,0.8,0.1c0.3,0,0.7,0.1,1.2,0.2
			c1.5,0.4,2.3,1.5,2.1,2.8c-0.2,1.2-1.2,2-2.6,2.2h-0.9c-4.1-0.4-8.2-0.8-12.4-1.2c-0.2,0-0.4,0-0.7,0c-0.2,0-0.5-0.1-0.7-0.1l0,0
			c-1.6-0.1-3.3-0.2-4.7-0.8c-2.3-0.8-4.5-2.1-6-3.2c-0.8-0.6-1.6-1.1-2.3-1.7c-0.4-0.3-0.7-0.5-1.1-0.8c-0.3-0.2-0.7-0.5-1-0.7
			c-0.3-0.3-0.7-0.5-1-0.8c-6.1-4.5-10.5-10.9-13.3-19.4c-0.3-1-0.4-2.1-0.3-3.7C682.8,464.3,683.9,463.3,685.3,463.3 M685.3,463.1
			c-1.6,0-2.7,1-2.8,2.4c-0.1,1.6,0,2.8,0.3,3.8c2.8,8.5,7.2,14.9,13.4,19.5c0.7,0.5,1.3,1,1.9,1.5c1.2,0.9,2.2,1.7,3.4,2.5
			c1.8,1.2,3.9,2.4,6.1,3.2c1.5,0.6,3.1,0.7,4.8,0.8c0.5,0,0.9,0.1,1.4,0.1c4.2,0.4,8.3,0.8,12.4,1.2h0.9c1.6-0.2,2.6-1.2,2.8-2.4
			c0.2-1.5-0.7-2.7-2.3-3.1c-0.4-0.1-0.9-0.2-1.3-0.2c-0.2,0-0.4,0-0.7-0.1c-1.8-0.2-3.7-0.4-5.6-0.5c-2.7-0.3-5.5-0.6-8.2-0.8
			c-2.3-0.2-4.4-1-6.3-2.4c-1.6-1.3-3.2-2.4-4.8-3.6c-7.1-5-11.2-11.3-12.5-19.3C687.9,464.1,686.8,463.1,685.3,463.1L685.3,463.1z"
			/>
	</g>
	<g>
		<path d="M730,473.3c-0.2,0-0.6-0.1-1-0.2c-0.8-0.3-1.5-1.1-1.8-1.9c-0.6-0.9-0.9-2-1.1-3.2l-0.1-0.2c-0.1-0.3-0.2-0.6-0.2-0.9
			v-0.2c0.3-3.5,3.2-6.3,6.7-6.3c0.1,0,0.2,0,0.4,0c1.6,0.1,2.5,0.8,3,1.9c0.9,2.1,1.1,4.2,0.6,6.3l-0.1,0.2l-0.1,0.2
			c-0.1,0.3-0.2,0.5-0.3,0.7l-0.9,0.7c-1.6,1.2-3,2-4.3,2.7C730.6,473.2,730.2,473.3,730,473.3z"/>
		<path class="st0" d="M732.6,460.5c0.1,0,0.2,0,0.3,0c1.5,0.1,2.4,0.7,2.9,1.8c0.9,2.1,1.1,4.1,0.6,6.2l-0.1,0.2l-0.1,0.2
			c-0.1,0.2-0.2,0.5-0.3,0.6l-0.7,0.8c-1.6,1.2-3,2-4.2,2.7c-0.4,0.1-0.7,0.2-0.9,0.2s-0.6-0.1-0.9-0.2c-0.8-0.3-1.5-1.1-1.8-1.9
			c-0.5-0.9-0.8-2-1.1-3.1l-0.1-0.2c-0.1-0.3-0.2-0.6-0.2-0.8v-0.1v-0.1C726.3,463.2,729.2,460.5,732.6,460.5 M732.6,460.3
			c-3.5,0-6.6,2.8-6.8,6.4v0.1v0.1c0,0.3,0.1,0.6,0.2,0.9c0.3,1.2,0.6,2.4,1.2,3.4c0.4,1,1.2,1.7,1.9,2c0.3,0.1,0.7,0.2,1,0.2
			s0.7-0.1,1-0.2c1.5-0.8,2.9-1.7,4.3-2.7l0.9-0.7c0.2-0.2,0.3-0.6,0.4-0.9l0.1-0.2c0.5-2.2,0.3-4.3-0.6-6.4c-0.5-1.3-1.6-1.9-3.1-2
			C732.8,460.3,732.8,460.3,732.6,460.3L732.6,460.3z"/>
	</g>
	<g>
		<path d="M694.8,450.5c-2.4-0.1-4.1-2-4.1-4.7c0-2.7,3-6.6,5.7-7.4c0.3-0.1,0.7-0.1,1-0.1c1.1,0,2,0.5,2.7,1.5c1.6,2.6,2,4.8,1.1,7
			c-1,2-3.8,3.7-6.2,3.7H694.8z"/>
		<path class="st0" d="M697.5,438.5c1.1,0,1.9,0.5,2.5,1.4c1.6,2.6,1.9,4.8,1.1,6.9c-1,2-3.7,3.7-6.1,3.7h-0.2c-2.3-0.1-4-1.9-4-4.6
			s3-6.5,5.6-7.3C696.9,438.6,697.2,438.5,697.5,438.5 M697.5,438.3c-0.3,0-0.7,0-1,0.1c-2.7,0.8-5.8,4.7-5.8,7.5
			c0,2.7,1.7,4.7,4.2,4.8c0.1,0,0.2,0,0.2,0c2.5,0,5.3-1.7,6.3-3.8c1-2.2,0.6-4.5-1.1-7.1C699.6,438.7,698.6,438.3,697.5,438.3
			L697.5,438.3z"/>
	</g>
</g>
</svg>
