<?xml version="1.0" encoding="utf-8"?>
<!-- Generator: Adobe Illustrator 25.2.3, SVG Export Plug-In . SVG Version: 6.00 Build 0)  -->
<svg version="1.1" id="레이어_1" xmlns="http://www.w3.org/2000/svg" xmlns:xlink="http://www.w3.org/1999/xlink" x="0px"
	 y="0px" viewBox="0 0 1024 640" style="enable-background:new 0 0 1024 640;" xml:space="preserve">
<g>
	<path d="M913.3,510.6c-0.4-98-0.7-197.7-1-294.1l0-1.5c-0.2-63.7-0.4-129.5-0.5-194.3c0-2.9-0.9-5.2-2.7-7.2
		c-3.4-3.8-7.8-5.7-13.1-5.6c-14.3,0.1-28.7,0.3-43,0.5c-14.4,0.2-28.8,0.4-43.2,0.5c-11,0.2-22.1,0.3-33.2,0.4s-22.2,0.2-33.2,0.4
		l-93.5,1.2c-11,0.2-22.1,0.3-33.2,0.4c-11.1,0.1-22.2,0.2-33.2,0.4l-91.1,1.2c-11.4,0.2-22.7,0.3-34,0.4s-22.7,0.2-34.1,0.4
		l-95.2,1.2l-124.4,1.5l-68,0.9c-1.9,0-3.5,0-5.3,0.1c-0.5,0-1.4,0-2.3,0.1c-0.7,0-1.3,0-1.6,0c-5.2,0.2-7.9,3.1-7.9,8.7
		c0.1,181.4,0.1,365.4,0,546.8c0,5.2,1.6,9.9,3.3,14.2c1.6,3.9,4.5,5.8,9,5.8c49.1,0,98.1,0.1,145.6,0.2
		c54.3,0.1,110.4,0.2,165.6,0.4h2.9c0.6,11.4,1.2,22.7,1.8,33.9l0.6,12.4h5.2l0-0.4c-0.1-1.5-0.1-3-0.1-4.6c0-1.5-0.1-3.1-0.1-4.6
		c-0.4-9.5-0.9-19.2-1.4-28.5c-0.1-2.5-0.2-5.1-0.4-8.1c25.8,0.1,51.5,0.2,77.2,0.2c26.1,0.1,52.1,0.2,78.2,0.3
		c0,0.2,0.1,0.4,0.1,0.5c0.1,0.4,0.2,0.9,0.2,1.3l1.5,40.5c0.1,0.5,0.1,1,0.2,1.6c0.1,0.5,0.1,1,0.2,1.5l0,0.3h5.6l0-0.4
		c-0.1-5.7-0.3-11.7-0.5-16.6c-0.2-4.4-0.3-8.8-0.5-13.2c-0.2-4.4-0.4-8.8-0.5-13.2c0-0.4,0-0.8,0-1.3c0-0.4,0-0.8,0.1-1.2
		l126.1,0.3c26.1,0,52.2,0.1,78.3,0.2c26.4,0.1,52.7,0.2,79,0.2c3,0,5.9-0.5,8.1-0.9c3.2-0.6,5.6-2.4,7-5.3c0.9-1.8,1.3-3.7,1.3-5.8
		L913.3,510.6z M126,26.9c-0.1-2.1,0.8-2.7,1.7-3.1c0.5-0.3,1.5-0.4,2.6-0.4c0.4,0,0.7,0,1.1,0h2.7c7.6,0,15.3-0.1,22.8-0.2
		c3.9,0,7.7-0.1,11.6-0.1l69.6-0.9c33-0.5,65.9-0.9,97.7-1.3c10.5-0.1,21.1-0.3,31.3-0.3c10.3-0.1,21-0.2,31.5-0.4
		c16.2-0.2,32.4-0.4,48.6-0.6c16.2-0.2,32.4-0.5,48.6-0.6c10.4-0.1,21-0.3,31.2-0.3c10.3-0.1,20.9-0.2,31.3-0.4
		c16.2-0.2,32.4-0.4,48.6-0.6c16.2-0.2,32.4-0.5,48.6-0.6c10.3-0.1,20.8-0.3,31-0.4c10.2-0.1,20.7-0.2,31-0.4
		c16.3-0.2,32.6-0.4,48.9-0.6c16.3-0.2,32.7-0.5,49-0.6c20.6-0.3,41.6-0.5,61.9-0.7l0.6,0c1.8,0,3.5-0.1,5.3-0.1
		c3.5,0,7.1-0.1,10.6-0.2c2.4-0.1,4.7,0.3,6.9,0.8c3.2,0.7,5.5,3.7,5.5,7.2c0.1,53.7,0.3,107.5,0.5,161.2
		c0.2,54.3,0.4,108.6,0.5,162.9c0.1,39.3,0.2,78.6,0.3,117.9c0.1,39.3,0.2,78.7,0.4,118v2c-0.1,2.4-1.3,3.9-3.5,4.3
		c-2.6,0.5-4.7,0.7-6.7,0.7l-109.4-0.3c-90.8-0.3-183.1-0.5-272.4-0.7c-42.6-0.1-85.2-0.2-127.8-0.3c-83.8-0.2-170.4-0.4-255.6-0.6
		c-2.9,0-3.2-0.1-4.1-2.7c-1.3-3.7-2.5-7.7-2.5-12.2C126,391.3,126,207.5,126,29.7L126,26.9z"/>
	<path d="M152.4,72.6c0.2,1.1,0.4,2.3,0.4,3.4c0.1,3.7,0.1,7.3,0.1,11c0,3.7,0,7.3,0.1,11c0.4,69.7,0.9,140.5,1.4,209l1.2,199.5
		c0,4.4,0.1,8.8,0.1,13.1c0,4.3,0.1,8.7,0.1,13c0,2.4,1.1,4,3.3,4.8c0.9,0.3,1.8,0.6,2.7,0.6c0,0,0,0,0,0c3.8,0.2,7.8,0.4,11.7,0.4
		c10.5,0.1,21,0.2,31.5,0.2s21,0.2,31.5,0.2c46.6,0.5,92.7,0.9,137.3,1.3c14.5,0.2,29.1,0.3,43.4,0.4c14.2,0.1,28.9,0.2,43.3,0.3
		c22.8,0.2,45.6,0.4,68.4,0.6c23.3,0.2,46.5,0.5,69.8,0.7c15.7,0.1,31.3,0.3,47,0.4c15.8,0.1,31.5,0.3,47.3,0.4l1.2,0
		c51.1,0.4,103.9,0.8,155.8,1.3c0.9,0,1.7,0,2.6,0c3.2-0.1,6.5-0.1,9.7,0.7c0.2,0,0.4,0,0.6,0c0.5,0,1-0.1,1.4-0.1
		c5.2-0.8,9.2-5.4,9.3-10.7c0.2-6.4,0.3-13,0.4-19.3l0-0.2c0.3-18.7,0.7-37.4,1-56.1c0.3-18.7,0.6-37.5,1-56.2l4.5-252.4l1.5-90.1
		v-1.7c0-1.6-0.9-2.7-2.5-3.2c-0.2,0-0.5-0.1-0.7-0.1c-0.2-0.1-0.5-0.1-0.7-0.2c-1.5-0.2-3-0.5-4.6-0.8c-1.5-0.2-3-0.5-4.5-0.7
		c-1.6-0.3-3.2-0.6-4.9-0.6c-8.3,0.1-16.8,0.3-24.9,0.5l-0.5,0c-10.6,0.2-21.3,0.4-32,0.6c-10.7,0.2-21.4,0.4-32,0.5
		c-11.2,0.2-22.3,0.4-33.5,0.6c-11.1,0.2-22.3,0.5-33.4,0.6c-10.8,0.2-21.5,0.4-32.2,0.6c-10.8,0.2-21.5,0.4-32.3,0.5
		c-11.1,0.2-22.1,0.4-33.2,0.6c-11.1,0.2-22.1,0.5-33.2,0.6c-12.6,0.2-25.1,0.4-38.1,0.6c-9.2,0.1-18.6,0.3-28.2,0.5
		c-11.8,0.2-25.6,0.6-39,1c-10.6,0.2-21.2,0.4-31.8,0.6c-10.6,0.2-21.3,0.4-31.9,0.5c-11,0.2-22.1,0.4-33.2,0.6
		c-11.3,0.2-22.6,0.5-33.9,0.7c-10.8,0.2-21.6,0.4-32.3,0.6c-10.7,0.2-21.4,0.3-32.2,0.5c-12.4,0.2-24.9,0.5-37.3,0.7
		c-12.5,0.2-24.9,0.4-37.4,0.7c-7,0.2-14,0.3-21,0.4c-7,0.1-14,0.2-21,0.4c-1.6,0-3.4,0.4-5.5,1.3c-1.7,0.6-2.4,2.1-2,4
		C152.2,71.6,152.3,72.1,152.4,72.6z M667.1,536.8c0.2-0.5,0.4-0.8,0.5-1c0.5-0.6,1.1-1.1,1.6-1.7c1.3-1.5,2.5-2.9,4.1-3.9
		c6.4-4.3,12.6-7.5,18.9-9.8c0.2-0.1,0.5-0.2,0.8-0.2c0.1,0,0.2-0.1,0.4-0.1c0.1,0.9,0.1,1.7,0.2,2.6c0.1,2.2,0.3,4.2,0.7,6.2
		c0.5,2.2,1.5,4.3,2.4,6.3c0.3,0.6,0.5,1.1,0.8,1.7L667.1,536.8C667.1,536.8,667.1,536.8,667.1,536.8z M706,385.2
		c3.7-2.4,7.7-4.2,12.6-5.7c8.1-2.4,15.5-3.2,22.8-2.7c3.6,0.3,7.5,1.1,11.8,2.4c4.4,1.4,8.6,3.6,13.2,7c4.5,3.5,9.1,6.9,13.6,10.2
		c2.8,2.1,5.6,4.1,8.4,6.2c1.1,0.7,2.2,1.9,3.2,3.4c3.1,4.8,6.9,11.3,7.8,18.9c1.1,8.1,2.2,16.6,1.9,24.8c-0.1,0.4-0.2,0.7-0.2,1
		c0,0-0.1,0.1-0.1,0.1c-1.1,0-2.1,0-3.2,0c-3.2,0-6.3,0-9.5-0.1c-2.6-0.1-4.7-1.9-5.9-3.4c-2.5-3-5.2-6.2-7.5-9.6
		c-1.4-2.1-2.7-4.4-4-6.7c-0.7-1.3-1.5-2.7-2.3-4c-0.7-1-1.6-2.2-2.8-3.2c-6.6-5.5-12.1-9.3-17.8-12c-4.5-2.2-9.1-4.2-13.6-6.1
		c-1.9-0.8-3.8-1.6-5.6-2.4c-6.5-2.8-12.4-7.1-17.1-10.7c-2.1-1.5-3.4-3.7-4.8-6C706.7,386.3,706.3,385.7,706,385.2z M678.4,478.8
		c-0.4-0.7-0.8-1.3-1.2-2c-0.8-1.3-1.5-2.6-2.1-4c-0.9-2.1-2-4.7-2.6-7.2c-1.7-6.6-2.5-13.4-2.4-20.9c0.1-1.4,0.2-2.8,0.5-4
		c0.9-4,1.8-8,2.7-12c0.9-4,1.9-8,2.8-12c0.8-3.3,2.6-6.3,4.4-9.1c3.4-5.7,7.9-10.7,13.4-14.9c1.5-1.2,3.3-2.3,4.9-3.4
		c0.6-0.4,1.2-0.8,1.8-1.2c1.2,1.7,2.1,3.1,2.9,4.4c1.6,2.3,3.5,4.4,6,6.2c7.1,5.4,15.2,9.8,25.5,13.8c11.3,4.5,19.7,9.4,26.4,15.6
		c0.8,0.8,1.6,1.9,2.2,3c4,7.1,8,14,13.5,19.8c1.4,1.5,3.1,2.7,4.6,3.7c2,1.5,4.4,2.3,6.8,2.3c3.1,0,6.2,0.1,9.2,0.2l2.3,0
		c0.3,4.7-0.8,9.1-3.4,13.2c-1.2,1.9-2.2,3.6-3.1,5.3c-2.2,4-5.1,7.7-9.3,11.8c-0.6,0.7-1.4,1.4-2.1,1.8c-1.8,1.1-3.6,2.3-5.3,3.4
		c-4.1,2.7-8.4,5.5-13.1,7.4c-7.4,2.8-15.1,5.8-23.4,6c-3.1,0.1-6-0.4-8.8-0.9c-0.7-0.1-1.3-0.2-2-0.3c-9.6-1.7-19.1-3.5-28.6-5.2
		l-1.2-0.2c-2-0.4-3.7-1.1-5.1-2.2C687.5,491.9,682.2,485.9,678.4,478.8z M701,512l0.3-1.3c0.4-1.5,0.8-3.1,1.1-4.9l6.2,1.1
		c7.7,1.4,15,2.7,22.6,4.1c-0.3,0.6-0.6,1.2-1,1.7c-2.6,3.8-5.4,7.8-8.1,11.6c-0.6,0.9-1.3,1.6-2.1,2.4l-1.9,1.9c-2,2-3.9,3.8-6,5.6
		c-0.9,0.8-2,1.5-3,2.2c-0.4,0.3-0.9,0.6-1.3,0.9c-5.2-3-7.9-7.2-8.2-12.9C699.3,520.5,699.8,516.4,701,512z M719.5,535.5
		c1.9-1.7,3.9-3.5,5.7-5.5c1.9-2.2,3.6-4.6,5.3-7c0.4-0.6,0.8-1.1,1.2-1.7c1,0,2,0.4,2.9,1.2c2.3,2.2,4.8,4.6,7,6.9
		c2.5,2.8,5.5,5.3,8.7,7.2c0.3,0.2,0.6,0.4,1,0.6c0.2,0.1,0.4,0.3,0.6,0.4c-11.7-0.1-23.6-0.3-34.2-0.5
		C718.2,536.6,718.9,536,719.5,535.5z M735.3,515.5c0.7-1.2,1.4-2.5,2.2-3.8c2-0.1,4.1-0.2,6-0.4c3.9-0.3,7.8-1.1,12.2-2.5l2-0.7
		c4.8-1.6,9.8-3.3,14.4-6c5.3-3,9.8-5.8,13.7-8.5c4.3-2.8,7.4-6.9,9.6-10.2c3-4.5,5.7-9.3,8.2-13.9c1.6-3.2,2.4-6.3,2.4-9.6
		c0-0.9,0.2-1.7,0.3-2.6c0.1-0.3,0.1-0.6,0.2-0.9c1.1-8.9,0.3-17.4-0.7-25.4c-0.2-1.2-0.3-2.3-0.4-3.5c-0.2-1.6-0.3-3.2-0.6-4.7
		c-1.3-7.1-4.4-14-10-22.2c-0.6-0.9-1.5-1.6-2.4-2.3c-8.7-6.6-17.8-13.4-26.9-19.9c-4.4-3.2-9.8-5.3-16.8-6.8
		c-11.2-2.2-22.7-1.3-35.3,2.9c-5.3,1.8-10.2,4.7-14.5,7.2c-1,0.6-2.1,1.2-3.2,1.8c-0.8,0.4-1.7,0.9-2.5,1.4
		c-0.7,0.4-1.4,0.9-2.1,1.4c-1.9,1.6-3.8,3.3-5.7,5c-5.8,5.2-10.4,11.8-14.2,20.1c-1,2-1.4,4.4-1.9,6.6c-0.1,0.6-0.2,1.1-0.3,1.7
		c-0.7,2.8-1.3,5.7-1.9,8.5c-0.8,3.6-1.6,7.2-2.5,10.8c-0.2,1-0.4,2.1-0.4,3.2c-0.1,8.5,0.4,15,1.7,21c1.3,6.1,3,10.7,5.3,14.7
		c2.7,4.8,5.1,9,8.3,13c4,4.7,10.6,11,16.3,13.4c0,0.7,0,1.4-0.2,2.2c-0.1,0.8-0.3,1.6-0.6,2.4c-0.2,0.9-0.5,1.8-0.6,2.8
		c-0.2,0.8-0.5,1.1-1.4,1.4c-7,2.1-14,5.5-22.6,10.9c-4.4,2.8-7.8,6.7-10.4,12.1c-12.2-0.1-24.5-0.2-36.8-0.3
		c-12.8-0.1-25.6-0.3-38.4-0.4c-0.1-0.8-0.1-1.6-0.2-2.3c-0.1-0.8-0.1-1.6-0.2-2.4l-0.1-1c-0.4-4.6-0.7-9.3-2.4-13.7
		c-0.8-2.3-1.9-4.7-3.4-7.6c-2.3-4-4.5-8-6.8-12c-2.3-4-4.5-8-6.8-12c-1.6-3-4.2-4.6-8-4.9c-1.2-0.1-2.3,0-3.6,0c-0.5,0-1,0-1.6,0
		c-0.5-2.6-0.5-17.6,0.1-21.7c0.6-0.3,1.3-0.5,1.9-0.8c1.2-0.5,2.5-1.1,3.8-1.6c7-2.6,15-6,21.4-12.1c0.5-0.5,1.1-1,1.7-1.4
		c5-3.6,8.9-8.6,12.3-15.7c1.7-3.6,3.2-7,4.5-10.3c1.3-3.5,1.7-7.2,2.1-10.8c0.9-7.8-0.1-15.4-1.2-22.9c-0.3-2.4-0.7-4.9-0.9-7.3
		c-0.4-4.2-1.8-8.2-3.1-12.1c-0.2-0.6-0.4-1.2-0.6-1.8c-0.1-0.5-0.4-1-0.7-1.4c-1.2-1.8-2.5-3.6-3.7-5.3c-1.5-2.2-3.1-4.4-4.6-6.7
		c-2.4-3.7-5.5-7.2-9.5-10.6c-0.8-0.7-1.5-1.3-2.3-2c-4.7-4-9.5-8.2-15.2-11c-4.4-2.1-9-3.4-13.6-4.1c-13.9-2.1-26.6-1.4-38.9,2.3
		c-3.7,1.1-7.2,2.7-10.4,4.2c-2.1,1-4.2,2.1-6.1,3.2c-0.8,0.4-1.5,0.8-2.3,1.2c-5.7,3.1-10.3,7.5-15,12.2
		c-4.7,4.7-8.9,9.8-12.5,15.1c-2.6,3.9-4.5,7.6-5.6,11.2c-2.8,9.8-4.1,19.9-3.9,30c0.1,7,1.3,13.2,3.5,18.9c1.9,5,4.7,9.3,7.6,13.7
		c0.5,0.8,1,1.7,1.6,2.6c0.3,0.6,0.7,1.2,1,1.7c0.1,0.2,0.2,0.3,0.3,0.5c0.2,0.4,0.4,0.8,0.7,1l1.2,1.6c1.9,2.4,3.8,4.8,5.9,7.1
		c1.4,1.6,3.3,3,5.1,4.2c1.7,1.3,3.6,2.4,5.3,3.5c0.5,0.4,0.9,0.6,1.4,0.7c3.4,1,6.8,2.1,10.1,3.1s6.8,2.1,10.2,3.2
		c0.6,0.2,1.2,0.4,2,0.6c-0.1,1.1-0.2,2.1-0.3,3.2c-0.2,2.2-0.4,4.4-0.6,6.6c-0.1,2.3,0,4.5,0,6.8c0,1.1,0,2.2,0,3.4
		c-1.6,0.9-3.4,1.8-5.2,2.8c-1,0.6-1.8,1.1-2.6,1.6c-8.4,6.8-14,13.5-17.6,21.1c-3.3,7-5.5,14.4-6.6,22.7c-0.1,1.1-0.2,2.2-0.2,3.4
		c0,0.4,0,0.8-0.1,1.3h-2.4c-8.8-0.1-17.5-0.2-26.3-0.2s-17.5-0.1-26.3-0.2c-8.4-0.1-16.9-0.1-25.3-0.2c-16.7-0.2-33.9-0.3-50.9-0.4
		c-2.7,0-4-0.6-4.5-3.8c-0.3-2-0.6-4-0.7-6c-0.2-4.6-0.3-9.1-0.4-13.4v-1.8c3-1.1,5.5-2.1,8.1-2.9c8.6-2.9,15.8-8,21.7-12.7
		c3.1-2.3,5.8-5.4,7.9-9.1c2-3.3,4-6.8,5.7-10.3c2-4.1,3.3-8.7,3.8-14.7c0.1-1.3,0.2-2.7,0.2-4.1c0-0.7,0-1.4,0.1-2
		c0.1-0.6,0.2-1.2,0-1.7c-1-2.5-1.1-5.2-1.3-7.7c-0.1-1.4-0.2-2.8-0.4-4.2c-0.4-2.6-0.8-5.3-1.1-7.9c-0.3-2.6-0.7-5.3-1.1-8
		c-0.1-1-0.5-1.9-0.8-2.8c-0.1-0.4-0.3-0.8-0.4-1.2c-0.8-2.4-1.7-4.9-2.5-7.3c-1.7-4.8-3.4-9.7-5-14.6c-0.6-1.8-1.1-3.8-1.6-5.7
		c-0.2-1-0.5-2-0.8-3c0.3-0.5,0.6-0.9,0.9-1.4c0.7-1,1.4-2,2-3c2-3.3,1.8-6.7-0.4-9.8c-1.7-2.1-3.8-4-6.5-5.7
		c-8.1-5-16.9-8.1-26.3-9c-2.6-0.3-5.3-0.4-7.8-0.5c-3.5-0.2-7.1-0.2-10.6-0.3c-3.5-0.1-7-0.1-10.6-0.3c-5.1-0.2-10.3,0.8-15.9,3
		c-7.3,2.9-13.7,6.1-19.7,9.9c-3.2,2.1-6.4,4.1-9.5,6.2c-3.2,2.1-6.3,4.1-9.5,6.2c-3.3,2.2-6.4,4.9-9.1,7.9
		c-1.2,1.4-2.4,2.7-3.6,4.1c-2.3,2.6-4.7,5.3-7,8c-3.1,3.7-5.6,8-7.4,13c-0.2,0.6-0.5,1.3-0.8,1.9c-0.3,0.6-0.6,1.3-0.9,1.9
		c-0.2,0.5-0.3,1-0.4,1.4c-0.3,1-0.5,2.1-0.7,3.1c-0.4,1.6-0.7,3.3-1.3,4.9c-2.8,8.3-2.6,17.2,0.8,27c1.7,5.3,4.5,10.2,7.1,14.9
		l0.3,0.6c0.6,1.1,1.2,2.3,1.7,3.4c0.4,0.8,0.8,1.7,1.3,2.5c0.3,0.6,0.7,1.2,1.1,1.7c3.1,3.8,6.8,7.2,11.3,10.2
		c2.4,1.6,4.8,3.3,7.2,5c7.3,5.1,15.8,8.7,25.1,10.7c1.6,0.3,3.3,0.7,4.9,1.1c1.6,0.4,3.3,0.8,4.9,1.1c0.8,0.2,1.7,0.3,2.7,0.3h9.8
		c0.4,0,0.7,0,1.1,0c0.3,0,0.7,0,1.1,0.1c0,0.6,0,1.2,0.1,1.7c0.1,1.3,0.1,2.5-0.1,3.7c-0.3,2.1-0.7,4.3-1.1,6.5
		c-0.3,1.4-0.5,2.9-0.8,4.3c-0.2,1.2-0.3,2.4-0.4,3.7c0,1.6-0.5,3.1-1.5,4.5c-20.4-0.3-41.2-0.5-61.4-0.6
		c-25.1-0.2-51.1-0.4-76.7-0.9l0-0.4c-0.1-0.9-0.1-1.8-0.1-2.5c0-10.6,0-21.5-0.1-32.2l-0.9-138.2c-0.5-64.5-1-131.2-1.4-196.8
		c-0.1-14.6-0.2-29.2-0.2-43.8c-0.1-14.7-0.2-29.4-0.3-44.1v-2.5c0.6-0.1,1-0.1,1.4-0.1l68.1-1.2c28.9-0.5,58.4-1.1,86.9-1.7
		c6.8-0.1,13.7-0.3,20.4-0.3c6.7-0.1,13.6-0.2,20.4-0.4l63.7-1.2c6.9-0.2,13.9-0.3,20.6-0.4c6.8-0.1,13.8-0.2,20.7-0.4l63.5-1.2
		c13.8-0.2,28-0.4,42-0.7l62.8-1.2c6.9-0.1,13.9-0.3,20.6-0.4c6.8-0.1,13.8-0.2,20.7-0.3l63.7-1.2c6.9-0.1,13.9-0.3,20.6-0.4
		c6.8-0.1,13.8-0.2,20.7-0.3l63.5-1.2c7.9-0.2,16.9-0.4,25.6-0.5c0.5,0,0.9,0.1,1.4,0.2l7.4,1.2c0.7,0.1,1.6,0.3,2.6,0.5
		c0,0.8,0,1.5-0.1,1.9c-0.2,15.8-0.5,31.7-0.8,47.6c-0.3,15.9-0.6,31.8-0.8,47.6L871.1,342c-0.2,11.3-0.4,22.7-0.5,34
		c-0.2,11.4-0.3,22.7-0.5,34c-0.2,12.4-0.5,24.7-0.7,37.1c-0.2,12.4-0.5,24.7-0.7,37.1c-0.3,15.3-0.6,32.6-0.8,49.3
		c0,2.5-1.3,3.7-3.3,4.8c-0.3,0.2-0.8,0.2-1.2,0.2c-0.9,0-1.8-0.1-2.7-0.2c-1.3-0.1-2.7-0.2-4.1-0.2c-30.1-0.3-61.2-0.6-91.8-0.8
		c-1.6,0-2.6-0.5-3.8-1.7c-1-1-1.9-1.6-2.8-2c-5.5-2.3-9.8-5.4-13.2-9.6C742.1,520.5,738.5,517.7,735.3,515.5z M545.7,460.7V482
		c-0.8,0.1-1.6,0.3-2.3,0.5c-1.5,0.3-3,0.7-4.5,0.7c-4.1,0.1-8.2,0-12.3-0.1c-1.3,0-2.7-0.1-4-0.1c-0.7,0-1.3-0.2-2-0.3
		c-0.3-0.1-0.5-0.1-0.8-0.2l-1.5-0.3c-2.3-0.4-4.6-0.8-7.3-1.2c-0.6-5.6-0.4-11.4,0.7-17.2C523.7,466.9,535.1,464.2,545.7,460.7z
		 M572.2,358.7c-3.9-2-8-4-12-5.9c-1.7-0.8-3.5-1.6-5.2-2.4c-1.4-0.6-2.9-1.3-4.3-1.9c-1.3-0.6-2.6-1.3-3.9-2
		c-0.6-0.3-1.2-0.7-1.8-1c-1.9-1.1-3.9-2.2-6-3c-3.6-1.5-6.9-2.1-10.2-2c-2.2,0.1-4.4,0.1-6.6,0.1c-1.5,0-2.9,0-4.4,0.1
		c-4.7,0.2-9.2,1.2-13.4,3c-10.3,4.6-17.8,9.8-23.4,16.3c-0.9,0.9-1.8,1.8-2.7,2.8c-0.1,0.1-0.2,0.2-0.3,0.3
		c-0.4,0.4-0.7,0.9-0.9,1.4c-0.5,1.2-0.2,2.5,0.7,3.3c1,1,2.5,1,3.6,0.1c1.1-0.9,2.2-2,3.2-3.2c4.7-5.6,10.7-10.2,19.1-14.3
		c5-2.5,9.8-3.8,14.5-3.9c0.9,0,1.7-0.1,2.6-0.1c1.7,0,3.5-0.1,5.2-0.2c5.2-0.5,10.3,0.9,15.6,4c3.9,2.3,7.3,4.1,11.1,5.3
		c1,0.4,2,0.8,3,1.5c7.2,4.1,14.7,7.6,22.9,11.4c1.2,0.6,2.4,1.5,3.6,2.3c0.6,0.4,1.2,0.9,1.8,1.3c0.7,0.5,1.4,1,2.1,1.4
		c1.5,1.1,3.1,2.2,4.7,3.2c0.7,0.5,1.1,0.8,1.1,1.5c0.2,1.3,0.4,2.7,0.6,4c1.2,8.2,2.4,16.6,1.3,25c-0.4,3.8-1.4,7.3-2.9,10.4
		c-2,4.1-4.2,8.3-6.4,12.3c-1.2,2.2-2.9,4.2-5.1,6c-1.1,0.9-2.2,1.8-3.2,2.7c-1.1,0.9-2.2,1.9-3.2,2.7c-2.8,2.3-5.6,3.9-8.4,5.1
		c-2,0.8-3.9,1.8-5.8,2.6c-3.3,1.5-6.8,3.1-10.2,4.3c-9.8,3.5-20.2,6.8-31.2,5.5c-0.8-0.1-1.5-0.2-2.1-0.4c-2.6-0.8-5.3-1.5-7.9-2.2
		c-6-1.7-12.2-3.4-18.3-5.4c-5.4-1.8-10.4-5.1-14.8-10.1c-2.9-3.2-5-6.2-6.5-9.2c-0.7-1.6-1.8-3-2.8-4.3c-0.5-0.7-1-1.3-1.5-2
		c-1.5-2.3-2.8-4.8-4.2-8.1c-4.6-11.4-3.8-23.1-2.7-32c0.6-3.9,1.5-7.8,2.4-11.5c0.2-0.9,0.4-1.7,0.6-2.6c0.7-3,2.2-5.9,4.6-8.8
		c0.2-0.2,0.4-0.5,0.6-0.8c0.1-0.1,0.1-0.2,0.2-0.3c5.4-8.2,12.3-15.6,21.3-22.5c1.8-1.3,3.9-2.4,5.9-3.5c1.1-0.6,2.3-1.2,3.4-1.8
		c5.7-3.4,11.8-5.6,18.8-6.9c5.6-1,10.9-1.5,15.9-1.5c5,0,9.8,0.5,14.4,1.5c0.6,0.1,1.2,0.3,1.8,0.4c1.7,0.3,3.4,0.7,5.1,1.2
		c3.5,1,6.5,2.6,9.2,4.6c1.2,0.9,2.4,1.8,3.5,2.7c3.6,2.7,7.3,5.6,10.4,9c0.2,0.3,0.5,0.6,0.8,0.9c0.5,0.6,1,1.1,1.3,1.8
		c1.7,3.2,3.9,6,6,8.8c0.9,1.1,1.8,2.3,2.6,3.5c1.4,1.9,4,5.9,4.7,8.3C584.1,364.1,577,360.8,572.2,358.7z M479.3,527.6
		c1.4-6.7,2.9-12.2,5.6-17.3c1.7-3.2,3.1-5.6,4.7-7.7c1.3-1.7,2.7-3.3,4.1-4.8c0.7-0.8,1.4-1.6,2.1-2.4c2.6-2.8,5.7-5.1,9.1-6.6
		c3.1-1.5,6.7-1.9,10.3-1.1c4.9,1,9.7,1.5,14.4,1.4c0.5,0,1.1,0,1.6,0c1.1,0,2.2,0,3.3,0c6,0.2,11.8-1.2,16.2-2.4
		c1.9-0.5,4.1-0.6,6.2-0.7c1.4-0.1,2.6,0.7,3.4,2.1c4.9,8.7,10,17.6,14.9,26.4c1.9,3.4,3,7.5,3.5,12.9l0,0.4
		c0.2,2.6,0.4,5.3,0.5,8.2c-38.4-0.5-70.3-0.7-100.4-0.8C478.3,532.4,478.7,529.9,479.3,527.6z M227.8,437.2c0-0.2,0.1-0.4,0.1-0.6
		c0.1-0.5,0.2-1,0.2-1.3c0.3-1.2,0.6-2.4,1-3.6c0.6-2.4,1.2-4.8,2-7.2c1.6-4.5,3.2-9.2,6-13.2c4.4-6.4,9.8-12.5,15.9-18
		c4.4-4,9.5-7.3,13.4-9.7l2.1-1.3c6.1-3.9,12.4-7.9,19-11l1.6-0.8c2.1-1,4.2-2,6.3-2.8c5.1-2.2,10.7-3,17-2.6
		c4.6,0.3,9.5,0.5,15.9,0.5c6.9-0.1,13.8,0.9,21.3,3.2c4.7,1.4,8.6,3.9,12.8,6.6l0.5,0.3c0.8,0.5,1.5,1.2,2.2,2
		c1.1,1.2,1.2,3.2,0.4,4.8c-1,1.9-2.7,3.4-5.2,4.8c-5.8,3.2-11.5,6.4-17.1,9.4c-3.5,2-7.2,4-10.8,6.1c-7.4,4.3-14.5,7.4-21.5,9.6
		c-1,0.3-2.1,0.5-3.3,0.6c-0.6,0.1-1.1,0.2-1.7,0.3c-0.4,0.1-0.7,0.1-1.1,0.1c-1.1,0.1-2.2,0.3-3.2,0.6c-3.7,1-7.5,2.1-11.1,3.2
		c-1.5,0.4-3.1,0.9-4.6,1.3c-5.3,1.6-10.4,4.1-15.8,7.7c-2.2,1.5-4.2,3.5-6.2,6.3c-0.4,0.5-0.7,1-1.1,1.5c-1,1.5-2.1,3.1-3.3,4.5
		c-1.7,1.9-3.6,4-5.8,5.8c-4.7,3.8-10,4-15.1,0.7c-1.6-1-3.2-2.2-4.7-3.4c-0.9-0.7-1.9-1.4-2.8-2.1
		C230.3,438.8,229.3,438.1,227.8,437.2z M276.2,499.7c-7-1.8-13.1-4.7-18.6-8.6c-1.1-0.8-2.3-1.6-3.4-2.4c-2.2-1.5-4.6-3.1-6.8-4.8
		c-4.1-3.1-7.1-6.5-9-10.5c-1-2-2-3.9-3.1-5.8c-2-3.8-4.2-7.7-5.6-11.8c-1-2.8-1.7-6-2.2-10.1v-1.3c0.4,0.2,0.7,0.4,1,0.7
		c1.5,1,2.9,2,4.3,3c1.4,1,2.8,2,4.3,3c1.8,1.3,3.9,1.7,5.9,2c6,0.9,11.2-0.7,15.8-4.9c2.9-2.7,5.7-5.4,7.6-8.7
		c5-8.8,13.3-12.6,20.8-15.1c3.7-1.3,7.7-2.4,11.5-3.5c1.7-0.5,3.4-0.9,5.1-1.4c0.4-0.1,0.7-0.2,1.1-0.2c5.8,0.1,11-2,15.5-3.9
		c4.6-2.1,9.4-4.5,15.5-7.7c3.3-1.7,6.7-3.6,10-5.4c1.7-0.9,3.3-1.8,5-2.7l0.1,0c2.8-1.7,5.7-3.4,8.6-4.9c1.1-0.5,2.2-1.1,3.5-1.8
		c1.5,6.2,3.5,12.2,5.6,18c1.4,3.9,2.8,7.9,3.9,11.9c1.2,3.8,1.8,7.8,2.3,11.8c0.1,0.8,0.2,1.6,0.3,2.5c0.7,5.3,1.3,11.1,1.9,17.7
		c0.3,3.5-0.4,7.2-1.1,10.5c-0.5,2.6-1.3,4.3-4.4,5.2c-3.3,0.9-6.6,2.2-9.7,3.4c-2.1,0.8-4.2,1.6-6.4,2.3c-1.8,0.6-4,1-6.6,1.1
		c-1.1,0-2.2,0-3.3,0.1c-4.2,0.1-8.6,0.2-12.8-0.2c-7.9-0.9-15.4-3.9-22.1-9c-1.2-0.9-2.4-1.7-3.6-2.5c-0.7-0.5-1.4-0.8-2.2-0.9
		c-1.4-0.2-2.6,0.5-3.1,1.9c-0.4,1.3-0.1,2.4,1,3.2c0.7,0.5,1.4,1,2.1,1.5c0.7,0.5,1.4,0.9,2.1,1.4c7,5.3,14.9,8.7,23.8,10.1
		c7.1,1.1,14.3,0.6,20.5,0.1c4-0.4,7.8-1.8,11.4-3.2c1.2-0.5,2.5-0.9,3.7-1.4c1-0.3,2.1-0.7,3.1-1.1c0.4-0.2,0.9-0.3,1.3-0.5
		c-2.9,6.1-6.4,10.6-10.9,13.9c-7.7,5.7-14.4,9.3-21.3,11.3c-3.3,1-6,1.5-8.7,1.5c-4.2,0-8.3,0-12.5,0c-8.2,0-16.6,0-24.9,0
		c-1.1-0.1-2.2-0.3-3.3-0.6c-0.4-0.1-0.8-0.2-1.1-0.2c-1.1-0.2-2.2-0.5-3.3-0.7C282.1,501.2,279.1,500.5,276.2,499.7z M306.9,531.6
		c0.5-2.8,1-5.4,1.4-8.1c0.4-2.6,0.7-5.3,1-7.9c0.2-1.4,0.3-2.8,0.5-4.2c0.1-0.6,0-1.1,0-1.7c0-0.2,0-0.4,0-0.6h19.8
		c0.1,0.9,0.1,1.9,0.2,2.8c0.2,1.9,0.3,3.8,0.4,5.7c0,0.7,0,1.3,0,2c0,1.3,0,2.6,0,3.9c0.2,2.9,0.5,5.7,0.8,8.5
		c0.1,0.5,0.2,1,0.2,1.6h-24.7L306.9,531.6z"/>
	<path d="M618.8,123.5c-0.8-0.7-1.6-1.2-2.6-1.7c-1.2-0.6-2.4-1.2-3.6-1.8c-3.7-2-7.6-4-11.4-4.6c-1.3-0.2-2.6-0.5-3.8-0.7
		c-2.6-0.5-5.1-1-7.8-1.3c-1-0.1-1.8-0.2-2.7-0.3c-4.1-0.4-7.3-0.8-13,0.8c-5.1,1.4-7.6,2.5-10.4,4.2c-3.8,2.5-6.9,4.7-9.5,6.8
		c-1.7,1.4-3.3,2.9-5.1,4.5c-0.9,0.8-1.8,1.7-2.7,2.5c-0.4-0.3-0.9-0.6-1.3-0.7c-1.1-1-2.1-1.9-3.2-2.9c-1.4-1.3-2.9-2.7-4.4-3.9
		c-3.7-3.1-8.7-6.8-15.2-8.3c-7.2-1.6-13.7-2.9-20.6-2.4c-2.4,0.1-4.9,0-7.3,0.1c-8.8,0.3-17,2-24.1,5c-9.1,3.7-16.4,11-21.7,21.6
		c-4.4,9-6.7,19.2-6.6,29.7c0,4.2,0.3,8.1,1,12c1.3,7.3,3.7,13.6,7.6,19.3c6.6,9.9,15.5,18.9,27.9,28.4c4.8,3.6,9.7,7.3,14.5,10.8
		c4.8,3.5,9.7,7.2,14.5,10.8c2.9,2.1,5.7,4.5,8.4,6.8c1.1,1,2.3,1.9,3.5,2.9c0.8,0.7,1.6,1.4,2.3,2c2.6,2.2,5.2,4.6,8.1,6.5
		c4.8,3.1,9.1,7.3,13.5,13l0.5,0.7c0.7,1.1,1.4,2.1,2.3,3c1.1,1.2,2.5,2.2,3.7,2.9c0.3,0.2,0.6,0.2,1,0.2c0.5,0,0.9-0.1,1.2-0.3
		c1.8-1.2,3.6-2.4,5.1-4c2.6-2.8,5.9-6.7,8.5-11c1.3-2,2.6-3.7,3.9-5.3c2.9-3.6,6-7.3,8.9-10.8c1.4-1.7,2.8-3.3,4.2-5
		c0.9-1.1,1.7-2.2,2.5-3.3c2.1-2.9,4.3-5.9,6.4-8.8c3.8-5.3,7.8-10.9,11.8-16.3c1.2-1.6,2.3-3.1,3.5-4.7c3.6-4.9,7.3-10,11.6-14.5
		c5-5.3,9.2-11.3,13.1-17c2.9-4.4,4.7-9.5,5.4-15.7c0.8-7.4-0.1-14.7-1.3-22.7C634,140.1,628.9,132,618.8,123.5z M631.2,168.3
		c-0.1,3.7-0.8,7.4-1.5,11c-0.3,1.3-1.1,2.5-1.8,3.8l-0.1,0.2c-4.5,7.3-9,13.1-13.7,17.9c-5,5-9.2,10.6-13.4,16.1
		c-1.2,1.6-2.5,3.3-3.7,4.9c-3.6,4.7-7.1,9.6-10.5,14.3c-1.6,2.3-3.3,4.5-4.9,6.8L581,244c-1.5,2.1-3,4.1-4.6,6l-2.2,2.6
		c-5.4,6.4-10.9,13-15.5,20.3c-1.5,2.4-3.4,4.6-5.4,6.9c-0.8,1-1.7,2-2.5,3c-0.5-0.6-1-1.2-1.4-2c-1.9-2.4-3.9-4.9-5.9-7.4
		c-2.7-3.2-5.9-5.7-8.4-7.6c-3.5-2.5-7-5.3-10.3-8l-2.2-1.8c-1.6-1.3-3.2-2.6-4.7-3.9c-2.3-1.9-4.7-3.9-7.2-5.8
		c-4.1-3.1-8.2-6.1-12.3-9.1c-5.6-4.1-11.4-8.3-16.9-12.6c-11.7-9-20-17.3-26.1-26.3c-3.6-5.3-5.8-11-6.8-17.3
		c-0.6-4.6-0.9-9.5-0.8-15c0.2-6.3,2.1-12.5,3.8-18c2.6-8.5,8-15.5,17.2-22.1c3.2-2.3,7.1-3.2,10.8-4.1c0.6-0.2,1.3-0.3,1.9-0.5
		c5.9-1.4,12-2.1,19.3-2.1c2.4,0,5,0.1,7.8,0.2c4.6,0.2,9.3,1.4,13.3,2.5c4.3,1.2,7.8,3.8,11.9,7.2c2,1.8,3.9,3.6,5.8,5.4
		c0.9,0.9,1.9,1.8,2.8,2.6c1.2,1.1,2.7,2,4.4,2.6l0.2,0.1l0.2-0.2c1-1,2-1.9,2.9-2.9c1.9-1.9,3.7-3.7,5.7-5.4
		c2.9-2.4,6.2-4.9,10.1-7.6c2.1-1.4,6.5-3.7,9.5-4c0.6-0.1,1.2-0.1,1.7-0.2c3.5-0.4,6-0.7,9.8-0.3c0.9,0.1,1.7,0.2,2.5,0.3
		c4,0.5,7.1,0.9,11.5,2c8.2,1.9,17.2,8.2,23.1,16c3.1,4,4.4,8.7,5.2,12.9C630.8,157.2,631.4,163,631.2,168.3z"/>
	<path d="M487.2,417.7c0,6.7,3.1,11.6,9.1,14.5c2.3,1.2,4.9,2,7.4,2.8c6.9,2.3,14.8,4.9,23.1,4.3c0.9,0,1.8,0,2.7,0.1
		c0.8,0,1.7,0,2.5,0c0,0,0,0,0,0c10.5-0.4,19.7-4.6,28.9-9.3c2.2-1.1,4-3,5.3-5.6c1.3-2.6,2-5.5,2.2-9.1c0.1-3.1-2-5.5-5.1-5.7
		c-1,0-2.2,0-3.2,0.3c-6.1,1.7-11.6,3.2-16.6,4.8c-4.6,1.4-8.8,2.5-13.3,2.3c-2.1-0.1-4.2-0.2-6.2-0.3c-3.4-0.1-6.9-0.2-10.4-0.5
		c-8.1-0.7-13.9-2.4-18.9-5.2c-1-0.6-1.9-1.1-2.8-1.6c-1.2-0.6-2.3-0.7-3.2-0.2c-0.9,0.5-1.5,1.6-1.5,2.9c-0.1,1.2,0,2.4,0,3.6
		C487.2,416.5,487.2,417.1,487.2,417.7z M493.6,417.3c7.2,3.6,15,4.6,22.3,5.2c2.8,0.3,5.7,0.4,8.5,0.4c1.4,0,2.8,0.1,4.3,0.2
		c5,0.2,10.1-0.7,16.6-2.7c3-1,6-1.8,9-2.7c2-0.6,4-1.1,6-1.7c0.6-0.2,1.1-0.3,1.7-0.3c0.7,2.7-1.6,8.2-4,9.2
		c-0.5,0.3-1.1,0.5-1.6,0.8c-1,0.5-2.1,1.1-3.2,1.6c-1,0.4-2,0.9-3.1,1.3c-4,1.7-8.2,3.5-12.7,4.2c-10.2,1.5-18.6,1-26.3-1.6
		c-1.6-0.6-3.2-1.1-4.9-1.6c-1.6-0.5-3.2-1-4.9-1.6c-3-1-5-2.3-6.4-4.2c-1.5-2.1-2.1-4.3-1.8-6.7c0,0,0.1,0,0.1,0v0.1L493.6,417.3z"
		/>
	<path d="M551.8,385.2c0.8,0,1.7-0.1,2.5-0.2c3.8-0.6,5.6-2.8,5.6-6.8l0,0c-0.1-0.5-0.1-0.9-0.2-1.4c-0.1-1-0.2-2-0.4-3
		c-0.6-2.6-2.6-4.3-5.1-4.4c-2.4-0.1-4.6,0.7-6.4,2.2c-1,0.9-2,2.1-1.9,3.9c0.1,1.9,0.2,3.9,0.7,5.9
		C547.1,383.8,549,385.2,551.8,385.2z"/>
	<path d="M496.2,385.6c0.6,0,1.3-0.1,1.9-0.3c3.4-0.9,6.6-5.3,6.5-8.9c0-2.5-1.6-4.9-3.9-5.7c-2.3-0.8-4.4-0.1-6.2,2
		c-0.1,0.1-0.2,0.3-0.4,0.4c-0.4,0.5-0.8,1-1.2,1.3c-2.2,1.8-2.7,4.1-1.6,7.2C492.2,384.2,493.9,385.6,496.2,385.6z"/>
	<path d="M349,436.6c0.5,1.5,1.5,2.6,2.9,3.1c0.4,0.2,0.9,0.2,1.3,0.2c0.7,0,1.4-0.2,1.9-0.6c2.1-1.4,3.2-3.6,4.2-5.7
		c0.1-0.3,0.3-0.6,0.4-0.9l0-0.5l0-0.2c-0.1-0.1-0.1-0.2-0.1-0.5l0-0.1c-0.2-0.5-0.3-1.1-0.5-1.6c-0.3-1-0.6-2-1-3
		c-0.4-1.1-1.3-2-2.4-2.5c-1-0.4-2.1-0.5-3.1,0c-2,0.8-4.9,4.8-4.6,7.1C348.3,433.2,348.5,435,349,436.6z"/>
	<path d="M318.7,450.9c0.2,0,0.4,0.1,0.7,0.1c1.2,0,2.5-0.7,3.4-1.9c1.2-1.6,2.7-3.8,2.7-6.7l0-0.1c-0.1-0.3-0.1-0.7-0.2-1
		c-0.2-1.1-0.4-2.3-0.9-3.4c-0.5-1.2-1.4-2-2.4-2.4c-1.1-0.3-2.4-0.1-3.6,0.7c-0.5,0.4-0.9,0.8-1.4,1.3c-3.1,3.1-2.2,6.8-1.1,10.4
		C316.2,449.5,317.3,450.6,318.7,450.9z"/>
	<path d="M701.8,472.1c0.7,0.5,1.3,1,2,1.5c1.2,0.9,2.3,1.8,3.5,2.6c1.9,1.2,4,2.5,6.3,3.3c1.5,0.6,3.2,0.7,4.9,0.8
		c0.5,0,0.9,0.1,1.4,0.1c4.3,0.4,8.6,0.8,12.8,1.2l0,0l0.9,0c1.6-0.2,2.7-1.2,2.9-2.5c0.2-1.5-0.7-2.8-2.4-3.2
		c-0.4-0.1-0.9-0.2-1.3-0.2c-0.2,0-0.4,0-0.7-0.1c-1.9-0.2-3.8-0.4-5.8-0.5c-2.8-0.3-5.7-0.6-8.5-0.8c-2.4-0.2-4.5-1-6.5-2.5
		c-1.7-1.3-3.3-2.5-4.9-3.7c-7.3-5.2-11.5-11.7-12.9-19.9c-0.3-1.6-1.4-2.6-2.9-2.6c-1.6,0-2.8,1-2.9,2.5c-0.1,1.6,0,2.9,0.3,3.9
		C690.9,460.8,695.4,467.4,701.8,472.1z"/>
	<path d="M732.5,450.4c0.3,1.2,0.6,2.5,1.2,3.5c0.4,1,1.2,1.8,2,2.1c0.3,0.1,0.7,0.2,1,0.2c0.3,0,0.7-0.1,1-0.2
		c1.5-0.8,3-1.8,4.4-2.8l0.9-0.7c0.2-0.2,0.3-0.6,0.4-0.9l0.1-0.2c0.5-2.3,0.3-4.4-0.6-6.6c-0.5-1.3-1.6-2-3.2-2.1
		c-3.8-0.2-7.1,2.8-7.4,6.6l0,0.1l0,0.1C732.3,449.8,732.4,450.1,732.5,450.4z"/>
	<path d="M700.4,432.7c0.1,0,0.2,0,0.2,0c2.6,0,5.5-1.8,6.5-3.9c1-2.3,0.6-4.6-1.1-7.3c-0.9-1.3-2.3-1.8-3.9-1.4
		c-2.8,0.8-6,4.8-6,7.7C696.1,430.6,697.9,432.6,700.4,432.7z"/>
</g>
</svg>
