<?xml version="1.0" encoding="UTF-8"?>
<svg id="Layer_2" data-name="Layer 2" xmlns="http://www.w3.org/2000/svg" viewBox="0 0 749.07 664">
  <g id="Layer_1-2" data-name="Layer 1">
    <g>
      <path d="M277.09,0c-14.99,35.73-30.02,71.44-44.96,107.19C155.82,289.8,79.53,472.41,3.24,655.02c-.69,1.64-1.42,3.26-2.95,4.83-.1-1.53-.28-3.07-.28-4.6C0,438.33,0,221.41,0,4.49,0,2.99,.13,1.5,.2,0,92.5,0,184.79,0,277.09,0Z"/>
      <path d="M748.91,0c.05,2.16,.15,4.33,.15,6.49,0,215.77,0,431.54,0,647.31v5.93c-.32,.11-.64,.22-.95,.33-.76-1.7-1.57-3.38-2.28-5.09C656.97,442.06,568.11,229.15,479.28,16.23,477.05,10.88,475.1,5.41,473.01,0c91.96,0,183.93,0,275.89,0Z"/>
      <path d="M435.03,664c-.41-1.58-.66-3.22-1.26-4.73-16.37-41.45-32.82-82.88-49.08-124.37-1.38-3.53-3.1-4.73-6.87-4.72-38.97,.13-77.94,.08-116.9,.08-2.11,0-4.22,0-7.16,0,40.4-95.22,80.46-189.62,120.93-285,3.79,8.97,7.2,17.05,10.61,25.13,55.07,130.73,110.14,261.46,165.21,392.19,.19,.46,.32,.95,.47,1.42h-115.95Z"/>
    </g>
  </g>
</svg>