<?xml version="1.0" encoding="UTF-8"?>
<svg id="Layer_2" data-name="Layer 2" xmlns="http://www.w3.org/2000/svg" viewBox="0 0 61.85 61.85">
  <g id="Layer_1-2" data-name="Layer 1">
    <g>
      <path d="M19.46,31.93c-.3,0-.9-.01-1.11-.03,2.61-2.67,5.35-5.47,7.95-8.13,2.6-2.65,5.2-5.3,7.88-8.05-.48-.09-.81-.17-1.15-.2-5.24-.61-9.74,.98-13.48,4.67-6.71,6.61-6.07,17.94,1.28,23.82q.48,.38,.57,.41c1.7-3.74,3.67-8.09,5.4-11.82,.23-.49,.3-.69,.3-.69-2.31,.04-5.33,.03-7.64,.02Z"/>
      <path d="M38.74,17.31s-.22,.39-.41,.7c-.26,.44-.56,.92-.8,1.38-1.3,2.42-2.6,4.85-3.97,7.39,4.17,0,8.88,0,12.89,.01,0,0-.06-.2-.23-.65-1.33-3.62-4.2-6.79-7.48-8.83Z"/>
      <path d="M59.66,0H2.19C.98,0,0,.98,0,2.19V59.66c0,1.21,.98,2.19,2.19,2.19H59.66c1.21,0,2.19-.98,2.19-2.19V2.19c0-1.21-.98-2.19-2.19-2.19Zm-10.22,31.99c-3.96,0-8.67,.01-12.63-.01,0,0-.14,.13-.5,.55-3.88,4.56-7.78,9.1-11.73,13.71,2.06,.95,4.15,1.41,6.32,1.36,6.6-.16,11.46-3.18,14.57-9.01,.88-1.64,2.44-2.17,3.88-1.24,1.08,.7,1.5,2.07,.92,3.27-2.25,4.7-5.76,8.18-10.51,10.29-6,2.66-12.02,2.58-17.98-.22-.49-.23-.75-.44-.75-.44-1.17,1.46-2.89,3.51-4.11,4.93-.19,.22-.31,.56-.76,.55,.88-1.89,2.17-4.65,3.06-6.5,0,0-.12-.11-.78-.58-4.19-3.01-6.97-7.07-8.12-12.07-1.74-7.55,.02-14.32,5.43-19.93,4.91-5.08,11.03-7.03,18.01-6.32,1.31,.13,4.37,1,4.66,1.13,0,0,.13-.16,.53-.58,2.02-2.1,4.06-4.18,6.1-6.26,.14-.14,.19-.17,.53-.51l-4.14,8.04q-.21,.38-.28,.52c5.12,2.95,8.88,7.65,10.45,13.34,.28,1.03,.53,2.07,.58,3.13,.08,1.71-1.04,2.84-2.74,2.84Z"/>
    </g>
  </g>
</svg>