<svg xmlns="http://www.w3.org/2000/svg" xml:space="preserve" viewBox="-11 0 512 455">
  <defs>
    <linearGradient id="b" x1="0" x2="1" y1="0" y2="0" gradientTransform="matrix(0 212.59846 212.59846 0 542 379)" gradientUnits="userSpaceOnUse" spreadMethod="pad">
      <stop offset="0" style="stop-opacity:1;stop-color:#3393ff"/>
      <stop offset=".2" style="stop-opacity:1;stop-color:#3393ff"/>
      <stop offset="1" style="stop-opacity:1;stop-color:#005aff"/>
    </linearGradient>
    <linearGradient id="c" x1="0" x2="1" y1="0" y2="0" gradientTransform="matrix(0 212.59842 212.59842 0 648 251)" gradientUnits="userSpaceOnUse" spreadMethod="pad">
      <stop offset="0" style="stop-opacity:1;stop-color:#3393ff"/>
      <stop offset=".2" style="stop-opacity:1;stop-color:#3393ff"/>
      <stop offset="1" style="stop-opacity:1;stop-color:#005aff"/>
    </linearGradient>
    <linearGradient id="a" x1="0" x2="1" y1="0" y2="0" gradientTransform="scale(-162.4741 162.4741) rotate(45 -4 -4)" gradientUnits="userSpaceOnUse" spreadMethod="pad">
      <stop offset="0" style="stop-opacity:0;stop-color:#fff"/>
      <stop offset=".6" style="stop-opacity:0;stop-color:#fff"/>
      <stop offset="1" style="stop-opacity:1;stop-color:#fff"/>
    </linearGradient>
    <linearGradient id="e" x1="0" x2="1" y1="0" y2="0" gradientTransform="scale(-162.4741 162.4741) rotate(45 -4 -4)" gradientUnits="userSpaceOnUse" spreadMethod="pad">
      <stop offset="0" style="stop-opacity:1;stop-color:#3393ff"/>
      <stop offset=".6" style="stop-opacity:1;stop-color:#3393ff"/>
      <stop offset="1" style="stop-opacity:1;stop-color:#0041e6"/>
    </linearGradient>
    <mask id="d" width="1" height="1" x="0" y="0" maskUnits="userSpaceOnUse">
      <path d="M-32768 32767h65535v-65535h-65535Z" style="fill:url(#a);stroke:none"/>
    </mask>
  </defs>
  <path d="M541 591c-7 0-13-6-14-13-1-22-11-66-59-115l-59-58c-10-10-3-27 11-27h133l85 85s38 39 42 115c0 7-5 13-12 13z" style="fill:url(#b);stroke:none" transform="matrix(1.3333333 0 0 -1.3333333 -546 789)"/>
  <path d="m638 463-85-85s-39-38-42-114c-1-7 5-13 12-13h126c8 0 14 6 14 13 2 21 12 66 60 114l58 59c10 10 3 26-11 26z" style="fill:url(#c);stroke:none" transform="matrix(1.3333333 0 0 -1.3333333 -546 789)"/>
  <g mask="url(#d)" transform="matrix(1.3333333 0 0 -1.3333333 -546 789)">
    <path d="m638 463-85-85s-39-38-42-114c-1-7 5-13 12-13h126c7 0 14 6 14 13 2 21 12 66 60 114l58 59c10 10 3 26-11 26z" style="fill:url(#e);stroke:none"/>
  </g>
</svg>