<?xml version="1.0" encoding="UTF-8"?>
<svg id="Layer_2" data-name="Layer 2" xmlns="http://www.w3.org/2000/svg" viewBox="0 0 208.39 186.98">
  <defs>
    <style>
      .cls-1 {
        fill: #4d4d4d;
      }
    </style>
  </defs>
  <g id="Layer_1-2" data-name="Layer 1">
    <path class="cls-1" d="M128.19,69.05h73.5c3.51,0,8.92,9.14,5.74,12.75-25.62,27.81-54.58,47.79-64.57,86.42-2.85,11,1.3,16.7-13.13,17.87-11.48.93-57.1,1.69-66.35-.73-4.89-1.28-6.2-3.59-6.12-8.66.11-7.07,2.68-19.43,4.64-26.44,3.53-12.6,9.77-23.68,17.28-34.22H5.69c-4.02,0-7.4-9.27-4.74-12.75,24.32-26.67,54.19-47.52,63.57-84.43,1.41-5.54.76-16.45,6.61-18.39l73.61-.48c6.51.67,5.72,8.54,5.43,13.54-1.06,18.85-9.98,41.06-21.98,55.51Z"/>
  </g>
</svg>