<?xml version="1.0" encoding="UTF-8"?>
<svg id="Layer_1" xmlns="http://www.w3.org/2000/svg" version="1.1" viewBox="0 0 24 24">
  <!-- Generator: Adobe Illustrator 29.0.1, SVG Export Plug-In . SVG Version: 2.1.0 Build 192)  -->
  <defs>
    <style>
      .st0 {
        fill: #010101;
      }
    </style>
  </defs>
  <path class="st0" d="M22.86,9.95h-10.64v4.37h6.08c-.27,1.41-1.07,2.6-2.27,3.4-1.01.68-2.29,1.09-3.81,1.09-2.94,0-5.43-1.98-6.32-4.65h-.01s.01-.01.01-.01c-.23-.68-.36-1.4-.36-2.15s.13-1.47.36-2.15c.89-2.67,3.39-4.65,6.32-4.65,1.66,0,3.14.57,4.32,1.68l3.23-3.23c-1.96-1.83-4.51-2.95-7.56-2.95C7.81.71,4,3.24,2.14,6.94c-.77,1.52-1.21,3.23-1.21,5.06s.44,3.54,1.21,5.06h0c1.86,3.7,5.67,6.23,10.08,6.23,3.05,0,5.61-1.01,7.47-2.73,2.14-1.97,3.37-4.87,3.37-8.31,0-.8-.07-1.57-.21-2.31Z"/>
</svg>