<svg xmlns="http://www.w3.org/2000/svg" xmlns:xlink="http://www.w3.org/1999/xlink" xml:space="preserve" overflow="hidden" viewBox="0 0 268.15 273.88"><defs><linearGradient id="a"><stop offset="0" stop-color="#0fbc5c"/><stop offset="1" stop-color="#0cba65"/></linearGradient><linearGradient id="g"><stop offset=".23" stop-color="#0fbc5f"/><stop offset=".31" stop-color="#0fbc5f"/><stop offset=".37" stop-color="#0fbc5e"/><stop offset=".46" stop-color="#0fbc5d"/><stop offset=".54" stop-color="#12bc58"/><stop offset=".7" stop-color="#28bf3c"/><stop offset=".77" stop-color="#38c02b"/><stop offset=".86" stop-color="#52c218"/><stop offset=".92" stop-color="#67c30f"/><stop offset="1" stop-color="#86c504"/></linearGradient><linearGradient id="h"><stop offset=".14" stop-color="#1abd4d"/><stop offset=".25" stop-color="#6ec30d"/><stop offset=".31" stop-color="#8ac502"/><stop offset=".37" stop-color="#a2c600"/><stop offset=".45" stop-color="#c8c903"/><stop offset=".54" stop-color="#ebcb03"/><stop offset=".62" stop-color="#f7cd07"/><stop offset=".7" stop-color="#fdcd04"/><stop offset=".77" stop-color="#fdce05"/><stop offset=".86" stop-color="#ffce0a"/></linearGradient><linearGradient id="f"><stop offset=".32" stop-color="#ff4c3c"/><stop offset=".6" stop-color="#ff692c"/><stop offset=".73" stop-color="#ff7825"/><stop offset=".88" stop-color="#ff8d1b"/><stop offset="1" stop-color="#ff9f13"/></linearGradient><linearGradient id="b"><stop offset=".23" stop-color="#ff4541"/><stop offset=".31" stop-color="#ff4540"/><stop offset=".46" stop-color="#ff4640"/><stop offset=".54" stop-color="#ff473f"/><stop offset=".7" stop-color="#ff5138"/><stop offset=".77" stop-color="#ff5b33"/><stop offset=".86" stop-color="#ff6c29"/><stop offset="1" stop-color="#ff8c18"/></linearGradient><linearGradient id="d"><stop offset=".41" stop-color="#fb4e5a"/><stop offset="1" stop-color="#ff4540"/></linearGradient><linearGradient id="c"><stop offset=".13" stop-color="#0cba65"/><stop offset=".21" stop-color="#0bb86d"/><stop offset=".3" stop-color="#09b479"/><stop offset=".4" stop-color="#08ad93"/><stop offset=".48" stop-color="#0aa6a9"/><stop offset=".57" stop-color="#0d9cc6"/><stop offset=".67" stop-color="#1893dd"/><stop offset=".77" stop-color="#258bf1"/><stop offset=".86" stop-color="#3086ff"/></linearGradient><linearGradient id="e"><stop offset=".37" stop-color="#ff4e3a"/><stop offset=".46" stop-color="#ff8a1b"/><stop offset=".54" stop-color="#ffa312"/><stop offset=".62" stop-color="#ffb60c"/><stop offset=".77" stop-color="#ffcd0a"/><stop offset=".86" stop-color="#fecf0a"/><stop offset=".92" stop-color="#fecf08"/><stop offset="1" stop-color="#fdcd01"/></linearGradient><linearGradient xlink:href="#a" id="s" x1="219.7" x2="254.47" y1="329.54" y2="329.54" gradientUnits="userSpaceOnUse"/><radialGradient xlink:href="#b" id="m" cx="109.63" cy="135.86" r="71.46" fx="109.63" fy="135.86" gradientTransform="matrix(-1.936885 1.043001 1.455731 2.555422 290.53 -400.63)" gradientUnits="userSpaceOnUse"/><radialGradient xlink:href="#c" id="n" cx="45.26" cy="279.27" r="71.46" fx="45.26" fy="279.27" gradientTransform="matrix(-3.512595 -4.45809 -1.692547 1.260616 870.8 191.55)" gradientUnits="userSpaceOnUse"/><radialGradient xlink:href="#d" id="l" cx="304.02" cy="118.01" r="47.85" fx="304.02" fy="118.01" gradientTransform="matrix(2.064353 -.00000493 -.0000029 2.592041 -297.68 -151.75)" gradientUnits="userSpaceOnUse"/><radialGradient xlink:href="#e" id="o" cx="181" cy="177.2" r="71.46" fx="181" fy="177.2" gradientTransform="matrix(-.2485783 2.083138 2.962486 .3341668 -255.15 -331.16)" gradientUnits="userSpaceOnUse"/><radialGradient xlink:href="#f" id="p" cx="207.67" cy="108.1" r="41.1" fx="207.67" fy="108.1" gradientTransform="matrix(-1.249206 1.343263 -3.896837 -3.425693 880.5 194.9)" gradientUnits="userSpaceOnUse"/><radialGradient xlink:href="#g" id="r" cx="109.63" cy="135.86" r="71.46" fx="109.63" fy="135.86" gradientTransform="matrix(-1.936885 -1.043001 1.455731 -2.555422 290.53 838.68)" gradientUnits="userSpaceOnUse"/><radialGradient xlink:href="#h" id="j" cx="154.87" cy="145.97" r="71.46" fx="154.87" fy="145.97" gradientTransform="matrix(-.081402 -1.93722 2.926737 -.1162508 -215.13 632.86)" gradientUnits="userSpaceOnUse"/><filter id="q" width="1.1" height="1.12" x="-.05" y="-.06" color-interpolation-filters="sRGB"><feGaussianBlur stdDeviation="1.7"/></filter><filter id="k" width="1.03" height="1.02" x="-.02" y="-.01" color-interpolation-filters="sRGB"><feGaussianBlur stdDeviation=".24"/></filter><clipPath id="i" clipPathUnits="userSpaceOnUse"><path d="M371.38 193.24h-134.3v53.44h77.17a61.98 61.98 0 0 1-8.1 21.78 64.6 64.6 0 0 1-16.38 18.2c-17.74 13.5-38.42 16.26-52.78 16.26-36.28 0-67.28-23.29-79.29-54.93-.48-1.15-.8-2.33-1.2-3.5a81.12 81.12 0 0 1 .34-51.85c11.28-32.9 42.98-57.47 80.17-57.47 7.49 0 14.69.88 21.52 2.65a77.67 77.67 0 0 1 33.43 18.25l40.83-39.71c-24.84-22.62-57.22-36.32-95.84-36.32-30.88 0-59.39 9.55-82.75 25.7a140.25 140.25 0 0 0-44.97 50.98 134.47 134.47 0 0 0-15.1 62.3c0 22.49 5.35 43.63 15.1 62.33v.13a141.6 141.6 0 0 0 43.69 49.99 144.48 144.48 0 0 0 84.03 26.55c22.63 0 42.68-4.05 60.37-11.65a123.74 123.74 0 0 0 34.3-21.8 123.05 123.05 0 0 0 31.35-44.4c7.23-17.27 11.1-36.8 11.1-57.96 0-9.86-1-19.87-2.7-28.97Z"/></clipPath></defs><g clip-path="url(#i)" transform="matrix(.957922 0 0 .985255 -90.17 -78.86)"><path fill="url(#j)" d="M92.08 219.96c.14 22.14 6.5 44.98 16.11 63.42v.13c6.95 13.4 16.45 23.97 27.26 34.45l65.33-23.67c-12.36-6.23-14.25-10.05-23.1-17.02-9.06-9.07-15.8-19.48-20-31.68h-.18l.17-.13c-2.76-8.06-3.04-16.61-3.14-25.5Z" filter="url(#k)"/><path fill="url(#l)" d="M237.08 79.02c-6.45 22.53-3.98 44.43 0 57.17 7.46 0 14.64.88 21.45 2.64a77.66 77.66 0 0 1 33.43 18.25l41.88-40.72c-24.81-22.6-54.67-37.3-96.76-37.34Z" filter="url(#k)"/><path fill="url(#m)" d="M236.94 78.85c-31.67 0-60.9 9.8-84.87 26.36a145.53 145.53 0 0 0-24.33 21.15C125.84 144.1 142 165.9 174 165.73c15.53-17.94 38.5-29.55 64.06-29.55h.07l-1.05-57.33h-.14Z" filter="url(#k)"/><path fill="url(#n)" d="m341.48 226.38-28.27 19.28a61.98 61.98 0 0 1-8.11 21.79 64.6 64.6 0 0 1-16.37 18.2c-17.7 13.47-38.33 16.24-52.69 16.25-14.84 25.1-17.44 37.68 1.04 57.94 22.88-.02 43.16-4.12 61.05-11.8a125.4 125.4 0 0 0 34.76-22.1 124.7 124.7 0 0 0 31.77-45c7.33-17.5 11.24-37.28 11.24-58.73Z" filter="url(#k)"/><path fill="#3086ff" d="M235 191.21v57.5h136c1.2-7.88 5.15-18.07 5.15-26.5 0-9.86-1-21.9-2.68-31Z" filter="url(#k)"/><path fill="url(#o)" d="M128.39 124.33a138.56 138.56 0 0 0-21.25 30.36c-9.75 18.88-15.1 41.83-15.1 64.32 0 .32.03.63.04.95 4.32 8.22 59.66 6.65 62.45 0 0-.31-.04-.61-.04-.93 0-9.22 1.57-16.02 4.43-24.36a84.77 84.77 0 0 1 16.13-27.93c1.6-2.03 5.87-6.4 7.12-9.01.47-1-.86-1.56-.94-1.91-.08-.4-1.88-.08-2.28-.37-1.27-.93-3.8-1.42-5.33-1.85-3.28-.92-8.7-2.95-11.73-5.06-9.53-6.66-24.41-14.6-33.5-24.21Z" filter="url(#k)"/><path fill="url(#p)" d="M162.1 155.86c22.11 13.3 28.47-6.72 43.17-12.98L179.7 90.22c-9.4 3.92-18.3 8.8-26.54 14.5a141.42 141.42 0 0 0-32.18 30.72Z" filter="url(#q)"/><path fill="url(#r)" d="M171.1 290.22c-29.68 10.64-34.33 11.02-37.06 29.3a144.8 144.8 0 0 0 16.79 13.98c16 11.38 46.77 26.55 86.12 26.55h.13v-59.16H237c-14.74 0-26.51-3.85-38.59-10.53-2.97-1.65-8.37 2.78-11.12.8-3.78-2.73-12.9 2.35-16.18-.94Z" filter="url(#k)"/><path fill="url(#s)" d="M219.7 299.02v60c5.5.64 11.24 1.03 17.25 1.03 6.02 0 11.85-.31 17.52-.87v-59.75a105.12 105.12 0 0 1-17.48 1.46c-5.93 0-11.7-.69-17.29-1.87Z" filter="url(#k)" opacity=".5"/></g></svg>