<?xml version="1.0" encoding="UTF-8"?>
<svg id="Layer_1" xmlns="http://www.w3.org/2000/svg" version="1.1" viewBox="0 0 24 24">
  <!-- Generator: Adobe Illustrator 29.8.1, SVG Export Plug-In . SVG Version: 2.1.1 Build 2)  -->
  <defs>
    <style>
      .st0 {
        fill: #4d4d4d;
      }
    </style>
  </defs>
  <path class="st0" d="M23.5,9.8h-11.3v4.6h6.5c-.3,1.5-1.1,2.8-2.4,3.6-1.1.7-2.4,1.2-4,1.2-3.1,0-5.8-2.1-6.7-4.9h0,0c-.2-.7-.4-1.5-.4-2.3s.1-1.6.4-2.3c.9-2.8,3.6-4.9,6.7-4.9s3.3.6,4.6,1.8l3.4-3.4c-2.1-1.9-4.8-3.1-8-3.1C7.5,0,3.5,2.7,1.5,6.6c-.8,1.6-1.3,3.4-1.3,5.4s.5,3.8,1.3,5.4h0c2,3.9,6,6.6,10.7,6.6s6-1.1,7.9-2.9c2.3-2.1,3.6-5.2,3.6-8.8s0-1.7-.2-2.5h0Z"/>
</svg>