<?xml version="1.0" encoding="UTF-8"?>
<svg id="Layer_1" xmlns="http://www.w3.org/2000/svg" version="1.1" viewBox="0 0 512 512">
  <!-- Generator: Adobe Illustrator 29.8.1, SVG Export Plug-In . SVG Version: 2.1.1 Build 2)  -->
  <defs>
    <style>
      .st0 {
        fill: #4d4d4d;
      }
    </style>
  </defs>
  <path class="st0" d="M18.3,0c-4.8,0-9,1.8-12.7,5.4S0,13.3,0,18.3v475.4c0,5,1.9,9.2,5.6,12.9,3.7,3.6,8,5.4,12.7,5.4h475.4c4.8,0,9-1.8,12.7-5.4,3.7-3.6,5.6-7.9,5.6-12.9V18.3c0-5-1.9-9.2-5.6-12.9s-8-5.4-12.7-5.4H18.3ZM114.6,128h98.6l85.7,128v-128h98.6v256h-98.6l-85.7-128v128h-98.6V128Z"/>
</svg>