<?xml version="1.0" encoding="UTF-8"?>
<svg id="Layer_2" data-name="Layer 2" xmlns="http://www.w3.org/2000/svg" viewBox="0 0 61.88 61.85">
  <g id="Layer_1-2" data-name="Layer 1">
    <path d="M0,59.91C0,40.59,0,21.26,0,1.93c.04-.1,.09-.19,.13-.3C.4,.84,.94,.33,1.74,.08,1.86,.05,1.99,.03,2.11,0,21.35,0,40.59,0,59.82,0c.06,.02,.11,.04,.17,.05,.86,.15,1.42,.65,1.76,1.43,.05,.12,.08,.26,.12,.39V59.97s-.04,.05-.05,.07c-.04,.42-.26,.75-.54,1.06-.5,.54-1.12,.75-1.84,.75-18.99,0-37.98,0-56.97,0-.06,0-.12,0-.18,0-1.04-.03-1.88-.69-2.18-1.69-.03-.08-.08-.16-.11-.24ZM13.93,15.48c-.07,.39-.05,30.68,.01,30.88h11.86v-15.31c.13,.08,.2,.18,.27,.29,1.28,1.91,2.55,3.81,3.83,5.72,2.03,3.04,4.07,6.07,6.1,9.11,.1,.15,.19,.22,.38,.22,3.81,0,7.61,0,11.42,0,.08,0,.15-.01,.23-.02V15.5c-.45-.06-11.66-.04-11.9,.03v15.28c-.12-.08-.18-.18-.25-.28-3.31-4.94-6.62-9.88-9.93-14.83-.11-.17-.23-.24-.44-.24-3.77,0-7.53,0-11.3,0-.1,0-.2,0-.29,.01Z"/>
  </g>
</svg>