<svg xmlns="http://www.w3.org/2000/svg" viewBox="46 77.5 1908 1908" width="48" height="48">
  <defs>
    <path id="a" d="M 1191 237 L 1722 238 C 1767 238 1806 255 1838 287 C 1892 341 1882 411 1882 481 C 1883 527 1882 574 1882 620 C 1894 633 1891 645 1891 662 L 1891 714 L 1891 789 C 1891 801 1891 820 1890 832 C 1887 836 1886 837 1882 840 C 1883 942 1883 1044 1882 1146 L 1883 1427 L 1883 1593 C 1883 1622 1885 1662 1881 1690 C 1868 1770 1798 1824 1718 1824 C 1591 1824 1465 1824 1338 1824 L 1228 1824 C 1198 1824 1167 1826 1138 1820 C 1088 1810 1053 1785 1028 1741 C 998 1690 1006 1636 1005 1580 C 993 1581 981 1583 970 1585 C 945 1627 915 1645 867 1653 C 862 1653 858 1654 853 1654 C 814 1655 786 1643 758 1616 C 647 1636 536 1653 425 1670 C 388 1675 352 1682 316 1687 C 293 1690 270 1683 252 1669 C 225 1646 223 1612 218 1580 L 209 1518 L 178 1312 L 135 1031 L 117 919 C 115 901 111 883 110 865 C 106 832 126 803 156 791 C 169 786 179 786 193 785 C 201 763 210 756 232 750 C 226 690 244 690 295 677 C 428 644 586 647 694 742 C 705 751 714 762 724 773 C 727 766 731 759 735 752 C 757 716 789 683 823 658 C 876 617 942 592 1006 575 L 1006 544 C 1003 542 1001 539 998 537 C 998 520 997 497 999 481 C 1001 478 1003 475 1006 472 C 1007 403 997 340 1052 286 C 1094 243 1134 238 1191 237 Z" />
    <path id="b" d="M 1029 937 C 1030 898 1029 858 1029 819 L 1029 536 C 1029 503 1028 470 1029 436 C 1029 414 1028 390 1033 367 C 1038 342 1051 319 1070 300 C 1119 253 1161 261 1224 261 C 1274 260 1325 260 1376 261 L 1611 260 C 1645 260 1680 260 1715 261 C 1755 261 1794 273 1822 303 C 1842 324 1854 352 1857 380 C 1860 402 1859 426 1859 448 L 1859 547 C 1860 652 1860 756 1859 861 L 1859 1388 L 1859 1564 C 1859 1598 1859 1631 1859 1665 C 1859 1704 1843 1738 1816 1765 C 1799 1781 1765 1796 1741 1799 C 1716 1803 1683 1802 1657 1802 L 1520 1801 L 1296 1801 C 1253 1801 1210 1802 1166 1801 C 1112 1799 1065 1770 1042 1719 C 1025 1681 1029 1652 1029 1612 L 1029 1536 L 1029 1225 C 1029 1210 1031 1136 1028 1128 C 1020 1133 1007 1138 1006 1149 C 1006 1174 1006 1200 1006 1225 L 1006 1379 C 939 1418 901 1454 864 1522 L 788 1082 L 752 873 C 749 855 739 810 741 792 C 742 787 756 762 760 756 C 813 674 906 623 999 601 C 998 635 998 682 999 717 L 1006 727 C 1006 735 1006 743 1006 751 C 1004 754 1001 758 999 761 C 998 794 998 841 999 874 C 1001 877 1004 880 1006 883 C 1006 900 1005 932 1007 947 C 1014 945 1021 940 1029 937 Z M 1029 937 C 1030 898 1029 858 1029 819 L 1029 536 C 1029 503 1028 470 1029 436 C 1029 414 1028 390 1033 367 C 1038 342 1051 319 1070 300 C 1119 253 1161 261 1224 261 C 1274 260 1325 260 1376 261 L 1611 260 C 1645 260 1680 260 1715 261 C 1755 261 1794 273 1822 303 C 1842 324 1854 352 1857 380 C 1860 402 1859 426 1859 448 L 1859 547 C 1860 652 1860 756 1859 861 L 1859 1388 L 1859 1564 C 1859 1598 1859 1631 1859 1665 C 1859 1704 1843 1738 1816 1765 C 1799 1781 1765 1796 1741 1799 C 1716 1803 1683 1802 1657 1802 L 1520 1801 L 1296 1801 C 1253 1801 1210 1802 1166 1801 C 1112 1799 1065 1770 1042 1719 C 1025 1681 1029 1652 1029 1612 L 1029 1536 L 1029 1225 C 1029 1210 1031 1136 1028 1128 C 1038 1121 1059 1114 1071 1109 C 1079 1106 1083 1105 1092 1103 C 1092 1110 1092 1118 1092 1124 C 1093 1163 1092 1210 1092 1249 L 1092 1523 L 1092 1608 C 1092 1624 1092 1640 1093 1656 C 1093 1696 1119 1734 1160 1737 C 1186 1739 1216 1738 1242 1738 L 1400 1738 L 1619 1738 C 1653 1738 1688 1739 1722 1738 C 1761 1737 1793 1706 1795 1667 C 1796 1642 1796 1617 1796 1592 L 1796 1465 L 1796 1076 L 1795 629 L 1796 483 C 1796 453 1796 423 1795 394 C 1793 374 1785 355 1769 341 C 1744 319 1709 324 1678 323 C 1660 324 1657 317 1652 338 C 1638 395 1582 387 1539 387 L 1442 387 L 1349 387 C 1307 387 1258 394 1241 347 C 1238 340 1236 332 1234 324 C 1229 324 1224 323 1219 323 C 1184 322 1142 318 1116 345 C 1087 374 1092 413 1092 451 L 1092 543 L 1092 919 C 1084 920 1079 921 1072 923 Z" />
    <path id="c" d="M 1072 923 C 1069 920 1070 911 1070 906 L 1070 556 L 1070 453 C 1070 429 1068 403 1072 380 C 1076 361 1085 344 1099 330 C 1122 306 1148 301 1181 301 C 1195 301 1232 299 1244 302 C 1246 303 1249 304 1251 306 C 1267 322 1251 362 1299 364 C 1328 365 1358 364 1388 364 C 1429 364 1471 365 1512 364 C 1540 364 1570 367 1598 364 C 1605 363 1612 360 1618 355 C 1639 334 1619 301 1659 301 C 1671 301 1683 301 1696 301 C 1732 301 1762 302 1789 329 C 1820 360 1819 400 1819 440 L 1819 1306 L 1819 1556 L 1819 1627 C 1819 1653 1821 1679 1810 1703 C 1797 1731 1769 1755 1738 1759 C 1717 1762 1690 1761 1668 1761 L 1555 1761 L 1304 1761 C 1263 1761 1223 1761 1182 1761 C 1144 1761 1124 1755 1096 1727 C 1084 1715 1074 1694 1072 1677 C 1069 1651 1070 1620 1070 1592 L 1070 1456 L 1070 1216 C 1070 1202 1069 1114 1071 1110 L 1071 1109 C 1079 1106 1083 1105 1092 1103 C 1092 1110 1092 1118 1092 1124 C 1093 1163 1092 1210 1092 1249 L 1092 1523 L 1092 1608 C 1092 1624 1092 1640 1093 1656 C 1093 1696 1119 1734 1160 1737 C 1186 1739 1216 1738 1242 1738 L 1400 1738 L 1619 1738 C 1653 1738 1688 1739 1722 1738 C 1761 1737 1793 1706 1795 1667 C 1796 1642 1796 1617 1796 1592 L 1796 1465 L 1796 1076 L 1795 629 L 1796 483 C 1796 453 1796 423 1795 394 C 1793 374 1785 355 1769 341 C 1744 319 1709 324 1678 323 C 1660 324 1657 317 1652 338 C 1638 395 1582 387 1539 387 L 1442 387 L 1349 387 C 1307 387 1258 394 1241 347 C 1238 340 1236 332 1234 324 C 1229 324 1224 323 1219 323 C 1184 322 1142 318 1116 345 C 1087 374 1092 413 1092 451 L 1092 543 L 1092 919 C 1084 920 1079 921 1072 923 Z" />
    <path id="d" d="M 1071 1109 C 1079 1106 1083 1105 1092 1103 C 1092 1110 1092 1118 1092 1124 C 1091 1127 1091 1132 1090 1136 C 1090 1121 1090 1124 1091 1112 L 1090 1111 C 1082 1110 1074 1106 1071 1116 L 1072 1113 C 1071 1111 1071 1112 1071 1110 L 1071 1109 Z" />
    <path id="e" d="M 1155 944 C 1155 932 1152 887 1159 880 C 1162 878 1166 876 1169 877 C 1190 880 1278 959 1301 974 C 1317 984 1336 999 1314 1015 C 1269 1052 1225 1091 1178 1127 C 1176 1128 1169 1130 1166 1129 C 1149 1123 1155 1076 1155 1061 C 1036 1072 932 1126 886 1242 C 881 1255 874 1290 854 1268 C 849 1234 851 1198 858 1165 C 861 1152 867 1139 869 1127 C 867 1118 875 1106 879 1098 C 923 1024 997 973 1081 953 C 1105 948 1130 945 1155 944 Z" />
    <path id="f" d="M 1393 314 C 1395 314 1397 314 1399 314 C 1429 313 1460 314 1489 314 C 1497 315 1502 327 1489 335 C 1461 337 1429 334 1400 336 C 1386 337 1380 324 1393 314 Z M 1529 312 C 1534 310 1539 311 1543 314 C 1546 318 1548 323 1547 327 C 1546 332 1542 336 1537 338 C 1530 340 1523 336 1521 329 C 1518 322 1522 314 1529 312 Z M 1155 944 C 1155 932 1152 887 1159 880 C 1162 878 1166 876 1169 877 C 1190 880 1278 959 1301 974 C 1317 984 1336 999 1314 1015 C 1269 1052 1225 1091 1178 1127 C 1176 1128 1169 1130 1166 1129 C 1149 1123 1155 1076 1155 1061 C 1036 1072 932 1126 886 1242 C 881 1255 874 1290 854 1268 C 862 1229 886 1187 911 1156 C 970 1084 1056 1048 1147 1040 C 1155 1039 1167 1037 1174 1043 C 1178 1051 1176 1092 1176 1102 C 1198 1085 1222 1064 1244 1045 C 1257 1035 1288 1010 1298 999 C 1290 990 1261 969 1250 961 C 1228 945 1198 918 1176 905 C 1176 915 1177 956 1174 962 C 1167 965 1117 968 1102 971 C 1025 985 955 1027 909 1092 C 902 1102 890 1131 880 1133 C 876 1132 873 1129 869 1127 C 867 1118 875 1106 879 1098 C 923 1024 997 973 1081 953 C 1105 948 1130 945 1155 944 Z" />
    <path id="g" d="M 433 680 C 493 677 582 694 635 726 C 659 741 685 760 704 782 C 709 788 714 792 716 800 C 720 814 722 828 724 843 L 735 908 L 769 1103 L 812 1356 C 819 1393 826 1431 832 1469 C 835 1486 840 1508 842 1524 C 794 1481 756 1464 695 1448 C 599 1428 504 1450 413 1480 C 389 1488 370 1488 365 1457 C 358 1416 353 1374 347 1333 L 303 1052 L 271 844 L 259 770 C 257 756 253 742 253 729 C 253 723 253 717 257 713 C 270 700 359 687 381 684 C 398 682 415 681 433 680 Z" />
    <path id="h" d="M 230 772 L 233 772 C 236 774 237 775 238 780 C 241 797 244 816 246 834 L 265 957 L 318 1291 C 323 1330 329 1368 336 1407 C 339 1430 343 1465 352 1485 C 358 1498 378 1509 391 1508 C 414 1504 439 1496 461 1488 C 538 1464 621 1453 700 1472 C 747 1483 816 1516 842 1561 C 826 1556 809 1551 793 1546 C 678 1514 535 1538 422 1570 C 404 1575 386 1580 368 1586 C 355 1591 336 1598 324 1600 L 322 1601 C 301 1594 304 1578 300 1558 C 293 1515 287 1471 281 1427 L 236 1137 L 208 955 C 203 928 194 876 192 851 C 199 839 206 837 216 828 L 217 827 C 217 804 207 785 230 772 Z" />
    <path id="i" d="M 191 808 C 193 808 192 808 194 809 C 194 822 165 828 171 870 C 180 927 189 985 198 1042 L 256 1415 L 273 1523 C 275 1539 281 1586 286 1598 C 290 1607 298 1615 308 1618 C 332 1627 365 1610 389 1603 C 423 1593 456 1584 490 1576 C 565 1559 636 1549 713 1555 C 733 1556 752 1559 772 1564 C 805 1572 836 1587 870 1579 C 902 1572 917 1553 944 1538 C 960 1528 987 1516 1005 1508 C 1005 1524 1006 1541 1005 1558 C 994 1559 983 1560 972 1562 C 944 1567 951 1579 934 1597 C 902 1631 842 1644 800 1621 C 787 1613 778 1603 767 1594 C 755 1594 731 1598 718 1600 L 635 1614 L 326 1664 C 305 1667 288 1667 269 1653 C 247 1637 247 1615 243 1590 C 241 1575 239 1561 237 1547 C 226 1478 215 1410 205 1342 L 152 997 C 146 957 140 917 133 878 C 126 830 146 813 191 808 Z" />
    <path id="j" d="M 1005 1404 C 1007 1410 1006 1473 1006 1484 C 974 1499 942 1509 913 1530 C 903 1537 892 1545 882 1552 L 881 1552 L 880 1551 C 880 1543 888 1529 891 1521 C 916 1470 959 1436 1005 1404 Z" />
  </defs>

  <!-- 1. Draw all purely filled layers first -->
  <use href="#a" fill="#2d3a4b" />
  <use href="#b" fill="#fff" />
  <use href="#c" fill="#2d3a4b" />
  <use href="#d" fill="#263041" />
  <use href="#e" fill="#50647d" />
  <use href="#f" fill="#2d3a4b" />
  <g fill="#fff">
    <use href="#g" />
    <use href="#h" />
    <use href="#i" />
    <use href="#j" />
  </g>

  <!-- 2. Draw all strictly bordered layers completely on top -->
  <g fill="none" stroke="#141e2d" stroke-width="40" stroke-linejoin="round">
    <use href="#a" />
    <use href="#c" />
    <use href="#g" />
    <use href="#h" />
    <use href="#i" />
  </g>
</svg>