<?xml version="1.0" encoding="UTF-8"?>
<svg id="Layer_2" data-name="Layer 2" xmlns="http://www.w3.org/2000/svg" viewBox="0 0 44.76 46.43">
  <g id="Layer_1-2" data-name="Layer 1">
    <g id="layer1">
      <g id="g36960">
        <path id="path4077" d="M10.45,23.6h-1.46v1.85h1.46v-1.85Zm-6.39,13.99c2.11,2.79,5.82,2.15,5.82,2.15,.45-3.94-1.14-5.22-1.14-5.22-.99,2.09,.51,4.62,.51,4.62-2.25-2.08-5.18-1.55-5.18-1.55M7.91,15.95l-.71-.66c-1.71,.44-2.96,1.96-2.96,1.96,.8-1.93,.37-3.73,0-4.68l-.52-.42c-1.49,2.82,.16,5.91,.16,5.91,2.29-.55,3.45-1.45,4.02-2.1m4.79,25.73c-.08-1.22-.3-2.12-.57-2.83h-1.41c.38,1.34,1.25,2.35,1.25,2.35-2.58-1.66-5.37-.63-5.37-.63,2.56,2.38,6.1,1.11,6.1,1.11m-.35-20.9v16.06h7.96c.9,.02,1.83,.73,1.83,.73v-12.85c-4.82-.1-5.79-3.94-5.79-3.94,0,0-3.99,0-3.99,0Zm3.77,9.76h-.6v3.11h-.75v-3.11h-.59v-.71h1.94v.71Zm3.75,3.17c-.21,0-.48-.06-.65-.19v-.72c.18,.12,.35,.2,.57,.2,.24,0,.44-.16,.44-.42,0-.29-.23-.41-.45-.56-.44-.29-.7-.58-.7-1.13,0-.6,.35-1.13,1-1.13,.24,0,.46,.07,.67,.19v.74c-.15-.13-.34-.24-.55-.24-.23,0-.38,.14-.38,.38,0,.63,1.15,.66,1.15,1.7,0,.68-.39,1.19-1.1,1.19m.56-8.52h.75v3.82h-.75v-3.82Zm-2.37,0h.76c.48,0,1.34,.05,1.34,1.09,0,.42-.17,.78-.54,.99l.66,1.74h-.8l-.66-1.76h-.01v1.76h-.75v-3.82h0Zm.8,8.46h-.8l-.14-.64h-.77l-.14,.64h-.75l.89-3.82h.79l.92,3.82h0Zm-.95-8.46v.71h-.77v.83h.67v.71h-.67v.86h.77v.71h-1.53v-3.81l-1.06,3.81h-.62l-1.1-3.82h.81l.46,1.83c.07,.22,.09,.44,.14,.65h.01c.04-.22,.06-.44,.12-.66l.46-1.82h2.31Zm12.92-12.71l-2.38,2.59,.02,4.15s-.07,.68-.22,1.02h1.53l4.38-4.38-3.33-3.38h0ZM10.5,32.34h-1.46v1.85h1.46v-1.85Zm2.38-17.94l3.07,3.02v-2.33l-3.07-3.07v2.38Zm-2.42,25.85c.19,0,.35-.16,.35-.35s-.16-.35-.35-.35-.34,.16-.34,.35,.16,.35,.34,.35M4.91,15.54c0,.19,.16,.34,.35,.34s.34-.16,.34-.34-.15-.35-.34-.35-.35,.16-.35,.35m5.57,22.18c.01,.16,.04-.03,.04-.03v-2.26l-.37,.41c.21,.57,.28,1.39,.33,1.88m5.46-19.15v-.47l-2.26-2.26h-5.3l2.99,2.74h4.57ZM4.44,12.13s-.2-1.24,1.09-3.09H1.18s.19,.51,3.26,3.09M.67,18.93c-.78,3.41,2.09,5.84,2.09,5.84,3.31-2.19,3.26-4.23,3.26-4.23-2.24,.58-3.21,3.36-3.21,3.36,.15-3.07-2.14-4.96-2.14-4.96m2.57,1.58c.67-2.99-1.25-5.26-1.25-5.26-1.36,3.22,1.05,6.11,1.05,6.11,3.64-1.58,3.95-3.6,3.95-3.6-2.31,.19-3.75,2.75-3.75,2.75m.31,1.43c0-.19-.16-.35-.35-.35s-.35,.16-.35,.35,.16,.35,.35,.35,.35-.16,.35-.35m17.74,17.56h2.28s.15-.99,.8-.99h9.48V21.82l-.94-.99v16.53h-8.49s-1.14,.1-2.04,1.19c0,0-.69-1.04-2.18-1.14H11.9V20.97l-1.02,1.02v16.51h9.26s1.14,.05,1.14,.99M6.42,8.84c-2.38,2.56-1.11,6.1-1.11,6.1,3.96-.24,4.94-2.03,4.94-2.03-2.23-.61-4.46,1.3-4.46,1.3,1.66-2.58,.63-5.37,.63-5.37m11.18,22.55l-.09-.58h-.01l-.08,.58-.16,1.02h.53l-.19-1.02h0Zm21.9,7.18c.58-.36,1.13-.85,1.58-1.51,0,0-1.25-.16-2.72,.33l1.14,1.18Zm2.41-15.14s-1.04-2.75-3.29-3.28c0,0,0,2.05,3.36,4.16,0,0,2.81-2.5,1.96-5.89,0,0-2.24,1.95-2.02,5.01m-4.22,8.21s-1.31,1.57-.1,5.34c0,0,3.76-.11,5.28-3.25,0,0-2.97,.05-4.77,2.54,0,0,.97-2.77-.41-4.63m4.13-4.8s-.55-2.89-2.67-3.8c0,0-.36,2.01,2.59,4.68,0,0,3.21-1.97,2.95-5.46,0,0-2.55,1.53-2.86,4.59m-2.65-.87s-.7,1.92,1.74,5.06c0,0,3.5-1.39,3.85-4.87,0,0-2.77,1.07-3.61,4.02,0,0-.04-2.94-1.97-4.21m2.23,2.58c.19,0,.35-.16,.35-.35s-.16-.34-.35-.34-.35,.16-.35,.34,.16,.35,.35,.35m-2.03,5.93c0-.19-.15-.35-.34-.35s-.35,.16-.35,.35,.16,.35,.35,.35,.34-.16,.34-.35M10.06,13.83h0c-.14,.11-1.1,.99-2.57,1.17l.5,.47,5.26-.02-1.63-1.63h0l-.82-.83s-.59,.75-.73,.84M30.38,30.84h-.01l-.08,.58-.16,1.02h.53l-.19-1.02-.08-.58h0Zm-10.96-4.55c0-.27-.13-.5-.51-.48h-.1v1.02h.13c.34,0,.48-.23,.48-.54m3.24-1.66v12.94s.73-.73,1.75-.73h8.03V20.78h-4.33s-1.23,3.79-5.45,3.84m.97,.59h.75v3.11h.79v.71h-1.54v-3.82Zm2.45,8.47l-.18-2.75h-.01l-.12,.94-.32,1.81h-.58l-.37-1.83-.13-.85v-.07h-.01l-.11,2.75h-.81l.33-3.82h.99l.37,2.25h0l.3-2.25h1.01l.4,3.82h-.78Zm4.83,0l-.14-.64h-.77l-.14,.64h-.75l.88-3.82h.8l.92,3.82h-.81Zm-2.3-8.47h.85l.22,.53c.06,.19,.14,.38,.18,.58h.01c.04-.2,.1-.39,.17-.58l.23-.53h.81l-.81,1.85,.88,1.97h-.88l-.24-.61c-.07-.19-.12-.38-.17-.57h0c-.06,.19-.1,.38-.17,.57l-.22,.61h-.85l.81-1.97-.81-1.85h0Zm.2,4.65v.71h-.77v.83h.67v.71h-.67v.86h.78v.71h-1.53v-3.82h1.52Zm-1.94-1.46c.37,0,.37-.28,.37-.56v-2.63h.75v2.78c0,.41-.05,1.09-1.13,1.09-.7,0-1.12-.33-1.12-1.04v-2.83h.75v2.47c0,.29-.04,.72,.38,.72M12.41,11.59s-.34,.5-1.64,.78l1.64,1.52s0-2.3,0-2.3Zm4.17,6.64c0,4.04,2.53,5.9,5.65,5.9s5.66-1.86,5.66-5.9V6.72h-11.32s0,7.48,0,11.52m2.73-8.16v-1.7h5.31v2.43h1.75v1.75h-1.7v.78h1.7v1.9h-1.7v5.7h-1.46l-2.02-2.02-1.85,1.85-1.34-1.34,3.07-3.07,1.58,1.58v-7.86h-3.33Zm-7.56,8.92l1.35,1.19h3.05c-.15-.24-.1-1.17-.1-1.17,0,0-4.3-.02-4.3-.02Zm24.52,15.23s-.25,.26-.33,.65l.73,.76c-.04-.47-.16-.96-.41-1.41m-28.82,3.11c1.13-3.8-.22-5.34-.22-5.34-1.34,1.88-.3,4.63-.3,4.63-1.86-2.44-4.83-2.43-4.83-2.43,1.59,3.11,5.36,3.13,5.36,3.13m-.19-25.21c3.94,.45,5.22-1.15,5.22-1.15-2.09-.99-4.62,.51-4.62,.51,2.08-2.25,1.55-5.18,1.55-5.18-2.79,2.11-2.15,5.82-2.15,5.82m8.25,27.89c.19,2.31,2.75,3.75,2.75,3.75-2.99-.67-5.26,1.25-5.26,1.25,3.22,1.36,6.12-1.05,6.12-1.05-1.58-3.64-3.6-3.95-3.6-3.95m-10.05-5.46c1.77-3.55,.71-5.29,.71-5.29-1.65,1.62-1.1,4.51-1.1,4.51-1.41-2.73-4.34-3.23-4.34-3.23,1.03,3.34,4.73,4.01,4.73,4.01m7.95,4.31h-.49c-.03,2.18,2.07,3.9,2.07,3.9-2.83-1.19-5.4,.31-5.4,.31,2.94,1.9,6.2,.03,6.2,.03-.64-2.65-1.75-3.79-2.39-4.24m-7.31,1.65s.54-.32,1.32-.44l-.87-.21-.08,.11c.05-.07,.08-.11,.08-.11l-3.85,4.05s-.44,.63-.02,1.05c0,0,.39,.32,.92-.05l3.75-3.28c-.38-.2-1.21-.89-1.25-1.13m-2.12-9.04c2.36-3.19,1.61-5.09,1.61-5.09-1.9,1.31-1.87,4.26-1.87,4.26C2.83,27.69,.03,26.69,.03,26.69c.43,3.47,3.96,4.77,3.96,4.77m1.98-22.83L1.41,4.07s-1.91,1.37-.42,4.56H5.97Zm2.06-1.66l-2.68-2.71c-1.66-1.66-3.63-.56-3.63-.56l5.29,5.26c.35-1.35,1.03-1.99,1.03-1.99M3.09,28.65c0,.19,.16,.35,.35,.35s.34-.16,.34-.35-.15-.35-.34-.35-.35,.16-.35,.35m0-.48c2.88-2.73,2.47-4.74,2.47-4.74-2.1,.96-2.58,3.87-2.58,3.87C2.59,24.25,0,22.78,0,22.78c-.17,3.49,3.08,5.39,3.08,5.39m2.53,6.72c0,.19,.16,.35,.35,.35s.35-.16,.35-.35-.16-.35-.35-.35-.35,.16-.35,.35m29.02,5.06c.19,0,.35-.16,.35-.35s-.16-.35-.35-.35-.35,.16-.35,.35,.16,.35,.35,.35m1.84-.45l-1.22-.99c.03,.31,.07,.64,.12,.99,0,0,.44,.05,1.1,0m3.41-6.14s.48-2.9-1.21-4.49c0,0-1.02,1.77,.83,5.28,0,0,3.69-.76,4.64-4.12,0,0-2.92,.57-4.26,3.33m-23.13,9.68c0-.19-.16-.35-.35-.35s-.35,.16-.35,.35,.16,.35,.35,.35,.35-.16,.35-.35m16.42-2.09s.75-.9,1.12-2.17l-1.41-.02c-.22,.69-.39,1.57-.43,2.69,0,0,3.05,1.01,5.49-.75l-.94-.76c-1.04-.06-2.47,.1-3.82,1.01m1.03-5.62v1.85l8.27,6.86h1.65l-8.42-8.71h-1.51Zm-12.12,7.98v.86c-.4-.63-1.96-2.91-3.72-3.02,0,0,.6,2.04,3.24,3.24,0,0-3.31,.22-4.66,2.03,0,0,2.88,.26,5.14-1.98v1.41h.88v-2.53h-.88Zm1.46,1.07c2.63-1.22,3.21-3.26,3.21-3.26-2.04,.14-3.8,3.21-3.8,3.21,2.29,2.33,5.26,2.04,5.26,2.04-1.36-1.8-4.67-2-4.67-2m3.4-.72s2.53-1.5,2.66-3.81c0,0-2.01,.36-3.51,4.03,0,0,2.95,2.33,6.14,.9,0,0-2.31-1.87-5.29-1.13m3.24-1.08s1.96-1.69,1.98-3.79l-.7,.03c-.63,.56-1.56,1.74-2.08,4.13,0,0,3.31,1.79,6.2-.18,0,0-2.6-1.44-5.4-.19m-1.74,.33c0,.19,.16,.35,.35,.35s.35-.16,.35-.35-.16-.35-.35-.35-.35,.16-.35,.35m12.26-25.29s1.79-3.31-.18-6.2c0,0-1.44,2.6-.19,5.4,0,0-1.91-2.23-4.21-1.96,0,0,.7,1.92,4.58,2.76m-8.42-7.74l1.05-1.09c-.89-.21-2.57-.51-3.93,.51,0,0,.7,.79,2.88,.58m6.98,5.62c.19,0,.35-.16,.35-.35s-.16-.35-.35-.35-.35,.16-.35,.35,.16,.35,.35,.35m2.37,5.41s2.34-2.95,.9-6.14c0,0-1.87,2.31-1.12,5.29,0,0-1.5-2.53-3.81-2.66,0,0,.36,2.01,4.03,3.51m-5.05-16.62c1.09,.54,1.97-.03,1.97-.03,1.22-.6,2.1,.23,2.1,.23,.85,.66,.71,1.54,.71,1.54,0,.67-.19,.72-.19,.72-.41,.28-.3-.19-.3-.19,.01,0,.09-.33,.09-.33,.16-1.51-1.2-1.73-1.2-1.73-1.44-.25-1.8,1.08-1.8,1.08-.09,.37-.1,.69-.06,.98l-1.8-1.8,.08,1.52,4.02,4.01h1.44l-1.46-1.46c.77,.24,1.44,.27,1.44,.27,2.05-.13,2.27-2.09,2.27-2.09,.54-2.05-1.4-3.7-1.4-3.7-1.3-1.11-3.26-1.2-3.26-1.2-2.79-.32-3.78-2.1-3.78-2.1-.33,.81-.24,2.01-.24,2.01,.19,1.85,1.36,2.28,1.36,2.28m4.56,17.19c0,.19,.16,.35,.35,.35s.35-.16,.35-.35-.16-.35-.35-.35-.35,.16-.35,.35m-7.61-12.95l.85-.86c-.36-1.21-1.09-2.68-2.9-3.55,0,0-.08,2.6,2.05,4.41m2.13,23.98h-1.46v1.85h1.46v-1.85Zm1.13-18.32c.64,.18,1.44,.32,2.4,.36,0,0,.44-1.31,.25-2.9l-1.27,1.21c.14,.32,.31,.64,.52,.96,0,0-.35-.29-.91-.6l-1,.96h0Zm-27.74-3.95c0,.19,.16,.35,.35,.35s.35-.16,.35-.35-.16-.35-.35-.35-.35,.16-.35,.35m30.54,.42l-3.75-3.75-3.36,3.65,3.6,3.55,3.5-3.46h0Zm-7.95,.12l-.75,.9,4.09,4.09,.83-.83-4.16-4.16Zm3.94,12.68h-1.46v1.85h1.46v-1.85ZM18.09,5.79s1.15,.76,3.17-.63c0,0-2.5-1.03-3.17,.63m13.02,1.31s-1.14-.34-2.57,.14v1.31c.87-.02,1.76-.23,3.36-1.08,0,0-.76-3.69-4.12-4.63,0,0,.57,2.92,3.33,4.26m-15.07,1.63l.03-1.27c-1.42-.42-2.85-.14-2.85-.14,2.73-1.41,3.23-4.34,3.23-4.34-3.34,1.03-4.01,4.73-4.01,4.73,1.54,.77,2.74,1,3.6,1.02m-1.05,.74c-1.89-1.34-4.64-.3-4.64-.3,2.44-1.86,2.43-4.83,2.43-4.83-3.11,1.6-3.13,5.36-3.13,5.36,3.8,1.13,5.34-.22,5.34-.22m-.22-2.79c0,.19,.16,.35,.35,.35s.35-.16,.35-.35-.16-.35-.35-.35-.35,.16-.35,.35m.84-.37l2.62-.04c-.81-.49-1.7-.47-1.7-.47,2.93-.91,3.77-3.52,3.77-3.52-3.47,.43-4.77,3.96-4.77,3.96t.09,.07m13.97,.18c0-.19-.15-.35-.34-.35s-.35,.16-.35,.35,.16,.35,.35,.35,.34-.16,.34-.35m-1.84-.69s-.89-.02-1.7,.47l2.62,.04s.05-.03,.09-.07c0,0-1.3-3.53-4.77-3.96,0,0,.84,2.61,3.77,3.52m-5.63-.4c.26,0,.46-.21,.46-.47s-.21-.46-.46-.46-.47,.21-.47,.46,.21,.47,.47,.47m4.06,.24c-.73-1.63-3.19-.51-3.19-.51,2.07,1.31,3.19,.51,3.19,.51"/>
      </g>
    </g>
  </g>
</svg>