<?xml version="1.0" encoding="utf-8"?>
<!-- Generator: Adobe Illustrator 25.2.3, SVG Export Plug-In . SVG Version: 6.00 Build 0)  -->
<svg version="1.1" id="레이어_1" xmlns="http://www.w3.org/2000/svg" xmlns:xlink="http://www.w3.org/1999/xlink" x="0px"
	 y="0px" viewBox="0 0 1024 640" style="enable-background:new 0 0 1024 640;" xml:space="preserve">
<g>
	<g>
		<path d="M927.1,675.4L927.1,675.4c-0.4-5.3-0.8-10.7-1-15.9c-0.3-6.3-0.6-13.4-0.6-20.3c0-8.9-0.8-18-2.5-27.1
			c-0.6-3.6-1-7.3-1.3-10.9l-0.4-3.4c-0.3-3.1-0.5-6.2-0.7-9.2V588v-0.2c-0.1-1.3-0.2-2.6-0.5-3.8c-1.4-5.4-1.8-11-2.2-16.4v-0.1
			c0-1.1-0.1-2.3-0.2-3.4c-0.4-5.7-0.7-11.5-0.9-17.2l-0.1-1c-0.1-1.4-0.2-2.9-0.2-4.3c-0.1-1.5-0.2-2.9-0.3-4.4l-0.3-5.1
			c-0.2-2-0.3-4-0.4-6v-0.2h-0.2h-1.2c-0.8,0-1.5,0-2.2,0.1c-5.1,0.8-10.5,1.2-17.7,1.3c-3.6,0-7.2,0.4-10.8,0.7l-2,0.2l-2.6,0.3
			c-5.3,0.5-10.5,1-15.7,1.5c-2.3,0.2-4.7,0.4-7,0.7c-2.3,0.2-4.6,0.4-6.9,0.6c-2,0.2-3.9,0.4-5.8,0.6c-1.9,0.2-3.8,0.3-5.8,0.5
			l-4.3,0.4c-6.2,0.6-12.6,1.2-18.9,1.8c-4.9,0.5-10.1,0.7-15.9,0.7c-6.7,0-13.2-0.3-18.2-0.6c-15.2-0.9-28.1-1.5-39.4-1.8
			c-3.9-0.1-8.1-0.1-13.6-0.1c-2.3,0-4.5,0-6.8,0c-2.2,0-4.5,0-6.7,0H703c-0.8,0-1.7,0-2.5-0.1c-1.5-0.2-2.6-1.4-2.6-2.8
			c0-1.3,1-2.4,2.4-2.7c0.6-0.1,1.1-0.1,1.6-0.1c7.3,0.1,14.8,0.2,22.2,0.2c11,0,22.1,0.1,33.2,0.3c4.4,0.1,9.1,0.4,14.5,0.8
			c1,0.1,2,0.2,3,0.2c3.2,0.2,6.5,0.5,9.7,0.6c5.3,0.2,10,0.4,14.2,0.4c6.4,0,12.1-0.3,17.4-0.9c6.8-0.7,14.2-1.4,22-2.1
			c2.5-0.3,4.8-0.5,7.4-0.7c3.9-0.3,7.9-0.7,11.7-1.1c7.1-0.7,14.6-1.4,21.7-2.1l1.7-0.1c3.1-0.2,6.2-0.4,9.2-0.6l9.1-0.6
			c3.5-0.2,6.8-0.5,10.4-0.9l2.6-0.2l3.2-0.3v-0.1c2.9-16.2,5.7-32.3,8.6-48.4c4.4-25,8.8-49.9,13.2-74.8v-0.2h-0.2
			c-1,0-4-0.1-9-0.1c-39.2,0-204.5,1.7-216.1,2.4h-0.1v0.1c-0.1,0.3-0.2,0.6-0.3,0.9s-0.1,0.5-0.2,0.8c-5.5,23.3-11.3,48.2-17,72.7
			l-3.2,13.8c-0.7,2.9-1.9,5.7-3.3,8.5c-0.6,1.2-1.2,2.5-1.7,3.7c-0.6,1.3-0.9,2.5-0.9,3.5c-0.6,31.5-1.2,65.1-1.7,97.3
			c0,0.9,0,1.7,0,2.6c0,0.9,0,1.8,0,2.6c-0.1,3.2-0.2,6.8-0.2,10.4c0,2.3,0.1,4.7,0.3,7.2c0.1,0.4,0.1,0.8,0.1,1.3
			c0,0.4,0,0.8,0.1,1.3v0.2h0.3c0.4,0.1,0.7,0.1,1,0.1c0.2,0,0.3,0,0.5,0c1.7-0.1,3.5-0.1,5.3-0.1c15.1,0,30.1,2.2,44.2,4.4
			c11.6,1.8,21.1,2.7,29.8,2.7c4.7,0,9.5-0.1,14.3-0.1s9.6,0,14.3,0.1c0.3,0,0.7,0,1,0c7.5,0,14.7-1.1,21.6-2.1
			c6.5-1,13.2-1.8,19.6-2.6l2.3-0.3c1-0.2,1.9-0.3,2.9-0.4c1-0.1,2-0.3,2.9-0.4c3.4-0.5,7.3-1,11.2-1.3c2.2-0.2,4.3-0.3,6.4-0.3
			c1.5,0,3.1,0,4.7-0.1l0,0c2,0,3.8-0.1,5.7-0.2h0.3c1-0.1,2-0.1,3-0.1s2,0,3-0.1h1.8c2.2,0,4.8,0,7.1,0.2c1.2,0.1,2.5,0.1,3.8,0.1
			c3.8,0,7.4-0.4,10.5-0.7c0.8-0.1,1.6-0.2,2.4-0.2c3,0,6.1,0.7,9.8,2.1c0.7,0.3,1.3,0.9,1.6,1.2c0.8,1,0.9,2.5,0.2,3.4
			c-0.5,0.7-1.2,1.1-2,1.1c-0.3,0-0.7-0.1-1-0.2c-1.4-0.4-2.4-0.8-3.5-1.3c-1.3-0.6-2.8-0.9-4.5-0.9c-0.5,0-1,0-1.5,0.1l0,0
			c-0.7,0-1.5,0.1-2.3,0.2c-2.2,0.3-4.4,0.5-6.6,0.6c-0.6,0-1.2,0-1.8,0s-1.2,0-1.9,0c-0.6,0-1.2,0-1.8,0c-2-0.1-4.1-0.1-6.2-0.1
			c-1.7,0-3.2,0-4.7,0.1l0,0c-1,0-2.1,0.1-3.1,0.2c-0.4,0-0.8,0-1.2,0.1c-1,0.1-2.1,0.1-3.2,0.1c-0.7,0-1.4,0-2-0.1
			c-1.7-0.2-3.5-0.3-5.4-0.3c-5.2,0-10.2,0.6-15.6,1.3L846,632h-0.2c-2.4,0.3-4.7,0.6-7.1,0.9c-2.4,0.3-4.8,0.7-7.1,1
			c-2.2,0.3-4.4,0.6-6.6,0.9c-2.5,0.3-5.1,0.7-7.7,1c-4.9,0.7-9.9,1.3-14.7,1.8l-3,0.4c-0.7,0.1-1.3,0.1-2,0.1h-13.4
			c-10.3,0-20.9,0-31.3-0.4c-4.9-0.1-9.8-0.9-14.6-1.6l-1.3-0.2l-0.7-0.1c-1.5-0.3-2.9-0.5-4.3-0.7l-1.2-0.2
			c-12.3-1.8-26.2-3.8-40.2-3.8c-2.3,0-4.7,0.1-6.9,0.2h-0.2v0.2c0,0.1,0,0.2,0,0.3s-0.1,0.2-0.1,0.3s0,0.3,0,0.5s-0.1,0.4-0.1,0.5
			v5.1c0,1.2,0,2.5,0,3.7c0,3.8,0,7.7,0.1,11.6c0.2,6.1-1,12.5-3.6,19.4c-0.3,0.7-0.5,1.4-0.7,2.1l-0.1,0.2h-6.4l0.1-0.2
			c2.3-4.7,3.8-9.4,4.5-13.9c0.2-1.3,0.4-2.7,0.4-4.1v-26.8c0-1.1,0-2.2-0.1-3.2c-0.6-6.5-0.6-13.2-0.5-20.1
			c0.4-20.6,0.8-41.7,1.1-62l0.2-9.2v-1.8c0-3.5,0.1-7.1,0.2-10.5c0.1-3.2,0.2-6.8,0.2-10.4c0-0.5,0-1.1-0.1-1.7l-0.1-0.6l-0.3,0.5
			c-0.1,0.2-0.2,0.4-0.3,0.6s-0.3,0.4-0.4,0.6c-1.6,2.6-3.2,5.4-4.7,8.2c-0.3,0.6-0.6,1.2-0.8,1.8c-0.1,0.2-0.2,0.4-0.3,0.6
			c-0.1,0.2-0.2,0.4-0.3,0.6l-0.2,0.4c-0.3,0.8-0.7,1.6-1.2,2.3c-3.3,4.6-6.6,9.4-10.1,14.4c-6.2,8.9-12.9,18.5-20.6,29.3
			c-0.7,1.1-1.7,2-2.8,2.7c-1.1,0.8-2.3,1.5-3.5,2.2c-0.2,0.1-0.4,0.2-0.6,0.3c-0.6,0.3-1.1,0.6-1.7,1c-1.8,1.1-3.8,1.7-6.3,1.7
			c-0.2,0-0.4,0-0.7,0c-1.9-0.2-3.2-0.9-4.1-2.2c-0.6-1-1.2-2-1.7-3c-0.3-0.5-0.5-0.9-0.7-1.3c-0.7-1.4-1.4-2.8-2.4-4.3
			c-1-1.4-1.9-2.8-2.8-4.3c-1-1.4-1.9-2.9-2.9-4.3c-2.9-4.4-6-9-9-13.6c-3.2-4.9-6.2-9.7-9-14.5c-0.6-1-1.1-2.1-1.5-3.1l-0.3-0.8
			c0-0.1-0.1-0.3-0.2-0.5c-0.1-0.2-0.1-0.3-0.2-0.5c-0.2-0.4-0.3-0.8-0.5-1.3c-0.1-0.4-0.3-0.9-0.5-1.3l-0.3-0.9
			c-0.3-0.8-0.6-1.5-1-2.3c-2.4-5.4-3.1-10.9-3.5-16.1c-0.9-13.7-1.9-27.5-3.1-43.6l-0.1-1.2c-0.2-1.8-0.4-3.6-0.3-5.3
			c0.2-4.6-0.5-9.6-2-15.2c-1-3.8-1.9-7.7-2.8-11.4c-0.6-2.5-1.2-5.2-1.9-7.9c-1.2-4.5-2.7-8.2-4.6-11.5c-3.1-5-2.8-10.6-2.2-15
			c0.7-5.4,3.6-10.1,8.5-13.5c0.2-0.1,0.4-0.2,0.6-0.3c0.1-0.1,0.2-0.1,0.2-0.2c0.5-0.3,0.9-0.6,1.4-1l0.1-0.1l-0.1-0.2
			c-0.2-0.3-0.3-0.5-0.5-0.8c-0.4-0.6-0.8-1.2-1.2-1.8c-1.4-2-2.9-4.4-4.7-7.5c-1.7-2.8-3.3-5.7-4.8-8.7c-1.7-3.6-2.1-7.5-1.1-11.8
			c0.1-0.4,0.1-0.8,0.1-1.3v-0.5c-0.1-2.3,0.4-3,2.6-3.6c1.6-0.4,3.1-0.7,4.6-1.1l1-0.2c0.6-0.2,1.1-0.3,1.7-0.4
			c0.6-0.1,1.1-0.3,1.7-0.4l9-2.1c1.5-0.4,3.1-0.7,4.6-1.1c1.5-0.3,3-0.7,4.5-1c0.9-0.2,1.8-0.3,2.6-0.3c3.7,0,6.8,1.7,8.8,4.8
			c1.7,2.7,3.4,5.7,5.5,10c4,8.3,8.1,16.7,12,24.8c2.8,5.8,5.5,11.5,8.1,16.8l0.2,0.5c0.2,0.5,0.5,1,0.9,1.7l0.4,0.6V393
			c0.3-0.6,0.5-1.1,0.6-1.8c1.9-7.1,3.7-12.6,5.8-17.8c1.5-3.8,2.4-7.9,2.6-12.3c0.3-5.3,1-9.8,2.1-14.3l0.1-0.4
			c0.2-0.8,0.3-1.6,0.4-2.5l0.1-0.4c0.2-1.1,0.4-2.2,0.6-3.2c2.4-10.3,6-19.3,11-27.3c1.8-2.9,4.2-6.3,7.8-8.6
			c1.3-0.8,2.5-1.6,3.8-2.5c0.5-0.3,1-0.7,1.5-1c1.5-1.1,3.3-2.3,5.2-3.5c1.5-1,3.2-1.5,5.5-1.6c1.5-0.1,3-0.5,4.5-1.1
			c7.5-3.6,15.5-6.7,22.4-9.3c0.8-0.3,1.6-0.6,2.4-0.9c0.8-0.3,1.5-0.6,2.3-0.9c7.3-2.9,14.6-6,21.6-9.1l5.6-2.4
			c1.3-0.5,2.4-1.4,3.3-2.1c0.3-0.2,0.6-0.4,0.9-0.6c0.3-0.2,0.6-0.4,0.9-0.6c0.2-0.1,0.5-0.3,0.7-0.5c0.2-0.1,0.4-0.3,0.7-0.4
			c0.2-0.1,0.4-0.3,0.7-0.4c0.6-0.3,1.1-0.7,1.7-1.1c4.3-3.3,8.8-6.4,13.2-9.3l2.5-1.7c1.1-0.6,2.1-1.3,3.1-2
			c3.2-2.1,6.3-4.5,9.2-6.9l0.6-0.5c0.3-0.3,0.7-0.6,1-0.9c0.7-0.6,1.4-1.2,2.2-1.7c0.9-0.7,1.2-1.4,1-2.3c-0.1-1.4,0-2.8,0.3-4.2
			c0.4-2-0.1-3.8-1.6-5.9l-0.3-0.4c-1.4-1.7-2.9-3.4-4.6-4.7c-6.1-4.5-10.4-10.3-13.5-14.9c-4.7-7.1-9.5-14.9-13.2-23.1
			c-3.5-8.2-6-16.6-7.5-25.2c-0.7-4.4-1.6-10.1-1.6-16.1c0-6.1,0.8-12.9,2.4-21.3c1.7-8.1,5.6-15.2,11.5-21.2
			c8.2-8.1,15.2-13.5,22.5-17.4c4.9-2.8,10.3-4.9,17.2-6.6c6.2-1.6,12.9-3.4,19.5-4.8c2.7-0.5,5.4-0.8,8.5-0.8
			c3.7,0,7.1-0.1,10.4-0.1c4.9,0,9.2,0.1,13.2,0.2c4.5,0.2,8.6,1.6,12.4,4.3l3.3,2.1c0.3,0.2,0.6,0.4,0.9,0.6c0.8,0.5,1.7,1,2.5,1.6
			c6.1,4.1,11.6,9.5,16.8,16.6c2.8,3.9,3.9,8.8,4.8,13.5v0.1c1.6,8.6,1.4,17.4-0.6,27c-2.2,10.7-5.1,21.5-7.9,31.9l-1,3.6
			c-0.5,1.7-0.9,3.3-1.3,4.9c-0.4,1.6-0.8,3.2-1.3,4.9c-1.2,4.4-2,9-2.7,13.2c-0.3,2-0.6,4-1,6c-0.4,2.4-0.9,4.9-1.4,7.4l-0.6,3.2
			l0.5,0.2c0.3,0.1,0.6,0.2,0.9,0.3c4.6,0.9,9.2,2.7,14.2,5.4c1.9,1.1,3.4,1.8,4.9,2.3c2.1,0.7,3.9,2.1,5.6,3.6l28.6,26.5
			c1.4,1.2,2.5,2.7,3.7,5c5,10.9,9.2,19.8,13.2,28.1c1.1,2.4,2.2,5.3,1.8,8.4c-0.3,1.8,0.3,2.9,2.2,4.2c5.7,3.8,9.1,7.8,10.7,12.7
			c0.2,0.6,0.7,1.3,1.3,1.6c1.3,0.8,2.5,2.2,3.4,3.8c2.1,3.9,3.7,8.3,4.7,13c1.8,9.4,4.6,19.1,8.6,29.4c1.5,4,2.3,7.4,2.5,10.6v0.2
			c0.1,0.9,0.2,2,0.5,3c1.7,5.8,1.8,11.4,1.8,18.2v2.4c0.1,4.8,0.2,9.7-0.6,14.6c-0.6,10.4-0.7,20.7-0.7,29.3l0.3,87.1
			c0,3.1-0.1,6.4-1.6,9.7c-2.1,4.9-4,10.1-5.8,15l-0.5,1.5c-0.4,1-0.7,1.9-1,2.8c-0.3,0.9-0.6,1.8-1,2.8L953.4,588
			c-0.6,1.8-1.5,3.2-2.9,4.3c-1.6,1.3-3.2,2.6-4.7,4c-4.9,4.4-10.8,7.5-17.6,9.1H928v0.2c0,0.4,0,0.7,0.1,1c0,0.3,0,0.6,0,1
			s0.1,0.8,0.1,1.2c0,0.8,0.1,1.5,0.2,2.3c1.4,8.7,1.8,17.8,2.2,26.6v0.5c0.1,0.7,0.1,1.4,0.1,2c0,0.7,0.1,1.4,0.1,2.1
			c0.4,7.4,1,15,1.6,22.2c0.1,1.7,0.3,3.5,0.4,5.2c0.1,1.8,0.3,3.7,0.4,5.5v0.2H933C930.8,675.4,929,675.4,927.1,675.4L927.1,675.4z
			 M968.3,478.5c-13.4,2.2-26.7,4.4-39.9,6.6l-1.3,0.2v0.2v0.1c0,0.1-0.1,0.2-0.1,0.3c0,0.2-0.1,0.4-0.1,0.6
			c-0.1,0.2-0.1,0.5-0.2,0.7c-0.4,1.8-0.7,3.6-1,5.6c-1.1,6.7-2,12-3,16.9c-1.6,8.2-1.5,16.8-1.1,24.1c0.1,1.3,0.1,2.6,0.2,4
			c0.1,1.3,0.1,2.6,0.2,3.9l0.1,1.1c0.2,3.6,0.4,7.3,0.6,10.8l0.2,3.9c0.4,6.1,0.8,12.5,1.7,18.6c0.1,0.8,0.2,1.7,0.4,2.6
			c0.1,0.8,0.2,1.7,0.3,2.5l0.2,1.3c0.6,3.8,1.1,7.8,1.3,11.7c0.3,1.5,0.5,3.1,0.7,4.7v0.2h0.2c0.1,0,0.3,0,0.4,0
			c1.4,0,2.6-0.5,3.7-0.9l0.3-0.2c5.1-2.1,9.4-5.6,13.4-9c1.6-1.4,2.7-2.9,3.3-4.7l19.5-53.4c0.3-0.6,0.4-1.5,0.4-2.6v-47.9
			c0-0.6,0-1.1-0.1-1.8v-0.2L968.3,478.5z M585.6,449.6c-0.1,0.5-0.1,1.1,0,1.5c0.1,1.5,0.2,3.1,0.3,4.7c0,1.6,0.1,3.1,0.2,4.7v0.5
			c0.2,3.1,0.4,6.3,0.7,9.5c0.8,9.9,1.6,20.5,2.2,30.9c0.4,7.2,1.7,12.9,3.9,17.8c0.2,0.5,0.4,1.1,0.6,1.6c0.1,0.4,0.3,0.8,0.5,1.3
			c0.6,1.8,1.2,3.4,2,4.9c2.3,4,4.7,8,7.4,12.3c1,1.5,2,2.9,3,4.4s2,3,3,4.4c1.1,1.6,2.2,3.3,3.3,4.9c1.7,2.5,3.4,5,5,7.6
			c0.3,0.4,0.5,0.7,0.8,1.1c0.3,0.4,0.5,0.7,0.8,1.1c1.8,2.4,3.6,5,4.5,8c0.2,0.8,0.6,1.2,0.9,1.4c0.2,0.1,0.4,0.1,0.6,0.1
			c0.4,0,0.8-0.1,1.4-0.3c0.8-0.3,1.6-0.8,2.4-1.2l0.5-0.3c0.6-0.4,1.2-0.7,1.8-1c2-1.1,3.6-2.5,5.2-4.8c1.1-1.7,2.2-3.4,3.4-5
			c0.9-1.2,1.8-2.5,2.7-3.8c2.6-3.8,5.3-7.6,8-11.3l2-2.7c5.8-8,11.8-16.4,16.6-25.4c0.2-0.4,0.5-0.9,0.8-1.3
			c0.3-0.5,0.6-0.9,0.8-1.4l1.5-2.7l6.6-11.5c2.6-4.3,5.3-8.9,6.7-14.2c0.3-1.3,0.6-2.6,0.9-3.9c0.3-1.2,0.6-2.5,0.9-3.7
			c0.1-0.6,0.3-1.2,0.4-1.9c0.2-0.6,0.3-1.3,0.5-1.9c4.1-17.8,9.3-39.9,14.8-63.3l3.6-15.5c0.4-1.9,0.3-3.5-0.2-5.2l-0.9-2.6
			c-9-27.1-18-54.3-27.1-81.5c-0.1-0.4-0.3-0.9-0.5-1.4c-0.2-0.6-0.4-1.2-0.6-1.8l-0.1-0.2l-0.2,0.1c-3.8,1.7-10.9,6.8-13.1,9
			c-0.3,0.3-0.7,0.8-1.1,1.3c-6,8.9-10.1,18.8-12.4,29.5c-0.8,3.2-1.5,6.9-2.1,10.9c0,0.1-0.1,0.3-0.1,0.5s0,0.3-0.1,0.5
			c0,0.4-0.1,0.7-0.1,1.1c-0.1,0.7-0.2,1.3-0.2,1.9c-0.2,6.7-1.6,13.5-4.5,21.5c-4.1,11.5-7.3,22.3-9.6,33.1
			c-2.1,10-4.9,19.8-7.3,28.3c-4.7,16.5-6.9,32.1-6.7,47.5c0,0.7,0,1.6-0.2,2.2c-0.4,1.5-1.4,2.5-2.7,2.5c-1.5,0-2.6-1-2.8-2.6
			c-0.1-0.3-0.1-0.7-0.1-1v-0.9c-0.1-14.1,1.5-27.6,5-41.4c0.1-0.4,0.2-0.9,0.3-1.4c0.1-0.3,0.1-0.7,0.2-1l0.1-0.3l-3.4,0.8
			c-5.4,1.2-10.6,2.4-15.8,3.7c-3.8,1-7.2,1.5-10.4,1.5c-1.4,0-2.8-0.1-4.1-0.3h-0.2L585.6,449.6z M968.3,403.5
			c-0.8,0.7-1.3,1.2-1.6,1.7c-1.8,2.4-4.1,3.9-6.4,5.4c-1.3,0.8-2.6,1.6-3.8,2.5c-0.8,0.6-1.6,1.2-2.4,1.7c-4.6,3.1-9.2,6-15.2,6.1
			h-0.2v0.2c-1.6,8.7-3.1,17.6-4.6,26.3c-1,5.7-2,11.3-3,16.8l-2.8,15.4l0.3-0.1c4.3-0.8,8.7-1.5,12.9-2.2l2-0.3l25.4-4.2v-11.6
			c-0.1-13.2-0.1-26.3,0-39.1c0-1.7,0.1-3.4,0.2-5v-0.3c0.1-1.1,0.2-2.1,0.2-3.2v-11.1L968.3,403.5z M580,382.9
			c-3.5,1.6-6.2,4.4-7,7.2c-1.3,4.5-2.2,9.9,0.8,15.2c2.5,4.4,4.3,9.3,5.6,15.3c1,4.5,2.2,9.3,3.5,14.4c0.8,3.1,1.6,6.3,2.4,9.5v0.2
			h0.2c1.6-0.1,3.1-0.2,4.5-0.3c0.4-0.1,0.8-0.1,1.2-0.1c0.6,0,1.1,0,1.7-0.1l6.2-1.3c5.7-1.2,11.7-2.5,17.5-3.9l0.2-0.1h0.2
			c0.7-0.2,1.3-0.3,2-0.3s1.3,0.1,1.9,0.4l0.2,0.1l0.1-0.3c0.3-1.5,0.7-2.8,1-4.1c0.2-0.7,0.4-1.4,0.6-2.2l0.1-0.6l-0.5,0.3
			c-1.5,1.1-3.1,1.7-4.8,1.7c-0.6,0-1.3-0.1-1.9-0.2c-3.1-0.8-5.3-2.3-6.8-4.8l-1.5-2.4c-8.5-13.7-17.3-27.9-26.2-42
			c-0.3-0.4-0.6-0.8-0.8-1.2c-0.1-0.1-0.1-0.2-0.2-0.2C580.1,383,580.1,382.9,580,382.9l-0.1-0.1L580,382.9z M597.5,340.6
			c-0.6,0-1.2,0-1.9,0.2c-1.7,0.4-3.4,0.8-5.1,1.2c-2.1,0.5-4.2,0.9-6.2,1.4c-1.9,0.4-3.8,0.9-5.6,1.3c-1.9,0.4-3.8,0.9-5.7,1.3
			c-1.6,0.4-2.2,1.1-2.6,2.5c-0.8,3-0.3,6,1.4,9.5c3.5,6.4,7.3,13.1,12.2,19.1c0.3,0.3,0.4,0.5,0.5,0.8c0.1,0.1,0.1,0.2,0.1,0.2
			c0,0.1,0.1,0.2,0.1,0.3l0.2,0.4c0.1,0.3,0.2,0.5,0.3,0.7c0.2,0.4,0.3,0.7,0.5,1c8.4,13.6,17.7,28.4,27.4,44l0.6,0.9
			c1,1.7,2.2,2.7,3.4,2.8c0.1,0,0.3,0,0.4,0c1.1,0,2.3-0.6,3.6-1.9c0.8-0.7,1.5-1.3,2.5-1.9c0.4-0.2,0.8-0.6,1.2-0.8l0.2-0.2h0.1
			l0.5,0.3l0.1-0.3c1-4.9,2.1-9.6,3.2-14.7c0.4-1.5,0.7-3.1,1.1-4.6l1-4.6l-0.2-0.1c-1.6-0.6-2.4-2-3-3.3l-0.1-0.2
			c-3.5-7.1-7-14.4-10.5-21.7c-3.5-7.3-7-14.6-10.5-21.8c-1.2-2.3-3-5.8-5-9.4C600.8,341.5,599.4,340.6,597.5,340.6z M954.7,329.1
			c0.1,7-0.7,12.5-2.6,17.4c-0.5,1.2-0.7,2.4-0.9,3.6v0.2v0.2c-1.8,10.7-3.7,21.4-5.6,31.8l-0.7,3.7c-1.3,7.4-2.7,15.1-4,22.6
			c-0.2,1-0.3,2-0.5,3.1c-0.1,0.7-0.2,1.4-0.3,2.1l-0.3,1.6l0.4-0.2c0.2-0.1,0.3-0.1,0.5-0.1s0.4-0.1,0.5-0.1c0.4,0,0.7-0.1,1.1-0.2
			c0.5-0.3,1-0.5,1.5-0.7c1.8-0.8,3.5-1.6,5-2.4c1.1-0.7,2.3-1.4,3.5-2.3l0.4-0.3c1-0.7,2-1.5,3.1-2.1c3.9-2.2,6.6-5.1,10-8.9
			c1.1-1.2,2.2-2.4,3.7-3.9l0.1-0.1V394c0-0.4,0-0.9,0-1.3c0-0.5-0.1-1-0.1-1.5c-0.1-0.9-0.1-1.8-0.1-2.7c-0.1-2.5-0.3-5.1-0.6-7.7
			c-0.2-1.7-0.5-3.4-0.9-5.1c-0.3-1.3-0.6-2.8-0.8-4.4c-0.3-3-1.2-6-2.1-8.5c-0.3-1.1-0.8-2.4-1.3-3.7c-1.2-3.2-2.4-6.6-3.4-10
			c-0.7-2.3-1.3-4.7-1.8-6.9c-0.2-1-0.5-1.9-0.7-2.9c-0.6-2.8-1.2-5.3-1.8-7.5l-0.6-2.1c0-0.2-0.1-0.4-0.1-0.5
			c-0.1-0.2-0.1-0.4-0.2-0.6l-0.4-1.6L954.7,329.1L954.7,329.1z M745.8,275c-0.3,0.2-0.7,0.4-1,0.5c-0.4,0.2-0.7,0.4-1.1,0.6
			c-0.5,0.2-0.9,0.5-1.4,0.7c-0.9,0.5-1.8,0.9-2.6,1.3c-1.7,0.8-3.5,1.5-5.2,2.3c-4.7,2.1-9.6,4.2-14.4,6.2c-4.1,1.6-8,3.1-11.5,4.4
			c-1.5,0.6-3,1.2-4.5,1.7c-1.5,0.6-3.1,1.2-4.6,1.8c-3.1,1.2-6.1,2.6-9.2,4c-1.1,0.5-2.2,1-3.4,1.5c-0.8,0.3-1.5,0.6-2.2,1
			c-0.5,0.2-1,0.4-1.5,0.6l-0.2,0.1l15.1,45.5c4.4,13,9.1,27,15.1,45.4v0.1l4.6-0.1c32.6-0.4,65.7-0.7,99-1.1
			c40.4-0.5,81.1-0.9,121.4-1.4h0.1l0.1-0.1c0.2-0.2,0.2-0.3,0.2-0.5c0.4-2.3,0.8-4.6,1.2-6.9c0.3-1.9,0.7-3.8,1-5.6
			c0.7-3.9,1.4-8.2,2.2-12.5c0.2-1.1,0.4-2.2,0.6-3.4c0.2-1.1,0.3-2.2,0.5-3.3c0.9-5.8,2-11.4,3.8-16.8c0.1-0.3,0.2-0.6,0.2-1
			c0-0.2,0-0.3,0.1-0.5c0-0.1,0.1-0.3,0.1-0.6c0-0.2,0-0.4,0.1-0.5c1-5.2,0.7-10.7,0.4-15.6c-0.2-3.3-1.1-6.8-2.9-10.7
			c-1.4-3.3-4.1-5.5-7.1-7.6l-0.3-0.2v0.4c0,0.6-0.1,1.2-0.2,1.7c-0.1,0.5-0.1,1-0.2,1.4l-0.1,0.7c-0.6,5.9-1.7,12-5.1,17.3
			c-3.2,4.9-7.2,9.3-11.1,13.4l-0.1,0.1L921,340c-5.1,5.5-11.9,9.1-17.4,12c-6,3.1-12.8,4.9-20.3,5.4c-5,0.3-10.1,0.5-15,0.5l0,0
			c-6.5,0-13-0.3-19.3-0.9c-7.8-0.7-14.7-4-20.4-7.1c-0.3-0.2-0.6-0.3-0.8-0.4c-0.3-0.2-0.6-0.3-0.9-0.5c-1.6-0.9-3-1.7-4.4-2.3
			c-4.9-2.2-9.4-4.8-13.8-8c-1.8-1.4-3.6-2.6-5.2-3.4c-7.8-4.6-13.4-8.9-17.9-13.8c-1.7-1.8-3.7-3.5-5.9-5.2
			c-0.3-0.2-0.6-0.5-0.9-0.7c-0.7-0.6-1.5-1.1-2.2-1.8l-0.5-0.4c-1.2-1-2.4-2-2.9-3.3c-5.9-7.5-11.8-15.2-17.6-22.7l-1-1.2
			c-1.1-1.4-2.2-2.9-3.4-4.4c-1.1-1.4-2.2-2.9-3.3-4.3L745.8,275L745.8,275z M859.6,221.1c-7.6,0-14.6,1.9-20.6,3.7l-4.9,1.6
			c-2.4,0.8-4.9,1.5-7.4,2.3c-7.1,2.3-14.5,4.6-21.8,6.7c-8.2,2.3-15,5.8-20.7,10.8c-8.6,6.8-15.6,12.1-22,16.6
			c-3.2,2.4-6,4.7-8.9,7.1c-0.4,0.4-0.8,0.7-1.2,1s-0.8,0.7-1.2,1l-0.1,0.1v0.1c0.1,0.2,0.2,0.3,0.2,0.5c0,0.1,0.1,0.1,0.1,0.2
			c4.4,5.8,9,11.7,13.4,17.4c4.5,5.7,9,11.6,13.5,17.5c0.2,0.3,0.5,0.6,0.9,0.9l0.6,0.6c1.1,0.9,2.2,1.8,3.3,2.8
			c3.3,2.7,6,5.1,8.4,7.4c3.4,3.4,6.7,6.1,9.9,8.1c3.6,2.1,7.7,4.8,11.5,7.4c3.2,2.2,6.7,4.5,10.8,6.4c2.4,1,4.5,2.1,6.6,3.4
			c3.4,2.2,7.2,3.8,11,5.3l0.9,0.3c3.4,1.3,7,1.5,10.5,1.7c0.8,0,1.6,0,2.4,0.1c3.7,0.3,7.3,0.4,11.6,0.4h4.6h4
			c6.3,0,11.7-0.6,16.6-1.9c9.6-2.3,18.3-7.4,26.6-15.5c2.7-2.6,5.2-5.7,7.2-8.4l0.7-0.9c3.1-4.1,4.7-7.6,5.1-11.3
			c0.1-1.1,0.3-2.2,0.5-3.3c0.6-3.3,1.2-7.1,0.9-10.8c0-0.4,0.1-0.6,0.2-0.9c0.1-0.1,0.2-0.3,0.2-0.6c0.5-2.6,0.9-5.7-0.4-8.6
			c-2.2-4.7-4.5-9.5-6.7-14.3l-0.2-0.3c-2.1-4.7-4.4-9.6-6.8-14.5c-0.5-1.1-1.3-2.2-2.2-3.2c-9.2-8.6-18.7-17.3-29.2-27
			c-0.2-0.1-0.4-0.3-0.5-0.5c-0.4-0.3-0.7-0.6-1.1-0.9c-1.2-0.5-2.4-1.1-3.6-1.7c-3-1.5-6.3-3-9.8-4.5c-4.1-1.6-8.1-2.5-11.8-2.6
			C860.3,221.1,860,221.1,859.6,221.1z M838.4,80c-6,0-12.3,0-18.4,0.1c-2.7,0.1-5.9,0.3-8.8,1c-8.9,2.2-16.8,4.3-24.2,6.3
			c-2.6,0.7-5.3,2-7.5,3.1c-8.5,4.3-16.4,10.5-24.9,19.5c-3,3.2-5.3,7.2-7.2,12.6c-1.1,2.8-1.5,5.7-1.9,8.5l-0.2,1.1
			c-0.1,0.5-0.2,1-0.3,1.5s-0.1,1-0.2,1.5c-1.1,7.3-1.3,13.7-0.6,19.5c2,16.6,6.8,30.8,14.6,43.5c1.3,2.3,2.8,4.6,4.3,6.7l0.5,0.8
			c1.5,2.1,3,4.4,4.9,7.5c1.9,3.2,4.1,5.6,6.9,7.9c2.5,2,4.9,4.3,7,6.8c2.7,3.2,3.4,6.7,2.3,10.4c-0.1,0.1-0.1,0.2-0.1,0.5v0.4
			l1.5-1.1c0.2-0.2,0.5-0.3,0.7-0.5c0.3-0.2,0.6-0.4,0.9-0.6c4.7-3.1,9.8-5.5,15.1-7.1c4-1.1,8.1-2.3,12-3.5
			c6.1-1.9,12.2-3.6,18-5.3l1.3-0.4l1.9-0.5c4.8-1.3,9.7-2.7,14.8-3.9c1.8-0.3,3.6-0.3,5.4-0.3c1.1,0,2.2,0,3.4-0.1h0.1v-0.1
			c0.1-0.3,0.2-0.5,0.3-0.8c0.1-0.2,0.1-0.5,0.2-0.7c0.2-0.5,0.3-1,0.5-1.5s0.3-1,0.5-1.5c0.4-1.6,0.7-3.3,1-5
			c0.1-0.9,0.2-1.7,0.4-2.5l0.1-0.4c0.3-1.7,0.8-4,1.1-6.1c0.8-4.6,1.6-8.7,2.5-12.7c0.6-2.6,1.3-5.1,2-7.6l1-3.9
			c2.9-10.6,5.8-21.7,8.2-32.5c2-9.7,2.2-18.6,0.5-27.2c-1.1-6-3.9-11.2-8.6-16.1c-4-4.2-8.9-8.1-15.5-12.5
			C848.9,81.5,843.9,80,838.4,80z"/>
	</g>
</g>
<g>
	<path d="M147.3,694.1l0.1-0.3c1.1-4.1,1.2-8.5,1.3-12.7c0.1-5.1-0.3-10.2-0.7-15.2l-0.1-1.9c-0.1-1.6-0.3-3.4-0.4-5.1l-0.2-2.7
		c-0.2-3.5-0.2-7.1-0.2-10.6V643c0-1-0.1-2.2-1-3.2c-0.7-0.8-1.1-1.6-1.4-2.4l-0.4-1.2c-0.9-2.4-2-5.2-2.7-8c-0.5-1.9-0.7-4-0.7-6.7
		c0-8,0.1-16.1,0.1-24.1s0-16,0.1-24.1c0.1-22.2,0.2-47.3,0.2-72c0-6-0.5-11.9-1-18.5c-0.1-1-0.2-2.1-0.2-3.1
		c-0.1-1.1-0.2-2.1-0.3-3.2l-0.2-3c-0.5-7.3-1.1-14.8-1.7-22.2c-0.2-2-0.4-4-0.7-5.9c-0.3-2.3-0.6-4.2-0.8-6.2v-0.4
		c-0.8-8-1.6-16.3-3.5-24.4c-0.3-1.5-0.7-3.1-1.1-4.6c-0.1-0.6-0.3-1.1-0.4-1.6c-0.6-2.1-1.1-4.2-1.6-6.3c-0.7-3.2-1-6.1-1-8.9
		c0-2.9,0.2-5.7,0.4-8.5c0.2-2,0.3-4.1,0.4-6.2V378c0.3-5.2,1.7-10,3.3-15.4l1.2-4.2c2.3-8.6,4.7-17.4,7.1-25.9
		c1.2-4.4,2.4-8.9,3.6-13.2l2.4-8.5l0.3-1.2c0-0.1,0.1-0.3,0.1-0.4s0-0.2,0.1-0.4v-0.1l-0.1-0.1c-4.3-3.6-6.4-8.4-8.5-13.1l-1.5-3.3
		c-0.1-0.4-0.3-0.8-0.5-1.1c-0.2-0.4-0.3-0.7-0.5-1.1s-0.3-0.7-0.5-1.1s-0.3-0.7-0.5-1.1c-1.8-3.5-2.5-6.7-2.2-10.1
		c0.6-7.5,1.7-16.4,4.7-24.9c3.9-11.3,7.8-20.7,12.2-29.6c2.9-5.9,7.2-11.5,13.5-17.4c0.8-0.7,1.6-1.4,2.4-2.2
		c4-4.2,9.5-6.5,15.8-6.6h1.5c2.8-0.1,5.7-0.2,8.7-0.2c4.9,0,8.9,0.2,12.6,0.8c1.8,0.3,3.8,0.4,5.7,0.6l0.9,0.1
		c1.8,0.1,3.7,0.3,5.3,0.5c5.9,0.8,13.7,2,21.5,4.3c0.2,0.1,0.3,0.1,0.6,0.1h0.3V203c0.7-7.6,3-15,5.3-22.1l0.1-0.4
		c0.2-0.6,0.4-1.2,0.6-1.9c0.2-0.6,0.4-1.2,0.6-1.8l0.1-0.3h-0.3h-0.1c-0.1,0-0.2-0.1-0.3-0.1s-0.3,0-0.4,0c-0.2,0-0.3-0.1-0.5-0.1
		c-2.9,0-5.4-1-7.4-2.9l-1.3-1.3c-1.6-1.6-3.4-3.3-4.7-5.3c-3.4-4.9-6.8-10-9.6-14.4L219,149c-0.6-0.9-1-1.5-1.6-2.2
		c-4.7-5.1-7.4-11.8-8.2-20c-0.5-5.2-0.8-11.2,0.7-17c2-7.6,5.9-14.3,11.6-20c1-1,2.1-1.9,3.4-2.7c2.3-1.5,4.8-2.9,7.1-4.4
		c1.3-0.8,2.6-1.6,3.9-2.3c5.4-3.3,8.7-7.7,9.9-13.2l1.5-6.3c0.8-3,2.6-5,5.7-6c1.3-0.4,2.9-0.9,4.6-1c3.3-0.3,6.7-0.4,10-0.4
		c15.3,0,30.2,2.9,44.2,8.5c2.7,1,5.6,2.5,9.3,4.8c3.1,1.8,5.5,3.3,7.5,4.7c3.3,2.1,7.1,4.4,10.9,6.6c4.6,2.5,8.4,5,11.8,7.7
		c2.8,2.1,4.5,4.3,5.2,6.9c1.3,3.8,0.4,5.6-3.4,6.9c-0.5,0.2-1,0.4-1.7,0.6h-0.2l0.3,5.2l0.1,1c0.4,5.1,0.8,10.4,1.2,15.7
		c0.6,7.6,0.9,14,0.8,20.1c0,2.3-0.8,4.2-1.7,6.2l-0.1,0.2c-0.9,2.1-1.8,4.2-2.8,6.3c-0.8,1.6-1.5,3.2-2.3,4.9
		c-0.4,0.9-0.8,1.8-1.2,2.7l-0.1,0.1l0.1,0.1c0.8,0.7,1.5,1.3,2.2,1.8c4.6,3.9,6.4,9.2,5.4,15.8c-0.2,1-1,2.3-1.9,3.2
		c-2.3,2.3-5.2,4.2-9.4,6.2c-1.4,0.6-1.9,1.3-2,2.8c-0.6,8.4-3.3,16.4-5.6,23.4c-1.5,4.5-4.5,7.8-9.1,9.8l-0.6,0.2
		c-2,0.8-4,1.5-6.2,2.2c-3.2,1.1-6.5,2.2-9,5l-0.1,0.1l0.1,0.1c0.1,0.1,0.3,0.3,0.4,0.4c0.1,0.2,0.3,0.3,0.4,0.5l2.4,2.4
		c0.8,0.7,1.6,1.5,2.4,2.3c2.1,2.2,4.4,3.9,6.9,5.1c6,2.9,8.9,7.7,9,14.7v1.8c0.1,0.7,0.1,1.3,0.1,1.9c0,1.8,0.3,3,1,4.4
		c0.6,0.9,0.6,2.1,0.6,3.3c0,0.6,0,1.2,0.1,1.8v0.1l0.7,0.4c2.1,1.4,4.5,3,6.7,4.8c2,1.7,3.6,3.2,4.9,4.7c0.9,1.1,1.7,2.2,2.6,3.3
		c1.7,2.2,3.5,4.4,5.2,6.6c0.6,0.7,1.1,1.4,1.7,2.2c0.6,0.7,1.1,1.4,1.7,2.1c1.2,1.5,1.9,2.9,2.6,4.8l1.8,5.7c0.9,3,1.9,6.1,2.8,9.1
		c1.5,4.8,3.1,9.8,4.6,14.7c0.6,1.9,0.8,3.8,1,5.7c0.6,5.7,1.8,10,4,14c4.2,7.2,7.4,15.1,10.6,25.7c0.4,1.3,0.9,2.7,1.4,4.1
		c0.2,0.5,0.3,0.9,0.5,1.3c0.1,0.4,0.3,0.8,0.4,1.3l0.1,0.4l0.2-0.4c0.4-0.7,0.7-1.2,1-1.7l0.1-0.2c1.9-3.5,3.7-7,5.5-10.5
		s3.6-7,5.5-10.5l11.1-21c0.4-0.9,0.7-1.8,0.9-2.8c0.4-1.8,1.1-2.6,2.9-2.8h0.8l24.1,0.3c3.7,0.1,7.2,0.3,10.9,0.6
		c1.9,0.1,3.7,0.5,5.5,0.9c1.2,0.3,2.1,0.7,2.3,1.3c0.1,0.2,0.1,0.4,0,0.7v0.1v0.1c0.5,1.1,0.2,2.4-0.7,3.8
		c-1.3,2.1-2.6,4.2-3.9,6.4c-1.3,2.1-2.6,4.2-3.9,6.3c-1.3,2.1-2.6,4.2-3.9,6.4c-1.3,2.1-2.6,4.2-3.9,6.3c-0.2,0.4-0.4,0.7-0.6,1
		c-0.1,0.1-0.2,0.2-0.2,0.4c-0.1,0.2-0.3,0.5-0.5,0.7l-0.2,0.3h0.4c2.9,0.3,3.8,2.5,4.3,4.4l0.3,1.3c1.1,4.5,2.3,9.1,3.3,13.9
		c1.4,6.9,1.2,13.5,0.8,19.1c-0.2,3.4-0.9,7.2-2.2,11.8c-1.5,4.9-2.2,10.1-2.8,15l-0.1,0.5l-0.2,1.7c-0.1,1-0.2,2-0.3,3
		c-0.1,1-0.3,2-0.4,3c-0.6,5.5-1.3,11.3-2.7,16.8c-1.9,7.5-4.5,12.8-8.5,17c-1.2,1.3-2.5,2.9-3.9,4.9c-1.2,1.8-2.4,3.3-3.6,4.7
		c-2.4,2.7-5.1,5.7-7.8,8.7l-2,2.2c-0.1,0.1-0.3,0.3-0.4,0.5c-0.1,0.1-0.2,0.3-0.4,0.4c-0.3,0.3-0.5,0.6-0.8,0.9
		c-0.5,0.6-1.1,1.1-1.5,1.8c-2,2.7-4.8,4.9-7.9,6.3c-1.6,0.7-3.5,1.2-5.7,1.4c-2.1,0.2-4.2,0.3-6.2,0.4h-0.3
		c-0.6,0.1-1.1,0.1-1.6,0.1s-1.1,0-1.6,0.1c-0.8,0.1-1.7,0.1-2.5,0.2c-0.7,0.1-1.5,0.1-2.2,0.2c-0.7,0-1.5,0.1-2.2,0.2
		c-0.8,0.1-1.7,0.2-2.5,0.2h-0.5c-2.1,0.1-4,0.2-5.9,0.2h-2.8v0.2c-0.9,4.1-1.8,8.3-2.8,12.7c-0.6,2.5-1.1,5.1-1.7,7.8
		c-0.6,2.8-0.1,5.7,0.4,8.3l0.1,0.6c1.2,6.5,1.8,13.1,1.8,19.8v9.9c0,2.1,0,4.3,0,6.4c0,4.4,0,8.8,0,13.3c-0.1,4-0.2,8.2-0.4,12.3
		c-0.1,2-0.2,3.9-0.2,5.9c0,2.1-0.1,4.1-0.2,6.1v0.2c-0.3,11.8-0.6,25.4-0.8,38.5c0,0.7,0,1.4,0.1,2.1c0.2,1.6,0.3,3.3-0.4,5.1
		l-0.1,6.4c-0.2,9.3-0.3,18.9-0.6,28.6v0.2h-5.9l0.9-34.8h-0.2c-0.4,0-0.7,0-1.1,0.1l-2.9,1c-4.4,1.3-8.2,2.6-11.8,3.9
		c-1.2,0.4-2.5,0.9-3.7,1.4c-1.3,0.5-2.5,1-3.8,1.4l-0.9,0.3c-4.9,1.8-10,3.7-15.2,5.2c-9.6,2.7-20.1,3.1-28.5,3.4h-0.8
		c-3.1,0.1-6.3,0.1-10,0.1c-4.4,0-8.8-0.1-13.4-0.1h-0.7c-1,0-2-0.1-3.3-0.3c-4.2-0.5-8.4-1.1-12.5-1.7h-0.1
		c-11.8-1.7-24.8-3.5-39.9-5.4c-6.6-0.8-12.5-2.2-18.1-4.5c-0.9-0.4-1.8-0.7-2.7-1l-0.7-0.3c-2.2-0.8-4.5-1.7-6.7-2.6h-0.1
		c-0.6-0.2-1.2-0.5-1.8-0.7s-1.2-0.4-1.8-0.7c-7.1-2.8-14.5-5.6-20.6-10.9c-1.5-1.3-2.9-2-4.6-2.3h-0.2v0.2
		c-0.2,5.6,0,11.1,0.6,16.7c1,10,1.8,20.6-0.1,31.4v0.1H153c-1.9,0.3-3.7,0.3-5.5,0.3H147.3z M323.1,665.8c0.5-0.1,0.9-0.2,1.3-0.3
		c2.6-1,5.3-2,8-3s5.4-2,8-3c2.5-1,5.5-2,8.9-3.2l2.3-0.8c1.2-0.4,2.3-0.7,3.5-1.1c0.5-0.1,1-0.3,1.5-0.4c0.9-0.2,1.8-0.4,2.7-0.7
		h0.1v-0.1c0.1-0.9,0.1-1.7,0.1-2.5c0-1.8,0.1-3.6,0.1-5.4c0-1.8,0-3.6,0.1-5.4l0.3-11c0.1-4.4,0.2-8.8,0.4-13.2
		c0.4-9.5,0.7-18,0.8-26c0.2-12.7,0.2-23.2-0.1-33c-0.1-3.7-0.6-7.5-1.1-11.4c-0.1-0.7-0.2-1.3-0.2-2c-0.1-0.7-0.2-1.4-0.3-2.1
		l-0.3-2.1c-0.5-3-1-6.4-0.2-9.7c0.2-0.6,0.3-1.2,0.4-1.9c0.1-0.6,0.2-1.2,0.4-1.8c0.2-0.7,0.3-1.3,0.5-1.9c0.1-0.6,0.3-1.2,0.4-1.9
		c0.3-1.5,0.6-3,0.9-4.5l0.2-0.8c0.5-2,0.9-4,1.3-6v-0.2h-0.2c-0.2-0.1-0.4-0.1-0.6-0.1s-0.3,0-0.5-0.1c-0.4-0.1-0.8-0.2-1.2-0.3
		c-0.4-0.1-0.7-0.1-1.1-0.2c-6.3-1.2-10.9-3.3-14.7-6.6c-1.5-1.4-2.9-2.8-4.3-4.2l-1.4-1.4c-1-1-2-2-3.1-2.8
		c-1.9-1.4-3.3-2.9-4.3-4.7c-15.7-26.5-31.7-53.4-47.4-79.8l-15.8-26.7c-2.3-4-3.7-8.4-4.9-12.5c-0.4-1.2-0.6-2.5-0.6-3.7
		c-0.4-6.6-0.4-13.6,2.4-20.1c0.3-0.7,0.5-1.5,0.7-2.3c2.1-6.6,4.6-11.5,8-15.9c0.2-0.2,0.3-0.3,0.4-0.5l0.1-0.1
		c0.3-0.4,0.6-0.8,1.1-1.1c0.6-0.5,1.2-0.7,1.9-0.7c0.6,0,1.2,0.2,1.7,0.6c1,0.9,1.2,2.2,0.6,3.4c-0.2,0.2-0.3,0.4-0.5,0.6
		c-0.2,0.3-0.4,0.6-0.6,0.8c-7.1,10.4-10.5,20.8-10.4,31.8c0.1,5.2,1.6,10.3,4.3,15.2c3.7,6.6,7.7,13.1,11.4,19.3
		c1.1,1.7,2.1,3.4,3.1,5.2l1.3,2.1l48,81l0.2,0.3c0.6,1.2,1.2,1.9,1.9,2.4c2.6,1.8,4.7,4.1,6,5.8c5.2,5.9,12,8.9,20.9,9.2
		c1.1,0.1,2.2,0.1,3.3,0.1c3.6,0,7.1-0.3,10.6-0.6l1.6-0.1l4.2-0.3c2-0.2,4-0.3,5.9-0.4c1-0.1,1.9-0.1,2.9-0.2s2.1-0.2,3.1-0.2h0.2
		c1.1-0.1,2.2-0.2,2.9-0.7c1.9-1.4,3.9-2.9,5.8-4.6c1.1-0.9,2-2,3-3.2c0.4-0.3,0.7-0.7,1-1.1s0.7-0.8,1.1-1.2
		c0.4-0.4,0.8-0.8,1.1-1.2c0.9-1,1.8-2,2.7-3c1.5-1.6,2.8-3.1,4.2-4.7c1-1.3,2.2-2.8,3.5-4.6c0.5-0.6,0.9-1.2,1.4-1.8
		c1-1.3,2.1-2.7,3.2-4c2.6-3,4.5-6.7,6-11.5s2.2-10,2.8-15l0.2-1.8c0.2-1.1,0.3-2.1,0.4-3.2c0.1-1,0.2-2,0.4-3
		c0.1-0.7,0.2-1.4,0.3-2.1c0.1-0.7,0.1-1.4,0.2-2.1l0.2-1.8c0.6-4.6,1.2-9.3,2.6-13.7c1.1-3.4,1.8-7.3,2.1-11.1
		c0.6-9.1-0.4-18.8-3-28.7c-0.4-1.2-0.8-2.4-1.3-3.6l-0.1-0.1h-0.2c-0.7,0.1-1.2,0.1-1.6,0.1c-5,0.6-9.2,3.1-11.9,4.9
		c-3,1.9-5.2,4.6-6.5,8.1c-1.6,4.1-1.6,8.4-1.5,13.1c0,0.5,0,1.1,0,1.6c0,1.1,0,2.3,0,3.5v0.2l1.2,0.2c1,0.1,1.9,0.3,2.9,0.4
		l1.4,0.2c0.5,0.1,1.1,0.1,1.7,0.1c0.3,0,0.6,0,0.9,0s0.6,0.1,0.9,0.1c1.6,0.2,2.8,1.4,2.8,2.9c-0.1,1.6-1.2,2.6-2.9,2.6
		c-0.1,0-0.1,0-0.2,0l-1.4-0.1c-2.9-0.1-5.1-0.4-7.2-0.8c-3-0.5-6-1.2-8.6-1.9c-0.5-0.1-0.9-0.2-1.4-0.3c-0.5-0.1-1-0.3-1.4-0.4
		c-2.2-0.6-4.4-0.6-6.4-0.6h-3.9v0.7l0.3,1.1c1.2,4.8,2.4,9.1,4.3,13.3c1.2,2.7,2.4,5.6,3.6,8.4c0.5,1.3,1.1,2.6,1.6,3.8l1.5,3.6
		l0.2,0.4c0.3,0.6,0.6,1.4,0.7,2.2c0.2,1.9,0.4,3.6,0.3,5.3c-0.1,1.3-0.9,2.1-2.3,2.2c-0.1,0-0.1,0-0.2,0c-1.2,0-2.1-0.7-2.6-2
		c-0.2-0.3-0.2-0.6-0.2-0.9v-0.5c-0.1-0.3-0.1-0.5-0.1-0.7s-0.1-0.5-0.1-0.7c-0.1-1.3-0.3-2.3-0.7-3.2c-0.6-1.6-1.3-3.2-2-4.7
		c-0.4-0.9-0.8-1.8-1.1-2.7c-0.5-1.2-1-2.5-1.6-3.8c-0.5-1.2-1-2.5-1.5-3.7c-1.6-3.9-2.7-7-3.7-10.2l-0.4-2.7l-0.3-0.9
		c-1.3-4.3-2.7-8.7-4.3-13c-3.3-8.3-6.1-16.1-8.6-23.8c-2.2-6.7-5.3-15.5-9.9-23.4c-2.1-3.8-3.4-7.9-4.2-12.9l-0.3-2.7v-0.3
		c-0.2-1.4-0.4-2.9-0.8-4.3c-3.2-10.6-6.5-20.8-9.3-29.6c-0.3-1.1-0.9-2.4-1.8-3.7c-3.1-4-6.6-8.5-10.7-13.7c-1.1-1.4-2.5-2.7-4-3.8
		c-0.8-0.6-1.7-1.1-2.5-1.7c-0.8-0.5-1.7-1.1-2.5-1.6l-0.8-0.5c-1.9-1.3-3.9-2.6-5.7-4c-3.2-2.5-6.7-4.6-10.8-6.3
		c-1.8-0.7-3.6-1.4-5.2-2.2c-3.7-1.9-7.8-2.8-12.5-2.8c-0.2,0-0.5,0-0.7,0c-9,0.2-17.3,2.7-24.7,7.5c-10.4,6.7-20.5,13.3-31,19.2
		c-0.3,0.2-0.7,0.4-1.1,0.6c-1.3,0.6-2.3,1.2-3.1,1.8c-4.4,2.8-9,5.2-13.7,7.1l-1.6,0.7c-5.5,2.3-11.3,4.7-17.1,7.3
		c-8.1,3.6-17.8,7.4-28.7,7.4c-0.9,0-1.8,0-2.7-0.1c-3.6-0.2-6.3-0.7-9-1.6c-1.4-0.5-2.7-0.8-4.2-1.1c-0.5-0.1-1-0.2-1.5-0.4
		c-0.5-0.1-1-0.2-1.4-0.3c-0.5-0.1-1-0.3-1.5-0.4h-0.2v0.3H154c0,0.2-0.1,0.5-0.2,0.7c-0.1,0.3-0.1,0.5-0.2,0.8
		c-0.1,0.3-0.2,0.5-0.2,0.8l-16.5,60c-0.3,1.1-0.5,2-0.6,2.8c-0.4,4-0.8,8.2-1,12.4c-0.2,4.2-0.3,8.4,0.8,12.3
		c1.3,4.8,2.3,8.6,3.1,12c1.4,6.5,2.5,13.4,3.3,21.3c0.2,2.5,0.5,5,0.8,7.5c1,8.4,2,17.3,2.5,26.1c0.1,1.9,0.2,3.8,0.4,5.7
		c0.1,0.8,0.1,1.6,0.2,2.4c0.3,3.4,0.6,7.1,0.8,10.7c0.4,5.5,0.8,11.6,0.7,17.8v1.5c-0.1,37-0.2,75.2-0.5,112.7
		c0,5,0.7,9.6,2.2,14.1c1.3,3.8,3.4,6.2,6.8,7.9c2.3,1.2,4.8,2.7,7,4.3c3.2,2.5,6.5,4.4,10.2,5.9l4,1.6c4.8,1.8,9.6,3.7,14.4,5.7
		c6.6,2.8,13.9,4.6,22.3,5.6c8.5,1,17.1,2.2,25.5,3.4l5,0.7c1.2,0.2,2.5,0.4,3.8,0.5c1.3,0.2,2.5,0.3,3.8,0.5c7,1,13.3,1.9,19.8,1.9
		c0.9,0,1.9,0,2.8-0.1c1.6-0.1,3.2-0.1,5-0.1c2.2,0,4.3,0.1,6.6,0.1c0,0,1.2,0,1.6,0c8,0,15.8-0.9,22.3-1.7l0,0c1.5,0,3-0.3,4.4-0.5
		c0.3-0.1,1.1-0.2,1.1-0.2c0.3,0,0.8-0.1,1.3-0.2h0.2 M417.3,338.7c-1.4,0-2.3,0.6-3.1,2.1l-2.3,4.5c-1.8,3.4-3.6,6.8-5.4,10.3
		c-5.1,9.7-10.4,19.8-15.7,29.5c-2.1,3.8-2.3,6.8-0.7,10c0.7,1.4,1.3,2.8,1.8,4.3l0.4,0.9c0.2,0.4,0.3,0.8,0.5,1.3
		c0.2,0.4,0.3,0.8,0.5,1.2v0.1h5.3c1.3,0,2.7,0.1,4,0.2c1.9,0.2,4,0.5,6.7,1.1c0.3,0.1,0.6,0.1,0.9,0.2s0.7,0.2,1,0.2h0.2v-0.2
		c0.1-0.6,0.1-1.1,0.1-1.6v-3.5c0-0.4,0-0.8,0-1.2c0-1.6,0-3.3,0.2-5c1-8.8,4.7-14.9,11.2-18.8c2.8-1.6,6.4-3.6,9.9-4.6h0.1v-0.1
		c0.3-0.6,0.6-1.2,0.8-1.8c0.2-0.4,0.4-0.9,0.6-1.3s0.4-0.9,0.6-1.3c2.9-4.7,5.8-9.4,8.6-14c0.9-1.4,1.8-2.9,2.6-4.3
		c0.9-1.4,1.8-2.9,2.7-4.3c0.3-0.4,0.6-0.9,0.9-1.5c0.2-0.3,0.4-0.6,0.6-1l0.2-0.3l-1.3-0.1l-1.3-0.2c-1.3-0.1-2.4-0.3-3.5-0.3
		c-1.5-0.1-3-0.1-4.5-0.1s-3,0-4.5-0.1h-0.9c-5.6-0.1-11.3-0.2-16.9-0.4C417.5,338.7,417.4,338.7,417.3,338.7z M192.7,202.9
		c-3.8,0-7.5,0.2-11.4,0.4H181c-3.5,0.2-6.6,1.6-9.5,4.2c-8.7,7.6-14.6,15.6-18.1,24.5c-0.7,1.8-1.5,3.7-2.2,5.5
		c-1.6,4.1-3.3,8.3-5.1,12.4c-2.3,5.4-3.7,10.2-4.4,14.6c-0.2,1.5-0.5,3-0.8,4.5l-0.1,0.8c-0.7,3.5-1.3,7-1.1,10.7
		c0.1,1.5,0.3,2.8,0.8,4.1c1.2,2.8,2.5,5.5,3.8,8.2c1.3,2.7,2.6,5.4,3.9,8.2c1.1,2.5,2.9,4,5.7,4.6c0.4,0.1,0.8,0.2,1.3,0.3
		c0.4,0.1,0.8,0.1,1.2,0.2l0.4,0.1c2.2,0.5,4.4,1,6.5,1.7c3.1,1.2,6.5,1.7,10.4,1.7c2.2,0,4.5-0.2,7.4-0.5
		c5.5-0.8,11.4-2.6,17.5-5.4c3.3-1.6,6.8-3.1,10.1-4.5l4.2-1.8c0.8-0.4,1.5-0.7,2.3-1.1c0.8-0.3,1.5-0.7,2.3-1
		c4.4-1.9,8-3.5,11.2-5.1c1.8-0.8,3.4-1.9,5.1-2.9l0.4-0.3c0.7-0.5,1.4-1,2.1-1.4c1.8-1.2,3.7-2.3,5.5-3.4c0.7-0.4,1.4-0.8,2.1-1.2
		c6.9-4.1,14.3-8.5,21.3-13.2c7.1-4.6,13.5-7.5,20.1-8.9c2.6-0.5,6.5-1.3,10.9-1.3c5.5,0,10.4,1.1,14.9,3.5c2.3,1,4.7,2,7.1,3
		c2.2,0.9,4.4,1.8,6.6,2.8l0.3,0.1v-2.7c0.1-1.9,0.1-4,0-6c-0.4-4.3-2.2-7.1-5.3-8.5c-3.4-1.6-6.6-4.2-9.8-7.9
		c-2.2-2.4-4.1-4-6.3-5.1c-2.9-1.6-5.8-3.2-8.6-4.8c-1.4-0.8-2.8-1.5-4.2-2.3s-2.9-1.6-4.3-2.4c-6.1-3.4-12.9-6.7-20.6-8.4
		c-3.4-0.7-7-1.7-11.5-3.2c-1.2-0.4-2.4-0.8-3.5-1.3c-1.4-0.5-2.6-1-3.8-1.3c-0.7-0.3-1.5-0.6-2.2-0.8c-0.7-0.3-1.5-0.5-2.2-0.8
		c-0.5-0.2-0.9-0.3-1.3-0.5c-0.4-0.2-0.9-0.4-1.3-0.5L239,210c-1.7-0.7-3.4-1.3-5.3-1.8c-5.8-1.4-10.7-2.3-15.1-2.9
		c-1.9-0.3-3.9-0.4-5.8-0.6c-1-0.1-1.9-0.2-2.9-0.3c-2.2-0.2-4.4-0.4-6.6-0.7C199.8,203.1,196.3,202.9,192.7,202.9z M307.7,135.3
		c-5,0-9.8,1.1-14.1,3.3c-3.9,2.1-6.1,4.9-6.7,8.7c-0.2,0.8-0.3,1.6-0.4,2.4c-0.1,0.9-0.2,1.7-0.4,2.5c-0.2,0.9-0.3,1.8-0.4,2.7
		c-0.3,2.3-0.6,4.6-1.2,6.9c-0.7,3.1-2.8,4.9-6.2,5.1c-2.1,0.1-4.1,0.4-6.1,0.7c-1.9,0.4-3.8,0.8-5.6,1.2c-2.3,0.6-4.9,1.1-7.8,1.5
		c-3.5,0.4-5.5,2.2-6.8,5.9c-0.1,0.4-0.2,0.7-0.3,1.1c-0.1,0.4-0.2,0.7-0.3,1.1c-0.2,0.9-0.4,1.6-0.7,2.3l-0.9,3l-0.2,0.6
		c-1.5,4.8-3.1,9.8-3.9,14.8c-0.4,2.6-0.5,4.7-0.3,6.7v0.1h0.1c0.2,0,0.4,0.1,0.6,0.2c0.2,0.1,0.4,0.2,0.6,0.2l3,1
		c0.7,0.2,1.5,0.5,2.2,0.7c0.7,0.3,1.5,0.5,2.2,0.8c0.7,0.2,1.5,0.5,2.2,0.8c0.4,0.1,0.7,0.3,1.1,0.4l0.7,0.3
		c1.6,0.6,3.3,1.3,4.9,1.6c10.3,2.1,20.4,6.1,30,12c2.4,1.8,5.1,3.1,7.9,4.5l0.6,0.3c0.5,0.2,0.9,0.4,1.4,0.7
		c0.3,0.1,0.5,0.3,0.8,0.4l0.2,0.1l0.1-0.1c2.6-3.7,5.9-5.8,10.1-6.6c2.5-0.4,5.1-1.2,7.1-1.8c3.2-0.9,5.4-3.1,6.4-6.2
		c0.6-1.7,1.2-3.4,1.8-5.2c2-5.9,4.6-13.2,5-20.7c0.1-2.2,1.5-3.2,3-4c2.3-1.1,4.4-2.4,6.5-3.7l0.7-0.4l1.4-0.8
		c0.7-0.5,1.2-1,1.4-1.4l0.1-0.7c0.2-2.1,0.4-4-0.6-5.9c-1.1-2.1-2.8-3.8-5.1-5.3c-2.2-1.3-2.7-2.6-2.1-5.2c0-0.4,0.2-0.8,0.4-1.2
		c0,0,0.1-0.1,0.1-0.2c0,0,0-0.1,0.1-0.1c0.4-0.9,0.8-1.7,1.1-2.5c0.4-0.8,0.8-1.7,1.1-2.5c1.7-3.7,3.2-6.9,4.4-9.8
		c0.8-1.9,1.1-3.4,1.1-5c0-4.9-0.1-8.6-0.4-11.9c-0.1-2.3-0.3-4.6-0.5-6.8c-0.2-2.2-0.4-4.5-0.6-6.8c-0.3-3.7-0.5-7.5-0.7-11.2v-0.6
		v-0.6c-0.2-2.4-0.4-2.6-2.8-2.6c-0.7,0-1.4,0-2.1,0.1c-0.7,0-1.4,0-2.1,0s-1.3,0-2,0s-1.4,0-2.1,0s-1.4,0-2,0c-0.1,0-0.2,0-0.3,0
		c-2.8,0-4.4,1.3-5.2,4.3c-0.3,1.2-0.6,2.4-0.8,3.6c-0.1,0.6-0.1,1.1-0.2,1.6c-0.1,0.5-0.2,1.1-0.2,1.6l-0.1,0.4
		c-0.2,0.9-0.3,1.8-0.4,2.8c-0.7,4.1-1.4,8.8-1.3,13.5c0,3.1-0.5,6.3-1.7,10c-1.4,4.4-3,5.3-5.2,5.3c-1,0-2.1-0.2-3.2-0.4h-0.3
		c-2.3-0.5-3.8-1.9-4.5-4.1l-0.3-0.9c-0.3-0.9-0.6-1.7-1-2.6l-0.1-0.1h-0.2V135.3z M259.8,59.6c-1,0-2.2,0.2-3.5,0.5l-0.6,0.1
		c-1.7,0.3-2.6,1.3-3,3c-0.3,1.6-0.7,3.2-1.1,4.8c-1.6,7.3-5.7,13-12.6,17.2l-10.8,6.6L228,92c-0.8,0.5-1.6,1-2.2,1.8
		c-5.5,5.6-8.9,11.5-10.3,18.2c-1.3,5.9-0.8,11.8-0.2,16.3c0.7,6,3,11.1,6.7,15.1c0.7,0.7,1.2,1.6,1.8,2.4l0.4,0.6
		c0.2,0.3,0.3,0.5,0.5,0.7c0.1,0.1,0.2,0.3,0.2,0.4c0.4,0.6,0.9,1.3,1.3,1.9c1.1,1.6,2.1,3,3.1,4.6c1.5,2.4,3.2,4.8,4.8,7.2
		c0.8,1.2,1.6,2.4,2.4,3.6c0.5,0.9,1.2,1.6,1.9,2.3c0.2,0.3,0.5,0.6,0.8,0.9c1.8,2,3.9,3,6.4,3c0.2,0,0.5,0,0.7,0
		c1.4-0.1,2.2-0.3,2.9-1.4c2-2.8,4.8-4.3,8.6-4.6c1.8-0.1,3.6-0.5,5.5-0.9c0.9-0.2,1.6-0.4,2.2-0.5c0.8-0.1,1.5-0.2,2.2-0.4l0.4-0.1
		c2.4-0.6,5-1.1,7.7-1.5h0.3c3-0.4,3.1-0.5,3.6-3.6c0.1-0.2,0.1-0.4,0.1-0.6s0-0.4,0.1-0.5l0.2-1.5c0.5-3.5,1.1-7,1.8-10.5
		c0.6-3.2,2.3-6,5.2-8.3c5.4-4.3,11.9-6.5,20.7-6.7c2.6,0,4.3,1.2,5.1,3.6c0.1,0.2,0.2,0.4,0.3,0.6s0.2,0.4,0.3,0.6
		c0.2,0.5,0.4,1,0.6,1.6c0.4,1.2,1,1.8,1.9,1.8c0.2,0,0.3,0,0.5,0h0.1V138c1.2-3,1.8-6,1.9-9.2c0.1-3.2,0.3-6.4,0.6-9.6
		c0.3-2.7,0.6-5.4,1.2-9l0.2-1.2c0.5-3,1-6.2,2.6-9c1.8-3,4-4.6,6.7-4.7c3.5-0.1,7.3-0.2,10.7-0.2c2.1,0,3.9,0,5.7,0.1l0,0
		c1.8,0,3.1-0.1,4.5-0.4h0.2l-0.1-0.2c-0.6-1.7-1.6-2.6-3.1-3.7c-3.8-2.9-7.8-5.3-11.2-7.3c-3-1.7-5.9-3.6-8.8-5.4l-2.1-1.3
		c-2.5-1.6-5.1-3.2-7.6-4.7l-0.1-0.1c-3.1-1.9-5.8-3.3-8.5-4.4c-9-3.9-19-6.3-30.7-7.4c-3.3-0.3-7.1-0.4-11.4-0.4h-7.5V59.6z"/>
</g>
</svg>
