<?xml version="1.0" encoding="utf-8"?>
<!-- Generator: Adobe Illustrator 25.2.3, SVG Export Plug-In . SVG Version: 6.00 Build 0)  -->
<svg version="1.1" id="레이어_1" xmlns="http://www.w3.org/2000/svg" xmlns:xlink="http://www.w3.org/1999/xlink" x="0px"
	 y="0px" viewBox="0 0 1024 640" style="enable-background:new 0 0 1024 640;" xml:space="preserve">
<style type="text/css">
	.st0{fill:#FFFFFF;}
</style>
<g>
	<path d="M946.5,539.1c-13.4,0.8-26.7,1.6-40.1,2.5c-17.7,1.1-35.4,2.1-53.1,3.2c-12.5,0.8-25,1.5-37.4,2.3
		c-12.5,0.8-24.9,1.7-37.4,2.5c-10.3,0.7-20.6,1.3-30.8,1.9c-14.1,0.9-28.1,1.8-42.2,2.6c-11.1,0.7-22.2,1.3-33.3,2
		c-10.4,0.7-20.9,1.4-31.3,2c-7.9,0.5-15.9,1-23.8,1.5c-5.2,0.3-10.4,0.6-15.6,0.9c-1.5,0.1-1.8,0.3-1.9,1.9
		c-0.2,2.9-0.3,5.9-0.4,8.9c-0.6,13.5-1.3,26.9-1.9,40.4c-0.1,1.8-0.6,2.5-2.5,2.9c-5.2,1.2-10.5,2.4-15.7,3.6
		c-6.3,1.5-12.5,3.1-18.7,4.6c-1.3,0.3-2.5,0.8-3.8,1.2c0.1,0.2,0.1,0.4,0.2,0.7c1.7-0.2,3.5-0.3,5.1-0.7c3.8-1,7.2,0,10.2,2.4
		c0.2,0.2,0.5,0.3,0.8,0.5c0.1,0,0.1,0,0.5,0.1c0.3-0.4,0.8-0.8,1.2-1.4c0.7-1,1.4-2,2.1-2.9c3.6-4.3,9.3-5.2,14.2-2.4
		c1.3,0.7,2.1,1.7,2.3,3.2c0.2,1.3,0.5,2.5,0.5,3.8c0.1,3.4,0,6.8,0,10.2c0,0.7-0.1,1.3-0.2,2.1c-1.7,0-3.2,0-5,0c0-1,0-2,0-2.9
		c0.1-3.3,0.3-6.5,0.4-9.8c0.1-2.6-0.7-3.2-3.3-3c-2.8,0.3-4.8,1.7-6.2,4.1c-1.9,3.1-3.5,6.4-4.4,9.9c-0.1,0.5-0.3,1-0.5,1.6
		c-1.6,0-3.3,0-5.2,0c0-1.9-0.1-3.8-0.1-5.6c0-3.4-1.2-4.9-4.6-5.2c-1.7-0.1-3.3-0.1-5,0c-1.6,0.1-2.6,1.1-3.3,2.5
		c-1.1,2.2-2.2,4.3-3.3,6.5c-0.7,1.3-1.5,2.2-3.1,1.9c-1.1-0.2-2.2,0-3.6,0c0.8-3,2.8-5.3,3.4-8.5c-0.7,0.1-1.1,0.1-1.3,0.3
		c-4.2,3.4-9.3,4.2-14.5,4.5c-10.4,0.6-20.7,0.3-31-1.2c-6.4-0.9-12.8-1.3-19.2-1.9c-5.7-0.5-11.5-0.9-17.2-1.4
		c-0.6-0.1-1.2-0.2-1.8-0.4c-1.1-0.4-1.8-1.1-1.9-2.3c0-1.1,0.8-2.1,2-2.5c0.5-0.2,1-0.2,1.6-0.2c10.9,0.7,21.7,1.6,32.6,2.9
		c11.9,1.5,23.8,2.6,35.8,1.5c2.5-0.2,5.1-0.8,7.5-1.6c4.6-1.6,7.3-6.7,6.4-11.5c-0.7-3.9-4.9-7.1-9.5-7.1c-3.9,0-7.9,0.3-11.8,0.5
		c-5.2,0.3-10.4,0.8-15.6,1.1c-4.7,0.3-9.3-0.4-13.9-2c-5-1.7-10.2-2.1-15.4-2.4c-3.2-0.2-6.4-0.1-9.5-0.2c-1.2,0-2.1,0.3-3,1.3
		c-1,1.2-2.3,1.4-3.4,0.8c-1.1-0.6-1.6-1.8-1.2-3.4c1.9-5.9,3.4-12,6.2-17.5c2.8-5.4,6.7-9.8,11.3-13.8c2.3-2,4.4-4.3,6.6-6.5
		c0.7-0.7,1.1-1.6,1.1-2.6c0-4.5,0.1-9.1,0.1-13.6c0-2.1-0.1-4.2-0.1-6.4c-0.1-1.5-0.2-1.7-1.7-1.8c-2.2-0.3-4.4,0.1-6.4,1.1
		c-9.4,4.4-17.7,10.4-25.5,17.2c-1.3,1.1-2.4,2.5-3.4,3.9c-2.8,3.9-5,8.1-6.5,12.7c-0.6,1.7-1.1,3.5-1.5,5.2
		c-1.6,8.2-5.3,15.2-10.2,21.8c-3,4-5.9,8-7.7,12.8c-1.9,4.9-3.1,10-3,15.3c0,1.7,0,3.5,0,5.3c-1.8,0-3.4,0-5.2,0
		c-0.3-4.3-0.5-8.5,0.3-12.5s2.1-7.8,3.3-11.8c-1.4-0.6-2.7,0-4,0.4c-10.3,3-20.6,6.1-30.9,9.2c-14.3,4.2-28.6,8.5-42.9,12.7
		c-2.9,0.9-5.8,1.9-8.8,2.3c-2.6,0.4-5.3,0.1-8.2,0.1c-0.3-2.1-0.6-4.1-0.8-6.2c-1-10.4-3-20.7-6-30.7c-2.7-9.3-4.2-18.7-5.5-28.3
		c-1.6-12.1-3.4-24.1-5.5-36.1c-1.9-11-5.8-21.5-10.4-31.6c-2.9-6.5-7.1-11.9-12.8-16.2c-2.5-1.9-4.9-3.9-7.3-5.8
		c-1.6-1.2-3.3-2.2-5.4-2.2c-0.2,0-0.3,0-0.5-0.1c-1.6-0.3-2.4-1.1-2.4-2.5s0.8-2.3,2.4-2.6c2.3-0.4,4.5,0.2,6.5,1.5
		c2.2,1.5,4.4,3.2,6.6,4.8c1.5,1.2,2.9,2.5,4.4,3.6c5.4,4.2,9.4,9.6,12.5,15.7c5.7,11.1,9.3,22.8,11.8,35c1.9,9.1,3,18.4,4.2,27.6
		c1.2,9.6,2.1,19.3,4.8,28.6c3.1,10.8,5.4,21.7,7.3,32.8c0.3,1.8,0.4,3.6,0.6,5.4c0.1,1,0.3,1.9,0.5,2.8c1.5,0.6,2.6-0.1,3.7-0.4
		c20.6-6,41.2-12.1,61.9-18.2c8.6-2.5,17.3-5.1,25.9-7.6c2.1-0.6,3.7-1.7,5.1-3.5c5.4-7,9.1-14.7,11.1-23.4c2.3-10.4,7.6-19.2,16-26
		c7.2-5.8,14.7-11.1,23.2-15.1c2.8-1.3,5.6-2.2,8.7-2c2,0.1,2.2-0.1,2.2-2.2c-0.1-7.8-0.2-15.6-0.4-23.4c0-2.1-0.3-4.3,0.8-6
		c1.6-2.5,3.5-4.7,5.5-6.9c0.5-0.5,1.6-0.6,2.5-0.7c1.3-0.1,2.7,0.1,4-0.1c17.4-3.1,34.9-6.3,52.3-9.4c13-2.3,26.1-4.7,39.1-7
		c1.5-0.3,3-0.6,4.5-0.6c2.9-0.1,4.4,1.4,4.3,4.3c-0.1,3.6-0.3,7.3-0.4,10.9c-0.5,9.5-0.9,19.1-1.4,28.6c-0.1,2.7-0.5,5.4-0.6,8.2
		c-0.1,2.2,0.2,2.5,2.5,2.4c7.4-0.2,14.8-0.3,22.2-0.7c8.6-0.4,17.2-1.1,25.8-1.7c7.3-0.5,14.7-1,22-1.5c9.4-0.7,18.9-1.4,28.3-2.1
		c9.3-0.7,18.6-1.4,27.9-2c5.6-0.4,11.2-0.7,16.8-1.1c0.9-0.1,1.9-0.3,3.1-0.5c-0.2-0.9-0.3-1.6-0.6-2.1
		c-7.8-17.4-13.9-35.5-21.1-53.2c-1.6-3.9-3.4-7.6-5-11.5c-1-2.3-1.7-4.7-2.6-7c-0.3-0.9-0.7-1.8-1.1-2.7c-1.4-3-2.8-6-4.2-9
		c-3.3-7.2-6.7-14.4-10-21.6c-0.9-2-1.8-4-2.7-6c-5.6-13.7-14-25.7-23.2-37.3c-3.7-4.6-6.9-9.6-10.6-14.2
		c-3.6-4.4-7.6-8.4-12.4-11.6c-3.3-2.2-6.6-4.5-9.9-6.9c-7.1-5.1-14.9-8.9-23.4-11.3c-4.9-1.4-9.5-3.6-14.1-5.6
		c-4.7-2-9.3-4.1-13.9-6.1c-2.4-1-4.8-1.8-7.3-2.6c-4.3-1.4-8.6-2.8-13-4.2c-5-1.6-9.7-3.8-14.3-6.3c-3.3-1.9-3.7-1.8-5.7,1.5
		c-2.3,3.7-4.5,7.6-6.7,11.3c-1.1,1.8-2.2,3.6-3.3,5.4c-3.3,5.6-7.2,10.6-11.8,15.3c-2.5,2.5-4.8,5.2-7.2,7.9
		c-2.1,2.3-4.5,4.3-7.2,5.8c-13.6,7.4-27.7,13.2-42.7,16.9c-7,1.7-14.1,1.6-21.2,1.4c-4.3-0.1-10-0.5-14.2-1.5
		c-3.1-0.7-4.8-1-7.9-1.5c-2.8-0.5-5.6-1.5-8.3-2.2c-1.5-0.4-3-1-4.4-1.8c-6.5-3.5-12.9-7-19.4-10.5c-6.3-3.5-12.3-7.4-17.6-12.4
		c-6.7-6.3-11.9-13.7-14.6-22.7c-1.4-4.8-2.8-9.6-4.1-14.4c-0.2-0.6-0.4-1.2-0.7-2.1c-2.7,1.4-4.7,3.1-6.5,5.2c-1.3,1.5-2.6,3-4,4.3
		c-2.1,1.9-4.5,3.3-7.2,4.3c-3.7,1.4-7.4,2.8-11,4.2c-1.7,0.7-3.2,1.6-4.8,2.5c-3,1.7-5.9,3.5-8.8,5.1c-9.2,5-18.5,9.7-27.5,15
		c-8.8,5.2-17.3,10.9-25.3,17.3c-2.8,2.2-5.7,4.3-8.4,6.5c-7.1,5.9-14.3,11.8-19.5,19.5c-1.1,1.6-2.2,3.3-3,5.1
		c-4.5,10-10.1,19.3-15.5,28.8c-1.4,2.5-2.8,5-4.1,7.6c-3.1,6.1-4.3,12.7-5,19.5c-0.8,7.2-1.7,14.4-2.8,21.6
		c-0.8,5.3-2.3,10.5-3.1,15.8c-1,6.3-1.6,12.6-2.2,19c-1.1,11.7-2.7,23.3-4.9,34.9c-3,16.2-5.9,32.5-8.9,48.7
		c-2.9,15.9-5.8,31.7-8.7,47.6c-0.2,1-0.4,1.9-0.7,3c-1.7,0-3.3,0-5.2,0c0.3-2.2,0.6-4.4,1-6.5c3.1-16.9,6.2-33.8,9.3-50.7
		c3.5-19.1,7.1-38.3,10.3-57.4c1.3-7.5,1.9-15,2.6-22.6c1-10.9,2.4-21.8,5.2-32.5c1-3.8,1.2-7.8,1.7-11.7c0.5-4.4,1-8.7,1.5-13.1
		c1-8.6,4.1-16.5,8.5-24c5.8-9.8,11.4-19.7,16.3-29.9c3-6.3,7.4-11.7,12.4-16.7c6.3-6.3,13.3-11.7,20.2-17.3
		c7.3-6,15.1-11.5,23.3-16.3c5.8-3.4,11.8-6.5,17.7-9.8c6.9-3.8,13.8-7.5,20.7-11.3c4.9-2.7,10.2-4.6,15.5-6.4
		c2.2-0.7,4.1-1.9,5.8-3.5c5.2-5,10.7-9.6,16.9-13.4c4.6-2.8,8.8-6.3,12.7-9.9c3.7-3.4,6.2-7.6,7.9-12.3c0.7-2,0.8-4.3,0.8-6.5
		c0-3.6-0.1-7.1,0.2-10.7c0.2-2.5-0.2-5.2-0.9-7.6c-2.3-8.6-4.7-17.2-7.1-25.8c-0.5-1.9-1.5-3.6-2.2-5.5c-0.6-1.4-1.6-2.2-3.1-2.4
		c-0.8-0.1-1.6-0.3-2.5-0.4c-4.4-0.1-8.3-1.5-12.1-3.6c-5-2.8-9.4-6.5-12.7-11.1c-2-2.8-3.8-5.8-5.6-8.8c-1.6-2.7-2.1-5.8-2.5-8.9
		c-0.7-5.8-1.1-11.6-0.3-17.4c0.3-2.4,1.1-4.7,1.8-7c0.8-2.2,1.5-4.4,1-6.8c-0.2-0.9-0.1-2-0.1-2.9c0-3.1-0.7-6-2-8.8
		c-0.8-1.7-1.7-3.4-2.5-5.1c-1.3-2.7-2.1-5.5-2.3-8.5c-0.3-3.8-1.6-7.4-3.2-10.8c-1.8-4-2.2-8-1-12.2c0.7-2.5,1.7-5,2.5-7.5
		c1-3.2,2.1-6.5,3-9.8s0.9-6.6,0.2-9.9c-1.1-5-1.3-9.9,0.4-14.8c0.6-1.7,1.2-3.4,2.2-5c3.7-6,8.1-11.3,13.8-15.5
		c1.6-1.2,3.1-2.6,4.6-4c0.1-0.1,0.2-0.2,0.3-0.3c4-2.6,6.7-6.6,10.8-9.2c4-2.6,7.7-5.6,11.7-8.3c9.5-6.6,21.9-10.9,32.4-14
		c8.2-1.9,19.9-2.8,28.3-2.7c6.5,0.1,8.6,1.1,15.1,1c5.5-0.1,10.5,1.2,15,4.2c0.9,0.6,6.7-1.2,7.8-1.5c6-1.4,7-1.3,12.9-2.3
		c3.6-0.6,7-1,10.6-1.3c2.3-0.2,5.3,0,7.5,0c4.3,0,8.5,0.7,12.3,2.2c5.7,2.2,10.6,4.4,16.3,6.7c2.5,1,4,3,6,4.8
		c3.9,3.5,8.3,6.6,12.2,10.1c1,0.9,1.8,1.8,2.8,2.6c1.9,1.7,4.4,3.4,6.1,5c1.8,1.2,4.7,3.3,6.1,4.9c2.2,2.1,3.9,4.2,5.2,7
		c1.5,3.2,3,6.1,4.1,9.4c0.9,1.6,1.7,3.5,1.8,5.4c0.4,7.5-0.2,14.8-2.7,22c-2.1,6-2.7,12.3-3,18.5c-0.3,5.2-0.9,10.2-1.9,15.3
		c-0.9,5.2-1.3,10.5-1.9,15.8c-0.7,6.1-1.4,12.2-2.1,18.3c-0.5,4.4-0.7,8.8-1.2,13.1c-0.9,7.8-2,15.6-2.9,23.4
		c-0.4,3.2-0.5,6.4-1.2,9.4c-2.3,9.4-4,19-7.8,28c-3.9,9.3-7.7,18.6-11.5,27.9c-2,4.8-3.9,9.5-5.9,14.3c-2.7,6.3-5.9,12.4-9.4,18.5
		c2.7,3.8,6,6.9,10.2,9.1c2.8,1.4,5.5,2.8,8.4,4c1.7,0.7,3.5,1.1,5.2,1.5c4.8,1.1,9.3,2.6,13.7,4.8c2.4,1.2,4.9,2,7.4,3
		c2.8,1.1,5.6,2.2,8.5,3.2c1.8,0.7,3.7,1.3,5.6,1.8c4.8,1.1,9.2,3.3,13.7,5.3c8.2,3.6,16.3,7.3,24.8,10.2c7.7,2.6,15,6.1,21.4,11.2
		c2.1,1.6,4.4,2.9,6.7,4.2c3,1.8,5.9,3.7,8.4,6.2c0.6,0.6,1.3,1.3,2.1,1.8c2.8,1.7,4.7,4.2,6.6,6.8c2.3,3,4.8,5.9,7.2,8.8
		c1,1.2,2,2.3,2.8,3.6c4,5.9,8,11.8,12,17.7c2.2,3.3,4.4,6.5,6.5,9.9c1.6,2.6,2.9,5.3,4.2,8.1c4,8.5,8.1,17,12,25.5
		c3.8,8.2,7.8,16.2,10.7,24.8c1.8,5.1,4.2,10.1,6.1,15.2c4,10.3,7.9,20.7,11.9,30.9c3,7.5,6.2,15,9.3,22.4c0.6,1.5,1.6,2,3.2,1.9
		c8.2-0.6,16.5-1.1,24.7-1.7c8.8-0.6,17.5-1.4,26.3-2.1c11.6-0.9,23.1-1.7,34.7-2.6c7.1-0.5,14.2-1,21.3-1.5
		c9.6-0.7,19.2-1.4,28.8-2.1c7.4-0.5,14.8-1,22.2-1.5c10-0.7,19.9-1.4,29.9-2.1c1.4-0.1,122.2-9,123.8-9c0,1.6,0,4.5,0,6.2
		c-0.6,0.1-120.5,8-121.1,8c-13.6,1-27.2,1.9-40.8,2.9c-11.5,0.8-23,1.7-34.4,2.5c-7.3,0.5-14.5,0.9-21.8,1.5
		c-9.1,0.7-18.3,1.5-27.4,2.1c-8.9,0.7-17.8,1.3-26.7,2c-13.9,1-27.8,2-41.7,3c-7.7,0.5-15.4,1-23.1,1.5c-7.3,0.5-14.7,1.1-22,1.6
		c-7,0.5-14,1-21.1,1.6c-11.9,0.9-23.7,1.8-35.6,2.6c-9.9,0.7-19.8,1.3-29.7,1.9c-1.3,0.1-2.6,0.3-3.8,0.3c-2.7,0.1-5.4,0.2-8.2,0.2
		c-3.3,0-6.5-0.1-9.8,0c-1.8,0-2,0.3-2.1,2.2c-0.2,2.9-0.5,5.7-0.8,8.6c-0.2,2.1,0.1,2.6,2.3,2.5c4.3-0.2,8.6-0.5,12.9-0.8
		c7.5-0.5,15-1.1,22.4-1.6c15.9-1.1,31.9-2.1,47.8-3.1c13.8-0.9,27.5-1.6,41.3-2.5c12.9-0.8,25.7-1.7,38.6-2.5
		c8.4-0.5,16.8-1,25.2-1.6c13.2-0.9,26.3-1.7,39.5-2.6c5.6-0.4,11.2-0.7,16.8-1c13.7-0.9,27.4-1.8,41-2.6c10.6-0.7,21.2-1.3,31.7-2
		c8.5-0.5,142.1-10.7,150.5-11.3c0,2.8,0,3.2,0,5.5 M341.7,172.3c0,1.8-0.1,3.2,0,4.6c0.3,5.2,0.9,10.4,3.7,14.8
		c2.2,3.4,4.6,6.6,7.3,9.6c4.8,5.2,10.8,8.6,18.1,8.8c3.5,0.1,6.2,1.6,8,4.4c1.5,2.3,2.8,4.7,3.7,7.2c2.8,7.9,5.1,16,6.9,24.2
		c0.4,1.7,1,3.4,1.9,4.8c8.9,14,19.7,26.6,32.4,37.2c11.1,9.3,6.6,7,20.4,12.9c7,3,14.2,5.1,21.9,5.7c5,0.4,9.9,1.2,14.9,0.2
		c6.1-1.2,12.2-2.5,17.6-5.7c5-2.9,10-5.7,15-8.6c2.5-1.4,4.6-3.2,6.5-5.3c4.4-4.7,7.5-10.3,10.1-16.1c5.9-13.2,11.2-26.7,17.2-39.8
		c5.2-11.3,8.2-23.2,10.8-35.3c0.7-3.5,0.9-7,1.6-10.5c1.4-8,2.4-16,2.9-24.1c0.4-5.7,1.1-11.5,1.7-17.2c0.5-4.4,1-8.9,1.5-13.3
		c0.6-5.1,1.1-10.2,1.7-15.3c0.3-2.5,1.1-5,1.3-7.6c0.9-8.3,0.5-16.7,2.9-24.8c0-0.1,0-0.1,0.1-0.2c0.3-1-0.1-1.6-1-2
		c-3.5-1.4-5.7-4.1-7.6-7.3c-1.5-2.5-3-4.9-4.5-7.3c-1.5-2.3-3.6-3.9-6.4-4.4c-2-0.4-4-0.6-6.1-0.7c-9-0.4-17.8,0.2-26.6,2.5
		c-5.4,1.4-11,2.2-16.5,3.1c-2.6,0.4-5.3,0.4-7.9,0.5c-5.4,0.4-10.9,0.9-16.3,1.1c-9.9,0.5-19.9,0.6-30,0.7
		c-6.6,0-13.2,0.3-19.6,1.9c-4.6,1.1-9.1,2.3-13.6,3.5c-3.5,1-5.8,3.3-7.5,6.4c-4.2,7.6-8.5,15.2-12.9,22.7c-0.9,1.5-2.1,3-3.3,4.3
		c-2.3,2.3-4.1,5.4-6.6,7.6c-2.2,1.9-3.6,3.1-5.1,5.5s-2.9,3.7-1.6,6.6c1,2.5,0.8,6.6,0.9,9.3c0.1,6.1-1.8,11.6-5.1,16.7
		c-0.9,1.3-1.4,2.5-1,4.2c0.5,2.1-1.1,3.5-3.3,3.1c-1-0.2-1.9-0.5-2.8-1c-1.3-0.7-2.6-1.5-3.9-2.3c-2.6-1.7-5.1-3.5-7.7-5.2
		c-2.9-1.8-4.1-1.7-6.8,0.4c-1.8,1.4-3.1,3.1-4.1,5.1C342.2,162.4,341.3,167.4,341.7,172.3z M378.3,113.8c1.9-2.1,3.7-4.2,5.8-6.1
		c3.3-3.1,6.1-6.5,8.2-10.5c3.8-6.9,7.7-13.7,11.7-20.5c2.8-4.8,3.5-7.4,9.1-8.4c2.3-0.4,8.7-2.5,11-3.1c5.9-1.5,11-2.3,17.1-2.4
		c19.6-0.3,25.3-0.6,41.7-0.8c0.9,0,15.7-0.7,16.6-0.9c0.9-0.2,6.5-0.6,7.4-0.7c1.6-0.2,3.5-0.7,5.1-1c3-0.6,5.3-1.1,8.3-1.9
		c5.4-1.5,12-2,17.7-1.8c5,0.1,6.8-0.2,11.8,0.1c4.9,0.3,10.3,3.1,13.2,7.3c1,1.6,2.1,3.2,3.1,4.8c0.9,1.4,1.7,2,2.7,3.3
		c0.9,1.3,1.9,2.6,3.1,3.7c1.1,1,2.1,1.4,2.5-0.1c0.1-0.4,0.1-0.8,0.1-1.1c0.4-2.4,0.3-4.8,0.7-7.2c0.5-3.2-0.1-6.2-1.6-9
		c-0.5-0.9-2.2-2.8-2.3-3.7c-1.3-2.2-0.4-1.4-1.3-3.2c-1.3-2.5-2.1-4.2-4.3-6c-3.1-2.5-8.7-7.5-11.6-10.2
		c-5.6-5.1-7.7-6.8-13.4-11.8c-1.3-1.1-4.1-3.8-5.7-4.5c-6-2.6-10.1-5.1-16.2-7.5c-4.7-0.9-8.9-1.4-10.9-1.4c-9-0.1-12,0.7-21,1.5
		c-2.5,0.8-8,1.5-10.6,2c-1.2,0.2-1.3,0.5-2.5,0.8s-3.2,0.8-4.3,0.4c-1-0.5-4.2-1.5-5.2-2.1c-3.5-2.2-4.1-1.2-8.4-2.4
		c-5-0.9-11.1-1.1-16.1-1.1l0,0c-2.3,0-4.5,0-6.8,0c-7.2-0.2-16.9,2.6-23.9,4.1c-11.8,4.1-17.8,5.6-28.9,12.9
		c-3.6,2.6-7.3,5.5-10.8,8.2c-1.2,0.9-3.3,2.4-4.4,3.5c-0.9,1-4.1,3.8-5.1,4.7c-3,2.5-4.9,3.6-7.7,6.3c-3.3,3-2.9,2.8-5.9,6.1
		c-1.9,2-4,3.5-4.8,6.1c-1.4,4.5-1.7,11.6-0.8,16.2c0.8,4.2-0.3,10.3-1.4,14.4c-1.2,4.7-2.1,7.3-3.9,11.8c-1.6,4.1-1.2,9.9,0.5,13.8
		c1.7,4.2,2.2,7.1,3.2,11.4c0.4,1.5,1,4.8,1.6,6.2c1.5,3.3,1.7,4.6,3.2,7.8c0.7,1.5,1.9,2.6,3.5,3c1.2,0.3,3.8-0.1,5.1-0.1
		c2.4,0,3.4,1.1,5.4,2.4c2.1,1.4,4.2,2.8,6.2,4.2c1.8,1.2,2.6,1.3,4.2-0.2c0.8-0.7,1.5-1.6,1.9-2.5c1-2.1,1.8-4.3,2.7-6.5
		c0.2-0.6,0.5-1.3,0.4-2c-0.1-2.8-0.8-3.9-1-6.7c0-0.6-0.7-4.2-0.6-4.8c0.2-2.6-0.2-2.2,0-4.8c0.1-1.1,2.2-5.2,3-6.1 M526.1,290.3
		c-0.6,0.4-0.8,0.5-1.1,0.7c-4,3.2-8.1,6.3-12.8,8.5c-0.8,0.4-1.6,0.9-2.3,1.4c-6.7,4-13.4,7.8-21.2,9.5c-5.5,1.2-11,2.1-16.6,1.8
		c-2.6-0.1-5.3-0.5-7.9-0.8c-5.7-0.6-11.3-2-16.8-3.8c-4.8-1.6-9.4-3.7-14.1-5.8c-1.9-0.9-3.6-2.2-5.3-3.5
		c-5.6-4.3-10.6-9.3-15.6-14.2c-5.7-5.4-10.9-11.1-15.7-17.3c-1.2-1.5-2.4-3.1-3.6-4.7c-0.5-0.6-1.5-0.5-1.5-0.5c0,0.7,0,1,0,1.7
		c0,2.2,0.3,2.2,0.3,4.4c-0.4,2.9-0.8,6.2-2.2,10.2c-2.8,6.5-4.1,7.5-7,10.8c-2.3,1.9-10.1,8.2-12.6,9.9c-1.6,1.1-2.3,2.5-2,4.5
		c0.1,1,0.3,2,0.5,2.9c1,3.4,1.9,6.9,3,10.3c4.8,15.2,14.5,26.2,28.4,33.7c7,3.8,14.1,7.4,21.1,11c1.5,0.8,3.1,1.3,4.7,1.8
		c3.9,1.1,7.9,2.1,11.9,3.1c4.6,1.2,9.1,2.2,13.9,2c2.7-0.1,5.5,0,8.2,0c7.5,0,14.8-1.1,21.9-3.6c10.1-3.6,20.1-7.5,29.8-12.3
		c4.5-2.2,8.3-5.2,11.6-8.9c1.6-1.8,3.2-3.6,4.9-5.3c4.9-4.9,9.2-10.3,12.7-16.3c2.8-4.8,5.7-9.6,8.6-14.5c0.4-0.6,0.6-1.3,0.9-1.9
		c-4.5-2-8.8-3.9-13-5.8C532.6,297.3,529.7,293.5,526.1,290.3z M511.8,554.4c0.4,16.8,0.8,33,1.2,49.1c0,0.5,0,1.1,0.1,1.6
		c0.1,1.5,0.4,1.8,1.8,1.8c1.4,0,2.9,0,4.3-0.1c3.8-0.3,7.5-0.9,11.3-1s7.7-0.4,11.3,0.3c6.2,1.3,11,4.5,12.2,11.5
		c0.3,1.6,0.6,1.7,2.2,1.4c0.4-0.1,0.7-0.2,1.1-0.3c10.7-2.7,21.4-5.4,32.1-8.2c2.6-0.7,2.6-0.7,2.7-3.3c0.4-8.6,0.8-17.2,1.2-25.9
		c0.5-10.1,1.3-20.1,1.5-30.2c0.2-14.3,1.6-28.6,2.2-42.9c0.2-5.8,0.5-11.7,0.6-17.5c0.1-2.3-0.3-2.5-2.5-2.2
		c-3.1,0.5-6.1,1.1-9.2,1.6c-16.8,3-33.5,5.9-50.3,8.9c-7.7,1.4-15.3,2.7-23,4.1c-2.3,0.4-2.4,0.5-2.3,2.8c0.1,4.2,0.2,8.3,0.3,12.5
		C511,530.8,511.4,542.9,511.8,554.4z M506.2,555.9C506.2,555.9,506.3,555.9,506.2,555.9c-0.1-5.8-0.2-11.5-0.4-17.3
		c-0.3-10.4-0.6-20.9-1-31.3c0-0.9,0.2-2.2-1-2.6c-1.3-0.4-3-1.2-4.1-0.1c-2.3,2.1-4.5,4.2-4.4,8c0.4,16.4,0.6,32.7,0.8,49.1
		c0.1,9.2,0,18.3,0.1,27.5c0,4.4,0.2,8.8,0.3,13.2c0,1.6,0.6,2.4,2.1,2.7c2,0.4,3.9,1.1,6,1.4c3.1,0.5,3.3,0.3,3.2-2.8
		C507.2,587.7,506.7,571.8,506.2,555.9z M472.4,602.2c6.4,0.2,12.3,0.9,18.5,0.6c0.1-1,0.2-1.9,0.2-2.7c-0.1-4.5-0.2-8.9-0.3-13.4
		c-0.1-2.9,0-5.9,0-8.9c0-0.5-0.3-1.3-0.6-1.3c-0.5-0.1-1.2,0.1-1.6,0.4c-1,0.7-1.7,1.7-2.7,2.4c-6.8,5.2-10.9,12.2-13.1,20.4
		C472.6,600.4,472.6,601.1,472.4,602.2z"/>
	<path class="st0" d="M472.4,602.2c0.2-1.1,0.2-1.8,0.4-2.4c2.2-8.2,6.3-15.2,13.1-20.4c1-0.7,1.7-1.7,2.7-2.4
		c0.4-0.3,1.1-0.5,1.6-0.4c0.3,0.1,0.5,0.9,0.6,1.3c0.1,2.9,0,5.9,0,8.9c0.1,4.5,0.2,8.9,0.3,13.4c0,0.8-0.1,1.6-0.2,2.7
		C484.8,603.1,478.8,602.4,472.4,602.2z"/>
	<path d="M491.5,233.3c-1.1,0-2.4,0-3.8,0c-1.2,0-2.2-0.5-3-1.4c-1.4-1.6-0.9-3.5,1.3-3.9c1.5-0.3,3-0.1,4.5-0.1
		c1.1,0,2.1,0.2,3.2,0.2c2.9-0.1,3.9-1.1,3.8-3.9c-0.1-2.6-0.6-5.1-1-7.6c-1.2-7.2-3.1-14.2-5.6-21c-2.2-6.1-3.1-12.5-3.7-18.9
		c-0.3-3.4-0.6-6.8-0.8-10.2c-0.1-0.9,0.1-2,0.5-2.8c0.5-0.9,1.3-1.7,2.6-1.5c1.1,0.2,2.2,1.3,2.3,2.5c0.2,1.6,0.2,3.2,0.3,4.8
		c0.5,10.6,2.7,20.8,6.2,30.8c1.9,5.5,2.9,11.4,4.3,17.1c0.1,0.2,0,0.5,0.1,0.7c1.2,3.3,0.6,6.6-0.1,9.8c-0.8,3.8-3.2,5.7-7.1,5.6
		C494.2,233.5,493,233.4,491.5,233.3z"/>
	<path d="M481.8,266c-4.7-0.1-9.6-0.4-14.5-1.9c-1.5-0.5-3-1.1-4.4-1.8c-2.3-1.3-4.5-2.7-6.8-4.1c-1.2-0.8-2.1-1.8-1.9-3.3
		c0.1-1.6,1.2-2.3,2.7-1.6c0.6,0.2,1,0.6,1.6,0.9c3.2,1.8,6.4,3.8,9.6,5.5c1.1,0.6,2.4,1,3.7,1c4.7,0.3,9.5,0.6,14.3,0.7
		c1.2,0,2.4-0.3,3.5-0.7c2.8-1.1,5.5-2.4,8.3-3.6c1.2-0.6,2.3-0.5,3,0.5c0.7,0.9,0.6,2.3-0.3,3.1c-0.5,0.5-1.2,0.9-1.9,1.2
		c-2.6,1.1-5.2,2.1-7.8,3.2C488.1,266.1,485.1,266,481.8,266z"/>
	<path d="M451.8,147.8c0.1,3.7-1.3,6.7-3.6,9.4c-0.3,0.4-0.7,0.8-1.1,1.1c-2.6,2-5.8,1-6.7-2.1c-0.6-2-0.7-4.2-0.8-6.2
		c-0.1-1.3,0.1-2.7,0.4-4.1c0.6-2.8,2.2-4.9,4.7-6.3c1.3-0.7,2.5-0.5,3.6,0.5C450.5,142.2,452.3,144.5,451.8,147.8z"/>
	<path d="M530.1,146.8c-0.2,2.8-0.5,5.6-2,8.1c-1.8,3-5.7,3.4-8.1,0.9c-1.4-1.5-2-3.3-1.9-5.2c0.2-4,2.1-7.4,4.8-10.3
		c2.2-2.3,5.9-1,6.7,2.2C530.1,143.9,530,145.4,530.1,146.8z"/>
	<path d="M455.6,129.5c-0.5-0.2-1.3-0.4-2-0.8c-4.5-2.8-8.9-2.1-13.3,0.4c-1.3,0.7-1.9,1.8-2.4,3.1c-0.9,2.1-2.9,2.5-4.3,0.9
		c-0.5-0.6-0.7-1.7-0.7-2.5c0.1-1.7,1-3.1,2.3-4.3c5-4.7,14.7-6.6,21.2-2c0.5,0.3,1,0.7,1.4,1.1c0.7,0.7,0.9,1.6,0.5,2.5
		C457.7,129,456.9,129.4,455.6,129.5z"/>
	<path d="M361.1,176.1c0.5,0,1.1,0.1,1.7,0.1c3.1-0.1,5,1.5,6.1,4.2c0.8,2,1.4,4.1,2,6.2c0.5,1.7-0.1,3.3-1,4.7
		c-0.5,0.9-1.2,1.7-2.4,1.4c-1-0.3-1.9-1-2.2-2.1c-0.1-0.7-0.2-1.3-0.2-2c0-0.5,0.1-0.9,0-1.4c-0.2-3.3-0.6-3.8-3.8-4.7
		c-0.7-0.2-1.3-0.3-2-0.5c-1.7-0.7-2.7-2.3-2.3-3.9c0.3-1.5,1.4-2.1,3.5-2.1C360.7,176.1,360.8,176.1,361.1,176.1z"/>
	<path d="M527,121.7c2.3-0.2,4.5,0.4,6.5,1.5c0.5,0.3,0.9,0.5,1.3,0.9c0.9,0.8,1,1.8,0.6,2.9c-0.4,1.2-1.4,1.3-2.4,1.3
		c-0.5,0-1.1-0.1-1.5-0.3c-4.7-2.3-8.8-1.1-12.6,2c-0.6,0.5-1.4,0.9-2.2,1.1c-2,0.3-3.4-1.7-2.4-3.4c0.6-1,1.5-1.9,2.4-2.7
		C519.6,122.7,522.5,121.9,527,121.7z"/>
</g>
</svg>
