<?xml version="1.0" encoding="utf-8"?>
<!-- Generator: Adobe Illustrator 25.2.3, SVG Export Plug-In . SVG Version: 6.00 Build 0)  -->
<svg version="1.1" id="레이어_1" xmlns="http://www.w3.org/2000/svg" xmlns:xlink="http://www.w3.org/1999/xlink" x="0px"
	 y="0px" viewBox="0 0 1024 640" style="enable-background:new 0 0 1024 640;" xml:space="preserve">
<style type="text/css">
	.st0{fill:#FFFFFF;}
</style>
<g>
	<path class="st0" d="M515.6,636.6c0-0.1,0.1-0.2,0.1-0.3c-0.3-0.2-0.6-0.4-0.9-0.5c-2.1-1.1-4.5-0.9-6.7-1.1
		c-10.3-0.9-20.7-1.7-31-2.6c-8.2-0.7-16.4-1.4-24.7-2c-1.3-0.1-2.5-0.4-3.6-1.3c-2-1.5-4.1-0.6-4.4,2c-0.2,1.9,0,3.8,0,5.9
		c1.6,0,3.2,0,4.7,0c0.3,0,0.7-0.2,0.7-0.4c0.3-1.1,1.1-0.8,1.8-0.7c4.3,0.4,8.5,1,12.8,1.1c16.3,0.1,32.7,0.1,49,0.1
		C514.1,636.6,514.8,636.6,515.6,636.6z"/>
	<path d="M1051,545.9c-9.3-0.5-18.6-0.9-27.9-1.4c-15.3-0.8-30.7-1.8-46-2.6c-4.5-0.3-9-0.4-13.5-0.7c-9.7-0.5-19.5-1.1-29.2-1.6
		c-7.4-0.4-14.8-0.7-22.2-1.1c-15.6-0.8-31.3-1.7-46.9-2.6c-0.8,0-1.7-0.1-2.5-0.1c-0.6,0.1-1.3,0.3-1.9,0.6c-2,1-4.1,2-6.1,3.1
		c-1.3,0.7-2.8,1.3-3.9,2.3c-9.7,8.8-20.6,15.5-32.7,20.3c-1.5,0.6-3,1.2-4.5,1.8c-7.4,2.7-14.4,6.3-20.8,11c-2.8,2-5.7,3.8-8.6,5.7
		c-1.3,0.9-2.8,1.3-4.3,1.2c-2.5-0.1-5.1-0.2-7.5-0.5c-2.3-0.3-4.6-0.9-6.9-1.6c-5.8-1.8-11.7-2.9-17.8-3.1
		c-14.4-0.5-28.7-0.9-43.1-1.3c-6.1-0.2-12.2-0.1-18.3-0.1c-1.2,0-2.5,0-3.7-0.1c-2.9-0.4-4.2-2-3.7-4.9c0.7-3.7,1.4-7.3,2.2-11
		c1-4.6,2.2-9.2,4.9-13.4c-1.3-1.6-2.5-3.1-3.8-4.8c-4.1,2.5-8.5,1.2-12.7,1.1c-2.2-0.1-4-1.4-5.5-3c-3.8-3.7-7-7.9-9.9-12.3
		c-1-1.6-2.2-2.1-4.1-2.2c-12.9-0.4-25.8-1-38.7-1.5c-1.2,0-2.4,0.3-3.5,0.8c-25.8,10.8-51.5,21.7-77.3,32.6
		c-33.6,14.2-67.1,28.3-100.7,42.5c-0.8,0.3-1.6,0.7-2.3,1.5c0.5,0.1,1,0.3,1.5,0.3c9.8,0.5,19.7,0.9,29.5,1.4
		c11.2,0.6,22.4,1.2,33.6,1.7c7.2,0.4,14.5,0.7,21.8,1c14.6,0.7,29.1,1.5,43.7,2.2c10.4,0.5,20.8,1,31.1,1.5
		c14.4,0.7,28.8,1.4,43.3,2.2c10.3,0.5,20.6,1,30.9,1.5c14.3,0.7,28.7,1.4,43,2.1c10.3,0.5,20.6,1,30.9,1.5
		c14.3,0.7,28.5,1.5,42.8,2.2c10.8,0.5,21.7,1.1,32.5,1.6c13.5,0.7,27,1.4,40.5,2.1c10.5,0.5,20.9,1,31.4,1.5
		c10.1,0.5,20.3,1,30.4,1.5c0.8,0,1.6-0.1,2.5-0.2c0.4,0,0.8-0.2,1.1-0.1c4.3,1.4,8.7,1.2,13.1,1.4c12.3,0.8,24.6,1.3,36.8,2
		c15.3,0.9,30.7,1.7,46,2.6c9.8,0.5,19.7,1.1,29.5,1.6c2.4,0.1,4.9,0.2,7.3,0.3c0,1.7,0,3.4,0,5c-0.9,0-1.8,0-2.8,0
		c-0.6-0.1-1.2-0.3-1.7-0.4c-12.6-0.7-25.2-1.3-37.8-2c-14.9-0.8-29.7-1.7-44.6-2.5c-12.6-0.7-25.2-1.4-37.8-2
		c-2.1-0.1-4.3,0.2-6.4,0.1c-15.6-0.8-31.1-1.6-46.7-2.4c-14.5-0.7-29-1.4-43.5-2.1c-10.6-0.5-21.2-1-31.8-1.6
		c-13.4-0.7-26.7-1.4-40.1-2.1c-10-0.5-20-1-30-1.5c-14.6-0.7-29.2-1.5-43.7-2.2c-10.4-0.5-20.8-1-31.1-1.5
		c-14-0.7-27.9-1.4-41.9-2.1c-10.1-0.5-20.3-1-30.4-1.5c-15-0.7-30.1-1.5-45.1-2.2c-10-0.5-20-1-30-1.5c-17.7-0.9-35.4-1.8-53.1-2.6
		c-10.4-0.5-20.8-1-31.1-1.5c-0.9,0-1.8,0-2.9,0c0.3,10.2,0.7,20.2,1,30.3c-1.7,0.6-3.4,0.4-5.2,0.3c-0.1-0.5-0.2-0.9-0.2-1.3
		c-0.5-10.6-0.9-21.2-1.4-31.8c-0.1-2.1,0.6-3.3,2.5-4.1c7.8-3.3,15.6-6.6,23.4-9.9c55.4-23.4,110.8-46.7,166.1-70.1
		c1.5-0.6,3-0.9,4.7-0.9c11,0.4,22,0.9,33,1.3c2,0.1,4.1,0,6.5,0c-1.3-1.8-2.3-3.5-3.6-5c-2-2.3-2.5-5.1-3.3-7.9
		c-0.2-0.7-0.1-1.6,0.3-2.2c1-1.5,0.8-3,0.9-4.6c0.2-2.5,0.3-5,0.8-7.5c0.6-3.2,2.1-6.1,5.6-7.5c-0.8-1.4-1.4-2.6-2.1-3.7
		c-0.3-0.5-0.6-0.9-0.8-1.4c-1.2-2.2-0.9-3.8,0.9-4.9c1.7-1.1,4-0.7,5.3,1.1c1,1.4,1.9,3,2.8,4.5c2.6,4.4,1.6,3.6,6.3,4
		c4.9,0.5,9,2.9,12.4,6.3c0.6,0.6,1.1,1.4,1.8,2.4c0.6-1,0.8-1.5,1.1-1.9c2.6-4.9,5.1-9.9,7.8-14.8c7.3-13.4,14.6-26.9,21.9-40.2
		c2.1-3.8,4.4-7.5,7-11c6.6-9.2,13.3-18.3,20-27.4c3.2-4.3,6.3-8.6,10.2-12.4c8.6-8.4,18.9-13.4,30.6-15.4
		c10.7-1.9,21.3-3.8,32.1-5.5c10.4-1.6,20.8-3.5,31.1-5.8c1-0.2,2-0.5,3.2-0.8c-0.3-4.9-0.6-9.7-0.9-14.7c-0.5-0.1-1.1-0.3-1.6-0.5
		c-6.7-1.7-13.3-3.4-20-5.1c-7.8-2.1-14.4-6.3-20.6-11.2c-5.6-4.5-11-9.3-15.5-14.9c-0.3-0.4-0.7-0.8-1.1-1.2
		c-5.9-5.3-9.5-12.3-12.9-19.3c-2.1-4.3-4.1-8.7-6.1-13.1c-0.3-0.7-0.6-1.4-0.9-2.1c-3.3-10.6-6.8-21.1-8.6-32.1
		c-1-6.1-1.5-12.3-2.2-18.4c-1.3-11.7-1.6-23.5-1.4-35.3c0.1-3.8,0.4-7.6,0.9-11.4c1-7.9,2-15.9,3.5-23.8c1-5.4,2.5-10.8,5.1-15.8
		c0.3-0.7,0.6-1.4,0.8-2.1c2.3-7.3,6.1-13.8,10.1-20.3c0.8-1.3,1.9-2.4,2.9-3.5c6.4-7.7,13.2-15.1,20.8-21.6
		c7.1-6,14.7-11.2,23.3-14.9c5.6-2.4,11.6-3.4,17.5-4.2c3.3-0.5,6.5-0.9,9.7-1.5c5-0.9,9.9-0.5,14.9-0.2c7.8,0.5,15.5,1.8,22.9,4.3
		c7.3,2.5,14.3,5.8,20.6,10.4c2.5,1.8,5.1,3.4,7.4,5.4c5.5,5,11,10,16.1,15.3c3.6,3.7,6.1,8.2,8.2,12.9c2.7,6.1,5.5,12.1,8.1,18.2
		c1.4,3.3,2.3,6.8,3.3,10.2c1.5,4.7,3.1,9.3,4.3,14c1.4,5.4,2.7,11,3.6,16.5c1.1,6.2,1.8,12.4,2.5,18.6c0.4,3.7,0.6,7.5,0.8,11.2
		c0.2,6.9,0.5,13.8,0.3,20.6c-0.3,8.7-1.1,17.4-1.8,26.1c-0.2,2.8-0.8,5.6-1.5,8.3c-1.6,6.4-3.4,12.9-5.1,19.2
		c-0.5,1.8-1.3,3.6-2.1,5.3c-2.1,4.6-4.2,9.1-6.6,13.6c-1.8,3.3-3.7,6.5-5.9,9.5c-3.4,4.7-6.9,9.3-10.7,13.7c-2.2,2.6-4.7,4.8-7.2,7
		c-6.5,5.6-14,9.4-22,12.4c-0.2,0.1-0.4,0.2-0.8,0.5c0.2,2.2,0.3,4.5,0.6,6.7c0.1,0.5,0.7,1.2,1.2,1.5c3.6,2.1,7.3,4.2,11,6.2
		c1.7,0.9,3.3,1.9,5.1,2.7c3.1,1.4,6.3,2.8,9.4,4.2c0.5,0.2,1.2,0.2,1.8,0.4c1.4,0.3,2.9,0.6,4.2,1.1c7.7,2.8,15.7,4.7,23.1,8.2
		c7,3.3,14.3,6.3,20.5,11.2c2.1,1.7,4.1,3.4,6,5.3c7.3,7.1,13.7,15,18.8,23.9c0.5,0.9,1,1.7,1.6,2.5c3,3.9,5,8.4,7.2,12.7
		c1.5,3,3.2,5.9,4.5,9c2,4.6,3.9,9.3,5.7,14c2,5.4,4,10.7,5.9,16.2c0.8,2.2,1.2,4.6,1.9,6.8c1.7,5.4,3.4,10.8,5.1,16.2
		c2.3,7.4,4.8,14.8,6.8,22.3c2.1,7.7,3.9,15.4,4.5,23.4c0.1,0.8,0.2,1.5,0.4,2.6c4.3,0,8.6,0,12.8,0
		C1051,542.5,1051,544.2,1051,545.9z M951.7,223.9c0.1,0,0.2,0,0.3,0c-0.1-4.3,0.1-8.6-0.3-12.8c-0.9-10.2-2.1-20.4-3.2-30.5
		c-0.6-5.2-1.2-10.5-3-15.5c-2-5.8-3.8-11.6-5.8-17.4c-1-2.9-2.4-5.8-3.6-8.7c-1.4-3.3-2.9-6.6-4.3-9.9c-1.4-3.3-2.6-6.7-4.2-9.9
		c-2.7-5.4-5.9-10.6-10.3-14.8c-5.3-5.1-10.9-9.8-16.9-14.1c-10.4-7.5-22.1-11.7-34.7-13.3c-5.7-0.7-11.4-0.7-17.1-0.9
		c-1,0-2,0-3,0.2c-6.1,1-12.2,1.9-18.3,3c-7.9,1.5-15.1,4.5-21.7,9.3c-6,4.4-11.7,9.2-16.9,14.4c-4.4,4.5-8.6,9.1-12.6,14
		c-7.7,9.6-12.5,20.6-15.1,32.6c-0.4,1.7-0.9,3.4-1.4,5.1c-0.6,2.2-1.4,4.4-1.7,6.6c-0.9,6.1-1.6,12.3-2.4,18.4
		c-0.8,6.5-1.4,13.1-1.2,19.6c0.3,8.7,0.8,17.4,1.5,26.1c0.5,5.8,0.8,11.7,2.1,17.5c1.6,7,2.6,14.1,5.1,20.9
		c1.3,3.7,2.3,7.5,3.7,11.1c1.9,4.7,4.1,9.2,6.4,13.7c2.5,4.7,5,9.5,8.2,13.7c6.9,8.9,15.2,16.5,24.4,23.1c3.5,2.5,7.2,4.6,11.3,6
		c10.7,3.6,21.6,6.8,32.9,7.8c7.5,0.7,14.9,1.1,22.4,0.3c4.9-0.5,9.7-1.1,14.6-1.6c4.5-0.4,8.6-1.8,12.5-4c1.9-1.1,4-1.9,6-2.9
		c0.8-0.4,1.7-0.7,2.4-1.3c1.5-1.2,2.8-2.5,4.3-3.7c3.6-3,6.9-6.2,9.7-10c2.7-3.8,6.3-7,8.6-11.2c1.6-2.9,3.5-5.6,5-8.5
		c2.2-4.3,4.3-8.6,6.3-13c1-2.3,1.9-4.7,2.7-7.1c0.8-2.7,1.1-5.6,2.1-8.2c3.4-9.7,3.7-19.9,4.6-30
		C951.4,233.4,951.5,228.6,951.7,223.9z M756.5,513.9c4.8-0.2,9.2-0.6,13.7-0.6c5.6,0,11.3,0,16.9,0.5c4.6,0.4,9,1.4,13.6,2.1
		c19.7,3.2,39.5,6.5,59.3,9.5c2.2,0.3,3.2,1.3,4.1,3c0.4,0.7,0.4,1.6,0.7,2.5c30.6,1.6,61.3,3.3,92.1,4.9c-0.2-2.2-0.2-4.1-0.4-5.9
		c-1-7.3-2.2-14.5-3.3-21.8c-0.8-5.5-1.6-11-2.3-16.6c-0.5-4.3-0.7-8.7-1.1-13c-0.1-1.4-0.4-2.7-0.6-4.1c-0.1-1.5,0.7-2.3,2.1-2.3
		c1.2,0,2.4,0.4,2.8,1.6c0.8,2.5,2.5,4.1,4.2,5.8c2.2,2.2,4.2,4.7,6.1,7.1c1.9,2.4,3.7,4.8,5.5,7.3c3.1,4.4,6.2,8.9,9.2,13.4
		c1.4,2.2,2.6,4.5,3.8,6.8c1.8,3.3,3.6,6.5,5.1,10c1.6,3.8,2.9,7.7,4.3,11.6c0.7,2,0.7,2,2.9,2.1c6,0.3,11.9,0.6,17.8,1
		c5.3,0.4,10.5,1,15.7,1.5c1.7,0.1,3.3,0,5.1,0c0-0.4,0-0.7-0.1-0.9c-1-4.5-1.8-9-3-13.4c-2.4-8.8-4.8-17.5-7.5-26.2
		c-2.5-8.2-5.3-16.3-8.1-24.4c-2.9-8.3-5.9-16.5-8.8-24.8c-1.7-4.8-3.5-9.5-6-13.9c-0.4-0.7-0.6-1.6-0.9-2.3
		c-1.5-3.5-3.1-6.9-5.3-10.1c-3.1-4.5-6.2-8.9-9-13.5c-4.3-7-9.6-13-15.6-18.5c-7-6.3-15.4-10.2-23.8-14c-5.6-2.5-11.6-4.3-17.5-6.1
		c-2.2-0.7-3.7-0.2-5.2,1.2c-1.1,1.1-2.3,2.2-3.3,3.5c-3.3,3.9-7.5,6.8-12,9c-7.2,3.5-14.6,6.6-22,9.6c-7.5,3-15.4,4.3-23.6,3.8
		c-3-0.2-5.9-0.6-8.9-0.8c-8.6-0.8-16.5-3.7-23.6-8.7c-2.9-2-5.6-4.2-8.4-6.3c-4-3-6.9-6.9-9.1-11.3c-0.5-0.9-1-1.9-1.5-3
		c-0.8,0.1-1.6,0.2-2.3,0.3c-6.9,1.2-13.8,2.4-20.8,3.6c-5.6,1-11.3,1.8-16.9,3.2c-12.2,2.9-21.7,9.9-29.1,19.8
		c-6.7,9-13.3,18.1-20,27.1c-5,6.6-9.4,13.6-13.2,20.9c-4.5,8.5-9.1,17-13.7,25.4c-4.1,7.7-8.3,15.3-12.4,23
		c-0.3,0.6-0.6,1.3-1.1,2.3c0.9-0.1,1.4-0.2,1.9-0.2c3.8-0.6,7.7-1.5,11.5-1.7c11.3-0.7,20.5,3.2,26.7,13c0.2,0.3,0.4,0.6,0.8,1.1
		c2.3-1.7,4.5-3.2,6.6-4.9c3.9-3.2,7.6-6.6,11.6-9.7c3.5-2.7,6.5-5.8,9.2-9.2c1.5-2,3.3-3.8,4.2-6.2c0.6-1.5,1.7-2,3.1-1.7
		c1.2,0.2,2,1,2.2,2.6c0.1,1,0.2,2,0.1,3c0,2.4-0.2,4.9-0.1,7.3c0.4,7.8-0.5,15.6-2.2,23.2C756.7,512.1,756.6,513,756.5,513.9z
		 M684.4,569.7c1.6,0,2.7,0,3.9,0c4.6-0.1,9.2-0.3,13.7-0.2c14.1,0.3,28.1,0.8,42.1,1.2c6.7,0.2,13.4,0.7,19.9,2.8
		c4.3,1.4,8.8,2.1,13.2,2.6c2.3,0.3,4.3-0.2,6.2-1.6c9.5-6.9,19.4-12.8,30.6-16.8c10.9-3.9,21-9.6,29.7-17.3
		c3.7-3.2,7.4-6.1,12.1-7.5c0.7-0.2,1.2-0.7,2.2-1.3c-1-0.3-1.4-0.6-1.9-0.7c-6-1-12.1-1.9-18.1-2.9c-11.8-1.9-23.7-3.9-35.5-5.8
		c-5.3-0.9-10.5-2.1-15.8-2.4c-8.2-0.5-16.5-0.4-24.7-0.4c-4.6,0-9.1,1.1-13.2,3.3c-4.2,2.1-8.4,4.1-12.5,6.3
		c-5,2.7-10.1,5-15.6,6.6c-3.5,1-7,2.2-10.5,3.1c-5.6,1.4-10.8,3.7-15.8,6.7c-2.3,1.3-4.1,3-5.1,5.4c-1.1,2.7-2.1,5.4-2.8,8.2
		C685.7,562.3,685.2,565.8,684.4,569.7z M816.7,369.1c1.5,3.8,3.7,6.8,6.5,9.3c1.6,1.5,3.4,2.8,5.1,4.2c9.2,7.7,19.9,11.2,31.8,11.9
		c10.7,0.7,20.8-1.6,30.4-6.1c4.2-1.9,8.3-3.8,12.5-5.8c1.5-0.7,3.1-1.4,4.4-2.4c2.3-1.5,4.5-3.2,6.6-4.9c1.9-1.5,3.7-3.3,5.9-5.3
		c-3.4-1.4-6.3-2.4-9.1-3.7c-5.8-2.6-11.5-5.3-17.2-8.2c-5.5-2.7-5.6-3-6-9.1c-0.1-1.7-0.2-3.3-0.3-5c-7.1,0.4-14.1,1.1-21,1.1
		c-6.9,0-13.8-0.8-20.8-1.2c-0.1,0.5-0.3,0.9-0.2,1.4c0.1,2.3,0.2,4.6,0.4,6.9c0.2,2.3,0.4,4.6,0.5,6.9c0.1,2.4-0.6,3.3-2.9,4
		c-0.4,0.1-0.9,0.2-1.3,0.3c-6.1,1.4-12.2,2.7-18.3,4.1C821.5,368,819.2,368.5,816.7,369.1z M674.1,512.2c2.8-0.2,5.2-0.6,7.7-0.6
		c3.2,0,6.4,0,9.6,0.4c3.6,0.5,4.8,3.2,3.3,6.5c-0.7,1.4-1.7,2.7-2.5,4.1c-1.4,2.2-3,4.3-4.3,6.5c-1.7,3-1.1,4,2.3,3.8
		c6.7-0.4,13.2-1.5,19.6-3.4c3.7-1.1,6.7-3.3,9.2-6.2c1-1.2,1.4-2.5,0.9-4c-0.7-2.3-1.3-4.6-2-6.8c-2.2-6.4-6.7-10.4-13-12.5
		c-4.8-1.6-9.6-1.5-14.5-0.7c-3.8,0.6-7.6,1.4-11.5,2.1c-2.6,0.5-4.6-0.5-6-2.8c-0.2-0.4-0.5-0.8-0.7-1.2c-2-3.9-5.7-5.6-9.4-7.2
		c-0.4-0.2-1-0.2-1.8-0.3C665.4,497.6,669.8,504.9,674.1,512.2z M987.5,537.7c-0.1-0.6-0.1-1-0.2-1.3c-2-6.5-4.7-12.6-8.4-18.2
		c-1.6-2.4-3-5-4.5-7.4c-0.8-1.3-1.6-2.6-2.4-3.9c-1.5-2.3-3-4.6-4.5-6.9c-3.4-5.2-6.6-10.5-11.1-14.9c-0.3-0.3-0.8-0.6-1.5-1.1
		c-0.1,4.3-0.1,8.1,0.5,12c0.8,5.5,1.8,11,2.8,16.5c1.3,7.5,3,15,3.4,22.6c0,0.4,0.2,0.7,0.4,1.2
		C970.5,536.7,978.9,537.2,987.5,537.7z M677.7,536.5c0.4-1.2-0.4-2-1-2.9c-7.5-13.4-15.1-26.7-22.6-40.1c-0.5-0.9-1-1.7-1.5-2.6
		c-0.6-0.9-1.3-1-2.1-0.4c-0.5,0.4-0.9,1.1-1.2,1.7c-1.2,2.3-1.3,4.8-1.3,7.4c0,1.4,0.2,2.8,0,4.1c-0.4,3.1,0.5,5.9,2.3,8.4
		c5,6.8,10,13.7,15,20.5C668.9,537.4,671.5,537.2,677.7,536.5z M753.3,488.1c-0.5,0.4-0.7,0.5-0.8,0.6c-2.3,3.2-5.3,5.7-8.4,8
		c-1.4,1-2.7,2.3-4,3.4c-3.5,2.9-7.1,5.8-10.6,8.6c-1.3,1.1-2.6,2.1-3.8,3.3c-0.9,0.8-1.3,1.9-0.9,3.1c0.5,2.1,1,4.1,1.5,6.4
		c2.7,0.1,5.7,0.1,8.7,0.2c1.5,0.1,2.8-0.3,4.1-1.1c3.5-2.2,7.3-3.8,11.2-5.1c0.5-0.2,0.9-0.4,1.5-0.6c-1.1-2.7-0.2-5.1,0.3-7.5
		C753.1,501.2,753.6,494.9,753.3,488.1z M682.6,526.2c1.1-1.6,2.1-3,3.1-4.3c1-1.4,2.1-2.7,3.2-4.2c-3.7-0.9-8.1-0.7-10,0.5
		C679.2,521.2,680.4,523.8,682.6,526.2z M728.1,526.9c-3.7-0.8-4.9-0.8-6.2,2.3C724,528.4,725.8,527.7,728.1,526.9z M691.1,540.9
		c1.4-0.7,2.6-1.4,3.5-2.6c-1.5,0.1-3,0.2-4.8,0.3C690.4,539.5,690.7,540.1,691.1,540.9z"/>
	<path d="M515.6,636.6c-0.7,0-1.5,0-2.2,0c-16.3,0-32.7,0.1-49-0.1c-4.3,0-8.5-0.7-12.8-1.1c-0.7-0.1-1.5-0.4-1.8,0.7
		c-0.1,0.2-0.5,0.4-0.7,0.4c-1.6,0-3.2,0-4.7,0c0-2.1-0.2-4,0-5.9c0.3-2.6,2.4-3.5,4.4-2c1.1,0.8,2.3,1.2,3.6,1.3
		c8.2,0.7,16.4,1.3,24.7,2c10.3,0.9,20.7,1.7,31,2.6c2.3,0.2,4.6,0,6.7,1.1c0.3,0.2,0.6,0.3,0.9,0.5
		C515.6,636.4,515.6,636.5,515.6,636.6z"/>
	<path d="M860.1,285.7c-10.9-0.5-21.6-1.8-32.3-3.8c-1.9-0.4-3.8-0.4-5.7-0.6c-0.5,0-0.9,0-1.4-0.1c-1.6-0.3-2.7-1.5-2.7-2.9
		c0-1.5,1.1-2.4,2.9-2.6c3.3-0.3,6.5,0.4,9.8,1c8.8,1.6,17.7,2.2,26.6,2.7c4.6,0.2,9.2,0.4,13.7,0.6c0.8,0,1.7,0.1,2.5,0.3
		c1.3,0.4,2.2,1.5,2.2,2.6c0,1.2-0.8,2.3-2.2,2.6c-0.7,0.2-1.5,0.2-2.3,0.2C867.5,285.7,863.8,285.7,860.1,285.7z"/>
	<path d="M798.7,190.4c0.1-2.8,0.8-5.2,3-7c3.1-2.5,6.6-1.8,8.5,1.6c1.3,2.5,1.8,5.2,1.5,8c-0.4,3.4-3.5,6.3-6.8,6.8
		c-2.2,0.3-4.3-0.9-4.9-3.2C799.2,194.6,799,192.5,798.7,190.4z"/>
	<path d="M838.9,223.1c-0.1-4.1,0.2-8.1,1.1-12.1c0.2-1,0.3-2.1,0.5-3.2c0.1-0.5,0-0.9,0.1-1.4c0.3-1.7,1.5-2.8,2.9-2.7
		c1.4,0.1,2.6,1.3,2.6,3c0,2-0.2,4-0.6,5.9c-1.2,5.5-0.9,11.1-0.7,16.7c0,1.3,0.7,2.7,0.8,4c0.2,1.4-0.6,2.5-1.8,2.8
		c-1.3,0.4-2.6-0.1-3.3-1.4c-0.2-0.3-0.4-0.7-0.4-1.1c-0.4-2.5-0.8-4.9-1.1-7.4C838.8,225.3,838.9,224.2,838.9,223.1z"/>
	<path d="M864.4,113.8c-0.4,6.2-0.9,12.5-1.3,18.7c-0.1,1.2-0.5,2.3-1.7,2.7c-1.8,0.7-3.6-0.4-3.7-2.5c-0.1-1.8,0-3.7,0-5.5
		c0.2-5.8,0.5-11.6,0.8-17.4c0-0.7,0.1-1.4,0.3-2c0.4-1.3,1.5-2,2.8-1.9c1.3,0.1,2.2,0.9,2.4,2.3c0.2,1.8,0.2,3.7,0.3,5.5
		C864.3,113.8,864.3,113.8,864.4,113.8z"/>
	<path d="M883.1,191.2c-0.1-1.9,0.4-3.9,1.6-5.8c2-3,6.1-3,8,0.1c1.6,2.6,2.5,5.4,2.5,8.5c0,3-1.5,4.6-4.4,4.8
		C885.3,199.2,883.2,197.2,883.1,191.2z"/>
	<path d="M809.6,113.9c0.2-0.9,0.2-1.4,0.4-1.9c0.5-1.1,1.3-1.7,2.5-1.8c1.1-0.1,1.9,0.6,2.4,1.5c3.2,6.2,6.3,12.5,9.5,18.8
		c0.2,0.4,0.4,0.8,0.5,1.3c0.2,1.2-0.3,2.4-1.3,2.9c-1,0.6-2.1,0.6-3-0.1c-0.7-0.6-1.3-1.3-1.7-2.1c-2.7-5-5.3-10-7.9-15
		C810.3,116.2,809.9,114.9,809.6,113.9z"/>
	<path d="M897.5,115.7c-0.4,0.8-0.6,1.5-1,2c-2.9,4.1-5.9,8.1-8.8,12.2c-1.9,2.7-4.4,4.8-7,6.8c-0.8,0.6-1.7,0.7-2.5,0.1
		c-0.8-0.7-1.3-1.6-0.8-2.6c0.2-0.5,0.5-1,0.8-1.4c1.5-2,3-4.1,4.6-5.9c3.2-3.4,5.8-7.3,8.5-11.1c0.5-0.7,1.3-1.3,2-1.9
		c0.7-0.6,1.6-1.2,2.5-0.5C896.4,114.1,896.9,115,897.5,115.7z"/>
	<path d="M839.5,120.3c0.1,2.9,0.3,5.8,0.4,8.7c0,0.6,0.1,1.2,0.1,1.8c-0.1,1.9-1,3-2.4,3.1c-1.5,0.1-2.6-0.8-3-2.6
		c-0.2-1-0.4-2-0.4-2.9c0-6.3,0-12.5,0-18.8c0-0.4,0-0.8,0.1-1.1c0.3-1.3,1.2-2,2.4-2.1c1.2-0.1,2.2,0.5,2.6,1.8
		c0.3,0.8,0.3,1.6,0.3,2.5c0,3.2,0,6.4,0,9.6C839.6,120.3,839.6,120.3,839.5,120.3z"/>
	<path d="M725.2,542.7c2.5,0.4,5.8,0.9,9.1,1.5c14.7,2.7,29.4,5.4,44.1,8.1c1,0.2,1.9,0.5,2.7,1c0.9,0.5,1.2,1.5,1,2.6
		c-0.2,1-0.8,1.7-1.8,1.9c-0.9,0.1-1.8,0.2-2.7,0.1c-7.7-1.4-15.5-2.7-23.2-4.2c-9.9-1.8-19.8-3.7-29.7-5.5
		c-0.4-0.1-0.9-0.2-1.3-0.3c-1.6-0.5-2.3-1.7-2.1-3.1C721.5,543.3,722.6,542.6,725.2,542.7z"/>
	<path d="M776.8,534.2c-5.2,0-10.4,0-15.6,0c-0.9,0-1.8-0.1-2.7-0.3c-1.4-0.4-2.1-1.6-2-3c0.1-1.2,0.9-2.1,2.4-2.3
		c0.7-0.1,1.4-0.1,2.1-0.1c4.4,0,8.8-0.1,13.3,0c6,0.1,12,0.2,18,0.4c0.9,0,1.8,0.2,2.7,0.5c1.1,0.4,1.6,1.4,1.5,2.6
		c-0.1,1.2-0.8,2.1-2.1,2.4c-0.7,0.1-1.4,0.1-2,0.1c-5.2,0-10.4,0-15.6,0C776.8,534.4,776.8,534.3,776.8,534.2z"/>
</g>
<path d="M122.9,637.2c-3.9,0-7.9,0.1-11.8-0.1c-1.4-0.1-2.9-1-4.2-1.6c-2.1-1.1-4.1-2.3-6.2-3.4c-2.9-1.5-5.8-3.1-8.8-4.5
	c-2.7-1.3-5-2.9-6.9-5.2c-3.9-4.7-7.8-9.4-11.8-14c-1.7-2-3-4.1-4.1-6.5c-2.3-4.8-4.4-9.7-7.5-14.2c-0.7-1-1.1-2.2-1.3-3.4
	c-1-5.4-1.9-10.8-2.7-16.3c-0.6-4.4-1-8.8-1.6-13.2c-0.9-6.2-0.3-12.4,1.6-18.3c5.3-16.7,10.7-33.3,16.1-49.9
	c0.6-1.9,1.7-3.8,2.8-5.5c8-12.7,18-23.5,31-31.3c1.1-0.7,2.2-1.3,3.3-2c6.3-3.9,13.1-5.6,20.5-5.7c6.9-0.1,13.8-0.3,20.6-0.9
	c10.8-0.9,21.4-3.3,31.9-6.2c0.2-0.1,0.4-0.2,0.9-0.5c-1.4-11.7-2.8-23.5-4.2-35.5c-2,0.2-3.7,0.3-5.4,0.5
	c-16.1,2-32.1,3.9-48.2,5.9c-4.7,0.6-9.4,1.2-14.1,1.8c-2.4,0.3-4.7,0-7-0.9c-3.8-1.4-7.1-3.6-9.9-6.5c-4.1-4.4-8.1-8.9-12.2-13.4
	c-1.9-2.2-2.6-4.8-2.7-7.6c-0.1-6.6-0.1-13.3-0.2-19.9c-0.3-17.6-0.6-35.1-0.9-52.7c-0.3-20.2-0.7-40.3-1-60.5
	c-0.1-5.3-0.2-10.5-0.3-15.8c-0.1-5.1,2-7.7,6.8-9.2c10.1-3.1,20.5-4.8,31-5.7c9.1-0.8,18.2-1.9,27.3-2.9c7.8-0.8,15.6-1.7,23.5-2.5
	c9.6-1,19.3-2.1,28.9-3.1c6.3-0.7,12.6-1.3,18.9-2c0.4,0,0.9-0.1,1.6-0.3c-1-20.4-2-40.6-2.9-61.1c-1.8-0.2-3.6-0.2-5.2-0.5
	c-2.7-0.5-5.4-1.1-8-1.9c-4.4-1.5-7.9-4.2-10.3-8.3c-0.7-1.1-1.3-2.2-2-3.4c-1.4-2.4-2-4.9-2-7.7c-0.1-4.9,0.3-9.8,2.2-14.4
	c1.3-3.3,3.2-6.3,5.9-8.6c4.1-3.6,8.6-6.6,13.6-8.8c4.4-2,9-2.7,13.8-2.7c0.8,0,1.7,0.3,2.5,0.5c4,1.1,7.9,2.3,11.9,3.5
	c3.6,1.1,6.3,3.4,8,6.8c1.5,3,2.3,6.3,2.7,9.7c0.7,5.9,0.3,11.8-0.8,17.6c-1.1,5.9-4.3,10.4-9.4,13.5c-4.6,2.8-9.6,4.7-15.1,4.9
	c-0.6,0-1.2,0.2-2.1,0.3c1,20.1,1.9,40,2.9,60.2c1.2,0,2.2,0.1,3.3,0c6.8-0.7,13.5-1.4,20.3-2.1c7.8-0.8,15.6-1.7,23.5-2.5
	c7.8-0.8,15.6-1.7,23.5-2.5c4.9-0.5,9.7-1,14.6-1.6c3.2-0.4,6.3-1,9.5-1.5c7-1.1,13.7-0.1,20.2,2.6c2.2,0.9,3.4,2.4,3.8,4.7
	c0.9,5.2,0.8,10.5,0.2,15.8c-0.2,1.5-0.4,3-0.5,4.6c-0.6,5.8-1.2,11.5-1.7,17.3c-0.6,6.5-1.1,13.1-1.6,19.6
	c-0.9,11-1.8,21.9-2.7,32.9c-0.7,8.1-1.3,16.1-1.9,24.2c-0.7,8.9-1.5,17.8-2.1,26.7c-0.5,6.2-0.9,12.5-1.4,18.7c0,0.2-0.1,0.5,0,0.7
	c0.8,2.9-0.7,4.7-2.7,6.5c-4.3,3.8-8.6,7.5-13.6,10.5c-4.2,2.5-8.8,3.8-13.4,5.1c-8.1,2.4-16.5,3.3-24.8,4.2
	c-6.6,0.7-13.2,1.6-19.8,2.5c-8,1-15.9,2-23.9,3c-1.5,0.2-2.3,0.7-2.6,2.1c-0.5,2.5-1.1,5.1-1.4,7.6c-0.6,5.6-0.3,11.1,0.7,16.7
	c0.2,0.8,0.4,1.6,0.7,2.4c0.1,0.4,0.3,0.7,0.6,1.2c0.7-0.2,1.5-0.3,2.2-0.5c7.9-2.2,16-3.3,24.2-3.8c6-0.4,12-1.1,18-1.5
	c4.3-0.3,8.5-0.6,12.8,0.2c2.4,0.4,4.6,1.2,6.5,2.7c3.2,2.4,6.3,4.8,9.3,7.5c5.8,5.3,9.7,12,12.2,19.4c2.5,7.5,4.8,15.2,5.9,23.1
	c0.5,3.7,0.8,7.4,1.4,11.1c0.9,6.4,2.7,12.5,4.7,18.6c1.7,4.9,3.2,9.9,4.9,14.8c0.4,1.3,1.1,2.5,1.8,3.7c1.2,1.8,2.6,3.6,4,5.3
	c5.2,6.3,12,10.1,20.1,11.3c1.5,0.2,3.2,0.8,4.4,1.7c1.1,0.8,2,0.7,3.2,0.4c3.2-1,6.4-1.5,9.7-0.7c1.3,0.3,2.6,0.5,3.7,1.1
	c9.3,4,17.2,9.5,22.6,18.3c1.1,1.8,1.8,3.7,1.8,5.8c0,3.1,0.2,6.3,0.1,9.4c-0.1,3.7-1.1,7.2-3,10.4c-1.2,2-2,4.1-2.9,6.2
	c-1.6,3.6-4.3,6.3-6.8,9.2c-0.3,0.3-0.7,0.6-1.1,0.8c-9,2.8-18,3.9-27.3,1.6c-3.1-0.8-5.9-2.2-8.3-4.2c-4.5-3.7-8.8-7.6-11.6-12.8
	c-0.6-1.2-1.8-1.6-2.9-2c-2.7-1-5.4-2-8.2-3c-6.8-2.4-12.4-6.6-17.3-11.8c-7.4-7.9-15-15.7-22.4-23.7c-2.7-2.9-5.1-6-7.9-9.3
	c-0.1,0.7-0.2,1.3-0.2,1.9c-0.1,7,0.6,13.9,1.7,20.8c1,6.2,1.1,12.5,1.6,18.7c0.3,4.4,0.8,8.8,1.1,13.3c0.3,5.4,0.5,10.8,0.8,16.2
	c0.2,2.9,0.7,5.7,1.1,8.6c0.1,0.4,0.2,0.8,0.1,1.1c-0.4,7.7,0.9,15.4,1.3,23.1c0,0.2-0.1,0.4-0.1,0.8c-1.6,0-3.3,0-5.1,0
	c-0.3-2.6-0.8-5.3-1-7.9c-0.3-3.3-0.3-6.7-0.5-10.1c-0.1-2.4-0.3-4.7-0.5-7.1c-0.3-4.6-0.5-9.2-0.8-13.7c-0.6-8.7-1.1-17.4-1.7-26.1
	c-0.4-5-0.6-10.1-1.3-15.1c-1.2-8.3-1.8-16.6-1.9-24.9c0-4.3,0.5-8.5,1.2-12.7c3.8-0.3,6.7,1.5,7.5,4.7c0.9,3.6,2.6,6.7,5,9.4
	c3.6,4,7.4,7.9,11.3,11.7c4.3,4.2,8.5,8.6,12.1,13.5c5.8,7.9,13.6,12.8,22.8,15.8c2.7,0.9,5.5,1.6,8.6,2.5c1.9-6,3.7-11.9,5.6-17.8
	c1.9-5.9,4-11.7,7.3-17.2c-1-0.3-1.8-0.6-2.6-0.9c-3.4-1.1-6.8-2.1-10.2-3.3c-3.4-1.2-6.3-3-9-5.3c-5.2-4.5-9.3-9.7-11.7-16.1
	c-2.9-7.4-4.7-15.2-6.8-22.8c-1.8-6.6-2.4-13.4-3.2-20.1c-1.1-9.3-3.5-18.3-6.9-27c-2.9-7.2-7.4-13.3-13.8-17.9
	c-0.3-0.2-0.6-0.4-0.9-0.7c-3.8-3.7-8.4-5.1-13.6-4.7c-6.9,0.5-13.7,0.9-20.6,1.4c-3.4,0.2-6.7,0.5-10.1,0.8
	c-6.6,0.6-13,2.5-19.5,4.2c-14.8,3.9-29.6,8-44.5,11.8c-10.4,2.7-21,5-31.7,6.1c-5.1,0.5-10.2,0.4-15.3,0.7c-3,0.1-6.1,0.4-9.1,0.5
	c-1.1,0.1-2.1,0.2-3.2,0.2c-2.6,0.1-5,0.6-7.3,1.7c-15.8,7.7-28.2,19.2-37.3,34.2c-1,1.7-1.8,3.7-2.5,5.6c-5,15.3-9.7,30.7-14.8,46
	c-2.2,6.5-2.9,12.9-2,19.6c0.9,7,1.8,14.1,2.7,21.1c0.3,2.1,0.6,4.2,1.1,6.3c0.4,1.5,0.9,2.9,1.7,4.2c2.3,4.2,4.7,8.4,7.1,12.6
	c0.6,1,1.2,2,1.9,2.8c3.6,4.4,7.2,8.7,10.8,13.1c1.9,2.3,4.3,4.1,7,5.5c4.3,2.2,8.5,4.5,12.7,6.8c5.3,2.9,10.6,5.8,15.9,8.7
	C122.9,636.9,122.9,637.1,122.9,637.2z M86.2,305.1C86.2,305.1,86.2,305.1,86.2,305.1c0.1,9.1,0.3,18.2,0.4,27.3
	c0.2,15.6,0.4,31.2,0.6,46.8c0,2,0.7,3.7,2.1,5.2c2.4,2.6,4.7,5.3,7.1,7.8c2,2.1,4.1,4.1,6.2,6.1c3.3,3.2,7.3,4.2,11.8,3.8
	c0.3,0,0.6,0,0.9-0.1c5.1-0.6,10.2-1.1,15.2-1.7c9.2-1.1,18.3-2.3,27.5-3.4c9.2-1.1,18.5-2.2,27.7-3.4c10.6-1.3,21.2-2.6,31.8-4
	c9.5-1.2,19.1-2.3,28.7-3.5c9.4-1.1,18.8-2.3,28.2-3.4c7.4-0.9,14.9-1.8,22.1-3.7c5.8-1.5,11.6-3,16.5-6.6c3.4-2.5,6.5-5.3,9.8-7.9
	c0.8-0.6,1-1.4,1-2.4c0.3-4.3,0.7-8.5,1-12.8c0.5-8,1.1-16,1.5-24c0.5-8.8,0.6-17.7,1.7-26.5c1.5-12.5,2.7-25.1,3.5-37.6
	c0.4-6.3,0.8-12.7,1.5-19c1.2-10.9,2.4-21.7,2.7-32.6c0.1-1.9-0.3-3.8-0.5-5.7c-0.2-1.5-1.1-2.4-2.5-2.9c-4.3-1.6-8.7-2.1-13.1-1.4
	c-12.2,2-24.4,3-36.6,4.4c-7.5,0.8-15,1.6-22.6,2.4c-9.4,1-18.8,2-28.2,3c-8.1,0.8-16.1,1.6-24.2,2.5c-9.2,1-18.4,2-27.6,3
	c-9.3,1-18.7,1.9-28,2.9c-14.1,1.5-28.1,3-42.1,4.5c-7.6,0.8-15.1,2.3-22.4,4.7c-2.8,1-3.2,1.4-3.2,4.5c0.1,5.2,0.2,10.4,0.3,15.6
	C85.6,266.3,85.9,285.7,86.2,305.1z M349,582.9c2.7,3.4,5.4,6.3,8.8,8.6c2.9,2,6.2,3.3,9.7,3.8c5,0.7,10,0.2,15-0.6
	c2.1-0.4,3.7-1.5,5.2-3.1c1.7-1.9,2.8-4.2,3.9-6.4c2-4.3,4.4-8.4,5.4-13.1c1.3-6.2,1.2-12.1-3.7-17c-0.4-0.4-0.8-0.9-1.2-1.4
	c-4.8-5.5-10.8-9.2-17.7-11.3c-5-1.5-9.3,0.1-12,4.6c-1.1,1.8-2,3.8-2.7,5.8c-2.7,8.4-5.3,16.9-7.9,25.3
	C351.3,579.9,350.7,581.6,349,582.9z M242.5,114.1c0.1-4-0.4-7.8-1.7-11.5c-1-2.9-2.8-4.7-5.7-5.8c-4.3-1.6-8.8-2.3-13.3-3.3
	c-2.7-0.5-5.2-0.4-7.6,0.7c-4,2-7.9,4-11.7,6.3c-4,2.4-6.8,5.9-8.2,10.4c-0.8,2.5-1.1,5.1-1.4,7.6c-1,10.5,6.7,17.8,14.6,18.7
	c4.2,0.5,8.5,0.8,12.8,1c5.2,0.2,9.9-1.5,14.3-4.1c3.7-2.2,6.1-5.4,6.8-9.6C241.9,121.1,242.1,117.6,242.5,114.1z M186.8,398.9
	c1.4,11.8,2.8,23.4,4.2,35.2c11.2-3.1,22-6.1,33-9.2c-2.8-10.2-2.6-20.2-0.6-30.5C211.1,395.9,199.1,397.4,186.8,398.9z"/>
<path d="M157,629.8c2.3-0.2,4.2-0.5,6.1-0.6c2.8-0.3,5.5,0.3,7.8,2c2.2,1.6,4.3,3.4,6.5,5.1c0.3,0.2,0.5,0.5,0.9,0.8
	c-1.1,0.4-6.9,0.6-7.7,0.4c-0.4-0.1-0.7-0.3-1-0.6c-2.8-2.5-6.1-2.4-9.5-1.6c-1.5,0.4-3,0.7-4.1,1.9c-0.2,0.2-0.7,0.4-1,0.4
	c-2.3,0-4.7,0-7.5,0c0.5-0.4,0.7-0.6,1-0.7c4.1-2.4,4.7-7.1,1.3-10.3c-2.6-2.5-5.4-5-8.2-7.3c-3.7-3-6.9-6.5-9.2-10.7
	c-2.8-5.1-6.4-9.4-10.8-13.3c-5.8-5.2-10.4-11.4-14.5-18c-1.5-2.5-2.3-5.3-2.6-8.2c-0.5-6.1-0.5-12.2,0.2-18.3
	c0.4-3.8,0.4-7.6,0.7-11.4c0.7-9.9,2.4-19.6,6.4-28.7c1.4-3.1,3.1-6,4.9-8.8c2.1-3.5,5.2-6.2,8.6-8.5c2.9-2,5.5-0.8,5.8,2.7
	c0.2,3.3,0.3,6.6,0.4,9.8c0.5,21.1,1.1,42.2,1.6,63.3c0.2,8.7,0.4,17.4,0.5,26.1c0,1.7,0.4,3.1,1.3,4.5c1,1.4,1.8,2.8,2.6,4.3
	c2.3,4.1,5.3,7.6,8.8,10.8c2.3,2.1,4.5,4.4,6.7,6.6C155,623.7,157.2,626,157,629.8z M127.2,591.1c0.2-0.1,0.3-0.2,0.5-0.2
	c-0.7-30-1.6-59.9-2.9-90c-1.2,1-2.4,2.1-3.1,3.3c-1.9,3.2-3.9,6.4-5.4,9.8c-3,6.8-4.4,14.1-5,21.5c-1,11.1-2.1,22.2-1.4,33.4
	c0.1,2.5,0.6,4.7,2.7,6.3c0.3,0.3,0.6,0.7,0.9,1.1c3.6,4.9,7.8,9.4,12.3,13.5C126.1,590.2,126.7,590.6,127.2,591.1z"/>
<path d="M158.2,261.8c3.6,0.3,7.3,0.6,10.9,1c1.9,0.2,3.6,1.1,5.1,2.4c1.3,1.1,2.6,2.2,3.8,3.3c4.2,4.1,6.2,9.1,5.9,15.1
	c-0.3,5.4-1,10.8-3,15.9c-1.6,4.2-4.4,7.4-8.4,9.6c-5.9,3.3-12.1,5.3-19,5.2c-6.1-0.1-11.8-1.7-17.1-4.5c-5.8-3-8.9-7.9-9.2-14.3
	c-0.2-3.6,0-7.3,0.4-11c1.1-9.6,6.8-15.7,15.2-19.7c4.2-2,8.6-2.5,13.1-2.6c0.8,0,1.5,0,2.3,0C158.2,262,158.2,261.9,158.2,261.8z
	 M160.9,268c-5-0.1-9-0.4-12.9,0.9c-7.6,2.6-13.2,7.2-14.6,15.4c-0.6,3.7-0.7,7.5-0.6,11.2c0.2,4.1,2.3,7.4,6.1,9.3
	c10,5.1,20,5.3,30-0.1c3.7-2,6-4.8,7.3-8.7c1.5-4.5,2-9.1,2-13.7c0.1-6.3-3.3-10.2-8.5-13c-0.8-0.5-1.9-0.7-2.8-0.8
	C164.5,268.2,162.2,268.1,160.9,268z"/>
<path d="M298.1,274.3c-0.6,4.7-1,9.4-1.7,14.1c-0.6,4.1-2.8,7.2-6.2,9.5c-7.6,5.2-15.9,7.9-25.1,7.9c-0.5,0-1-0.2-1.5-0.3
	c-1.1-0.2-2.3-0.5-3.4-0.4c-3.7,0.5-6.6-0.9-9.1-3.3c-6.7-6.3-9.5-14.1-8.1-23.2c0.8-5.3,2.8-10,6.5-13.8c0.8-0.9,1.6-1.8,2.4-2.7
	c4.8-5.4,10.7-8.7,18-9.4c4.3-0.5,8.6-0.9,13,0.2c8.1,1.9,14.6,9.6,15,17.9c0.1,1.2,0,2.4,0,3.7C297.9,274.3,298,274.3,298.1,274.3z
	 M265.1,299.6c0,0.1,0,0.1,0,0.2c2.4-0.1,4.9-0.1,7.3-0.4c4.9-0.5,9.1-2.9,13.3-5.3c3.5-2,5.3-4.9,5.6-8.9c0.2-2.9,0.5-5.8,0.8-8.7
	c0.2-1.8,0.7-3.7,0.5-5.4c-0.6-4.9-2.6-9-7.4-11.3c-0.7-0.3-1.3-0.7-2-1.1c-2.4-1.5-4.9-2-7.7-1.5c-2.1,0.4-4.2,0.7-6.3,1.1
	c-3.5,0.5-6.7,1.8-9.3,4c-2.3,1.9-4.3,4.1-6.3,6.3c-3.3,3.6-4.8,7.9-5.2,12.9c-0.5,6.8,2.2,12,6.8,16.5c1.2,1.2,2.7,1.7,4.4,1.7
	C261.4,299.5,263.3,299.6,265.1,299.6z"/>
<path d="M180.8,363.4c-0.4,0-1.1,0-1.6-0.2c-1.1-0.3-1.8-1.1-2-2.2c-0.2-1.2,0.3-2.2,1.4-2.6c1.1-0.4,2.3-0.8,3.5-0.9
	c4.8-0.5,9.6-1,14.3-1.5c10.2-1,20.5-2.1,30.7-3.1c5.5-0.5,10.9-1.1,16.4-1.6c0.8-0.1,1.7-0.1,2.5,0.1c1.2,0.2,2,1.3,2,2.5
	c0.1,1.2-0.6,2.2-1.8,2.6c-0.6,0.2-1.3,0.3-2,0.4c-9.1,0.9-18.2,1.8-27.3,2.7c-8,0.8-16.1,1.7-24.1,2.5
	C188.9,362.6,184.9,363,180.8,363.4z"/>
<path class="st0" d="M273.9,277.5c0,3,0.4,4.9,1.5,6.7c1.4,2.3,3.6,2.8,5.9,1.5c5.2-3,6.4-9.9,2.4-14.4c-2.5-2.8-5.8-2.6-7.8,0.5
	C274.5,273.8,273.9,276.1,273.9,277.5z"/>
<path d="M167.3,287c-0.2,2.6-1,4.9-3,6.5c-3.2,2.6-7.1,1.5-8.4-2.4c-1.3-3.8,0.5-8.4,4.1-10.2c2.8-1.4,5.2-0.7,6.4,2.2
	C166.8,284.3,167,285.7,167.3,287z"/>
<path d="M273.9,277.5c0-1.4,0.7-3.7,2-5.7c2.1-3.1,5.4-3.3,7.8-0.5c4,4.5,2.8,11.4-2.4,14.4c-2.3,1.3-4.5,0.8-5.9-1.5
	C274.3,282.5,273.9,280.5,273.9,277.5z"/>
</svg>
