<?xml version="1.0" encoding="utf-8"?>
<!-- Generator: Adobe Illustrator 25.2.3, SVG Export Plug-In . SVG Version: 6.00 Build 0)  -->
<svg version="1.1" id="레이어_1" xmlns="http://www.w3.org/2000/svg" xmlns:xlink="http://www.w3.org/1999/xlink" x="0px"
	 y="0px" width="1024px" height="640px" viewBox="0 0 1024 640" style="enable-background:new 0 0 1024 640;" xml:space="preserve">
<g>
	<path d="M-55.8,446.1c15.5,1.3,187.5,21,202.9,22.8c16.2,1.8,32.3,4.3,48.5,6.2c10.4,1.2,20.8,3,31.2,4.4
		c12.2,1.6,24.5,2.6,36.7,4.2c11.5,1.4,23,2.9,34.4,4.9c10.7,1.8,21.4,2.9,32.3,3.6c2.1-0.2,0,0,2.1-0.2
		c9.4-9.1,20.5-19.9,31.5-27.2c7.8-5.1,16-9.5,24.3-13.9c2.2-1.2,3-2.4,3.3-4.8c2.3-16.2,4.1-32.4,10.9-47.7
		c3.7-8.3,5.6-17.5,9.4-25.8c1.4-3.1-1.1-4.3-2.6-5.9c-11.6-12.5-17.6-26.7-13.1-43.8c1.8-7.1,6.8-12.8,10.6-18.9
		c3.4-5.5,7.5-10.6,11.4-15.7c2.6-3.4,15.2-12.7,19.2-14.1c1.8-2.8,3.8-4.6,7.8-12.5c4.6-9.1,3.9-17.6,0.6-27.1
		c-2.9-8.6-4.2-17.9-3.7-27.2c0.6-12.2,0.9-24.4-0.2-36.5c-0.4-4.8-1.2-9.3-5-13.1c-4.2-4.2-8.5-5.7-14-3.8
		c-1.7,0.6-3.2,1.7-5.1,0.6c-10.2-5.8-21.5-3.3-32.3-3.9c-2.6-0.2-2.4,1.8-2,3.9c2.4,11.4,5.3,22.8,8.8,33.9c2.9,9.2,7.1,18,10,27.2
		c1.7,5.4,6,6.6,10.2,8.2c6.1,2.3,12.5,3.7,17.2,8.9c9.8,10.9,5.2,30.4-8.6,35.8c-9.7,3.8-12.1,3-18.3-5.7
		c-9.9-13.9-17.6-29.2-26.7-43.7c-5.2-8.4-9.7-17.2-13.8-26c-5.1-11-11-21.8-13.8-33.9c-1.7-7.3-4.1-14.5-6.4-21.6
		c-2.9-9.1,2.6-13.1,8.6-16.7c10-6,20.8-9.9,32.7-9.6c6.7,0.1,13.4,0.3,20.2-0.7c3-0.4,5.5-1.1,7.9-3c3.8-3,8.7-2.7,13.1-2.6
		c23.2,0.5,67.7-3,73.9-3.5c4.8-0.4,1.3-3.4-1.3-8c-3.3-5.9-6.1-9.2-8-15c-4.5-14.2-9-28.4-6.9-43.7c1.4-10,12.2-21.3,22-24.3
		c14.1-4.3,27.4-2,40.8,0.8c16.1,3.3,24.3,12.7,26,29.2c0.3,1.4,0.2,2.9-0.8,4.2c-7.5,9.3-4.1,18.7-0.1,28c2.2,2.4,3.6,4.6,4.5,6.7
		c1,2.4,2,4.7-0.9,6.6c-4.7,3.1-5.6,7.7-6.5,12.4c-0.8,3.8-2.3,7-5.2,9.7c-3.4,3.2-1.5,5.5,1.8,6.2c6.9,1.4,13.1,4.9,20,6.5
		c8.4,1.9,12.9,7.8,15.6,15.7c3.2,9.4,6.3,18.8,7.9,28.6c0.6,3.8,3.2,6.7,5,10c1.7,3.2,3.3,6.1,3.7,9.9c0.3,3.8,3.9,5.9,6.4,8.1
		c6.6,5.7,10,13.5,14,20.8c2.2,4.1,4.8,4.3,7.9,2.5c9.1-5.1,17.3-11.2,22-21c3.4-7,17.6-6.3,21.7,0.1c3.8,5.9,6.3,12.9,9.9,19.1
		c4.3,7.5-4.4,21.2-13.8,21.3c-8.3,0.1-14.4,4.7-20.4,9.8c-7.9,6.6-17.4,9.7-27.5,11.1c-2.8,0.4-4.8,0.1-6.8-2.6
		c-6.9-9-14.2-17.6-21.4-26.4c-4-4.9-9.5-8.7-12.2-14.7c-2.9-6.4-10.3-7.2-14.3-12.4c-2-2.6-3.6,1.5-4.1,3c-2,6.4-5,12.4-7.4,18.6
		c-1.9,4.8-4.7,9.2-7.1,13.8c-3.2,6.3-4,13.3-7.9,19.4c-5.2,8.2-9.2,17.3-13.8,25.9c-7.3,13.6-12.7,28-17.3,42.8
		c-2.1,6.7-3.5,13.9-7.9,19.7c-1.8,2.4,0.2,3.5,1.7,4.8c2.1,1.7,5,2.7,4.1,6.6c-0.4,2,1.9,3.5,3.5,4.5c16,10.1,30.8,22.1,46.8,32.3
		c5.2,3.3,10.3,6.9,13.1,12c5.4,9.9,3.1,20.1-1.3,30c-6.8,15.5-14,30.9-17.4,47.8c-1.8,8.8-4.7,17.4-7.5,25.9
		c-1.1,3.5-1,7.1-2.6,10.5c-1.4,2.8,1.1,3.4,3.1,3.8c7.5,1.5,14.9,3.5,22.4,4.1c8.4,0.6,16.5,2.5,24.6,4.2c20.8,4.2,41.8,7,62.5,11
		c18.3,3.6,36.6,6.8,55,9.8c23.4,3.7,46.7,8.2,70,12.2c16.8,2.8,33.5,6,50.2,8.6c13.9,2.2,190.4,38.4,204.5,39.8
		c1.8,0.2,4.1,0.5,4,2.8c-0.1,2.5-2.5,1.4-3.8,1.5c-9.7,0.6-181.8-34.9-191.3-36.3c-17.5-2.6-34.9-5.3-52.3-8.9
		c-19-3.9-38.1-6.7-57.1-10.1c-20.4-3.7-40.9-7.4-61.4-10.4c-11.5-1.6-22.8-3.8-34.2-5.7c-6.7-1.1-13.5-2.5-20.2-3.8
		c-10.1-2-20.4-3-30.5-5c-9.6-1.9-19.4-2.2-28.8-5.2c-5.2-1.6-10.7-1.4-16-3.1c-4.5-1.4-4.3,3.4-5.3,6c-1.2,3.1,1.6,3,3.4,3.4
		c25.5,4.4,50.8,9.8,76.3,13.8c20.7,3.3,41.3,7.5,62.1,10.6c20.4,3,40.6,7.7,60.9,10.8c17.5,2.6,34.8,6.4,52.4,8.8
		c22.8,3.1,208.1,40.6,230.9,44.1c5.2,0.8,11-0.1,15.6,3.8c0.8,0.7,2.1,0.8,1.8,2.3c-0.3,1.5-1.5,1.4-2.6,1.4c-2,0-4.1,0.3-6-0.2
		c-14.9-3.8-193-38.6-208.2-40.9c-21.6-3.2-43-7.7-64.7-10.5c-14.1-1.8-28.1-5.2-42.2-7.3c-21.1-3.2-42-7.6-63.2-10.1
		c-9.7-1.2-19.2-3.6-28.8-5.3c-16.4-2.7-32.9-5.2-49.3-7.9c-12.5-2-25-4.2-37.5-6.3c-2.5-0.4-3.8,0.3-3.8,3.1
		c0.1,15.3,0.2,30.6,0.4,45.8c0.1,4.2,3.6,5.6,6.8,6.7c6.2,2.2,12.6,1.4,18.9,1c4.7-0.3,9.4-0.3,13.6,2.4c4.1,2.6,5.6,7.5,3.3,11.7
		c-1.3,2.5-3.1,4.9-4.3,7.4c-1.1,2.3-1.8,4.1,2.2,5.3c15.8,4.5,31.9,7.6,47.8,11.6c9.4,2.4,18.9,4.8,28.4,7
		c20.6,4.7,40.9,10.4,61.5,14.9c14.3,3.1,28.3,7.3,42.5,10.7c14.4,3.5,28.9,6.3,43.1,10.1c9.8,2.6,19.6,5,29.4,7.4
		c15.1,3.6,30.1,7.4,45.2,10.9c1.9,0.4,3,0.9,3,3c-10.3,1.5-20.2-1.2-29.9-3.6c-16.1-4-32.1-7.9-48.2-11.7c-11-2.6-22-5.5-32.9-8.3
		c-14.1-3.7-28.4-6.4-42.5-10c-9.1-2.4-18.2-4.6-27.3-6.7c-17.5-4-34.9-8.7-52.4-13c-15.4-3.7-31-6.6-46.2-11.1
		c-9.7-2.9-19.9-3.5-29.2-7.7c-1.5-0.7-2.6-0.6-3.9,0.4c-2.6,1.9-5.4,3.5-8.9,5.8c6.3,2.3,12.5,3.4,18.4,4.8
		c8.9,2.1,17.9,4.2,26.8,6.3c14,3.3,28,7.1,42,10.5c22.8,5.5,45.6,10.9,68.4,16.6c18.9,4.7,37.6,10,56.5,14.5
		c15.9,3.8,31.7,8.2,47.6,12.1c13.5,3.3,27.1,5.7,40.3,10.2c5.4,1.9,10.8,3.8,16.2,5.6c1,0.3,1.6,0.8,1.6,1.8c-0.1,1.2-1,1.3-2,1.3
		c-1.5,0-2.8-0.3-4.2-0.7c-10.8-3.5-22-5.4-33-8.1c-10-2.4-19.8-5.2-29.8-7.6c-15-3.7-30.2-6.9-45-11.1c-9.5-2.7-19.3-4.5-28.9-7.2
		c-15.1-4.1-30.5-7.4-45.7-11.2c-9.8-2.4-19.5-5.2-29.3-7.6c-14.2-3.4-28.4-6.6-42.6-10c-4.5-1.1-9.1-2.3-13.5-3.6
		c-16.9-5-34.3-8.3-51.3-12.7c-11.5-3-23.2-5.1-34.8-7.7c-4.7-1.1-9.4-2.5-14.1-3.7c-15-4.1-30-7.6-45.1-11
		c-17.2-3.9-34.2-8.4-51.4-12.2c-13.5-3-27-6.3-40.4-9.6c-17.1-4.2-34.4-7.6-51.5-12.2c-12-3.2-24.4-4.6-36.2-8.6
		c-2.8-1-3.9,1-5.4,2.6c-4.4,4.9-7.2,11-11.9,15.9c-5.5,5.8-9,5.4-13.3-1.1c-3.9-5.8-2.4-11.9-2.3-17.9c0-4.5-1.5-6.2-5.7-6.4
		c-8.2-0.4-15.9-3.1-23.9-4.5c-19-3.3-37.9-7.2-56.8-10.9c-12.1-2.4-24.1-5-36.1-7.4c-9.7-2-19.5-3.7-29.3-5.6
		c-1.4-0.3-144.2-25.2-145.6-25.7c-1.8-0.6-1.6-2.2-1.5-3.7c0.2-2,1.7-1.5,2.9-1.3c10.3,2,161.9,28.7,172.2,30.7
		c19.1,3.8,38.3,7.4,57.4,11.2c14,2.8,28.2,4.3,42.1,8c6.8,1.8,13.8,4.4,21.2,4.2c3-0.1,5.5-0.3,6.1-3.8c0.7-3.8-2.2-4.7-4.8-5.3
		c-5.3-1.2-10.5-2.4-15.9-3.1c-9.8-1.3-19.5-3.7-29.2-5.6c-14-2.7-28.1-5.1-42.1-7.7c-11.7-2.2-23.4-4.6-35.1-6.8
		c-9.4-1.8-18.6-4.3-28.2-5.3c-1.2-0.1-143.8-25.1-145.1-25.4c-2.2-0.6-1.9-2.6-1.7-4.1c0.3-2.4,2.2-1.1,3.4-0.9
		c16.1,3,173.7,30.3,189.8,33.7c18.2,3.9,36.6,6.7,54.8,10.1c15.3,2.8,30.5,5.8,45.8,8.7c0.5,0.1,1.1,0.3,1.6,0.3
		c3.1,0.2,6.1,4.3,8.9,1.7c2-1.8,2.2-5.5,3.1-8.4c3.1-9.4,6-18.8,9.2-28.1c2-5.9,1-7.7-4.7-8.3c-14.9-1.6-29.8-3.4-44.7-5.6
		c-17.4-2.5-34.9-4.2-52.3-6.5c-12.9-1.7-25.8-3.8-38.7-5.6c-10.4-1.5-152.6-16.9-163-18.1c-2.1-0.2-3.4-0.4-3.6-2.9
		c-0.2-3.1,1.8-2.4,3.6-2.6c3.2-0.3,137.9,14.8,140.9,15.2c20.1,2.6,40.4,4.6,60.4,7.8c12,1.9,24.1,3.3,36.1,5.1
		c21.3,3.3,42.8,5.5,64.2,8.8c5.7,0.9,10.4-0.5,15.6-2c7.4-2.1,20.1-2.7,27.9-2.4c0-0.5,0,0.1,0-0.4c-5.6-0.6-16.2-2.2-21.8-2.9
		c-12.7-1.7-25.4-4.5-38.2-5.1c-19.6-0.9-38.7-5.5-58.1-7.3c-12.5-1.2-25.1-3.5-37.7-5.3c-16.5-2.3-32.9-5.3-49.5-6.4
		C106.1,469.6-50,452.5-53,452 M485.9,108.4c-8.9,0.8-14.7,1.1-23.5,2.1c-11.5,0.8-27.7,0.6-40.8,1c-6.4,0.2-7.3,1.7-7.5,8
		c-0.3,7.8,1.1,15.3,3.2,22.9c2.3,7.9,2.3,8.4,10.5,7.2c6.4-0.9,15.1,4.5,17.1,10.7c2.9,9.3,3.3,19,2.7,28.6
		c-0.9,17.7-0.2,34.9,5.5,51.9c2.9,8.6,3.5,17.9-2.9,25.8c-3.4,4.2-1.5,5.9,2.7,7c9.5,2.5,19.2,4.8,28.6,7.7
		c14.1,4.3,28.3,8.4,42.6,12c2.5,0.6,4.2-0.2,5.4-2.4c5.6-9.8,9.5-20.5,15.8-30c4.6-7,8-14.8,10.4-22.9c2.5-8.5,8-15.5,11.7-23.5
		c6-13.2,7.4-27.4,10.8-41.2c0.6-2.4,0.1-5.1,3.5-4.7c3.3,0.4,2.4,3,2,5.1c-0.2,1.2-0.5,2.5-0.9,3.7c-1.8,5.5-2,10.6,1.5,15.9
		c3.6,5.5,6.1,6.4,10.9,1.6c3-3,5.6-6.3,9.4-8.4c4.6-2.5,5.5-5,3-9.4c-5.6-9.8-7.9-20.7-10.9-31.4c-1.9-6.8-3.3-14.1-10.8-17.8
		c-9.5-4.7-19.9-7.1-29.6-11.2c-3.1-1.3-5.8,0.2-5.5,4.3c0.2,3.4-1.4,5.8-3.9,7.9c-6.6,5.4-22,2.7-26-4.8c-1.8-3.4-3.9-6.5-5.7-9.8
		c-2.8-5-7-7.4-12.6-7.4C497.6,106.8,491,108.4,485.9,108.4z M509.7,539.7c0-2.2-0.3-3.6-3.2-3.9c-19.1-2.2-37.9-5.9-56.7-9.1
		c-23.1-3.9-46.6-6-69.2-12.5c-0.8-0.2-2-0.1-2.6,0.3c-7.2,5.8-16.1,7.6-24.6,10.5c-7.7,2.6-15.6,4.6-22.9,7.9
		c-5.7,2.6-12.8,2.4-16.9,8.4c-3.7,5.5-6.7,11.6-11.8,16.1c-2.1,1.9-1.3,3.5,1.2,4.4c1.4,0.5,2.7,1.1,4.2,1.2
		c14.9,1.7,29.3,6.1,43.8,9.4c17.6,3.9,35.3,7.4,52.7,11.9c20.6,5.3,41.6,8.8,62.2,14.5c7.3,2,14.8,3.2,22.2,4.8
		c3.1,0.7,4.4-0.4,4.4-3.5c0.1-10.7,4.3-20.1,11.3-27.6c4.3-4.6,5.9-9,5.6-14.8c-0.1-2,0-4,0-6 M321.5,502.5
		c0,0.1-10.3-0.3-10.3-0.3c-6,0-12.1-0.7-18,0.2c-5.4,0.8-12.1,1-14.3,7.7c-4.5,13.6-8,27.6-13,41c-3.9,10.4-5.2,20.9-5.8,31.8
		c-0.2,2.7,0.9,5,1.6,7.3s2.8,3.5,4.9,0.8c2.3-2.9,4.7-5.8,6.7-8.9c6.7-10,13.7-19.6,23.4-27c2.2-1.6,4.6-3.4,5.8-6.3
		c5.5-13.5,15.3-18.7,28.3-22.2c0,0,23.2-7.3,33.6-11.2c13.3-5,24.5-13.8,36.4-21.2c5.7-3.5,11.2-6,18.3-4.9
		c7.3,1.1,14.2-5.1,13.9-12.4c-0.2-5,1.5-9.6,3.9-13.3c8.1-12.4,17-24.2,25.6-36.3c4.5-6.4,9.2-12.7,13.5-19.2
		c1.1-1.7,3.6-4.1,0.5-6.1c-3.3-2.1-7.1-3.4-10.4-5.7c-1.4-1-3.1-0.2-4.3,1.2c-2.6,2.9-5,2.3-8,0.1c-10.4-7.5-21.1-14.7-31.7-22.1
		c-2.8-1.9-5.5-2.9-6.5,1.5c-1.6,7.4-4.5,14.4-7.4,21.2c-6.4,14.8-8.8,30.4-10.8,46c-0.8,6.5-7.3,11.8-12.4,14.4
		c-29.6,12.5-50,39.7-57.3,42.1c-1.1,7.3,2.5,18.1,8.3,24.3c-0.8,0.3,0,0-4.1,1.2C330.5,525.7,322.2,509.6,321.5,502.5z
		 M515.7,532.6c-0.2,2.4-0.6,4.2-0.5,6c0.7,12.5-0.3,22.2-3.1,31.4c3.3,6.9,11.4,6.2,17.6,6.5c7.4,0.4,14-0.1,13.5-3.9
		c-3.6-32.1,4.3-45.9,9.6-63.8c2.6-8.6,4.6-17.4,6.9-26c3.6-13.7,8.3-27.1,14-40.1c2.8-6.4,5.7-12.7,7.8-19.4
		c3.9-12.6-3-20.5-12.6-27.2c-13.9-9.7-27.5-19.7-41.4-29.4c-7.2-5-12.8-11.2-24.3-7.2c-15.6,5.4-25.3,15.6-33.6,28.4
		c-1,1.5-1.7,3.6,0.9,4.9c18.3,9.3,35.4,20.8,53.5,30.6c1.5,0.8,2.5,2,2.8,3.8c1.4,6.9,2.1,13.9,2.5,21c0.4,7-3.7,11.6-6.9,17.6
		c-2.7,3-3.6,5.9-4.3,10.1C518.4,495.1,516,514.1,515.7,532.6z M464.7,320.4c4.2-0.7,9.1,1.6,13.4,3.6c10.2,4.9,20.6,9.5,29.8,16.3
		c2.5,1.8,3.8,1.6,4.8-1.3c1.2-3.6,2.8-7,4-10.6c2.7-8.6,5.8-17,7.3-25.9c0.3-1.5,0.9-2.9-1.1-3.6c-3-1.1-6-2.5-9.1-3.2
		c-13.3-3.1-26.4-7-39.5-10.8c-7.7-2.3-15.4-4.7-23.3-6.5c-3.6-0.8-7.6-2.1-11.4,0.4c-7.4,4.9-15.6,8.8-20.5,16.8
		c-7.7,12.5-19,22.6-18.5,39.6c0.3,10.9,4.1,20.1,11.1,26.1c13.2,11.3,28.4,20.4,42.7,30.4c2.6,1.8,4,1.5,6.2-1.1
		c5.6-6.9,10.6-14.2,16.2-21.1c7.2-9,18.3-11.9,28.6-15.8c1.7-0.6,3.7-0.5,4.3-2.6c0.6-2-0.9-3.3-2.3-4.6c-8.4-8-18.8-12.7-29.3-17
		c-5.8-2.4-11.6-3.8-17.9-3.3c-1.5,0.1-2.9-0.2-3-2.3c-0.1-2,0.7-3.1,2.7-3.2C461,320.6,462.3,320.6,464.7,320.4z M523.6,443.9
		c0-1.3,0.2-2.7,0-4.2c-0.7-4.6-0.2-10.1-4.4-12.9c-10-6.5-20.4-12.3-30.7-18.2c-2.8-1.6-5.5-2.2-7.7,1.6c-2.5,4.4-5.8,8.3-8.8,12.4
		c-7.6,10.6-15.3,21.1-22.6,31.9c-4.6,6.8-10.5,12.8-10.5,22.2c0.1,10.5-11.6,19.7-21.9,17.8c-4.3-0.8-7.8,0.6-11.2,2.7
		c-0.8,0.5-2.7,1.2-2.2,2.7c0.4,1.5,2,2,3.5,2.1c2.7,0.2,5.4,0.1,8.1,0.6c11,2.1,22.1,4.4,33.2,5.7c18,2.2,35.8,4.9,53.7,8.1
		c8.7,1.5,9.3,1.3,9.5-7.7c0.2-10.2-0.3-20.4,0.6-30.5c0.5-5.3,2.6-9.8,5-14.5C520.4,457.7,524.6,451.6,523.6,443.9z M383.6,116.7
		c-10.6-1.8-19.5,3.2-28.2,7.8c-8.8,4.6-8.6,5-6.7,14.6c0.1,0.5,0,1.1,0.1,1.6c2.1,8,3.3,16.4,6.4,23.9c5.9,14.2,12.8,28,19.7,41.7
		c4.8,9.7,11,18.8,16.2,28.3c5.3,9.6,11.5,18.5,17.4,27.6c2.2,3.3,5.1,3.5,8.5,2.2c4-1.5,7-4.1,9.4-7.7c4-6,4.3-11.7,1.6-16.8
		c-3.4-6.7-9.8-8.3-15.9-10.9c-5.2-2.2-11.3-3.1-14.4-8.9c-1.4-2.6-1.6-5.5-2.7-8.2c-3.7-9-7.3-18-10-27.2
		c-3.2-11.1-5.4-22.4-8-33.6c-1.5-6.5-1-7.3,5.8-6.9c8.4,0.5,16.7,1.2,25.1,1.9c3.9,0.4,5.4-1.3,3.8-4.6c-3.5-7.2-3.1-14.8-2.7-22.4
		c0.3-4.6-1.9-5.2-5.4-4.7C396.9,115.3,390.4,117.1,383.6,116.7z M539.4,126.6c4.5-0.7,4.9-1.3,6.4-5.8c1.1-3.2,1.4-6.7,2.3-10
		c0.4-1.6,1.3-3.4,3-3.6c10.3-1,12-8.1,12-16.5c0-1.4-0.2-2.6,1.7-3.5c5.7-2.5,6.9-6.6,2.6-11.4c-5.4-6-6.3-13-6.2-20.3
		c0.1-5.7-0.1-9.5-7.9-9.5c-0.7,0-1.7-0.2-2.6-0.5c-7.2-2.3-14.3-5-21.6-6.7c-10.4-2.4-16.1,3.8-13.2,14c0,0.2,0.1,0.4,0.1,0.5
		c1.3,3.5-0.3,5-3.6,5.6c-1.4,0.2-3.4-1-4.1,1.5c-0.6,2.4,1.1,3.7,2.6,5c1.4,1.1,3,2,4.5,3c5.2,3.3,7.4,9.9,3.5,15.4
		c-2.7,3.8-6.3,1.8-10.2,1c-2.7-0.6-7.7-0.8-8.7,1.1c-1.4,2.6,6.4,15,9.6,15.5c4.9,0.8,6.8,4.1,8.4,8.1
		C522.4,120.4,529.6,126.4,539.4,126.6z M635.9,251.1c9.4-1.9,19-4.3,26-10.8c5.5-5.1,12.3-7.6,18.1-7.9c9.9-0.5,14.4-7.9,12.2-15
		c-1.8-5.9-4.9-11.6-8-17c-3-5.3-11.3-5.9-14.2-1.1c-4.4,7.3-11.3,12-16.8,18.2c-3.6,4.1-9.5,5-14.9,5.7c-2.4,0.3-4.5-1.6-5-3.6
		c-0.7-2.9-2.7-5.1-4-7.6c-3.9-7.4-8.4-14.4-15.1-19.9c-2.8-2.3-4.7-3.4-7.8-0.5s-6.8,5.2-10.3,7.6c-2.5,1.7-2.7,3.2-0.7,5.7
		c11.8,14.3,23.5,28.7,35.1,43.2C631.9,250,633.2,251.8,635.9,251.1z M506.7,576.7c-4.4,6-7.5,12.5-8.9,19.8
		c-1.2,6.7,0,10.4,6.7,15.7c0.6,0.2,1,1,1.6,1.4c9.1,5.8,17.2,13.4,28.7,14.7c6.4,0.7,12.8,2.2,18.8,3.3c15.1,0.2,26.2-6,32.4-17.8
		c2.6-4.8,0.7-8.1-4.9-8.2c-7.1-0.1-14.2,0-21.3-0.1c-7.7-0.1-12.9-4.4-15-11.7c-0.9-3.2-0.8-4.5-1-7.7c-0.1-1.7-0.1-3.7-0.1-5.2
		c0-2.8-0.1-1.1-1.6-0.2c-2.1,1.3-9.9,1-16.4,1.4c-6.6-1.3-12.3-2.6-17.2-8.2 M528.2,14.1c-8.9-0.2-16.2,0-23.6,2.2
		c-8.6,2.5-17.7,13.4-18.4,23.6c0,13.6,5.2,28.1,6.7,35.8c0.6,2.2,4,5,6.8,5.1c4.3,0.1,8.4-2.4,12.8-0.6c1.5,0.6,3.3-0.9,3.3-2.6
		c0-1.6,0.1-3.1-2.8-5.7c-5.4-4.7-9.5-7.1-12.4-12.2c-2.3-4.2-0.4-7.3,4.5-7.2c3.9,0,4.2-1.4,3.6-4.6c-1.2-5.4,0.6-9.3,5.9-11.9
		c9.5-4.6,18.4-2.9,27.7,0.6c5.9,2.2,11.7,4.8,18.3,4.8c2.5,0,4.2-0.9,4.8-3.5c0.9-4.3-6-14.3-9.8-16.7
		C552.1,19.2,537.4,14.1,528.2,14.1z M499.7,616.6c-3.6-4.2-7.9-7.1-13.3-8.1c-8.9-1.6-17.6-3.6-26.4-5.7
		c-21.8-5.3-43.8-10.1-65.8-14.8c-5.5-1.2-10.8-2.8-16.3-3.9c-11.8-2.5-23.7-4.4-35.4-7.1c-10.7-2.4-21.2-5.9-32-8
		c-5.3-1.1-10.8-1.5-15.6-3.4c-3,0.3-4.9,1.8-5.1,4.3c-0.3,3,1.1,2.3,3,3c2.1,0.9,5.3,0.7,7.3,1.4c13,2.4,28.9,5.6,43.2,9.5
		c16.3,4.5,33,7.9,49.5,11.6c9.7,2.2,19.3,4.8,28.9,7c16.2,3.7,32.4,7.2,48.5,11.2c9.3,2.3,18.6,4.6,28,6.2c2.4,0.4,4.4,1.4,6.7,1.3
		 M386.8,510.4c7,2.6,14.4,3.3,21.6,4.4c10.9,1.6,21.7,4.1,32.6,5.8c20.7,3.4,41.4,6.5,62.1,9.7c2.3,0.4,5.3,1.8,6.2-2
		c0.9-3.6-1.7-4.9-4.5-5.5c-5.7-1.1-11.4-1.7-17.1-3c-10.7-2.5-21.7-3.5-32.5-5.5c-17-3.2-34.4-4.4-51.2-8.6
		C397.1,504,391.4,503.9,386.8,510.4z"/>
</g>
</svg>
