<?xml version="1.0" encoding="utf-8"?>
<!-- Generator: Adobe Illustrator 25.2.3, SVG Export Plug-In . SVG Version: 6.00 Build 0)  -->
<svg version="1.1" id="레이어_1" xmlns="http://www.w3.org/2000/svg" xmlns:xlink="http://www.w3.org/1999/xlink" x="0px"
	 y="0px" viewBox="0 0 1024 640" style="enable-background:new 0 0 1024 640;" xml:space="preserve">
<g>
	<path d="M915.8,710.1c-1.8,0-3.5,0-5.7,0c-1-6.7-1.8-13.5-2.9-20.3c-4.9-29.3-9.3-58.7-15-87.9c-3.8-19.4-16-33.3-32-44.5
		c-18.7-13.1-39.7-21-60.9-28.7c-14.2-5.2-26.8-13.2-38.1-23.3c-0.6-0.6-1.2-1.2-1.8-1.8c-3.4-3.4-4.3-6.8-2.5-11.7
		c9.5-25.8,18.7-51.7,27.9-77.7c1.6-4.5,4.5-7.8,8.3-10.4c6.8-4.7,11.4-11.3,15.5-18.2c2.4-4-0.9-10.2-6-11.1
		c-5.3-1-10.6-1.6-15.9-2.1c-2.9-0.3-3.9-1.4-3.9-4.4c0.2-15.7-1-31.1-6.5-46.1c-5.6-15.1-14.2-27.9-27-37.8
		c-8-6.1-17.2-8.8-26.9-10.6c-12.6-2.3-25.1-1.5-37.3,1.8c-5.1,1.4-10.3,4.2-14.2,7.8c-6.6,6-12.7,12.9-18.3,19.9
		c-5.8,10.7-7.9,17.4-10.2,26.8c-3.2,12.8-3.2,25.8-3.1,38.9c0,2.4,0.1,4.9,0.1,7.3c0,4.9-0.7,5.6-5.7,5.9c-2.1,0.1-4.1,0.3-6.2,0.6
		c-9,1.4-13.6,8.2-10.2,16.7c1.7,4.2,4.7,8.3,8.2,11.3c6.3,5.5,13.3,10.3,21.8,12.1c0.9,0.2,1.9,1.1,2.4,1.9
		c6.5,12.2,13.1,24.5,19.4,36.8c4,7.8,7.5,15.9,11.1,23.8c8.4,18.5-1.9,38.3-21.6,44.1c-6.9,2.1-13.3,3.3-20.5,3.6
		c-11.3,0.5-22.7,0.6-34,0.8c-6.7,0.1-13.4,0.5-20,1.5c-14.8,2.2-25.8,10.5-34.7,22.3c-14.1,18.7-23.8,39.5-31.5,61.5
		c-10.5,30.1-21.7,60-32.5,90c-0.2,0.4-0.4,0.9-0.6,1.3c-2.3,0-4.4,0-7.2,0c12.4-34.7,24.6-69.1,36.9-103.6c-98.4,0-196.6,0-295.1,0
		c0.3-1.2,0.7-2.6,1.1-3.9c16.3-54.3,32.7-108.6,49-162.9c2.8-9.3,0.3-8.6,11.3-8.6c15.1,0,30.3-0.1,45.4,0c3.8,0,7-0.4,6.6-5.6
		c30.1,0,59.8,0,90.6,0c-0.5-8.1-0.8-15.8-1.6-23.4c-0.3-2.9-3-3.2-5.4-3.2c-7.8,0-15.6,0.1-23.4,0.1c-75.6,0.6-151.2,1.2-226.9,1.8
		c-8,0.1-8.1,0-8.2-8.2c-1.5-118.6-3.1-237.1-4.6-355.7c-0.1-9.7-0.1-9.8,9.7-9.8c121.5,0.6,243,1.2,364.5,1.8
		c69,0.4,138.1,1,207.1,1.5c16,0.1,32,0.2,47.9,0.4c11,0.1,11.9,1,11.5,11.8c-1,24.4-2.5,48.7-3.2,73.1c-0.6,19.7-0.5,39.5-0.6,59.3
		c-0.4,52.6-1,105.1-1.2,157.7c0,8.8,1,17.5,1.4,26.3c0.2,3.5,2.4,4.9,5.4,5.4c2.2,0.4,4.4,1.4,6.5,1.7
		c10.8,3.5,13.6,10.4,13.8,19.7c-1.8,7-6.4,13.8-12.2,18.1c-11.4,8.5-17.1,18.8-21.1,32.4C777,455,770.3,472.9,764,491
		c-2.2,6.2-1.9,6.5,3.1,10.7c15.8,13.3,34.3,21.3,53.5,27.8c13.6,4.6,26.6,10.2,38.2,18.7c4.2,3.1,7.2,4,11.2,7.3
		c1.4,1.2,3.6,4,5.2,5c10,8.3,15.4,16.6,21.1,30.9c4.2,23,8.3,46,12.1,69.1c2.6,15.7,4.7,31.6,7,47.4
		C915.7,708.5,915.7,709.2,915.8,710.1z M741.1,272.4c0-0.8,0-4,0-5.2c0.2-51.8,2.5-103.7,2.7-155.5c0-6.7,0.1-13.4,0-20.1
		c0-5.3-3.1-6.3-8.4-6.7c-1.2-0.1-2.4-0.1-3.7-0.1c-14,0-28.1-0.1-42.1-0.1c-165.1-0.4-330.3-0.7-495.4-1.1c-1.3,0-2.5,0.1-4.1,0.2
		c3.5,88.3,7,176.1,10.5,264.1c1.8,0,3.2,0,4.5,0c37.1-0.4,74.2-0.8,111.2-1.2c101.8-0.9,203.7-1.8,305.5-2.7
		c10.5-0.1,3.6,0.2,11.3-0.3c4.4-32.1,14.4-49.5,30.8-63.8c6.1-5.3,11.6-9.2,19.6-11c11.1-2.6,22.4-4.6,33.8-3.2
		C725.3,266.8,733.7,269.1,741.1,272.4z M158.7,32.9c1.6,120.9,3.1,241.4,4.7,362.2c3.4,0,6.3,0,9.2,0
		c107.1-0.9,214.2-1.9,321.3-2.8c36.2-0.3,78.5-0.4,114.7-0.5c2.8-6.7,2.2-5.3,4.5-8.6c1.7-1.7,5.1-6.7,12-7.3
		c2.2-0.2,4.3-0.6,6.9-0.9c0-6.8,0.1-13.5-0.1-20.2c0-1.1,0-1.1,0.1-3c-1.1-0.5-5.6-0.2-7-0.2c-66.2,0.3-132.5,0.5-198.7,0.9
		c-75.5,0.4-151,0.9-226.5,1.4c-4.8,0-5.1-0.2-5.3-4.8c-1.3-34.6-2.5-69.2-3.8-103.8c-1.1-28.9-2.2-57.8-3.3-86.7
		c-0.9-25.1-1.9-50.2-2.7-75.3c-0.2-5.2,0-5.5,5.1-5.5c9.9-0.1,19.8,0,29.6,0c96.7,0.2,193.5,0.5,290.2,0.6
		c78.8,0.1,157.6,0,236.4-0.1c3.4,0,4.6,0.7,4.5,4.4c-1.3,61.3-2.4,130.1-3.7,191.4c0.9,0.6,1.3,0.7,6.3,4.9
		c5.9,4.6,11.5,9.8,16.5,15.4c3.4,3.7,5.6,8.6,8.1,13c1.1,1.9,3.9,7.8,4.8,11.7c1-90.5,1.7-191.3,2.7-282
		C576.1,35.6,367.7,34.2,158.7,32.9z M465,599.3c15.4-0.1,35.9,0.3,51.3,0c3-4.2,4.8-7.6,7.3-14.1c-1.9,0-5.8-0.1-7.7,0
		c-15.3,1-29.7,1.3-45,1.9c-35.5,1.4-70.9,2.8-106.3-2c-10-1.4-11.3-2.5-10.6-12.7c1-13.4,1.9-26.8,2.9-40.1
		c0.6-7.4,1.3-14.8,2-22.5c5.9,0,11.3,0.1,16.8,0c40.5-1.3,80.9-3.4,121.4-3.7c34.5-0.2,69,1.8,103.5,2.8c2.4,0.1,3.1,1.1,3.3,3.3
		c0.3,3.8,0.8,8.5,1,12.3c0.1,2.4,1.1,2.2,3.3,2.2c8.3,0.1,16.6,0.5,24.9,0.4c10.7-0.1,21.1-2.2,30.7-7.2
		c11.8-6.3,16.3-18.7,10.8-30.7c-5.4-11.6-11.4-22.9-17.2-34.3c-2.3-4.4-4.6-8.9-7.1-13.2c-2.1-3.6-4-7.4-8.4-7.7
		c-5.6-0.3-12.2,0.5-17.8,0.3c-1.6,0-3.3-0.6-5.4-0.3c3.7,18.2,7.1,39.6,9.4,54.7c-1.3,0.1,0.6,0.3-0.6,0.3
		c-27.1-0.6-54.1-2.1-81.2-3c-42.7-1.3-85.3-2-128-3.4c-25.2-0.8-50.5-1.4-75.7-2c-2.8-0.1-2.5-0.5-2.9-3.6
		c-1.4-11.2-3.3-23.2-4.9-34.4c-0.7-4.8-4.2-6.4-9-6.4c-14.1,0.2-25.9,0.1-40,0.3c-6.6,0.1-9.7-0.3-11.6,5.9
		c-12.6,42.7-24.6,88.1-37.2,130.8c-2.5,8.6-6.2,18.4-8.9,27.5 M597.4,526.8c0.6-8.3,0-10.3-7.8-10.8c-15.3-0.9-30.7-1.4-46-2
		c-57.8-2.4-115.5,0-173.2,3.8c-3.6,0.2-5.3,2-5.5,5.5c-1,16.2-2,32.4-3,48.5c-0.3,5.1,1,6.8,6,7.2c10.8,1,21.6,2.4,32.4,2.4
		c23.6-0.1,47.3-0.8,70.9-1.4c17.1-0.5,34.1-1.3,51.2-1.9c3.2-0.1,5.9-0.9,7.8-3.8c4.9-7.5,9.9-15,14.9-22.5
		c7.6-11.4,18.2-18.4,31.6-21.4C583.5,528.7,589.5,526.7,597.4,526.8z M423.7,431.9c-2.1-0.2-4.8-0.6-6.4-0.6
		c-24-0.1-48-0.1-72.1-0.1c-4.9,0-5.9,2-5.3,6.9c1.2,9.9,2.5,19.8,3.9,29.7c0.6,4.3,1.8,6.2,6.3,6.4c10.5,0.4,21,0.6,31.4,1
		c40.2,1.3,80.4,1.8,120.6,3c37.5,1.1,75.1,1.8,112.6,2.7c4.9,0.1,5.5-0.4,4.6-5.3c-2.4-12.3-4.7-24.6-7.1-36.9
		c-0.8-4.4-2.2-5.5-6.7-5.4c-7.6,0.2-15.1,0.3-22.7,0.5c-14.9,0.3-29.7,0.6-44.6,0.9c-4.6,0.1-5.6,0.4-5,4.9c0.3,2.7,0.6,6.3,0.8,9
		c0.5,5.2,0.4,5.3-4.9,5.3c-34.4-0.1-68.8-0.2-103.1-0.3c-1,0-1.1-0.2-2.3-0.3C423.7,446.5,423.7,439,423.7,431.9z M526.7,447
		c-2.3-16.3-4.6-32.1-6.9-47.9c-30,0-59.5,0-89.4,0c0,13.8,0,27.3,0,40.9c0,6.4,0.6,7.1,7.2,7.1c28.5,0,57,0,85.5-0.1
		C524.1,447,525.1,447,526.7,447z M636.5,426.8c-1.4-1.1-2.3-1.8-3.2-2.4c-9.9-6.5-19.6-13.3-24.3-25c-0.4-1-2.8-1.6-4.2-1.7
		c-24.6-0.1-49.3-0.1-73.9-0.1c-1.2,0-2.4,0-3.9,0c1.1,8.4,2.2,16.3,3.3,24.3c0.8,5.5,1.8,6.3,7.4,6.1c22.8-0.6,45.6-0.2,68.4-0.7
		c2.5-0.1,8.1,0.4,10.7,0.4C624.1,427.8,628.5,426.8,636.5,426.8z"/>
	<path d="M571.2,668.5c4-15,7.9-29.6,11.9-44.2c1-3.8,2.5-4,8.8-2.4c0,0.3,0.2,0.7,0.1,1c-4,13.4-8.1,26.7-12,40.1
		C578.3,669.2,578.5,669.2,571.2,668.5z"/>
	<path d="M856.7,668.5c0-7.7,0-15.1,0-22.6c0-2.7-0.3-5.4-0.5-8c-0.1-2.3,0.2-4.3,3.1-4.4c2.7-0.1,4,1.3,4,4c0,10.2,0,20.4,0,30.9
		C860.7,668.5,858.9,668.5,856.7,668.5z"/>
	<path d="M448.7,220.7c-44,0.5-88,1.1-132,1.6c-2.5,0-6,0.5-6-3c0-3.3,4.5-3.7,6.8-3.8c56.4-0.7,111.9-1.4,168.3-2
		c31.9-0.4,62.9-0.8,94.8-1.2c2.6,0,7,0.6,7,4c0,3-3.4,2.8-5.8,2.8C537.5,219.6,493.1,220.2,448.7,220.7z"/>
	<path d="M308.3,145.2c0.6-1.9,6.1-3.1,8.2-3.1c33.4-0.3,65.8-0.5,99.2-0.8c30-0.2,60,0.5,89.9,0.4c2.1,0,5.5,0,6.4,2.5
		c0,3-6.4,3.8-10.1,3.8c-23.9,0.1-47.8,0.2-71.7,0.2c-37.5,0.1-75.1,0.1-112.6,0.2C314.5,148.3,308.3,149.4,308.3,145.2z"/>
	<path d="M362.6,303.4c-13.4,0.4-26.8,0.9-40.2,1.3c-1.7,0-3.4-0.1-5-0.6c-0.8-0.2-1.7-1.4-1.8-2.3c-0.1-0.6,0.8-1.7,1.6-2.1
		c1.1-0.5,3.3-1.7,4.5-1.7c28.1-0.9,48.3-0.7,76.4-1.6c0.6,0,9.1-0.1,9.8,0.1c1.6,0.1,2.7,0.9,3,2.8c0,1.2-2.7,2.6-4.1,2.6
		C392,302.6,377.3,303,362.6,303.4L362.6,303.4z"/>
	<path d="M247.6,148.2c0.1-5.6,4.6-10.2,10.2-10.2c5.8,0,10.4,4.7,10.3,10.5c-0.1,5.7-4.5,10.2-10.2,10.2
		C252.1,158.6,247.6,154.1,247.6,148.2z"/>
	<path d="M258.9,213.3c5.8,0,10.2,4.4,10.2,10.1c0.1,5.9-4.5,10.5-10.3,10.4c-5.7,0-10.2-4.5-10.3-10.1
		C248.4,217.9,253.1,213.3,258.9,213.3z"/>
	<path d="M263.6,316c-5.9,0-10.3-4.5-10.2-10.5c0.1-5.7,4.7-10.2,10.3-10.1c5.7,0,10.4,4.9,10.3,10.6
		C273.8,311.5,269.2,316,263.6,316z"/>
</g>
</svg>
