<?xml version="1.0" encoding="utf-8"?>
<!-- Generator: Adobe Illustrator 25.2.3, SVG Export Plug-In . SVG Version: 6.00 Build 0)  -->
<svg version="1.1" id="레이어_1" xmlns="http://www.w3.org/2000/svg" xmlns:xlink="http://www.w3.org/1999/xlink" x="0px"
	 y="0px" viewBox="0 0 507.6 751.4" style="enable-background:new 0 0 507.6 751.4;" xml:space="preserve">
<style type="text/css">
	.st0{stroke:#000000;stroke-width:0.5;stroke-miterlimit:10;}
	.st1{fill:none;}
	.st2{fill:#FFFFFF;}
</style>
<g transform="matrix(1.3333 0 0 -1.3333 -120.27 885.48)">
	<g>
		<path class="st0" d="M318.8,210.3l0.3-9.2l4.1,0.1c-0.5-2-1.6-7.1-2.7-11.9c-1.9,6.5-5.9,20.8-5.9,20.8l-8.6-0.3
			c0,0-3.4-14.5-4.9-21.1c-1.3,4.7-2.8,9.7-3.3,11.7l4.3,0.2l-0.3,9.2l-21.6-0.8l0.3-9.2l4.5,0.2c0.6-1.9,8.3-28.8,8.3-28.8
			l12.2,0.4c0,0,2,8.9,3.2,14.2c1.5-5.3,4-14,4-14l12.2,0.4c0,0,6.2,27.4,6.6,29.4l4.4,0.2l-0.3,9.2L318.8,210.3z M334.5,203
			l-4.1-0.1c0,0-6.5-29-6.6-29.4l-10.1-0.4c-0.1,0.3-5.2,18.1-5.2,18.1s-4.1-18.1-4.2-18.5l-10.1-0.4c-0.1,0.3-8.3,28.8-8.3,28.8
			l-4.2-0.1l-0.2,6.4l18.8,0.7l0.2-6.4l-4.7-0.2l5.3-18.5c0,0,5.8,25,5.9,25.3l6.5,0.2c0.1-0.3,7.1-24.9,7.1-24.9l4.4,18.9l-4.5-0.2
			l-0.2,6.4l14,0.5L334.5,203z"/>
	</g>
</g>
<g>
	<path class="st1" d="M405.4,355.9c0.5,0.4,1.1,0.7,1.8,1.1C406.5,356.7,405.9,356.3,405.4,355.9z"/>
	<path class="st1" d="M406.4,338.1c-0.8,1.8-1.5,3.7-2.1,5.6C404.9,341.8,405.6,339.9,406.4,338.1z"/>
	<path class="st1" d="M153.6,460.7c-1.1-5.2-2-10.4-0.7-15.6c1.3-5.2,5.9-9.6,10.6-9.6c1,2.2-1,2.8-2.2,3.6c-1.2,0.8-4.5,3.8-5,6.9
		c-1.3,8.5,0.9,16.3,4.8,25.1c2.3-6.3,4.1-11.5,6-16.5c2.9-7.8,3.3-16,4.1-24.1c0.1-1.7-0.5-3.4-1.7-4.7c-0.7-0.7-3.3-0.1-4.3,0.8
		c-1,0.9-5.2,2.3-8.1,2.6c-2.5,0.4-5,0.9-7.5,1.5l-41,10.7c-9.5,2.6-18.7,5.8-27,11.3c-6.5,4.4-10.7,10.2-12.1,18
		c-0.8,3.6,0.6,7.4,3.5,9.7c2.8-2.7,2.8-2.6,5.8-1.2l33.4,14.6c16.3,7,32.6,14.2,47.3,24.4c3.7,2.6,7.6,4.9,11.5,7.3
		c2.3,1.5,4.8,2.4,8.2,1.1c-1.4-1.7-2.9-3.3-4.5-4.8c-10.1-8-19.8-16.6-30.5-23.7c-12.8-8.4-24.3-18.4-36.2-27.9
		c-1.5-1.3-2.8-2.8-3.7-4.6c-1.2-2.1-0.5-4.2,1.3-5.9c1.8-1.7,3-1.7,4.9,0c-1.3,1.5-2.4,2.7-3.5,4.1c1,1.2,1.6,2.4,2.6,3.1
		c8.6,7,17,14.3,26,20.6c11.4,8.1,23.3,15.5,33.7,24.9c3.5,3.2,7.2,6.2,10.7,9.3s5.9,3.6,9.7,2.3l-18.3-26.3
		C163.5,486.3,156.7,474.4,153.6,460.7z"/>
	<path class="st1" d="M409,332.2c-0.5,1.1-1,2.1-1.4,3.2C408.1,334.3,408.5,333.3,409,332.2z"/>
	<path class="st1" d="M401.9,360c2.2-0.1,4.5-0.8,6.4-2.3c-0.4-0.2-0.8-0.4-1.1-0.6c0.3,0.2,0.7,0.4,1.1,0.6
		C406.4,359.2,404.1,359.9,401.9,360z"/>
	<path class="st1" d="M325.2,260.2c2.3,0.4,3.9-0.8,4.8-2.8c1.7-4-0.7-6.4-3.8-9.1c-3.2,1.6-6.2,2.9-5.5,7.1
		C321,257.8,322.8,259.8,325.2,260.2z"/>
	<path class="st1" d="M345.3,287.8c2,0,3.9-0.7,5.4-1.9c6.3-5.8,9.1-13.1,7.6-21.6s-6.7-14.7-15.2-17.5c-3.9-1.4-8.2-1.4-12.1-0.1
		c0.3,0.7,0.4,1.2,0.5,1.3c1.7,0.3,3.5,0.6,5.2,0.7c7.8,0.3,14.2,6,15.5,13.7c1.2,7.9-3.6,15.9-11.5,18.9
		c-7.4,2.9-15.8,0.3-20.1-6.4c-2-3.3-2.8-7.2-2.2-11c0.4-2.3,0.6-4.5-1.7-6.2c-5.3,7.2-5.1,19.3,0.7,25.7c1.2,1.1,2.6,1.9,4.2,2.2
		C329.4,287.5,337.3,288.2,345.3,287.8z"/>
	<path class="st1" d="M361.1,194.2c-11.4-0.9-22.8-0.9-33.8,3c-1.6,0.6-3,1.4-4.6,2.1c15.9,1.4,31.3,3.4,47.4,8.7
		c-1.8-4.2-3.3-7.1-4.3-10.1C365.3,195.7,363.3,194.2,361.1,194.2z"/>
	<path class="st1" d="M410.1,330c-0.4,0.8-0.7,1.5-1.1,2.2C409.4,331.5,409.7,330.8,410.1,330z"/>
	<path class="st1" d="M283.9,643.7c0,0.2,0,0.4,0,0.6C283.9,644.2,283.9,643.9,283.9,643.7z"/>
	<path class="st1" d="M411.9,326.3c-0.6,1.3-1.2,2.6-1.8,3.7C410.7,328.9,411.3,327.6,411.9,326.3z"/>
	<path class="st1" d="M414.5,439.5c-11,13.5-24.9,23.3-40.2,31.1c-10.5,5.3-21.5,9.7-32.3,14.2c-18.8,7.8-37.5,15.8-55.2,25.8
		c-1.1,0.6-2.3,1-3.7,1.6l0,0c-1.1-3.3,0.9-3.9,2.4-4.7c5.9-3.2,11.6-6.7,17.8-9.5c19.3-8.6,38.8-17,58.3-25.4
		c16-6.9,30.8-16.5,43.7-28.2c5.2-4.8,6.4-10,5.3-16.5c-0.4-2.9-1.8-5.6-3.9-7.6c-8.5-7.6-18.3-12.3-29.8-12.9
		c-6-0.3-12-0.6-17.9-1.1c-5.4-0.5-10.8,1-15.1,4.4c-10.5,8.1-22.3,14.4-34.9,18.6c-3.7,1-7,3.2-9.4,6.1c-3.5,4.4-6.8,9-9.8,13.7
		c-3.2,5.2-5.9,10.7-8.9,16c-1.6,2.9-3.5,5.5-5.1,8.4c-2.6,4.9-5.2,9.9-6.4,16.1c1.1-0.5,2.2-1.1,3.3-1.8
		c20.3-15.2,43.3-25.7,66-36.8c10.6-5.2,21.5-9.6,31.9-15.2c7.9-4.2,15.1-9.8,23.1-15.1c0.2,0.8,0.8,2,0.4,2.7
		c-0.9,1.4-2,2.6-3.3,3.6c-7.9,6.4-16.6,11.8-25.8,16c-22.4,10.3-44.8,20.6-66.4,32.6c-21.6,12-40.6,27.3-58.4,44.3
		c-1,1-1.9,2.3-2.8,3.4l0.6,0.8l24.9-11.8c0-1.1-0.1-2.4,0-3.7c0.1-3.7,2.9-6.9,6.6-7.4c3.9-0.6,7.5,1.2,8.6,5
		c0.7,2.6,0.9,5.3,0.6,7.9c-0.3,3.6-1.1,7.1-1.8,11.1l3.8-0.9c20.1-7.3,40.2-14.6,59.4-24.2c19.2-9.6,35.7-18.6,54.6-25.8
		c14.5-5.5,27.8-14.1,43.6-16.1C437,448.7,425.7,439.9,414.5,439.5z"/>
	<path class="st1" d="M197.1,265.6c1.9,0.1,3.9-0.4,5.5-1.5c7.8-5.9,11.6-13.9,11-23.7c-1-14.9-15.4-23.3-28.7-16.1
		c3.4,0.8,6.1,2,8.8,2.1c11.4,0.3,18.8,9.2,16.9,20.4c-1.5,8.6-9.3,15-17.7,14.6c-8.4-0.4-14.6-7.2-15.4-16.2
		c-0.4-3.8-1.4-7.5-2.4-12.4c-5.6,8.2-5.4,15.9-3.7,24.2C179.3,261.6,188,264.6,197.1,265.6z"/>
	<path class="st1" d="M234.1,184.1c-9.3-8-38.2-15.4-53.5-14l-9.6,12.3C192,180.9,213.2,181.4,234.1,184.1z"/>
	<path class="st1" d="M184,239.6c2.7-0.1,5.6-3.3,5.5-6.4c0-2.6-2.1-4.8-4.7-5c-2.9,0-5.6,2.9-5.6,6.1S181.3,239.7,184,239.6z"/>
	<path class="st1" d="M269.9,504.7c-2.1,0.5-3.4,1.7-3.6,3.8C266.5,506.9,267.9,505.2,269.9,504.7z"/>
	<path class="st1" d="M267.6,593.8c-3.8-20.5-2.3-41.2-1.3-61.8c0.2-5.5-2-10.2-1.5-15.5l0,0c-0.5,5.3,1.7,10,1.5,15.5
		C265.3,552.6,263.8,573.3,267.6,593.8c3.1,17,6.4,33.8,9.7,50.7c0.5,2,1.2,3.9,2.1,5.8c-0.9-1.9-1.6-3.8-2.1-5.8
		C274,627.6,270.7,610.8,267.6,593.8z"/>
	<path class="st1" d="M266.2,509.3c0,2.6,0,3.6,0,4.7C266.2,512.9,266.3,511.1,266.2,509.3z"/>
	<path class="st2" d="M279.3,652.3c1,1.8,1.8,3.7,2.1,4.7c1.9,7,3.7,14,5.5,21l0.9,2.8c1.8-5.2-3.2-23.7-6.7-28.9
		C280.4,652.1,279.8,652.2,279.3,652.3z"/>
	<path d="M467.4,485.6c-8-5.8-15.9-11.8-24.4-18.2c1.8-18.3-9.6-27.1-26-31.6c0-1.5,0.4-3.1-0.1-3.6c-3-2.6-2.5-6.5-3.8-9.6
		c-0.7-1.5-1.7-2.8-2.9-3.9c-6.6-6.2-13.7-11.5-22.8-13.1c-6.6-1.1-13.3-1.8-20-2.1c-4-0.4-8.1-0.5-13.4-0.7
		c8.2-7.8,13.6-16.1,18.5-24.8c4.9-8.7,9.4-17.5,14.3-26.8l1.4,3.4c3.6,8.9,16.8,12.2,23.8,5.7c2.5-2.3,5.1-7.1,6.1-8.6
		s1.5-3.6,2.8-4.6c5-4.1,7.6-9.6,10.1-15.3c5.5-13.1,8.7-27,9.4-41.2c0.3-6.9-0.1-13.8-1-20.6c-0.8-5.5-2.9-10.6-8.8-12l-1.2-4.4
		c-4,2.7-7.6,6-10.7,9.8c-2.9,3.4-5.5,7.1-8.2,10.6l-0.4-0.2c1.7-4.4,3.5-8.8,5.4-13.4c-4.4-1.1-3.8,3.3-6,4.1
		c-1.2-1.9,2.4-5.4-2.1-6.5c-0.3,0.9-0.7,1.5-0.9,2.2c-2.2,13.2-6,26.2-6.5,39.7c-0.1,2.1-1.3,4.9,1.7,5.4s2.9-2.6,3.6-4.5
		c2.9-8,6.3-17.6,8.8-24c2.5-6.4,7.3-11.1,11.3-15c8.2-0.6,9.5,4.6,10.6,10c0.2,0.8,0.4,1.7,0.4,2.6c0,6.7,0.4,13.5-0.1,20.1
		c-1,12.2-3.9,24.1-8.6,35.3c-0.5,0.9-1.1,1.8-1.7,2.7c0.7-6.2,1.6-12.1,2.1-18c0.3-4.3-0.6-8.4-4-11.5c-1.2-1.1-2.4-2.3-4.5-0.5
		c0.8,0.9,1.5,1.9,2.1,2.9c1,2.2,2.6,4.5,2.7,6.8c0.6,12.1-2.9,23.2-7.9,34l-8.6-2.5c3.2-9.2,8.8-17.1,11.2-26.7
		c-4.7-0.5-3.4,4.2-6,5.2c-6,0.4-7.2-0.7-6.5-6.5c0.3-2.3,1-4.6,2-6.7c1.9-4.4,5.6-7.8,10.2-9.1c-2.3-0.9-3.5-2-4.2-1.7
		c-1.9,0.6-3.5,1.7-4.8,3.2c-2.5,3.1-4.5,6.5-7,10.2c-2.6-0.9-3.5,1-4.3,3.5c-2,5.8-4.3,11.6-6.9,17.2c-5.9,12.4-12.1,24.8-18.5,37
		c-5.2,9.9-10.8,19.8-18.8,27.9c-13.3,13.4-29.3,22.6-47,28.7c-10,3.5-20.5,5.9-31,8.2c-15.6,3.5-31.8,3.7-47.5,0.5
		c-13.5-2.8-26.9-6.2-40.2-9.9c-8.4-2.3-16.4-6.1-23.5-11.2c-11.8-8.5-22.7-18.2-32.6-28.8c-11.6-12.1-20.3-26.7-25.6-42.6
		c-4.8-14.7-6.8-30-8.5-45.3c-0.7-7.1-0.8-14.2-1.2-21.2c0-1.6,0.4-3.4-2.9-3.6c-0.2,2.3-0.5,4.5-0.5,6.7
		c0.4,17.2,2.4,34.4,5.9,51.3c3.8,18,11,34.7,23,48.8c11.9,14,25.8,26.2,41.1,36.3c5.1,3.4,10.5,6.4,16.1,9
		c11.5,5.7,24,8.1,36.2,11.5c19.3,5.4,39.6,6.2,59.3,2.4c6.4-1.1,12.7-2.5,19.8-3.9c-2.4,3.7-4.6,6.7-6.5,10
		c-5,8.4-10.1,16.7-14.6,25.4c-3.6,7.1-6.8,14.4-9.5,21.9c-0.7,2-1.9,3.8-3.4,5.2c-10.1,8.3-20.3,16.5-28.4,26.3l-6.8,1
		c-6.5,0.8-11.9,1.7-19.4,2.1s-12.8-1.9-17.5-9.1s-10.2-14.4-14.5-21.1s-9.1-13.1-11.8-19.7c2.1-5.2,4-9.5,5.5-13.9
		c1.7-4.4,3.1-9,4.1-13.6c1.2-6,2.1-12.1,2.5-18.2c0.6-7.7-4.2-10.7-11.1-7.3c-1.9,1-3.9,1.9-6,2.5c-5.4,1.4-11,2.2-16.4,3.6
		c-14.9,3.9-29.8,7.8-44.7,12.1c-7.7,2.2-14.8,6-20.9,11.2c-6,4.9-9.7,12.1-10.1,19.8c-0.3,3.5,0.9,6.9,3.3,9.5c2.6,3,4.3,3,7.4-0.1
		c23.5,12.3,49.2,20.1,71.2,33.4c1.3,4.9,2.2,8.8,3.5,12.5c1.8,5.3,3.8,10.6,5.9,15.8c5.2,14,8.3,28.6,9.2,43.5
		c1,13.2,2.7,26.4,4.1,39.5c0.1,1.6,0.5,3.2,1.2,4.7c0.9,2.3,2.6,2.8,4.5,1.5c-0.9-3.2-2-6-2.3-9c-1.6-14-3-28.1-4.3-42.2
		c-1.1-11.8-3.1-23.4-7.4-34.5c-2.7-6.9-5.3-13.9-7.8-20.9c-0.9-2.2-1.5-4.6-2.2-6.9l1-0.6l6.8,4.4c1,3,1.8,5.6,2.8,8
		c13.1,30,20.4,61.3,19.6,94.1c-0.1,2.4-0.3,4.8-0.7,7.2c-0.8-0.1-1.7-0.1-2.5,0c-0.6,0.3-1.1,0.6-1.6,1.1c3.6,4,5.8,3.8,7.4-0.5
		c0.7-1.7,1-3.5,0.9-5.3c-0.5-12.4-0.4-24.8-1.8-37c-2.6-20.6-9.2-40.3-17.4-59.3c-0.6-1.4-1.1-2.8-1.5-4c4.1,1.4,7.7,3.4,11.5,3.7
		c5.8,0.4,11.6-0.6,17.4-0.9c8.7-0.4,17.4-1.2,26-0.9c12.7,0.4,25.3,1.7,38,2.7c1.3,0.1,2.7,0,4.6,0c0,2.5,0.1,4.5-0.1,6.4
		c-2,26.3-0.3,52.7,5.1,78.5c2.1,10.5,4.4,21,7,31.4c0.9,3.8,1.4,4.8,3.8,4.4c-0.3,1.8-0.5,3.4-0.3,4c2.3,9.5,4.8,18.9,7.1,28.2
		c5.6,0.9,8.4-1.4,8-6.4c-0.3-2.5-0.8-5.1-1.6-7.5c-1.2-4.3-2.8-9.6-4-13s-1.7-7.7-0.7-10.4s0.2-5.9-0.4-9.1
		c-0.6-3.2-1.8-6.3-2.5-9.4c-4.8-21.3-7.3-43-7.5-64.8c-0.1-10-0.3-19.9-0.3-29.9c0-4.9,0.2-4.8,4.8-6.4c22.2-7.6,44.2-15.5,65-26.4
		c7.9-4.2,15.7-8.4,23.8-12c17.9-8.2,36.1-16.1,54.4-23.7c4.6-2,9.6-2.7,14.9-4.2v5.8c-5.9,0.3-5.9,0.3-6.6,3.6
		c9-0.6,15.8,4.1,22.4,9.3c3.3,2.6,6.4,5.4,9.8,7.8c6.4,4.6,10.6,10.9,14.5,17.5c0.6,0.9,0.5,1,0.5,3.4c0,2.4,1.3,3.4,3.3,2.4
		c2-1,2.6-2.6,1.1-5.1C479.4,498.6,475.4,491.4,467.4,485.6z M390.6,345.4c0.2-2.1,0.8-4.2,1.8-6.2c0.5-0.9,0.9-1.7,1.3-2.6
		c3-6.1,5.6-12.6,8.7-19.6c0.7,6,3.1,9.5,9.5,9.3c-0.6,1.3-1.2,2.6-1.8,3.7c-0.4,0.8-0.7,1.5-1.1,2.2c-0.5,1.1-1,2.1-1.4,3.2
		c-0.4,0.9-0.8,1.8-1.2,2.7c-0.8,1.8-1.5,3.7-2.1,5.6c-0.3,0.9-0.6,1.9-0.9,2.8c-1.5,5.5-1.4,7.2,2,9.4c0.5,0.4,1.1,0.7,1.8,1.1
		c0.3,0.2,0.7,0.4,1.1,0.6c-1.9,1.5-4.2,2.2-6.4,2.3c-4.9,0.1-9.7-3-10.8-8.2c-0.1-0.5-0.2-1.1-0.3-1.6
		C390.5,348.6,390.5,347,390.6,345.4z M180,521.7c-3.5-3.1-7.2-6.1-10.7-9.3c-10.4-9.4-22.3-16.8-33.7-24.9
		c-9-6.3-17.4-13.6-26-20.6c-1-0.7-1.6-1.9-2.6-3.1c1.1-1.4,2.2-2.6,3.5-4.1c-1.9-1.7-3.1-1.7-4.9,0c-1.8,1.7-2.5,3.8-1.3,5.9
		c0.9,1.8,2.2,3.3,3.7,4.6c11.9,9.5,23.4,19.5,36.2,27.9c10.7,7.1,20.4,15.7,30.5,23.7c1.6,1.5,3.1,3.1,4.5,4.8
		c-3.4,1.3-5.9,0.4-8.2-1.1c-3.9-2.4-7.8-4.7-11.5-7.3c-14.7-10.2-31-17.4-47.3-24.4l-33.4-14.6c-3-1.4-3-1.5-5.8,1.2
		c-2.9-2.3-4.3-6.1-3.5-9.7c1.4-7.8,5.6-13.6,12.1-18c8.3-5.5,17.5-8.7,27-11.3l41-10.7c2.5-0.6,5-1.1,7.5-1.5
		c2.9-0.3,7.1-1.7,8.1-2.6c1-0.9,3.6-1.5,4.3-0.8c1.2,1.3,1.8,3,1.7,4.7c-0.8,8.1-1.2,16.3-4.1,24.1c-1.9,5-3.7,10.2-6,16.5
		c-3.9-8.8-6.1-16.6-4.8-25.1c0.5-3.1,3.8-6.1,5-6.9c1.2-0.8,3.2-1.4,2.2-3.6c-4.7,0-9.3,4.4-10.6,9.6c-1.3,5.2-0.4,10.4,0.7,15.6
		c3.1,13.7,9.9,25.6,17.8,37l18.3,26.3C185.9,525.3,183.5,524.8,180,521.7z M287.8,680.8l-0.9-2.8c-1.8-7-3.6-14-5.5-21
		c-0.2-1-1.1-2.9-2.1-4.7c0.5-0.1,1.1-0.3,1.8-0.4C284.6,657.1,289.6,675.6,287.8,680.8z M278.4,621.2c0.6,3.8,1.8,7.4,2.9,11
		c0.4,1.2,0.7,2.4,1,3.7c0.5,1.9,0.9,3.8,1.3,5.8c0.2,0.7,0.3,1.4,0.3,2c0,0.2,0,0.4,0,0.6c0,1.9-0.6,3.6-2.4,4.8
		c-0.6,0.4-1.3,0.8-2.1,1.1c-0.9-1.9-1.6-3.8-2.1-5.8c-3.3-16.9-6.6-33.7-9.7-50.7c-3.8-20.5-2.3-41.2-1.3-61.8
		c0.2-5.5-2-10.2-1.5-15.5c-0.6,0.3-1,0.7-1.4,1.1c-2.5,2.7-0.5,6.6-2.1,10.4c-6.3,0.6-12.7,0.4-19-0.7l23.9-13.3c0-1.1,0-2.1,0-4.7
		c0-0.2,0-0.5,0.1-0.8c0.3-2.1,1.6-3.3,3.6-3.8c1.2-0.3,2.3-0.1,3.2,0.5c0.5,0.3,0.9,0.7,1.2,1.2c0.3,0.5,0.6,1.1,0.8,1.8
		c0.2,0.8,0.3,1.6,0.3,2.3c0,0.8-0.1,1.6-0.2,2.4c-1.8,7.4-2.6,14.8-2.7,22.2c-0.1,4.5,0,9,0.3,13.5c0.3,4,0.3,8,0.1,12
		C271.9,581.1,275.2,601.1,278.4,621.2z M394.7,474.3c-18.9,7.2-35.4,16.2-54.6,25.8c-19.2,9.6-39.3,16.9-59.4,24.2l-3.8,0.9
		c0.7-4,1.5-7.5,1.8-11.1c0.3-2.6,0.1-5.3-0.6-7.9c-1.1-3.8-4.7-5.6-8.6-5c-3.7,0.5-6.5,3.7-6.6,7.4c-0.1,1.3,0,2.6,0,3.7L238,524.1
		l-0.6-0.8c0.9-1.1,1.8-2.4,2.8-3.4c17.8-17,36.8-32.3,58.4-44.3c21.6-12,44-22.3,66.4-32.6c9.2-4.2,17.9-9.6,25.8-16
		c1.3-1,2.4-2.2,3.3-3.6c0.4-0.7-0.2-1.9-0.4-2.7c-8,5.3-15.2,10.9-23.1,15.1c-10.4,5.6-21.3,10-31.9,15.2
		c-22.7,11.1-45.7,21.6-66,36.8c-1.1,0.7-2.2,1.3-3.3,1.8c1.2-6.2,3.8-11.2,6.4-16.1c1.6-2.9,3.5-5.5,5.1-8.4c3-5.3,5.7-10.8,8.9-16
		c3-4.7,6.3-9.3,9.8-13.7c2.4-2.9,5.7-5.1,9.4-6.1c12.6-4.2,24.4-10.5,34.9-18.6c4.3-3.4,9.7-4.9,15.1-4.4
		c5.9,0.5,11.9,0.8,17.9,1.1c11.5,0.6,21.3,5.3,29.8,12.9c2.1,2,3.5,4.7,3.9,7.6c1.1,6.5-0.1,11.7-5.3,16.5
		c-12.9,11.7-27.7,21.3-43.7,28.2c-19.5,8.4-39,16.8-58.3,25.4c-6.2,2.8-11.9,6.3-17.8,9.5c-1.5,0.8-3.5,1.4-2.4,4.7l0,0
		c1.4-0.6,2.6-1,3.7-1.6c17.7-10,36.4-18,55.2-25.8c10.8-4.5,21.8-8.9,32.3-14.2c15.3-7.8,29.2-17.6,40.2-31.1
		c11.2,0.4,22.5,9.2,23.8,18.7C422.5,460.2,409.2,468.8,394.7,474.3z"/>
	<path d="M117.6,212.2c16.5-3.1,31.9-10.4,44.7-21.3c3.6-3.1,6.9-4.9,11.7-5.2c17-1.1,34.1-0.7,51.1,1.1c5.4,0.6,10.8,1.8,16.2,2.5
		c1.2-0.1,2.3-0.3,3.4-0.8c-0.4-1.3-0.4-2.9-1.3-3.7c-1.4-1.4-3-2.5-4.8-3.4c-12-7.2-25.2-11.2-38.9-13.7
		c-5.2-0.9-10.6-1.2-16.7-1.8c3.6-5.6,6.8-10.8,10.4-15.7c8-11,17.1-20.9,29.2-27.3c8.5-4.4,17.3-8.5,26.2-12
		c12.7-5.1,25.8-5.4,39-2.1c1.1,0.1,2.1,0.2,3.2,0.2c-1-3-1-3.1-3.3-3.7c-8.4-2.1-17-3-25.4-1.5c-18.5,3.2-35.9,10.9-50.9,22.2
		c-11.1,8.2-19.5,18.9-26.9,30.5c-2.6,4.1-5,8.4-7.9,12.4c-6.9,9.4-14.3,18.2-24.1,24.9c-13.2,9-28,13.5-43.4,16.4
		c-5.2,1-10.5,0.8-15.7-0.3l-6.7-0.9c-1.1-1.2-2.3-2.4-3.5-3.5c-2.9-2.7-6.6-4.5-10.6-5.1c-1.5-0.2-3,0-2.9,2.4
		c0.6,0.5,1.4,0.9,2.2,1.1c8.6,1.8,13.1,7.9,16.2,15.4c2.3,5.7,2.9,11.6,3.2,17.6c0.1,1.7,0.3,3.4,0.6,5.1c3.3-0.2,3.3-2.1,3.2-3.9
		c0-7.1-1.3-14.2-3.8-20.8c-0.5-1.3-0.9-2.6-1.3-3.9l16.3,1.7c-5.1,11.9-6.3,24.1-6.1,36.6c-0.5-1.5-0.8-3.2-0.7-4.8
		c0.2-5.3,0.5-10.6,0.8-15.8c0-1.7,0.8-3.6-2-4.6c-2.1,3.3-1.8,7-2,10.4c-0.2,3.4-0.4,6.8-0.3,10.3c0.1,3.5,0.5,7,0.8,10.9
		c-2.5-2.1-2.5-2.1-2.6-3.5c-0.1-2.7-0.3-5.4-0.7-8.1c-0.1-0.9-1.2-1.7-2.5-3.4c0,6-0.1,10.7,0.1,15.4c0,0.7,1.2,1.8,2.1,2.1
		c1.6,0.5,3.2,0.7,4.8,0.8c5.2,0.1,7.1-2,6.7-7.3l-0.3-3.3c-0.9-12.8,0.6-25.2,6.1-37L117.6,212.2z M180.6,170.1
		c15.3-1.4,44.2,6,53.5,14c-20.9-2.7-42.1-3.2-63.1-1.7L180.6,170.1z"/>
	<path d="M359.8,289.6c6-1.5,11.7-4.1,16.7-7.7c3.9-2.9,4.8-6.3,2.8-10.5c-1.9,2.7-3.3,5.5-5.5,7.6c-2.2,2.1-5.1,3.3-8,4.6
		s-6,2-9.7,3.3c8.6-16.8,7.9-28.5-1.8-37.8c-8.4-7.8-20.8-9.3-30.8-3.7c-5.3,2.9-9.5,7.5-11.9,13c-3.8,8-3,16.1,0.9,25.3
		c-3.9-2-7.5-2.5-9.2-4.9c-1.9-2.5-2.6-5.8-1.9-8.9c0.7-3.1,1.6-4.8,1.6-8.7c-0.9,0.2-1.7,0.6-2.5,1.1c-3.6,8.2-2,15.9,3.1,21
		c5.5,2.4,11.1,4.4,16.9,5.8C333.5,292.1,346.6,293,359.8,289.6z M326.2,248.3c3.1,2.7,5.5,5.1,3.8,9.1c-0.9,2-2.5,3.2-4.8,2.8
		c-2.4-0.4-4.2-2.4-4.5-4.8C320,251.2,323,249.9,326.2,248.3z M316.7,257.7c2.3,1.7,2.1,3.9,1.7,6.2c-0.6,3.8,0.2,7.7,2.2,11
		c4.3,6.7,12.7,9.3,20.1,6.4c7.9-3,12.7-11,11.5-18.9c-1.3-7.7-7.7-13.4-15.5-13.7c-1.7-0.1-3.5-0.4-5.2-0.7
		c-0.1-0.1-0.2-0.6-0.5-1.3c3.9-1.3,8.2-1.3,12.1,0.1c8.5,2.8,13.7,9,15.2,17.5s-1.3,15.8-7.6,21.6c-1.5,1.2-3.4,1.9-5.4,1.9
		c-8,0.4-15.9-0.3-23.7-2.2c-1.6-0.3-3-1.1-4.2-2.2C311.6,277,311.4,264.9,316.7,257.7z"/>
	<path d="M181.9,265.8c15,5.3,39.2,4.1,45.4,0.9c0,0,3.7-3.6,3.7-6.8c-1.3,0-3.9,1.9-5.7,3.4s-6,1.5-8.8,2s-5.8,1.1-9.1,0.1l3.2-3.8
		c5-6.3,7.4-14.4,6.6-22.4c-1.6-16.4-17.7-26.1-32.7-19.3c-11,5-16.9,13.9-17.7,26c-0.2,2.4,0,4.9,0,8.4c-3.4-2.3-6.1-4.6-8.9-6.1
		c-2.8-1.5-3.7-6.5-8.7-6.1c1,2.3,2.4,4.4,3.9,6.4C161.5,256.1,171.3,261.9,181.9,265.8z M184.8,228.2c2.6,0.2,4.7,2.4,4.7,5
		c0.1,3.1-2.8,6.3-5.5,6.4c-2.7,0.1-4.8-2.1-4.8-5.3S181.9,228.2,184.8,228.2z M175.1,232.8c1,4.9,2,8.6,2.4,12.4
		c0.8,9,7,15.8,15.4,16.2c8.4,0.4,16.2-6,17.7-14.6c1.9-11.2-5.5-20.1-16.9-20.4c-2.7-0.1-5.4-1.3-8.8-2.1
		c13.3-7.2,27.7,1.2,28.7,16.1c0.6,9.8-3.2,17.8-11,23.7c-1.6,1.1-3.6,1.6-5.5,1.5c-9.1-1-17.8-4-25.7-8.6
		C169.7,248.7,169.5,241,175.1,232.8z"/>
	<path d="M298.3,39.2c-6.8-1.3-13.3-2.6-20-3.7c-11.8-1.8-16.4-1.7-20,0.3c0.6,2.5,2.7,2,4.3,2.1c5.3,0.4,10.6,0.5,15.8,1.2
		c7.1,0.9,14.3,2,21,4.8c0.2,3.1,0.5,5.7,0.7,8.8s-2,6.4,0.7,9.3c-1.2,3.2,0,6.4,0.6,9.5c0.5,2.7,0.8,5.4,0.9,8.1
		c-0.1,6.1-0.6,12.3-0.9,18.4c-0.1,1.6-0.4,3.4,2.3,3.5c2.6-3.8,1.5-8.4,2.6-12.9c1.1,0.7,1.9,1,2.5,1.5c7.1,5.8,14,11.7,18.6,19.7
		c0.8,1.4,1.6,3,4.3,1.2c-1-2.2-2.2-4.3-3.5-6.4c-5.1-7.7-12.3-13.3-19.4-18.9c-1.7-1.3-2.8-3.2-3-5.4c-0.7-6.4-1.7-12.7-2.6-19.6
		c1.7,0,3.4-0.1,5.2,0c9.2,0.7,18.2,3.3,26.5,7.5c5.6,2.9,11.1,6.1,16.7,9.1c1.5,0.8,2.9,2.4,5.2,1c-0.2-0.7,0-1.7-0.4-1.9
		c-16-11-33.1-19.3-52.2-19.8V41.4c7.4,0.9,14.1,1.2,20.6,2.6c32.9,7.4,60.8,22.6,79.1,52.1c1.8,2.9,3.7,5.8,5.5,8.8
		c14.3,24.2,21,50.8,24.4,78.4c0.2,1.7-0.5,3.7,1.7,4.7c2.5-0.8,2-2.9,1.8-4.5c-0.6-5.4-1.2-10.8-2.1-16.2
		c-4.1-23.8-11.8-46.3-24.2-67.2c-15.6-26.4-37.6-44.8-66.8-54.5c-7.8-2.6-15.5-5-23.7-5.8l-17.7-1.9c-1.1-3.6,0.4-8-4.1-10.2
		C296.9,31.7,300.9,35.7,298.3,39.2z"/>
	<path d="M58.4,193c0.4,1.8,1.3,3.6,4.1,1.6c-0.1-0.8-0.3-1.6-0.5-2.4c-3.4-10.8-3.6-21.7-2-32.8c2.5-17.9,9.2-34.3,18.5-49.6
		C103.7,68.3,138.8,38,182.8,18c19.9-9,40.6-14.6,62.7-14.1c16.4,0.3,31.6,4.2,44.4,15.1c0.9,0.6,1.8,1.1,2.7,1.5
		c1.1-3.1,1.1-3.2-1.5-5.3c-10.1-8.4-22-12.6-34.8-14.3c-18.7-2.5-36.9,0.4-54.8,6.1c-35.7,11.3-66,31.4-92.4,57.6
		c-18.4,18.4-33.6,39-43.9,63.1c-6.9,16.2-11,33.1-9.5,50.9C56.3,183.4,57.2,188.3,58.4,193z"/>
	<path d="M304.8,20.8c13.3-2.4,26.4-1.1,39.3,2.7c23.3,6.8,42.3,20.5,58.4,38.3c24.1,26.7,38.7,58.1,44.4,93.6
		c5.1,31.6,2.3,62.2-13.2,90.9c-0.6,1.2-0.9,2.4-1.1,3.7c2.5,1.1,3.3-0.2,4-1.5c1.7-3.2,3.5-6.4,4.9-9.7
		c10.4-23.7,13-48.5,10.3-74.1c-3.5-36-17.6-70.2-40.4-98.2c-15.9-19.7-35.1-35.2-59-44.2c-15.3-6-31.9-7.8-48.1-5.1
		c-1.7,0.3-5.3,0.2-4.2,2.6C301.2,22.2,303.1,21.1,304.8,20.8z"/>
	<path d="M413.3,256.4c1.9,0.3,4,1,5.8-1.9c-1.3-0.6-2.2-1.4-3.1-1.4c-9.4-1-16.1-6.3-21.6-13.4c-10.7-13.8-19.4-29-26-45.1
		c-4.1-10.1-8.2-20.1-12.8-30c-8.6-18.3-21.1-34.4-36.8-47.2c-3.6-2.9-7.4-5.4-11.9-6.3c-1.1-0.1-2.3,0-3.4,0.2
		c0.4,1.6,1.2,2.7,2.2,2.9c4.8,1.1,8.7,3.8,12.1,7c5.2,5,10.5,10.1,15.3,15.5c13.6,15.3,21.8,33.6,29.1,52.5
		c0.2,0.2-0.1,0.6-0.2,1.3c-6.6,0-13.3-0.3-20,0.1c-8.7,0.4-17.2,3-24.6,7.6c-1,0.7-1.9,2.7-1.8,3.5c0.1,0.8,1.9,1.6,3.2,2
		c1.1,0.2,2.1,0.2,3.2,0c15.8,0.2,31.5,2.7,46.5,7.7c3.1,1.1,4.9,2.9,6.7,5.7c6,9.4,12.2,18.9,18.9,27.8
		C398.8,251.1,405.7,255.2,413.3,256.4z M322.7,199.3c1.6-0.7,3-1.5,4.6-2.1c11-3.9,22.4-3.9,33.8-3c2.2,0,4.2,1.5,4.7,3.7
		c1,3,2.5,5.9,4.3,10.1C354,202.7,338.6,200.7,322.7,199.3z"/>
	<path d="M75,588.5c-8.4-5-17-9.8-24.9-15.5c-10.1-7.4-19.6-15.5-29.4-23.4c-0.3-0.2-0.3-0.6-1-1.9c7.7-18.1,23.3-29.1,40-40.4
		c-1-0.6-1.9-1.6-2.6-1.4c-1.8,0.4-3.4,1.1-4.9,2.1c-10.2,7-19.9,14.7-27.7,24.4c-2.9,3.6-6.2,7.8-6.9,12.1
		c-1.1,6.6-4.5,12-6.4,18.1c-5.9,17.8-9.4,36.2-10.6,54.9c-0.9,14.8-0.5,29.7-0.6,44.6c-0.1,1.3,0.2,2.5,0.6,3.7
		c0.3,0.8,1.5,1.3,3.1,2.7c0-6.5,0.3-11.7,0-16.9c-1.3-22.7,0.6-45.4,5.6-67.6c1.6-7.3,3.4-14.5,5.5-21.6c1-3.2,2.2-6.6,6.5-8.3
		c6.4,5.3,13.1,10.6,19.5,16.2c8.8,7.6,18.4,14.2,28.7,19.6c7.2,3.6,14,7.8,18.7,14.5c0.9,1.3,2,2.2,4.3,0.8c-0.6-1.4-1.3-2.7-2.1-4
		C86.3,595.7,80.8,591.9,75,588.5z"/>
	<path d="M84.1,275.6c0.4-1.9,0.7-3.8,0.9-5.8c-0.2-5.1-0.3-10.2-0.9-15.2C82.7,244,80,233.9,73.9,225c-3.3-4.7-7.2-8.8-12.7-10.7
		c-2-0.5-4-0.8-6-1c-0.8,2.7,0.4,3.2,2,3.6c6.9,1.6,11.3,6.3,14.8,12c3.6,6.3,6.1,13.2,7.4,20.3c0.1,0.3-0.2,0.6-0.2,0.7l-3.2-0.2
		c0.3,4.7,0.7,9.4,0.8,13.3c0.1,3.9-2,6.2-5.5,7.6c-2.3-3.6,0.6-8.1-3.1-12c-2.4,5.7-1.2,10.6-0.5,15.9s1.8,10.6,2.8,15.9l-6.9,1.4
		c-2.9-10.2-4.5-20.7-4.8-31.3c-0.2-10.1,7.6-13.7,14.2-13.5h4.8c-1.9-3.2-4.3-3.4-6.8-3.3c-8.6,0.3-15,5.8-15.6,14.4
		c-0.3,5.8,0.1,11.7,1.1,17.4c1.1,7.5,3.3,15.5,4.5,22.3s4,9.1,10.8,7.9l2.7-0.3c-1.2,2.8-2.1,5.1-3,7.3c3.1,0.7,4.3,0.2,5.1-2.5
		c1.6-5,0.4-10-0.4-15c-0.5-2.6-1.2-5.2-1.8-7.8h0l0.1,0.2c-1.1-3.7-2.2-7.4-3.2-11.1c-0.4-1.6,0.5-2.4,2.1-2.1c0,0,0,0.1,0,0.1
		c4.6-2.5,7.1-6.3,7.1-11.6c0.3,2.4,0.3,4.8,0.6,6.9C81.4,271.9,79.9,274.7,84.1,275.6z"/>
	<path d="M246.9,58.2c-28,10.3-50.7,27.9-69.3,50.9c-9,11.1-17.3,22.8-25.7,34.4c-15.3,20.7-33.8,37.4-58.8,45.5l-8.3,2.8
		c-1.3,0.6-2.6,1.2-3.8,1.9c1.9,3.2,4.1,1.8,6,1.2c17.8-5.5,34.5-13.2,47.9-26.7c4.8-4.6,9.4-9.5,13.7-14.7
		c6.4-8.1,12.3-16.6,18.4-25c11.2-15.3,23.3-29.7,37.9-41.8c15.7-13,33.8-22.8,53.3-28.7c1.7-0.5,4.1-0.2,4.9-3.7
		c-1.9,0.1-3.4-0.1-4.8,0.3C254.5,55.6,250.7,56.8,246.9,58.2z"/>
	<path d="M468.4,509.1c-5,0.7-10,1.8-14.9,3.1c-51.6,14.6-86.8,46.6-102.8,98.4c-3.4,11.3-5.1,23.1-5,34.9c0,1.8-0.9,4.1,1.8,5.1
		c1.6-2.2,1.7-2.2,1.8-4.7c0-9.8,1.3-19.6,3.6-29.1c13.5-50.6,46.1-83.1,95.4-99.2c7.9-2.6,16.3-3.7,24.4-5.4c1.6-0.3,3.4-0.2,3-3.1
		C473.3,509,470.8,509,468.4,509.1z"/>
	<path d="M274.9,26.8c-0.3-2.8-2.3-3.2-3.9-3.4c-4.3-0.9-8.6-1.5-13-1.8c-18.6-0.6-36.3,3.8-53.3,11.4
		c-27.9,12.6-50.5,31.8-68.6,56.5c-7.5,10.2-15.6,20-23.4,30c-0.9,1.2-1.7,2.4-2.4,3.7c3.2,0.5,3.4,0.6,4.6-0.8
		c2.8-3.1,5.5-6.3,8.1-9.6c9.1-11.6,17.7-23.5,27.2-34.7c19.4-22.9,45-39.6,73.8-48.1c15.6-4.8,31.5-7.1,47.8-3
		C272.8,27.1,273.9,27,274.9,26.8z"/>
	<path d="M322.8,73.6c-3.3-2.4-7.3-3.9-11.1-5.6c-1.7-0.7-3.8-1.3-5.4,0.3c0.1,0.6,0,1.1,0.2,1.2c0.5,0.5,1.1,0.9,1.8,1.1
		c6.1,1.2,11,4.5,15.8,8.2l11.6,9c15.9,12.3,30,26.4,40.8,43.5c4.5,7.2,9.2,14.3,13.1,21.9c9.2,18.5,18,37.2,27,55.8l5.6,11.7
		l1.1-0.3c0.1-0.5,0.4-1.1,0.2-1.5c-1.9-5.6-3.5-11.4-6-16.9c-9.9-22-19.9-43.9-32.6-64.5c-8.2-13.2-17.1-25.7-28.3-36.5
		C346,91,334.7,81.9,322.8,73.6z"/>
	<path d="M504,571.5c-2.2-13.4-5.5-26.6-8.4-39.9c-1-4.4-2.4-8.7-3.8-13c-0.6-1.9-1.6-3.7-2.8-5.3c-1-1.3-2.3-1.7-3.2-0.3
		c1.9,5.2,4,9.4,5,13.9c5.5,23.7,11.3,47.2,12.4,71.7c0.9,21.9,0.8,43.8-0.2,65.8c-0.2,5.4-0.7,10.8-0.8,16.2
		c-0.1,0.9,0.7,3.1,1.4,2.5s1.8-1.2,2.1-2c0.3-1.2,0.4-2.5,0.4-3.8c0.4-13,1-26.1,1.3-39.1C507.8,615.9,507.7,593.5,504,571.5z"/>
	<path d="M54.1,306.5c2.5,4.2,5.6,8,9.1,11.3c3.6,3.8,9.4,4.8,14.1,2.3c5.9-2.9,9.1-8.1,11.1-14.1c0.1-0.4-0.5-1.2-1.2-2.7
		c-1.1,1.4-1.7,2-2.3,2.7c-2.1,2.8-2.7,4.6-6.4,8.5c-3.7,3.9-7.9,4.2-12.2,1c-2.2-1.4-4-3.2-5.4-5.3c-2.8-4.2-5.2-8.6-7.2-13.3
		c-8.5-21.8-10.7-44.3-7.3-67.4c1-6.8,2.8-13.5,6.5-19.4c2.2-3.5,4.9-6.3,9.4-6.7c0.8-0.1,1.6-1,2.6-1.5c-1.2-2.4-3-2.4-4.8-2
		c-3.5,0.9-6.7,3-8.8,6c-3.8,5-5.9,10.8-7.3,16.8c-3.9,16.7-3.4,33.5-0.7,50.3C45.1,284.7,48.1,296.2,54.1,306.5z"/>
	<path d="M137.1,134c9.9-12.1,19.4-24.5,28.7-37c6.6-8.9,14.9-16.5,24.3-22.3c1.1-0.7,2.1-1.5,3.1-2.4c-2.4-2.7-4-0.9-5.3-0.1
		c-9.1,5.3-17.1,12.4-23.5,20.8c-9.9,12.7-19.8,25.5-29.8,38.2c-7.1,9-15.9,16.5-25.7,22.4c-7.8,4.8-16.1,8.4-24.9,10.9
		c-2.4,0.6-4.8,1.6-6.9,2.9c-1.9,1.3-1.8,3-0.1,3.8c3.8-1.4,6.9-2.8,10.2-3.8C107.1,161.2,123.9,150.2,137.1,134z"/>
	<path d="M163.9,41c-17,10.7-32,23.8-46.1,38c-17.5,17.5-30.7,37.7-41.6,59.5c-0.6,1-1,2-1.2,3.1c-0.1,0.6,0.6,1.4,1.3,2.8
		c1.2-1.7,2-2.8,2.7-4l7.4-13.4c16.1-29.5,39-53.1,65.6-73.2c6.4-4.8,13.3-8.9,19.9-13.3c1.5-1,3.5-1.5,2.1-5.3
		C170.4,37.3,167,39,163.9,41z"/>
	<path d="M424.3,244.8l-3.7-3.2c-2.7-2.4-5.6-4.6-8.3-7.1c-7.2-6.8-12.1-15.2-16.3-24.1c-6.5-14-12.7-28.1-19.9-41.7
		c-5.7-10.7-12.5-20.9-19.1-31c-1.9-3-5.1-5.1-7.8-7.5c-0.5-0.5-1.7-0.2-3.5-0.3c1,1.7,1.4,2.7,2.1,3.3c5.9,4.3,9.6,10.4,13.3,16.4
		c4.5,7.6,9,15.3,13,23.2c6.8,13.7,13.1,27.5,19.6,41.3c5,10.6,11.7,20,20.8,27.5c1.7,1.4,3.5,2.6,5.5,3.5
		C420.8,245.5,422,245,424.3,244.8z"/>
	<path d="M195.7,358.7c5.3,5,11.4,9,18.1,11.9c23.5,10.1,47.7,9.3,72.1,4.6c6.5-1.2,12.7-3.6,19.7-5.7c-1.4-2-2.6-3.8-3.4-4.8
		c-3.5,1.8-6.1,3.7-9,4.7c-8.8,2.9-17.9,4.6-27.2,5c-14.4,0.8-28.6,0.4-42.5-4c-11.7-3.6-21.9-9.4-29.7-18.5
		c-0.1-2.7,3.3-4.7,0.2-7.7c-2.8,3.4-5,7.3-6.3,11.5C191.7,354.7,193.6,356.7,195.7,358.7z"/>
	<path d="M225.2,91.9c-14.8,11.8-28.2,25.2-40,39.9c-1.6,2.3-3.1,4.6-4.5,7c3.8-0.1,3.9-0.1,5.4-2c10.3-13.5,22.2-25.4,34.9-36.6
		c9-8.2,19.4-14.7,30.7-19.2c7.7-3.1,15.6-4.6,23.9-3.2c1.8,0.3,3.7,0.5,5.5,0.4c0.9,0,1.7-0.7,3.1-1.2c-1-0.9-1.4-1.7-2-1.7
		c-7-1-14-2.2-21.1-0.8C247.7,77.2,235.9,83.6,225.2,91.9z"/>
	<path d="M150.2,240.1c1-1.5,2-2.7,2.7-4c9-16.1,25.7-24.4,45.4-20.3c19.7,4.1,31.4,19.7,31.9,35.8c0.2,1.3,0.5,2.5,1,3.7
		c3-0.9,2.5-2.8,2.5-4.3c-0.2-7.3-2.5-14.4-6.6-20.4c-12.5-18.7-38.7-25-59.1-14.3c-7.9,3.9-14.3,10.3-18.3,18.1
		C148.8,236,147.6,237.8,150.2,240.1z"/>
	<path d="M115,631.7c-2.3-4.4-4.7-8.6-7.4-12.7c-0.9-1.5-1.8-3.4-4.7-1.8c0.7,1.4,1.5,2.8,2.3,4.2c6.5,10.1,11.3,21.2,14.2,32.9
		c5,20.3,5.7,40.9,4.5,61.6c-0.3,5.1-0.9,10.1-1.3,15.2c-0.1,1.6-0.2,3.5,3,3.2c0.5-2,0.8-4,1.1-6c1.6-17.4,1.7-34.8,0.1-52.2
		C125.7,660.7,121.7,645.6,115,631.7z"/>
	<path d="M302.6,255.1c-0.5,0.6-1,0.9-1.1,1.9c-0.1,1,0.3,2,0.8,4.3l5.3-6.5c20.9-24.7,57.8-18.4,68,11.1c0.3,1,0.8,2,1.3,3
		c0.3,0.5,1.1,0.7,1.7,1c1.9-1.7,1.2-3.5,0.6-5.2c-4.4-12.2-12.4-21.2-24.6-26C336.1,231.4,313.8,238.6,302.6,255.1z"/>
	<path d="M237.8,323.2l-1.6-3.3c-2.5,4-1.8,7.5,1.1,9.9c8.5,7,17.8,12.2,29.3,10.1c14.5-2.8,18.1-7.6,18.7-19.9
		c0.3-6.6-1.2-13.3-2-20c-0.1-0.5-1.4-1-3.2-2.2c0.3,3.8,0.5,6.4,0.6,9.1c0.3,4.9,1,9.6,0.8,14.6c-0.2,5-1.7,9.7-6.9,12
		c-4.3,2.1-8.9,3.2-13.7,3.2c-8.3-0.2-14.8-4.4-21-9.2C238.8,326.6,238.5,324.7,237.8,323.2z"/>
	<path d="M344.4,661c-0.3,2.5-0.7,4.3-0.9,6.2c-0.9,8.5-1.6,17-2.8,25.4c-2.2,16.4-5,32.6-5.2,49.2c-0.1,2.3,0.1,4.7,0.4,7
		c0.2,0.8,1.4,1.4,2.7,2.6c0.3-1.2,0.5-2.5,0.6-3.7c-0.5-16.1,2.1-31.8,4.1-47.7c1.5-11.1,2.5-22.3,3.5-33.5
		C347,664.8,347.7,662.8,344.4,661z"/>
	<path d="M394.1,124c5.6,10.8,10.5,21.9,15.7,32.8c0.6,1.3,1.3,2.6,2,3.9l1.4-0.4c1.3-2.8-0.1-5.3-1-7.7
		c-4.9-12.9-11.2-25.1-18.8-36.6c-3.8-5.6-8.3-10.6-12.6-15.7c-1.3-1.6-2.7-3.4-5.3-3.1c0.3,2.9,0.3,2.9,1.3,3.9
		C383.8,107.7,389.6,115.5,394.1,124z"/>
	<path d="M115.6,192.5c-4.5,2.7-9.2,5.1-14.6,5.7c-0.5,0.1-1,0.8-2.1,1.6c1.4,0.6,2.3,1.5,3.1,1.4c2.5-0.4,5.1-0.7,7.3-1.8
		c15.8-7.3,30.3-17.2,42.9-29.3c1.7-1.6,2.7-3.7,4-5.5l-1.2-1.5c-0.9,0.5-2.1,0.7-2.8,1.4C141.8,176.2,128.8,184.6,115.6,192.5z"/>
	<path d="M181.1,637c-2.1,7.9,1.1,16-3.2,22.9c0.1-8.4,0.8-16.8-1.3-25.2c-3.1,0.4-2.7,2-2.7,3.4c0,6.7-0.1,13.4-0.1,20.1
		c-0.1,1.3,0,2.5,0.1,3.8c0.3,2.1,1.6,3.8,3.7,4c2.1,0.2,2.7-1.4,3.4-2.9c4-7.9,3-16.2,2.1-24.5C183,638.2,182.2,637.8,181.1,637z"
		/>
	<path d="M323.4,209.9c-2.6,1.2-5.4,2.2-7.6,4c-10.2,8.4-18.5,18.9-24.3,30.8c-1,1.9-1.1,4.3-1.6,6.5l1.6,0.6c0.7-0.6,1.7-1.2,2-2
		c3.5-10,9.9-18,16.6-25.9c4.4-5.1,9.4-9.6,16-11.6c0.4-0.2,0.7-0.8,1-1.2C324.7,209.5,326,208.7,323.4,209.9z"/>
	<path d="M417.9,290.3c2.2-8.8,4.8-17.4,12.3-24.3c-3.1-2.3-4.6-0.5-5.9,1.1c-5.3,6.9-8.7,15.1-9.9,23.7c0.1,1.1,0.3,2.2,0.8,3.2
		C418.2,293.8,417.6,291.7,417.9,290.3z"/>
	<path d="M184.8,493.6c-2-6.8-4-13.6-6.1-20.3c-0.2-0.8-1.4-1.2-2.4-1.9c-1,7,3.4,21.1,8.3,25.6C184.7,495.3,185,494.4,184.8,493.6z
		"/>
	<path d="M77.6,289c0.9-4.9,0.1-9-0.9-13.2c-0.5-1.8-1.9-1.6-3.3-1.3c0.4,4.3,0.7,8.6,1.1,12.9L77.6,289z"/>
	<path d="M249.4,203.9c1-6-2.1-10.1-7.8-9C245.6,197.4,245.6,202,249.4,203.9z"/>
	<path class="st2" d="M272.9,560.7c0.2-4,0.2-8-0.1-12c-0.3-4.5-0.4-9-0.3-13.5c0.2-7.5,1-14.9,2.7-22.2c0.2-0.8,0.3-1.6,0.2-2.4
		c0-0.8-0.1-1.6-0.3-2.3c-0.2-0.7-0.4-1.3-0.8-1.8c-0.3-0.5-0.8-0.9-1.2-1.2c-0.9-0.6-2-0.8-3.2-0.5c-2,0.5-3.4,2.2-3.6,3.8
		c0,0.3-0.1,0.5-0.1,0.8c0.1,1.8,0,3.6,0,4.7l-23.9,13.3c6.3,1.1,12.7,1.3,19,0.7c1.7-3.9-0.3-7.8,2.1-10.4c0.4-0.4,0.8-0.7,1.4-1.1
		l0,0c-0.5,5.3,1.7,10,1.5,15.5c-1,20.6-2.5,41.3,1.3,61.8c3.1,17,6.4,33.8,9.7,50.7c0.5,2,1.2,3.9,2.1,5.8c0.8-0.3,1.5-0.7,2.1-1.1
		c1.7-1.3,2.4-2.9,2.4-4.8c0-0.2,0-0.4,0-0.6c0-0.7-0.1-1.3-0.3-2c-0.4-2-0.8-3.9-1.3-5.8c-0.3-1.2-0.7-2.4-1-3.7
		c-1.1-3.7-2.3-7.3-2.9-11C275.2,601.1,271.9,581.1,272.9,560.7z"/>
	<path class="st2" d="M391.1,351.8c1,5.2,5.8,8.3,10.8,8.2c2.2-0.1,4.5-0.8,6.4-2.3c-0.4-0.2-0.8-0.4-1.1-0.6
		c-0.7-0.4-1.3-0.8-1.8-1.1c-3.4-2.3-3.5-3.9-2-9.4c0.3-0.9,0.6-1.9,0.9-2.8c0.6-1.9,1.3-3.7,2.1-5.6c0.4-0.9,0.8-1.8,1.2-2.7
		c0.5-1,0.9-2.1,1.4-3.2c0.3-0.7,0.7-1.5,1.1-2.2c0.6-1.1,1.2-2.4,1.8-3.7c-6.4,0.2-8.8-3.3-9.5-9.3c-3.1,7-5.7,13.5-8.7,19.6
		c-0.4,0.9-0.9,1.7-1.3,2.6c-1,2-1.5,4.1-1.8,6.2c-0.2,1.6-0.1,3.2,0.1,4.8C390.9,350.7,391,351.3,391.1,351.8z"/>
	<path class="st2" d="M71.3,276.5c1,3.7,2.1,7.4,3.2,11.1c0-0.1,0-0.1,0-0.2c-0.4-4.3-0.7-8.6-1.1-12.9c0,0,0,0,0-0.1
		c0,0,0-0.1,0-0.1C71.8,274.1,70.9,274.9,71.3,276.5z"/>
</g>
</svg>
