<svg xmlns="http://www.w3.org/2000/svg" viewBox="0 0 1027.7 1376.9"><defs><style>.cls-1{fill:#fff;}</style></defs><g id="레이어_2" data-name="레이어 2"><g id="레이어_1-2" data-name="레이어 1"><path d="M3.9,1376.9c-3.9-2.1-4.5-5.2-3.4-9.2C6.4,1345.1,12,1322.5,18,1300c7.2-27,14.6-53.9,21.9-80.8s13.8-51.7,21.2-77.4c6.7-23.5,13.6-47,21.1-70.2,6.2-19.4,13-38.6,20.2-57.6,5.6-14.8,11.6-29.6,18.5-43.8,7.8-16.2,16.4-31.9,25.3-47.5,3.5-6.2,8.4-11.8,13.3-17,8.7-9.3,17.2-18.9,27-26.8a167.8,167.8,0,0,1,55.2-30.1c26.4-8.3,53.1-15.9,79.5-24.3,5.7-1.8,10.7-5.6,16.2-8.3a115.4,115.4,0,0,1,12.7-5c12.1-4,24.3-7.7,36.4-11.6l1.5-.4c9.5-2.5,13.8-7.7,13.7-17.5,0-1-1.5-2.4-2.6-3.1-8.8-5-17.8-9.6-26.5-14.8-17.1-10.3-34.9-19.8-50-33.3-3.4-3.1-6.7-6.3-10-9.5a308.9,308.9,0,0,1-48.8-58.8c-7.7-12.4-13.8-25.8-20.8-38.8a98.5,98.5,0,0,0-5.5-9.3c-1.7-2.4-3.9-2.7-6.4-.7-7,5.6-15.6,5.1-22.9,2.7-5.5-1.7-10.6-6.8-14.2-11.6-8.9-12.1-17.3-24.4-21.8-39.2s-9.6-27.6-14.3-41.5c-5.7-16.3-9.8-32.9-8-50.3.8-7.7,4-15.1,4.8-22.8,1.2-13.7,9.7-22,19.8-29.5l3.7-2.6c-1.6-5.8-3.2-11.9-5.1-17.9a190,190,0,0,1-9-48.8,490.1,490.1,0,0,1,.1-61.8,357.1,357.1,0,0,1,9.4-56.1,258.3,258.3,0,0,1,16-46c9-19.4,20-37.9,33.8-54.6,8.2-9.8,14.8-21,22.8-31a197.6,197.6,0,0,1,19.9-21c9.6-8.7,19.3-17.3,29.8-24.8,14.8-10.4,29.9-20.5,46.3-28.6,14.2-6.9,28.4-14.1,43.6-18.6A231.6,231.6,0,0,1,431.9.7c24.3-2.1,47.9.8,71.3,6.8,8.2,2.1,16.1,5.4,22,12.5,2.6,3,7,4.6,10.1,6.5,11.9-10.6,23.2-18.9,39.3-20.1,28.5-2,55.8,3.5,82.5,11.7,18.2,5.7,35.7,13.5,53.4,20.7,12.8,5.2,23.8,13.4,34.2,22.4,15.3,13.1,30.6,26.1,45.5,39.4,18.8,16.7,32.8,37.2,45.5,58.6,15.5,26,27.4,53.5,31.9,83.5,3.5,23,5.4,46.3,3.8,69.6-1,14.5-1.9,29.2-4.8,43.4-2.3,11.5-7.4,22.4-11.2,33.6-2.2,6.3-4.3,12.6-6.4,19,8.7,3.4,14.2,9.9,18.6,17.7s10.2,15.2,14,23.4c2.4,5,3.2,11.1,3.2,16.7.2,13.1-.2,26.2-1,39.3-.3,4.3-2.6,8.6-4.2,12.8-2.5,6.2-5.4,12.1-7.6,18.4-3.4,9.5-5.1,19.7-9.5,28.6-6.6,13.5-14.7,26.3-22.7,38.9-6.3,10-19.3,12.1-29.5,5.8-1.5-.9-3.8-.9-5.7-1-4.9-.2-7,3.3-8.6,7-3.3,7.9-6,16.1-9.8,23.8-9.8,19.9-19.4,40.1-35.4,56s-33.4,33.8-51.5,49.1c-10.2,8.6-23.2,13.6-34.8,20.6-7.6,4.7-14.9,9.8-22.2,14.9-1,.7-1.3,3-1.1,4.4.4,3.8,1.3,7.6,2,11.6,17.3,5.5,34.7,10.8,51.9,16.6,4.6,1.5,9.5,3.4,13,6.5,7.6,6.9,17.2,7.9,26.4,10.3,21.1,5.7,42.5,10.7,63.3,17.3,9.8,3,18.6,9.2,27.9,13.8s18.8,14.2,28,21.6c15.8,12.7,27.2,29.1,39.7,44.4,4.3,5.2,7.3,11.5,10.3,17.5,15.9,31.9,30.7,64.2,40.4,98.7,6.8,23.9,14.6,47.6,21.2,71.7,7.4,26.7,14.2,53.6,21,80.5q12.9,50.8,25.3,101.9c5.5,22.6,10.6,45.4,15.9,68.1,1,4.4-2.4,9.8-6.9,10.3-1,.1-2.9-1.7-3.3-3-5.1-17.7-10.1-35.4-14.8-53.2q-9-35.1-17.5-70.4c-6-25.2-11.4-50.7-17.7-75.8s-13.4-52.6-21.3-78.5c-12.3-40.5-23.8-81.5-42.1-120-13.6-28.8-29.8-55.9-53.7-77.4-10.8-9.7-21.5-19.5-34.4-26.9-22.7-13-47.8-18-72.5-24.3-11.4-2.9-22.8-5.9-34.1-9.4-4-1.3-7.4-4.6-11.3-6.5s-11-4.8-17-7.4c.9,10.3,3.4,19.8-3.4,28.6l38.5,24a20.1,20.1,0,0,1,5.6,4.8c13.3,17.3,26.3,34.8,39.8,52,6.9,8.7,14.6,16.8,21.7,25.3a19.7,19.7,0,0,1,4,7.9c5.7,31.6,17.4,61.3,27.4,91.7,8.6,26.2,17.3,52.3,21.9,79.7a345.8,345.8,0,0,0,10.5,43.6c1.6,5.2,6.7,9.6,10.6,14,6.1,6.9,12.6,13.6,18.9,20.4,13.3,14.6,26.8,28.9,39.7,43.9,7,8.2,12.9,17.4,19.1,26.4,8.3,12.1,16.8,24.1,24.4,36.6a341.9,341.9,0,0,1,17.4,32.1,47,47,0,0,1,3.9,15.8c.2,2.3-2.5,4.9-4,7.4h-8c-1.1-5-1.2-10.4-3.4-14.7-7.5-14.7-15.2-29.3-23.8-43.4s-17.8-26.9-26.9-40.3a59.3,59.3,0,0,0-5.7-7.5c-7.4-8.2-15-16.4-22.5-24.6-2.9-3.1-6-6.1-8.8-9.3q-20.1-22.3-40-44.8c-1.4-1.6-3.1-3.3-3.6-5.2-2.7-9.5-5-19.1-7.4-28.6-5-19.6-6.4-39.9-13.4-59.2-9.6-26.5-17.7-53.5-26.1-80.5-4.4-14.2-8.5-28.6-11.9-43.1a37.8,37.8,0,0,0-7.5-15.3l-43.7-55.2c-6-7.5-10.7-16.2-19.7-21.2-17.1-9.7-33.9-20-51-29.6-3.5-2-8.6-3.9-11.7-2.7-8.4,3-16.8,2-25.2,2.7-12.6,1.1-25.7,1-35.4,11.4a9.1,9.1,0,0,1-1.7.9c-11.2,8-22.9,15.2-30.3,27.4-3.5,5.6-7.8,10.7-12,15.9-8.2,10.2-8.6,20.3-.9,30.6,1.3,1.7,2.5,3.5,3.7,5.3a7.6,7.6,0,0,0,11.3,2.4c5.8-4,11.7-7.9,17.4-12.1,12.7-9.2,25.4-18.5,37.8-27.9,3.9-2.9,7.5-2.5,11-.4a22.5,22.5,0,0,1,5.7,5.4c9.9,12.6,19.4,25.5,29.7,37.8a122.1,122.1,0,0,1,27.4,56.4c3.1,15.5,3.1,31.7,3,47.7,0,23.3-1.4,46.6-2.1,69.8a34.2,34.2,0,0,0,.9,7.9q7.4,28.9,15,57.8c.8,3.4,1.6,7,3.5,9.7,9.1,12.4,18.6,24.6,27.9,36.9,1.9,2.4,4.1,4.8,5.3,7.5,9,19.5,17.6,39.2,26.6,58.7,4.9,10.5,10.3,20.8,15.5,31.1s11.2,22,16.6,33.1c1.5,2.9,2.3,6.1,3.4,9.2h-41c-.2-.5-.6-.9-.6-1.4-.4-16.9-.8-33.8-1.3-50.7a22.9,22.9,0,0,0-1.9-8.6c-8.9-20-18.1-40-27.2-59.9a54.6,54.6,0,0,0-5-9.6q-13.5-18.2-27.5-36a7.5,7.5,0,0,0-5.5-2.7c-11.1.4-22.1,1.3-33.2,1.9-7.4.4-14.9.5-22.3,1.2-3.2.3-6.7,1-9.3,2.7-4.6,2.9-8.7,6.7-12.7,10.4-11.4,10.6-22.7,21.1-38.2,26.2-10.7,3.5-20.7,4.1-30.5-1.2-4.5-2.4-8.2-6.1-12.2-9.2s-5.4-2.9-8.4-.2-7.9,8.9-12.7,10.4c-9.3,3-19.7,6.5-28.7,4.9-13.6-2.3-25.8-10-34.8-21.1-7.2-9-16.3-14-27.5-15-17.3-1.6-34.5-2.4-51.7-4.3-6.4-.6-11.8-.9-15.9,4.8-2.5,3.4-5.5,6.3-7.6,9.8-7.1,11.5-14.2,23-20.7,34.8-8.2,15-15.7,30.3-23.9,45.3-4.9,8.9-8.6,17.8-7.8,28.3.5,5.4-.3,10.9-.8,16.4-.6,7.6-1.4,15.2-2.1,22.8h-40c.4-1.6.3-3.5,1.2-4.6,11.9-15.5,19.2-33.5,27.7-50.8s15.7-34.2,24.3-50.9c5.8-11.1,12.8-21.6,19.6-32.1s16.4-22,20.5-35.4c.8-2.6,2-5.2,2.9-7.8,5.5-14.7,11.4-29.3,16.3-44.2a83.1,83.1,0,0,0,4.1-23.1c.5-14.8-.1-29.6-.7-44.3a204.1,204.1,0,0,0-2.2-22.1c-1.5-10.7-4.4-21-1-32.2,4.2-14.1,6.6-28.7,9.8-43.1,4.5-19.6,14.3-35.6,31.2-47.1,6.5-4.5,12.3-10.1,15.6-17.7,2.2-5.1,4.4-10.3,6.7-15.5,3.2-7.3,9.1-8.1,13.9-1.7,2.5,3.3,5.3,6.5,7.2,10.1,4.9,9,13.9,12.5,22.4,15.9,11.8,4.6,24.2,7.9,36.3,11.5,9.8,3,16.1-1.8,16-11.7,0-2.5.3-5.1-.2-7.5a11.3,11.3,0,0,0-2.2-5.3c-9-9.6-15.9-20.9-26.3-29.3s-18-18-30.7-22c-5-1.5-9.7-4-14.8-5.3a27.5,27.5,0,0,0-11.4-.7c-9.1,2-17.9,5.1-26.9,7.3-13.2,3.1-25.8,8.8-39.8,8-1.3-.1-2.7,1-3.9,1.8-5.7,3.9-11.7,7.6-17,12-8.6,7.3-18,14.1-24.6,22.9-12.8,17.3-23.5,36.2-38.2,51.9-6.1,6.5-7.7,14-9.8,21.8-4.7,17.1-9,34.3-15.9,50.9-8.7,21.2-16.2,42.9-23.4,64.7-8.4,25.5-17.2,51-19.3,78.1-.6,7.8-.8,15.6-10.6,18-.2.1-.4.5-.6.7-7.9,8.8-15.8,17.5-23.6,26.4-9.3,10.5-18.3,21.3-27.7,31.9s-18.5,19-26.3,29.6c-15.1,20.4-29.2,41.6-43.5,62.7-6.3,9.2-12.1,18.8-18.1,28.2h-10c.5-4-.1-8.5,1.7-11.7,4.5-8.3,10.1-16,15.1-24,3.9-6.3,7.1-13.1,11.4-19.1q13.1-18.3,27.1-35.9c12.9-16.1,26.1-31.8,39.5-47.5,10.6-12.4,21.6-24.6,32.5-36.7,4.8-5.3,10-10.1,14.7-15.4,2-2.2,4.2-4.7,4.7-7.4,1.4-7,1.1-14.4,2.9-21.3,4-16.1,9.1-31.9,13.3-47.9,7.5-28.7,19-56,28.9-83.9,4.7-13.4,9.4-26.8,13.1-40.5s7.2-24.9,17.1-34.7a110.6,110.6,0,0,0,15.6-19.8c12.6-19.9,25.9-39,45.5-52.7,9-6.4,18.4-12.2,27.6-18.1-4.8-6-5.5-20.7-.9-28.8,1.7-2.9,3-5.9,4.5-8.9a9.2,9.2,0,0,0-5.2.5c-14.5,5.8-28.8,12.6-43.7,17.4-27.1,8.6-55,14.7-81.1,26.5-9.3,4.2-18.6,8.3-27.5,13.3-5.6,3.1-10,8-15.3,11.7-7.7,5.3-14.8,11.1-20.2,18.9s-13.1,15.2-17.8,23.8c-11.1,19.9-21.9,40.1-31.2,60.9-7.9,17.5-14.1,35.9-20.2,54.2-7.4,22.1-14.2,44.3-20.8,66.6-7.7,25.7-15.1,51.6-22.1,77.5-8.2,30.1-15.7,60.4-23.6,90.6-4,15-8.4,29.9-12.4,44.9S17,1361,12.9,1376.9ZM686.6,295.5a7.7,7.7,0,0,1,.2-1.5l-18.7-20.1c-3.4-3.7-7-7.1-9.9-11a241.9,241.9,0,0,0-34.4-36.4c-10.4-9.1-19.9-19.3-30.8-27.7-16.8-12.9-34.3-24.7-51.7-36.7-1.8-1.2-4.6-1.3-6.9-1.3-11.4.5-22.8,1-34.1-1.4-9.1-1.9-18.4-3.9-27.9-.7-6,2.1-12.5,2.9-18.8,4.3-13.5,3-27.1,5.4-40.3,9.3s-24.8,14-34,24.1-16.9,23.8-23,36.9c-7.4,15.8-12.6,32.6-18.8,48.9-2.3,6.1-4.9,12.1-7.3,18,11.5-1.5,22.4-3.6,33.5-4.3,20.5-1.5,41-2.4,61.6-3,12.6-.3,19.8,5.2,22.4,15.5,1.5,5.9-.4,10.4-6.1,12.5a74.1,74.1,0,0,1-14.7,3.9c-5.5.8-11.2.7-16.8,1.2-11.8,1.2-23.6,2.6-35.4,3.9-6.7.7-13.6.5-20.1,1.9-12.2,2.5-24.1,6.1-36.2,8.8-4.5,1-8.4,2.4-11.5,6.1s-8,8.7-12,13.1c-8.7,9.7-17.7,19.3-26.1,29.3-3.5,4.2-7.8,7.1-12.4,9.8s-11,7.2-10.9,15.3c.1,5.9-1.2,11.9-1.6,17.8-1.3,20.7-2.7,41.3-3.8,62-.3,5.9.6,11.9.9,17.8.9,14.7.7,29.6,6.5,43.5a40.1,40.1,0,0,1,1.1,29.7c-1.7,4.8-2.5,10-3.5,15a6.1,6.1,0,0,0,.7,3.5c5.1,8.9,10.5,17.6,15.4,26.5s7,16.1,12,23c11.7,15.8,22.1,32.7,36.7,46.2,11.1,10.2,21.8,20.9,33.5,30.3,7.7,6.2,16.6,10.8,25.3,15.6,19,10.5,36.3,24.6,58.4,28.9,3.8.8,7.3,3.1,11.2,3.8,22.4,4.2,44.5,10.9,67.6,11.1,11.6,0,23.3.7,34.8-.6,20.7-2.2,41.3-5.7,62-8.8,4-.6,8.2-.8,11.7-2.4,11.6-5.4,23.9-9.5,33.8-18.1a42,42,0,0,1,7.6-4.7c10.3-5.5,21.2-10.2,30.9-16.7s16.6-13.6,24.5-20.9c5.9-5.4,10.9-11.7,16.6-17.1,13.4-12.6,26.3-25.3,33.9-42.4,1.6-3.8,4-7.3,6.1-10.8a124.5,124.5,0,0,0,16.3-38.7c5.8-26.4,10.7-53,16.3-79.5,1.8-8.3,3.1-16.6.5-24.9-5.8-18.5-6.3-37.7-4.8-56.6a132.5,132.5,0,0,0-4.3-45.7c-1.9-7.2-8.4-10.7-13.4-15.2-10.2-9.1-20.8-17.6-31.4-26.3s-19.3-18.7-31.6-24.9c-7.7-4-15.5-6.4-24-6.6s-14.5,1.1-21.8.7c-12.9-.6-25.7-2-38.5-2.8-10.1-.6-20.2-.7-30.3-1.1a14,14,0,0,1-13.1-10.9c-1.7-7.2,3.2-14.3,12.2-18.1,17.3-7.3,35.4-3.9,53.2-3.4C664.2,292.6,675.4,294.4,686.6,295.5ZM525.4,948.6c-5.3,2.7-10.1,7.2-14.7,7.1a134.5,134.5,0,0,1-30.1-5.1c-8.6-2.4-16.6-7.2-25.2-9.9S438.1,932.8,433,924c-2.1-3.6-4.3-2.1-6,.6s-3.2,6.8-5.6,9.4c-7,7.7-14.1,15.4-21.7,22.5s-15.6,17.5-17.9,29.9a247.1,247.1,0,0,1-8.3,34.2,63.1,63.1,0,0,0-1.5,34.7,12.5,12.5,0,0,0,3,5.4c13.1,13.1,26.4,25.9,39.4,39,6.3,6.3,12.1,13.3,18,19.9,12.2,13.6,25.5,25.2,44.1,29.8,9.8,2.4,18,8.6,24.7,16.6s12.7,14.2,19.5,21.7c1.2-2,1.9-2.9,2.4-3.9,4.2-8.3,10-14.7,18.6-19.1a162.1,162.1,0,0,0,24.4-15.9c14.1-10.7,27.9-21.9,41.6-33.2,6.2-5.1,12.9-10.1,17.6-16.5,5.9-8.2,11.6-16.5,19.9-22.5a43.7,43.7,0,0,0,5.6-4.9c4.5-5,8.4-10.8,13.5-15s5.8-6.5,5.5-11.7c-.4-7.1,0-14.3-.2-21.5-.1-4.9.3-10.2-1.4-14.7-4.5-12.2-8.9-24.7-15.4-35.8s-14.8-19.9-22.5-29.6c-6-7.7-12.3-15.1-18.4-22.6-17.6,12.8-34.9,25-51.9,37.7-10.6,7.9-24.1,5.9-31.2-5.1C527.6,951.5,526.2,949.7,525.4,948.6Zm23.9-815.8-.3,1.6,25.9,8.1a74.3,74.3,0,0,1,9.4,3.2c17.6,9,35.3,18.1,49.2,32.8,1.2,1.3,3,2.1,4.3,3.3,6.3,5.5,12.8,10.7,18.7,16.5,10.5,10.3,20.6,20.8,30.7,31.4,3.8,4,7.2,8.3,10.7,12.6s7.9,10.2,12.3,15c17.4,19.3,35,38.4,52.6,57.5,3.7,4.1,7.2,8.5,11.5,11.7,9,6.6,18.8,12.2,27.6,18.9,12,9.2,24.2,18.6,27.8,34.7,1,4.6-.7,11.1-3.5,12.1s-7.5-2.3-8.9-8.3-5-13-10.9-17.4c-11.4-8.6-22.9-17.1-34.2-25.8-5-3.8-10.3-7.5-14.5-12-13.9-15-27.4-30.5-41.1-45.7l-27.5-30.4c-5.7-6.4-11.2-13.1-17.2-19.3-17.8-18.1-34.6-37.3-55.3-52.5-8.2-6.1-16.1-12.1-25.4-16.6s-18.1-9.5-28.5-11.2c-3.2-.5-6.2-2.4-9.3-3.6l-4-1.4-1.1,1.3c1.4,1.4,2.5,3.2,4,4.2,16.5,10.9,34.9,18.6,48.9,33.2,9.8,10.2,20.7,19.2,31,28.7,5.2,4.8,10.4,9.4,15.2,14.5,11.5,12.4,22.7,25.2,34.1,37.7,1.9,2.1,4.5,3.7,6.5,5.7,6.7,6.4,13.2,12.9,19.7,19.4,3.2,3.2,6.4,6.4,9.4,9.8C726,313,734.4,324,743.9,334c13.8,14.3,29.4,26.6,45.1,38.9,6.6,5.2,12.6,12.9,15.4,20.7,3.9,10.8,4.4,22.8,6.3,33.3,4.4-4,8.8-9,14.2-12.6A35.8,35.8,0,0,0,839,396.2c4.3-11.8,7.9-23.9,12.1-35.7,2.9-8.4,4.4-16.4-.9-24.7-3.1-4.8-4.5-10.7-7.4-15.7a75.3,75.3,0,0,0-35.7-31.6c-16.3-7.2-28.1-19.5-38-34.3A111,111,0,0,0,748,230.5c-8.1-6.7-14.4-16.4-25.9-18.7a2.7,2.7,0,0,1-1.6-1c-6.9-8.5-15.5-15.8-19.6-26.3a89.9,89.9,0,0,0-5.1-11.4c-6.2-11.3-14.6-19.6-26.9-24.9-15.2-6.5-30.8-12.6-44.3-22.8-6.6-4.9-14.2-8.6-21.5-12.5-2.9-1.5-6.3-3-9.5-2.9-14.7.4-29.4,1.3-44.3,2.1v6.7a13.7,13.7,0,0,0,2.7.2l5.4-.7c15-2.8,28.7-.7,41,9.1a151.1,151.1,0,0,0,47.2,25.5c18.2,6.2,31.3,18.4,39,36.3,1.5,3.5,3.5,6.8,4.9,10.4s5.4,8,9.5,11c17.4,13,34.5,26.1,46.5,44.8,14.9,23.3,35.8,40.3,59.7,53.4,17.6,9.6,28.2,24.3,37,41.2,2,3.8.2,7.1-3,9s-6.4.6-8.4-2.9-4.3-6.7-6-10.3c-5.5-11.5-14.7-19.1-25.5-25.2a197.1,197.1,0,0,1-22.4-14.8c-17-13.3-33.1-27.3-44.6-46.1-5-8.2-12.5-15.1-19.7-21.7s-17.2-13.6-25.9-20.4a16.3,16.3,0,0,1-4-4.3c-4-7.5-7.8-15-11.7-22.6-6-11.7-14.8-20.6-27.4-24.8-18.4-6-35.8-14-50.6-26.5S564.6,129.8,549.3,132.8ZM414.9,785.6a52,52,0,0,1-2,8c-1.5,3.8-2.6,8.4-5.4,10.7-4.4,3.6-10.1,5.6-15.2,8.4a8.1,8.1,0,0,0-3,2.1c-3.1,3.7-5.9,7.6-9,11.2-5.4,6.4-8.1,13.5-7.4,22,.5,5.1,7.4,11.1,12.4,9.8,11.1-2.8,22.2-5.9,33.5-8.5,6.9-1.7,14.3-4.4,20.9-3.3,10.1,1.7,20.6,4.8,29.3,10,11.2,6.6,21.4,15.4,30.9,24.3s15.3,17.3,23.1,26.3c6.8-8.9,13.3-17.8,20.4-26.3a107.4,107.4,0,0,1,14-13.8,175.5,175.5,0,0,1,17.9-13.2,72.3,72.3,0,0,1,15.6-8.1c4.8-1.7,10.2-1.7,15.3-2.4,11-1.4,22-2.4,33-4.1,5.5-.8,10.6-1.3,15.7,1.8,3,1.9,6.6,2.9,9.8,4.3,5.7-8.8,3.5-18.7-4.9-22.9s-15.6-7.9-23.2-12.1a12.3,12.3,0,0,1-4.8-4.8c-2.5-5.7-4.5-11.7-6.4-16.6-8.2,1.5-16.7,3.3-25.3,4.7-16.5,2.6-32.9,5.2-49.5,7.4-11.7,1.5-23.6,2.7-35.4,3.2-7.2.3-14.5-1-21.7-1.8s-17.3-1.9-25.8-3.8C450.3,794.3,433,789.9,414.9,785.6ZM184.3,390.1c1.9,6.8,3.5,13,5.2,19.2.7,2.7,2.4,3.6,5.3,3.9s8.8,1.2,12.3,3.3c8,4.9,15.4,10.6,22.4,15.6.4-4.4,1.3-10.2,1.3-15.9-.1-10.3,4.9-17.7,12.3-24.2,13.2-11.6,27.9-21.5,38.1-36.1,7.8-11.1,18-20.3,23.4-33.2,6.7-16,14.6-31.5,21.3-47.5,4-9.5,6.3-19.6,10.1-29s8.8-18.7,13.3-27.9c9.3-19.2,21.9-36.1,38.4-49.6,4.5-3.6,9.8-7.1,15.3-8.4,19.5-5,39.2-9.2,58.9-13.4,9.5-2.1,18.8-5.6,28.7-3.2,2.8.7,5.7.8,8.9,1.3-1-4.7-3.2-7-7-8.5-12.4-5.2-25.3-4.9-37.8-1.9-25.2,6-48.8,16.7-72.1,27.8a96.7,96.7,0,0,0-18.5,11.8c-32.8,26.6-54.8,60.1-63.2,101.9-4.8,24-13.2,46.2-31,63.6a215,215,0,0,1-22.4,19.1c-12.9,9.4-23.2,20.3-25.6,37.1-.3,2.1-3.5,4.8-5.9,5.4s-6.3-2.1-6.2-5.6.7-9.7,2.4-14a66.3,66.3,0,0,1,26.1-32.1c27.5-18.1,44.1-43.1,49.8-75.7,4.9-27.7,16.7-52.7,33.7-74.9,15.7-20.3,33.8-38.6,57.5-49.5,20.5-9.4,41.6-17.7,63-25.1,18.8-6.4,38.3-7.6,57.1,1.2,3.8,1.7,6.6,5.7,9.9,8.6s5.5,5.4,8.8,7.4a67.2,67.2,0,0,0,11.7,4.9c1.5.5,3.2.1,4.8.1-9.9-3.4-16.8-10-22.7-17.9a41.5,41.5,0,0,0-5.7-6.2c-14.6-13.4-31.5-20.3-51.2-15.6a165,165,0,0,0-33.3,11.8q-42.1,20.5-83.7,42.5c-28.5,15.2-46.9,39.7-60.5,68.3a38.6,38.6,0,0,0-1.6,4.8c-4.3,11.9-4.5,24.4-5.6,36.9-2.6,28.5-17.8,50.5-38.2,69.7-10.4,9.8-19.7,20.8-29,31.6-2.8,3.4-4.5,8.1-5.7,12.5C195.2,392.6,192.3,394.2,184.3,390.1ZM670,1072.9l-1.3-.3-18.3,17.3c-2.6,2.4-5.8,4.5-7.8,7.4-5.2,7.4-9.6,15.4-17.3,20.9-4.9,3.5-9.2,7.6-13.7,11.5-17.7,15.7-36.2,30.4-56.7,42.5-5.3,3.1-11,6.4-15.2,10.8s-7.3,10.3-10.2,15.8-5.4,9.4-3.3,16.5,5.4,11.7,11.1,15.3,9.1,6.8,14.1,7.8c11.7,2.4,22.1-3,31.2-9.5s17.7-15.5,26.7-23c3.7-3.1,7.7-6.5,12.1-7.8s11.2-1,16.8-1.3l39.4-2.4c4.2-.2,5.6-2.1,4.5-6.4-3-11-5.4-22.1-8.4-33-5.7-20.4-10.1-40.7-6-62C668.9,1086.4,669.3,1079.6,670,1072.9ZM353.5,1199.7c4.6.5,7.9.9,11.2,1.1,8.1.4,16.3.6,24.4,1.1,6.6.4,13.1,1.2,19.6,2,4.7.5,9.5.8,14.1,2,14,3.6,24.8,12.3,34.3,22.7a38.9,38.9,0,0,0,15.7,10.2c2.6,1,5.2,2.9,7.8,2.8,10.5-.3,20-3.5,27.8-10.9a4.9,4.9,0,0,0,1.4-3c.1-10.5.1-21,0-31.6a3,3,0,0,0-1.2-2c-6.7-7.5-13.1-15.4-20.5-22.2-4.6-4.2-10.3-8.2-16.2-9.7-16.4-4-29.3-13.5-40.9-24.7s-19.4-20.9-29.2-31.2-17.8-17.8-26.6-26.7h-1.6C378.1,1121.2,374.9,1161.6,353.5,1199.7ZM534.5,97c1.4-6.6.5-11.2-6.2-14.3-4-1.9-7-6-10.5-9.1s-5.2-5.2-8.3-7.1c-12.7-8.1-26.7-12.4-41.7-13.9-16.8-1.7-32.1.5-46.5,10.6-7.6,5.4-17.2,9.1-26.4,11-17.3,3.5-34.6,6-49.9,16-8.2,5.4-17.3,9.3-26,13.9a156.4,156.4,0,0,0-15.9,9.2c-20.1,13.5-32.8,33.3-45.5,53.1-10.7,16.6-17.4,35.7-32,49.8-2.5,2.4-5,4.8-7.4,7.3-8.3,8.1-10,18.6-9.7,29.5.7,19.1-7.9,34.7-21.1,46.8-8.5,7.7-11.8,15.2-10.5,25.9.5,3.6.1,7.3.1,10.9a18.3,18.3,0,0,0,.3,2.6c11.3-11,22.9-22,34.1-33.2,5.8-5.8,10.1-12.3,9-21.3-.6-4.4.1-9-.1-13.5-.6-14.4,3.5-28,8.4-41.3,2-5.3,5.9-10,9.6-14.4,6.3-7.5,13.5-14.3,19.7-21.9,14.8-18.2,28.8-37.1,43.9-55.1A91,91,0,0,1,341.1,111c18.1-6.6,35.9-14.1,53.6-21.9,15.6-6.9,30.4-16,47.3-19.8,29.1-6.4,56.3-3.6,79.9,16.5C526.1,89.4,530.1,93.1,534.5,97Zm-1.2,35,1.4-.9a26.4,26.4,0,0,0,.2-2.8c0-3.9.1-7.7,0-11.5a5.1,5.1,0,0,0-1.5-2.8c-2.5-2.3-5.4-4.2-7.7-6.8C510,89.6,491.3,79.1,466.8,79.3c-17.7.2-33.5,5.8-49.2,13-22.4,10.2-44.7,20.8-67.7,29.4-15.7,5.9-29,14.2-39.6,26.7s-18.6,23.6-28.1,35.2c-10.7,13.1-21.4,26.3-32.7,39a50.1,50.1,0,0,0-10.6,16.6c-5.9,16-5.5,32.6-5.6,49.3,0,4.5-.8,9.7-3.1,13.3a91.4,91.4,0,0,1-15,17.8c-12.8,11.6-24.4,24-33.5,38.8-1,1.7-2.3,3.7-2.1,5.4.8,7.1,2.1,14.1,3.1,20,3.6-6.7,6.4-14.5,11.4-20.7a291.4,291.4,0,0,1,28.6-31.2c21.8-20.1,35.9-43.5,35.4-74.1a47.8,47.8,0,0,1,1.4-11.9c11.2-45.8,38.3-78.9,80.3-100.1q31.1-15.5,61.7-31.7c16-8.4,32.3-16,50-19.9a58.8,58.8,0,0,1,17.7-1.6c22.6,2,40.9,11.9,54.8,30.1C526.6,126.2,530.2,128.9,533.3,132ZM857.4,296.4c-2.7-3.1-5.1-5.5-7.1-8.1s-5.3-8.9-9.1-11.8c-11.4-8.6-23.4-16.5-35.1-24.7-5.6-3.9-11.6-7.3-16.5-11.9-14.2-12.9-25.4-28.4-36.7-44-12.7-17.4-27.3-33.6-42.2-49.3-7.6-8.1-16.9-15.5-26.8-20.3-15.9-7.7-29.1-18.6-42.3-29.8a33.7,33.7,0,0,0-7.4-5.1c-27.5-12.8-55.9-12.7-84.7-4.5V99.4c5.3-.4,10.3-.4,15.2-1.2,21.1-3.4,41-2,59.1,11.2,14,10.2,29,19,45.7,24.2,18.7,5.9,30.9,18.6,38.6,35.9a83.6,83.6,0,0,0,17,25.6,23.6,23.6,0,0,0,4.4,3.2,81.3,81.3,0,0,1,7.8,5.2c5.2,4.3,10.5,8.7,15.3,13.5,8.5,8.6,18.3,16.5,24.8,26.4,10.6,16.2,23.5,28.8,41.1,36.6a67.4,67.4,0,0,1,30,25.7c2,3.2,4.4,6.1,7.5,10.2C856.6,308.3,857,302,857.4,296.4ZM549.3,72.7c4.4-.5,8.2-.7,11.9-1.4,15.3-3,30.6-5.6,46-1.3a252.5,252.5,0,0,1,27.1,8.9,76.3,76.3,0,0,1,17.3,9.4c11.9,9,22.5,19.6,36.8,25.4a50.9,50.9,0,0,1,16,10c13.1,12.7,25.8,25.9,38.2,39.4A300.1,300.1,0,0,1,766.7,193c14,19.9,28.5,38.9,50.8,50.5a101.7,101.7,0,0,1,14.1,9.4c8.5,6.4,16.8,13.1,25,19.5-.7-8.2-1.4-16.7-1.9-23.3-4.1-3.1-7.5-4.9-10-7.6-4.2-4.7-8.8-8.7-15.1-10.1-9.5-2.3-17.5-7.4-24.3-14.2s-12.2-13.6-18.4-20.3c-11.9-12.9-17.7-30.2-30.4-42.5a15.9,15.9,0,0,1-1.3-2.2c-6.5-10-14.3-18.8-26.1-22.6a65.8,65.8,0,0,1-25.4-14.5,64.6,64.6,0,0,0-11.8-9c-9.3-5.2-16.4-12.4-23.2-20.3-4.5-5.2-9.9-10.2-15.9-13.3-9.7-5-20.2-8.5-30.4-12.6s-18.4-3.7-28-1.5c-14.5,3.3-29,7.6-44.3,6.4-.2,0-.5.4-.8.6ZM868.8,452.1l-1.6.3c-2.2,4.9-5.7,8.5-11.3,8s-8.2,2.8-10.6,6.9a28.3,28.3,0,0,1-2,2.8c-12.7,15.3-21.9,32-22.5,52.7-.2,9.1-1.8,18.3-3.1,27.4-1.8,12.9-3.7,25.9-5.8,38.8-1,6,4.2,7.8,7.4,9.9s6.9-.4,8.9-2.3c11.1-11.4,16.3-26.2,22.6-40.4,3-6.8,4.5-14.4,7.5-21.2,8.9-20,15.1-40.5,13.4-62.6C871.2,465.6,869.8,458.9,868.8,452.1Zm-700.9,4.8c-2,6.8-3.8,12.7-5.5,18.6a11.1,11.1,0,0,0-.5,4.4c1.4,8.5,2.5,17.1,4.6,25.5s5.6,17.8,8.5,26.7c4.2,12.5,7.4,25.5,13,37.4s12.2,23.1,21.4,32.5a6.6,6.6,0,0,0,3.5,1.6c7.9,1.4,11.8-1.3,12.9-9.4,1.6-11.7,0-23.1-3.1-34.4-2.3-8.3-4.7-16.6-6.9-25-3.8-15.3-6.8-31-16-44.3a178,178,0,0,0-16.3-21.2C179.1,464.5,173.2,461,167.9,456.9ZM535.8,59.4c-12-5-23.8-9.2-34.1-17.1-6.3-4.9-13.9-9.4-21.6-10.9-24.4-5.1-47.6.2-69.5,11.5-3.7,1.9-7.6,3.8-11.6,4.5-14,2.4-28.2,3.1-41.7,9-10.5,4.6-21.6,7.4-31,14.4s-16.8,13.3-26.1,18.4c-14.6,8-24,21-33.9,33.4s-16.1,23.2-24.5,34.6-18.2,25.4-30.8,35.3c-9.3,7.3-15.8,17.3-20,28.5-7.5,20.3-10.7,41.5-13.8,62.8-.3,2.2.5,4.5.9,6.7,9.4-11,18.3-21.6,17.3-36.9-.3-3.9.5-7.9.7-11.9.8-14,9.4-23.8,17.9-33.7,5.3-6.1,11.8-11.6,15.6-18.5,11.9-21.7,24.2-43,39.7-62.3a125.9,125.9,0,0,1,42-34c8.7-4.4,17.6-8.5,26.1-13.5,11.3-6.6,22.7-12.2,35.8-14.7s25.8-3.3,37.3-10.2c5.9-3.7,11.8-7.6,18.2-10.3s12.3-5,18.5-5a190.1,190.1,0,0,1,36.2,2.7c17.6,3.3,33.7,10.5,45.8,24.6a72.8,72.8,0,0,0,6.6,5.8Zm14.4-6.6,28.4-4.2c12.3-1.8,25-6.4,36.8-4.9,25.4,3.1,47.4,14.5,64.4,34.6,4.9,5.9,11.5,10.3,17.5,15.2a67.7,67.7,0,0,0,8.3,5.7c7.3,4.6,14.4,9.4,22,13.6s14.5,6.6,21.4,10.5c13.7,7.6,20.4,21.2,27.3,34.1,8.5,16.1,19.3,30.5,31.3,43.8A80.8,80.8,0,0,0,827,216.6c7,4,15.1,6.3,22.5,9.3a27.2,27.2,0,0,1-1.5-5.7c-1.3-12.3-8.3-19.9-18.7-25.8-6.4-3.6-12-8.4-17.6-13.2-16.8-14.5-28.2-33.4-39.7-51.9-9.3-15.1-21.7-24.9-38.1-30-9.2-2.9-18.9-4.3-26.3-11.4s-13-11.9-18.8-18.5a49,49,0,0,0-21.7-14.5c-12.9-4.5-26.2-8.1-38.3-14.2s-25.6-6.4-38.8-3.2-25.2,8.7-39,7.2c-.2,0-.5.3-.9.6s-.3,2.2-.4,3.3S549.9,50.2,550.2,52.8ZM170.8,441c14.7,11.1,25.9,23.6,36.3,36.8s16.1,29.3,19.7,44.2V483a105.9,105.9,0,0,0-6.8-37,10.7,10.7,0,0,0-3-4.9c-5-3.9-10.5-7.2-15.5-11.2s-8.1-4.7-13.1-1.5S177.4,436.2,170.8,441ZM639.6,28.1l-.3,1.3c11.7,4.7,23.5,9.2,35,14.3A83.7,83.7,0,0,1,691.9,54c7.4,5.9,14,12.7,20.9,19.2a51,51,0,0,0,23.7,13.1,68.1,68.1,0,0,1,39,25.3c9,11.7,16.8,24.4,24.9,36.8a106.1,106.1,0,0,0,30,30.8,11.1,11.1,0,0,0-1.3-3.6c-7.3-12-14.5-24-22.1-35.8a102.7,102.7,0,0,0-11.9-15.1c-7-7.2-14.7-13.5-21.6-20.8C763,92.8,751.9,82.5,739,74.4c-2.9-1.8-6.3-3.3-8.1-5.9-4.8-6.9-11.7-10.8-18.9-14-14.4-6.4-28.9-12.8-43.6-18.4C659.1,32.6,649.2,30.7,639.6,28.1ZM536,37.5c-10.7,1.4-16.4-6.7-24-11.2-4.6-2.7-9.2-6.1-14.2-7.4-10.3-2.6-20.7-4.9-31.2-5.5-14.3-.9-28.9-1.3-43.2.4A167.1,167.1,0,0,0,372,29c-8.6,4.1-17.4,7.9-25.8,12.3S329.3,51,321.1,56.1c-5.2,3.3-10.2,7.1-15.3,10.6l1,1.3c6.6-4.4,12.8-9.7,19.9-13,19.8-9.4,40.1-17.7,62.4-19.3,4.6-.4,9.5-1.2,13.5-3.2,19.6-9.6,39.6-16.4,62.1-15.8,18.3.4,33.6,6.4,47.9,17.1,6.8,5.1,15,8.2,23.4,12.7ZM861.8,441.7c-3.8-5.6-7.4-11.2-11.3-16.6a6.5,6.5,0,0,0-4-2.7c-9.5-1.8-17.5,2.3-22.1,11-3.1,6-6.4,12-9.5,18-.8,1.6-1.9,3.3-2,5-.1,11.5-.1,23-.1,34.5l1.5.5c4.6-8.7,9.2-17.3,13.6-26C834.8,451.7,846.2,444.6,861.8,441.7ZM433.7,309.9a14.8,14.8,0,0,1-.1-2.1c-3.6-.3-7.1-.8-10.6-.8-16.3.2-32.6-.2-48.8,1.1-13.9,1.2-27.7,4.1-41.5,6.6-10.9,2.1-11.6,3-13.2,11.5l6.3-1.5c10.7-2.6,21.2-6.3,32-7.6,17.8-2.3,35.9-3,53.9-4.5C419,312,426.3,310.8,433.7,309.9Zm271.4,5.5.9-.8c-2.4-1.9-4.7-5.2-7.2-5.4-13.9-1.2-27.9-1.9-41.9-2.2s-28.3-.2-42.4,0c-3.7.1-7.4,1.1-11.1,1.7,0,.6.1,1.3.1,1.9ZM604.4,20.9c-12.3-3.3-25.9-.7-39.3,1.2-4.3.6-8,5.2-11.9,7.9a8.9,8.9,0,0,0,.8,1.7c4.8-.4,9.7-.2,14.3-1.3C580.6,27.4,592.9,23.9,604.4,20.9ZM223.2,159.1c10.7-14.2,23.7-26.8,30.8-43.6C243.9,130.2,231,142.8,223.2,159.1ZM765.8,1365.9h11.1c-3.9-8-7.4-15.5-11.1-23.1Zm-490-20.4-1-.2c-3.5,6.7-6.9,13.4-10.6,20.4h10.6Zm-43-799.4-1.9.3c2.5,10.1,5,20.2,7.4,30.2C241.3,565.4,235,556.2,232.8,546.1Z"/><path class="cls-1" d="M795.9,1376.9c-1.1-3.1-1.9-6.3-3.4-9.2-5.4-11.1-11.1-22-16.6-33.1s-10.6-20.6-15.5-31.1c-9-19.5-17.6-39.2-26.6-58.7-1.2-2.7-3.4-5.1-5.3-7.5-9.3-12.3-18.8-24.5-27.9-36.9-1.9-2.7-2.7-6.3-3.5-9.7q-7.6-28.8-15-57.8a34.2,34.2,0,0,1-.9-7.9c.7-23.2,2.1-46.5,2.1-69.8.1-16,.1-32.2-3-47.7a122.1,122.1,0,0,0-27.4-56.4c-10.3-12.3-19.8-25.2-29.7-37.8a22.5,22.5,0,0,0-5.7-5.4c-3.5-2.1-7.1-2.5-11,.4-12.4,9.4-25.1,18.7-37.8,27.9-5.7,4.2-11.6,8.1-17.4,12.1a7.6,7.6,0,0,1-11.3-2.4c-1.2-1.8-2.4-3.6-3.7-5.3-7.7-10.3-7.3-20.4.9-30.6,4.2-5.2,8.5-10.3,12-15.9,7.4-12.2,19.1-19.4,30.3-27.4a9.1,9.1,0,0,0,1.7-.9c9.7-10.4,22.8-10.3,35.4-11.4,8.4-.7,16.8.3,25.2-2.7,3.1-1.2,8.2.7,11.7,2.7,17.1,9.6,33.9,19.9,51,29.6,9,5,13.7,13.7,19.7,21.2l43.7,55.2a37.8,37.8,0,0,1,7.5,15.3c3.4,14.5,7.5,28.9,11.9,43.1,8.4,27,16.5,54,26.1,80.5,7,19.3,8.4,39.6,13.4,59.2,2.4,9.5,4.7,19.1,7.4,28.6.5,1.9,2.2,3.6,3.6,5.2q20,22.5,40,44.8c2.8,3.2,5.9,6.2,8.8,9.3,7.5,8.2,15.1,16.4,22.5,24.6a59.3,59.3,0,0,1,5.7,7.5c9.1,13.4,18.6,26.5,26.9,40.3s16.3,28.7,23.8,43.4c2.2,4.3,2.3,9.7,3.4,14.7Z"/><path class="cls-1" d="M61.9,1376.9c6-9.4,11.8-19,18.1-28.2,14.3-21.1,28.4-42.3,43.5-62.7,7.8-10.6,17.6-19.7,26.3-29.6s18.4-21.4,27.7-31.9c7.8-8.9,15.7-17.6,23.6-26.4.2-.2.4-.6.6-.7,9.8-2.4,10-10.2,10.6-18,2.1-27.1,10.9-52.6,19.3-78.1,7.2-21.8,14.7-43.5,23.4-64.7,6.9-16.6,11.2-33.8,15.9-50.9,2.1-7.8,3.7-15.3,9.8-21.8,14.7-15.7,25.4-34.6,38.2-51.9,6.6-8.8,16-15.6,24.6-22.9,5.3-4.4,11.3-8.1,17-12,1.2-.8,2.6-1.9,3.9-1.8,14,.8,26.6-4.9,39.8-8,9-2.2,17.8-5.3,26.9-7.3a27.5,27.5,0,0,1,11.4.7c5.1,1.3,9.8,3.8,14.8,5.3,12.7,4,20.8,14.1,30.7,22s17.3,19.7,26.3,29.3a11.3,11.3,0,0,1,2.2,5.3c.5,2.4.2,5,.2,7.5.1,9.9-6.2,14.7-16,11.7-12.1-3.6-24.5-6.9-36.3-11.5-8.5-3.4-17.5-6.9-22.4-15.9-1.9-3.6-4.7-6.8-7.2-10.1-4.8-6.4-10.7-5.6-13.9,1.7-2.3,5.2-4.5,10.4-6.7,15.5-3.3,7.6-9.1,13.2-15.6,17.7-16.9,11.5-26.7,27.5-31.2,47.1-3.2,14.4-5.6,29-9.8,43.1-3.4,11.2-.5,21.5,1,32.2a204.1,204.1,0,0,1,2.2,22.1c.6,14.7,1.2,29.5.7,44.3a83.1,83.1,0,0,1-4.1,23.1c-4.9,14.9-10.8,29.5-16.3,44.2-.9,2.6-2.1,5.2-2.9,7.8-4.1,13.4-13,23.9-20.5,35.4s-13.8,21-19.6,32.1c-8.6,16.7-16,34-24.3,50.9s-15.8,35.3-27.7,50.8c-.9,1.1-.8,3-1.2,4.6Z"/><path class="cls-1" d="M686.6,295.5c-11.2-1.1-22.4-2.9-33.5-3.1-17.8-.5-35.9-3.9-53.2,3.4-9,3.8-13.9,10.9-12.2,18.1a14,14,0,0,0,13.1,10.9c10.1.4,20.2.5,30.3,1.1,12.8.8,25.6,2.2,38.5,2.8,7.3.4,14.6-.9,21.8-.7s16.3,2.6,24,6.6c12.3,6.2,21.3,16.4,31.6,24.9s21.2,17.2,31.4,26.3c5,4.5,11.5,8,13.4,15.2a132.5,132.5,0,0,1,4.3,45.7c-1.5,18.9-1,38.1,4.8,56.6,2.6,8.3,1.3,16.6-.5,24.9-5.6,26.5-10.5,53.1-16.3,79.5a124.5,124.5,0,0,1-16.3,38.7c-2.1,3.5-4.5,7-6.1,10.8-7.6,17.1-20.5,29.8-33.9,42.4-5.7,5.4-10.7,11.7-16.6,17.1-7.9,7.3-15.7,15-24.5,20.9s-20.6,11.2-30.9,16.7a42,42,0,0,0-7.6,4.7c-9.9,8.6-22.2,12.7-33.8,18.1-3.5,1.6-7.7,1.8-11.7,2.4-20.7,3.1-41.3,6.6-62,8.8-11.5,1.3-23.2.6-34.8.6-23.1-.2-45.2-6.9-67.6-11.1-3.9-.7-7.4-3-11.2-3.8-22.1-4.3-39.4-18.4-58.4-28.9-8.7-4.8-17.6-9.4-25.3-15.6-11.7-9.4-22.4-20.1-33.5-30.3-14.6-13.5-25-30.4-36.7-46.2-5-6.9-7.8-15.4-12-23s-10.3-17.6-15.4-26.5a6.1,6.1,0,0,1-.7-3.5c1-5,1.8-10.2,3.5-15a40.1,40.1,0,0,0-1.1-29.7c-5.8-13.9-5.6-28.8-6.5-43.5-.3-5.9-1.2-11.9-.9-17.8,1.1-20.7,2.5-41.3,3.8-62,.4-5.9,1.7-11.9,1.6-17.8-.1-8.1,5.1-11.8,10.9-15.3s8.9-5.6,12.4-9.8c8.4-10,17.4-19.6,26.1-29.3,4-4.4,8.2-8.6,12-13.1s7-5.1,11.5-6.1c12.1-2.7,24-6.3,36.2-8.8,6.5-1.4,13.4-1.2,20.1-1.9,11.8-1.3,23.6-2.7,35.4-3.9,5.6-.5,11.3-.4,16.8-1.2a74.1,74.1,0,0,0,14.7-3.9c5.7-2.1,7.6-6.6,6.1-12.5-2.6-10.3-9.8-15.8-22.4-15.5-20.6.6-41.1,1.5-61.6,3-11.1.7-22,2.8-33.5,4.3,2.4-5.9,5-11.9,7.3-18,6.2-16.3,11.4-33.1,18.8-48.9,6.1-13.1,13.3-26.4,23-36.9s20.2-20,34-24.1,26.8-6.3,40.3-9.3c6.3-1.4,12.8-2.2,18.8-4.3,9.5-3.2,18.8-1.2,27.9.7,11.3,2.4,22.7,1.9,34.1,1.4,2.3,0,5.1.1,6.9,1.3,17.4,12,34.9,23.8,51.7,36.7,10.9,8.4,20.4,18.6,30.8,27.7a241.9,241.9,0,0,1,34.4,36.4c2.9,3.9,6.5,7.3,9.9,11L686.8,294A7.7,7.7,0,0,0,686.6,295.5Zm-253.4,125c6.9,3.7,10.9,9.3,14.5,15.3,1.9,3.1,4.2,5.2,7.9,3.8s6.4-6,4.2-9.2c-6.3-9.3-12.5-18.9-20.1-27.1-5.9-6.2-14-10.4-21.1-15.5-1.6-1.1-3.2-2.4-5-2.9-13.1-3.3-26.1-6.5-39.9-6.4-15.8.1-30.7,2-44.9,9.6-17.2,9.2-28,22.9-31.4,42a32.8,32.8,0,0,0,.9,14.6c.6,2.4,4,5.2,6.5,5.7s4.5-2.7,6.5-4.5.4-2.2.7-3.3c1.3-4,1.7-8.8,4.1-11.8,5.2-6.6,11.5-12.4,17.4-18.4,1-1,2.6-1.6,4.6-2.7-4.6,11.7-5.1,22.9-3.3,34.3s7.6,21,18.9,26.9,24.7,8.3,38.1,8.1c18.1-.2,30.9-8.7,39.6-24.1C437.7,444,437.2,432.6,433.2,420.5Zm261.7-20.7c6.1,4.7,12.3,9.2,18,14.2,8.4,7.3,14.3,16.3,15.1,27.8a4.6,4.6,0,0,0,1.9,3.3c4.8,2,12-.6,13.4-5.5s2.5-10.1.8-13.9a86.3,86.3,0,0,0-13.7-21.5,76.6,76.6,0,0,0-30-20.5c-8.3-3.2-16.7-7.2-25.3-8.1-22-2.6-42.4,4-60.7,15.8-7.8,5.1-14.7,12.4-20.2,20s-9.8,17.7-13.8,26.9c-.8,1.7.8,5.7,2.6,7s4.9.7,7.1-.1,2.6-2.9,3.7-4.5c3.6-5.4,7.1-10.8,10.6-16.2,1.1,5.3.9,10.1,1.1,14.9.5,12.1,6.9,22.1,15.4,29.1,6.1,5,15.5,6.9,23.8,8.1,13,1.8,25.5-2.2,37.9-5.7,10.1-2.9,17-9.4,19.3-19.6a92.7,92.7,0,0,0,1.9-19.7C703.9,420.4,701.5,409.7,694.9,399.8Zm-279.5,224c-9.2,0-11.8,3.9-7.5,10.8s8.6,11.6,13.2,17.3a56.9,56.9,0,0,0,6.9,7c8.1,7.1,17.3,12.2,27.4,16.7,16.3,7.1,33.3,9.5,50.5,12.3,14.9,2.5,30,1,44.7-.4,18.2-1.8,35.9-6.8,51.7-16.7,8.9-5.6,17.2-12,23.1-20.9,4.1-6.3,7.7-12.9,12.2-18.9,2.4-3.2,3.3-6,1.5-9.4s-4.9-5.1-9.3-4.4c-10.7,1.8-21.4,3.1-32.2,4.7l-25.2,3.6c-6.8,1.1-13.6,2.5-20.4,3.3-9.2,1-18.5,1.6-27.8,2.2-6.7.4-13.6,1-20.4.6-21.1-1.4-42.3-3-63.4-4.9-7.4-.7-15.1.9-22.1-2.6C417.2,623.5,415.6,623.9,415.4,623.8Zm100.4-39c6.6-.3,13.2-.4,19.8-1a50.7,50.7,0,0,0,11-1.9c11.6-3.9,19.8-12,25.4-22.6,4.2-8,6.9-16.6,5.9-25.9a9.9,9.9,0,0,0-3.8-6.3c-.9-.6-4.1,1.3-5.8,2.7s-3.3,3.7-4.9,5.6c-3.8,4.2-7,9.5-11.6,12.6-11.8,7.9-25.4,10-39.3,8.6-3.4-.3-7.6-1.6-9.7-4-6.6-7.2-12.2-15.2-18.6-22.6-1.6-1.8-5.1-3.9-6.8-3.3s-4.6,3.9-5.2,6.4c-1.8,7.2-.1,14.3,1.9,21.4C479.8,574.2,494.6,585.4,515.8,584.8Z"/><path class="cls-1" d="M549.3,132.8c15.3-3,30.1-4.9,43.7,6.6s32.2,20.5,50.6,26.5c12.6,4.2,21.4,13.1,27.4,24.8,3.9,7.6,7.7,15.1,11.7,22.6a16.3,16.3,0,0,0,4,4.3c8.7,6.8,17.8,13,25.9,20.4s14.7,13.5,19.7,21.7c11.5,18.8,27.6,32.8,44.6,46.1a197.1,197.1,0,0,0,22.4,14.8c10.8,6.1,20,13.7,25.5,25.2,1.7,3.6,4,6.9,6,10.3s5,4.9,8.4,2.9,5-5.2,3-9c-8.8-16.9-19.4-31.6-37-41.2-23.9-13.1-44.8-30.1-59.7-53.4-12-18.7-29.1-31.8-46.5-44.8-4.1-3-7.7-6.1-9.5-11s-3.4-6.9-4.9-10.4c-7.7-17.9-20.8-30.1-39-36.3a151.1,151.1,0,0,1-47.2-25.5c-12.3-9.8-26-11.9-41-9.1l-5.4.7a13.7,13.7,0,0,1-2.7-.2v-6.7c14.9-.8,29.6-1.7,44.3-2.1,3.2-.1,6.6,1.4,9.5,2.9,7.3,3.9,14.9,7.6,21.5,12.5,13.5,10.2,29.1,16.3,44.3,22.8,12.3,5.3,20.7,13.6,26.9,24.9a89.9,89.9,0,0,1,5.1,11.4c4.1,10.5,12.7,17.8,19.6,26.3a2.7,2.7,0,0,0,1.6,1c11.5,2.3,17.8,12,25.9,18.7a111,111,0,0,1,21.1,23.7c9.9,14.8,21.7,27.1,38,34.3a75.3,75.3,0,0,1,35.7,31.6c2.9,5,4.3,10.9,7.4,15.7,5.3,8.3,3.8,16.3.9,24.7-4.2,11.8-7.8,23.9-12.1,35.7a35.8,35.8,0,0,1-14.1,18.1c-5.4,3.6-9.8,8.6-14.2,12.6-1.9-10.5-2.4-22.5-6.3-33.3-2.8-7.8-8.8-15.5-15.4-20.7-15.7-12.3-31.3-24.6-45.1-38.9-9.5-10-17.9-21-26.8-31.5-3-3.4-6.2-6.6-9.4-9.8-6.5-6.5-13-13-19.7-19.4-2-2-4.6-3.6-6.5-5.7-11.4-12.5-22.6-25.3-34.1-37.7-4.8-5.1-10-9.7-15.2-14.5-10.3-9.5-21.2-18.5-31-28.7-14-14.6-32.4-22.3-48.9-33.2-1.5-1-2.6-2.8-4-4.2l1.1-1.3,4,1.4c3.1,1.2,6.1,3.1,9.3,3.6,10.4,1.7,19.3,6.6,28.5,11.2s17.2,10.5,25.4,16.6c20.7,15.2,37.5,34.4,55.3,52.5,6,6.2,11.5,12.9,17.2,19.3L716.6,283c13.7,15.2,27.2,30.7,41.1,45.7,4.2,4.5,9.5,8.2,14.5,12,11.3,8.7,22.8,17.2,34.2,25.8,5.9,4.4,9.1,10.4,10.9,17.4s5.5,9.4,8.9,8.3,4.5-7.5,3.5-12.1c-3.6-16.1-15.8-25.5-27.8-34.7-8.8-6.7-18.6-12.3-27.6-18.9-4.3-3.2-7.8-7.6-11.5-11.7-17.6-19.1-35.2-38.2-52.6-57.5-4.4-4.8-8.2-10-12.3-15s-6.9-8.6-10.7-12.6c-10.1-10.6-20.2-21.1-30.7-31.4-5.9-5.8-12.4-11-18.7-16.5-1.3-1.2-3.1-2-4.3-3.3-13.9-14.7-31.6-23.8-49.2-32.8a74.3,74.3,0,0,0-9.4-3.2L549,134.4Z"/><path class="cls-1" d="M414.9,785.6c18.1,4.3,35.4,8.7,52.8,12.5,8.5,1.9,17.2,2.7,25.8,3.8s14.5,2.1,21.7,1.8c11.8-.5,23.7-1.7,35.4-3.2,16.6-2.2,33-4.8,49.5-7.4,8.6-1.4,17.1-3.2,25.3-4.7,1.9,4.9,3.9,10.9,6.4,16.6a12.3,12.3,0,0,0,4.8,4.8c7.6,4.2,15.4,8.2,23.2,12.1s10.6,14.1,4.9,22.9c-3.2-1.4-6.8-2.4-9.8-4.3-5.1-3.1-10.2-2.6-15.7-1.8-11,1.7-22,2.7-33,4.1-5.1.7-10.5.7-15.3,2.4a72.3,72.3,0,0,0-15.6,8.1,175.5,175.5,0,0,0-17.9,13.2,107.4,107.4,0,0,0-14,13.8c-7.1,8.5-13.6,17.4-20.4,26.3-7.8-9-14.7-18.4-23.1-26.3S480.2,862.6,469,856c-8.7-5.2-19.2-8.3-29.3-10-6.6-1.1-14,1.6-20.9,3.3-11.3,2.6-22.4,5.7-33.5,8.5-5,1.3-11.9-4.7-12.4-9.8-.7-8.5,2-15.6,7.4-22,3.1-3.6,5.9-7.5,9-11.2a8.1,8.1,0,0,1,3-2.1c5.1-2.8,10.8-4.8,15.2-8.4,2.8-2.3,3.9-6.9,5.4-10.7A52,52,0,0,0,414.9,785.6Z"/><path class="cls-1" d="M184.3,390.1c8,4.1,10.9,2.5,13.1-5.1,1.2-4.4,2.9-9.1,5.7-12.5,9.3-10.8,18.6-21.8,29-31.6,20.4-19.2,35.6-41.2,38.2-69.7,1.1-12.5,1.3-25,5.6-36.9a38.6,38.6,0,0,1,1.6-4.8c13.6-28.6,32-53.1,60.5-68.3s55.6-28.8,83.7-42.5A165,165,0,0,1,455,106.9c19.7-4.7,36.6,2.2,51.2,15.6a41.5,41.5,0,0,1,5.7,6.2c5.9,7.9,12.8,14.5,22.7,17.9-1.6,0-3.3.4-4.8-.1a67.2,67.2,0,0,1-11.7-4.9c-3.3-2-6-4.9-8.8-7.4s-6.1-6.9-9.9-8.6c-18.8-8.8-38.3-7.6-57.1-1.2-21.4,7.4-42.5,15.7-63,25.1-23.7,10.9-41.8,29.2-57.5,49.5-17,22.2-28.8,47.2-33.7,74.9-5.7,32.6-22.3,57.6-49.8,75.7a66.3,66.3,0,0,0-26.1,32.1c-1.7,4.3-2.2,9.3-2.4,14s2.7,6.4,6.2,5.6,5.6-3.3,5.9-5.4c2.4-16.8,12.7-27.7,25.6-37.1a215,215,0,0,0,22.4-19.1c17.8-17.4,26.2-39.6,31-63.6,8.4-41.8,30.4-75.3,63.2-101.9a96.7,96.7,0,0,1,18.5-11.8c23.3-11.1,46.9-21.8,72.1-27.8,12.5-3,25.4-3.3,37.8,1.9,3.8,1.5,6,3.8,7,8.5-3.2-.5-6.1-.6-8.9-1.3-9.9-2.4-19.2,1.1-28.7,3.2-19.7,4.2-39.4,8.4-58.9,13.4-5.5,1.3-10.8,4.8-15.3,8.4-16.5,13.5-29.1,30.4-38.4,49.6-4.5,9.2-9.4,18.3-13.3,27.9s-6.1,19.5-10.1,29c-6.7,16-14.6,31.5-21.3,47.5-5.4,12.9-15.6,22.1-23.4,33.2-10.2,14.6-24.9,24.5-38.1,36.1-7.4,6.5-12.4,13.9-12.3,24.2,0,5.7-.9,11.5-1.3,15.9-7-5-14.4-10.7-22.4-15.6-3.5-2.1-8.1-2.9-12.3-3.3s-4.6-1.2-5.3-3.9C187.8,403.1,186.2,396.9,184.3,390.1Z"/><path class="cls-1" d="M670,1072.9c-.7,6.7-1.1,13.5-2.3,20.1-4.1,21.3.3,41.6,6,62,3,10.9,5.4,22,8.4,33,1.1,4.3-.3,6.2-4.5,6.4l-39.4,2.4c-5.6.3-11.5-.2-16.8,1.3s-8.4,4.7-12.1,7.8c-9,7.5-17.2,16.2-26.7,23s-19.5,11.9-31.2,9.5c-5-1-9.5-4.9-14.1-7.8s-8.9-8.3-11.1-15.3.6-11.5,3.3-16.5,5.9-11.3,10.2-15.8,9.9-7.7,15.2-10.8c20.5-12.1,39-26.8,56.7-42.5,4.5-3.9,8.8-8,13.7-11.5,7.7-5.5,12.1-13.5,17.3-20.9,2-2.9,5.2-5,7.8-7.4l18.3-17.3Z"/><path class="cls-1" d="M353.5,1199.7c21.4-38.1,24.6-78.5,20.1-120.2h1.6c8.8,8.9,17.9,17.6,26.6,26.7s18.9,21.3,29.2,31.2,24.5,20.7,40.9,24.7c5.9,1.5,11.6,5.5,16.2,9.7,7.4,6.8,13.8,14.7,20.5,22.2a3,3,0,0,1,1.2,2c.1,10.6.1,21.1,0,31.6a4.9,4.9,0,0,1-1.4,3c-7.8,7.4-17.3,10.6-27.8,10.9-2.6.1-5.2-1.8-7.8-2.8a38.9,38.9,0,0,1-15.7-10.2c-9.5-10.4-20.3-19.1-34.3-22.7-4.6-1.2-9.4-1.5-14.1-2-6.5-.8-13-1.6-19.6-2-8.1-.5-16.3-.7-24.4-1.1C361.4,1200.6,358.1,1200.2,353.5,1199.7Z"/><path class="cls-1" d="M534.5,97c-4.4-3.9-8.4-7.6-12.6-11.2C498.3,65.7,471.1,62.9,442,69.3c-16.9,3.8-31.7,12.9-47.3,19.8-17.7,7.8-35.5,15.3-53.6,21.9a91,91,0,0,0-39.2,27.5c-15.1,18-29.1,36.9-43.9,55.1-6.2,7.6-13.4,14.4-19.7,21.9-3.7,4.4-7.6,9.1-9.6,14.4-4.9,13.3-9,26.9-8.4,41.3.2,4.5-.5,9.1.1,13.5,1.1,9-3.2,15.5-9,21.3-11.2,11.2-22.8,22.2-34.1,33.2a18.3,18.3,0,0,1-.3-2.6c0-3.6.4-7.3-.1-10.9-1.3-10.7,2-18.2,10.5-25.9,13.2-12.1,21.8-27.7,21.1-46.8-.3-10.9,1.4-21.4,9.7-29.5,2.4-2.5,4.9-4.9,7.4-7.3,14.6-14.1,21.3-33.2,32-49.8,12.7-19.8,25.4-39.6,45.5-53.1a156.4,156.4,0,0,1,15.9-9.2c8.7-4.6,17.8-8.5,26-13.9,15.3-10,32.6-12.5,49.9-16,9.2-1.9,18.8-5.6,26.4-11,14.4-10.1,29.7-12.3,46.5-10.6,15,1.5,29,5.8,41.7,13.9,3.1,1.9,5.6,4.7,8.3,7.1s6.5,7.2,10.5,9.1C535,85.8,535.9,90.4,534.5,97Z"/><path class="cls-1" d="M533.3,132c-3.1-3.1-6.7-5.8-9.3-9.3-13.9-18.2-32.2-28.1-54.8-30.1a58.8,58.8,0,0,0-17.7,1.6c-17.7,3.9-34,11.5-50,19.9q-30.6,16.2-61.7,31.7c-42,21.2-69.1,54.3-80.3,100.1a47.8,47.8,0,0,0-1.4,11.9c.5,30.6-13.6,54-35.4,74.1a291.4,291.4,0,0,0-28.6,31.2c-5,6.2-7.8,14-11.4,20.7-1-5.9-2.3-12.9-3.1-20-.2-1.7,1.1-3.7,2.1-5.4,9.1-14.8,20.7-27.2,33.5-38.8a91.4,91.4,0,0,0,15-17.8c2.3-3.6,3.1-8.8,3.1-13.3.1-16.7-.3-33.3,5.6-49.3a50.1,50.1,0,0,1,10.6-16.6c11.3-12.7,22-25.9,32.7-39,9.5-11.6,18.4-23.7,28.1-35.2s23.9-20.8,39.6-26.7c23-8.6,45.3-19.2,67.7-29.4,15.7-7.2,31.5-12.8,49.2-13,24.5-.2,43.2,10.3,58.9,27.9,2.3,2.6,5.2,4.5,7.7,6.8a5.1,5.1,0,0,1,1.5,2.8c.1,3.8,0,7.6,0,11.5a26.4,26.4,0,0,1-.2,2.8Z"/><path class="cls-1" d="M857.4,296.4c-.4,5.6-.8,11.9-1.4,19.5-3.1-4.1-5.5-7-7.5-10.2a67.4,67.4,0,0,0-30-25.7c-17.6-7.8-30.5-20.4-41.1-36.6-6.5-9.9-16.3-17.8-24.8-26.4-4.8-4.8-10.1-9.2-15.3-13.5a81.3,81.3,0,0,0-7.8-5.2,23.6,23.6,0,0,1-4.4-3.2,83.6,83.6,0,0,1-17-25.6c-7.7-17.3-19.9-30-38.6-35.9-16.7-5.2-31.7-14-45.7-24.2-18.1-13.2-38-14.6-59.1-11.2-4.9.8-9.9.8-15.2,1.2V86.9c28.8-8.2,57.2-8.3,84.7,4.5a33.7,33.7,0,0,1,7.4,5.1c13.2,11.2,26.4,22.1,42.3,29.8,9.9,4.8,19.2,12.2,26.8,20.3,14.9,15.7,29.5,31.9,42.2,49.3,11.3,15.6,22.5,31.1,36.7,44,4.9,4.6,10.9,8,16.5,11.9,11.7,8.2,23.7,16.1,35.1,24.7,3.8,2.9,6,7.9,9.1,11.8S854.7,293.3,857.4,296.4Z"/><path class="cls-1" d="M549.3,72.7V65.4c.3-.2.6-.6.8-.6,15.3,1.2,29.8-3.1,44.3-6.4,9.6-2.2,18.9-2,28,1.5s20.7,7.6,30.4,12.6c6,3.1,11.4,8.1,15.9,13.3,6.8,7.9,13.9,15.1,23.2,20.3a64.6,64.6,0,0,1,11.8,9,65.8,65.8,0,0,0,25.4,14.5c11.8,3.8,19.6,12.6,26.1,22.6a15.9,15.9,0,0,0,1.3,2.2c12.7,12.3,18.5,29.6,30.4,42.5,6.2,6.7,12,13.8,18.4,20.3s14.8,11.9,24.3,14.2c6.3,1.4,10.9,5.4,15.1,10.1,2.5,2.7,5.9,4.5,10,7.6.5,6.6,1.2,15.1,1.9,23.3-8.2-6.4-16.5-13.1-25-19.5a101.7,101.7,0,0,0-14.1-9.4c-22.3-11.6-36.8-30.6-50.8-50.5a300.1,300.1,0,0,0-24.1-29.9c-12.4-13.5-25.1-26.7-38.2-39.4a50.9,50.9,0,0,0-16-10c-14.3-5.8-24.9-16.4-36.8-25.4a76.3,76.3,0,0,0-17.3-9.4A252.5,252.5,0,0,0,607.2,70c-15.4-4.3-30.7-1.7-46,1.3C557.5,72,553.7,72.2,549.3,72.7Z"/><path class="cls-1" d="M868.8,452.1c1,6.8,2.4,13.5,2.9,20.3,1.7,22.1-4.5,42.6-13.4,62.6-3,6.8-4.5,14.4-7.5,21.2-6.3,14.2-11.5,29-22.6,40.4-2,1.9-7.1,3.5-8.9,2.3s-8.4-3.9-7.4-9.9c2.1-12.9,4-25.9,5.8-38.8,1.3-9.1,2.9-18.3,3.1-27.4.6-20.7,9.8-37.4,22.5-52.7a28.3,28.3,0,0,0,2-2.8c2.4-4.1,5-7.3,10.6-6.9s9.1-3.1,11.3-8Z"/><path class="cls-1" d="M167.9,456.9c5.3,4.1,11.2,7.6,15.6,12.4a178,178,0,0,1,16.3,21.2c9.2,13.3,12.2,29,16,44.3,2.2,8.4,4.6,16.7,6.9,25,3.1,11.3,4.7,22.7,3.1,34.4-1.1,8.1-5,10.8-12.9,9.4a6.6,6.6,0,0,1-3.5-1.6c-9.2-9.4-15.9-20.8-21.4-32.5s-8.8-24.9-13-37.4c-2.9-8.9-6.2-17.7-8.5-26.7s-3.2-17-4.6-25.5a11.1,11.1,0,0,1,.5-4.4C164.1,469.6,165.9,463.7,167.9,456.9Z"/><path class="cls-1" d="M535.8,59.4V72.6a72.8,72.8,0,0,1-6.6-5.8C517.1,52.7,501,45.5,483.4,42.2a190.1,190.1,0,0,0-36.2-2.7c-6.2,0-12.6,2.5-18.5,5s-12.3,6.6-18.2,10.3C399,61.7,385.8,62.6,373.2,65s-24.5,8.1-35.8,14.7c-8.5,5-17.4,9.1-26.1,13.5a125.9,125.9,0,0,0-42,34c-15.5,19.3-27.8,40.6-39.7,62.3-3.8,6.9-10.3,12.4-15.6,18.5-8.5,9.9-17.1,19.7-17.9,33.7-.2,4-1,8-.7,11.9,1,15.3-7.9,25.9-17.3,36.9-.4-2.2-1.2-4.5-.9-6.7,3.1-21.3,6.3-42.5,13.8-62.8,4.2-11.2,10.7-21.2,20-28.5,12.6-9.9,21.5-22.7,30.8-35.3s15.7-23.6,24.5-34.6,19.3-25.4,33.9-33.4c9.3-5.1,17.5-12,26.1-18.4s20.5-9.8,31-14.4c13.5-5.9,27.7-6.6,41.7-9,4-.7,7.9-2.6,11.6-4.5,21.9-11.3,45.1-16.6,69.5-11.5,7.7,1.5,15.3,6,21.6,10.9C512,50.2,523.8,54.4,535.8,59.4Z"/><path class="cls-1" d="M550.2,52.8c-.3-2.6-.5-3.4-.5-4.2s.3-2.3.4-3.3.7-.6.9-.6c13.8,1.5,26.1-4.1,39-7.2s25.8-3.3,38.8,3.2,25.4,9.7,38.3,14.2a49,49,0,0,1,21.7,14.5c5.8,6.6,12.5,12.4,18.8,18.5s17.1,8.5,26.3,11.4c16.4,5.1,28.8,14.9,38.1,30,11.5,18.5,22.9,37.4,39.7,51.9,5.6,4.8,11.2,9.6,17.6,13.2,10.4,5.9,17.4,13.5,18.7,25.8a27.2,27.2,0,0,0,1.5,5.7c-7.4-3-15.5-5.3-22.5-9.3a80.8,80.8,0,0,1-19.4-15.4c-12-13.3-22.8-27.7-31.3-43.8-6.9-12.9-13.6-26.5-27.3-34.1-6.9-3.9-14.5-6.7-21.4-10.5s-14.7-9-22-13.6a67.7,67.7,0,0,1-8.3-5.7c-6-4.9-12.6-9.3-17.5-15.2-17-20.1-39-31.5-64.4-34.6-11.8-1.5-24.5,3.1-36.8,4.9Z"/><path class="cls-1" d="M170.8,441c6.6-4.8,11.9-9,17.6-12.6s8.5-2.1,13.1,1.5,10.5,7.3,15.5,11.2a10.7,10.7,0,0,1,3,4.9,105.9,105.9,0,0,1,6.8,37v39c-3.6-14.9-8.9-30.7-19.7-44.2S185.5,452.1,170.8,441Z"/><path class="cls-1" d="M639.6,28.1c9.6,2.6,19.5,4.5,28.8,8,14.7,5.6,29.2,12,43.6,18.4,7.2,3.2,14.1,7.1,18.9,14,1.8,2.6,5.2,4.1,8.1,5.9,12.9,8.1,24,18.4,34.5,29.5,6.9,7.3,14.6,13.6,21.6,20.8A102.7,102.7,0,0,1,807,139.8c7.6,11.8,14.8,23.8,22.1,35.8a11.1,11.1,0,0,1,1.3,3.6,106.1,106.1,0,0,1-30-30.8c-8.1-12.4-15.9-25.1-24.9-36.8a68.1,68.1,0,0,0-39-25.3,51,51,0,0,1-23.7-13.1c-6.9-6.5-13.5-13.3-20.9-19.2a83.7,83.7,0,0,0-17.6-10.3c-11.5-5.1-23.3-9.6-35-14.3Z"/><path class="cls-1" d="M536,37.5v9c-8.4-4.5-16.6-7.6-23.4-12.7C498.3,23.1,483,17.1,464.7,16.7c-22.5-.6-42.5,6.2-62.1,15.8-4,2-8.9,2.8-13.5,3.2-22.3,1.6-42.6,9.9-62.4,19.3-7.1,3.3-13.3,8.6-19.9,13l-1-1.3c5.1-3.5,10.1-7.3,15.3-10.6,8.2-5.1,16.5-10.2,25.1-14.8S363.4,33.1,372,29a167.1,167.1,0,0,1,51.4-15.2c14.3-1.7,28.9-1.3,43.2-.4,10.5.6,20.9,2.9,31.2,5.5,5,1.3,9.6,4.7,14.2,7.4C519.6,30.8,525.3,38.9,536,37.5Z"/><path class="cls-1" d="M861.8,441.7c-15.6,2.9-27,10-33.9,23.7-4.4,8.7-9,17.3-13.6,26l-1.5-.5c0-11.5,0-23,.1-34.5.1-1.7,1.2-3.4,2-5,3.1-6,6.4-12,9.5-18,4.6-8.7,12.6-12.8,22.1-11a6.5,6.5,0,0,1,4,2.7C854.4,430.5,858,436.1,861.8,441.7Z"/><path class="cls-1" d="M433.7,309.9c-7.4.9-14.7,2.1-22,2.7-18,1.5-36.1,2.2-53.9,4.5-10.8,1.3-21.3,5-32,7.6l-6.3,1.5c1.6-8.5,2.3-9.4,13.2-11.5,13.8-2.5,27.6-5.4,41.5-6.6,16.2-1.3,32.5-.9,48.8-1.1,3.5,0,7,.5,10.6.8A14.8,14.8,0,0,0,433.7,309.9Z"/><path class="cls-1" d="M705.1,315.4l-101.6-4.8c0-.6-.1-1.3-.1-1.9,3.7-.6,7.4-1.6,11.1-1.7,14.1-.2,28.3-.3,42.4,0s28,1,41.9,2.2c2.5.2,4.8,3.5,7.2,5.4Z"/><path class="cls-1" d="M604.4,20.9c-11.5,3-23.8,6.5-36.1,9.5-4.6,1.1-9.5.9-14.3,1.3a8.9,8.9,0,0,1-.8-1.7c3.9-2.7,7.6-7.3,11.9-7.9C578.5,20.2,592.1,17.6,604.4,20.9Z"/><path class="cls-1" d="M223.2,159.1c7.8-16.3,20.7-28.9,30.8-43.6C246.9,132.3,233.9,144.9,223.2,159.1Z"/><path class="cls-1" d="M765.8,1365.9v-23.1c3.7,7.6,7.2,15.1,11.1,23.1Z"/><path class="cls-1" d="M275.8,1345.5l-1,20.2H264.2c3.7-7,7.1-13.7,10.6-20.4Z"/><path class="cls-1" d="M232.8,546.1c2.2,10.1,8.5,19.3,5.5,30.5-2.4-10-4.9-20.1-7.4-30.2Z"/><path d="M433.2,420.5c4,12.1,4.5,23.5-1.8,34.4-8.7,15.4-21.5,23.9-39.6,24.1-13.4.2-25.9-1.8-38.1-8.1s-16.9-14.7-18.9-26.9-.6-27,4.1-38.8c-2,1.2-7.8,4.8-8.8,5.8-5.9,6-11.8,11.4-14,19.8-.9,3.8-2.8,7.8-4.1,11.8-.3,1.1-.1,2.7-.7,3.3s-4.7,4.9-6.5,4.5-5.9-3.3-6.5-5.7a32.8,32.8,0,0,1-.9-14.6c3.4-19.1,14.2-32.8,31.4-42a99.9,99.9,0,0,1,46-12.1c13.8,0,24.3,3.2,37.4,6.6,1.8.5,8.7,4.4,10.3,5.5a108.8,108.8,0,0,1,17.2,15.2c7.6,8.2,13.8,17.8,20.1,27.1,2.2,3.2-.1,7.6-4.2,9.2s-6-.7-7.9-3.8C444.1,429.8,440.1,424.2,433.2,420.5Zm-60.9,18c-.1,6.3,5.2,12.6,11.1,13.4s15.4-7,16.4-12.8c1.3-7.6-2.9-16.5-8.4-17.9C388.7,432.6,385.7,436.7,372.3,438.5ZM367,423.8c.5,0,2.4.4,3.4-.3s3.9-3.3,4.3-5.3-1.1-5.9-1.9-6c-4.2-.2-8.6.6-12.9,1.1-.4,0-.7,1-.9,1.6C357.7,420.6,360.2,423.8,367,423.8Zm-5.1,34.7c-4.6-4.5-10-9.3-8.7-15.9s-2.9-11.7-3.4-17.8m69.8,12.5c-2.3,5.1-10.1,17.1-20.2,24.1C408.6,460.9,420.7,448,419.6,437.3Z"/><path d="M694.9,399.8c6.6,9.9,7.8,20.2,7.7,31.5,0,6.5-.3,13.5-3.4,19.3-4.6,8.9-11.5,15.1-18.5,19.7-12.7,5.1-23,8.1-36,6.3-8.3-1.2-17.7-3.1-23.8-8.1-8.5-7-14.9-17-15.4-29.1-.2-4.8,0-9.6-1.1-14.9-3.5,5.4-7,10.8-10.6,16.2-1.1,1.6-2.2,3.9-3.7,4.5s-5.7,1.3-7.1.1-3.4-5.3-2.6-7c4-9.2,7.9-18.8,13.8-26.9s12.4-14.9,20.2-20c18.3-11.8,38.7-18.4,60.7-15.8,8.6.9,17,4.9,25.3,8.1a76.6,76.6,0,0,1,30,20.5,86.3,86.3,0,0,1,13.7,21.5c1.7,3.8.4,9.5-.8,13.9s-8.6,7.5-13.4,5.5a4.6,4.6,0,0,1-1.9-3.3c-.8-11.5-6.7-20.5-15.1-27.8C707.2,409,701,404.5,694.9,399.8ZM657,421.5c-1.9,12.8-8.2,12.8-16.8,16.9,6,12.5,18.3,11.7,26.1,3.3,3.8-4.2,4.7-12.4,2.2-16.4m-31.2-16.2c-4.4-.2-7,2.2-7,7.5,0,3.3.8,6.9,5.1,7.1s8.7-2.2,8.9-5.9S641.9,409.3,637.3,409.1Zm-16.9,20.1c-2.6,14.7,6.2,35.8,23.1,33-.2-.2-.4-.6-.7-.7-11.6-5.3-18.8-13.8-19.8-27C622.8,433,621.6,431.6,620.4,429.2Z"/><path d="M415.4,623.8c.2.1,1.8-.3,2.9.3,7,3.5,14.7,1.9,22.1,2.6,21.1,1.9,42.3,3.5,63.4,4.9,6.8.4,13.7-.2,20.4-.6,9.3-.6,18.6-1.2,27.8-2.2,6.8-.8,13.6-2.2,20.4-3.3l25.2-3.6c10.8-1.6,21.5-2.9,32.2-4.7,4.4-.7,7.4.6,9.3,4.4s.9,6.2-1.5,9.4c-4.5,6-8.1,12.6-12.2,18.9-5.9,8.9-14.2,15.3-23.1,20.9-15.8,9.9-33.5,14.9-51.7,16.7-14.7,1.4-29.8,2.9-44.7.4-17.2-2.8-34.2-5.2-50.5-12.3-10.1-4.5-19.3-9.6-27.4-16.7a56.9,56.9,0,0,1-6.9-7c-4.6-5.7-9.4-11.2-13.2-17.3S406.2,623.8,415.4,623.8Zm10,14.1c5.3,7,8.8,15,16.9,18.7s14.2,7.2,21.6,10.1a162.7,162.7,0,0,0,53,10c25.1.6,50.1,0,73.2-12.6,11.3-6.1,21.5-12.6,27.7-24.1.9-1.6,1.7-4.1,1.1-5.4s-3.8-3-6.8-2.3c-12,2.8-24.1,5.2-36.2,7.7-5.3,1-10.6,2.1-15.9,2.9-6.9.9-13.7,1.8-20.6,2.2-9.9.7-19.9,1.4-29.9,1.2s-17.7-1.4-26.6-2.1-19.2-1.3-28.8-2.4S435,639.2,425.4,637.9Z"/><path d="M515.8,584.9c-21.2.5-36-10.7-41.7-30.4-2-7.1-3.7-14.2-1.9-21.4.6-2.5,2.9-5.6,5.2-6.4s5.2,1.5,6.8,3.3c6.4,7.4,12,15.4,18.6,22.6,2.1,2.4,6.3,3.7,9.7,4,13.9,1.4,27.5-.7,39.3-8.6,4.6-3.1,7.8-8.4,11.6-12.6,1.6-1.9,3-4.1,4.9-5.6s4.9-3.3,5.8-2.7a9.9,9.9,0,0,1,3.8,6.3c1,9.3-1.7,17.9-5.9,25.9-5.6,10.6-13.8,18.7-25.4,22.6a50.7,50.7,0,0,1-11,1.9C529,584.4,522.4,584.5,515.8,584.9Z"/><path class="cls-1" d="M372.3,438.5c13.4-1.8,16.4-5.9,19.1-17.3,5.5,1.4,9.7,10.3,8.4,17.9-1,5.8-10.8,13.5-16.4,12.8S372.2,444.8,372.3,438.5Z"/><path class="cls-1" d="M417.1,407.5c1.7,5.6,4.2,15.6,2.7,20.7-3.9-9.8-7.9-12.5-10.3-16-4.4-3.7-13.9-9.1-18.8-10.4-7.4-2-7-3.9-25.8-3.6C380,395.9,405.9,397.1,417.1,407.5Z"/><path class="cls-1" d="M367,423.8c-6.8,0-9.3-3.2-8-8.9.2-.6.5-1.6.9-1.6,4.3-.5,8.7-1.3,12.9-1.1.8.1,2.3,4.2,1.9,6s-2.5,3.9-4.3,5.3S367.5,423.8,367,423.8Z"/><path class="cls-1" d="M349.8,424.8c.5,6.1,4.5,11.8,6.8,12.5-1.2,6.6,2.2,17.7,6.8,22.1C351.2,455.2,345.6,437.5,349.8,424.8Z"/><path class="cls-1" d="M633.8,400.2c3.5-3.9,16.9-4.7,23.2-4.7a78.7,78.7,0,0,1,20.9,2.7c3.4,4.7,3.3,3.9,4.2,5.5,7,12.7,9.2,34.6,5.9,40.4-3.4,7.8-3.8,11.1-12.3,15.2l-7.5,2.5c3.6-3.2,7-5.7,9.8-8.9,9.7-11.1,9.7-23.2,3.4-36-4.7-9.7-12.8-13.1-22.6-14.2-1.5-.2-2.8,1.9-3.7,1.1C649.8,399.2,639.7,397.2,633.8,400.2Z"/><path class="cls-1" d="M640.2,438.4c9.8-1.9,15.4-1.8,16.8-16.9,5.5-.6,6.8.1,11.5,3.8,2.5,4,1.6,12.2-2.2,16.4C658.5,450.1,646.2,450.9,640.2,438.4Z"/><path class="cls-1" d="M637.3,409.1c4.6.2,7.4,3.6,7,8.7s-3.8,6.3-8.9,5.9-5.1-3.8-5.1-7.1C630.3,411.3,632.9,408.9,637.3,409.1Z"/><path class="cls-1" d="M620.4,429.2c1.2,2.4,2.4,3.8,2.6,5.3,1,13.2,8.2,21.7,19.8,27,.3.1.5.5.7.7C626.6,465,617.8,443.9,620.4,429.2Z"/><path class="cls-1" d="M425.4,637.9c9.6,1.3,19.1,2.9,28.7,3.9s19.2,1.6,28.8,2.4,17.8,2,26.6,2.1,20-.5,29.9-1.2c6.9-.4,13.7-1.3,20.6-2.2,5.3-.8,10.6-1.9,15.9-2.9,12.1-2.5,24.2-4.9,36.2-7.7,3-.7,5.5-.3,6.8,2.3s-.2,3.8-1.1,5.4c-6.2,11.5-16.4,18-27.7,24.1-23.1,12.6-48.1,13.2-73.2,12.6a162.7,162.7,0,0,1-53-10c-7.4-2.9-14.4-6.7-21.6-10.1S430.7,644.9,425.4,637.9Z"/></g></g></svg>