<svg xmlns="http://www.w3.org/2000/svg" viewBox="0 0 507.6 751.4"><defs><style>.cls-1{fill:#fff;}</style></defs><g id="레이어_2" data-name="레이어 2"><g id="레이어_1-2" data-name="레이어 1"><path d="M287.8,680.8c1.8-5.2-3.2-23.7-6.7-28.9-4.9,1.3-5.4,1.2-6.6-3.8-2.6-10.4-4.9-20.9-7-31.4a279.5,279.5,0,0,1-5.1-78.5c.2-1.9.1-3.9.1-6.4-1.9,0-3.3.1-4.6,0-12.7-1-25.3-2.3-38-2.7-8.6-.3-17.3.5-26,.9-5.8.3-11.6,1.3-17.4.9-3.8-.3-7.4-2.3-11.5-3.7.4,1.2.9,2.6,1.5,4,8.2,19,14.8,38.7,17.4,59.3,1.4,12.2,1.3,24.6,1.8,37a12.4,12.4,0,0,1-.9,5.3c-1.6,4.3-3.8,4.5-7.4.5a5.7,5.7,0,0,1,1.6-1.1,20.4,20.4,0,0,1,2.5,0,64.7,64.7,0,0,0,.7-7.2c.8-32.8-6.5-64.1-19.6-94.1-1-2.4-1.8-5-2.8-8l-6.8-4.4-1,.6c.7,2.3,1.3,4.7,2.2,6.9,2.5,7,5.1,14,7.8,20.9,4.3,11.1,6.3,22.7,7.4,34.5,1.3,14.1,2.7,28.2,4.3,42.2.3,3,1.4,5.8,2.3,9-1.9,1.3-3.6.8-4.5-1.5a14.8,14.8,0,0,1-1.2-4.7c-1.4-13.1-3.1-26.3-4.1-39.5a153.5,153.5,0,0,0-9.2-43.5c-2.1-5.2-4.1-10.5-5.9-15.8-1.3-3.7-2.2-7.6-3.5-12.5-22-13.3-47.7-21.1-71.2-33.4-3.1,3.1-4.8,3.1-7.4.1a12.6,12.6,0,0,1-3.3-9.5,27.5,27.5,0,0,1,10.1-19.8,56.5,56.5,0,0,1,20.9-11.2c14.9-4.3,29.8-8.2,44.7-12.1,5.4-1.4,11-2.2,16.4-3.6a31.6,31.6,0,0,0,6-2.5c6.9-3.4,11.7-.4,11.1,7.3a139.7,139.7,0,0,1-2.5,18.2,92.5,92.5,0,0,1-4.1,13.6c-1.5,4.4-3.4,8.7-5.5,13.9,2.7,6.6,7.5,13,11.8,19.7s9.8,13.9,14.5,21.1,10,9.5,17.5,9.1,12.9-1.3,19.4-2.1l6.8-1c8.1-9.8,18.3-18,28.4-26.3a13.1,13.1,0,0,0,3.4-5.2,185.6,185.6,0,0,1,9.5-21.9c4.5-8.7,9.6-17,14.6-25.4,1.9-3.3,4.1-6.3,6.5-10-7.1,1.4-13.4,2.8-19.8,3.9a129.3,129.3,0,0,1-59.3-2.4c-12.2-3.4-24.7-5.8-36.2-11.5a127.1,127.1,0,0,1-16.1-9,197.5,197.5,0,0,1-41.1-36.3c-12-14.1-19.2-30.8-23-48.8a285,285,0,0,1-5.9-51.3c0-2.2.3-4.4.5-6.7,3.3.2,2.9,2,2.9,3.6.4,7,.5,14.1,1.2,21.2,1.7,15.3,3.7,30.6,8.5,45.3a113.8,113.8,0,0,0,25.6,42.6,228.6,228.6,0,0,0,32.6,28.8,72.7,72.7,0,0,0,23.5,11.2c13.3,3.7,26.7,7.1,40.2,9.9a113.5,113.5,0,0,0,47.5-.5c10.5-2.3,21-4.7,31-8.2,17.7-6.1,33.7-15.3,47-28.7,8-8.1,13.6-18,18.8-27.9,6.4-12.2,12.6-24.6,18.5-37a181.5,181.5,0,0,0,6.9-17.2c.8-2.5,1.7-4.4,4.3-3.5,2.5-3.7,4.5-7.1,7-10.2a10.7,10.7,0,0,1,4.8-3.2c.7-.3,1.9.8,4.2,1.7a15.9,15.9,0,0,0-10.2,9.1,22.5,22.5,0,0,0-2,6.7c-.7,5.8.5,6.9,6.5,6.5,2.6-1,1.3-5.7,6-5.2-2.4,9.6-8,17.5-11.2,26.7l8.6,2.5c5-10.8,8.5-21.9,7.9-34-.1-2.3-1.7-4.6-2.7-6.8a19.4,19.4,0,0,0-2.1-2.9c2.1-1.8,3.3-.6,4.5.5,3.4,3.1,4.3,7.2,4,11.5-.5,5.9-1.4,11.8-2.1,18a29.2,29.2,0,0,0,1.7-2.7,113.4,113.4,0,0,0,8.6-35.3c.5-6.6.1-13.4.1-20.1a10.9,10.9,0,0,0-.4-2.6c-1.1-5.4-2.4-10.6-10.6-10-4,3.9-8.8,8.6-11.3,15s-5.9,16-8.8,24c-.7,1.9-.6,5-3.6,4.5s-1.8-3.3-1.7-5.4c.5-13.5,4.3-26.5,6.5-39.7.2-.7.6-1.3.9-2.2,4.5,1.1.9,4.6,2.1,6.5,2.2-.8,1.6-5.2,6-4.1-1.9,4.6-3.7,9-5.4,13.4l.4.2c2.7-3.5,5.3-7.2,8.2-10.6a50.8,50.8,0,0,1,10.7-9.8l1.2,4.4c5.9,1.4,8,6.5,8.8,12a118.5,118.5,0,0,1,1,20.6,122.3,122.3,0,0,1-9.4,41.2c-2.5,5.7-5.1,11.2-10.1,15.3-1.3,1-1.8,3.1-2.8,4.6s-3.6,6.3-6.1,8.6c-7,6.5-20.2,3.2-23.8-5.7l-1.4-3.4c-4.9,9.3-9.4,18.1-14.3,26.8s-10.3,17-18.5,24.8c5.3.2,9.4.3,13.4.7a190.9,190.9,0,0,1,20,2.1c9.1,1.6,16.2,6.9,22.8,13.1a11.4,11.4,0,0,1,2.9,3.9c1.3,3.1.8,7,3.8,9.6.5.5.1,2.1.1,3.6,16.4,4.5,27.8,13.3,26,31.6,8.5,6.4,16.4,12.4,24.4,18.2s12,13,16.6,20.6c1.5,2.5.9,4.1-1.1,5.1s-3.3,0-3.3-2.4.1-2.5-.5-3.4c-3.9-6.6-8.1-12.9-14.5-17.5-3.4-2.4-6.5-5.2-9.8-7.8-6.6-5.2-13.4-9.9-22.4-9.3.7-3.3.7-3.3,6.6-3.6v-5.8c-5.3,1.5-10.3,2.2-14.9,4.2q-27.5,11.4-54.4,23.7c-8.1,3.6-15.9,7.8-23.8,12-20.8,10.9-42.8,18.8-65,26.4-4.6,1.6-4.8,1.5-4.8,6.4,0,10,.2,19.9.3,29.9a307.4,307.4,0,0,0,7.5,64.8c.7,3.1,1.9,6.2,2.5,9.4s1.4,6.4.4,9.1-.5,7,.7,10.4,2.8,8.7,4,13a40.2,40.2,0,0,1,1.6,7.5c.4,5-2.4,7.3-8,6.4-2.3-9.3-4.8-18.7-7.1-28.2-.2-.7.3-1.6.8-3.8,1.3,2.1,2.3,3.1,2.6,4.3,1.9,7,3.7,14,5.5,21Zm-4.7-168.6c-1.1-3.3.9-3.9,2.4-4.7,5.9-3.2,11.6-6.7,17.8-9.5,19.3-8.6,38.8-17,58.3-25.4a158.9,158.9,0,0,0,43.7-28.2c5.2-4.8,6.4-10,5.3-16.5a13,13,0,0,0-3.9-7.6c-8.5-7.6-18.3-12.3-29.8-12.9-6-.3-12-.6-17.9-1.1a21,21,0,0,0-15.1,4.4A116.2,116.2,0,0,1,309,429.3a18.8,18.8,0,0,0-9.4,6.1,148,148,0,0,0-9.8,13.7c-3.2,5.2-5.9,10.7-8.9,16-1.6,2.9-3.5,5.5-5.1,8.4-2.6,4.9-5.2,9.9-6.4,16.1a28.9,28.9,0,0,0,3.3-1.8c20.3-15.2,43.3-25.7,66-36.8,10.6-5.2,21.5-9.6,31.9-15.2,7.9-4.2,15.1-9.8,23.1-15.1.2.8.8,2,.4,2.7a14,14,0,0,1-3.3,3.6A122.3,122.3,0,0,1,365,443c-22.4,10.3-44.8,20.6-66.4,32.6s-40.6,27.3-58.4,44.3c-1,1-1.9,2.3-2.8,3.4l.6.8,24.9-11.8c0-1.1-.1-2.4,0-3.7a7.7,7.7,0,0,1,6.6-7.4c3.9-.6,7.5,1.2,8.6,5a21,21,0,0,1,.6,7.9c-.3,3.6-1.1,7.1-1.8,11.1l3.8-.9c20.1-7.3,40.2-14.6,59.4-24.2s35.7-18.6,54.6-25.8c14.5-5.5,27.8-14.1,43.6-16.1-1.3-9.5-12.6-18.3-23.8-18.7-11,13.5-24.9,23.3-40.2,31.1-10.5,5.3-21.5,9.7-32.3,14.2-18.8,7.8-37.5,15.8-55.2,25.8C285.7,511.2,284.5,511.6,283.1,512.2ZM179.2,526.6a52.7,52.7,0,0,0-4.5-4.8c-10.1-8-19.8-16.6-30.5-23.7-12.8-8.4-24.3-18.4-36.2-27.9a15,15,0,0,1-3.7-4.6c-1.2-2.1-.5-4.2,1.3-5.9s3-1.7,4.9,0c-1.3,1.5-2.4,2.7-3.5,4.1,1,1.2,1.6,2.4,2.6,3.1,8.6,7,17,14.3,26,20.6,11.4,8.1,23.3,15.5,33.7,24.9,3.5,3.2,7.2,6.2,10.7,9.3s5.9,3.6,9.7,2.3l-18.3-26.3c-7.9-11.4-14.7-23.3-17.8-37-1.1-5.2-2-10.4-.7-15.6s5.9-9.6,10.6-9.6c1,2.2-1,2.8-2.2,3.6s-4.5,3.8-5,6.9c-1.3,8.5.9,16.3,4.8,25.1,2.3-6.3,4.1-11.5,6-16.5,2.9-7.8,3.3-16,4.1-24.1a6.5,6.5,0,0,0-1.7-4.7c-.7-.7-3.3-.1-4.3.8s-5.2,2.3-8.1,2.6a66.3,66.3,0,0,0-7.5,1.5l-41,10.7c-9.5,2.6-18.7,5.8-27,11.3-6.5,4.4-10.7,10.2-12.1,18a9.8,9.8,0,0,0,3.5,9.7c2.8-2.7,2.8-2.6,5.8-1.2l33.4,14.6c16.3,7,32.6,14.2,47.3,24.4,3.7,2.6,7.6,4.9,11.5,7.3C173.3,527,175.8,527.9,179.2,526.6Zm82.1,1.4c1.9-4.4-1-8.9,3.5-11.5-.5,5.3,1.7,10,1.5,15.5-1,20.6-2.5,41.3,1.3,61.8,3.1,17,6.4,33.8,9.7,50.7a33.1,33.1,0,0,0,2.1,5.8c4.5-1.7,5-4.9,4.2-8.6-.4-2-.8-3.9-1.3-5.8-1.3-4.9-3.1-9.7-3.9-14.7-3.2-20.1-6.5-40.1-5.5-60.5a96.1,96.1,0,0,0-.1-12c-.8-12-.4-23.9,2.4-35.7a9.4,9.4,0,0,0-.1-4.7c-.7-2.8-2.9-4.2-5.2-3.6s-3.7,2-3.7,4.6,0,3.6,0,4.7l-23.9,13.3A68.8,68.8,0,0,0,261.3,528ZM402.4,317c-3.5,8-6.4,15.3-10,22.2a18.4,18.4,0,0,0-1.3,12.6c1.5,7.6,11,10.7,17.2,5.9-6.2-3.5-6.7-4.4-4.9-11.2a87.3,87.3,0,0,1,4.2-11.1c1.2-2.8,2.6-5.5,4.3-9.1C405.5,326.5,403.1,323,402.4,317Z"/><path d="M291,109a30.5,30.5,0,0,1-3.2-.2c-13.2-3.3-26.3-3-39,2.1a281.3,281.3,0,0,0-26.2,12c-12.1,6.4-21.2,16.3-29.2,27.3-3.6,4.9-6.8,10.1-10.4,15.7,6.1.6,11.5.9,16.7,1.8,13.7,2.5,26.9,6.5,38.9,13.7a20.8,20.8,0,0,1,4.8,3.4c.9.8.9,2.4,1.3,3.7a10.5,10.5,0,0,1-3.4.8c-5.4-.7-10.8-1.9-16.2-2.5a300.7,300.7,0,0,0-51.1-1.1c-4.8.3-8.1,2.1-11.7,5.2a96.8,96.8,0,0,1-44.7,21.3l-7.1,1.6c-5.5,11.8-7,24.2-6.1,37l.3,3.3c.4,5.3-1.5,7.4-6.7,7.3a19.3,19.3,0,0,1-4.8-.8c-.9-.3-2.1-1.4-2.1-2.1-.2-4.7-.1-9.4-.1-15.4,1.3,1.7,2.4,2.5,2.5,3.4a71.7,71.7,0,0,1,.7,8.1c.1,1.4.1,1.4,2.6,3.5-.3-3.9-.7-7.4-.8-10.9s.1-6.9.3-10.3-.1-7.1,2-10.4c2.8,1,2,2.9,2,4.6-.3,5.2-.6,10.5-.8,15.8a13.3,13.3,0,0,0,.7,4.8c-.2-12.5,1-24.7,6.1-36.6L90,213.4a35.6,35.6,0,0,0,1.3,3.9,57.2,57.2,0,0,1,3.8,20.8c.1,1.8.1,3.7-3.2,3.9a29.6,29.6,0,0,1-.6-5.1c-.3-6-.9-11.9-3.2-17.6-3.1-7.5-7.6-13.6-16.2-15.4a5.7,5.7,0,0,1-2.2-1.1c-.1-2.4,1.4-2.6,2.9-2.4a19.9,19.9,0,0,1,10.6,5.1,38.3,38.3,0,0,1,3.5,3.5l6.7.9a39.5,39.5,0,0,0,15.7.3c15.4-2.9,30.2-7.4,43.4-16.4,9.8-6.7,17.2-15.5,24.1-24.9,2.9-4,5.3-8.3,7.9-12.4,7.4-11.6,15.8-22.3,26.9-30.5a118.1,118.1,0,0,1,50.9-22.2c8.4-1.5,17-.6,25.4,1.5C290,105.9,290,106,291,109ZM171,182.4a315.7,315.7,0,0,1,63.1,1.7c-9.3-8-38.2-15.4-53.5-14Z"/><path d="M356.1,286.9c3.7-1.3,6.8-2,9.7-3.3s5.8-2.5,8-4.6,3.6-4.9,5.5-7.6c2,4.2,1.1,7.6-2.8,10.5a47.9,47.9,0,0,1-16.7,7.7c-13.2,3.4-26.3,2.5-39.3-.5a102.2,102.2,0,0,1-16.9-5.8c-5.1-5.1-6.7-12.8-3.1-21a8.4,8.4,0,0,1,2.5-1.1c0,3.9-.9,5.6-1.6,8.7a10.9,10.9,0,0,0,1.9,8.9c1.7,2.4,5.3,2.9,9.2,4.9-3.9-9.2-4.7-17.3-.9-25.3a26.9,26.9,0,0,1,11.9-13,26.2,26.2,0,0,1,30.8,3.7C364,258.4,364.7,270.1,356.1,286.9ZM331,246.7c.3.7.4,1.2.5,1.3a49.7,49.7,0,0,0,5.2.7,16.4,16.4,0,0,1,15.5,13.7c1.2,7.9-3.6,15.9-11.5,18.9a16.6,16.6,0,0,1-20.1-6.4,16.3,16.3,0,0,1-2.2-11c.4-2.3.6-4.5-1.7-6.2-5.3,7.2-5.1,19.3.7,25.7a9,9,0,0,0,4.2,2.2,82.2,82.2,0,0,0,23.7,2.2,8.7,8.7,0,0,0,5.4-1.9c6.3-5.8,9.1-13.1,7.6-21.6s-6.7-14.7-15.2-17.5A18.6,18.6,0,0,0,331,246.7Zm-4.8,1.6c-3.2,1.6-6.2,2.9-5.5,7.1a5.5,5.5,0,0,0,4.5,4.8c2.3.4,3.9-.8,4.8-2.8C331.7,253.4,329.3,251,326.2,248.3Z"/><path d="M149.2,242.1c5-.4,5.9,4.6,8.7,6.1s5.5,3.8,8.9,6.1c0-3.5-.2-6,0-8.4.8-12.1,6.7-21,17.7-26,15-6.8,31.1,2.9,32.7,19.3a31.1,31.1,0,0,1-6.6,22.4l-3.2,3.8c3.3,1,6.3.4,9.1-.1s7-.5,8.8-2,4.4-3.4,5.7-3.4c0,3.2-3.7,6.8-3.7,6.8-6.2,3.2-30.4,4.4-45.4-.9a88.2,88.2,0,0,1-28.8-17.3A32.5,32.5,0,0,1,149.2,242.1ZM171.4,257a65.2,65.2,0,0,0,25.7,8.6,9,9,0,0,0,5.5-1.5c7.8-5.9,11.6-13.9,11-23.7-1-14.9-15.4-23.3-28.7-16.1,3.4.8,6.1,2,8.8,2.1,11.4.3,18.8,9.2,16.9,20.4-1.5,8.6-9.3,15-17.7,14.6s-14.6-7.2-15.4-16.2c-.4-3.8-1.4-7.5-2.4-12.4C169.5,241,169.7,248.7,171.4,257Zm18.1-23.8a5,5,0,0,0-4.7-5c-2.9,0-5.6,2.9-5.6,6.1s2.1,5.4,4.8,5.3S189.6,236.3,189.5,233.2Z"/><path d="M435.5,188c-2.2-1-1.5-3-1.7-4.7-3.4-27.6-10.1-54.2-24.4-78.4-1.8-3-3.7-5.9-5.5-8.8C385.6,66.6,357.7,51.4,324.8,44c-6.5-1.4-13.2-1.7-20.6-2.6V56.6c19.1.5,36.2,8.8,52.2,19.8.4.2.2,1.2.4,1.9-2.3,1.4-3.7-.2-5.2-1-5.6-3-11.1-6.2-16.7-9.1a70.7,70.7,0,0,0-26.5-7.5c-1.8-.1-3.5,0-5.2,0,.9,6.9,1.9,13.2,2.6,19.6a7.3,7.3,0,0,0,3,5.4c7.1,5.6,14.3,11.2,19.4,18.9a57.1,57.1,0,0,1,3.5,6.4c-2.7,1.8-3.5.2-4.3-1.2-4.6-8-11.5-13.9-18.6-19.7-.6-.5-1.4-.8-2.5-1.5-1.1,4.5,0,9.1-2.6,12.9-2.7-.1-2.4-1.9-2.3-3.5.3-6.1.8-12.3.9-18.4a44.6,44.6,0,0,0-.9-8.1c-.6-3.1-1.8-6.3-.6-9.5-2.7-2.9-.5-6.2-.7-9.3s-.5-5.7-.7-8.8c-6.7-2.8-13.9-3.9-21-4.8-5.2-.7-10.5-.8-15.8-1.2-1.6-.1-3.7.4-4.3-2.1,3.6-2,8.2-2.1,20-.3,6.7,1.1,13.2,2.4,20,3.7,2.6-3.5-1.4-7.5.4-11.5,4.5,2.2,3,6.6,4.1,10.2l17.7,1.9c8.2.8,15.9,3.2,23.7,5.8,29.2,9.7,51.2,28.1,66.8,54.5,12.4,20.9,20.1,43.4,24.2,67.2.9,5.4,1.5,10.8,2.1,16.2C437.5,185.1,438,187.2,435.5,188Z"/><path d="M62.5,194.6c-2.8,2-3.7.2-4.1-1.6a121.4,121.4,0,0,1-2.7-14.4c-1.5-17.8,2.6-34.7,9.5-50.9C75.5,103.6,90.7,83,109.1,64.6,135.5,38.4,165.8,18.3,201.5,7c17.9-5.7,36.1-8.6,54.8-6.1,12.8,1.7,24.7,5.9,34.8,14.3,2.6,2.1,2.6,2.2,1.5,5.3a23.4,23.4,0,0,1-2.7-1.5c-12.8-10.9-28-14.8-44.4-15.1C223.4,3.4,202.7,9,182.8,18c-44,20-79.1,50.3-104.3,91.8-9.3,15.3-16,31.7-18.5,49.6-1.6,11.1-1.4,22,2,32.8A12.5,12.5,0,0,1,62.5,194.6Z"/><path d="M432.6,250a12.1,12.1,0,0,1,1.1-3.7c15.5-28.7,18.3-59.3,13.2-90.9-5.7-35.5-20.3-66.9-44.4-93.6C386.4,44,367.4,30.3,344.1,23.5c-12.9-3.8-26-5.1-39.3-2.7-1.7.3-3.6,1.4-4.7-1s2.5-2.3,4.2-2.6a90.8,90.8,0,0,1,48.1,5.1c23.9,9,43.1,24.5,59,44.2a183.8,183.8,0,0,1,40.4,98.2c2.7,25.6.1,50.4-10.3,74.1-1.4,3.3-3.2,6.5-4.9,9.7C435.9,249.8,435.1,251.1,432.6,250Z"/><path d="M419.1,254.5c-1.8,2.9-3.9,2.2-5.8,1.9a29.9,29.9,0,0,1-19.2-11.5c-6.7-8.9-12.9-18.4-18.9-27.8-1.8-2.8-3.6-4.6-6.7-5.7a153.1,153.1,0,0,0-46.5-7.7,11.4,11.4,0,0,1-3.2,0c-1.3-.4-3.1-1.2-3.2-2s.8-2.8,1.8-3.5a51.1,51.1,0,0,1,24.6-7.6c6.7-.4,13.4-.1,20-.1.1-.7.4-1.1.2-1.3-7.3-18.9-15.5-37.2-29.1-52.5-4.8-5.4-10.1-10.5-15.3-15.5-3.4-3.2-7.3-5.9-12.1-7-1-.2-1.8-1.3-2.2-2.9a13,13,0,0,1,3.4-.2c4.5.9,8.3,3.4,11.9,6.3a134.6,134.6,0,0,1,36.8,47.2c4.6,9.9,8.7,19.9,12.8,30a191,191,0,0,0,26,45.1c5.5,7.1,12.2,12.4,21.6,13.4C416.9,253.1,417.8,253.9,419.1,254.5Zm-49-46.5c-1.8-4.2-3.3-7.1-4.3-10.1a4.8,4.8,0,0,0-4.7-3.7c-11.4-.9-22.8-.9-33.8,3-1.6.6-3,1.4-4.6,2.1C338.6,200.7,354,202.7,370.1,208Z"/><path d="M59.7,507.3c-16.7,11.3-32.3,22.3-40,40.4.7,1.3.7,1.7,1,1.9,9.8,7.9,19.3,16,29.4,23.4,7.9,5.7,16.5,10.5,24.9,15.5,5.8,3.4,11.3,7.2,15.4,12.7a25.2,25.2,0,0,1,2.1,4c-2.3,1.4-3.4.5-4.3-.8-4.7-6.7-11.5-10.9-18.7-14.5a147.2,147.2,0,0,1-28.7-19.6c-6.4-5.6-13.1-10.9-19.5-16.2-4.3,1.7-5.5,5.1-6.5,8.3-2.1,7.1-3.9,14.3-5.5,21.6a243.9,243.9,0,0,0-5.6,67.6c.3,5.2,0,10.4,0,16.9-1.6-1.4-2.8-1.9-3.1-2.7a9.3,9.3,0,0,1-.6-3.7c.1-14.9-.3-29.8.6-44.6a218.7,218.7,0,0,1,10.6-54.9c1.9-6.1,5.3-11.5,6.4-18.1.7-4.3,4-8.5,6.9-12.1C32.3,522.7,42,515,52.2,508a14.3,14.3,0,0,1,4.9-2.1C57.8,505.7,58.7,506.7,59.7,507.3Z"/><path d="M74.4,287.4c.6,2.6,1.3,5.2,1.8,7.8.8,5,2,10,.4,15-.8,2.7-2,3.2-5.1,2.5.9-2.2,1.8-4.5,3-7.3l-2.7.3c-6.8,1.2-9.6-1.1-10.8-7.9s-3.4-14.8-4.5-22.3a78,78,0,0,1-1.1-17.4c.6-8.6,7-14.1,15.6-14.4,2.5-.1,4.9.1,6.8,3.3H73c-6.6-.2-14.4,3.4-14.2,13.5a129,129,0,0,0,4.8,31.3l6.9-1.4c-1-5.3-2.1-10.6-2.8-15.9s-1.9-10.2.5-15.9c3.7,3.9.8,8.4,3.1,12,3.5-1.4,5.6-3.7,5.5-7.6s-.5-8.6-.8-13.3l3.2.2c0-.1.3-.4.2-.7A62,62,0,0,0,72,228.9c-3.5-5.7-7.9-10.4-14.8-12-1.6-.4-2.8-.9-2-3.6a41.7,41.7,0,0,1,6,1c5.5,1.9,9.4,6,12.7,10.7,6.1,8.9,8.8,19,10.2,29.6.6,5,.7,10.1.9,15.2a40.9,40.9,0,0,1-.9,5.8c-4.2-.9-2.7-3.7-3-5.8s-.3-4.5-.6-6.9c0,5.4-2.6,9.2-7.3,11.7l.2-.2c-1.6-.3-2.5.5-2.1,2.1,1,3.7,2.1,7.4,3.2,11.1Z"/><path d="M263.1,54.3c-.8,3.5-3.2,3.2-4.9,3.7a153.2,153.2,0,0,0-53.3,28.7c-14.6,12.1-26.7,26.5-37.9,41.8-6.1,8.4-12,16.9-18.4,25a172.7,172.7,0,0,1-13.7,14.7c-13.4,13.5-30.1,21.2-47.9,26.7-1.9.6-4.1,2-6-1.2a33.6,33.6,0,0,1,3.8-1.9l8.3-2.8c25-8.1,43.5-24.8,58.8-45.5,8.4-11.6,16.7-23.3,25.7-34.4,18.6-23,41.3-40.6,69.3-50.9q5.7-2.1,11.4-3.6C259.7,54.2,261.2,54.4,263.1,54.3Z"/><path d="M347.5,650.6c-2.7-1-1.8-3.3-1.8-5.1a117.4,117.4,0,0,1,5-34.9c16-51.8,51.2-83.8,102.8-98.4a127.1,127.1,0,0,1,14.9-3.1,59.3,59.3,0,0,1,7.3,0c.4,2.9-1.4,2.8-3,3.1-8.1,1.7-16.5,2.8-24.4,5.4-49.3,16.1-81.9,48.6-95.4,99.2a124,124,0,0,0-3.6,29.1C349.2,648.4,349.1,648.4,347.5,650.6Z"/><path d="M274.9,26.8a11.5,11.5,0,0,1-3.1.2c-16.3-4.1-32.2-1.8-47.8,3a153.6,153.6,0,0,0-73.8,48.1c-9.5,11.2-18.1,23.1-27.2,34.7q-3.9,5-8.1,9.6c-1.2,1.4-1.4,1.3-4.6.8a39.7,39.7,0,0,1,2.4-3.7c7.8-10,15.9-19.8,23.4-30,18.1-24.7,40.7-43.9,68.6-56.5,17-7.6,34.7-12,53.3-11.4a94.5,94.5,0,0,1,13,1.8C272.6,23.6,274.6,24,274.9,26.8Z"/><path d="M422.2,220.7,416.6,209c-9-18.6-17.8-37.3-27-55.8-3.9-7.6-8.6-14.7-13.1-21.9-10.8-17.1-24.9-31.2-40.8-43.5l-11.6-9c-4.8-3.7-9.7-7-15.8-8.2a3.4,3.4,0,0,1-1.8-1.1c-.2-.1-.1-.6-.2-1.2,1.6-1.6,3.7-1,5.4-.3,3.8,1.7,7.8,3.2,11.1,5.6A295.4,295.4,0,0,1,356.6,101c11.2,10.8,20.1,23.3,28.3,36.5,12.7,20.6,22.7,42.5,32.6,64.5,2.5,5.5,4.1,11.3,6,16.9.2.4-.1,1-.2,1.5Z"/><path d="M485.8,513c.9-1.4,2.2-1,3.2.3a18,18,0,0,1,2.8,5.3c1.4,4.3,2.8,8.6,3.8,13,2.9,13.3,6.2,26.5,8.4,39.9,3.7,22,3.8,44.4,3.4,66.7-.3,13-.9,26.1-1.3,39.1a15.8,15.8,0,0,1-.4,3.8c-.3.8-1.4,1.4-2.1,2s-1.5-1.6-1.4-2.5c.1-5.4.6-10.8.8-16.2q1.5-33,.2-65.8c-1.1-24.5-6.9-48-12.4-71.7C489.8,522.4,487.7,518.2,485.8,513Z"/><path d="M87.2,303.3c.7,1.5,1.3,2.3,1.2,2.7-2,6-5.2,11.2-11.1,14.1a11.8,11.8,0,0,1-14.1-2.3,51.9,51.9,0,0,1-9.1-11.3c-6-10.3-9-21.8-10.8-33.5-2.7-16.8-3.2-33.6.7-50.3,1.4-6,3.5-11.8,7.3-16.8a15.5,15.5,0,0,1,8.8-6c1.8-.4,3.6-.4,4.8,2-1,.5-1.8,1.4-2.6,1.5-4.5.4-7.2,3.2-9.4,6.7-3.7,5.9-5.5,12.6-6.5,19.4-3.4,23.1-1.2,45.6,7.3,67.4a77.8,77.8,0,0,0,7.2,13.3,18.2,18.2,0,0,0,5.4,5.3c4.3,3.2,8.5,2.9,12.2-1s4.3-5.7,6.4-8.5C85.5,305.3,86.1,304.7,87.2,303.3Z"/><path d="M193.2,72.3a29.1,29.1,0,0,1-3.1,2.4A87.6,87.6,0,0,0,165.8,97c-9.3,12.5-18.8,24.9-28.7,37-13.2,16.2-30,27.2-49.9,33.4-3.3,1-6.4,2.4-10.2,3.8-1.7-.8-1.8-2.5.1-3.8a23.5,23.5,0,0,1,6.9-2.9,98.7,98.7,0,0,0,24.9-10.9,95,95,0,0,0,25.7-22.4c10-12.7,19.9-25.5,29.8-38.2a79.4,79.4,0,0,1,23.5-20.8C189.2,71.4,190.8,69.6,193.2,72.3Z"/><path d="M174,35.2c1.4,3.8-.6,4.3-2.1,5.3-6.6,4.4-13.5,8.5-19.9,13.3C125.4,73.9,102.5,97.5,86.4,127L79,140.4c-.7,1.2-1.5,2.3-2.7,4-.7-1.4-1.4-2.2-1.3-2.8a9.1,9.1,0,0,1,1.2-3.1c10.9-21.8,24.1-42,41.6-59.5,14.1-14.2,29.1-27.3,46.1-38C167,39,170.4,37.3,174,35.2Z"/><path d="M345.7,129.9c1.8.1,3-.2,3.5.3,2.7,2.4,5.9,4.5,7.8,7.5,6.6,10.1,13.4,20.3,19.1,31,7.2,13.6,13.4,27.7,19.9,41.7,4.2,8.9,9.1,17.3,16.3,24.1,2.7,2.5,5.6,4.7,8.3,7.1l3.7,3.2c-2.3.2-3.5.7-4.3.3a24.4,24.4,0,0,1-5.5-3.5c-9.1-7.5-15.8-16.9-20.8-27.5-6.5-13.8-12.8-27.6-19.6-41.3-4-7.9-8.5-15.6-13-23.2-3.7-6-7.4-12.1-13.3-16.4C347.1,132.6,346.7,131.6,345.7,129.9Z"/><path d="M187.7,355.7a34.5,34.5,0,0,1,6.3-11.5c3.1,3-.3,5-.2,7.7,7.8,9.1,18,14.9,29.7,18.5,13.9,4.4,28.1,4.8,42.5,4a100.5,100.5,0,0,0,27.2-5c2.9-1,5.5-2.9,9-4.7.8,1,2,2.8,3.4,4.8-7,2.1-13.2,4.5-19.7,5.7-24.4,4.7-48.6,5.5-72.1-4.6a61.1,61.1,0,0,1-18.1-11.9C193.6,356.7,191.7,354.7,187.7,355.7Z"/><path d="M180.7,138.8a79.4,79.4,0,0,1,4.5-7,255.8,255.8,0,0,1,40-39.9c10.7-8.3,22.5-14.7,35.9-17.4,7.1-1.4,14.1-.2,21.1.8.6,0,1,.8,2,1.7-1.4.5-2.2,1.2-3.1,1.2a25.5,25.5,0,0,1-5.5-.4c-8.3-1.4-16.2.1-23.9,3.2A103.1,103.1,0,0,0,221,100.2c-12.7,11.2-24.6,23.1-34.9,36.6C184.6,138.7,184.5,138.7,180.7,138.8Z"/><path d="M231.2,255.3a13.6,13.6,0,0,1-1-3.7c-.5-16.1-12.2-31.7-31.9-35.8s-36.4,4.2-45.4,20.3c-.7,1.3-1.7,2.5-2.7,4-2.6-2.3-1.4-4.1-.5-5.7A41.6,41.6,0,0,1,168,216.3c20.4-10.7,46.6-4.4,59.1,14.3a38.3,38.3,0,0,1,6.6,20.4C233.7,252.5,234.2,254.4,231.2,255.3Z"/><path d="M102.9,617.2c2.9-1.6,3.8.3,4.7,1.8a145.1,145.1,0,0,1,7.4,12.7,123.9,123.9,0,0,1,11.8,44.4,284.4,284.4,0,0,1-.1,52.2,53.3,53.3,0,0,1-1.1,6c-3.2.3-3.1-1.6-3-3.2.4-5.1,1-10.1,1.3-15.2,1.2-20.7.5-41.3-4.5-61.6a112,112,0,0,0-14.2-32.9A41.6,41.6,0,0,1,102.9,617.2Z"/><path d="M378.6,269.9c-.6-.3-1.4-.5-1.7-1a16,16,0,0,1-1.3-3c-10.2-29.5-47.1-35.8-68-11.1l-5.3,6.5c-.5-2.3-.9-3.3-.8-4.3s.6-1.3,1.1-1.9c11.2-16.5,33.5-23.7,52-16.4,12.2,4.8,20.2,13.8,24.6,26C379.8,266.4,380.5,268.2,378.6,269.9Z"/><path d="M236.2,319.9l1.6,3.3c.7,1.5,1,3.4,2.1,4.3,6.2,4.8,12.7,9,21,9.2a31,31,0,0,0,13.7-3.2c5.2-2.3,6.7-7,6.9-12s-.5-9.7-.8-14.6c-.1-2.7-.3-5.3-.6-9.1,1.8,1.2,3.1,1.7,3.2,2.2.8,6.7,2.3,13.4,2,20-.6,12.3-4.2,17.1-18.7,19.9-11.5,2.1-20.8-3.1-29.3-10.1C234.4,327.4,233.7,323.9,236.2,319.9Z"/><path d="M344.4,661c3.3,1.8,2.6,3.8,2.4,5.5-1,11.2-2,22.4-3.5,33.5-2,15.9-4.6,31.6-4.1,47.7a37,37,0,0,1-.6,3.7c-1.3-1.2-2.5-1.8-2.7-2.6a40.5,40.5,0,0,1-.4-7c.2-16.6,3-32.8,5.2-49.2,1.2-8.4,1.9-16.9,2.8-25.4C343.7,665.3,344.1,663.5,344.4,661Z"/><path d="M411.8,160.7c-.7-1.3-1.4-2.6-2-3.9-5.2-10.9-10.1-22-15.7-32.8a87.5,87.5,0,0,0-17.3-22.9c-1-1-1-1-1.3-3.9,2.6-.3,4,1.5,5.3,3.1,4.3,5.1,8.8,10.1,12.6,15.7a183.4,183.4,0,0,1,18.8,36.6c.9,2.4,2.3,4.9,1,7.7Z"/><path d="M156.2,164.6c-1.3,1.8-2.3,3.9-4,5.5a155.5,155.5,0,0,1-42.9,29.3c-2.2,1.1-4.8,1.4-7.3,1.8-.8.1-1.7-.8-3.1-1.4,1.1-.8,1.6-1.5,2.1-1.6,5.4-.6,10.1-3,14.6-5.7,13.2-7.9,26.2-16.3,36.6-28,.7-.7,1.9-.9,2.8-1.4Z"/><path d="M176.6,634.7c2.1,8.4,1.4,16.8,1.3,25.2,4.3-6.9,1.1-15,3.2-22.9,1.1.8,1.9,1.2,2,1.6.9,8.3,1.9,16.6-2.1,24.5-.7,1.5-1.3,3.1-3.4,2.9s-3.4-1.9-3.7-4a24.4,24.4,0,0,1-.1-3.8c0-6.7.1-13.4.1-20.1C173.9,636.7,173.5,635.1,176.6,634.7Z"/><path d="M289.9,251.2c.5-2.2.6-4.6,1.6-6.5a91.3,91.3,0,0,1,24.3-30.8c2.2-1.8,5-2.8,7.6-4s1.3-.4,3.7,1.2c-.3.4-.6,1-1,1.2-6.6,2-11.6,6.5-16,11.6-6.7,7.9-13.1,15.9-16.6,25.9-.3.8-1.3,1.4-2,2Z"/><path d="M430.2,266c-7.5,6.9-10.1,15.5-12.3,24.3-.3,1.4.3,3.5-2.7,3.7a9.4,9.4,0,0,1-.8-3.2,51.4,51.4,0,0,1,9.9-23.7C425.6,265.5,427.1,263.7,430.2,266Z"/><path d="M184.6,497c-4.9-4.5-9.3-18.6-8.3-25.6,1,.7,2.2,1.1,2.4,1.9,2.1,6.7,4.1,13.5,6.1,20.3C185,494.4,184.7,495.3,184.6,497Z"/><path d="M73.2,274.6c1.5-.4,3-.7,3.5,1.2,1,4.2,1.8,8.3.9,13.2l-3.2-1.6v.2c-.4-4.4-.7-8.8-1.1-13.2Z"/><path d="M241.6,194.9c5.7-1.1,8.8,3,7.8,9C245.6,202,245.6,197.4,241.6,194.9Z"/><path class="cls-1" d="M261.3,528a68.8,68.8,0,0,1-19-.7L266.2,514c0-1.1.1-2.9,0-4.7s1.4-4,3.7-4.6,4.5.8,5.2,3.6a9.4,9.4,0,0,1,.1,4.7c-2.8,11.8-3.2,23.7-2.4,35.7a96.1,96.1,0,0,1,.1,12c-1,20.4,2.3,40.4,5.5,60.5.8,5,2.6,9.8,3.9,14.7.5,1.9.9,3.8,1.3,5.8.8,3.7.3,6.9-4.2,8.6a33.1,33.1,0,0,1-2.1-5.8c-3.3-16.9-6.6-33.7-9.7-50.7-3.8-20.5-2.3-41.2-1.3-61.8.2-5.5-2-10.2-1.5-15.5C260.3,519.1,263.2,523.6,261.3,528Z"/><path class="cls-1" d="M402.4,317c.7,6,3.1,9.5,9.5,9.3-1.7,3.6-3.1,6.3-4.3,9.1a87.3,87.3,0,0,0-4.2,11.1c-1.8,6.8-1.3,7.7,4.9,11.2-6.2,4.8-15.7,1.7-17.2-5.9a18.4,18.4,0,0,1,1.3-12.6C396,332.3,398.9,325,402.4,317Z"/><path class="cls-1" d="M73.4,274.4c.4,4.4.7,8.8,1.1,13.2-1.1-3.7-2.2-7.4-3.2-11.1C70.9,274.9,71.8,274.1,73.4,274.4Z"/></g></g></svg>