<?xml version="1.0" encoding="utf-8"?>
<!-- Generator: Adobe Illustrator 25.2.3, SVG Export Plug-In . SVG Version: 6.00 Build 0)  -->
<svg version="1.1" id="Layer_1" xmlns="http://www.w3.org/2000/svg" xmlns:xlink="http://www.w3.org/1999/xlink" x="0px" y="0px"
	 viewBox="0 0 571.5 355.8" style="enable-background:new 0 0 571.5 355.8;" xml:space="preserve">
<style type="text/css">
	.st0{opacity:0.25;}
	.st1{fill:#FFFFFF;stroke:#241F20;stroke-miterlimit:10;}
	.st2{clip-path:url(#SVGID_2_);}
	.st3{stroke:#000000;stroke-width:0.6666;stroke-miterlimit:13.333;}
	.st4{fill:none;}
	.st5{fill:#FFFFFF;}
	.st6{opacity:0.35;fill:#FFFFFF;stroke:#241F20;stroke-width:0.5;stroke-miterlimit:10;}
	.st7{font-family:'GillSans-SemiBold';}
	.st8{font-size:65.8382px;}
	.st9{letter-spacing:-1;}
	.st10{font-family:'GillSans-Bold';}
	.st11{font-size:14.2758px;}
	.st12{font-size:35.6419px;}
	.st13{font-size:18.1592px;}
	.st14{font-size:12.4312px;}
	.st15{font-size:19.7561px;}
	.st16{font-size:14.7221px;}
	.st17{font-size:12.883px;}
	.st18{font-size:16.3726px;}
	.st19{font-size:16.174px;}
	.st20{font-size:12.8955px;}
	.st21{font-size:14.5111px;}
	.st22{font-size:16.9726px;}
	.st23{fill:#241F20;}
	.st24{clip-path:url(#SVGID_4_);}
	.st25{font-size:12.8961px;}
</style>
<g>
	<g>
		<g class="st0">
			<rect x="456.7" y="195.6" class="st1" width="79.9" height="106.1"/>
			<g>
				<defs>
					<rect id="SVGID_1_" x="455.4" y="194.4" width="79.9" height="106.1"/>
				</defs>
				<clipPath id="SVGID_2_">
					<use xlink:href="#SVGID_1_"  style="overflow:visible;"/>
				</clipPath>
				<g class="st2">
					<g transform="matrix(1.3333 0 0 -1.3333 -120.27 885.48)">
						<g>
							<path class="st3" d="M467.9,446.4l0-1.4l0.6,0c-0.1-0.3-0.2-1.1-0.4-1.8c-0.3,1-0.9,3.1-0.9,3.1l-1.3,0c0,0-0.5-2.2-0.7-3.1
								c-0.2,0.7-0.4,1.4-0.5,1.7l0.6,0l0,1.4l-3.2-0.1l0-1.4l0.7,0c0.1-0.3,1.2-4.3,1.2-4.3l1.8,0.1c0,0,0.3,1.3,0.5,2.1
								c0.2-0.8,0.6-2.1,0.6-2.1l1.8,0.1c0,0,0.9,4.1,1,4.4l0.7,0l0,1.4L467.9,446.4z M470.3,445.3l-0.6,0c0,0-1-4.3-1-4.4l-1.5-0.1
								c0,0-0.8,2.7-0.8,2.7s-0.6-2.7-0.6-2.8l-1.5-0.1c0,0-1.2,4.3-1.2,4.3l-0.6,0l0,1l2.8,0.1l0-1l-0.7,0l0.8-2.8
								c0,0,0.9,3.7,0.9,3.8l1,0c0,0,1.1-3.7,1.1-3.7l0.7,2.8l-0.7,0l0,1l2.1,0.1L470.3,445.3z"/>
						</g>
					</g>
					<g>
						<path class="st4" d="M518.6,253.1c0.1,0.1,0.2,0.1,0.3,0.2C518.8,253.2,518.7,253.1,518.6,253.1z"/>
						<path class="st4" d="M518.8,250.4c-0.1,0.3-0.2,0.6-0.3,0.8C518.6,251,518.7,250.7,518.8,250.4z"/>
						<path class="st4" d="M481.1,268.7c-0.2-0.8-0.3-1.6-0.1-2.3c0.2-0.8,0.9-1.4,1.6-1.4c0.1,0.3-0.1,0.4-0.3,0.5
							c-0.2,0.1-0.7,0.6-0.7,1c-0.2,1.3,0.1,2.4,0.7,3.7c0.3-0.9,0.6-1.7,0.9-2.5c0.4-1.2,0.5-2.4,0.6-3.6c0-0.3-0.1-0.5-0.3-0.7
							c-0.1-0.1-0.5,0-0.6,0.1c-0.1,0.1-0.8,0.3-1.2,0.4c-0.4,0.1-0.7,0.1-1.1,0.2l-6.1,1.6c-1.4,0.4-2.8,0.9-4,1.7
							c-1,0.7-1.6,1.5-1.8,2.7c-0.1,0.5,0.1,1.1,0.5,1.4c0.4-0.4,0.4-0.4,0.9-0.2l5,2.2c2.4,1,4.9,2.1,7.1,3.6
							c0.6,0.4,1.1,0.7,1.7,1.1c0.3,0.2,0.7,0.4,1.2,0.2c-0.2-0.3-0.4-0.5-0.7-0.7c-1.5-1.2-3-2.5-4.6-3.5c-1.9-1.3-3.6-2.7-5.4-4.2
							c-0.2-0.2-0.4-0.4-0.6-0.7c-0.2-0.3-0.1-0.6,0.2-0.9c0.3-0.3,0.4-0.3,0.7,0c-0.2,0.2-0.4,0.4-0.5,0.6c0.1,0.2,0.2,0.4,0.4,0.5
							c1.3,1,2.5,2.1,3.9,3.1c1.7,1.2,3.5,2.3,5,3.7c0.5,0.5,1.1,0.9,1.6,1.4c0.5,0.5,0.9,0.5,1.4,0.3l-2.7-3.9
							C482.6,272.5,481.5,270.8,481.1,268.7z"/>
						<path class="st4" d="M519.2,249.5c-0.1,0.2-0.1,0.3-0.2,0.5C519.1,249.9,519.1,249.7,519.2,249.5z"/>
						<path class="st4" d="M518.1,253.7c0.3,0,0.7-0.1,1-0.3c-0.1,0-0.1-0.1-0.2-0.1c0,0,0.1,0.1,0.2,0.1
							C518.8,253.6,518.5,253.7,518.1,253.7z"/>
						<path class="st4" d="M506.7,238.8c0.3,0.1,0.6-0.1,0.7-0.4c0.3-0.6-0.1-1-0.6-1.4c-0.5,0.2-0.9,0.4-0.8,1.1
							C506.1,238.4,506.3,238.7,506.7,238.8z"/>
						<path class="st4" d="M509.7,242.9c0.3,0,0.6-0.1,0.8-0.3c0.9-0.9,1.4-2,1.1-3.2s-1-2.2-2.3-2.6c-0.6-0.2-1.2-0.2-1.8,0
							c0,0.1,0.1,0.2,0.1,0.2c0.3,0,0.5,0.1,0.8,0.1c1.2,0,2.1,0.9,2.3,2c0.2,1.2-0.5,2.4-1.7,2.8c-1.1,0.4-2.4,0-3-1
							c-0.3-0.5-0.4-1.1-0.3-1.6c0.1-0.3,0.1-0.7-0.3-0.9c-0.8,1.1-0.8,2.9,0.1,3.8c0.2,0.2,0.4,0.3,0.6,0.3
							C507.3,242.9,508.5,243,509.7,242.9z"/>
						<path class="st4" d="M512,229c-1.7-0.1-3.4-0.1-5,0.4c-0.2,0.1-0.4,0.2-0.7,0.3c2.4,0.2,4.7,0.5,7.1,1.3
							c-0.3-0.6-0.5-1.1-0.6-1.5C512.7,229.2,512.4,229,512,229z"/>
						<path class="st4" d="M519.4,249.2c-0.1,0.1-0.1,0.2-0.2,0.3C519.2,249.4,519.3,249.3,519.4,249.2z"/>
						<path class="st4" d="M500.5,296C500.5,296,500.5,296.1,500.5,296C500.5,296.1,500.5,296,500.5,296z"/>
						<path class="st4" d="M519.6,248.7c-0.1,0.2-0.2,0.4-0.3,0.6C519.4,249.1,519.5,248.9,519.6,248.7z"/>
						<path class="st4" d="M520,265.6c-1.6,2-3.7,3.5-6,4.6c-1.6,0.8-3.2,1.4-4.8,2.1c-2.8,1.2-5.6,2.4-8.2,3.8
							c-0.2,0.1-0.3,0.1-0.6,0.2l0,0c-0.2-0.5,0.1-0.6,0.4-0.7c0.9-0.5,1.7-1,2.7-1.4c2.9-1.3,5.8-2.5,8.7-3.8
							c2.4-1,4.6-2.5,6.5-4.2c0.8-0.7,1-1.5,0.8-2.5c-0.1-0.4-0.3-0.8-0.6-1.1c-1.3-1.1-2.7-1.8-4.4-1.9c-0.9,0-1.8-0.1-2.7-0.2
							c-0.8-0.1-1.6,0.1-2.3,0.7c-1.6,1.2-3.3,2.1-5.2,2.8c-0.6,0.1-1,0.5-1.4,0.9c-0.5,0.7-1,1.3-1.5,2c-0.5,0.8-0.9,1.6-1.3,2.4
							c-0.2,0.4-0.5,0.8-0.8,1.3c-0.4,0.7-0.8,1.5-1,2.4c0.2-0.1,0.3-0.2,0.5-0.3c3-2.3,6.5-3.8,9.8-5.5c1.6-0.8,3.2-1.4,4.8-2.3
							c1.2-0.6,2.3-1.5,3.4-2.3c0,0.1,0.1,0.3,0.1,0.4c-0.1,0.2-0.3,0.4-0.5,0.5c-1.2,1-2.5,1.8-3.8,2.4c-3.3,1.5-6.7,3.1-9.9,4.9
							c-3.2,1.8-6.1,4.1-8.7,6.6c-0.1,0.1-0.3,0.3-0.4,0.5l0.1,0.1l3.7-1.8c0-0.2,0-0.4,0-0.6c0-0.6,0.4-1,1-1.1
							c0.6-0.1,1.1,0.2,1.3,0.7c0.1,0.4,0.1,0.8,0.1,1.2c0,0.5-0.2,1.1-0.3,1.7l0.6-0.1c3-1.1,6-2.2,8.9-3.6
							c2.9-1.4,5.3-2.8,8.1-3.8c2.2-0.8,4.1-2.1,6.5-2.4C523.4,266.9,521.7,265.6,520,265.6z"/>
						<path class="st4" d="M487.6,239.6c0.3,0,0.6-0.1,0.8-0.2c1.2-0.9,1.7-2.1,1.6-3.5c-0.1-2.2-2.3-3.5-4.3-2.4
							c0.5,0.1,0.9,0.3,1.3,0.3c1.7,0,2.8,1.4,2.5,3c-0.2,1.3-1.4,2.2-2.6,2.2c-1.3-0.1-2.2-1.1-2.3-2.4c-0.1-0.6-0.2-1.1-0.4-1.9
							c-0.8,1.2-0.8,2.4-0.6,3.6C484.9,239,486.2,239.5,487.6,239.6z"/>
						<path class="st4" d="M493.1,227.4c-1.4-1.2-5.7-2.3-8-2.1l-1.4,1.8C486.8,227,490,227,493.1,227.4z"/>
						<path class="st4" d="M485.6,235.7c0.4,0,0.8-0.5,0.8-1c0-0.4-0.3-0.7-0.7-0.7c-0.4,0-0.8,0.4-0.8,0.9
							C484.9,235.4,485.2,235.7,485.6,235.7z"/>
						<path class="st4" d="M498.4,275.3c-0.3,0.1-0.5,0.3-0.5,0.6C497.9,275.6,498.1,275.4,498.4,275.3z"/>
						<path class="st4" d="M498.1,288.6c-0.6-3.1-0.3-6.1-0.2-9.2c0-0.8-0.3-1.5-0.2-2.3l0,0c-0.1,0.8,0.3,1.5,0.2,2.3
							C497.7,282.4,497.5,285.5,498.1,288.6c0.5,2.5,1,5,1.4,7.6c0.1,0.3,0.2,0.6,0.3,0.9c-0.1-0.3-0.2-0.6-0.3-0.9
							C499,293.6,498.6,291.1,498.1,288.6z"/>
						<path class="st4" d="M497.9,276c0,0.4,0,0.5,0,0.7C497.9,276.5,497.9,276.2,497.9,276z"/>
						<path class="st5" d="M499.8,297.3c0.1,0.3,0.3,0.6,0.3,0.7c0.3,1,0.6,2.1,0.8,3.1l0.1,0.4c0.3-0.8-0.5-3.5-1-4.3
							C500,297.3,499.9,297.3,499.8,297.3z"/>
						<path d="M527.9,272.4c-1.2-0.9-2.4-1.8-3.6-2.7c0.3-2.7-1.4-4-3.9-4.7c0-0.2,0.1-0.5,0-0.5c-0.4-0.4-0.4-1-0.6-1.4
							c-0.1-0.2-0.3-0.4-0.4-0.6c-1-0.9-2-1.7-3.4-2c-1-0.2-2-0.3-3-0.3c-0.6-0.1-1.2-0.1-2-0.1c1.2-1.2,2-2.4,2.8-3.7
							c0.7-1.3,1.4-2.6,2.1-4l0.2,0.5c0.5,1.3,2.5,1.8,3.6,0.9c0.4-0.3,0.8-1.1,0.9-1.3c0.1-0.2,0.2-0.5,0.4-0.7
							c0.7-0.6,1.1-1.4,1.5-2.3c0.8-2,1.3-4,1.4-6.1c0-1,0-2.1-0.1-3.1c-0.1-0.8-0.4-1.6-1.3-1.8l-0.2-0.7c-0.6,0.4-1.1,0.9-1.6,1.5
							c-0.4,0.5-0.8,1.1-1.2,1.6l-0.1,0c0.3-0.7,0.5-1.3,0.8-2c-0.7-0.2-0.6,0.5-0.9,0.6c-0.2-0.3,0.4-0.8-0.3-1
							c0,0.1-0.1,0.2-0.1,0.3c-0.3,2-0.9,3.9-1,5.9c0,0.3-0.2,0.7,0.3,0.8c0.4,0.1,0.4-0.4,0.5-0.7c0.4-1.2,0.9-2.6,1.3-3.6
							c0.4-1,1.1-1.7,1.7-2.2c1.2-0.1,1.4,0.7,1.6,1.5c0,0.1,0.1,0.3,0.1,0.4c0,1,0.1,2,0,3c-0.1,1.8-0.6,3.6-1.3,5.3
							c-0.1,0.1-0.2,0.3-0.3,0.4c0.1-0.9,0.2-1.8,0.3-2.7c0-0.6-0.1-1.3-0.6-1.7c-0.2-0.2-0.4-0.3-0.7-0.1c0.1,0.1,0.2,0.3,0.3,0.4
							c0.1,0.3,0.4,0.7,0.4,1c0.1,1.8-0.4,3.5-1.2,5.1l-1.3-0.4c0.5-1.4,1.3-2.6,1.7-4c-0.7-0.1-0.5,0.6-0.9,0.8
							c-0.9,0.1-1.1-0.1-1-1c0-0.3,0.1-0.7,0.3-1c0.3-0.7,0.8-1.2,1.5-1.4c-0.3-0.1-0.5-0.3-0.6-0.3c-0.3,0.1-0.5,0.3-0.7,0.5
							c-0.4,0.5-0.7,1-1,1.5c-0.4-0.1-0.5,0.1-0.6,0.5c-0.3,0.9-0.6,1.7-1,2.6c-0.9,1.9-1.8,3.7-2.8,5.5c-0.8,1.5-1.6,3-2.8,4.2
							c-2,2-4.4,3.4-7,4.3c-1.5,0.5-3.1,0.9-4.6,1.2c-2.3,0.5-4.7,0.6-7.1,0.1c-2-0.4-4-0.9-6-1.5c-1.3-0.3-2.4-0.9-3.5-1.7
							c-1.8-1.3-3.4-2.7-4.9-4.3c-1.7-1.8-3-4-3.8-6.4c-0.7-2.2-1-4.5-1.3-6.8c-0.1-1.1-0.1-2.1-0.2-3.2c0-0.2,0.1-0.5-0.4-0.5
							c0,0.3-0.1,0.7-0.1,1c0.1,2.6,0.4,5.1,0.9,7.7c0.6,2.7,1.6,5.2,3.4,7.3c1.8,2.1,3.8,3.9,6.1,5.4c0.8,0.5,1.6,1,2.4,1.3
							c1.7,0.9,3.6,1.2,5.4,1.7c2.9,0.8,5.9,0.9,8.8,0.4c1-0.2,1.9-0.4,3-0.6c-0.4,0.6-0.7,1-1,1.5c-0.7,1.3-1.5,2.5-2.2,3.8
							c-0.5,1.1-1,2.1-1.4,3.3c-0.1,0.3-0.3,0.6-0.5,0.8c-1.5,1.2-3,2.5-4.2,3.9l-1,0.1c-1,0.1-1.8,0.3-2.9,0.3
							c-1.1,0.1-1.9-0.3-2.6-1.4c-0.7-1.1-1.5-2.1-2.2-3.1c-0.6-1-1.4-2-1.8-2.9c0.3-0.8,0.6-1.4,0.8-2.1c0.3-0.7,0.5-1.3,0.6-2
							c0.2-0.9,0.3-1.8,0.4-2.7c0.1-1.1-0.6-1.6-1.7-1.1c-0.3,0.1-0.6,0.3-0.9,0.4c-0.8,0.2-1.6,0.3-2.4,0.5
							c-2.2,0.6-4.4,1.2-6.7,1.8c-1.1,0.3-2.2,0.9-3.1,1.7c-0.9,0.7-1.4,1.8-1.5,3c0,0.5,0.1,1,0.5,1.4c0.4,0.4,0.6,0.4,1.1,0
							c3.5,1.8,7.3,3,10.6,5c0.2,0.7,0.3,1.3,0.5,1.9c0.3,0.8,0.6,1.6,0.9,2.4c0.8,2.1,1.2,4.3,1.4,6.5c0.1,2,0.4,3.9,0.6,5.9
							c0,0.2,0.1,0.5,0.2,0.7c0.1,0.3,0.4,0.4,0.7,0.2c-0.1-0.5-0.3-0.9-0.3-1.3c-0.2-2.1-0.4-4.2-0.6-6.3c-0.2-1.8-0.5-3.5-1.1-5.1
							c-0.4-1-0.8-2.1-1.2-3.1c-0.1-0.3-0.2-0.7-0.3-1l0.1-0.1l1,0.7c0.1,0.4,0.3,0.8,0.4,1.2c2,4.5,3,9.1,2.9,14
							c0,0.4,0,0.7-0.1,1.1c-0.1,0-0.3,0-0.4,0c-0.1,0-0.2,0.1-0.2,0.2c0.5,0.6,0.9,0.6,1.1-0.1c0.1-0.3,0.1-0.5,0.1-0.8
							c-0.1-1.9-0.1-3.7-0.3-5.5c-0.4-3.1-1.4-6-2.6-8.8c-0.1-0.2-0.2-0.4-0.2-0.6c0.6,0.2,1.1,0.5,1.7,0.6c0.9,0.1,1.7-0.1,2.6-0.1
							c1.3-0.1,2.6-0.2,3.9-0.1c1.9,0.1,3.8,0.3,5.7,0.4c0.2,0,0.4,0,0.7,0c0,0.4,0,0.7,0,1c-0.3,3.9,0,7.9,0.8,11.7
							c0.3,1.6,0.7,3.1,1,4.7c0.1,0.6,0.2,0.7,0.6,0.7c0,0.3-0.1,0.5,0,0.6c0.3,1.4,0.7,2.8,1.1,4.2c0.8,0.1,1.3-0.2,1.2-1
							c0-0.4-0.1-0.8-0.2-1.1c-0.2-0.6-0.4-1.4-0.6-1.9s-0.3-1.1-0.1-1.6s0-0.9-0.1-1.4c-0.1-0.5-0.3-0.9-0.4-1.4
							c-0.7-3.2-1.1-6.4-1.1-9.7c0-1.5,0-3,0-4.5c0-0.7,0-0.7,0.7-1c3.3-1.1,6.6-2.3,9.7-3.9c1.2-0.6,2.3-1.3,3.6-1.8
							c2.7-1.2,5.4-2.4,8.1-3.5c0.7-0.3,1.4-0.4,2.2-0.6v0.9c-0.9,0-0.9,0-1,0.5c1.3-0.1,2.4,0.6,3.3,1.4c0.5,0.4,1,0.8,1.5,1.2
							c1,0.7,1.6,1.6,2.2,2.6c0.1,0.1,0.1,0.1,0.1,0.5s0.2,0.5,0.5,0.4c0.3-0.1,0.4-0.4,0.2-0.8
							C529.7,274.4,529.1,273.3,527.9,272.4z M516.4,251.5c0-0.3,0.1-0.6,0.3-0.9c0.1-0.1,0.1-0.3,0.2-0.4c0.4-0.9,0.8-1.9,1.3-2.9
							c0.1,0.9,0.5,1.4,1.4,1.4c-0.1,0.2-0.2,0.4-0.3,0.6c-0.1,0.1-0.1,0.2-0.2,0.3c-0.1,0.2-0.1,0.3-0.2,0.5
							c-0.1,0.1-0.1,0.3-0.2,0.4c-0.1,0.3-0.2,0.6-0.3,0.8c0,0.1-0.1,0.3-0.1,0.4c-0.2,0.8-0.2,1.1,0.3,1.4c0.1,0.1,0.2,0.1,0.3,0.2
							c0,0,0.1,0.1,0.2,0.1c-0.3,0.2-0.6,0.3-1,0.3c-0.7,0-1.4-0.4-1.6-1.2c0-0.1,0-0.2,0-0.2C516.4,252,516.4,251.8,516.4,251.5z
							 M485,277.8c-0.5-0.5-1.1-0.9-1.6-1.4c-1.6-1.4-3.3-2.5-5-3.7c-1.3-0.9-2.6-2-3.9-3.1c-0.1-0.1-0.2-0.3-0.4-0.5
							c0.2-0.2,0.3-0.4,0.5-0.6c-0.3-0.3-0.5-0.3-0.7,0c-0.3,0.3-0.4,0.6-0.2,0.9c0.1,0.3,0.3,0.5,0.6,0.7c1.8,1.4,3.5,2.9,5.4,4.2
							c1.6,1.1,3,2.3,4.6,3.5c0.2,0.2,0.5,0.5,0.7,0.7c-0.5,0.2-0.9,0.1-1.2-0.2c-0.6-0.4-1.2-0.7-1.7-1.1c-2.2-1.5-4.6-2.6-7.1-3.6
							l-5-2.2c-0.4-0.2-0.4-0.2-0.9,0.2c-0.4-0.3-0.6-0.9-0.5-1.4c0.2-1.2,0.8-2,1.8-2.7c1.2-0.8,2.6-1.3,4-1.7l6.1-1.6
							c0.4-0.1,0.7-0.2,1.1-0.2c0.4,0,1.1-0.3,1.2-0.4s0.5-0.2,0.6-0.1c0.2,0.2,0.3,0.4,0.3,0.7c-0.1,1.2-0.2,2.4-0.6,3.6
							c-0.3,0.7-0.6,1.5-0.9,2.5c-0.6-1.3-0.9-2.5-0.7-3.7c0.1-0.5,0.6-0.9,0.7-1s0.5-0.2,0.3-0.5c-0.7,0-1.4,0.7-1.6,1.4
							c-0.2,0.8-0.1,1.6,0.1,2.3c0.5,2,1.5,3.8,2.7,5.5l2.7,3.9C485.9,278.4,485.5,278.3,485,277.8z M501.1,301.6l-0.1-0.4
							c-0.3-1-0.5-2.1-0.8-3.1c0-0.1-0.2-0.4-0.3-0.7c0.1,0,0.2,0,0.3-0.1C500.6,298,501.4,300.8,501.1,301.6z M499.7,292.7
							c0.1,0.6,0.3,1.1,0.4,1.6c0.1,0.2,0.1,0.4,0.1,0.6c0.1,0.3,0.1,0.6,0.2,0.9c0,0.1,0,0.2,0,0.3c0,0,0,0.1,0,0.1
							c0,0.3-0.1,0.5-0.4,0.7c-0.1,0.1-0.2,0.1-0.3,0.2c-0.1-0.3-0.2-0.6-0.3-0.9c-0.5-2.5-1-5-1.4-7.6c-0.6-3.1-0.3-6.1-0.2-9.2
							c0-0.8-0.3-1.5-0.2-2.3c-0.1,0-0.1,0.1-0.2,0.2c-0.4,0.4-0.1,1-0.3,1.6c-0.9,0.1-1.9,0.1-2.8-0.1l3.6-2c0-0.2,0-0.3,0-0.7
							c0,0,0-0.1,0-0.1c0-0.3,0.2-0.5,0.5-0.6c0.2,0,0.3,0,0.5,0.1c0.1,0,0.1,0.1,0.2,0.2c0,0.1,0.1,0.2,0.1,0.3c0,0.1,0,0.2,0,0.3
							c0,0.1,0,0.2,0,0.4c-0.3,1.1-0.4,2.2-0.4,3.3c0,0.7,0,1.3,0,2c0,0.6,0,1.2,0,1.8C498.7,286.7,499.2,289.7,499.7,292.7z
							 M517.1,270.7c-2.8,1.1-5.3,2.4-8.1,3.8c-2.9,1.4-5.9,2.5-8.9,3.6l-0.6,0.1c0.1-0.6,0.2-1.1,0.3-1.7c0-0.4,0-0.8-0.1-1.2
							c-0.2-0.6-0.7-0.8-1.3-0.7c-0.6,0.1-1,0.6-1,1.1c0,0.2,0,0.4,0,0.6l-3.7,1.8l-0.1-0.1c0.1-0.2,0.3-0.4,0.4-0.5
							c2.7-2.5,5.5-4.8,8.7-6.6c3.2-1.8,6.6-3.3,9.9-4.9c1.4-0.6,2.7-1.4,3.8-2.4c0.2-0.1,0.4-0.3,0.5-0.5c0.1-0.1,0-0.3-0.1-0.4
							c-1.2,0.8-2.3,1.6-3.4,2.3c-1.6,0.8-3.2,1.5-4.8,2.3c-3.4,1.7-6.8,3.2-9.8,5.5c-0.2,0.1-0.3,0.2-0.5,0.3
							c0.2-0.9,0.6-1.7,1-2.4c0.2-0.4,0.5-0.8,0.8-1.3c0.4-0.8,0.9-1.6,1.3-2.4c0.4-0.7,0.9-1.4,1.5-2c0.4-0.4,0.9-0.8,1.4-0.9
							c1.9-0.6,3.6-1.6,5.2-2.8c0.6-0.5,1.4-0.7,2.3-0.7c0.9,0.1,1.8,0.1,2.7,0.2c1.7,0.1,3.2,0.8,4.4,1.9c0.3,0.3,0.5,0.7,0.6,1.1
							c0.2,1,0,1.7-0.8,2.5c-1.9,1.7-4.1,3.2-6.5,4.2c-2.9,1.3-5.8,2.5-8.7,3.8c-0.9,0.4-1.8,0.9-2.7,1.4c-0.2,0.1-0.5,0.2-0.4,0.7
							l0,0c0.2-0.1,0.4-0.1,0.6-0.2c2.6-1.5,5.4-2.7,8.2-3.8c1.6-0.7,3.3-1.3,4.8-2.1c2.3-1.2,4.4-2.6,6-4.6
							c1.7,0.1,3.4,1.4,3.6,2.8C521.2,268.6,519.2,269.9,517.1,270.7z"/>
						<path d="M475.7,231.6c2.5-0.5,4.8-1.6,6.7-3.2c0.5-0.5,1-0.7,1.7-0.8c2.5-0.2,5.1-0.1,7.6,0.2c0.8,0.1,1.6,0.3,2.4,0.4
							c0.2,0,0.3,0,0.5-0.1c-0.1-0.2-0.1-0.4-0.2-0.6c-0.2-0.2-0.4-0.4-0.7-0.5c-1.8-1.1-3.8-1.7-5.8-2c-0.8-0.1-1.6-0.2-2.5-0.3
							c0.5-0.8,1-1.6,1.6-2.3c1.2-1.6,2.6-3.1,4.4-4.1c1.3-0.7,2.6-1.3,3.9-1.8c1.9-0.8,3.8-0.8,5.8-0.3c0.2,0,0.3,0,0.5,0
							c-0.1-0.4-0.1-0.5-0.5-0.6c-1.3-0.3-2.5-0.4-3.8-0.2c-2.8,0.5-5.4,1.6-7.6,3.3c-1.7,1.2-2.9,2.8-4,4.6
							c-0.4,0.6-0.7,1.3-1.2,1.9c-1,1.4-2.1,2.7-3.6,3.7c-2,1.3-4.2,2-6.5,2.4c-0.8,0.1-1.6,0.1-2.3,0l-1-0.1
							c-0.2-0.2-0.3-0.4-0.5-0.5c-0.4-0.4-1-0.7-1.6-0.8c-0.2,0-0.4,0-0.4,0.4c0.1,0.1,0.2,0.1,0.3,0.2c1.3,0.3,2,1.2,2.4,2.3
							c0.3,0.9,0.4,1.7,0.5,2.6c0,0.3,0,0.5,0.1,0.8c0.5,0,0.5-0.3,0.5-0.6c0-1.1-0.2-2.1-0.6-3.1c-0.1-0.2-0.1-0.4-0.2-0.6l2.4,0.3
							c-0.8,1.8-0.9,3.6-0.9,5.5c-0.1-0.2-0.1-0.5-0.1-0.7c0-0.8,0.1-1.6,0.1-2.4c0-0.3,0.1-0.5-0.3-0.7c-0.3,0.5-0.3,1-0.3,1.6
							s-0.1,1,0,1.5c0,0.5,0.1,1,0.1,1.6c-0.4-0.3-0.4-0.3-0.4-0.5c0-0.4,0-0.8-0.1-1.2c0-0.1-0.2-0.3-0.4-0.5c0,0.9,0,1.6,0,2.3
							c0,0.1,0.2,0.3,0.3,0.3c0.2,0.1,0.5,0.1,0.7,0.1c0.8,0,1.1-0.3,1-1.1l0-0.5c-0.1-1.9,0.1-3.8,0.9-5.5L475.7,231.6z
							 M485.1,225.4c2.3-0.2,6.6,0.9,8,2.1c-3.1-0.4-6.3-0.5-9.4-0.3L485.1,225.4z"/>
						<path d="M511.8,243.2c0.9-0.2,1.7-0.6,2.5-1.1c0.6-0.4,0.7-0.9,0.4-1.6c-0.3,0.4-0.5,0.8-0.8,1.1c-0.3,0.3-0.8,0.5-1.2,0.7
							s-0.9,0.3-1.4,0.5c1.3-2.5,1.2-4.3-0.3-5.6c-1.3-1.2-3.1-1.4-4.6-0.6c-0.8,0.4-1.4,1.1-1.8,1.9c-0.6,1.2-0.4,2.4,0.1,3.8
							c-0.6-0.3-1.1-0.4-1.4-0.7c-0.3-0.4-0.4-0.9-0.3-1.3c0.1-0.5,0.2-0.7,0.2-1.3c-0.1,0-0.3,0.1-0.4,0.2
							c-0.5,1.2-0.3,2.4,0.5,3.1c0.8,0.4,1.7,0.7,2.5,0.9C507.9,243.6,509.9,243.7,511.8,243.2z M506.8,237c0.5,0.4,0.8,0.8,0.6,1.4
							c-0.1,0.3-0.4,0.5-0.7,0.4c-0.4-0.1-0.6-0.4-0.7-0.7C505.9,237.5,506.4,237.3,506.8,237z M505.4,238.4
							c0.3,0.3,0.3,0.6,0.3,0.9c-0.1,0.6,0,1.1,0.3,1.6c0.6,1,1.9,1.4,3,1c1.2-0.4,1.9-1.6,1.7-2.8c-0.2-1.1-1.1-2-2.3-2
							c-0.3,0-0.5-0.1-0.8-0.1c0,0,0-0.1-0.1-0.2c0.6-0.2,1.2-0.2,1.8,0c1.3,0.4,2,1.3,2.3,2.6c0.2,1.3-0.2,2.4-1.1,3.2
							c-0.2,0.2-0.5,0.3-0.8,0.3c-1.2,0.1-2.4,0-3.5-0.3c-0.2,0-0.4-0.2-0.6-0.3C504.7,241.3,504.6,239.5,505.4,238.4z"/>
						<path d="M485.3,239.6c2.2,0.8,5.8,0.6,6.8,0.1c0,0,0.6-0.5,0.6-1c-0.2,0-0.6,0.3-0.9,0.5c-0.3,0.2-0.9,0.2-1.3,0.3
							c-0.4,0.1-0.9,0.2-1.4,0l0.5-0.6c0.7-0.9,1.1-2.1,1-3.3c-0.2-2.4-2.6-3.9-4.9-2.9c-1.6,0.7-2.5,2.1-2.6,3.9c0,0.4,0,0.7,0,1.3
							c-0.5-0.3-0.9-0.7-1.3-0.9c-0.4-0.2-0.6-1-1.3-0.9c0.1,0.3,0.4,0.7,0.6,1C482.3,238.2,483.7,239.1,485.3,239.6z M485.7,234
							c0.4,0,0.7,0.4,0.7,0.7c0,0.5-0.4,0.9-0.8,1c-0.4,0-0.7-0.3-0.7-0.8C484.9,234.5,485.3,234,485.7,234z M484.3,234.7
							c0.1,0.7,0.3,1.3,0.4,1.9c0.1,1.3,1,2.4,2.3,2.4c1.3,0.1,2.4-0.9,2.6-2.2c0.3-1.7-0.8-3-2.5-3c-0.4,0-0.8-0.2-1.3-0.3
							c2-1.1,4.1,0.2,4.3,2.4c0.1,1.5-0.5,2.7-1.6,3.5c-0.2,0.2-0.5,0.2-0.8,0.2c-1.4-0.1-2.7-0.6-3.8-1.3
							C483.5,237.1,483.5,235.9,484.3,234.7z"/>
						<path d="M502.7,205.8c-1-0.2-2-0.4-3-0.6c-1.8-0.3-2.4-0.3-3,0c0.1,0.4,0.4,0.3,0.6,0.3c0.8,0.1,1.6,0.1,2.4,0.2
							c1.1,0.1,2.1,0.3,3.1,0.7c0,0.5,0.1,0.9,0.1,1.3c0,0.5-0.3,1,0.1,1.4c-0.2,0.5,0,1,0.1,1.4c0.1,0.4,0.1,0.8,0.1,1.2
							c0,0.9-0.1,1.8-0.1,2.7c0,0.2-0.1,0.5,0.3,0.5c0.4-0.6,0.2-1.3,0.4-1.9c0.2,0.1,0.3,0.1,0.4,0.2c1.1,0.9,2.1,1.7,2.8,2.9
							c0.1,0.2,0.2,0.4,0.6,0.2c-0.1-0.3-0.3-0.6-0.5-1c-0.8-1.1-1.8-2-2.9-2.8c-0.3-0.2-0.4-0.5-0.4-0.8c-0.1-1-0.3-1.9-0.4-2.9
							c0.3,0,0.5,0,0.8,0c1.4,0.1,2.7,0.5,4,1.1c0.8,0.4,1.7,0.9,2.5,1.4c0.2,0.1,0.4,0.4,0.8,0.1c0-0.1,0-0.3-0.1-0.3
							c-2.4-1.6-4.9-2.9-7.8-3v-2.3c1.1,0.1,2.1,0.2,3.1,0.4c4.9,1.1,9.1,3.4,11.8,7.8c0.3,0.4,0.6,0.9,0.8,1.3
							c2.1,3.6,3.1,7.6,3.6,11.7c0,0.3-0.1,0.6,0.3,0.7c0.4-0.1,0.3-0.4,0.3-0.7c-0.1-0.8-0.2-1.6-0.3-2.4c-0.6-3.6-1.8-6.9-3.6-10
							c-2.3-3.9-5.6-6.7-10-8.1c-1.2-0.4-2.3-0.7-3.5-0.9l-2.6-0.3c-0.2-0.5,0.1-1.2-0.6-1.5C502.5,204.7,503.1,205.3,502.7,205.8z"
							/>
						<path d="M466.9,228.8c0.1,0.3,0.2,0.5,0.6,0.2c0-0.1,0-0.2-0.1-0.4c-0.5-1.6-0.5-3.2-0.3-4.9c0.4-2.7,1.4-5.1,2.8-7.4
							c3.8-6.2,9-10.7,15.6-13.7c3-1.3,6.1-2.2,9.4-2.1c2.4,0,4.7,0.6,6.6,2.3c0.1,0.1,0.3,0.2,0.4,0.2c0.2-0.5,0.2-0.5-0.2-0.8
							c-1.5-1.3-3.3-1.9-5.2-2.1c-2.8-0.4-5.5,0.1-8.2,0.9c-5.3,1.7-9.8,4.7-13.8,8.6c-2.7,2.7-5,5.8-6.6,9.4
							c-1,2.4-1.6,4.9-1.4,7.6C466.6,227.3,466.7,228.1,466.9,228.8z"/>
						<path d="M503.6,203.1c2-0.4,3.9-0.2,5.9,0.4c3.5,1,6.3,3.1,8.7,5.7c3.6,4,5.8,8.7,6.6,14c0.8,4.7,0.3,9.3-2,13.6
							c-0.1,0.2-0.1,0.4-0.2,0.6c0.4,0.2,0.5,0,0.6-0.2c0.3-0.5,0.5-1,0.7-1.4c1.6-3.5,1.9-7.2,1.5-11.1c-0.5-5.4-2.6-10.5-6-14.7
							c-2.4-2.9-5.2-5.3-8.8-6.6c-2.3-0.9-4.8-1.2-7.2-0.8c-0.3,0-0.8,0-0.6,0.4C503.1,203.3,503.4,203.1,503.6,203.1z"/>
						<path d="M519.8,238.2c0.3,0,0.6,0.1,0.9-0.3c-0.2-0.1-0.3-0.2-0.5-0.2c-1.4-0.1-2.4-0.9-3.2-2c-1.6-2.1-2.9-4.3-3.9-6.7
							c-0.6-1.5-1.2-3-1.9-4.5c-1.3-2.7-3.1-5.1-5.5-7c-0.5-0.4-1.1-0.8-1.8-0.9c-0.2,0-0.3,0-0.5,0c0.1,0.2,0.2,0.4,0.3,0.4
							c0.7,0.2,1.3,0.6,1.8,1c0.8,0.7,1.6,1.5,2.3,2.3c2,2.3,3.3,5,4.3,7.8c0,0,0,0.1,0,0.2c-1,0-2,0-3,0c-1.3,0.1-2.6,0.4-3.7,1.1
							c-0.1,0.1-0.3,0.4-0.3,0.5c0,0.1,0.3,0.2,0.5,0.3c0.2,0,0.3,0,0.5,0c2.4,0,4.7,0.4,6.9,1.1c0.5,0.2,0.7,0.4,1,0.9
							c0.9,1.4,1.8,2.8,2.8,4.1C517.7,237.4,518.7,238.1,519.8,238.2z M506.3,229.7c0.2-0.1,0.4-0.2,0.7-0.3c1.6-0.6,3.3-0.6,5-0.4
							c0.3,0,0.6,0.2,0.7,0.6c0.1,0.4,0.4,0.9,0.6,1.5C511,230.2,508.7,229.9,506.3,229.7z"/>
						<path d="M469.4,287.8c-1.3-0.7-2.5-1.5-3.7-2.3c-1.5-1.1-2.9-2.3-4.4-3.5c0,0,0-0.1-0.1-0.3c1.1-2.7,3.5-4.3,6-6
							c-0.1-0.1-0.3-0.2-0.4-0.2c-0.3,0.1-0.5,0.2-0.7,0.3c-1.5,1-3,2.2-4.1,3.6c-0.4,0.5-0.9,1.2-1,1.8c-0.2,1-0.7,1.8-1,2.7
							c-0.9,2.7-1.4,5.4-1.6,8.2c-0.1,2.2-0.1,4.4-0.1,6.7c0,0.2,0,0.4,0.1,0.6c0,0.1,0.2,0.2,0.5,0.4c0-1,0-1.7,0-2.5
							c-0.2-3.4,0.1-6.8,0.8-10.1c0.2-1.1,0.5-2.2,0.8-3.2c0.1-0.5,0.3-1,1-1.2c1,0.8,2,1.6,2.9,2.4c1.3,1.1,2.7,2.1,4.3,2.9
							c1.1,0.5,2.1,1.2,2.8,2.2c0.1,0.2,0.3,0.3,0.6,0.1c-0.1-0.2-0.2-0.4-0.3-0.6C471,288.9,470.2,288.3,469.4,287.8z"/>
						<path d="M470.7,241.1c0.1-0.3,0.1-0.6,0.1-0.9c0-0.8,0-1.5-0.1-2.3c-0.2-1.6-0.6-3.1-1.5-4.4c-0.5-0.7-1.1-1.3-1.9-1.6
							c-0.3-0.1-0.6-0.1-0.9-0.1c-0.1,0.4,0.1,0.5,0.3,0.5c1,0.2,1.7,0.9,2.2,1.8c0.5,0.9,0.9,2,1.1,3c0,0,0,0.1,0,0.1l-0.5,0
							c0,0.7,0.1,1.4,0.1,2s-0.3,0.9-0.8,1.1c-0.3-0.5,0.1-1.2-0.5-1.8c-0.4,0.9-0.2,1.6-0.1,2.4c0.1,0.8,0.3,1.6,0.4,2.4l-1,0.2
							c-0.4-1.5-0.7-3.1-0.7-4.7c0-1.5,1.1-2,2.1-2h0.7c-0.3-0.5-0.6-0.5-1-0.5c-1.3,0-2.2,0.9-2.3,2.1c0,0.9,0,1.7,0.2,2.6
							c0.2,1.1,0.5,2.3,0.7,3.3c0.2,1,0.6,1.4,1.6,1.2l0.4,0c-0.2,0.4-0.3,0.8-0.4,1.1c0.5,0.1,0.6,0,0.8-0.4
							c0.2-0.7,0.1-1.5-0.1-2.2c-0.1-0.4-0.2-0.8-0.3-1.2l0,0l0,0c-0.2-0.6-0.3-1.1-0.5-1.7c-0.1-0.2,0.1-0.4,0.3-0.3v0
							c0.7-0.4,1.1-0.9,1.1-1.7c0,0.4,0,0.7,0.1,1C470.3,240.5,470.1,241,470.7,241.1z"/>
						<path d="M495,208.7c-4.2,1.5-7.6,4.2-10.3,7.6c-1.3,1.7-2.6,3.4-3.8,5.1c-2.3,3.1-5,5.6-8.8,6.8l-1.2,0.4
							c-0.2,0.1-0.4,0.2-0.6,0.3c0.3,0.5,0.6,0.3,0.9,0.2c2.7-0.8,5.1-2,7.1-4c0.7-0.7,1.4-1.4,2-2.2c1-1.2,1.8-2.5,2.7-3.7
							c1.7-2.3,3.5-4.4,5.7-6.2c2.3-1.9,5-3.4,8-4.3c0.3-0.1,0.6,0,0.7-0.6c-0.3,0-0.5,0-0.7,0C496.1,208.3,495.6,208.5,495,208.7z"
							/>
						<path d="M528,275.9c-0.7,0.1-1.5,0.3-2.2,0.5c-7.7,2.2-13,7-15.3,14.7c-0.5,1.7-0.8,3.4-0.7,5.2c0,0.3-0.1,0.6,0.3,0.8
							c0.2-0.3,0.3-0.3,0.3-0.7c0-1.5,0.2-2.9,0.5-4.3c2-7.5,6.9-12.4,14.2-14.8c1.2-0.4,2.4-0.6,3.6-0.8c0.2,0,0.5,0,0.4-0.5
							C528.8,275.9,528.4,275.9,528,275.9z"/>
						<path d="M499.2,204c0-0.4-0.3-0.5-0.6-0.5c-0.6-0.1-1.3-0.2-1.9-0.3c-2.8-0.1-5.4,0.6-8,1.7c-4.2,1.9-7.5,4.7-10.2,8.4
							c-1.1,1.5-2.3,3-3.5,4.5c-0.1,0.2-0.3,0.4-0.4,0.6c0.5,0.1,0.5,0.1,0.7-0.1c0.4-0.5,0.8-0.9,1.2-1.4c1.4-1.7,2.6-3.5,4.1-5.2
							c2.9-3.4,6.7-5.9,11-7.2c2.3-0.7,4.7-1.1,7.1-0.4C498.9,204,499,204,499.2,204z"/>
						<path d="M506.3,211c-0.5-0.4-1.1-0.6-1.7-0.8c-0.3-0.1-0.6-0.2-0.8,0c0,0.1,0,0.2,0,0.2c0.1,0.1,0.2,0.1,0.3,0.2
							c0.9,0.2,1.6,0.7,2.4,1.2l1.7,1.3c2.4,1.8,4.5,3.9,6.1,6.5c0.7,1.1,1.4,2.1,2,3.3c1.4,2.8,2.7,5.6,4,8.3l0.8,1.7l0.2,0
							c0-0.1,0.1-0.2,0-0.2c-0.3-0.8-0.5-1.7-0.9-2.5c-1.5-3.3-3-6.6-4.9-9.6c-1.2-2-2.6-3.8-4.2-5.4
							C509.8,213.6,508.1,212.2,506.3,211z"/>
						<path d="M533.4,285.2c-0.3-2-0.8-4-1.3-6c-0.1-0.7-0.4-1.3-0.6-1.9c-0.1-0.3-0.2-0.6-0.4-0.8c-0.1-0.2-0.3-0.3-0.5,0
							c0.3,0.8,0.6,1.4,0.7,2.1c0.8,3.5,1.7,7,1.9,10.7c0.1,3.3,0.1,6.5,0,9.8c0,0.8-0.1,1.6-0.1,2.4c0,0.1,0.1,0.5,0.2,0.4
							s0.3-0.2,0.3-0.3c0-0.2,0.1-0.4,0.1-0.6c0.1-1.9,0.1-3.9,0.2-5.8C533.9,291.9,533.9,288.5,533.4,285.2z"/>
						<path d="M466.2,245.7c0.4,0.6,0.8,1.2,1.4,1.7c0.5,0.6,1.4,0.7,2.1,0.3c0.9-0.4,1.4-1.2,1.7-2.1c0-0.1-0.1-0.2-0.2-0.4
							c-0.2,0.2-0.3,0.3-0.3,0.4c-0.3,0.4-0.4,0.7-1,1.3s-1.2,0.6-1.8,0.1c-0.3-0.2-0.6-0.5-0.8-0.8c-0.4-0.6-0.8-1.3-1.1-2
							c-1.3-3.3-1.6-6.6-1.1-10.1c0.1-1,0.4-2,1-2.9c0.3-0.5,0.7-0.9,1.4-1c0.1,0,0.2-0.1,0.4-0.2c-0.2-0.4-0.4-0.4-0.7-0.3
							c-0.5,0.1-1,0.4-1.3,0.9c-0.6,0.7-0.9,1.6-1.1,2.5c-0.6,2.5-0.5,5-0.1,7.5C464.9,242.5,465.3,244.2,466.2,245.7z"/>
						<path d="M478.6,220c1.5-1.8,2.9-3.7,4.3-5.5c1-1.3,2.2-2.5,3.6-3.3c0.2-0.1,0.3-0.2,0.5-0.4c-0.4-0.4-0.6-0.1-0.8,0
							c-1.4,0.8-2.6,1.9-3.5,3.1c-1.5,1.9-3,3.8-4.4,5.7c-1.1,1.3-2.4,2.5-3.8,3.3c-1.2,0.7-2.4,1.3-3.7,1.6c-0.4,0.1-0.7,0.2-1,0.4
							c-0.3,0.2-0.3,0.4,0,0.6c0.6-0.2,1-0.4,1.5-0.6C474.1,224,476.6,222.4,478.6,220z"/>
						<path d="M482.6,206.1c-2.5,1.6-4.8,3.6-6.9,5.7c-2.6,2.6-4.6,5.6-6.2,8.9c-0.1,0.1-0.1,0.3-0.2,0.5c0,0.1,0.1,0.2,0.2,0.4
							c0.2-0.3,0.3-0.4,0.4-0.6l1.1-2c2.4-4.4,5.8-7.9,9.8-10.9c1-0.7,2-1.3,3-2c0.2-0.1,0.5-0.2,0.3-0.8
							C483.6,205.5,483.1,205.8,482.6,206.1z"/>
						<path d="M521.5,236.5l-0.6-0.5c-0.4-0.4-0.8-0.7-1.2-1.1c-1.1-1-1.8-2.3-2.4-3.6c-1-2.1-1.9-4.2-3-6.2
							c-0.9-1.6-1.9-3.1-2.8-4.6c-0.3-0.4-0.8-0.8-1.2-1.1c-0.1-0.1-0.3,0-0.5,0c0.1,0.3,0.2,0.4,0.3,0.5c0.9,0.6,1.4,1.6,2,2.4
							c0.7,1.1,1.3,2.3,1.9,3.5c1,2,2,4.1,2.9,6.2c0.7,1.6,1.7,3,3.1,4.1c0.3,0.2,0.5,0.4,0.8,0.5
							C520.9,236.6,521.1,236.5,521.5,236.5z"/>
						<path d="M487.4,253.5c0.8,0.7,1.7,1.3,2.7,1.8c3.5,1.5,7.1,1.4,10.8,0.7c1-0.2,1.9-0.5,2.9-0.9c-0.2-0.3-0.4-0.6-0.5-0.7
							c-0.5,0.3-0.9,0.6-1.3,0.7c-1.3,0.4-2.7,0.7-4.1,0.7c-2.1,0.1-4.3,0.1-6.3-0.6c-1.7-0.5-3.3-1.4-4.4-2.8c0-0.4,0.5-0.7,0-1.1
							c-0.4,0.5-0.7,1.1-0.9,1.7C486.8,252.9,487,253.2,487.4,253.5z"/>
						<path d="M491.8,213.7c-2.2,1.8-4.2,3.8-6,6c-0.2,0.3-0.5,0.7-0.7,1c0.6,0,0.6,0,0.8-0.3c1.5-2,3.3-3.8,5.2-5.5
							c1.3-1.2,2.9-2.2,4.6-2.9c1.1-0.5,2.3-0.7,3.6-0.5c0.3,0,0.6,0.1,0.8,0.1c0.1,0,0.3-0.1,0.5-0.2c-0.1-0.1-0.2-0.3-0.3-0.3
							c-1-0.1-2.1-0.3-3.1-0.1C495.1,211.5,493.4,212.5,491.8,213.7z"/>
						<path d="M480.6,235.8c0.1-0.2,0.3-0.4,0.4-0.6c1.3-2.4,3.8-3.6,6.8-3c2.9,0.6,4.7,2.9,4.8,5.3c0,0.2,0.1,0.4,0.1,0.6
							c0.4-0.1,0.4-0.4,0.4-0.6c0-1.1-0.4-2.1-1-3c-1.9-2.8-5.8-3.7-8.8-2.1c-1.2,0.6-2.1,1.5-2.7,2.7
							C480.4,235.2,480.2,235.5,480.6,235.8z"/>
						<path d="M475.3,294.2c-0.3-0.7-0.7-1.3-1.1-1.9c-0.1-0.2-0.3-0.5-0.7-0.3c0.1,0.2,0.2,0.4,0.3,0.6c1,1.5,1.7,3.2,2.1,4.9
							c0.7,3,0.9,6.1,0.7,9.2c0,0.8-0.1,1.5-0.2,2.3c0,0.2,0,0.5,0.4,0.5c0.1-0.3,0.1-0.6,0.2-0.9c0.2-2.6,0.3-5.2,0-7.8
							C476.9,298.6,476.3,296.3,475.3,294.2z"/>
						<path d="M503.3,238c-0.1,0.1-0.1,0.1-0.2,0.3c0,0.1,0,0.3,0.1,0.6l0.8-1c3.1-3.7,8.6-2.7,10.1,1.7c0,0.1,0.1,0.3,0.2,0.4
							c0,0.1,0.2,0.1,0.3,0.1c0.3-0.3,0.2-0.5,0.1-0.8c-0.7-1.8-1.9-3.2-3.7-3.9C508.3,234.5,505,235.6,503.3,238z"/>
						<path d="M493.6,248.2l-0.2-0.5c-0.4,0.6-0.3,1.1,0.2,1.5c1.3,1,2.7,1.8,4.4,1.5c2.2-0.4,2.7-1.1,2.8-3c0-1-0.2-2-0.3-3
							c0-0.1-0.2-0.1-0.5-0.3c0,0.6,0.1,1,0.1,1.4c0,0.7,0.1,1.4,0.1,2.2s-0.3,1.4-1,1.8c-0.6,0.3-1.3,0.5-2,0.5
							c-1.2,0-2.2-0.7-3.1-1.4C493.8,248.7,493.7,248.4,493.6,248.2z"/>
						<path d="M509.5,298.6c0,0.4-0.1,0.6-0.1,0.9c-0.1,1.3-0.2,2.5-0.4,3.8c-0.3,2.4-0.7,4.9-0.8,7.3c0,0.3,0,0.7,0.1,1
							c0,0.1,0.2,0.2,0.4,0.4c0-0.2,0.1-0.4,0.1-0.6c-0.1-2.4,0.3-4.7,0.6-7.1c0.2-1.7,0.4-3.3,0.5-5
							C509.9,299.2,510,298.9,509.5,298.6z"/>
						<path d="M517,218.5c0.8,1.6,1.6,3.3,2.3,4.9c0.1,0.2,0.2,0.4,0.3,0.6l0.2-0.1c0.2-0.4,0-0.8-0.1-1.1c-0.7-1.9-1.7-3.7-2.8-5.5
							c-0.6-0.8-1.2-1.6-1.9-2.3c-0.2-0.2-0.4-0.5-0.8-0.5c0,0.4,0,0.4,0.2,0.6C515.4,216,516.3,217.2,517,218.5z"/>
						<path d="M475.4,228.7c-0.7,0.4-1.4,0.8-2.2,0.9c-0.1,0-0.1,0.1-0.3,0.2c0.2,0.1,0.3,0.2,0.5,0.2c0.4-0.1,0.8-0.1,1.1-0.3
							c2.4-1.1,4.5-2.6,6.4-4.4c0.3-0.2,0.4-0.6,0.6-0.8l-0.2-0.2c-0.1,0.1-0.3,0.1-0.4,0.2C479.3,226.3,477.4,227.5,475.4,228.7z"
							/>
						<path d="M485.2,295c-0.3,1.2,0.2,2.4-0.5,3.4c0-1.3,0.1-2.5-0.2-3.8c-0.5,0.1-0.4,0.3-0.4,0.5c0,1,0,2,0,3c0,0.2,0,0.4,0,0.6
							c0,0.3,0.2,0.6,0.6,0.6c0.3,0,0.4-0.2,0.5-0.4c0.6-1.2,0.4-2.4,0.3-3.7C485.5,295.2,485.3,295.1,485.2,295z"/>
						<path d="M506.4,231.3c-0.4,0.2-0.8,0.3-1.1,0.6c-1.5,1.3-2.8,2.8-3.6,4.6c-0.1,0.3-0.2,0.6-0.2,1l0.2,0.1
							c0.1-0.1,0.3-0.2,0.3-0.3c0.5-1.5,1.5-2.7,2.5-3.9c0.7-0.8,1.4-1.4,2.4-1.7c0.1,0,0.1-0.1,0.1-0.2
							C506.6,231.2,506.8,231.1,506.4,231.3z"/>
						<path d="M520.5,243.3c0.3-1.3,0.7-2.6,1.8-3.6c-0.5-0.3-0.7-0.1-0.9,0.2c-0.8,1-1.3,2.3-1.5,3.5c0,0.2,0,0.3,0.1,0.5
							C520.6,243.8,520.5,243.5,520.5,243.3z"/>
						<path d="M485.7,273.6c-0.3-1-0.6-2-0.9-3c0-0.1-0.2-0.2-0.4-0.3c-0.1,1,0.5,3.1,1.2,3.8C485.7,273.9,485.8,273.7,485.7,273.6z
							"/>
						<path d="M469.7,243.1c0.1-0.7,0-1.3-0.1-2c-0.1-0.3-0.3-0.2-0.5-0.2c0.1,0.6,0.1,1.3,0.2,1.9L469.7,243.1z"/>
						<path d="M495.4,230.4c0.1-0.9-0.3-1.5-1.2-1.3C494.8,229.4,494.8,230.1,495.4,230.4z"/>
						<path class="st5" d="M498.9,283.6c0-0.6,0-1.2,0-1.8c0-0.7-0.1-1.3,0-2c0-1.1,0.1-2.2,0.4-3.3c0-0.1,0-0.2,0-0.4
							c0-0.1,0-0.2,0-0.3c0-0.1-0.1-0.2-0.1-0.3c0-0.1-0.1-0.1-0.2-0.2c-0.1-0.1-0.3-0.1-0.5-0.1c-0.3,0.1-0.5,0.3-0.5,0.6
							c0,0,0,0.1,0,0.1c0,0.3,0,0.5,0,0.7l-3.6,2c0.9,0.2,1.9,0.2,2.8,0.1c0.3-0.6,0-1.2,0.3-1.6c0.1-0.1,0.1-0.1,0.2-0.2l0,0
							c-0.1,0.8,0.3,1.5,0.2,2.3c-0.1,3.1-0.4,6.2,0.2,9.2c0.5,2.5,1,5,1.4,7.6c0.1,0.3,0.2,0.6,0.3,0.9c0.1,0,0.2-0.1,0.3-0.2
							c0.3-0.2,0.4-0.4,0.4-0.7c0,0,0-0.1,0-0.1c0-0.1,0-0.2,0-0.3c-0.1-0.3-0.1-0.6-0.2-0.9c0-0.2-0.1-0.4-0.1-0.6
							c-0.2-0.6-0.3-1.1-0.4-1.6C499.2,289.7,498.7,286.7,498.9,283.6z"/>
						<path class="st5" d="M516.5,252.5c0.1,0.8,0.9,1.2,1.6,1.2c0.3,0,0.7-0.1,1-0.3c-0.1,0-0.1-0.1-0.2-0.1
							c-0.1-0.1-0.2-0.1-0.3-0.2c-0.5-0.3-0.5-0.6-0.3-1.4c0-0.1,0.1-0.3,0.1-0.4c0.1-0.3,0.2-0.6,0.3-0.8c0.1-0.1,0.1-0.3,0.2-0.4
							c0.1-0.1,0.1-0.3,0.2-0.5c0-0.1,0.1-0.2,0.2-0.3c0.1-0.2,0.2-0.4,0.3-0.6c-1,0-1.3-0.5-1.4-1.4c-0.5,1-0.9,2-1.3,2.9
							c-0.1,0.1-0.1,0.3-0.2,0.4c-0.1,0.3-0.2,0.6-0.3,0.9c0,0.2,0,0.5,0,0.7C516.5,252.3,516.5,252.4,516.5,252.5z"/>
						<path class="st5" d="M468.8,241.2c0.1,0.6,0.3,1.1,0.5,1.7c0,0,0,0,0,0c-0.1-0.6-0.1-1.3-0.2-1.9c0,0,0,0,0,0v0
							C468.9,240.9,468.7,241,468.8,241.2z"/>
					</g>
				</g>
			</g>
		</g>
		<line class="st1" x1="571.5" y1="74.4" x2="0" y2="74.4"/>
		<text transform="matrix(1 0 0 1 74.8335 60.4031)" class="st6 st7 st8 st9">WASHINGTON</text>
		<text transform="matrix(1 0 0 1 18.1712 34.8783)"><tspan x="0" y="0" class="st10 st11 st9">WA</tspan><tspan x="0" y="15.4" class="st10 st11 st9">USA</tspan></text>
		<text transform="matrix(1 0 0 1 46.5466 49.0926)" class="st7 st12">WASHINGTON</text>
		<g>
			<g>
				<path d="M326.8,34.7h1.8v14.4h-1.8V34.7z"/>
				<path d="M332.6,34.7h3.6c4.4,0,6.8,2.6,6.8,7.2s-2.4,7.3-6.7,7.3h-3.7V34.7z M336.1,47.6c3.4,0,5.1-2.1,5.1-5.8
					s-1.7-5.7-5.1-5.7h-1.6v11.4H336.1z"/>
				<path d="M346.2,34.7h8.3v1.6H348v4.5h5.5v1.6H348v5.2h6.7v1.6h-8.5V34.7z"/>
				<path d="M357.8,34.7h1.9l5.2,9.1l1.6,3h0.1c-0.1-1.5-0.2-3.1-0.2-4.6v-7.5h1.7v14.4h-1.9l-5.2-9.1l-1.6-3h-0.1
					c0.1,1.5,0.2,3,0.2,4.5v7.6h-1.7V34.7z"/>
				<path d="M375,36.2h-4.4v-1.6h10.6v1.6h-4.4v12.9H375V36.2z"/>
				<path d="M383.8,34.7h1.8v14.4h-1.8V34.7z"/>
				<path d="M389.6,34.7h8.3v1.6h-6.5v4.9h5.5v1.6h-5.5v6.5h-1.8V34.7z"/>
				<path d="M400.4,34.7h1.8v14.4h-1.8V34.7z"/>
				<path d="M405.4,41.9c0-4.7,2.7-7.5,6.4-7.5c1.8,0,3.1,0.9,4,1.8l-1,1.2c-0.8-0.8-1.7-1.4-2.9-1.4c-2.7,0-4.5,2.2-4.5,5.8
					c0,3.6,1.7,5.9,4.5,5.9c1.4,0,2.4-0.6,3.3-1.6l1,1.2c-1.1,1.3-2.6,2.1-4.4,2.1C408.1,49.4,405.4,46.6,405.4,41.9z"/>
				<path d="M421.8,34.7h2.1l4.9,14.4h-1.9l-2.5-8.1c-0.5-1.6-1-3.2-1.4-4.9h-0.1c-0.4,1.7-0.9,3.3-1.4,4.9l-2.5,8.1h-1.9
					L421.8,34.7z M419.4,43.2h6.6v1.5h-6.6V43.2z"/>
				<path d="M433.8,36.2h-4.4v-1.6H440v1.6h-4.4v12.9h-1.8V36.2z"/>
				<path d="M442.6,34.7h1.8v14.4h-1.8V34.7z"/>
				<path d="M447.5,41.8c0-4.6,2.5-7.4,6.2-7.4c3.6,0,6.2,2.8,6.2,7.4c0,4.6-2.5,7.5-6.2,7.5C450.1,49.4,447.5,46.4,447.5,41.8z
					 M458,41.8c0-3.6-1.7-5.8-4.3-5.8c-2.6,0-4.3,2.2-4.3,5.8s1.7,5.9,4.3,5.9C456.3,47.7,458,45.4,458,41.8z"/>
				<path d="M463,34.7h1.9l5.2,9.1l1.6,3h0.1c-0.1-1.5-0.2-3.1-0.2-4.6v-7.5h1.7v14.4h-1.9l-5.2-9.1l-1.6-3h-0.1
					c0.1,1.5,0.2,3,0.2,4.5v7.6H463V34.7z"/>
				<path d="M480.8,41.9c0-4.7,2.7-7.5,6.4-7.5c1.8,0,3.1,0.9,4,1.8l-1,1.2c-0.8-0.8-1.7-1.4-2.9-1.4c-2.7,0-4.5,2.2-4.5,5.8
					c0,3.6,1.7,5.9,4.5,5.9c1.4,0,2.4-0.6,3.3-1.6l1,1.2c-1.1,1.3-2.6,2.1-4.4,2.1C483.5,49.4,480.8,46.6,480.8,41.9z"/>
				<path d="M497.1,34.7h2.1l4.9,14.4h-1.9l-2.5-8.1c-0.5-1.6-1-3.2-1.4-4.9h-0.1c-0.4,1.7-0.9,3.3-1.4,4.9l-2.5,8.1h-1.9
					L497.1,34.7z M494.8,43.2h6.6v1.5h-6.6V43.2z"/>
				<path d="M506.1,34.7h4.5c2.9,0,5.1,1.1,5.1,4.1c0,2.9-2.1,4.3-5.1,4.3H508v6.1h-1.8V34.7z M510.4,41.5c2.2,0,3.5-0.9,3.5-2.8
					c0-1.9-1.2-2.6-3.5-2.6H508v5.4H510.4z M510.3,42.5l1.4-1l4.4,7.6h-2.1L510.3,42.5z"/>
				<path d="M518.7,34.7h3.6c4.4,0,6.8,2.6,6.8,7.2s-2.4,7.3-6.7,7.3h-3.7V34.7z M522.1,47.6c3.4,0,5.1-2.1,5.1-5.8
					s-1.7-5.7-5.1-5.7h-1.6v11.4H522.1z"/>
			</g>
		</g>
		<g>
			<text transform="matrix(1 0 0 1 205.5759 130.2539)" class="st7 st13">SHIN</text>
			<g>
				<g>
					<path d="M199.9,129h1.8v-5.4h-1.5v-0.9c0.8-0.1,1.4-0.4,1.9-0.7h1.1v7h1.6v1.2h-4.9V129z"/>
				</g>
			</g>
		</g>
		<g>
			<g>
				<g>
					<path d="M199.4,146.5c2.3-2.2,3.7-3.7,3.7-4.9c0-0.9-0.5-1.4-1.4-1.4c-0.6,0-1.2,0.4-1.6,0.9l-0.8-0.8c0.7-0.8,1.5-1.3,2.6-1.3
						c1.6,0,2.6,1,2.6,2.5c0,1.5-1.4,3-3,4.7c0.4,0,1-0.1,1.4-0.1h2v1.3h-5.5V146.5z"/>
				</g>
			</g>
			<text transform="matrix(1 0 0 1 205.5406 147.3836)" class="st7 st13">DONGHOON</text>
		</g>
		<g>
			<text transform="matrix(1 0 0 1 210.1227 183.3636)" class="st7 st14">DOB</text>
			<g>
				<g>
					<path d="M199.7,182.9l0.7-1c0.5,0.5,1.1,0.9,1.9,0.9c0.9,0,1.5-0.5,1.5-1.2c0-0.8-0.5-1.4-2.4-1.4v-1.1c1.6,0,2.1-0.6,2.1-1.3
						c0-0.7-0.5-1.1-1.2-1.1c-0.6,0-1.1,0.3-1.6,0.8l-0.8-0.9c0.7-0.6,1.5-1,2.5-1c1.6,0,2.6,0.8,2.6,2.2c0,0.9-0.5,1.5-1.4,1.9v0.1
						c1,0.3,1.7,1,1.7,2c0,1.5-1.3,2.4-2.9,2.4C201.1,184.1,200.2,183.5,199.7,182.9z"/>
				</g>
			</g>
			<text transform="matrix(1 0 0 1 244.3997 183.5023)" class="st7 st15">10/21/1997</text>
		</g>
		<g>
			<text transform="matrix(1 0 0 1 256.6556 245.5682)" class="st7 st14">SEX</text>
			<g>
				<g>
					<path d="M239.8,244.9h1.8v-5.4h-1.5v-0.9c0.8-0.1,1.4-0.4,1.9-0.7h1.1v7h1.6v1.2h-4.9V244.9z"/>
					<path d="M245.5,245.1l0.7-1c0.5,0.5,1.1,0.9,1.9,0.9c0.9,0,1.6-0.6,1.6-1.6c0-1-0.6-1.5-1.5-1.5c-0.5,0-0.8,0.1-1.3,0.5
						l-0.7-0.5l0.2-4.1h4.4v1.3h-3.1l-0.2,2c0.3-0.2,0.7-0.3,1.1-0.3c1.4,0,2.6,0.8,2.6,2.6c0,1.8-1.4,2.8-2.9,2.8
						C246.9,246.3,246.1,245.7,245.5,245.1z"/>
				</g>
			</g>
			<text transform="matrix(1 0 0 1 286.927 246.2615)" class="st7 st16">M</text>
		</g>
		<g>
			<text transform="matrix(1 0 0 1 387.5598 245.1088)" class="st7 st17">EYES</text>
			<g>
				<g>
					<path d="M370.7,244.5h1.8v-5.4h-1.5v-0.9c0.8-0.1,1.4-0.4,1.9-0.7h1.1v7h1.6v1.2h-4.9V244.5z"/>
					<path d="M376.6,243.7c0-1,0.7-1.7,1.5-2.1v-0.1c-0.6-0.4-1.1-1.1-1.1-1.9c0-1.3,1.1-2.2,2.5-2.2c1.5,0,2.4,0.9,2.4,2.2
						c0,0.8-0.6,1.5-1.1,1.9v0.1c0.8,0.4,1.4,1,1.4,2.1c0,1.3-1.1,2.2-2.8,2.2C377.8,245.9,376.6,245,376.6,243.7z M380.8,243.6
						c0-0.9-0.9-1.2-2-1.7c-0.5,0.4-0.9,0.9-0.9,1.5c0,0.8,0.7,1.4,1.5,1.4C380.2,244.9,380.8,244.4,380.8,243.6z M380.6,239.7
						c0-0.7-0.4-1.3-1.2-1.3c-0.6,0-1.1,0.4-1.1,1.1c0,0.8,0.7,1.2,1.6,1.5C380.4,240.7,380.6,240.2,380.6,239.7z"/>
				</g>
			</g>
			<text transform="matrix(1 0 0 1 423.9021 245.5023)" class="st7 st18">BRN</text>
		</g>
		<g>
			<text transform="matrix(1 0 0 1 386.7136 260.3414)" class="st7 st17">WGT</text>
			<g>
				<g>
					<path d="M369.9,259.8h1.8v-5.4h-1.5v-0.9c0.8-0.1,1.4-0.4,1.9-0.7h1.1v7h1.6v1.2h-4.9V259.8z"/>
					<path d="M379.7,254h-3.9v-1.3h5.5v0.9c-1.9,2.4-2.3,4.1-2.4,7.3h-1.5C377.5,258.1,378.1,256.2,379.7,254z"/>
				</g>
			</g>
			<g>
				<g>
					<path d="M424.3,259.2h2.3v-6.8h-1.9v-1.2c1-0.2,1.7-0.5,2.4-0.9h1.4v8.9h2v1.5h-6.3V259.2z"/>
					<path d="M431,255.8c0-4,2-5.7,4.1-5.7c1.2,0,2.2,0.5,2.8,1.2l-1,1.1c-0.4-0.5-1-0.8-1.7-0.8c-1.4,0-2.5,1.1-2.5,4.2
						c0,2.6,0.8,3.6,2,3.6c0.9,0,1.6-0.7,1.6-2c0-1.2-0.6-1.9-1.6-1.9c-0.6,0-1.3,0.4-1.9,1.3l-0.1-1.3c0.6-0.8,1.6-1.3,2.4-1.3
						c1.8,0,3,1,3,3.2c0,2.1-1.5,3.4-3.3,3.4C432.7,260.9,431,259.3,431,255.8z"/>
					<path d="M437.8,259.5l0.9-1.2c0.6,0.6,1.4,1.1,2.4,1.1c1.2,0,2-0.7,2-2c0-1.2-0.8-1.9-1.9-1.9c-0.7,0-1,0.2-1.7,0.6l-0.9-0.6
						l0.3-5.1h5.6v1.6h-3.9l-0.2,2.5c0.4-0.2,0.8-0.3,1.4-0.3c1.8,0,3.3,1,3.3,3.2c0,2.3-1.7,3.6-3.7,3.6
						C439.7,260.9,438.6,260.3,437.8,259.5z"/>
					<path d="M450.9,249.6v11.2h-2v-11.2H450.9z"/>
					<path d="M453.7,249.6v4.2c0.6-0.4,1.2-0.6,2-0.6c0.7,0,1.3,0.2,1.8,0.5c0.5,0.3,1,0.8,1.2,1.4c0.3,0.6,0.4,1.2,0.4,2
						c0,1.2-0.4,2.2-1.1,2.9s-1.7,1.1-3,1.1c-1.1,0-2.2-0.2-3.3-0.6v-10.7H453.7z M453.7,259.2c0.4,0.1,0.9,0.2,1.5,0.2
						c0.6,0,1.1-0.2,1.4-0.7c0.4-0.4,0.5-1,0.5-1.8c0-0.7-0.2-1.3-0.5-1.7c-0.4-0.4-0.8-0.6-1.4-0.6c-0.3,0-0.5,0.1-0.8,0.2
						c-0.2,0.1-0.5,0.3-0.7,0.5V259.2z"/>
				</g>
			</g>
		</g>
		<g>
			<text transform="matrix(1 0 0 1 387.6686 275.4186)" class="st7 st17">END</text>
			<text transform="matrix(1 0 0 1 417.124 276.0697)" class="st7 st19">NONE</text>
			<g>
				<g>
					<path d="M370.5,275.3l0.8-0.9c0.3,0.4,0.8,0.6,1.3,0.6c1.1,0,1.9-0.8,1.9-3.3c0-2-0.6-2.9-1.6-2.9c-0.7,0-1.2,0.6-1.2,1.6
						c0,1,0.5,1.5,1.3,1.5c0.5,0,1.1-0.3,1.5-1l0.1,1c-0.5,0.7-1.2,1.1-1.9,1.1c-1.4,0-2.4-0.8-2.4-2.5c0-1.6,1.2-2.7,2.6-2.7
						c1.6,0,3,1.2,3,4c0,3.2-1.5,4.5-3.2,4.5C371.7,276.2,371,275.8,370.5,275.3z"/>
					<path d="M376.8,274.4c0-1.4,1.1-2.1,3.7-2.3c0-0.7-0.3-1.2-1.2-1.2c-0.6,0-1.2,0.3-1.8,0.6l-0.5-1c0.7-0.4,1.6-0.8,2.6-0.8
						c1.6,0,2.4,1,2.4,2.7v3.8h-1.2l-0.1-0.7h0c-0.6,0.5-1.2,0.9-2,0.9C377.6,276.2,376.8,275.5,376.8,274.4z M380.5,274.4v-1.4
						c-1.7,0.2-2.3,0.7-2.3,1.3c0,0.6,0.4,0.8,0.9,0.8C379.7,275.1,380,274.8,380.5,274.4z"/>
				</g>
			</g>
		</g>
		<g>
			<text transform="matrix(1 0 0 1 387.6685 294.8521)" class="st7 st17">EXP</text>
			<g>
				<g>
					<path d="M416.8,288.8c0-4.4,1.7-6.7,4.4-6.7s4.4,2.3,4.4,6.7c0,4.4-1.7,6.8-4.4,6.8S416.8,293.2,416.8,288.8z M423.4,288.8
						c0-3.7-0.9-4.9-2.2-4.9c-1.3,0-2.2,1.2-2.2,4.9c0,3.7,0.9,5,2.2,5C422.5,293.8,423.4,292.5,423.4,288.8z"/>
					<path d="M427.4,289.3c0-5.1,2.4-7.2,5.1-7.2c1.6,0,2.7,0.7,3.5,1.5l-1.3,1.4c-0.5-0.6-1.3-1-2.1-1c-1.7,0-3.1,1.3-3.1,5.2
						c0,3.2,1,4.6,2.5,4.6c1.1,0,2-0.9,2-2.5c0-1.5-0.8-2.3-2.1-2.3c-0.8,0-1.7,0.4-2.4,1.6l-0.1-1.7c0.7-1,2-1.7,2.9-1.7
						c2.2,0,3.8,1.3,3.8,4c0,2.6-1.9,4.3-4.1,4.3C429.6,295.6,427.4,293.6,427.4,289.3z"/>
					<path d="M442,280.8h1.6l-4.8,17.8h-1.6L442,280.8z"/>
					<path d="M444.8,294c3.6-3.5,5.9-5.8,5.9-7.8c0-1.4-0.8-2.2-2.2-2.2c-1,0-1.8,0.7-2.5,1.4l-1.3-1.3c1.2-1.3,2.4-2,4.2-2
						c2.5,0,4.1,1.6,4.1,4c0,2.3-2.1,4.7-4.7,7.4c0.7-0.1,1.5-0.1,2.2-0.1h3.2v2h-8.8V294z"/>
					<path d="M455.4,288.8c0-4.4,1.7-6.7,4.4-6.7s4.4,2.3,4.4,6.7c0,4.4-1.7,6.8-4.4,6.8S455.4,293.2,455.4,288.8z M462,288.8
						c0-3.7-0.9-4.9-2.2-4.9s-2.2,1.2-2.2,4.9c0,3.7,0.9,5,2.2,5S462,292.5,462,288.8z"/>
					<path d="M465.9,294c3.6-3.5,5.9-5.8,5.9-7.8c0-1.4-0.8-2.2-2.2-2.2c-1,0-1.8,0.7-2.5,1.4l-1.3-1.3c1.2-1.3,2.4-2,4.2-2
						c2.5,0,4.1,1.6,4.1,4c0,2.3-2.1,4.7-4.7,7.4c0.7-0.1,1.5-0.1,2.2-0.1h3.2v2h-8.8V294z"/>
					<path d="M482.6,284.3h-6.2v-2h8.7v1.5c-3.1,3.8-3.6,6.5-3.8,11.6H479C479.3,290.8,480.1,287.8,482.6,284.3z"/>
				</g>
			</g>
			<g>
				<g>
					<path d="M373.7,290.4c0-0.5,0-1.2,0.1-1.7h-0.1c-0.2,0.4-0.4,0.8-0.7,1.3l-1.5,2.3h4.6v1.2h-6v-1l3.3-5.1h1.8v8.2h-1.4V290.4z"
						/>
					<path d="M378.5,294.8L378.5,294.8l-0.2,0.7h-1.2v-9.1h1.5v2.4l0,1.1c0.5-0.5,1.2-0.8,1.8-0.8c1.6,0,2.5,1.3,2.5,3.2
						c0,2.2-1.3,3.4-2.7,3.4C379.6,295.7,379,295.4,378.5,294.8z M381.4,292.2c0-1.3-0.4-2-1.4-2c-0.5,0-0.9,0.2-1.4,0.7v3
						c0.4,0.4,0.9,0.5,1.3,0.5C380.7,294.4,381.4,293.7,381.4,292.2z"/>
				</g>
			</g>
		</g>
		<g>
			<text transform="matrix(1 0 0 1 256.7219 260.1285)" class="st7 st14">HGT</text>
			<g>
				<g>
					<path d="M239.9,259.5h1.8v-5.4h-1.5v-0.9c0.8-0.1,1.4-0.4,1.9-0.7h1.1v7h1.6v1.2h-4.9V259.5z"/>
					<path d="M245.8,256.8c0-3.2,1.5-4.5,3.2-4.5c1,0,1.7,0.4,2.2,0.9l-0.8,0.9c-0.3-0.4-0.8-0.6-1.3-0.6c-1.1,0-1.9,0.8-1.9,3.3
						c0,2,0.6,2.9,1.6,2.9c0.7,0,1.2-0.6,1.2-1.6c0-1-0.5-1.5-1.3-1.5c-0.5,0-1.1,0.3-1.5,1l-0.1-1c0.5-0.7,1.2-1.1,1.9-1.1
						c1.4,0,2.4,0.8,2.4,2.5c0,1.6-1.2,2.7-2.6,2.7C247.2,260.8,245.8,259.6,245.8,256.8z"/>
				</g>
			</g>
			<text transform="matrix(1 0 0 1 286.9933 260.8219)" class="st7 st16">5’ -11”</text>
		</g>
		<g>
			<text transform="matrix(1 0 0 1 257.7366 276.0697)" class="st7 st20">RESTRICTIONS</text>
			<text transform="matrix(1 0 0 1 277.3328 290.9486)" class="st7 st21">NONE</text>
			<g>
				<g>
					<path d="M240.9,275.5h1.8v-5.4h-1.5v-0.9c0.8-0.1,1.4-0.4,1.9-0.7h1.1v7h1.6v1.2h-4.9V275.5z"/>
					<path d="M246.7,275.9c2.3-2.2,3.7-3.7,3.7-4.9c0-0.9-0.5-1.4-1.4-1.4c-0.6,0-1.2,0.4-1.6,0.9l-0.8-0.8c0.7-0.8,1.5-1.3,2.6-1.3
						c1.6,0,2.6,1,2.6,2.5c0,1.5-1.4,3-3,4.7c0.4,0,1-0.1,1.4-0.1h2v1.3h-5.5V275.9z"/>
				</g>
			</g>
		</g>
		<g>
			<text transform="matrix(1 0 0 1 405.8044 184.2127)" class="st7 st14">ISS</text>
			<g>
				<g>
					<path d="M395.4,183.7l0.5-0.7c0.5,0.5,1.1,1,2.1,1c1,0,1.7-0.6,1.7-1.5c0-1-0.7-1.6-2.6-1.6v-0.8c1.7,0,2.3-0.7,2.3-1.5
						c0-0.8-0.5-1.3-1.4-1.3c-0.7,0-1.3,0.3-1.8,0.8l-0.6-0.7c0.6-0.6,1.4-1,2.4-1c1.4,0,2.5,0.8,2.5,2.1c0,1-0.6,1.6-1.5,2v0.1
						c1,0.2,1.8,1,1.8,2.1c0,1.5-1.2,2.4-2.7,2.4C396.8,184.9,395.9,184.4,395.4,183.7z"/>
				</g>
			</g>
			<g>
				<g>
					<path d="M433,178c0-4.2,1.7-6.5,4.3-6.5s4.3,2.2,4.3,6.5c0,4.2-1.7,6.6-4.3,6.6S433,182.3,433,178z M439.3,178
						c0-3.6-0.9-4.7-2.1-4.7c-1.2,0-2.1,1.1-2.1,4.7s0.9,4.8,2.1,4.8C438.5,182.8,439.3,181.6,439.3,178z"/>
					<path d="M443.7,183.2l1.2-1.4c0.5,0.5,1.2,0.9,2,0.9c1.6,0,3-1.3,3-5.1c0-3.1-1-4.4-2.4-4.4c-1,0-1.9,0.8-1.9,2.4
						c0,1.5,0.7,2.2,2,2.2c0.7,0,1.6-0.4,2.3-1.6l0.1,1.6c-0.7,1-1.9,1.6-2.8,1.6c-2.2,0-3.7-1.3-3.7-3.9c0-2.5,1.8-4.1,4-4.1
						c2.5,0,4.6,1.9,4.6,6.1c0,4.9-2.4,6.9-4.9,6.9C445.6,184.6,444.5,183.9,443.7,183.2z"/>
					<path d="M458.3,170.3h1.5l-4.6,17.2h-1.5L458.3,170.3z"/>
					<path d="M461.5,183c3.5-3.4,5.7-5.6,5.7-7.5c0-1.3-0.7-2.2-2.1-2.2c-1,0-1.8,0.6-2.5,1.4l-1.3-1.2c1.1-1.2,2.3-2,4-2
						c2.4,0,4,1.5,4,3.9c0,2.2-2.1,4.5-4.6,7.2c0.7-0.1,1.5-0.1,2.1-0.1h3.1v1.9h-8.5V183z"/>
					<path d="M472.1,178c0-4.2,1.7-6.5,4.3-6.5s4.3,2.2,4.3,6.5c0,4.2-1.7,6.6-4.3,6.6S472.1,182.3,472.1,178z M478.5,178
						c0-3.6-0.9-4.7-2.1-4.7c-1.2,0-2.1,1.1-2.1,4.7s0.9,4.8,2.1,4.8C477.6,182.8,478.5,181.6,478.5,178z"/>
					<path d="M482.7,183c3.5-3.4,5.7-5.6,5.7-7.5c0-1.3-0.7-2.2-2.1-2.2c-1,0-1.8,0.6-2.5,1.4l-1.3-1.2c1.1-1.2,2.3-2,4-2
						c2.4,0,4,1.5,4,3.9c0,2.2-2.1,4.5-4.6,7.2c0.7-0.1,1.5-0.1,2.1-0.1h3.1v1.9h-8.5V183z"/>
					<path d="M493.4,183c3.5-3.4,5.7-5.6,5.7-7.5c0-1.3-0.7-2.2-2.1-2.2c-1,0-1.8,0.6-2.5,1.4l-1.3-1.2c1.1-1.2,2.3-2,4-2
						c2.4,0,4,1.5,4,3.9c0,2.2-2.1,4.5-4.6,7.2c0.7-0.1,1.5-0.1,2.1-0.1h3.1v1.9h-8.5V183z"/>
				</g>
			</g>
		</g>
		<g>
			<text transform="matrix(1 0 0 1 214.5283 109.5684)" class="st7 st14">WEB</text>
			<g>
				<g>
					<path d="M203.3,104.6c0-0.4,0-1.1,0.1-1.6h-0.1c-0.2,0.4-0.4,0.8-0.7,1.2l-1.9,2.8h4.7v0.8h-5.8v-0.7l3.5-5.3h1.2v8.2h-1V104.6
						z"/>
					<path d="M206.1,107c0-2,1.3-3.3,2.7-3.3c0.7,0,1.2,0.3,1.8,0.7l0-1.1v-2.4h1.1v9.2h-0.9l-0.1-0.7h0c-0.5,0.5-1.2,0.9-1.9,0.9
						C207.1,110.3,206.1,109.1,206.1,107z M210.5,108.5v-3.3c-0.5-0.5-1-0.7-1.5-0.7c-1,0-1.8,1-1.8,2.4c0,1.5,0.6,2.4,1.7,2.4
						C209.5,109.4,210,109.1,210.5,108.5z"/>
				</g>
			</g>
			<text transform="matrix(1 0 0 1 244.4 109.7071)" class="st7 st15">DONGHOONIO</text>
		</g>
		<g>
			<g>
				<g>
					<path d="M199.9,201.3c0-1,0.7-1.7,1.5-2.1v-0.1c-0.6-0.4-1.1-1.1-1.1-1.9c0-1.3,1.1-2.2,2.5-2.2c1.5,0,2.4,0.9,2.4,2.2
						c0,0.8-0.6,1.5-1.1,1.9v0.1c0.8,0.4,1.4,1,1.4,2.1c0,1.3-1.1,2.2-2.8,2.2C201.1,203.5,199.9,202.6,199.9,201.3z M204.1,201.2
						c0-0.9-0.9-1.2-2-1.7c-0.5,0.4-0.9,0.9-0.9,1.5c0,0.8,0.7,1.4,1.5,1.4C203.5,202.5,204.1,202,204.1,201.2z M203.9,197.3
						c0-0.7-0.4-1.3-1.2-1.3c-0.6,0-1.1,0.4-1.1,1.1c0,0.8,0.7,1.2,1.6,1.5C203.7,198.3,203.9,197.8,203.9,197.3z"/>
				</g>
			</g>
			<text transform="matrix(1 0 0 1 208.0701 203.6527)" class="st7 st22">3960 Benton Ln NE</text>
			<text transform="matrix(1 0 0 1 208.0785 217.5437)" class="st7 st22">SEATTLE WA 98115</text>
		</g>
		<g>
			<g>
				<g>
					<path class="st23" d="M333,276.5c0,0.5-0.1,0.9-0.1,1.4c0.1,0,0.2-0.1,0.4-0.1c-0.6-0.2-1.1-0.4-1.7-0.4
						c-0.2,0-0.3,0.3-0.2,0.4c1.2,1.3,1.1,3,1,4.7c0.1-0.1,0.2-0.2,0.3-0.2c-0.8-0.3-1.5-0.4-2.3-0.4c-0.2,0-0.3,0.3-0.2,0.4
						c0.3,0.3,1.3,1.1,1.4,1.6c0.1,0.5-0.6,0.8-0.9,0.9c-0.4,0.2-1,0.3-1.4,0.4c-0.2,0.1-0.3,0.4-0.1,0.5c0.4,0.2,1.5,0.5,1.8,0.9
						c0.2,0.3,0.2,0.1-0.1,0.3c-0.2,0.1-0.8,0.2-1.1,0.2c-0.1,0-0.2,0.2-0.2,0.3c0.4,1.1-1.2,1.1-2,1c-0.1,0-0.2,0.1-0.2,0.2
						c-0.1,0.6,0,1,0.3,1.5c0-0.1,0.1-0.2,0.1-0.4c-0.6,0.2-1.2,0.4-1.8,0.6c-0.2,0.1-0.3,0.4-0.1,0.5c0.6,0.3,3.1,1.6,2.9,2.2
						c-0.2,0.4-1.6,0.4-2,0.5c-0.8,0.1-1.5,0-2.3-0.2c-0.2-0.1-0.4,0.2-0.3,0.4c0.4,0.8,1.5,0.8,1.9,1.7c0.1-0.1,0.2-0.2,0.3-0.4
						c-0.8-0.2-1.6-0.2-2,0.7c-0.1,0.1,0,0.3,0.1,0.3c0.4,0.2,0.8,0.3,1.2,0.5c0.4,0.1,0.7,0.3,1.1,0.4c0.6,1.4,0.5,2-0.3,1.7
						c-0.6,0.1-1.3-0.1-1.9,0c-1.5,0.3-2.8,1.2-3.7,2.4c-0.1,0.2,0.1,0.4,0.3,0.4c1.7-0.4,2.9-0.4,4.6,0.2c0.4,0.1,0.8,0.3,1.3,0.3
						c0.6,0.1,1.5-0.2,2.1,0.1c0-0.2,0-0.3,0.1-0.5c-2.2,0.8-4.6,0.4-6.7,1.4c0.1,0.1,0.2,0.2,0.3,0.3c0.1-0.1,0.2-0.2,0.2-0.2
						c0.3-0.2,0-0.6-0.3-0.4c-0.3,0.2-0.3,0.1-0.4,0.4c-0.1,0.2,0.1,0.4,0.3,0.3c2.1-1,4.5-0.5,6.6-1.3c0.2-0.1,0.3-0.3,0.1-0.5
						c-0.5-0.3-0.8-0.2-1.4-0.2c-0.9,0.1-1.6-0.1-2.5-0.4c-1.6-0.5-2.8-0.4-4.4,0c0.1,0.1,0.2,0.2,0.3,0.4c0.9-1.3,2.4-2.2,4-2.3
						c0.7,0,1.8,0.5,2.4-0.1c0.5-0.5,0.4-1.2,0.1-1.7c-0.6-1-2.1-1.2-3-1.7c0,0.1,0.1,0.2,0.1,0.3c0.4-0.5,0.9-0.7,1.4-0.5
						c0.2,0,0.4-0.2,0.3-0.4c-0.4-0.8-1.5-0.9-1.9-1.7c-0.1,0.1-0.2,0.2-0.3,0.4c1,0.2,2,0.2,3.1,0.1c0.5-0.1,1.7,0,2-0.6
						c0.5-1.1-2.7-2.6-3.3-2.9c0,0.2,0,0.3-0.1,0.5c0.6-0.2,1.2-0.4,1.8-0.6c0.2-0.1,0.2-0.2,0.1-0.4c-0.3-0.4-0.3-0.8-0.2-1.2
						c-0.1,0.1-0.2,0.2-0.2,0.2c1,0.1,2.4-0.1,2.8-1.1c0-0.1,0-0.2-0.1-0.2c-0.1-0.1-0.2-0.2-0.2-0.3c-0.1,0.1-0.1,0.2-0.2,0.3
						c0.4-0.1,2-0.1,1.9-0.9c-0.1-0.7-1.9-1.2-2.4-1.4c0,0.2,0,0.3-0.1,0.5c0.7-0.2,2.7-0.3,2.9-1.3c0.2-0.9-1.2-1.9-1.7-2.4
						c-0.1,0.1-0.1,0.3-0.2,0.4c0.8,0,1.4,0.1,2.1,0.4c0.2,0.1,0.3-0.1,0.3-0.2c0.1-1.8,0.1-3.6-1.2-5c-0.1,0.1-0.1,0.3-0.2,0.4
						c0.5,0,1,0.1,1.5,0.3c0.1,0.1,0.3,0,0.4-0.1c0.1-0.5,0.1-1,0.2-1.5C333.5,276.2,333,276.2,333,276.5L333,276.5z"/>
				</g>
			</g>
			<g>
				<g>
					<path class="st23" d="M322.8,303.3c0.1,0.3,0.2,0.5,0.3,0.8c0.1-0.1,0.1-0.3,0.2-0.4c-0.9,0-1.7,0.3-2.6,0.7
						c-0.2,0.1-0.2,0.3,0,0.4c0.7,0.4,2.8,0.1,2.7,1.1c0.1-0.1,0.2-0.2,0.2-0.2c-0.6,0.1-1.2,0.1-1.8,0.2c-0.2,0-0.3,0.2-0.2,0.4
						c0.2,0.3,0.4,0.5,0.7,0.6c0.4,0.2,1,0.4,1,0.9c0,0.2-0.2,0.3-0.1,0.5c0,0.4,0.5,0.8,0.8,1.1c0.7,0.8,1.4,1.5,2,2.3
						c0-0.1,0.1-0.3,0.1-0.4c-2.2,0.4-4.2-1-6.4-0.5c-0.1,0-0.2,0.2-0.2,0.3c0,0.2,0,0.3,0,0.5c0.1,0,0.2-0.1,0.3-0.1
						c-0.5-0.3-0.8-0.3-1.4-0.1c-0.2,0.1-0.3,0.3-0.1,0.4c1,1.1,2.3,1.9,3.7,2.4c0.6,0.2,1.3,0.4,2,0.5c0.8,0.1,2.1-0.3,2.3,0.7
						c0,0.1,0.1,0.2,0.2,0.2c0.8-0.1-0.1,0.7-0.5,0.7c-0.3,0-0.9-0.1-1.2-0.2c-0.8-0.1-1.8-0.2-2.2-1.1c0-0.1-0.2-0.2-0.3-0.1
						c-1.6,1.2-3.3,2.4-5.4,2.2c-0.2,0-0.3,0.4-0.1,0.5c1.4,0.7,2.8,1.6,4.2,2.1c0.7,0.2,1.4,0.3,1.8-0.4c-0.1,0-0.3,0-0.4,0
						c0.3,0.6,0.8,0.9,1.5,0.8c0.4,0,0.8-0.2,1.2-0.3c0.9-0.3,1.8-0.4,2.7-0.2c-0.1-0.1-0.1-0.2-0.2-0.3c-0.1,0.7-0.1,1.4-0.1,2.2
						c0.1-0.1,0.2-0.2,0.2-0.2c-1.3,0.1-2.6,0-3.9-0.4c-0.8-0.2-1.6-0.7-2.5-0.6c-1,0.2-1.9,0.6-2.9,0.9c-1.1,0.4-2.6,1.3-3.8,0.6
						c-0.2-0.1-0.4,0-0.4,0.2c0.1,0.9,0.7,1.5,1.7,1.5c-0.1-0.1-0.2-0.2-0.2-0.3c-0.2,0.5,0.2,0.9,0.7,1c0.7,0.1,1.2-0.2,1.9,0.1
						c0.4,0.2,0.8,0.5,1.3,0.6c0.7,0.1,1-0.2,1.7,0.2c1.5,0.9-1.1,0.8-2,0.5c-0.5-0.2-0.9-0.4-1.4-0.6c-0.3-0.2-0.7-0.5-1.1-0.5
						c-0.5,0-0.9,0.3-1.4,0.3c-0.5,0-1-0.1-1.4-0.3c-0.1-0.1-0.3,0.1-0.3,0.2c0.1,0.5,0.2,0.8,0.4,1.2c0-0.1,0.1-0.2,0.1-0.3
						c-0.4,0.3-0.7,0.5-1.1,0.7c-0.2,0.1-0.2,0.3,0,0.4c0.5,0.1,0.7,0.5,0.7,1.1c0,0.1-0.1,0.2-0.1,0.2c0,0,0,0.1,0,0.2
						c0.2,0.4,0.3,0.3,0.5,0.8c0.1,0.3,0,0.3,0.1,0.5c0.6,0.9,1.6,0,2-0.6c-0.1,0-0.3,0-0.4,0.1c0.3,0.3,1.4,1.3,0.2,1.4
						c-0.1,0-0.3,0.2-0.2,0.3c0.8,2,3.5,0.9,4.4,2.6c0-0.1,0.1-0.2,0.1-0.3c-2.1,1.5-4.2-1.2-6.2-0.2c0.1,0,0.2,0.1,0.4,0.1
						c-0.1-0.2-0.1-0.4-0.2-0.6c-0.1-0.3-0.5-0.2-0.5,0.1c0,1.2,0.4,2.3,1.3,3.2c0-0.1,0-0.3,0.1-0.4c-1.1,0.7-2.2,0.8-3.5,0.6
						c-0.4-0.1-0.9-0.3-1.3,0c-1,0.9,1.3,1.8,1.8,2.2c0-0.1-0.1-0.2-0.1-0.3c-0.8,1.6-2.1,0.2-3.1,0.4c-0.9,0.2-1.2,1.3-2.3,0.9
						c-0.3-0.1-0.4,0.2-0.2,0.4c0.6,0.5,0.7,1.1,0.1,1.8c-0.2,0-0.3,0.2-0.2,0.4c0.8,1.3,2.2,1.5,3.6,1.8c0.6,0.1,1.2,0.2,1.7,0.5
						c0.5,0.3,0.7,0.8,1.1,1.2c0.4,0.4,0.7,0.6,1.2,0.6c0.4,0,0.8-0.4,1.3-0.4c0.4,0,0.9,0.1,1.3,0.2c1.2,0.1,2.5,0.5,3.7,0.4
						c0.8,0,1.6-0.7,0.9-1.4c-0.1,0.1-0.2,0.3-0.2,0.4c2.2,0.4,4.4,0.8,6.5,1.1c0.5,0.1,1.1,0.1,1.6-0.1c0.3-0.1,0.3-0.2,0.5-0.4
						c0.2-0.2,1.5-1.7,1.2-0.6c0,0.1,0,0.2,0.1,0.2c0.4,0.3,0.7,0.3,0.9-0.1c0.2-0.3-0.2-0.5-0.4-0.3c-0.1,0-0.1-0.1,0.1-0.3
						c0-0.1,0-0.2-0.1-0.3c-1.7-0.8-1.9,1.4-3.4,1.4c-2.3-0.1-4.7-0.7-6.9-1.1c-0.2,0-0.4,0.2-0.2,0.4c0.6,0.7-1.1,0.5-1.1,0.5
						c-0.4,0-0.8-0.1-1.2-0.1c-0.8-0.1-1.6-0.2-2.4-0.3c-0.5-0.1-1-0.2-1.5,0c-0.2,0-0.4,0.2-0.5,0.2c-0.5,0-1-0.3-1.4-0.7
						c-0.6-0.8-1.3-1.2-2.3-1.4c-1.3-0.3-2.9-0.3-3.7-1.6c-0.1,0.1-0.1,0.3-0.2,0.4c1.7,0,1-1.9,0.3-2.6c-0.1,0.1-0.2,0.3-0.2,0.4
						c1.4,0.5,2-0.9,3.4-0.8c1.1,0.1,2.1,0.3,2.6-0.8c0.1-0.1,0-0.3-0.1-0.3c-0.3-0.2-1.8-0.9-0.9-1.3c0.2-0.1,1.1,0.2,1.4,0.2
						c0.9,0,1.7-0.3,2.5-0.8c0.1-0.1,0.2-0.3,0.1-0.4c-0.8-0.8-1.1-1.7-1.2-2.8c-0.2,0-0.3,0-0.5,0.1c0.1,0.2,0.1,0.4,0.2,0.6
						c0.1,0.2,0.2,0.2,0.4,0.1c1.2-0.6,2.8,0.6,4,0.7c0.8,0.1,1.5,0,2.2-0.5c0.1-0.1,0.2-0.2,0.1-0.3c-0.9-1.7-3.7-0.8-4.3-2.5
						c-0.1,0.1-0.2,0.2-0.2,0.3c0.5-0.1,0.9-0.2,1.2-0.7c0.1-0.1,0-0.2,0-0.3c-0.3-0.4-0.7-0.8-1-1.2c-0.1-0.1-0.3-0.1-0.4,0.1
						c-0.4,0.1-0.8,0.2-1.2,0.3c0-0.1,0-0.2,0-0.3c0,0-0.1-0.2-0.1-0.2c-0.1-0.3-0.2-0.5-0.3-0.8c-0.1-0.7-0.3-1-1-1.3
						c0,0.1,0,0.3,0,0.4c0.4-0.2,0.8-0.4,1.1-0.7c0.1-0.1,0.2-0.2,0.1-0.3c-0.1-0.3-0.2-0.6-0.4-0.9c-0.1,0.1-0.2,0.2-0.3,0.2
						c0.7,0.3,1.4,0.4,2.2,0.2c1.4-0.2,2.2,0.5,3.4,1c1,0.4,2.4,0.5,2.8-0.8c0.2-0.8-0.5-1.3-1.2-1.2c-0.7,0-1.3,0.3-2-0.1
						c-0.3-0.1-0.5-0.3-0.8-0.5c-0.2-0.1-0.4-0.2-0.7-0.2c-0.2,0-1.6,0.2-1.4-0.2c0.1-0.1-0.1-0.3-0.2-0.3c-0.4-0.3-0.8-0.6-1.2-1
						c-0.1,0.1-0.3,0.1-0.4,0.2c1.7,1,4-0.5,5.7-1c0.6-0.2,1.3-0.5,1.9-0.4c0.6,0.1,1.2,0.5,1.8,0.6c1.2,0.3,2.5,0.4,3.8,0.3
						c0.1,0,0.3-0.1,0.2-0.2c0-0.7,0-1.4,0.1-2c0-0.1,0-0.3-0.2-0.3c-0.6-0.1-1.2-0.2-1.8-0.1c-0.8,0.1-2.8,1.2-3.4,0
						c-0.1-0.2-0.3-0.2-0.4,0c-0.6,1-4.6-1.6-5.3-2c0,0.2-0.1,0.3-0.1,0.5c2.2,0.2,4-1.1,5.6-2.3c-0.1,0-0.2-0.1-0.3-0.1
						c0.4,0.8,1.1,1.1,2,1.2c0.9,0.2,2.4,0.7,3.3,0.3c0.4-0.2,0.8-0.7,0.6-1.2c-0.1-0.2-0.3-0.4-0.5-0.5c-0.6-0.2-0.8,0.1-0.9-0.7
						c0-0.1-0.1-0.2-0.2-0.2c-2.9,0.3-5.6-0.6-7.6-2.7c0,0.1-0.1,0.3-0.1,0.4c0.3,0,0.6,0,1,0c0.1,0.1,0.3,0,0.3-0.1
						c0.2-0.3,0.2-0.5,0.1-0.9c-0.1,0.1-0.1,0.2-0.2,0.3c2.2-0.5,4.2,0.9,6.4,0.5c0.2,0,0.2-0.3,0.1-0.4c-0.6-0.6-1.2-1.3-1.7-1.9
						c-0.2-0.2-0.7-0.6-0.8-0.9c-0.4-1.4,0.2-0.4,0.1-0.8c-0.1-1.3-1.4-0.7-1.9-1.6c-0.1,0.1-0.1,0.3-0.2,0.4
						c0.6-0.1,1.2-0.1,1.8-0.2c0.1,0,0.2-0.1,0.2-0.2c0-1.6-2.1-1-3-1.5c0,0.1,0,0.3,0,0.4c0.7-0.4,1.5-0.6,2.3-0.7
						c0.2,0,0.3-0.2,0.2-0.4c-0.1-0.3-0.2-0.5-0.3-0.8C323.1,302.7,322.6,303,322.8,303.3L322.8,303.3z"/>
				</g>
			</g>
			<g>
				<g>
					<path class="st23" d="M331.5,344.8c0.1,0.5-0.6,1.1-0.9,1.4c-0.2,0.1-0.3,0.3-0.5,0.4c-0.3,0.4-0.4,0.6-0.3,1.1
						c0,0.2,0.2,0.3,0.3,0.2c0.5-0.2,1-0.2,1.6-0.2c-0.1-0.1-0.1-0.3-0.2-0.4c-0.2,0.4-0.2,0.3-0.2,0.8c0,0.2,0.2,0.3,0.3,0.2
						c0.1,0,0.1,0.1,0.2,0.1c0,0.1,0.2,0.2,0.4,0.1c0.8-0.6,1.7-0.2,2.6-0.4c0.3-0.1,1-0.3,1-0.7c0.1-0.5-0.5-0.7-0.7-1
						c-0.4-0.7-0.3-1.5-0.1-2.3c0.2-1,0.7-1.1,1.6-0.6c0.8,0.4,1.4,1.4,2.3,1.5c0.8,0.1,1.2-0.3,2.1,0c1.6,0.7,3.1,0.7,4.7,0
						c0.2-0.1,0.1-0.5-0.1-0.5c-1.5,0-2.8-0.6-3.9-1.6c-0.1,0.1-0.2,0.3-0.3,0.4c1,0.5,2.1,0.9,3.3,0.9c0.6,0,1.5-0.3,2.1-0.2
						c0.6,0.2,1,0.5,1,1c0,0,0,0.1,0,0.1c0.1,0.1,0.1,0.2,0.2,0.3c0.4,0.2,0.8,0.1,1.2,0.3c0.5,0.2,0.9,0.5,1.3,0.6
						c0.4,0.1,0.7,0.2,1.1,0.1c1-0.1,1.7-0.4,2.8,0.1c0.3,0.1,0.4-0.3,0.2-0.4c-0.5-0.7-1.3-0.8-2-1.2c-1.1-0.5-1.9-1.3-2.6-2.2
						c0,0.1,0,0.3-0.1,0.4c0.5-0.4,1.1-0.5,1.8-0.2c0.2,0.1,0.4,0,0.4-0.2c0-0.4,0-0.7,0.1-1.1c-0.1,0.1-0.2,0.2-0.3,0.2
						c1.2,0.4,3.4,0.9,4.4-0.1c0.4-0.5,0.8-0.9,1.5-1c0.4-0.1,0.8,0,1.1-0.2c0.5-0.2,0.8-0.7,0.8-1.2c0-0.2-0.2-0.3-0.3-0.2
						c-1.6,0.3-3.4,0.4-4.9,0c-0.5-0.1-0.9-0.5-1.4-0.6c-0.4,0-0.7,0.1-1.1,0.2c-0.8,0.2-1.6,0.4-2.5,0.4c-0.8,0-1.4-0.4-2.1-0.6
						c-1.1-0.3-2.6,0.2-3.5-0.6c-0.1,0.1-0.1,0.3-0.2,0.4c1.6,0.1,2.9,0,4.3-0.8c0.7-0.4,1.4-1,2.3-0.9c0.5,0.1,0.8,0.3,1.3,0.2
						c1-0.1,1.5-0.7,2.1-1.5c0.3-0.4,0.9-0.7,1-1.2c0-0.1,0-0.3,0-0.4c0-0.1-0.1-0.2-0.1-0.3c0.7-1.1,1.4-1.4,2.3-0.8
						c0.2,0.1,0.4,0,0.4-0.2c-0.1-0.8-0.6-1.2-1.3-1.4c-1.6-0.3-3.4,0-5.1-0.1c-1.5-0.1-2.5-1-4.1-0.9c-0.7,0.1-1.3,0.2-2,0.3
						c-0.5,0.1-1,0.1-1.5,0.2c-0.2,0-0.3,0-0.5,0.1c-0.8,0.3-1.4,0.1-1.8-0.7c-0.1,0.1-0.2,0.1-0.3,0.2c0.3,0.1,0.4,0.1,0.8,0.1
						c0.7,0,1-0.1,1.7,0.1c0.5,0.2,0.7,0.2,1.3,0c1.3-0.5,2.6-0.6,2.7-2.2c-0.1,0.1-0.2,0.2-0.2,0.2c0.8-0.1,1.5-0.3,2.2-0.7
						c0.2-0.2,0.1-0.5-0.2-0.5c-1,0.2-5.5,1-5.8-0.5c-0.1,0.1-0.2,0.2-0.3,0.3c2.1,0.4,4.2,0.2,6.2-0.5c0.9-0.3,1.6-1.2,0.4-1.8
						c-0.7-0.4-1.5-0.2-2.3-0.2c-1.1-0.1-2.1-0.7-3.2-0.7c-1.2,0-2.3,0.7-3.5,0.4c-0.8-0.2-1.3-0.6-2.1-0.4c0.1,0.1,0.2,0.2,0.3,0.4
						c0.4-0.6,1.7-0.4,2.3-0.5c0.8-0.2,1.6-0.5,2.4-0.8c0.5-0.1,0.9-0.3,1.4-0.3c0.4,0,0.9,0.2,1.3,0.2c0.9,0,1.7-0.6,2.5-0.1
						c0.3,0.2,0.5-0.2,0.3-0.4c-0.6-0.5-1.1-0.4-1.8-0.3c-0.6,0.1-1.1,0.2-1.6,0.1c-0.2,0-0.4-0.1-0.6-0.1c-0.5,0-0.9,0.1-1.4,0.2
						c-1.2,0.3-2.2,0.9-3.5,0.9c-0.7,0-1.3,0-1.7,0.6c-0.1,0.2,0.1,0.4,0.3,0.4c0.8-0.2,1.5,0.4,2.2,0.5c0.4,0,0.7,0,1.1-0.1
						c0.7-0.1,1.4-0.4,2.1-0.4c0.8,0,1.5,0.4,2.3,0.6c0.5,0.1,1,0.1,1.5,0.1c0.3,0,2-0.1,1.1,1c-0.1,0.1-0.7,0.2-0.8,0.3
						c-1.7,0.5-3.4,0.5-5.1,0.2c-0.2,0-0.3,0.1-0.3,0.3c0.2,0.8,0.9,1,1.6,1.1c1.6,0.2,3.3,0,4.8-0.2c-0.1-0.2-0.1-0.3-0.2-0.5
						c-0.6,0.4-1.2,0.6-1.9,0.7c-0.1,0-0.2,0.1-0.2,0.2c-0.1,2-1,1-1.8,1.4c-0.6,0.3-1,0.4-1.7,0.2c-0.3-0.1-0.4-0.2-0.7-0.2
						c-0.6,0-1,0.2-1.6,0.1c-0.1,0-0.3,0-0.3,0.2c-0.9,2.5,4.7,1,5.6,0.9c0.6-0.1,1.3-0.2,1.8-0.1c0.5,0.1,0.8,0.4,1.2,0.6
						c0.5,0.2,0.9,0.2,1.5,0.3c1,0,5.9-0.5,6.1,1c0.1-0.1,0.3-0.1,0.4-0.2c-0.9-0.4-2.1-0.8-2.9,0.1c-0.3,0.4-0.3,0.7-0.2,1.1
						c0,0.8-0.4,1.1-0.8,1.7c-0.5,0.9-1.4,1.5-2.5,1.1c-0.8-0.3-0.8-0.3-1.7,0c-0.6,0.3-1.1,0.6-1.7,0.9c-1.2,0.6-2.4,0.6-3.7,0.6
						c-0.2,0-0.3,0.3-0.2,0.4c0.8,0.7,1.6,0.6,2.6,0.6c1.5,0,2.8,0.9,4.4,0.7c0.9-0.1,2-0.7,2.9-0.4c0.5,0.2,0.9,0.4,1.5,0.5
						c1.6,0.2,3.1,0.2,4.6-0.1c-0.1-0.1-0.2-0.2-0.3-0.2c0,1.2-2.8,0.6-3.3,1.6c-0.3,0.6,0.3,0.6-0.9,0.8c-1,0.1-2-0.1-3-0.4
						c-0.2-0.1-0.3,0.1-0.3,0.2c0,0.4,0,0.7-0.1,1.1c0.1-0.1,0.3-0.1,0.4-0.2c-0.8-0.4-1.5-0.3-2.3,0.2c-0.1,0.1-0.2,0.3-0.1,0.4
						c0.6,0.7,1.2,1.4,2.1,1.9c0.8,0.5,2,0.7,2.6,1.5c0.1-0.1,0.2-0.3,0.2-0.4c-0.5-0.2-1-0.3-1.5-0.3c-0.7,0-1.4,0.4-2.2,0.2
						c-0.5-0.1-1-0.5-1.5-0.7c-0.6-0.2-0.9-0.2-1.2-0.7c-0.5-0.7-0.8-1-1.7-0.9c-1.8,0.1-3.2,0.2-4.9-0.7c-0.2-0.1-0.5,0.2-0.3,0.4
						c1.1,1.2,2.6,1.8,4.2,1.8c0-0.2-0.1-0.3-0.1-0.5c-1.4,0.6-2.8,0.6-4.2,0c-0.3-0.1-0.6-0.3-1-0.3c-0.3,0-0.5,0.1-0.7,0.2
						c-1.2,0.1-2-1.1-3-1.6c-0.4-0.2-1-0.4-1.4-0.2c-0.5,0.3-0.7,1.5-0.7,2.1c-0.1,0.5,0,1.1,0.2,1.6c0.1,0.1,0.6,0.7,0.6,0.8
						c0.1,0.6-1,0.5-1.4,0.5c-0.7,0-1.3,0-1.8,0.4c0.1,0,0.2,0.1,0.4,0.1c-0.1-0.4-0.4-0.6-0.8-0.4c0.1,0.1,0.2,0.2,0.3,0.2
						c0.1-0.2,0.1-0.3,0.2-0.5c0.1-0.2,0-0.4-0.2-0.4c-0.6,0-1.1,0-1.7,0.2c0.1,0.1,0.2,0.2,0.3,0.2c-0.1-1.3,1.9-1.6,1.7-3
						C331.9,344.3,331.5,344.4,331.5,344.8L331.5,344.8z"/>
				</g>
			</g>
			<g>
				<g>
					<path class="st23" d="M333.4,276.6c0,0.4,0,0.8,0,1.2c0,0.1,0.1,0.3,0.2,0.3c0.5-0.1,0.4,0,0.9-0.2c-0.1-0.1-0.2-0.1-0.3-0.2
						c0.1,0.6-0.8,1.6-0.9,2.2c-0.1,0.6-0.1,1.3,0.1,1.9c0,0.1,0.2,0.2,0.4,0.1c0.6-0.4,1.3-0.6,2-0.8c-0.1-0.1-0.2-0.2-0.3-0.2
						c-0.1,1.1-1,1.9-1.3,2.9c-0.2,0.8-0.2,1.5-0.1,2.3c0,0.2,0.3,0.2,0.4,0.1c0.4-0.4,0.9-0.9,1.3-1.3c-0.1,0-0.3,0-0.4-0.1
						c0.2,0.2,0.3,0.5,0.3,0.8c0,0.1,0.2,0.2,0.3,0.2c0.8-0.3,1.7-0.6,2.5-0.8c-0.1-0.1-0.2-0.1-0.3-0.2c0.3,0.9-3.1,1.8-3.7,2
						c-0.2,0.1-0.2,0.4,0,0.5c1.2,0.5,2.4-1,3.4-0.4c0-0.1,0-0.3-0.1-0.4c-1.1,1.1-2.3,1.9-3.7,2.7c-0.1,0.1-0.2,0.3-0.1,0.4
						c0.6,0.5,0.5,0.8,0.1,1.4c-0.1,0.1,0,0.3,0.1,0.4c0.8,0.1,1.2-0.1,1.8-0.6c1-0.8,1.8-1.4,3.1-1.6c-0.1-0.1-0.2-0.2-0.3-0.4
						c-0.3,0.4-0.2,0.3-0.3,0.7c0,0.1,0,0.3,0.2,0.3c1.1,0.4,0,0.9-0.4,1.3c-0.2,0.2-0.3,0.3-0.3,0.6c-0.1,0.2,0.1,0.4,0.3,0.3
						c0.1,0.3,0.2,0.5,0.2,0.8c-0.1,0.1-0.1,0.2-0.2,0.3c-0.1,0.2-0.2,0.4-0.3,0.6c-0.2,0.5-0.2,1-0.2,1.5c0,0.2,0.2,0.3,0.3,0.2
						c1.4-0.3,2.8-0.6,4.2-1c-0.1-0.1-0.2-0.2-0.3-0.4c-1.1,1.6-3.5,1.5-5,2.6c-0.1,0.1-0.1,0.3,0.1,0.4c0.6,0.4,1.3,0.4,2,0.3
						c0.5-0.1,1-0.3,1.5-0.4c0.5-0.1,2.2-0.5,1.6,0.4c-0.5,0.8-2,1.1-2.9,1.4c-0.8,0.3-1.5,0.6-2.1,1.2c-0.1,0.1-0.1,0.4,0.1,0.4
						c1.4,0.4,2.7,0.2,3.9-0.5c-0.1,0-0.2-0.1-0.4-0.1c0.1,0.2,0.1,0.4,0.2,0.6c0,0.1,0.1,0.2,0.2,0.2c1,0,4.2-1.5,4.3,0.5
						c0.1-0.1,0.2-0.2,0.2-0.2c-1-0.1-2-0.3-2.9-0.1c-1.1,0.2-2,1-3,1.3c-1,0.4-1.6,0.2-2.3-0.6c-0.2-0.2-0.3-0.4-0.5-0.5
						c-0.7-0.4-1.7,0.3-2.3-0.2c-0.1-0.1-0.3-0.1-0.4,0.1c-0.4,0.6-0.8,1.4-0.5,2.1c0.3,0.7,0.9,0.9,1.6,0.7
						c0.8-0.2,1.3-0.6,2.2-0.6c0.7,0,1.3,0,2,0c0.9-0.1,1.7-0.3,2.3-1c-0.1-0.1-0.3-0.1-0.4-0.2c0,0.4,0.1,0.9,0.1,1.3
						c0,0.1,0.1,0.3,0.2,0.2c0.9-0.1,1.7,0.4,2.5,0.7c0-0.2,0.1-0.3,0.1-0.5c-0.8,0.1-1.7,0.2-2.2,0.9c-0.3,0.3-0.2,0.7-0.7,0.8
						c-0.3,0.1-0.5-0.1-0.7,0.1c-0.2,0.2-0.2,0.4-0.3,0.6c-0.3,0.8-0.5,1-1.2,1.5c-0.6,0.4-1.2,0.8-1.3,1.5c0,0.2,0.2,0.4,0.4,0.2
						c1.6-1.4,3.9-0.8,5.8-0.4c0.3,0.1,0.6,0.1,1,0.2c-0.2,0.2-0.5,0.4-0.7,0.6c-0.3,0.1-0.6-0.1-1,0c-0.3,0.1-0.6,0.3-0.7,0.7
						c-0.2,1.1,1.5,1.5,2.1,1.9c1.7,0.9,3.1,2.1,4.4,3.6c0.1-0.1,0.2-0.3,0.2-0.4c-0.9-0.3-1.8-0.2-2.8-0.2c-0.9,0-1.4-0.3-2.1-0.9
						c-0.3-0.2-0.5-0.5-0.9-0.7c-0.4-0.2-0.8-0.2-1.2,0c-0.5,0.3-0.5,0.8-1.3,0.6c-0.3-0.1-0.5-0.4-0.8-0.5
						c-0.9-0.3-1.6,0.3-1.5,1.3c0,0.3,0.1,0.5,0.3,0.7c0.1,0.2,0.7,0.5,0.8,0.7c0.4,0.9-0.8,0.6-1.2,1.1c-0.1,0.1-0.1,0.3,0.1,0.4
						c1.7,0.8,3.6,0,5.4,0.1c2.2,0.1,4.2,0.8,6.4,0.6c-0.1-0.1-0.2-0.2-0.2-0.2c0,1-0.5,1.8-1.4,2.2c-0.2,0.1-0.2,0.4,0,0.4
						c0.2,0.1,0.4,0.2,0.7,0.3c0-0.1-0.1-0.2-0.1-0.3c-0.4,0.6-0.8,1.1-1.6,1.2c-0.3,0-0.3,0.5,0,0.5c1-0.1,1.5-0.7,2-1.5
						c0.1-0.1,0-0.3-0.1-0.3c-0.2-0.1-0.4-0.2-0.7-0.3c0,0.1,0,0.3,0,0.4c1.1-0.5,1.7-1.4,1.7-2.6c0-0.1-0.1-0.3-0.2-0.2
						c-1.9,0.2-3.7-0.3-5.5-0.5c-0.9-0.1-1.8-0.1-2.7,0c-1.1,0.1-2.2,0.4-3.3-0.1c0,0.1,0,0.3,0.1,0.4c0.4-0.4,2.1,0,1.9-1.1
						c-0.1-0.5-0.7-0.6-1-0.9c-0.6-0.4-0.4-0.8,0.5-1.4c0.2,0.1,0.3,0.2,0.5,0.3c0.2,0.1,0.3,0.2,0.5,0.2c0.3,0,0.5-0.1,0.7-0.2
						c0.6-0.4,1-0.7,1.9,0c0.2,0.2,0.4,0.4,0.7,0.6c1.3,0.9,3.1,0.3,4.5,0.7c0.3,0.1,0.4-0.2,0.2-0.4c-1.4-1.6-3-2.9-4.9-3.8
						c-0.4-0.2-2-0.7-0.8-1.5c0.3-0.2,0.9,0.2,1.3,0c0.3-0.1,0.6-0.4,0.6-0.8c0-0.3-0.1-0.5-0.3-0.7c-0.4-0.3-1.3-0.3-1.7-0.4
						c-0.5-0.1-1-0.2-1.6-0.3c-1.5-0.2-3-0.1-4.3,0.9c0.1,0.1,0.3,0.2,0.4,0.2c0.2-0.9,1.1-1.2,1.8-1.7c0.4-0.3,0.5-0.7,0.8-1.1
						c0.5-0.7,0.9-0.4,1.4-0.8c0.2-0.2,0.2-0.8,0.4-1c0.4-0.4,1.2-0.5,1.7-0.6c0.2,0,0.4-0.4,0.1-0.5c-1-0.4-1.7-0.9-2.8-0.8
						c0.1,0.1,0.2,0.2,0.2,0.2c0-0.4-0.1-0.9-0.1-1.3c0-0.2-0.3-0.4-0.4-0.2c-1.1,1.2-2.7,0.8-4.2,0.9c-0.5,0-0.9,0.1-1.3,0.3
						c-0.2,0.1-0.7,0.5-0.9,0.4c-0.2-0.5-0.5-1-0.7-1.5c0.1-0.2,0.2-0.4,0.4-0.6c-0.1,0-0.3,0-0.4,0.1c0.7,0.6,1.6,0.1,2.3,0.5
						c0.8,0.4,1,1.1,2,1.2c0.9,0.1,1.7-0.4,2.5-0.8c1.5-0.9,3-0.9,4.7-0.6c0.1,0,0.3-0.1,0.2-0.2c0-0.8-0.6-1.3-1.3-1.5
						c-0.8-0.2-3.1,0.8-3.4,0.1c0-0.2-0.2-0.2-0.4-0.1c-1.1,0.7-2.3,0.9-3.5,0.5c0,0.1,0.1,0.3,0.1,0.4c1-1,2.4-1.2,3.6-1.7
						c0.6-0.2,1.7-0.8,1.8-1.5c0.1-0.7-0.7-0.8-1.3-0.8c-1.5,0-3,1.2-4.4,0.3c0,0.1,0,0.3,0.1,0.4c1.5-1.2,3.9-1,5.1-2.7
						c0.1-0.2-0.1-0.4-0.3-0.4c-1.4,0.3-2.8,0.6-4.2,1c0.1,0.1,0.2,0.2,0.3,0.2c0-0.9,0.3-1.5,0.7-2.4c0.1-0.3,0.2-0.5,0.1-0.8
						c-0.1-0.5-0.5-0.7-1-0.5c0.1,0.1,0.2,0.2,0.3,0.3c0.2-0.8,1.5-0.7,1.6-1.6c0-0.7-0.6-0.7-1.1-0.9c0.1,0.1,0.1,0.2,0.2,0.3
						c0.1-0.2,0.2-0.4,0.3-0.6c0.1-0.2-0.1-0.4-0.3-0.4c-0.8,0.1-1.5,0.3-2.2,0.8c-0.8,0.5-1.5,1.6-2.5,1.4c0,0.1,0.1,0.2,0.1,0.4
						c0.2-0.3,0.4-0.6,0.5-0.9c0-0.1,0-0.2,0-0.3c-0.2-0.3-0.4-0.6-0.7-0.9c0,0.1,0,0.3-0.1,0.4c1.4-0.7,2.6-1.7,3.8-2.7
						c0.1-0.1,0.1-0.3-0.1-0.4c-1.3-0.7-2.3,0.9-3.5,0.4c0,0.2,0,0.3,0,0.5c1.1-0.4,2.5-0.8,3.5-1.4c0.5-0.3,0.8-0.7,0.6-1.3
						c0-0.1-0.2-0.2-0.3-0.2c-0.8,0.3-1.7,0.6-2.5,0.8c0.1,0.1,0.2,0.1,0.3,0.2c-0.1-0.4-0.2-0.6-0.4-0.9c-0.1-0.1-0.3-0.2-0.4-0.1
						c-0.4,0.4-0.9,0.9-1.3,1.3c0.1,0,0.3,0.1,0.4,0.1c-0.3-1.3,0-2.3,0.7-3.4c0.4-0.6,0.6-1,0.6-1.7c0-0.2-0.2-0.3-0.3-0.2
						c-0.8,0.1-1.4,0.4-2.1,0.8c0.1,0,0.2,0.1,0.4,0.1c-0.3-1.1-0.1-2,0.5-3c0.3-0.4,0.4-0.6,0.3-1.1c0-0.1-0.2-0.2-0.3-0.2
						c-0.2,0.1-0.5,0.1-0.7,0.2c0.1,0.1,0.2,0.2,0.2,0.3c0.1-0.5,0.1-0.9,0.1-1.4C333.9,276.3,333.4,276.3,333.4,276.6L333.4,276.6z
						"/>
				</g>
			</g>
		</g>
		<g>
			<rect x="23.9" y="94" class="st1" width="157.6" height="209.1"/>
			<g>
				<defs>
					<rect id="SVGID_3_" x="21.3" y="91.6" width="157.6" height="209.1"/>
				</defs>
				<clipPath id="SVGID_4_">
					<use xlink:href="#SVGID_3_"  style="overflow:visible;"/>
				</clipPath>
				<g class="st24">
					<g transform="matrix(1.3333 0 0 -1.3333 -120.27 885.48)">
						<g>
							<path class="st3" d="M177.5,453.6l0.1-2.7l1.2,0c-0.1-0.6-0.5-2.1-0.8-3.5c-0.6,1.9-1.7,6.1-1.7,6.1l-2.5-0.1
								c0,0-1-4.3-1.4-6.2c-0.4,1.4-0.8,2.9-1,3.4l1.3,0.1l-0.1,2.7l-6.4-0.2l0.1-2.7l1.3,0.1c0.2-0.6,2.4-8.5,2.4-8.5l3.6,0.1
								c0,0,0.6,2.6,0.9,4.2c0.4-1.6,1.2-4.1,1.2-4.1l3.6,0.1c0,0,1.8,8.1,1.9,8.7l1.3,0.1l-0.1,2.7L177.5,453.6z M182.1,451.4
								l-1.2,0c0,0-1.9-8.5-1.9-8.7l-3-0.1c0,0.1-1.5,5.3-1.5,5.3s-1.2-5.3-1.2-5.4l-3-0.1c0,0.1-2.4,8.5-2.4,8.5l-1.2,0l-0.1,1.9
								l5.5,0.2l0.1-1.9l-1.4-0.1l1.6-5.4c0,0,1.7,7.4,1.7,7.4l1.9,0.1c0-0.1,2.1-7.3,2.1-7.3l1.3,5.6l-1.3-0.1l-0.1,1.9l4.1,0.1
								L182.1,451.4z"/>
						</g>
					</g>
					<g>
						<path class="st4" d="M146,207.4c0.1,0.1,0.3,0.2,0.5,0.3C146.3,207.6,146.1,207.5,146,207.4z"/>
						<path class="st4" d="M146.3,202.2c-0.2,0.5-0.4,1.1-0.6,1.6C145.8,203.2,146,202.7,146.3,202.2z"/>
						<path class="st4" d="M71.9,238.2c-0.3-1.5-0.6-3.1-0.2-4.6s1.7-2.8,3.1-2.8c0.3,0.6-0.3,0.8-0.6,1.1c-0.4,0.2-1.3,1.1-1.5,2
							c-0.4,2.5,0.3,4.8,1.4,7.4c0.7-1.9,1.2-3.4,1.8-4.9c0.9-2.3,1-4.7,1.2-7.1c0-0.5-0.1-1-0.5-1.4c-0.2-0.2-1,0-1.3,0.2
							c-0.3,0.3-1.5,0.7-2.4,0.8c-0.7,0.1-1.5,0.3-2.2,0.4l-12.1,3.1c-2.8,0.8-5.5,1.7-7.9,3.3c-1.9,1.3-3.1,3-3.6,5.3
							c-0.2,1.1,0.2,2.2,1,2.9c0.8-0.8,0.8-0.8,1.7-0.4l9.8,4.3c4.8,2.1,9.6,4.2,13.9,7.2c1.1,0.8,2.2,1.4,3.4,2.1
							c0.7,0.4,1.4,0.7,2.4,0.3c-0.4-0.5-0.9-1-1.3-1.4c-3-2.4-5.8-4.9-9-7c-3.8-2.5-7.1-5.4-10.7-8.2c-0.4-0.4-0.8-0.8-1.1-1.4
							c-0.4-0.6-0.1-1.2,0.4-1.7c0.5-0.5,0.9-0.5,1.4,0c-0.4,0.4-0.7,0.8-1,1.2c0.3,0.4,0.5,0.7,0.8,0.9c2.5,2.1,5,4.2,7.6,6.1
							c3.4,2.4,6.9,4.6,9.9,7.3c1,0.9,2.1,1.8,3.1,2.7c1,0.9,1.7,1.1,2.9,0.7l-5.4-7.7C74.8,245.8,72.8,242.3,71.9,238.2z"/>
						<path class="st4" d="M147,200.4c-0.1,0.3-0.3,0.6-0.4,0.9C146.8,201,146.9,200.7,147,200.4z"/>
						<path class="st4" d="M144.9,208.6c0.6,0,1.3-0.2,1.9-0.7c-0.1-0.1-0.2-0.1-0.3-0.2c0.1,0.1,0.2,0.1,0.3,0.2
							C146.3,208.4,145.6,208.6,144.9,208.6z"/>
						<path class="st4" d="M122.4,179.2c0.7,0.1,1.1-0.2,1.4-0.8c0.5-1.2-0.2-1.9-1.1-2.7c-0.9,0.5-1.8,0.9-1.6,2.1
							C121.1,178.5,121.7,179.1,122.4,179.2z"/>
						<path class="st4" d="M128.3,187.4c0.6,0,1.1-0.2,1.6-0.6c1.9-1.7,2.7-3.9,2.2-6.4c-0.4-2.5-2-4.3-4.5-5.1
							c-1.1-0.4-2.4-0.4-3.6,0c0.1,0.2,0.1,0.4,0.1,0.4c0.5,0.1,1,0.2,1.5,0.2c2.3,0.1,4.2,1.8,4.6,4c0.4,2.3-1.1,4.7-3.4,5.6
							c-2.2,0.9-4.6,0.1-5.9-1.9c-0.6-1-0.8-2.1-0.6-3.2c0.1-0.7,0.2-1.3-0.5-1.8c-1.6,2.1-1.5,5.7,0.2,7.6c0.4,0.3,0.8,0.6,1.2,0.6
							C123.6,187.3,125.9,187.5,128.3,187.4z"/>
						<path class="st4" d="M132.9,159.8c-3.4-0.3-6.7-0.3-9.9,0.9c-0.5,0.2-0.9,0.4-1.4,0.6c4.7,0.4,9.2,1,13.9,2.6
							c-0.5-1.2-1-2.1-1.3-3C134.2,160.3,133.6,159.8,132.9,159.8z"/>
						<path class="st4" d="M147.4,199.8c-0.1,0.2-0.2,0.4-0.3,0.6C147.2,200.2,147.2,200,147.4,199.8z"/>
						<path class="st4" d="M110.2,292.1c0,0.1,0,0.1,0,0.2C110.2,292.2,110.2,292.1,110.2,292.1z"/>
						<path class="st4" d="M147.9,198.7c-0.2,0.4-0.4,0.8-0.5,1.1C147.5,199.4,147.7,199.1,147.9,198.7z"/>
						<path class="st4" d="M148.7,232c-3.2,4-7.3,6.9-11.8,9.2c-3.1,1.6-6.3,2.9-9.5,4.2c-5.5,2.3-11,4.6-16.2,7.6
							c-0.3,0.2-0.7,0.3-1.1,0.5l0,0c-0.3-1,0.3-1.1,0.7-1.4c1.7-0.9,3.4-2,5.2-2.8c5.7-2.5,11.4-5,17.2-7.5c4.7-2,9.1-4.9,12.9-8.3
							c1.5-1.4,1.9-2.9,1.6-4.9c-0.1-0.9-0.5-1.6-1.1-2.2c-2.5-2.2-5.4-3.6-8.8-3.8c-1.8-0.1-3.5-0.2-5.3-0.3
							c-1.6-0.1-3.2,0.3-4.4,1.3c-3.1,2.4-6.6,4.2-10.3,5.5c-1.1,0.3-2.1,0.9-2.8,1.8c-1,1.3-2,2.6-2.9,4c-0.9,1.5-1.7,3.1-2.6,4.7
							c-0.5,0.9-1,1.6-1.5,2.5c-0.8,1.4-1.5,2.9-1.9,4.7c0.3-0.1,0.6-0.3,1-0.5c6-4.5,12.7-7.6,19.4-10.8c3.1-1.5,6.3-2.8,9.4-4.5
							c2.3-1.2,4.4-2.9,6.8-4.4c0.1,0.2,0.2,0.6,0.1,0.8c-0.3,0.4-0.6,0.8-1,1.1c-2.3,1.9-4.9,3.5-7.6,4.7c-6.6,3-13.2,6.1-19.5,9.6
							c-6.4,3.5-11.9,8-17.2,13c-0.3,0.3-0.6,0.7-0.8,1l0.2,0.2l7.3-3.5c0-0.3,0-0.7,0-1.1c0-1.1,0.9-2,1.9-2.2
							c1.1-0.2,2.2,0.4,2.5,1.5c0.2,0.8,0.3,1.6,0.2,2.3c-0.1,1.1-0.3,2.1-0.5,3.3l1.1-0.3c5.9-2.1,11.8-4.3,17.5-7.1
							c5.6-2.8,10.5-5.5,16.1-7.6c4.3-1.6,8.2-4.1,12.8-4.7C155.3,234.7,152,232.1,148.7,232z"/>
						<path class="st4" d="M84.7,180.8c0.6,0,1.1-0.1,1.6-0.4c2.3-1.7,3.4-4.1,3.2-7c-0.3-4.4-4.5-6.9-8.4-4.7
							c1,0.2,1.8,0.6,2.6,0.6c3.4,0.1,5.5,2.7,5,6c-0.4,2.5-2.7,4.4-5.2,4.3c-2.5-0.1-4.3-2.1-4.5-4.8c-0.1-1.1-0.4-2.2-0.7-3.6
							c-1.6,2.4-1.6,4.7-1.1,7.1C79.5,179.6,82,180.5,84.7,180.8z"/>
						<path class="st4" d="M95.6,156.8c-2.7-2.4-11.2-4.5-15.7-4.1l-2.8,3.6C83.2,155.9,89.4,156,95.6,156.8z"/>
						<path class="st4" d="M80.8,173.2c0.8,0,1.6-1,1.6-1.9c0-0.8-0.6-1.4-1.4-1.5c-0.9,0-1.6,0.9-1.6,1.8
							C79.4,172.6,80,173.2,80.8,173.2z"/>
						<path class="st4" d="M106.1,251.2c-0.6,0.1-1,0.5-1.1,1.1C105.1,251.8,105.5,251.3,106.1,251.2z"/>
						<path class="st4" d="M105.4,277.4c-1.1-6-0.7-12.1-0.4-18.2c0.1-1.6-0.6-3-0.4-4.6l0,0c-0.1,1.6,0.5,2.9,0.4,4.6
							C104.8,265.3,104.3,271.4,105.4,277.4c0.9,5,1.9,9.9,2.9,14.9c0.1,0.6,0.4,1.1,0.6,1.7c-0.3-0.6-0.5-1.1-0.6-1.7
							C107.3,287.3,106.3,282.4,105.4,277.4z"/>
						<path class="st4" d="M105,252.5c0,0.8,0,1.1,0,1.4C105,253.6,105.1,253.1,105,252.5z"/>
						<path class="st5" d="M108.9,294.6c0.3,0.5,0.5,1.1,0.6,1.4c0.6,2.1,1.1,4.1,1.6,6.2l0.3,0.8c0.5-1.5-0.9-7-2-8.5
							C109.2,294.5,109,294.6,108.9,294.6z"/>
						<path d="M164.2,245.5c-2.4-1.7-4.7-3.5-7.2-5.4c0.5-5.4-2.8-8-7.6-9.3c0-0.4,0.1-0.9,0-1.1c-0.9-0.8-0.7-1.9-1.1-2.8
							c-0.2-0.4-0.5-0.8-0.9-1.1c-1.9-1.8-4-3.4-6.7-3.9c-1.9-0.3-3.9-0.5-5.9-0.6c-1.2-0.1-2.4-0.1-3.9-0.2c2.4-2.3,4-4.7,5.4-7.3
							c1.4-2.6,2.8-5.1,4.2-7.9l0.4,1c1.1,2.6,4.9,3.6,7,1.7c0.7-0.7,1.5-2.1,1.8-2.5s0.4-1.1,0.8-1.4c1.5-1.2,2.2-2.8,3-4.5
							c1.6-3.9,2.6-7.9,2.8-12.1c0.1-2,0-4.1-0.3-6.1c-0.2-1.6-0.9-3.1-2.6-3.5l-0.4-1.3c-1.2,0.8-2.2,1.8-3.1,2.9
							c-0.9,1-1.6,2.1-2.4,3.1l-0.1-0.1c0.5-1.3,1-2.6,1.6-3.9c-1.3-0.3-1.1,1-1.8,1.2c-0.4-0.6,0.7-1.6-0.6-1.9
							c-0.1,0.3-0.2,0.4-0.3,0.6c-0.6,3.9-1.8,7.7-1.9,11.7c0,0.6-0.4,1.4,0.5,1.6s0.9-0.8,1.1-1.3c0.9-2.4,1.9-5.2,2.6-7.1
							c0.7-1.9,2.1-3.3,3.3-4.4c2.4-0.2,2.8,1.4,3.1,2.9c0.1,0.2,0.1,0.5,0.1,0.8c0,2,0.1,4,0,5.9c-0.3,3.6-1.1,7.1-2.5,10.4
							c-0.1,0.3-0.3,0.5-0.5,0.8c0.2-1.8,0.5-3.6,0.6-5.3c0.1-1.3-0.2-2.5-1.2-3.4c-0.4-0.3-0.7-0.7-1.3-0.1
							c0.2,0.3,0.4,0.6,0.6,0.9c0.3,0.6,0.8,1.3,0.8,2c0.2,3.6-0.9,6.8-2.3,10l-2.5-0.7c0.9-2.7,2.6-5,3.3-7.9
							c-1.4-0.1-1,1.2-1.8,1.5c-1.8,0.1-2.1-0.2-1.9-1.9c0.1-0.7,0.3-1.4,0.6-2c0.6-1.3,1.6-2.3,3-2.7c-0.7-0.3-1-0.6-1.2-0.5
							c-0.6,0.2-1,0.5-1.4,0.9c-0.7,0.9-1.3,1.9-2.1,3c-0.8-0.3-1,0.3-1.3,1c-0.6,1.7-1.3,3.4-2,5.1c-1.7,3.6-3.6,7.3-5.4,10.9
							c-1.5,2.9-3.2,5.8-5.5,8.2c-3.9,3.9-8.6,6.6-13.8,8.4c-2.9,1-6,1.7-9.1,2.4c-4.6,1-9.4,1.1-14,0.1c-4-0.8-7.9-1.8-11.8-2.9
							c-2.5-0.7-4.8-1.8-6.9-3.3c-3.5-2.5-6.7-5.4-9.6-8.5c-3.4-3.6-6-7.9-7.5-12.5c-1.4-4.3-2-8.8-2.5-13.3
							c-0.2-2.1-0.2-4.2-0.4-6.2c0-0.5,0.1-1-0.9-1.1c-0.1,0.7-0.1,1.3-0.1,2c0.1,5.1,0.7,10.1,1.7,15.1c1.1,5.3,3.2,10.2,6.8,14.4
							c3.5,4.1,7.6,7.7,12.1,10.7c1.5,1,3.1,1.9,4.7,2.6c3.4,1.7,7.1,2.4,10.7,3.4c5.7,1.6,11.7,1.8,17.4,0.7
							c1.9-0.3,3.7-0.7,5.8-1.1c-0.7,1.1-1.4,2-1.9,2.9c-1.5,2.5-3,4.9-4.3,7.5c-1.1,2.1-2,4.2-2.8,6.4c-0.2,0.6-0.6,1.1-1,1.5
							c-3,2.4-6,4.9-8.4,7.7l-2,0.3c-1.9,0.2-3.5,0.5-5.7,0.6c-2.2,0.1-3.8-0.6-5.1-2.7c-1.4-2.1-3-4.2-4.3-6.2s-2.7-3.9-3.5-5.8
							c0.6-1.5,1.2-2.8,1.6-4.1c0.5-1.3,0.9-2.6,1.2-4c0.4-1.8,0.6-3.6,0.7-5.4c0.2-2.3-1.2-3.1-3.3-2.1c-0.6,0.3-1.1,0.6-1.8,0.7
							c-1.6,0.4-3.2,0.6-4.8,1.1c-4.4,1.1-8.8,2.3-13.2,3.6c-2.3,0.6-4.4,1.8-6.1,3.3c-1.8,1.4-2.9,3.6-3,5.8c-0.1,1,0.3,2,1,2.8
							c0.8,0.9,1.3,0.9,2.2,0c6.9,3.6,14.5,5.9,20.9,9.8c0.4,1.4,0.6,2.6,1,3.7c0.5,1.6,1.1,3.1,1.7,4.6c1.5,4.1,2.4,8.4,2.7,12.8
							c0.3,3.9,0.8,7.8,1.2,11.6c0,0.5,0.1,0.9,0.4,1.4c0.3,0.7,0.8,0.8,1.3,0.4c-0.3-0.9-0.6-1.8-0.7-2.6
							c-0.5-4.1-0.9-8.3-1.3-12.4c-0.3-3.5-0.9-6.9-2.2-10.2c-0.8-2-1.6-4.1-2.3-6.1c-0.3-0.6-0.4-1.4-0.6-2l0.3-0.2l2,1.3
							c0.3,0.9,0.5,1.6,0.8,2.4c3.9,8.8,6,18,5.8,27.7c0,0.7-0.1,1.4-0.2,2.1c-0.2,0-0.5,0-0.7,0c-0.2,0.1-0.3,0.2-0.5,0.3
							c1.1,1.2,1.7,1.1,2.2-0.1c0.2-0.5,0.3-1,0.3-1.6c-0.1-3.6-0.1-7.3-0.5-10.9c-0.8-6.1-2.7-11.9-5.1-17.4
							c-0.2-0.4-0.3-0.8-0.4-1.2c1.2,0.4,2.3,1,3.4,1.1c1.7,0.1,3.4-0.2,5.1-0.3c2.6-0.1,5.1-0.4,7.6-0.3c3.7,0.1,7.4,0.5,11.2,0.8
							c0.4,0,0.8,0,1.4,0c0,0.7,0,1.3,0,1.9c-0.6,7.7-0.1,15.5,1.5,23.1c0.6,3.1,1.3,6.2,2.1,9.2c0.3,1.1,0.4,1.4,1.1,1.3
							c-0.1,0.5-0.1,1-0.1,1.2c0.7,2.8,1.4,5.6,2.1,8.3c1.6,0.3,2.5-0.4,2.4-1.9c-0.1-0.7-0.2-1.5-0.5-2.2c-0.4-1.3-0.8-2.8-1.2-3.8
							c-0.4-1-0.5-2.3-0.2-3.1c0.3-0.8,0.1-1.7-0.1-2.7c-0.2-0.9-0.5-1.9-0.7-2.8c-1.4-6.3-2.1-12.7-2.2-19.1c0-2.9-0.1-5.9-0.1-8.8
							c0-1.4,0.1-1.4,1.4-1.9c6.5-2.2,13-4.6,19.1-7.8c2.3-1.2,4.6-2.5,7-3.5c5.3-2.4,10.6-4.7,16-7c1.4-0.6,2.8-0.8,4.4-1.2v1.7
							c-1.7,0.1-1.7,0.1-1.9,1.1c2.6-0.2,4.6,1.2,6.6,2.7c1,0.8,1.9,1.6,2.9,2.3c1.9,1.4,3.1,3.2,4.3,5.1c0.2,0.3,0.1,0.3,0.1,1
							c0,0.7,0.4,1,1,0.7s0.8-0.8,0.3-1.5C167.8,249.4,166.6,247.3,164.2,245.5z M141.6,204.3c0.1-0.6,0.2-1.2,0.5-1.8
							c0.1-0.3,0.3-0.5,0.4-0.8c0.9-1.8,1.6-3.7,2.6-5.8c0.2,1.8,0.9,2.8,2.8,2.7c-0.2,0.4-0.4,0.8-0.5,1.1
							c-0.1,0.2-0.2,0.4-0.3,0.6c-0.1,0.3-0.3,0.6-0.4,0.9c-0.1,0.3-0.2,0.5-0.4,0.8c-0.2,0.5-0.4,1.1-0.6,1.6
							c-0.1,0.3-0.2,0.6-0.3,0.8c-0.4,1.6-0.4,2.1,0.6,2.8c0.1,0.1,0.3,0.2,0.5,0.3c0.1,0.1,0.2,0.1,0.3,0.2
							c-0.6,0.4-1.2,0.6-1.9,0.7c-1.4,0-2.9-0.9-3.2-2.4c0-0.1-0.1-0.3-0.1-0.5C141.6,205.2,141.6,204.8,141.6,204.3z M79.7,256.2
							c-1-0.9-2.1-1.8-3.1-2.7c-3.1-2.8-6.6-4.9-9.9-7.3c-2.6-1.9-5.1-4-7.6-6.1c-0.3-0.2-0.5-0.6-0.8-0.9c0.3-0.4,0.6-0.8,1-1.2
							c-0.6-0.5-0.9-0.5-1.4,0c-0.5,0.5-0.7,1.1-0.4,1.7c0.3,0.5,0.6,1,1.1,1.4c3.5,2.8,6.9,5.7,10.7,8.2c3.1,2.1,6,4.6,9,7
							c0.5,0.4,0.9,0.9,1.3,1.4c-1,0.4-1.7,0.1-2.4-0.3c-1.1-0.7-2.3-1.4-3.4-2.1c-4.3-3-9.1-5.1-13.9-7.2l-9.8-4.3
							c-0.9-0.4-0.9-0.4-1.7,0.4c-0.9-0.7-1.3-1.8-1-2.9c0.4-2.3,1.6-4,3.6-5.3c2.4-1.6,5.1-2.6,7.9-3.3l12.1-3.1
							c0.7-0.2,1.5-0.3,2.2-0.4c0.9-0.1,2.1-0.5,2.4-0.8s1.1-0.4,1.3-0.2c0.4,0.4,0.5,0.9,0.5,1.4c-0.2,2.4-0.4,4.8-1.2,7.1
							c-0.6,1.5-1.1,3-1.8,4.9c-1.1-2.6-1.8-4.9-1.4-7.4c0.1-0.9,1.1-1.8,1.5-2c0.4-0.2,0.9-0.4,0.6-1.1c-1.4,0-2.7,1.3-3.1,2.8
							c-0.4,1.5-0.1,3.1,0.2,4.6c0.9,4,2.9,7.5,5.2,10.9l5.4,7.7C81.4,257.2,80.7,257.1,79.7,256.2z M111.4,303l-0.3-0.8
							c-0.5-2.1-1.1-4.1-1.6-6.2c-0.1-0.3-0.3-0.9-0.6-1.4c0.1,0,0.3-0.1,0.5-0.1C110.4,296,111.9,301.5,111.4,303z M108.6,285.4
							c0.2,1.1,0.5,2.2,0.9,3.2c0.1,0.4,0.2,0.7,0.3,1.1c0.1,0.6,0.3,1.1,0.4,1.7c0.1,0.2,0.1,0.4,0.1,0.6c0,0.1,0,0.1,0,0.2
							c0,0.6-0.2,1.1-0.7,1.4c-0.2,0.1-0.4,0.2-0.6,0.3c-0.3-0.6-0.5-1.1-0.6-1.7c-1-5-1.9-9.9-2.9-14.9c-1.1-6-0.7-12.1-0.4-18.2
							c0.1-1.6-0.6-3-0.4-4.6c-0.2,0.1-0.3,0.2-0.4,0.3c-0.7,0.8-0.1,1.9-0.6,3.1c-1.9,0.2-3.7,0.1-5.6-0.2l7-3.9c0-0.3,0-0.6,0-1.4
							c0-0.1,0-0.1,0-0.2c0.1-0.6,0.5-1,1.1-1.1c0.4-0.1,0.7,0,0.9,0.1c0.1,0.1,0.3,0.2,0.4,0.4c0.1,0.1,0.2,0.3,0.2,0.5
							c0.1,0.2,0.1,0.5,0.1,0.7c0,0.2,0,0.5-0.1,0.7c-0.5,2.2-0.8,4.4-0.8,6.5c0,1.3,0,2.6,0.1,4c0.1,1.2,0.1,2.4,0,3.5
							C106.7,273.6,107.7,279.5,108.6,285.4z M142.8,242.2c-5.6,2.1-10.4,4.8-16.1,7.6s-11.6,5-17.5,7.1l-1.1,0.3
							c0.2-1.2,0.4-2.2,0.5-3.3c0.1-0.8,0-1.6-0.2-2.3c-0.3-1.1-1.4-1.6-2.5-1.5c-1.1,0.1-1.9,1.1-1.9,2.2c0,0.4,0,0.8,0,1.1
							l-7.3,3.5l-0.2-0.2c0.3-0.3,0.5-0.7,0.8-1c5.2-5,10.8-9.5,17.2-13c6.4-3.5,12.9-6.6,19.5-9.6c2.7-1.2,5.3-2.8,7.6-4.7
							c0.4-0.3,0.7-0.6,1-1.1c0.1-0.2-0.1-0.6-0.1-0.8c-2.4,1.6-4.5,3.2-6.8,4.4c-3.1,1.6-6.3,2.9-9.4,4.5
							c-6.7,3.3-13.4,6.4-19.4,10.8c-0.3,0.2-0.6,0.4-1,0.5c0.4-1.8,1.1-3.3,1.9-4.7c0.5-0.9,1-1.6,1.5-2.5c0.9-1.6,1.7-3.2,2.6-4.7
							c0.9-1.4,1.9-2.7,2.9-4c0.7-0.9,1.7-1.5,2.8-1.8c3.7-1.2,7.2-3.1,10.3-5.5c1.3-1,2.9-1.4,4.4-1.3c1.7,0.1,3.5,0.2,5.3,0.3
							c3.4,0.2,6.3,1.6,8.8,3.8c0.6,0.6,1,1.4,1.1,2.2c0.3,1.9,0,3.4-1.6,4.9c-3.8,3.4-8.1,6.3-12.9,8.3c-5.7,2.5-11.5,4.9-17.2,7.5
							c-1.8,0.8-3.5,1.9-5.2,2.8c-0.4,0.2-1,0.4-0.7,1.4l0,0c0.4-0.2,0.8-0.3,1.1-0.5c5.2-2.9,10.7-5.3,16.2-7.6
							c3.2-1.3,6.4-2.6,9.5-4.2c4.5-2.3,8.6-5.2,11.8-9.2c3.3,0.1,6.6,2.7,7,5.5C151,238.1,147.1,240.6,142.8,242.2z"/>
						<path d="M61.3,165.1c4.9-0.9,9.4-3.1,13.2-6.3c1.1-0.9,2-1.4,3.4-1.5c5-0.3,10-0.2,15,0.3c1.6,0.2,3.2,0.5,4.8,0.7
							c0.4,0,0.7-0.1,1-0.2c-0.1-0.4-0.1-0.9-0.4-1.1c-0.4-0.4-0.9-0.7-1.4-1c-3.5-2.1-7.4-3.3-11.4-4c-1.5-0.3-3.1-0.4-4.9-0.5
							c1.1-1.6,2-3.2,3.1-4.6c2.4-3.2,5-6.1,8.6-8c2.5-1.3,5.1-2.5,7.7-3.5c3.7-1.5,7.6-1.6,11.5-0.6c0.3,0,0.6,0.1,0.9,0.1
							c-0.3-0.9-0.3-0.9-1-1.1c-2.5-0.6-5-0.9-7.5-0.4c-5.4,0.9-10.6,3.2-15,6.5c-3.3,2.4-5.7,5.6-7.9,9c-0.8,1.2-1.5,2.5-2.3,3.6
							c-2,2.8-4.2,5.4-7.1,7.3c-3.9,2.6-8.2,4-12.8,4.8c-1.5,0.3-3.1,0.2-4.6-0.1l-2-0.3c-0.3-0.4-0.7-0.7-1-1
							c-0.9-0.8-1.9-1.3-3.1-1.5c-0.4-0.1-0.9,0-0.9,0.7c0.2,0.1,0.4,0.3,0.6,0.3c2.5,0.5,3.9,2.3,4.8,4.5c0.7,1.7,0.9,3.4,0.9,5.2
							c0,0.5,0.1,1,0.2,1.5c1-0.1,1-0.6,0.9-1.1c0-2.1-0.4-4.2-1.1-6.1c-0.1-0.4-0.3-0.8-0.4-1.1L58,166c-1.5,3.5-1.9,7.1-1.8,10.8
							c-0.1-0.4-0.2-0.9-0.2-1.4c0.1-1.6,0.1-3.1,0.2-4.6c0-0.5,0.2-1.1-0.6-1.4c-0.6,1-0.5,2.1-0.6,3.1c-0.1,1-0.1,2-0.1,3
							c0,1,0.1,2.1,0.2,3.2c-0.7-0.6-0.7-0.6-0.8-1c0-0.8-0.1-1.6-0.2-2.4c0-0.3-0.4-0.5-0.7-1c0,1.8,0,3.1,0,4.5
							c0,0.2,0.4,0.5,0.6,0.6c0.5,0.1,0.9,0.2,1.4,0.2c1.5,0,2.1-0.6,2-2.1l-0.1-1c-0.3-3.8,0.2-7.4,1.8-10.9L61.3,165.1z
							 M79.8,152.7c4.5-0.4,13,1.8,15.7,4.1c-6.1-0.8-12.4-0.9-18.6-0.5L79.8,152.7z"/>
						<path d="M132.6,187.9c1.8-0.4,3.4-1.2,4.9-2.3c1.1-0.9,1.4-1.9,0.8-3.1c-0.6,0.8-1,1.6-1.6,2.2c-0.6,0.6-1.5,1-2.4,1.4
							c-0.9,0.4-1.8,0.6-2.9,1c2.5-4.9,2.3-8.4-0.5-11.1c-2.5-2.3-6.1-2.7-9.1-1.1c-1.6,0.9-2.8,2.2-3.5,3.8
							c-1.1,2.4-0.9,4.7,0.3,7.4c-1.1-0.6-2.2-0.7-2.7-1.4c-0.6-0.7-0.8-1.7-0.6-2.6c0.2-0.9,0.5-1.4,0.5-2.6
							c-0.3,0.1-0.5,0.2-0.7,0.3c-1.1,2.4-0.6,4.7,0.9,6.2c1.6,0.7,3.3,1.3,5,1.7C124.8,188.6,128.7,188.9,132.6,187.9z
							 M122.7,175.7c0.9,0.8,1.6,1.5,1.1,2.7c-0.3,0.6-0.7,0.9-1.4,0.8c-0.7-0.1-1.2-0.7-1.3-1.4
							C120.9,176.6,121.7,176.2,122.7,175.7z M119.9,178.5c0.7,0.5,0.6,1.1,0.5,1.8c-0.2,1.1,0.1,2.3,0.6,3.2c1.3,2,3.7,2.7,5.9,1.9
							c2.3-0.9,3.7-3.2,3.4-5.6c-0.4-2.3-2.3-3.9-4.6-4c-0.5,0-1-0.1-1.5-0.2c0,0-0.1-0.2-0.1-0.4c1.1-0.4,2.4-0.4,3.6,0
							c2.5,0.8,4,2.6,4.5,5.1s-0.4,4.6-2.2,6.4c-0.4,0.4-1,0.6-1.6,0.6c-2.4,0.1-4.7-0.1-7-0.6c-0.5-0.1-0.9-0.3-1.2-0.6
							C118.4,184.2,118.3,180.6,119.9,178.5z"/>
						<path d="M80.2,180.9c4.4,1.6,11.5,1.2,13.4,0.3c0,0,1.1-1.1,1.1-2c-0.4,0-1.1,0.6-1.7,1c-0.5,0.4-1.8,0.4-2.6,0.6
							s-1.7,0.3-2.7,0l0.9-1.1c1.5-1.9,2.2-4.2,1.9-6.6c-0.5-4.8-5.2-7.7-9.6-5.7c-3.2,1.5-5,4.1-5.2,7.6c-0.1,0.7,0,1.4,0,2.5
							c-1-0.7-1.8-1.4-2.6-1.8c-0.8-0.4-1.1-1.9-2.6-1.8c0.3,0.7,0.7,1.3,1.1,1.9C74.2,178,77.1,179.7,80.2,180.9z M81.1,169.8
							c0.8,0.1,1.4,0.7,1.4,1.5c0,0.9-0.8,1.9-1.6,1.9c-0.8,0-1.4-0.6-1.4-1.6C79.4,170.7,80.2,169.8,81.1,169.8z M78.2,171.2
							c0.3,1.4,0.6,2.5,0.7,3.6c0.2,2.6,2.1,4.6,4.5,4.8c2.5,0.1,4.8-1.8,5.2-4.3c0.6-3.3-1.6-5.9-5-6c-0.8,0-1.6-0.4-2.6-0.6
							c3.9-2.1,8.1,0.4,8.4,4.7c0.2,2.9-0.9,5.2-3.2,7c-0.5,0.3-1.1,0.5-1.6,0.4c-2.7-0.3-5.2-1.2-7.6-2.5
							C76.6,175.8,76.6,173.6,78.2,171.2z"/>
						<path d="M114.5,114.2c-2-0.4-3.9-0.8-5.9-1.1c-3.5-0.5-4.8-0.5-5.9,0.1c0.2,0.7,0.8,0.6,1.3,0.6c1.6,0.1,3.1,0.1,4.6,0.4
							c2.1,0.3,4.2,0.6,6.2,1.4c0.1,0.9,0.1,1.7,0.2,2.6s-0.6,1.9,0.2,2.7c-0.4,0.9,0,1.9,0.2,2.8c0.1,0.8,0.2,1.6,0.3,2.4
							c0,1.8-0.2,3.6-0.3,5.4c0,0.5-0.1,1,0.7,1c0.8-1.1,0.4-2.5,0.8-3.8c0.3,0.2,0.6,0.3,0.7,0.4c2.1,1.7,4.1,3.4,5.5,5.8
							c0.2,0.4,0.5,0.9,1.3,0.4c-0.3-0.6-0.6-1.3-1-1.9c-1.5-2.3-3.6-3.9-5.7-5.6c-0.5-0.4-0.8-0.9-0.9-1.6
							c-0.2-1.9-0.5-3.7-0.8-5.8c0.5,0,1,0,1.5,0c2.7,0.2,5.4,1,7.8,2.2c1.6,0.9,3.3,1.8,4.9,2.7c0.4,0.2,0.9,0.7,1.5,0.3
							c-0.1-0.2,0-0.5-0.1-0.6c-4.7-3.2-9.7-5.7-15.4-5.8v-4.5c2.2,0.3,4.1,0.4,6.1,0.8c9.7,2.2,17.9,6.6,23.3,15.3
							c0.5,0.9,1.1,1.7,1.6,2.6c4.2,7.1,6.2,14.9,7.2,23.1c0.1,0.5-0.1,1.1,0.5,1.4c0.7-0.2,0.6-0.9,0.5-1.3
							c-0.2-1.6-0.4-3.2-0.6-4.8c-1.2-7-3.5-13.6-7.1-19.8c-4.6-7.8-11.1-13.2-19.7-16c-2.3-0.8-4.6-1.5-7-1.7l-5.2-0.6
							c-0.3-1.1,0.1-2.4-1.2-3C114.1,112,115.2,113.2,114.5,114.2z"/>
						<path d="M43.9,159.5c0.1,0.5,0.4,1.1,1.2,0.5c0-0.2-0.1-0.5-0.1-0.7c-1-3.2-1.1-6.4-0.6-9.7c0.7-5.3,2.7-10.1,5.4-14.6
							c7.4-12.2,17.7-21.1,30.7-27c5.9-2.6,11.9-4.3,18.4-4.1c4.8,0.1,9.3,1.2,13.1,4.4c0.3,0.2,0.5,0.3,0.8,0.4
							c0.3-0.9,0.3-0.9-0.4-1.6c-3-2.5-6.5-3.7-10.2-4.2c-5.5-0.7-10.9,0.1-16.1,1.8c-10.5,3.3-19.4,9.2-27.2,16.9
							c-5.4,5.4-9.9,11.5-12.9,18.6c-2,4.8-3.2,9.7-2.8,15C43.3,156.6,43.5,158.1,43.9,159.5z"/>
						<path d="M116.4,108.8c3.9-0.7,7.8-0.3,11.6,0.8c6.9,2,12.4,6,17.2,11.3c7.1,7.9,11.4,17.1,13.1,27.5
							c1.5,9.3,0.7,18.3-3.9,26.7c-0.2,0.4-0.3,0.7-0.3,1.1c0.7,0.3,1-0.1,1.2-0.4c0.5-0.9,1-1.9,1.4-2.9c3.1-7,3.8-14.3,3-21.8
							c-1-10.6-5.2-20.7-11.9-28.9c-4.7-5.8-10.3-10.4-17.4-13c-4.5-1.8-9.4-2.3-14.2-1.5c-0.5,0.1-1.6,0.1-1.2,0.8
							C115.3,109.2,115.9,108.9,116.4,108.8z"/>
						<path d="M148.3,178.1c0.6,0.1,1.2,0.3,1.7-0.6c-0.4-0.2-0.6-0.4-0.9-0.4c-2.8-0.3-4.7-1.9-6.4-3.9c-3.1-4.1-5.7-8.5-7.6-13.3
							c-1.2-3-2.4-5.9-3.8-8.8c-2.5-5.4-6.2-10.1-10.8-13.9c-1.1-0.9-2.2-1.6-3.5-1.9c-0.3,0-0.7,0-1,0.1c0.1,0.5,0.4,0.8,0.6,0.9
							c1.4,0.3,2.6,1.1,3.6,2.1c1.5,1.5,3.1,3,4.5,4.6c4,4.5,6.4,9.9,8.6,15.4c0.1,0.1,0,0.2-0.1,0.4c-1.9,0-3.9-0.1-5.9,0
							c-2.6,0.1-5.1,0.9-7.2,2.2c-0.3,0.2-0.6,0.8-0.5,1c0,0.2,0.6,0.5,0.9,0.6c0.3,0.1,0.6,0.1,0.9,0c4.6,0.1,9.3,0.8,13.7,2.3
							c0.9,0.3,1.4,0.9,2,1.7c1.8,2.8,3.6,5.6,5.6,8.2C144,176.6,146.1,177.8,148.3,178.1z M121.6,161.3c0.5-0.2,0.9-0.4,1.4-0.6
							c3.2-1.1,6.6-1.1,9.9-0.9c0.6,0,1.2,0.4,1.4,1.1c0.3,0.9,0.7,1.7,1.3,3C130.9,162.3,126.3,161.7,121.6,161.3z"/>
						<path d="M48.8,275.8c-2.5-1.5-5-2.9-7.3-4.6c-3-2.2-5.8-4.6-8.7-6.9c-0.1-0.1-0.1-0.2-0.3-0.6c2.3-5.3,6.9-8.6,11.8-11.9
							c-0.3-0.2-0.6-0.5-0.8-0.4c-0.5,0.1-1,0.3-1.4,0.6c-3,2.1-5.9,4.3-8.1,7.2c-0.9,1.1-1.8,2.3-2,3.6c-0.3,1.9-1.3,3.5-1.9,5.3
							c-1.7,5.2-2.8,10.7-3.1,16.2c-0.3,4.4-0.1,8.7-0.2,13.1c0,0.4,0.1,0.7,0.2,1.1c0.1,0.2,0.4,0.4,0.9,0.8c0-1.9,0.1-3.4,0-5
							c-0.4-6.7,0.2-13.4,1.6-19.9c0.5-2.1,1-4.3,1.6-6.4c0.3-0.9,0.6-1.9,1.9-2.4c1.9,1.6,3.9,3.1,5.7,4.8c2.6,2.2,5.4,4.2,8.4,5.8
							c2.1,1.1,4.1,2.3,5.5,4.3c0.3,0.4,0.6,0.6,1.3,0.2c-0.2-0.4-0.4-0.8-0.6-1.2C52.1,277.9,50.5,276.8,48.8,275.8z"/>
						<path d="M51.4,183.8c0.1-0.6,0.2-1.1,0.3-1.7c-0.1-1.5-0.1-3-0.3-4.5c-0.4-3.1-1.2-6.1-3-8.7c-1-1.4-2.1-2.6-3.7-3.1
							c-0.6-0.1-1.2-0.2-1.8-0.3c-0.2,0.8,0.1,0.9,0.6,1.1c2,0.5,3.3,1.9,4.4,3.5c1.1,1.9,1.8,3.9,2.2,6c0,0.1-0.1,0.2-0.1,0.2
							l-0.9-0.1c0.1,1.4,0.2,2.8,0.2,3.9c0,1.1-0.6,1.8-1.6,2.2c-0.7-1.1,0.2-2.4-0.9-3.5c-0.7,1.7-0.4,3.1-0.1,4.7s0.5,3.1,0.8,4.7
							l-2,0.4c-0.9-3-1.3-6.1-1.4-9.2c-0.1-3,2.2-4,4.2-4h1.4c-0.6-0.9-1.3-1-2-1c-2.5,0.1-4.4,1.7-4.6,4.2c-0.1,1.7,0,3.4,0.3,5.1
							c0.3,2.2,1,4.6,1.3,6.6c0.4,2,1.2,2.7,3.2,2.3l0.8-0.1c-0.4,0.8-0.6,1.5-0.9,2.1c0.9,0.2,1.3,0.1,1.5-0.7
							c0.5-1.5,0.1-2.9-0.1-4.4c-0.1-0.8-0.4-1.5-0.5-2.3l0,0l0,0.1c-0.3-1.1-0.6-2.2-0.9-3.3c-0.1-0.5,0.1-0.7,0.6-0.6v0
							c1.4-0.7,2.1-1.9,2.1-3.4c0.1,0.7,0.1,1.4,0.2,2C50.7,182.7,50.2,183.5,51.4,183.8z"/>
						<path d="M99.3,119.8c-8.2,3-14.9,8.2-20.4,15c-2.6,3.3-5.1,6.7-7.6,10.1c-4.5,6.1-9.9,11-17.3,13.4l-2.4,0.8
							c-0.4,0.2-0.8,0.4-1.1,0.6c0.6,0.9,1.2,0.5,1.8,0.4c5.2-1.6,10.2-3.9,14.1-7.9c1.4-1.4,2.8-2.8,4-4.3c1.9-2.4,3.6-4.9,5.4-7.4
							c3.3-4.5,6.9-8.7,11.2-12.3c4.6-3.8,9.9-6.7,15.7-8.4c0.5-0.1,1.2-0.1,1.4-1.1c-0.6,0-1,0-1.4,0.1
							C101.6,119,100.5,119.4,99.3,119.8z"/>
						<path d="M164.5,252.5c-1.5,0.2-2.9,0.5-4.4,0.9c-15.2,4.3-25.5,13.7-30.2,29c-1,3.3-1.5,6.8-1.5,10.3c0,0.5-0.3,1.2,0.5,1.5
							c0.5-0.6,0.5-0.6,0.5-1.4c0-2.9,0.4-5.8,1.1-8.6c4-14.9,13.6-24.4,28.1-29.2c2.3-0.8,4.8-1.1,7.2-1.6c0.5-0.1,1-0.1,0.9-0.9
							C166,252.4,165.2,252.4,164.5,252.5z"/>
						<path d="M107.6,110.6c-0.1-0.8-0.7-0.9-1.1-1c-1.3-0.3-2.5-0.4-3.8-0.5c-5.5-0.2-10.7,1.1-15.7,3.4
							c-8.2,3.7-14.9,9.4-20.2,16.6c-2.2,3-4.6,5.9-6.9,8.8c-0.3,0.4-0.5,0.7-0.7,1.1c0.9,0.1,1,0.2,1.4-0.2
							c0.8-0.9,1.6-1.9,2.4-2.8c2.7-3.4,5.2-6.9,8-10.2c5.7-6.7,13.2-11.7,21.7-14.2c4.6-1.4,9.3-2.1,14.1-0.9
							C107,110.7,107.3,110.6,107.6,110.6z"/>
						<path d="M121.7,124.3c-1-0.7-2.1-1.1-3.3-1.6c-0.5-0.2-1.1-0.4-1.6,0.1c0,0.2,0,0.3,0.1,0.4c0.1,0.1,0.3,0.3,0.5,0.3
							c1.8,0.4,3.2,1.3,4.6,2.4l3.4,2.6c4.7,3.6,8.8,7.8,12,12.8c1.3,2.1,2.7,4.2,3.9,6.4c2.7,5.4,5.3,10.9,7.9,16.4l1.6,3.4
							l0.3-0.1c0-0.1,0.1-0.3,0.1-0.4c-0.6-1.6-1-3.4-1.8-5c-2.9-6.5-5.9-12.9-9.6-19c-2.4-3.9-5-7.6-8.3-10.7
							C128.5,129.5,125.2,126.8,121.7,124.3z"/>
						<path d="M175,270.8c-0.6-3.9-1.6-7.8-2.5-11.7c-0.3-1.3-0.7-2.6-1.1-3.8c-0.2-0.6-0.5-1.1-0.8-1.6c-0.3-0.4-0.7-0.5-0.9-0.1
							c0.6,1.5,1.2,2.8,1.5,4.1c1.6,7,3.3,13.9,3.6,21.1c0.3,6.4,0.2,12.9-0.1,19.4c-0.1,1.6-0.2,3.2-0.2,4.8c0,0.3,0.2,0.9,0.4,0.7
							s0.5-0.4,0.6-0.6c0.1-0.4,0.1-0.7,0.1-1.1c0.1-3.8,0.3-7.7,0.4-11.5C176.1,283.9,176.1,277.3,175,270.8z"/>
						<path d="M42.6,192.9c0.7,1.2,1.6,2.4,2.7,3.3c1.1,1.1,2.8,1.4,4.1,0.7c1.7-0.9,2.7-2.4,3.3-4.1c0-0.1-0.1-0.4-0.4-0.8
							c-0.3,0.4-0.5,0.6-0.7,0.8c-0.6,0.8-0.8,1.4-1.9,2.5c-1.1,1.1-2.3,1.2-3.6,0.3c-0.6-0.4-1.2-0.9-1.6-1.6
							c-0.8-1.2-1.5-2.5-2.1-3.9c-2.5-6.4-3.1-13-2.1-19.8c0.3-2,0.8-4,1.9-5.7c0.6-1,1.4-1.9,2.8-2c0.2,0,0.5-0.3,0.8-0.4
							c-0.4-0.7-0.9-0.7-1.4-0.6c-1,0.3-2,0.9-2.6,1.8c-1.1,1.5-1.7,3.2-2.1,4.9c-1.1,4.9-1,9.9-0.2,14.8
							C40,186.4,40.9,189.8,42.6,192.9z"/>
						<path d="M67,142.1c2.9-3.6,5.7-7.2,8.4-10.9c1.9-2.6,4.4-4.9,7.1-6.6c0.3-0.2,0.6-0.4,0.9-0.7c-0.7-0.8-1.2-0.3-1.6,0
							c-2.7,1.6-5,3.6-6.9,6.1c-2.9,3.7-5.8,7.5-8.8,11.2c-2.1,2.6-4.7,4.9-7.6,6.6c-2.3,1.4-4.7,2.5-7.3,3.2
							c-0.7,0.2-1.4,0.5-2,0.9c-0.6,0.4-0.5,0.9,0,1.1c1.1-0.4,2-0.8,3-1.1C58.2,150.1,63.2,146.9,67,142.1z"/>
						<path d="M74.9,114.7c-5,3.1-9.4,7-13.6,11.2c-5.1,5.1-9,11.1-12.2,17.5c-0.2,0.3-0.3,0.6-0.4,0.9c0,0.2,0.2,0.4,0.4,0.8
							c0.4-0.5,0.6-0.8,0.8-1.2l2.2-3.9c4.7-8.7,11.5-15.6,19.3-21.5c1.9-1.4,3.9-2.6,5.9-3.9c0.4-0.3,1-0.4,0.6-1.6
							C76.8,113.7,75.8,114.2,74.9,114.7z"/>
						<path d="M151.5,174.7l-1.1-0.9c-0.8-0.7-1.6-1.4-2.4-2.1c-2.1-2-3.6-4.5-4.8-7.1c-1.9-4.1-3.7-8.3-5.9-12.3
							c-1.7-3.1-3.7-6.1-5.6-9.1c-0.6-0.9-1.5-1.5-2.3-2.2c-0.1-0.1-0.5-0.1-1-0.1c0.3,0.5,0.4,0.8,0.6,1c1.7,1.3,2.8,3.1,3.9,4.8
							c1.3,2.2,2.6,4.5,3.8,6.8c2,4,3.9,8.1,5.8,12.2c1.5,3.1,3.4,5.9,6.1,8.1c0.5,0.4,1,0.8,1.6,1
							C150.5,174.9,150.9,174.8,151.5,174.7z"/>
						<path d="M84.3,208.2c1.6,1.5,3.4,2.6,5.3,3.5c6.9,3,14,2.7,21.2,1.4c1.9-0.4,3.7-1.1,5.8-1.7c-0.4-0.6-0.8-1.1-1-1.4
							c-1,0.5-1.8,1.1-2.6,1.4c-2.6,0.9-5.3,1.4-8,1.5c-4.2,0.2-8.4,0.1-12.5-1.2c-3.4-1.1-6.4-2.8-8.7-5.4c0-0.8,1-1.4,0.1-2.3
							c-0.8,1-1.5,2.1-1.9,3.4C83.1,207,83.7,207.6,84.3,208.2z"/>
						<path d="M93,129.7c-4.4,3.5-8.3,7.4-11.8,11.7c-0.5,0.7-0.9,1.4-1.3,2.1c1.1,0,1.1,0,1.6-0.6c3-4,6.5-7.5,10.3-10.8
							c2.6-2.4,5.7-4.3,9-5.6c2.3-0.9,4.6-1.4,7-0.9c0.5,0.1,1.1,0.1,1.6,0.1c0.3,0,0.5-0.2,0.9-0.4c-0.3-0.3-0.4-0.5-0.6-0.5
							c-2.1-0.3-4.1-0.6-6.2-0.2C99.6,125.4,96.1,127.3,93,129.7z"/>
						<path d="M70.9,173.3c0.3-0.4,0.6-0.8,0.8-1.2c2.6-4.7,7.6-7.2,13.4-6s9.2,5.8,9.4,10.5c0.1,0.4,0.1,0.7,0.3,1.1
							c0.9-0.3,0.7-0.8,0.7-1.3c-0.1-2.1-0.7-4.2-1.9-6c-3.7-5.5-11.4-7.4-17.4-4.2c-2.3,1.1-4.2,3-5.4,5.3
							C70.5,172.1,70.1,172.6,70.9,173.3z"/>
						<path d="M60.5,288.5c-0.7-1.3-1.4-2.5-2.2-3.7c-0.3-0.4-0.5-1-1.4-0.5c0.2,0.4,0.4,0.8,0.7,1.2c1.9,3,3.3,6.2,4.2,9.7
							c1.5,6,1.7,12,1.3,18.1c-0.1,1.5-0.3,3-0.4,4.5c0,0.5-0.1,1,0.9,0.9c0.1-0.6,0.2-1.2,0.3-1.8c0.5-5.1,0.5-10.2,0-15.4
							C63.7,297.1,62.5,292.6,60.5,288.5z"/>
						<path d="M115.7,177.7c-0.1,0.2-0.3,0.3-0.3,0.6c0,0.3,0.1,0.6,0.2,1.3l1.6-1.9c6.1-7.3,17-5.4,20,3.3c0.1,0.3,0.2,0.6,0.4,0.9
							c0.1,0.1,0.3,0.2,0.5,0.3c0.6-0.5,0.4-1,0.2-1.5c-1.3-3.6-3.6-6.2-7.2-7.6C125.6,170.8,119,172.9,115.7,177.7z"/>
						<path d="M96.7,197.8l-0.5-1c-0.7,1.2-0.5,2.2,0.3,2.9c2.5,2.1,5.2,3.6,8.6,3c4.3-0.8,5.3-2.2,5.5-5.9c0.1-1.9-0.4-3.9-0.6-5.9
							c0-0.1-0.4-0.3-0.9-0.6c0.1,1.1,0.1,1.9,0.2,2.7c0.1,1.4,0.3,2.8,0.2,4.3c-0.1,1.5-0.5,2.9-2,3.5c-1.3,0.6-2.6,0.9-4,0.9
							c-2.4-0.1-4.4-1.3-6.2-2.7C97,198.8,96.9,198.2,96.7,197.8z"/>
						<path d="M128,297.2c-0.1,0.7-0.2,1.3-0.3,1.8c-0.3,2.5-0.5,5-0.8,7.5c-0.6,4.8-1.5,9.6-1.5,14.5c0,0.7,0,1.4,0.1,2.1
							c0.1,0.2,0.4,0.4,0.8,0.8c0.1-0.4,0.1-0.7,0.2-1.1c-0.1-4.7,0.6-9.4,1.2-14c0.4-3.3,0.7-6.6,1-9.9
							C128.8,298.3,129,297.7,128,297.2z"/>
						<path d="M142.7,139.2c1.6,3.2,3.1,6.4,4.6,9.7c0.2,0.4,0.4,0.8,0.6,1.1l0.4-0.1c0.4-0.8,0-1.6-0.3-2.3
							c-1.4-3.8-3.3-7.4-5.5-10.8c-1.1-1.6-2.4-3.1-3.7-4.6c-0.4-0.5-0.8-1-1.6-0.9c0.1,0.9,0.1,0.9,0.4,1.1
							C139.6,134.4,141.3,136.7,142.7,139.2z"/>
						<path d="M60.7,159.3c-1.3,0.8-2.7,1.5-4.3,1.7c-0.1,0-0.3,0.2-0.6,0.5c0.4,0.2,0.7,0.4,0.9,0.4c0.7-0.1,1.5-0.2,2.1-0.5
							c4.6-2.1,8.9-5.1,12.6-8.6c0.5-0.5,0.8-1.1,1.2-1.6l-0.4-0.4c-0.3,0.1-0.6,0.2-0.8,0.4C68.4,154.5,64.6,157,60.7,159.3z"/>
						<path d="M80,290.1c-0.6,2.3,0.3,4.7-0.9,6.7c0-2.5,0.2-4.9-0.4-7.4c-0.9,0.1-0.8,0.6-0.8,1c0,2,0,3.9,0,5.9c0,0.4,0,0.7,0,1.1
							c0.1,0.6,0.5,1.1,1.1,1.2s0.8-0.4,1-0.9c1.2-2.3,0.9-4.8,0.6-7.2C80.5,290.4,80.3,290.3,80,290.1z"/>
						<path d="M121.9,164.4c-0.8,0.4-1.6,0.6-2.2,1.2c-3,2.5-5.4,5.6-7.1,9.1c-0.3,0.6-0.3,1.3-0.5,1.9l0.5,0.2
							c0.2-0.2,0.5-0.4,0.6-0.6c1-2.9,2.9-5.3,4.9-7.6c1.3-1.5,2.8-2.8,4.7-3.4c0.1-0.1,0.2-0.2,0.3-0.4
							C122.2,164.3,122.6,164.1,121.9,164.4z"/>
						<path d="M149.7,188.1c0.6-2.6,1.4-5.1,3.6-7.1c-0.9-0.7-1.4-0.1-1.7,0.3c-1.6,2-2.6,4.4-2.9,7c0,0.3,0.1,0.6,0.2,0.9
							C149.7,189.1,149.6,188.5,149.7,188.1z"/>
						<path d="M81.1,247.9c-0.6-2-1.2-4-1.8-6c-0.1-0.2-0.4-0.4-0.7-0.6c-0.3,2.1,1,6.2,2.4,7.5C81,248.4,81.1,248.1,81.1,247.9z"/>
						<path d="M49.5,187.7c0.3-1.4,0-2.6-0.3-3.9c-0.1-0.5-0.6-0.5-1-0.4c0.1,1.3,0.2,2.5,0.3,3.8L49.5,187.7z"/>
						<path d="M100.1,162.7c0.3-1.8-0.6-3-2.3-2.6C99,160.8,99,162.1,100.1,162.7z"/>
						<path class="st5" d="M107,267.6c0.1-1.2,0.1-2.4,0-3.5c-0.1-1.3-0.1-2.6-0.1-4c0.1-2.2,0.3-4.4,0.8-6.5
							c0.1-0.2,0.1-0.5,0.1-0.7c0-0.2,0-0.5-0.1-0.7c-0.1-0.2-0.1-0.4-0.2-0.5c-0.1-0.1-0.2-0.3-0.4-0.4c-0.3-0.2-0.6-0.2-0.9-0.1
							c-0.6,0.1-1,0.6-1.1,1.1c0,0.1,0,0.1,0,0.2c0,0.5,0,1.1,0,1.4l-7,3.9c1.9,0.3,3.7,0.4,5.6,0.2c0.5-1.1-0.1-2.3,0.6-3.1
							c0.1-0.1,0.2-0.2,0.4-0.3l0,0c-0.1,1.6,0.5,2.9,0.4,4.6c-0.3,6.1-0.7,12.2,0.4,18.2c0.9,5,1.9,9.9,2.9,14.9
							c0.1,0.6,0.4,1.1,0.6,1.7c0.2-0.1,0.4-0.2,0.6-0.3c0.5-0.4,0.7-0.9,0.7-1.4c0-0.1,0-0.1,0-0.2c0-0.2,0-0.4-0.1-0.6
							c-0.1-0.6-0.2-1.1-0.4-1.7c-0.1-0.4-0.2-0.7-0.3-1.1c-0.3-1.1-0.7-2.1-0.9-3.2C107.7,279.5,106.7,273.6,107,267.6z"/>
						<path class="st5" d="M141.8,206.2c0.3,1.5,1.7,2.4,3.2,2.4c0.6,0,1.3-0.2,1.9-0.7c-0.1-0.1-0.2-0.1-0.3-0.2
							c-0.2-0.1-0.4-0.2-0.5-0.3c-1-0.7-1-1.1-0.6-2.8c0.1-0.3,0.2-0.6,0.3-0.8c0.2-0.6,0.4-1.1,0.6-1.6c0.1-0.3,0.2-0.5,0.4-0.8
							c0.1-0.3,0.3-0.6,0.4-0.9c0.1-0.2,0.2-0.4,0.3-0.6c0.2-0.3,0.4-0.7,0.5-1.1c-1.9,0.1-2.6-1-2.8-2.7c-0.9,2.1-1.7,4-2.6,5.8
							c-0.1,0.3-0.3,0.5-0.4,0.8c-0.3,0.6-0.4,1.2-0.5,1.8c-0.1,0.5,0,0.9,0,1.4C141.7,205.9,141.7,206,141.8,206.2z"/>
						<path class="st5" d="M47.7,184c0.3,1.1,0.6,2.2,0.9,3.3c0,0,0,0,0-0.1c-0.1-1.3-0.2-2.5-0.3-3.8c0,0,0,0,0,0v0
							C47.8,183.3,47.6,183.6,47.7,184z"/>
					</g>
				</g>
			</g>
		</g>
	</g>
	<g>
		<g>
			<text transform="matrix(1 0 0 1 472.9379 107.5505)" class="st7 st25">DONOR</text>
		</g>
		<path d="M529.5,96.1c0,0,0-2.1,3.4-1.9c3.4,0.2,5.3,4.7,2,8c-3.3,3.3-8.2,5.5-8.2,5.5s0.8-2.9-1.7-5.4c-2.5-2.5-3.7-5.9-0.8-7.4
			C527.2,93.3,529.5,96.1,529.5,96.1z"/>
	</g>
</g>
</svg>
