<svg xmlns="http://www.w3.org/2000/svg" viewBox="0 0 330.6 102.7"><defs><style>.cls-1{fill:#fff;}</style></defs><g id="레이어_2" data-name="레이어 2"><g id="logo_02"><g id="Layer_36" data-name="Layer 36"><path class="cls-1" d="M16.4,99.5a10.4,10.4,0,0,1-7.3,3.2A9,9,0,0,1,2.5,100,7.5,7.5,0,0,1,.3,95.9,44.9,44.9,0,0,1,0,89.4,44.2,44.2,0,0,1,.3,83a7.2,7.2,0,0,1,2.2-4.1,9,9,0,0,1,6.6-2.7,10.4,10.4,0,0,1,7.3,3.2l-1.8,1.9a11.6,11.6,0,0,0-2.4-1.9,6.2,6.2,0,0,0-3.1-.7,6.1,6.1,0,0,0-4.5,1.8,5.4,5.4,0,0,0-1.5,3.1,36.4,36.4,0,0,0-.3,5.8,37.1,37.1,0,0,0,.3,5.9,5.7,5.7,0,0,0,1.5,3.1,6.1,6.1,0,0,0,4.5,1.8,6.2,6.2,0,0,0,3.1-.7,11.6,11.6,0,0,0,2.4-1.9Z"/><path class="cls-1" d="M39.9,89.4a44.9,44.9,0,0,1-.3,6.5,7.5,7.5,0,0,1-2.2,4.1,9,9,0,0,1-6.6,2.7,9,9,0,0,1-6.7-2.7A8.1,8.1,0,0,1,22,95.9a44.9,44.9,0,0,1-.3-6.5A44.2,44.2,0,0,1,22,83a7.7,7.7,0,0,1,2.1-4.1,9,9,0,0,1,6.7-2.7,9,9,0,0,1,6.6,2.7A7.2,7.2,0,0,1,39.6,83,44.2,44.2,0,0,1,39.9,89.4Zm-2.8,0a36.4,36.4,0,0,0-.3-5.8,5.4,5.4,0,0,0-1.5-3,5.8,5.8,0,0,0-4.5-1.9,5.8,5.8,0,0,0-4.5,1.9,6.2,6.2,0,0,0-1.6,3c-.1,1-.2,3-.2,5.8s.1,4.8.2,5.9a6.2,6.2,0,0,0,1.6,3,5.8,5.8,0,0,0,4.5,1.9,5.8,5.8,0,0,0,4.5-1.9,5.4,5.4,0,0,0,1.5-3A38,38,0,0,0,37.1,89.4Z"/><path class="cls-1" d="M68.9,102.4H66.2V82.7L59,98.4H56.6L49.4,82.7v19.7H46.6v-26h2.8l8.5,18.5,8.3-18.5h2.7Z"/><path class="cls-1" d="M94.4,84.1a7.1,7.1,0,0,1-2.2,5.5,8.4,8.4,0,0,1-5.9,2.1H79.4v10.7H76.7v-26h9.6a8.4,8.4,0,0,1,5.9,2.1A7.3,7.3,0,0,1,94.4,84.1Zm-2.8,0a5,5,0,0,0-1.5-3.9,6.2,6.2,0,0,0-4-1.3H79.4V89.3h6.7a5.7,5.7,0,0,0,4-1.4A4.8,4.8,0,0,0,91.6,84.1Z"/><path class="cls-1" d="M117.7,93.9a8.4,8.4,0,0,1-2.6,6.3,9.7,9.7,0,0,1-13,0,8.4,8.4,0,0,1-2.6-6.3V76.4h2.8V93.6a6.9,6.9,0,0,0,1.7,4.8,6.8,6.8,0,0,0,9.2,0,6.9,6.9,0,0,0,1.7-4.8V76.4h2.8Z"/><path class="cls-1" d="M140.2,78.9h-7.5v23.5h-2.8V78.9h-7.5V76.4h17.8Z"/><path class="cls-1" d="M148.1,102.4h-2.8v-26h2.8Z"/><path class="cls-1" d="M175,102.4h-2.6L158.6,81.6v20.8h-2.8v-26h2.6l13.8,20.8V76.4H175Z"/><path class="cls-1" d="M200,92.9a9.6,9.6,0,0,1-2.3,6.8,8.8,8.8,0,0,1-6.8,3,8.7,8.7,0,0,1-8.9-6.8,44.9,44.9,0,0,1-.3-6.5A44.2,44.2,0,0,1,182,83a8.6,8.6,0,0,1,2.2-4.1,9,9,0,0,1,6.7-2.7,10,10,0,0,1,4.3.9,12.5,12.5,0,0,1,3.4,2.7l-1.8,1.8a11,11,0,0,0-2.7-2.1,6.6,6.6,0,0,0-3.2-.8,5.8,5.8,0,0,0-4.5,1.9,6.2,6.2,0,0,0-1.6,3,36.4,36.4,0,0,0-.3,5.8,37.1,37.1,0,0,0,.3,5.9,6.6,6.6,0,0,0,1.6,3.1,6.1,6.1,0,0,0,4.5,1.8,6.4,6.4,0,0,0,4.9-2.2,7.8,7.8,0,0,0,1.4-4.8V91.3h-6.3V88.8H200Z"/><path class="cls-1" d="M233,92.9c0,2.9-.7,5.2-2.2,6.8a9.4,9.4,0,0,1-13.5.3,7.5,7.5,0,0,1-2.2-4.1,44.9,44.9,0,0,1-.3-6.5,44.2,44.2,0,0,1,.3-6.4,7.2,7.2,0,0,1,2.2-4.1,9,9,0,0,1,6.6-2.7,9.4,9.4,0,0,1,4.3.9,11.4,11.4,0,0,1,3.5,2.7l-1.8,1.8a16.8,16.8,0,0,0-2.7-2.1,6.7,6.7,0,0,0-3.3-.8,5.8,5.8,0,0,0-4.5,1.9,5.4,5.4,0,0,0-1.5,3,36.4,36.4,0,0,0-.3,5.8,37.1,37.1,0,0,0,.3,5.9,5.7,5.7,0,0,0,1.5,3.1,6.1,6.1,0,0,0,4.5,1.8,6.3,6.3,0,0,0,4.9-2.2,7.3,7.3,0,0,0,1.5-4.8V91.3h-6.4V88.8H233Z"/><path class="cls-1" d="M257.8,102.4h-3.3l-5.9-11.5h-6.2v11.5h-2.8v-26h10a7.7,7.7,0,0,1,5.5,2,7.5,7.5,0,0,1,.6,9.9,6.7,6.7,0,0,1-4.1,2.3Zm-3.3-18.7a4.5,4.5,0,0,0-1.4-3.5,5.3,5.3,0,0,0-3.8-1.3h-6.9v9.6h6.9a5.6,5.6,0,0,0,3.8-1.3A4.5,4.5,0,0,0,254.5,83.7Z"/><path class="cls-1" d="M281,89.4a44.9,44.9,0,0,1-.3,6.5,7.5,7.5,0,0,1-2.2,4.1,9.5,9.5,0,0,1-13.3,0,8.1,8.1,0,0,1-2.1-4.1,44.9,44.9,0,0,1-.3-6.5,44.2,44.2,0,0,1,.3-6.4,7.7,7.7,0,0,1,2.1-4.1,9.5,9.5,0,0,1,13.3,0,7.2,7.2,0,0,1,2.2,4.1A44.2,44.2,0,0,1,281,89.4Zm-2.8,0a36.4,36.4,0,0,0-.3-5.8,5.4,5.4,0,0,0-1.5-3,6.3,6.3,0,0,0-9,0,6.2,6.2,0,0,0-1.6,3c-.1,1-.2,3-.2,5.8s.1,4.8.2,5.9a6.2,6.2,0,0,0,1.6,3,6.3,6.3,0,0,0,9,0,5.4,5.4,0,0,0,1.5-3A38,38,0,0,0,278.2,89.4Z"/><path class="cls-1" d="M305.5,93.9a8.4,8.4,0,0,1-2.5,6.3,9.5,9.5,0,0,1-6.6,2.5,9.2,9.2,0,0,1-6.5-2.5,8.4,8.4,0,0,1-2.5-6.3V76.4h2.7V93.6a6.5,6.5,0,0,0,1.8,4.8,5.8,5.8,0,0,0,4.5,1.8,6,6,0,0,0,4.6-1.8,6.5,6.5,0,0,0,1.8-4.8V76.4h2.7Z"/><path class="cls-1" d="M330.6,84.1a7.1,7.1,0,0,1-2.2,5.5,8.1,8.1,0,0,1-5.8,2.1h-6.9v10.7h-2.8v-26h9.7a8.1,8.1,0,0,1,5.8,2.1A7.3,7.3,0,0,1,330.6,84.1Zm-2.8,0a5,5,0,0,0-1.5-3.9,6.2,6.2,0,0,0-4-1.3h-6.6V89.3h6.6a5.7,5.7,0,0,0,4-1.4A4.8,4.8,0,0,0,327.8,84.1Z"/></g><g id="futures_copy" data-name="futures copy"><rect class="cls-1" x="321.9" y="46.5" width="8.6" height="8.49" rx="0.8" transform="matrix(1, -0.03, 0.03, 1, -1.57, 11.43)"/><rect class="cls-1" x="273.6" y="48.2" width="8.6" height="8.49" rx="0.8" transform="translate(-1.7 9.7) rotate(-2)"/><rect class="cls-1" x="216.5" y="50.2" width="8.6" height="8.49" rx="0.8" transform="translate(-1.8 7.7) rotate(-2)"/><rect class="cls-1" x="171" y="51.8" width="8.6" height="8.49" rx="0.8" transform="translate(-1.9 6.2) rotate(-2)"/><rect class="cls-1" x="159.5" y="52.1" width="8.6" height="8.49" rx="0.8" transform="translate(-1.9 5.7) rotate(-2)"/><rect class="cls-1" x="80.1" y="54.9" width="8.6" height="8.49" rx="0.8" transform="translate(-2 3) rotate(-2)"/><rect class="cls-1" x="68.6" y="55.3" width="8.6" height="8.49" rx="0.8" transform="translate(-2 2.6) rotate(-2)"/><rect class="cls-1" x="43.1" y="56.2" width="8.6" height="8.49" rx="0.8" transform="translate(-2.1 1.7) rotate(-2)"/><rect class="cls-1" x="11.6" y="57.3" width="8.6" height="8.49" rx="0.8" transform="translate(-2.1 0.6) rotate(-2)"/><rect class="cls-1" x="0.1" y="57.7" width="8.6" height="8.49" rx="0.8" transform="translate(-2.2 0.2) rotate(-2)"/><rect class="cls-1" x="310.5" y="46.9" width="8.6" height="8.49" rx="0.8" transform="translate(-1.6 10.9) rotate(-2)"/><rect class="cls-1" x="248" y="49" width="8.6" height="8.49" rx="0.8" transform="translate(-1.7 8.8) rotate(-2)"/><path class="cls-1" d="M244,49.4l-15.3.5a.8.8,0,0,0-.8.9l.2,6.8a.8.8,0,0,0,.9.8l15.3-.5a.9.9,0,0,0,.8-.9l-.2-6.8A.8.8,0,0,0,244,49.4Z"/><path class="cls-1" d="M198.5,51l-15.3.5a.8.8,0,0,0-.8.8l.2,6.9a.9.9,0,0,0,.9.8l15.3-.6a.7.7,0,0,0,.8-.8l-.2-6.9A.7.7,0,0,0,198.5,51Z"/><rect class="cls-1" x="125.5" y="53.1" width="17" height="8.49" rx="0.8" transform="translate(-1.9 4.7) rotate(-2)"/><path class="cls-1" d="M107.6,54.1l-15.4.6a.9.9,0,0,0-.8.8l.3,6.9a.9.9,0,0,0,.8.8l15.4-.6a.9.9,0,0,0,.8-.8l-.3-6.9A.9.9,0,0,0,107.6,54.1Z"/><rect class="cls-1" x="23.1" y="56.8" width="17" height="8.49" rx="0.8" transform="translate(-2.1 1.1) rotate(-2)"/><rect class="cls-1" x="299.1" y="47.3" width="8.6" height="8.49" rx="0.8" transform="matrix(1, -0.03, 0.03, 1, -1.62, 10.64)"/></g><g id="PROSOCIAL_copy" data-name="PROSOCIAL copy"><path class="cls-1" d="M25.3,11.3a10.7,10.7,0,0,1-3.2,7.9,11.7,11.7,0,0,1-8.4,3.1H5.5V36.5H0V.3H13.7a11.3,11.3,0,0,1,8.4,3.1A10.7,10.7,0,0,1,25.3,11.3Zm-5.5,0a6.1,6.1,0,0,0-1.7-4.5,7,7,0,0,0-4.7-1.6H5.5V17.3h7.9a6.5,6.5,0,0,0,4.7-1.6A5.9,5.9,0,0,0,19.8,11.3Z"/><path class="cls-1" d="M67.2,36.5H60.8L53.2,21.3H46.3V36.5H40.8V.3H54.9a11.1,11.1,0,0,1,8.1,3,10.2,10.2,0,0,1,3.1,7.6,9.8,9.8,0,0,1-2,6.2,10.1,10.1,0,0,1-5.2,3.4ZM60.6,11a5.4,5.4,0,0,0-1.7-4.2,6.5,6.5,0,0,0-4.5-1.6H46.3V16.6h8.1a6.4,6.4,0,0,0,4.5-1.5A5.3,5.3,0,0,0,60.6,11Z"/><path class="cls-1" d="M107.7,18.4a50.5,50.5,0,0,1-.5,8.6,11.4,11.4,0,0,1-3,6,13.3,13.3,0,0,1-9.5,3.8A13,13,0,0,1,85.2,33a10.9,10.9,0,0,1-3.1-6,55,55,0,0,1-.4-8.6,53.5,53.5,0,0,1,.4-8.5,10.3,10.3,0,0,1,3.1-6A12.7,12.7,0,0,1,94.7,0a13,13,0,0,1,9.5,3.9,10.7,10.7,0,0,1,3,6A49.1,49.1,0,0,1,107.7,18.4Zm-5.5,0c0-3.1-.1-5-.2-5.9a8.4,8.4,0,0,0-2-5.3,6.7,6.7,0,0,0-5.3-2.3,7.1,7.1,0,0,0-5.4,2.3,8.4,8.4,0,0,0-2,5.3c-.1.9-.2,2.8-.2,5.9s.1,5.1.2,5.9a8.9,8.9,0,0,0,2,5.4,7.4,7.4,0,0,0,5.4,2.2,7,7,0,0,0,5.3-2.2,8.9,8.9,0,0,0,2-5.4C102.1,23.5,102.2,21.5,102.2,18.4Z"/><path class="cls-1" d="M147.3,26.2a9.4,9.4,0,0,1-3.6,7.8c-2.4,1.9-5.5,2.8-9.4,2.8-5.4,0-9.6-1.6-12.8-4.8l3.7-3.6a12.5,12.5,0,0,0,9.2,3.5,8.8,8.8,0,0,0,5.5-1.5,4.7,4.7,0,0,0,2-4.1,5,5,0,0,0-1.4-3.7,7,7,0,0,0-4-1.5l-4.3-.7a11.9,11.9,0,0,1-6.8-2.9,8.7,8.7,0,0,1-2.7-6.9A9.8,9.8,0,0,1,126,2.9C128.1,1,131.1,0,134.8,0A15.8,15.8,0,0,1,146,4.1l-3.5,3.5a10.7,10.7,0,0,0-7.8-2.8,6.9,6.9,0,0,0-4.9,1.6,5,5,0,0,0-1.7,4,4,4,0,0,0,1.4,3.4,7.8,7.8,0,0,0,4,1.7l4.1.6a12.5,12.5,0,0,1,6.8,2.7A9.5,9.5,0,0,1,147.3,26.2Z"/><path class="cls-1" d="M188.2,18.4a70.5,70.5,0,0,1-.4,8.6,10.9,10.9,0,0,1-3.1,6,13,13,0,0,1-9.5,3.8,13.1,13.1,0,0,1-9.5-3.8,11.6,11.6,0,0,1-3.1-6,55,55,0,0,1-.4-8.6,53.5,53.5,0,0,1,.4-8.5,10.9,10.9,0,0,1,3.1-6A12.8,12.8,0,0,1,175.2,0a12.7,12.7,0,0,1,9.5,3.9,10.3,10.3,0,0,1,3.1,6A68.5,68.5,0,0,1,188.2,18.4Zm-5.5,0c0-3.1-.1-5-.2-5.9a9,9,0,0,0-1.9-5.3,7.5,7.5,0,0,0-10.8,0c-1.1,1.1-1.7,2.9-2,5.3s-.1,2.8-.1,5.9,0,5.1.1,5.9a9.6,9.6,0,0,0,2,5.4,7.7,7.7,0,0,0,10.8,0,9.6,9.6,0,0,0,1.9-5.4C182.6,23.5,182.7,21.5,182.7,18.4Z"/><path class="cls-1" d="M227,32.6a14.2,14.2,0,0,1-10.1,4.2,13,13,0,0,1-9.5-3.8,10.9,10.9,0,0,1-3.1-6,55,55,0,0,1-.4-8.6,53.5,53.5,0,0,1,.4-8.5,10.3,10.3,0,0,1,3.1-6A12.7,12.7,0,0,1,216.9,0,13.9,13.9,0,0,1,227,4.3L223.3,8a9.2,9.2,0,0,0-6.4-3.1,7.4,7.4,0,0,0-5.4,2.2,9.6,9.6,0,0,0-1.9,5.4c-.1.8-.2,2.8-.2,5.9s.1,5.1.2,6a9,9,0,0,0,1.9,5.3,7,7,0,0,0,5.4,2.2,8.8,8.8,0,0,0,6.4-3.1Z"/><path class="cls-1" d="M248.7,36.5h-5.5V.3h5.5Z"/><path class="cls-1" d="M293.6,36.5h-5.8l-2.5-7.3H271l-2.5,7.3h-5.8L276,.3h4.4Zm-9.8-11.9L278.3,8.5l-5.6,16.1Z"/><path class="cls-1" d="M330.5,36.5H307.6V.3h5.5V31.6h17.4Z"/></g></g></g></svg>