<svg xmlns="http://www.w3.org/2000/svg" viewBox="0 0 287 22.5"><defs><style>.cls-1{fill:#fff;}</style></defs><g id="레이어_2" data-name="레이어 2"><g id="bothell_stacked_large" data-name="bothell stacked large"><path class="cls-1" d="M279.1,17.5v-9l6.3,10h.6V7.6l1-1.1h-3.1l1,1.1v7.6l-5.4-8.7H277l1,1.1v9.9l-1,1h3.2Zm-10,.4c-2.4,0-3.2-2.9-3.2-5.4s.8-5.3,3.2-5.3,3.3,2.8,3.3,5.3-.8,5.4-3.3,5.4m-4.8-5.4c0,3.1,1.8,6.3,4.8,6.3s4.9-3.2,4.9-6.3-1.8-6.2-4.9-6.2-4.8,3.2-4.8,6.2m-6.1,5.1V7.4h2.3l1.3,1.3V6.5h-8.5V8.7l1.3-1.3h2.3V17.6l-1,.9h3.2Zm-9.6-4.5v3.8a2.7,2.7,0,0,1-2,.9c-2.7,0-4-2.7-4-5.3s1.7-5.3,4-5.3a2,2,0,0,1,1.5.6l1.3,1.3V7a6.1,6.1,0,0,0-2.8-.6,5.8,5.8,0,0,0-5.6,6.1c0,3.2,2.3,6.2,5.6,6.2a5.2,5.2,0,0,0,3.3-.9V13.1l.9-1h-3.2Zm-17.8,4.4v-9l6.3,10h.5V7.6l1.1-1.1h-3.2l1.1,1.1v7.6l-5.5-8.7h-2.4l1,1.1v9.9l-1,1h3.1Zm-8.7-11,1,1V17.6l-1,.9h3.3l-1-.9V7.5l1-1Zm-10.6,6h5v5.1l-.9.9h3.2l-1-.9V7.5l1-1h-3.2l.9,1v4.1h-5V7.5l.9-1h-3.2l.9,1V17.6l-.9.9h3.2l-.9-.9ZM206,15.2a2.6,2.6,0,0,0-1.1-2.3l-2.4-1.8a2.8,2.8,0,0,1-1.4-2,1.8,1.8,0,0,1,1.8-1.8l.7.2,1.1,1.1L205.8,7l-2.4-.5h-.5a3,3,0,0,0-3.1,2.9,3.6,3.6,0,0,0,1.6,2.8l2.4,1.7a2.1,2.1,0,0,1,.9,1.8,2,2,0,0,1-2,2.1l-.8-.2-1.2-1.3-1,1.9,2.3.4h.7a3.4,3.4,0,0,0,3.3-3.5m-13.4-6,1.6,4.9h-3.3Zm-2.9,8.4.9-2.6h3.9l.9,2.6-1,.9h3.4l-.9-1-3.8-11h-.6l-3.8,11-1,1h2.9Zm-12.8.9,2.7-8.7,2.7,8.7h.6l3.5-11,1-1h-2.9l.9,1-2.5,8.3-2.5-8.3,1-1H178l.9,1,.3.8-2.3,7.5-2.5-8.3.9-1h-3.4l1,1,3.4,11Zm-19.2-7.2-.5.5h1.5c-.2,1.6-.4,2.9-.8,5s-.8,4.3-1.1,4.6h-.5a1.1,1.1,0,0,1-.7-.3c-.2-.1-.4.1-.5.2a1.3,1.3,0,0,0-.3.5c0,.4.5.5.8.5a2.6,2.6,0,0,0,1.8-1.1c.6-.7,1.4-2.4,2-6.2a30,30,0,0,0,.6-3.3h1.7l.4-.5h-2c.5-3.1.9-4,1.6-4a1.7,1.7,0,0,1,1.3.5.4.4,0,0,0,.5,0,.8.8,0,0,0,.4-.6c0-.4-.5-.7-1.1-.7a3.6,3.6,0,0,0-2.7,1.4,8.1,8.1,0,0,0-1.3,3.4Zm-7.6,4.5c0-2.5,1.2-3.9,1.8-4.1l.5-.2c.9,0,1.4.7,1.4,2s-1.2,4.2-1.9,4.4h-.5c-.9,0-1.3-1-1.3-2.2m2.9-4.9a4.1,4.1,0,0,0-1.9.6,5.5,5.5,0,0,0-2.4,4.7c0,1.1.5,2.5,2.1,2.5a3.9,3.9,0,0,0,2.5-1.2,5.6,5.6,0,0,0,1.8-4.2c0-1.4-.7-2.4-2.1-2.4M132.6,7.5l3.1,5.4v4.7l-1,.9H138l-1-.9V12.9l3.1-5.4,1-1h-3l1,1-2.6,4.4-2.4-4.4,1-1h-3.4Zm-6.3,10.1V7.4h2.3l1.3,1.3V6.5h-8.5V8.7l1.3-1.3H125V17.6l-1,.9h3.3ZM115.4,6.5l1,1V17.6l-1,.9h3.2l-.9-.9V7.5l.9-1Zm-3.5,8.7a2.6,2.6,0,0,0-1.1-2.3l-2.5-1.8a2.9,2.9,0,0,1-1.3-2,1.8,1.8,0,0,1,1.8-1.8l.7.2,1.1,1.1L111.7,7l-2.4-.5h-.5a3,3,0,0,0-3.1,2.9,3.8,3.8,0,0,0,1.5,2.8l2.5,1.7a2.1,2.1,0,0,1,.9,1.8,2,2,0,0,1-2,2.1l-.9-.2-1.1-1.3-1,1.9,2.3.4h.7a3.4,3.4,0,0,0,3.3-3.5M96.5,7.4h1.4a2.3,2.3,0,0,1,2.3,2.4A2.2,2.2,0,0,1,97.9,12H96.5Zm0,10.2V12.9h1.8l2.9,5.6h2l-1-.9-2.6-5a3.1,3.1,0,0,0,2.2-2.8c0-2-1.9-3.3-3.9-3.3H94.2l.9,1V17.6l-.9.9h3.2Zm-5.4.9V16.3l-1.3,1.3H86.1v-5h2.7l1,.9V10.7l-1,1H86.1V7.4h3.7l1.3,1.3V6.5H83.9l.9,1V17.6l-.9.9ZM75.5,6.5H72.1l.9,1,3.4,11H77l3.5-11,1-1H78.6l.9,1L77,15.8,74.5,7.5Zm-9.4,0,1,1V17.6l-1,.9h3.3l-1-.9V7.5l1-1Zm-11.2,11v-9l6.5,10h.4V7.6l1.1-1.1H59.7l1.1,1.1v7.6L55.3,6.5H52.8l1.1,1.1v9.9l-1.1,1H56ZM41.4,15.3a3.6,3.6,0,0,0,3.7,3.5A3.8,3.8,0,0,0,49,15.3V7.6l1.1-1.1H46.9L48,7.6v7.7a2.5,2.5,0,0,1-2.5,2.5,2.7,2.7,0,0,1-2.7-2.5V7.6l1.1-1.1H40.4l1,1.1Z"/><polygon class="cls-1" points="0 0 0 4 2.5 4 7 22 13.3 22 16.3 10.7 19.1 22 25.4 22 30.1 4 32.5 4 32.5 0 23.9 0 23.9 4 26.8 4 23.7 15.7 19.8 0 15.8 0 11.6 15.8 8.6 4 11.7 4 11.7 0 0 0"/></g></g></svg>