<?xml version="1.0" standalone="no"?>
<!DOCTYPE svg PUBLIC "-//W3C//DTD SVG 20010904//EN"
 "http://www.w3.org/TR/2001/REC-SVG-20010904/DTD/svg10.dtd">
<svg version="1.0" xmlns="http://www.w3.org/2000/svg"
 width="1024.000000pt" height="1024.000000pt" viewBox="0 0 1024.000000 1024.000000"
 preserveAspectRatio="xMidYMid meet">
<metadata>
Created by potrace 1.14, written by Peter Selinger 2001-2017
</metadata>
<g transform="translate(0.000000,1024.000000) scale(0.100000,-0.100000)"
fill="#000000" stroke="none">
<path d="M2532 9538 c-11 -18 -586 -1014 -1277 -2212 -1193 -2068 -1257 -2181
-1253 -2220 4 -32 276 -511 1275 -2241 l1270 -2200 2573 0 2573 0 1271 2200
c1225 2121 1271 2202 1271 2250 0 48 -47 130 -1271 2250 l-1271 2200 -2571 3
-2570 2 -20 -32z m5921 -2491 c610 -1057 1109 -1926 1109 -1932 0 -5 -499
-875 -1109 -1932 l-1108 -1922 -2225 0 -2225 0 -1109 1923 c-610 1058 -1109
1927 -1109 1931 0 4 499 873 1109 1931 l1109 1923 2225 0 2225 0 1108 -1922z"/>
<path d="M6190 6081 l0 -1859 25 -31 c44 -52 107 -66 295 -66 188 0 262 16
311 65 l29 28 0 1861 0 1861 -330 0 -330 0 0 -1859z"/>
<path d="M3590 7532 c0 -349 -23 -535 -92 -751 -133 -420 -535 -977 -1025
-1424 -142 -129 -158 -151 -141 -197 21 -56 205 -263 292 -327 75 -55 130 -59
194 -13 69 50 437 417 545 543 253 296 487 640 593 873 18 41 36 74 39 74 3 0
14 -19 24 -42 81 -189 339 -571 582 -863 104 -124 454 -482 491 -501 72 -37
136 6 306 208 84 100 115 156 107 191 -4 13 -49 63 -101 111 -51 48 -151 151
-220 229 -441 495 -746 1026 -845 1472 -19 86 -22 140 -26 378 l-5 277 -359 0
-359 0 0 -238z"/>
<path d="M3440 3743 l0 -678 29 -60 c103 -215 364 -459 561 -525 58 -20 88
-20 1442 -20 1371 0 1383 0 1416 20 20 13 42 39 55 68 20 42 22 64 22 197 0
165 -13 221 -61 266 l-26 24 -1331 5 c-1309 5 -1333 5 -1366 25 -19 11 -43 38
-55 60 -21 39 -21 52 -24 668 l-3 627 -329 0 -330 0 0 -677z"/>
</g>
</svg>
